solid Exported from Blender-2.82 (sub 7)
facet normal 0.049277 0.998785 0.000000
outer loop
vertex 2.050000 2.024998 0.000000
vertex 2.050000 2.024998 0.050000
vertex 2.052450 2.024877 0.050000
endloop
endfacet
facet normal 0.049277 0.998785 0.000000
outer loop
vertex 2.050000 2.024998 0.000000
vertex 2.052450 2.024877 0.050000
vertex 2.052450 2.024877 0.000000
endloop
endfacet
facet normal 0.049277 0.998785 0.000000
outer loop
vertex 2.050000 2.024998 0.050000
vertex 2.050000 2.024998 0.100000
vertex 2.052450 2.024877 0.100000
endloop
endfacet
facet normal 0.049277 0.998785 0.000000
outer loop
vertex 2.050000 2.024998 0.050000
vertex 2.052450 2.024877 0.100000
vertex 2.052450 2.024877 0.050000
endloop
endfacet
facet normal 0.146725 0.989177 0.000000
outer loop
vertex 2.052450 2.024877 0.050000
vertex 2.052450 2.024877 0.100000
vertex 2.054877 2.024517 0.100000
endloop
endfacet
facet normal 0.146725 0.989177 0.000000
outer loop
vertex 2.052450 2.024877 0.050000
vertex 2.054877 2.024517 0.100000
vertex 2.054877 2.024517 0.050000
endloop
endfacet
facet normal 0.146725 0.989177 0.000000
outer loop
vertex 2.052450 2.024877 0.000000
vertex 2.052450 2.024877 0.050000
vertex 2.054877 2.024517 0.050000
endloop
endfacet
facet normal 0.146725 0.989177 0.000000
outer loop
vertex 2.052450 2.024877 0.000000
vertex 2.054877 2.024517 0.050000
vertex 2.054877 2.024517 0.000000
endloop
endfacet
facet normal 0.243416 0.969922 0.000000
outer loop
vertex 2.054877 2.024517 0.000000
vertex 2.054877 2.024517 0.050000
vertex 2.057256 2.023920 0.050000
endloop
endfacet
facet normal 0.243301 0.969951 0.000008
outer loop
vertex 2.054877 2.024517 0.000000
vertex 2.057256 2.023920 0.050000
vertex 2.057257 2.023920 0.000000
endloop
endfacet
facet normal 0.243330 0.969944 0.000000
outer loop
vertex 2.054877 2.024517 0.050000
vertex 2.054877 2.024517 0.100000
vertex 2.057257 2.023920 0.100000
endloop
endfacet
facet normal 0.243387 0.969929 -0.000008
outer loop
vertex 2.054877 2.024517 0.050000
vertex 2.057257 2.023920 0.100000
vertex 2.057256 2.023920 0.050000
endloop
endfacet
facet normal 0.336976 0.941513 -0.000008
outer loop
vertex 2.057256 2.023920 0.050000
vertex 2.057257 2.023920 0.100000
vertex 2.059565 2.023094 0.100000
endloop
endfacet
facet normal 0.336898 0.941541 0.000000
outer loop
vertex 2.057256 2.023920 0.050000
vertex 2.059565 2.023094 0.100000
vertex 2.059565 2.023094 0.050000
endloop
endfacet
facet normal 0.336860 0.941555 0.000008
outer loop
vertex 2.057257 2.023920 0.000000
vertex 2.057256 2.023920 0.050000
vertex 2.059565 2.023094 0.050000
endloop
endfacet
facet normal 0.337014 0.941500 0.000000
outer loop
vertex 2.057257 2.023920 0.000000
vertex 2.059565 2.023094 0.050000
vertex 2.059565 2.023094 0.000000
endloop
endfacet
facet normal 0.426943 0.904279 0.000000
outer loop
vertex 2.059565 2.023094 0.000000
vertex 2.059565 2.023094 0.050000
vertex 2.061784 2.022046 0.050000
endloop
endfacet
facet normal 0.427037 0.904234 0.000000
outer loop
vertex 2.059565 2.023094 0.000000
vertex 2.061784 2.022046 0.050000
vertex 2.061784 2.022046 0.000000
endloop
endfacet
facet normal 0.426943 0.904279 0.000000
outer loop
vertex 2.059565 2.023094 0.050000
vertex 2.059565 2.023094 0.100000
vertex 2.061784 2.022046 0.100000
endloop
endfacet
facet normal 0.427037 0.904234 0.000000
outer loop
vertex 2.059565 2.023094 0.050000
vertex 2.061784 2.022046 0.100000
vertex 2.061784 2.022046 0.050000
endloop
endfacet
facet normal 0.514639 0.857407 0.000000
outer loop
vertex 2.061784 2.022046 0.050000
vertex 2.061784 2.022046 0.100000
vertex 2.063887 2.020784 0.100000
endloop
endfacet
facet normal 0.514639 0.857407 0.000000
outer loop
vertex 2.061784 2.022046 0.050000
vertex 2.063887 2.020784 0.100000
vertex 2.063887 2.020784 0.050000
endloop
endfacet
facet normal 0.514639 0.857407 0.000000
outer loop
vertex 2.061784 2.022046 0.000000
vertex 2.061784 2.022046 0.050000
vertex 2.063887 2.020784 0.050000
endloop
endfacet
facet normal 0.514639 0.857407 0.000000
outer loop
vertex 2.061784 2.022046 0.000000
vertex 2.063887 2.020784 0.050000
vertex 2.063887 2.020784 0.000000
endloop
endfacet
facet normal 0.595841 0.803102 0.000000
outer loop
vertex 2.063887 2.020784 0.000000
vertex 2.063887 2.020784 0.050000
vertex 2.065858 2.019322 0.050000
endloop
endfacet
facet normal 0.595667 0.803232 0.000000
outer loop
vertex 2.063887 2.020784 0.000000
vertex 2.065858 2.019322 0.050000
vertex 2.065858 2.019322 0.000000
endloop
endfacet
facet normal 0.595841 0.803102 0.000000
outer loop
vertex 2.063887 2.020784 0.050000
vertex 2.063887 2.020784 0.100000
vertex 2.065858 2.019322 0.100000
endloop
endfacet
facet normal 0.595667 0.803232 0.000000
outer loop
vertex 2.063887 2.020784 0.050000
vertex 2.065858 2.019322 0.100000
vertex 2.065858 2.019322 0.050000
endloop
endfacet
facet normal 0.671646 0.740872 0.000000
outer loop
vertex 2.065858 2.019322 0.050000
vertex 2.065858 2.019322 0.100000
vertex 2.067675 2.017675 0.100000
endloop
endfacet
facet normal 0.671586 0.740927 0.000000
outer loop
vertex 2.065858 2.019322 0.050000
vertex 2.067675 2.017675 0.100000
vertex 2.067675 2.017675 0.050000
endloop
endfacet
facet normal 0.671646 0.740872 0.000000
outer loop
vertex 2.065858 2.019322 0.000000
vertex 2.065858 2.019322 0.050000
vertex 2.067675 2.017675 0.050000
endloop
endfacet
facet normal 0.671586 0.740927 0.000000
outer loop
vertex 2.065858 2.019322 0.000000
vertex 2.067675 2.017675 0.050000
vertex 2.067675 2.017675 0.000000
endloop
endfacet
facet normal 0.740577 0.671971 0.000000
outer loop
vertex 2.067675 2.017675 0.000000
vertex 2.067675 2.017675 0.050000
vertex 2.069323 2.015858 0.050000
endloop
endfacet
facet normal 0.740759 0.671771 0.000000
outer loop
vertex 2.067675 2.017675 0.000000
vertex 2.069323 2.015858 0.050000
vertex 2.069323 2.015858 0.000000
endloop
endfacet
facet normal 0.740577 0.671971 0.000000
outer loop
vertex 2.067675 2.017675 0.050000
vertex 2.067675 2.017675 0.100000
vertex 2.069323 2.015858 0.100000
endloop
endfacet
facet normal 0.740759 0.671771 0.000000
outer loop
vertex 2.067675 2.017675 0.050000
vertex 2.069323 2.015858 0.100000
vertex 2.069323 2.015858 0.050000
endloop
endfacet
facet normal 0.803323 0.595544 0.000000
outer loop
vertex 2.069323 2.015858 0.050000
vertex 2.069323 2.015858 0.100000
vertex 2.070784 2.013887 0.100000
endloop
endfacet
facet normal 0.803497 0.595309 0.000000
outer loop
vertex 2.069323 2.015858 0.050000
vertex 2.070784 2.013887 0.100000
vertex 2.070784 2.013887 0.050000
endloop
endfacet
facet normal 0.803323 0.595544 0.000000
outer loop
vertex 2.069323 2.015858 0.000000
vertex 2.069323 2.015858 0.050000
vertex 2.070784 2.013887 0.050000
endloop
endfacet
facet normal 0.803497 0.595309 0.000000
outer loop
vertex 2.069323 2.015858 0.000000
vertex 2.070784 2.013887 0.050000
vertex 2.070784 2.013887 0.000000
endloop
endfacet
facet normal 0.857364 0.514710 0.000000
outer loop
vertex 2.070784 2.013887 0.000000
vertex 2.070784 2.013887 0.050000
vertex 2.072046 2.011784 0.050000
endloop
endfacet
facet normal 0.857418 0.514621 0.000000
outer loop
vertex 2.070784 2.013887 0.000000
vertex 2.072046 2.011784 0.050000
vertex 2.072046 2.011784 0.000000
endloop
endfacet
facet normal 0.857364 0.514710 0.000000
outer loop
vertex 2.070784 2.013887 0.050000
vertex 2.070784 2.013887 0.100000
vertex 2.072046 2.011784 0.100000
endloop
endfacet
facet normal 0.857418 0.514621 0.000000
outer loop
vertex 2.070784 2.013887 0.050000
vertex 2.072046 2.011784 0.100000
vertex 2.072046 2.011784 0.050000
endloop
endfacet
facet normal 0.904154 0.427207 0.000000
outer loop
vertex 2.072046 2.011784 0.050000
vertex 2.072046 2.011784 0.100000
vertex 2.073095 2.009565 0.100000
endloop
endfacet
facet normal 0.904060 0.427406 0.000000
outer loop
vertex 2.072046 2.011784 0.050000
vertex 2.073095 2.009565 0.100000
vertex 2.073095 2.009565 0.050000
endloop
endfacet
facet normal 0.904154 0.427207 0.000000
outer loop
vertex 2.072046 2.011784 0.000000
vertex 2.072046 2.011784 0.050000
vertex 2.073095 2.009565 0.050000
endloop
endfacet
facet normal 0.904060 0.427406 0.000000
outer loop
vertex 2.072046 2.011784 0.000000
vertex 2.073095 2.009565 0.050000
vertex 2.073095 2.009565 0.000000
endloop
endfacet
facet normal 0.941549 0.336875 0.000000
outer loop
vertex 2.073095 2.009565 0.000000
vertex 2.073095 2.009565 0.050000
vertex 2.073921 2.007257 0.050000
endloop
endfacet
facet normal 0.941472 0.337091 0.000000
outer loop
vertex 2.073095 2.009565 0.000000
vertex 2.073921 2.007257 0.050000
vertex 2.073921 2.007257 0.000000
endloop
endfacet
facet normal 0.941549 0.336875 0.000000
outer loop
vertex 2.073095 2.009565 0.050000
vertex 2.073095 2.009565 0.100000
vertex 2.073921 2.007257 0.100000
endloop
endfacet
facet normal 0.941472 0.337091 0.000000
outer loop
vertex 2.073095 2.009565 0.050000
vertex 2.073921 2.007257 0.100000
vertex 2.073921 2.007257 0.050000
endloop
endfacet
facet normal 0.969954 0.243290 0.000000
outer loop
vertex 2.073921 2.007257 0.050000
vertex 2.073921 2.007257 0.100000
vertex 2.074518 2.004877 0.100000
endloop
endfacet
facet normal 0.969925 0.243404 0.000000
outer loop
vertex 2.073921 2.007257 0.050000
vertex 2.074518 2.004877 0.100000
vertex 2.074518 2.004877 0.050000
endloop
endfacet
facet normal 0.969954 0.243290 0.000000
outer loop
vertex 2.073921 2.007257 0.000000
vertex 2.073921 2.007257 0.050000
vertex 2.074518 2.004877 0.050000
endloop
endfacet
facet normal 0.969925 0.243404 0.000000
outer loop
vertex 2.073921 2.007257 0.000000
vertex 2.074518 2.004877 0.050000
vertex 2.074518 2.004877 0.000000
endloop
endfacet
facet normal 0.989186 0.146668 0.000000
outer loop
vertex 2.074518 2.004877 0.000000
vertex 2.074518 2.004877 0.050000
vertex 2.074878 2.002449 0.050000
endloop
endfacet
facet normal 0.989186 0.146668 0.000000
outer loop
vertex 2.074518 2.004877 0.000000
vertex 2.074878 2.002449 0.050000
vertex 2.074878 2.002449 0.000000
endloop
endfacet
facet normal 0.989186 0.146668 0.000000
outer loop
vertex 2.074518 2.004877 0.050000
vertex 2.074518 2.004877 0.100000
vertex 2.074878 2.002449 0.100000
endloop
endfacet
facet normal 0.989186 0.146668 0.000000
outer loop
vertex 2.074518 2.004877 0.050000
vertex 2.074878 2.002449 0.100000
vertex 2.074878 2.002449 0.050000
endloop
endfacet
facet normal 0.998812 0.048740 0.000000
outer loop
vertex 2.074878 2.002449 0.050000
vertex 2.074878 2.002449 0.100000
vertex 2.074998 2.000000 0.100000
endloop
endfacet
facet normal 0.998800 0.048982 0.000000
outer loop
vertex 2.074878 2.002449 0.050000
vertex 2.074998 2.000000 0.100000
vertex 2.074998 2.000000 0.050000
endloop
endfacet
facet normal 0.998812 0.048740 0.000000
outer loop
vertex 2.074878 2.002449 0.000000
vertex 2.074878 2.002449 0.050000
vertex 2.074998 2.000000 0.050000
endloop
endfacet
facet normal 0.998800 0.048982 0.000000
outer loop
vertex 2.074878 2.002449 0.000000
vertex 2.074998 2.000000 0.050000
vertex 2.074998 2.000000 0.000000
endloop
endfacet
facet normal 0.998801 -0.048963 0.000000
outer loop
vertex 2.074998 2.000000 0.000000
vertex 2.074998 2.000000 0.050000
vertex 2.074878 1.997550 0.050000
endloop
endfacet
facet normal 0.998812 -0.048721 0.000000
outer loop
vertex 2.074998 2.000000 0.000000
vertex 2.074878 1.997550 0.050000
vertex 2.074878 1.997550 0.000000
endloop
endfacet
facet normal 0.998801 -0.048963 0.000000
outer loop
vertex 2.074998 2.000000 0.050000
vertex 2.074998 2.000000 0.100000
vertex 2.074878 1.997550 0.100000
endloop
endfacet
facet normal 0.998812 -0.048721 0.000000
outer loop
vertex 2.074998 2.000000 0.050000
vertex 2.074878 1.997550 0.100000
vertex 2.074878 1.997550 0.050000
endloop
endfacet
facet normal 0.989168 -0.146788 0.000000
outer loop
vertex 2.074878 1.997550 0.050000
vertex 2.074878 1.997550 0.100000
vertex 2.074518 1.995124 0.100000
endloop
endfacet
facet normal 0.989168 -0.146788 0.000000
outer loop
vertex 2.074878 1.997550 0.050000
vertex 2.074518 1.995124 0.100000
vertex 2.074518 1.995124 0.050000
endloop
endfacet
facet normal 0.989168 -0.146788 0.000000
outer loop
vertex 2.074878 1.997550 0.000000
vertex 2.074878 1.997550 0.050000
vertex 2.074518 1.995124 0.050000
endloop
endfacet
facet normal 0.989168 -0.146788 0.000000
outer loop
vertex 2.074878 1.997550 0.000000
vertex 2.074518 1.995124 0.050000
vertex 2.074518 1.995124 0.000000
endloop
endfacet
facet normal 0.969928 -0.243393 0.000000
outer loop
vertex 2.074518 1.995124 0.000000
vertex 2.074518 1.995124 0.050000
vertex 2.073921 1.992744 0.050000
endloop
endfacet
facet normal 0.969956 -0.243279 0.000000
outer loop
vertex 2.074518 1.995124 0.000000
vertex 2.073921 1.992744 0.050000
vertex 2.073921 1.992744 0.000000
endloop
endfacet
facet normal 0.969928 -0.243393 0.000000
outer loop
vertex 2.074518 1.995124 0.050000
vertex 2.074518 1.995124 0.100000
vertex 2.073921 1.992744 0.100000
endloop
endfacet
facet normal 0.969956 -0.243279 0.000000
outer loop
vertex 2.074518 1.995124 0.050000
vertex 2.073921 1.992744 0.100000
vertex 2.073921 1.992744 0.050000
endloop
endfacet
facet normal 0.941555 -0.336860 0.000000
outer loop
vertex 2.073921 1.992744 0.050000
vertex 2.073921 1.992744 0.100000
vertex 2.073095 1.990434 0.100000
endloop
endfacet
facet normal 0.941632 -0.336644 0.000000
outer loop
vertex 2.073921 1.992744 0.050000
vertex 2.073095 1.990434 0.100000
vertex 2.073095 1.990434 0.050000
endloop
endfacet
facet normal 0.941555 -0.336860 0.000000
outer loop
vertex 2.073921 1.992744 0.000000
vertex 2.073921 1.992744 0.050000
vertex 2.073095 1.990434 0.050000
endloop
endfacet
facet normal 0.941632 -0.336644 0.000000
outer loop
vertex 2.073921 1.992744 0.000000
vertex 2.073095 1.990434 0.050000
vertex 2.073095 1.990434 0.000000
endloop
endfacet
facet normal 0.903989 -0.427556 0.000000
outer loop
vertex 2.073095 1.990434 0.000000
vertex 2.073095 1.990434 0.050000
vertex 2.072046 1.988216 0.050000
endloop
endfacet
facet normal 0.904083 -0.427357 0.000000
outer loop
vertex 2.073095 1.990434 0.000000
vertex 2.072046 1.988216 0.050000
vertex 2.072046 1.988216 0.000000
endloop
endfacet
facet normal 0.903989 -0.427556 0.000000
outer loop
vertex 2.073095 1.990434 0.050000
vertex 2.073095 1.990434 0.100000
vertex 2.072046 1.988216 0.100000
endloop
endfacet
facet normal 0.904083 -0.427357 0.000000
outer loop
vertex 2.073095 1.990434 0.050000
vertex 2.072046 1.988216 0.100000
vertex 2.072046 1.988216 0.050000
endloop
endfacet
facet normal 0.857546 -0.514406 0.000000
outer loop
vertex 2.072046 1.988216 0.050000
vertex 2.072046 1.988216 0.100000
vertex 2.070784 1.986112 0.100000
endloop
endfacet
facet normal 0.857493 -0.514496 0.000000
outer loop
vertex 2.072046 1.988216 0.050000
vertex 2.070784 1.986112 0.100000
vertex 2.070784 1.986112 0.050000
endloop
endfacet
facet normal 0.857546 -0.514406 0.000000
outer loop
vertex 2.072046 1.988216 0.000000
vertex 2.072046 1.988216 0.050000
vertex 2.070784 1.986112 0.050000
endloop
endfacet
facet normal 0.857493 -0.514496 0.000000
outer loop
vertex 2.072046 1.988216 0.000000
vertex 2.070784 1.986112 0.050000
vertex 2.070784 1.986112 0.000000
endloop
endfacet
facet normal 0.803359 -0.595495 0.000000
outer loop
vertex 2.070784 1.986112 0.000000
vertex 2.070784 1.986112 0.050000
vertex 2.069323 1.984142 0.050000
endloop
endfacet
facet normal 0.803185 -0.595730 0.000000
outer loop
vertex 2.070784 1.986112 0.000000
vertex 2.069323 1.984142 0.050000
vertex 2.069323 1.984142 0.000000
endloop
endfacet
facet normal 0.803359 -0.595495 0.000000
outer loop
vertex 2.070784 1.986112 0.050000
vertex 2.070784 1.986112 0.100000
vertex 2.069323 1.984142 0.100000
endloop
endfacet
facet normal 0.803185 -0.595730 0.000000
outer loop
vertex 2.070784 1.986112 0.050000
vertex 2.069323 1.984142 0.100000
vertex 2.069323 1.984142 0.050000
endloop
endfacet
facet normal 0.740934 -0.671578 0.000000
outer loop
vertex 2.069323 1.984142 0.050000
vertex 2.069323 1.984142 0.100000
vertex 2.067675 1.982324 0.100000
endloop
endfacet
facet normal 0.740753 -0.671778 0.000000
outer loop
vertex 2.069323 1.984142 0.050000
vertex 2.067675 1.982324 0.100000
vertex 2.067675 1.982324 0.050000
endloop
endfacet
facet normal 0.740934 -0.671578 0.000000
outer loop
vertex 2.069323 1.984142 0.000000
vertex 2.069323 1.984142 0.050000
vertex 2.067675 1.982324 0.050000
endloop
endfacet
facet normal 0.740753 -0.671778 0.000000
outer loop
vertex 2.069323 1.984142 0.000000
vertex 2.067675 1.982324 0.050000
vertex 2.067675 1.982324 0.000000
endloop
endfacet
facet normal 0.671586 -0.740927 0.000000
outer loop
vertex 2.067675 1.982324 0.000000
vertex 2.067675 1.982324 0.050000
vertex 2.065858 1.980677 0.050000
endloop
endfacet
facet normal 0.671646 -0.740872 0.000000
outer loop
vertex 2.067675 1.982324 0.000000
vertex 2.065858 1.980677 0.050000
vertex 2.065858 1.980677 0.000000
endloop
endfacet
facet normal 0.671586 -0.740927 0.000000
outer loop
vertex 2.067675 1.982324 0.050000
vertex 2.067675 1.982324 0.100000
vertex 2.065858 1.980677 0.100000
endloop
endfacet
facet normal 0.671646 -0.740872 0.000000
outer loop
vertex 2.067675 1.982324 0.050000
vertex 2.065858 1.980677 0.100000
vertex 2.065858 1.980677 0.050000
endloop
endfacet
facet normal 0.595416 -0.803418 0.000000
outer loop
vertex 2.065858 1.980677 0.050000
vertex 2.065858 1.980677 0.100000
vertex 2.063887 1.979216 0.100000
endloop
endfacet
facet normal 0.595590 -0.803289 0.000000
outer loop
vertex 2.065858 1.980677 0.050000
vertex 2.063887 1.979216 0.100000
vertex 2.063887 1.979216 0.050000
endloop
endfacet
facet normal 0.595416 -0.803418 0.000000
outer loop
vertex 2.065858 1.980677 0.000000
vertex 2.065858 1.980677 0.050000
vertex 2.063887 1.979216 0.050000
endloop
endfacet
facet normal 0.595590 -0.803289 0.000000
outer loop
vertex 2.065858 1.980677 0.000000
vertex 2.063887 1.979216 0.050000
vertex 2.063887 1.979216 0.000000
endloop
endfacet
facet normal 0.514567 -0.857450 0.000000
outer loop
vertex 2.063887 1.979216 0.000000
vertex 2.063887 1.979216 0.050000
vertex 2.061784 1.977954 0.050000
endloop
endfacet
facet normal 0.514281 -0.857622 -0.000015
outer loop
vertex 2.063887 1.979216 0.000000
vertex 2.061784 1.977954 0.050000
vertex 2.061784 1.977955 0.000000
endloop
endfacet
facet normal 0.514281 -0.857622 0.000000
outer loop
vertex 2.063887 1.979216 0.050000
vertex 2.063887 1.979216 0.100000
vertex 2.061784 1.977955 0.100000
endloop
endfacet
facet normal 0.514567 -0.857450 0.000015
outer loop
vertex 2.063887 1.979216 0.050000
vertex 2.061784 1.977955 0.100000
vertex 2.061784 1.977954 0.050000
endloop
endfacet
facet normal 0.427751 -0.903897 0.000023
outer loop
vertex 2.061784 1.977954 0.050000
vertex 2.061784 1.977955 0.100000
vertex 2.059565 1.976905 0.100000
endloop
endfacet
facet normal 0.427340 -0.904091 0.000000
outer loop
vertex 2.061784 1.977954 0.050000
vertex 2.059565 1.976905 0.100000
vertex 2.059565 1.976905 0.050000
endloop
endfacet
facet normal 0.427434 -0.904047 -0.000023
outer loop
vertex 2.061784 1.977955 0.000000
vertex 2.061784 1.977954 0.050000
vertex 2.059565 1.976905 0.050000
endloop
endfacet
facet normal 0.427657 -0.903941 0.000000
outer loop
vertex 2.061784 1.977955 0.000000
vertex 2.059565 1.976905 0.050000
vertex 2.059565 1.976905 0.000000
endloop
endfacet
facet normal 0.336971 -0.941515 0.000000
outer loop
vertex 2.059565 1.976905 0.000000
vertex 2.059565 1.976905 0.050000
vertex 2.057257 1.976079 0.050000
endloop
endfacet
facet normal 0.336932 -0.941529 0.000000
outer loop
vertex 2.059565 1.976905 0.000000
vertex 2.057257 1.976079 0.050000
vertex 2.057257 1.976079 0.000000
endloop
endfacet
facet normal 0.336971 -0.941515 0.000000
outer loop
vertex 2.059565 1.976905 0.050000
vertex 2.059565 1.976905 0.100000
vertex 2.057257 1.976079 0.100000
endloop
endfacet
facet normal 0.336932 -0.941529 0.000000
outer loop
vertex 2.059565 1.976905 0.050000
vertex 2.057257 1.976079 0.100000
vertex 2.057257 1.976079 0.050000
endloop
endfacet
facet normal 0.242936 -0.970042 0.000000
outer loop
vertex 2.057257 1.976079 0.050000
vertex 2.057257 1.976079 0.100000
vertex 2.054877 1.975483 0.100000
endloop
endfacet
facet normal 0.242964 -0.970035 0.000000
outer loop
vertex 2.057257 1.976079 0.050000
vertex 2.054877 1.975483 0.100000
vertex 2.054877 1.975483 0.050000
endloop
endfacet
facet normal 0.242936 -0.970042 0.000000
outer loop
vertex 2.057257 1.976079 0.000000
vertex 2.057257 1.976079 0.050000
vertex 2.054877 1.975483 0.050000
endloop
endfacet
facet normal 0.242964 -0.970035 0.000000
outer loop
vertex 2.057257 1.976079 0.000000
vertex 2.054877 1.975483 0.050000
vertex 2.054877 1.975483 0.000000
endloop
endfacet
facet normal 0.146677 -0.989184 0.000000
outer loop
vertex 2.054877 1.975483 0.000000
vertex 2.054877 1.975483 0.050000
vertex 2.052450 1.975123 0.050000
endloop
endfacet
facet normal 0.146677 -0.989184 0.000000
outer loop
vertex 2.054877 1.975483 0.000000
vertex 2.052450 1.975123 0.050000
vertex 2.052450 1.975123 0.000000
endloop
endfacet
facet normal 0.146677 -0.989184 0.000000
outer loop
vertex 2.054877 1.975483 0.050000
vertex 2.054877 1.975483 0.100000
vertex 2.052450 1.975123 0.100000
endloop
endfacet
facet normal 0.146677 -0.989184 0.000000
outer loop
vertex 2.054877 1.975483 0.050000
vertex 2.052450 1.975123 0.100000
vertex 2.052450 1.975123 0.050000
endloop
endfacet
facet normal 0.048938 -0.998802 0.000000
outer loop
vertex 2.052450 1.975123 0.050000
vertex 2.052450 1.975123 0.100000
vertex 2.050000 1.975003 0.100000
endloop
endfacet
facet normal 0.048938 -0.998802 0.000000
outer loop
vertex 2.052450 1.975123 0.050000
vertex 2.050000 1.975003 0.100000
vertex 2.050000 1.975003 0.050000
endloop
endfacet
facet normal 0.048938 -0.998802 0.000000
outer loop
vertex 2.052450 1.975123 0.000000
vertex 2.052450 1.975123 0.050000
vertex 2.050000 1.975003 0.050000
endloop
endfacet
facet normal 0.048938 -0.998802 0.000000
outer loop
vertex 2.052450 1.975123 0.000000
vertex 2.050000 1.975003 0.050000
vertex 2.050000 1.975003 0.000000
endloop
endfacet
facet normal -0.048938 -0.998802 0.000000
outer loop
vertex 2.050000 1.975003 0.000000
vertex 2.050000 1.975003 0.050000
vertex 2.047550 1.975123 0.050000
endloop
endfacet
facet normal -0.048938 -0.998802 0.000000
outer loop
vertex 2.050000 1.975003 0.000000
vertex 2.047550 1.975123 0.050000
vertex 2.047550 1.975123 0.000000
endloop
endfacet
facet normal -0.048938 -0.998802 0.000000
outer loop
vertex 2.050000 1.975003 0.050000
vertex 2.050000 1.975003 0.100000
vertex 2.047550 1.975123 0.100000
endloop
endfacet
facet normal -0.048938 -0.998802 0.000000
outer loop
vertex 2.050000 1.975003 0.050000
vertex 2.047550 1.975123 0.100000
vertex 2.047550 1.975123 0.050000
endloop
endfacet
facet normal -0.146765 -0.989171 0.000000
outer loop
vertex 2.047550 1.975123 0.050000
vertex 2.047550 1.975123 0.100000
vertex 2.045124 1.975483 0.100000
endloop
endfacet
facet normal -0.146730 -0.989177 0.000000
outer loop
vertex 2.047550 1.975123 0.050000
vertex 2.045124 1.975483 0.100000
vertex 2.045124 1.975483 0.050000
endloop
endfacet
facet normal -0.146765 -0.989171 0.000000
outer loop
vertex 2.047550 1.975123 0.000000
vertex 2.047550 1.975123 0.050000
vertex 2.045124 1.975483 0.050000
endloop
endfacet
facet normal -0.146730 -0.989177 0.000000
outer loop
vertex 2.047550 1.975123 0.000000
vertex 2.045124 1.975483 0.050000
vertex 2.045124 1.975483 0.000000
endloop
endfacet
facet normal -0.242907 -0.970050 0.000000
outer loop
vertex 2.045124 1.975483 0.000000
vertex 2.045124 1.975483 0.050000
vertex 2.042744 1.976079 0.050000
endloop
endfacet
facet normal -0.242964 -0.970035 0.000000
outer loop
vertex 2.045124 1.975483 0.000000
vertex 2.042744 1.976079 0.050000
vertex 2.042744 1.976079 0.000000
endloop
endfacet
facet normal -0.242907 -0.970050 0.000000
outer loop
vertex 2.045124 1.975483 0.050000
vertex 2.045124 1.975483 0.100000
vertex 2.042744 1.976079 0.100000
endloop
endfacet
facet normal -0.242964 -0.970035 0.000000
outer loop
vertex 2.045124 1.975483 0.050000
vertex 2.042744 1.976079 0.100000
vertex 2.042744 1.976079 0.050000
endloop
endfacet
facet normal -0.337046 -0.941488 0.000000
outer loop
vertex 2.042744 1.976079 0.050000
vertex 2.042744 1.976079 0.100000
vertex 2.040434 1.976906 0.100000
endloop
endfacet
facet normal -0.337084 -0.941474 0.000000
outer loop
vertex 2.042744 1.976079 0.050000
vertex 2.040434 1.976906 0.100000
vertex 2.040434 1.976906 0.050000
endloop
endfacet
facet normal -0.337046 -0.941488 0.000000
outer loop
vertex 2.042744 1.976079 0.000000
vertex 2.042744 1.976079 0.050000
vertex 2.040434 1.976906 0.050000
endloop
endfacet
facet normal -0.337084 -0.941474 0.000000
outer loop
vertex 2.042744 1.976079 0.000000
vertex 2.040434 1.976906 0.050000
vertex 2.040434 1.976906 0.000000
endloop
endfacet
facet normal -0.427257 -0.904130 0.000000
outer loop
vertex 2.040434 1.976906 0.000000
vertex 2.040434 1.976906 0.050000
vertex 2.038216 1.977954 0.050000
endloop
endfacet
facet normal -0.427528 -0.904002 -0.000015
outer loop
vertex 2.040434 1.976906 0.000000
vertex 2.038216 1.977954 0.050000
vertex 2.038216 1.977955 0.000000
endloop
endfacet
facet normal -0.427575 -0.903980 0.000000
outer loop
vertex 2.040434 1.976906 0.050000
vertex 2.040434 1.976906 0.100000
vertex 2.038216 1.977955 0.100000
endloop
endfacet
facet normal -0.427210 -0.904152 0.000015
outer loop
vertex 2.040434 1.976906 0.050000
vertex 2.038216 1.977955 0.100000
vertex 2.038216 1.977954 0.050000
endloop
endfacet
facet normal -0.514121 -0.857718 0.000023
outer loop
vertex 2.038216 1.977954 0.050000
vertex 2.038216 1.977955 0.100000
vertex 2.036112 1.979216 0.100000
endloop
endfacet
facet normal -0.514299 -0.857611 0.000000
outer loop
vertex 2.038216 1.977954 0.050000
vertex 2.036112 1.979216 0.100000
vertex 2.036112 1.979216 0.050000
endloop
endfacet
facet normal -0.514406 -0.857547 -0.000023
outer loop
vertex 2.038216 1.977955 0.000000
vertex 2.038216 1.977954 0.050000
vertex 2.036112 1.979216 0.050000
endloop
endfacet
facet normal -0.514013 -0.857782 0.000000
outer loop
vertex 2.038216 1.977955 0.000000
vertex 2.036112 1.979216 0.050000
vertex 2.036112 1.979216 0.000000
endloop
endfacet
facet normal -0.595706 -0.803202 0.000000
outer loop
vertex 2.036112 1.979216 0.000000
vertex 2.036112 1.979216 0.050000
vertex 2.034142 1.980677 0.050000
endloop
endfacet
facet normal -0.595648 -0.803245 0.000000
outer loop
vertex 2.036112 1.979216 0.000000
vertex 2.034142 1.980677 0.050000
vertex 2.034142 1.980677 0.000000
endloop
endfacet
facet normal -0.595706 -0.803202 0.000000
outer loop
vertex 2.036112 1.979216 0.050000
vertex 2.036112 1.979216 0.100000
vertex 2.034142 1.980677 0.100000
endloop
endfacet
facet normal -0.595648 -0.803245 0.000000
outer loop
vertex 2.036112 1.979216 0.050000
vertex 2.034142 1.980677 0.100000
vertex 2.034142 1.980677 0.050000
endloop
endfacet
facet normal -0.671465 -0.741037 0.000000
outer loop
vertex 2.034142 1.980677 0.050000
vertex 2.034142 1.980677 0.100000
vertex 2.032324 1.982324 0.100000
endloop
endfacet
facet normal -0.671344 -0.741146 0.000000
outer loop
vertex 2.034142 1.980677 0.050000
vertex 2.032324 1.982324 0.100000
vertex 2.032324 1.982324 0.050000
endloop
endfacet
facet normal -0.671465 -0.741036 0.000000
outer loop
vertex 2.034142 1.980677 0.000000
vertex 2.034142 1.980677 0.050000
vertex 2.032324 1.982324 0.050000
endloop
endfacet
facet normal -0.671344 -0.741146 0.000000
outer loop
vertex 2.034142 1.980677 0.000000
vertex 2.032324 1.982324 0.050000
vertex 2.032324 1.982324 0.000000
endloop
endfacet
facet normal -0.741115 -0.671378 0.000000
outer loop
vertex 2.032324 1.982324 0.000000
vertex 2.032324 1.982324 0.050000
vertex 2.030677 1.984142 0.050000
endloop
endfacet
facet normal -0.741055 -0.671444 0.000000
outer loop
vertex 2.032324 1.982324 0.000000
vertex 2.030677 1.984142 0.050000
vertex 2.030677 1.984142 0.000000
endloop
endfacet
facet normal -0.741115 -0.671378 0.000000
outer loop
vertex 2.032324 1.982324 0.050000
vertex 2.032324 1.982324 0.100000
vertex 2.030677 1.984142 0.100000
endloop
endfacet
facet normal -0.741055 -0.671444 0.000000
outer loop
vertex 2.032324 1.982324 0.050000
vertex 2.030677 1.984142 0.100000
vertex 2.030677 1.984142 0.050000
endloop
endfacet
facet normal -0.803243 -0.595652 0.000000
outer loop
vertex 2.030677 1.984142 0.050000
vertex 2.030677 1.984142 0.100000
vertex 2.029216 1.986112 0.100000
endloop
endfacet
facet normal -0.803381 -0.595466 -0.000011
outer loop
vertex 2.030677 1.984142 0.050000
vertex 2.029216 1.986112 0.100000
vertex 2.029216 1.986113 0.050000
endloop
endfacet
facet normal -0.803381 -0.595466 0.000000
outer loop
vertex 2.030677 1.984142 0.000000
vertex 2.030677 1.984142 0.050000
vertex 2.029216 1.986113 0.050000
endloop
endfacet
facet normal -0.803243 -0.595652 0.000011
outer loop
vertex 2.030677 1.984142 0.000000
vertex 2.029216 1.986113 0.050000
vertex 2.029216 1.986112 0.000000
endloop
endfacet
facet normal -0.857390 -0.514667 0.000008
outer loop
vertex 2.029216 1.986112 0.000000
vertex 2.029216 1.986113 0.050000
vertex 2.027954 1.988216 0.050000
endloop
endfacet
facet normal -0.857917 -0.513788 -0.000026
outer loop
vertex 2.029216 1.986112 0.000000
vertex 2.027954 1.988216 0.050000
vertex 2.027955 1.988217 0.000000
endloop
endfacet
facet normal -0.857810 -0.513967 -0.000008
outer loop
vertex 2.029216 1.986113 0.050000
vertex 2.029216 1.986112 0.100000
vertex 2.027955 1.988217 0.100000
endloop
endfacet
facet normal -0.857497 -0.514489 0.000026
outer loop
vertex 2.029216 1.986113 0.050000
vertex 2.027955 1.988217 0.100000
vertex 2.027954 1.988216 0.050000
endloop
endfacet
facet normal -0.903777 -0.428004 0.000023
outer loop
vertex 2.027954 1.988216 0.050000
vertex 2.027955 1.988217 0.100000
vertex 2.026905 1.990434 0.100000
endloop
endfacet
facet normal -0.903989 -0.427556 0.000000
outer loop
vertex 2.027954 1.988216 0.050000
vertex 2.026905 1.990434 0.100000
vertex 2.026905 1.990434 0.050000
endloop
endfacet
facet normal -0.903989 -0.427556 -0.000023
outer loop
vertex 2.027955 1.988217 0.000000
vertex 2.027954 1.988216 0.050000
vertex 2.026905 1.990434 0.050000
endloop
endfacet
facet normal -0.903777 -0.428004 0.000000
outer loop
vertex 2.027955 1.988217 0.000000
vertex 2.026905 1.990434 0.050000
vertex 2.026905 1.990434 0.000000
endloop
endfacet
facet normal -0.941632 -0.336644 0.000000
outer loop
vertex 2.026905 1.990434 0.000000
vertex 2.026905 1.990434 0.050000
vertex 2.026079 1.992744 0.050000
endloop
endfacet
facet normal -0.941555 -0.336860 0.000000
outer loop
vertex 2.026905 1.990434 0.000000
vertex 2.026079 1.992744 0.050000
vertex 2.026079 1.992744 0.000000
endloop
endfacet
facet normal -0.941632 -0.336644 0.000000
outer loop
vertex 2.026905 1.990434 0.050000
vertex 2.026905 1.990434 0.100000
vertex 2.026079 1.992744 0.100000
endloop
endfacet
facet normal -0.941555 -0.336860 0.000000
outer loop
vertex 2.026905 1.990434 0.050000
vertex 2.026079 1.992744 0.100000
vertex 2.026079 1.992744 0.050000
endloop
endfacet
facet normal -0.970042 -0.242936 0.000000
outer loop
vertex 2.026079 1.992744 0.050000
vertex 2.026079 1.992744 0.100000
vertex 2.025483 1.995124 0.100000
endloop
endfacet
facet normal -0.970019 -0.243027 0.000006
outer loop
vertex 2.026079 1.992744 0.050000
vertex 2.025483 1.995124 0.100000
vertex 2.025483 1.995123 0.050000
endloop
endfacet
facet normal -0.970019 -0.243027 0.000000
outer loop
vertex 2.026079 1.992744 0.000000
vertex 2.026079 1.992744 0.050000
vertex 2.025483 1.995123 0.050000
endloop
endfacet
facet normal -0.970042 -0.242936 -0.000006
outer loop
vertex 2.026079 1.992744 0.000000
vertex 2.025483 1.995123 0.050000
vertex 2.025483 1.995124 0.000000
endloop
endfacet
facet normal -0.989176 -0.146732 -0.000003
outer loop
vertex 2.025483 1.995124 0.000000
vertex 2.025483 1.995123 0.050000
vertex 2.025123 1.997550 0.050000
endloop
endfacet
facet normal -0.989186 -0.146669 0.000000
outer loop
vertex 2.025483 1.995124 0.000000
vertex 2.025123 1.997550 0.050000
vertex 2.025123 1.997550 0.000000
endloop
endfacet
facet normal -0.989168 -0.146788 0.000003
outer loop
vertex 2.025483 1.995123 0.050000
vertex 2.025483 1.995124 0.100000
vertex 2.025123 1.997550 0.100000
endloop
endfacet
facet normal -0.989194 -0.146613 0.000000
outer loop
vertex 2.025483 1.995123 0.050000
vertex 2.025123 1.997550 0.100000
vertex 2.025123 1.997550 0.050000
endloop
endfacet
facet normal -0.998801 -0.048963 0.000000
outer loop
vertex 2.025123 1.997550 0.050000
vertex 2.025123 1.997550 0.100000
vertex 2.025003 2.000000 0.100000
endloop
endfacet
facet normal -0.998801 -0.048963 0.000000
outer loop
vertex 2.025123 1.997550 0.050000
vertex 2.025003 2.000000 0.100000
vertex 2.025003 2.000000 0.050000
endloop
endfacet
facet normal -0.998801 -0.048963 0.000000
outer loop
vertex 2.025123 1.997550 0.000000
vertex 2.025123 1.997550 0.050000
vertex 2.025003 2.000000 0.050000
endloop
endfacet
facet normal -0.998801 -0.048963 0.000000
outer loop
vertex 2.025123 1.997550 0.000000
vertex 2.025003 2.000000 0.050000
vertex 2.025003 2.000000 0.000000
endloop
endfacet
facet normal -0.998800 0.048982 0.000000
outer loop
vertex 2.025003 2.000000 0.000000
vertex 2.025003 2.000000 0.050000
vertex 2.025123 2.002449 0.050000
endloop
endfacet
facet normal -0.998800 0.048982 0.000000
outer loop
vertex 2.025003 2.000000 0.000000
vertex 2.025123 2.002449 0.050000
vertex 2.025123 2.002449 0.000000
endloop
endfacet
facet normal -0.998800 0.048982 0.000000
outer loop
vertex 2.025003 2.000000 0.050000
vertex 2.025003 2.000000 0.100000
vertex 2.025123 2.002449 0.100000
endloop
endfacet
facet normal -0.998800 0.048982 0.000000
outer loop
vertex 2.025003 2.000000 0.050000
vertex 2.025123 2.002449 0.100000
vertex 2.025123 2.002449 0.050000
endloop
endfacet
facet normal -0.989203 0.146550 0.000000
outer loop
vertex 2.025123 2.002449 0.050000
vertex 2.025123 2.002449 0.100000
vertex 2.025483 2.004877 0.100000
endloop
endfacet
facet normal -0.989186 0.146668 0.000000
outer loop
vertex 2.025123 2.002449 0.050000
vertex 2.025483 2.004877 0.100000
vertex 2.025483 2.004877 0.050000
endloop
endfacet
facet normal -0.989203 0.146550 0.000000
outer loop
vertex 2.025123 2.002449 0.000000
vertex 2.025123 2.002449 0.050000
vertex 2.025483 2.004877 0.050000
endloop
endfacet
facet normal -0.989186 0.146668 0.000000
outer loop
vertex 2.025123 2.002449 0.000000
vertex 2.025483 2.004877 0.050000
vertex 2.025483 2.004877 0.000000
endloop
endfacet
facet normal -0.970017 0.243039 0.000000
outer loop
vertex 2.025483 2.004877 0.000000
vertex 2.025483 2.004877 0.050000
vertex 2.026079 2.007256 0.050000
endloop
endfacet
facet normal -0.970039 0.242947 0.000004
outer loop
vertex 2.025483 2.004877 0.000000
vertex 2.026079 2.007256 0.050000
vertex 2.026079 2.007257 0.000000
endloop
endfacet
facet normal -0.970040 0.242947 0.000000
outer loop
vertex 2.025483 2.004877 0.050000
vertex 2.025483 2.004877 0.100000
vertex 2.026079 2.007257 0.100000
endloop
endfacet
facet normal -0.970017 0.243039 -0.000004
outer loop
vertex 2.025483 2.004877 0.050000
vertex 2.026079 2.007257 0.100000
vertex 2.026079 2.007256 0.050000
endloop
endfacet
facet normal -0.941356 0.337414 -0.000008
outer loop
vertex 2.026079 2.007256 0.050000
vertex 2.026079 2.007257 0.100000
vertex 2.026906 2.009565 0.100000
endloop
endfacet
facet normal -0.941478 0.337075 0.000000
outer loop
vertex 2.026079 2.007256 0.050000
vertex 2.026906 2.009565 0.100000
vertex 2.026906 2.009565 0.050000
endloop
endfacet
facet normal -0.941401 0.337291 0.000008
outer loop
vertex 2.026079 2.007257 0.000000
vertex 2.026079 2.007256 0.050000
vertex 2.026906 2.009565 0.050000
endloop
endfacet
facet normal -0.941433 0.337199 0.000000
outer loop
vertex 2.026079 2.007257 0.000000
vertex 2.026906 2.009565 0.050000
vertex 2.026906 2.009565 0.000000
endloop
endfacet
facet normal -0.904201 0.427108 0.000000
outer loop
vertex 2.026906 2.009565 0.000000
vertex 2.026906 2.009565 0.050000
vertex 2.027954 2.011784 0.050000
endloop
endfacet
facet normal -0.904060 0.427406 -0.000016
outer loop
vertex 2.026906 2.009565 0.000000
vertex 2.027954 2.011784 0.050000
vertex 2.027955 2.011784 0.000000
endloop
endfacet
facet normal -0.904060 0.427406 0.000000
outer loop
vertex 2.026906 2.009565 0.050000
vertex 2.026906 2.009565 0.100000
vertex 2.027955 2.011784 0.100000
endloop
endfacet
facet normal -0.904201 0.427108 0.000016
outer loop
vertex 2.026906 2.009565 0.050000
vertex 2.027955 2.011784 0.100000
vertex 2.027954 2.011784 0.050000
endloop
endfacet
facet normal -0.857686 0.514174 0.000019
outer loop
vertex 2.027954 2.011784 0.050000
vertex 2.027955 2.011784 0.100000
vertex 2.029216 2.013887 0.100000
endloop
endfacet
facet normal -0.857364 0.514710 0.000000
outer loop
vertex 2.027954 2.011784 0.050000
vertex 2.029216 2.013887 0.100000
vertex 2.029216 2.013887 0.050000
endloop
endfacet
facet normal -0.857472 0.514532 -0.000019
outer loop
vertex 2.027955 2.011784 0.000000
vertex 2.027954 2.011784 0.050000
vertex 2.029216 2.013887 0.050000
endloop
endfacet
facet normal -0.857579 0.514353 0.000000
outer loop
vertex 2.027955 2.011784 0.000000
vertex 2.029216 2.013887 0.050000
vertex 2.029216 2.013887 0.000000
endloop
endfacet
facet normal -0.803381 0.595466 0.000000
outer loop
vertex 2.029216 2.013887 0.000000
vertex 2.029216 2.013887 0.050000
vertex 2.030677 2.015858 0.050000
endloop
endfacet
facet normal -0.803381 0.595466 0.000000
outer loop
vertex 2.029216 2.013887 0.000000
vertex 2.030677 2.015858 0.050000
vertex 2.030677 2.015858 0.000000
endloop
endfacet
facet normal -0.803381 0.595466 0.000000
outer loop
vertex 2.029216 2.013887 0.050000
vertex 2.029216 2.013887 0.100000
vertex 2.030677 2.015858 0.100000
endloop
endfacet
facet normal -0.803381 0.595466 0.000000
outer loop
vertex 2.029216 2.013887 0.050000
vertex 2.030677 2.015858 0.100000
vertex 2.030677 2.015858 0.050000
endloop
endfacet
facet normal -0.740880 0.671638 0.000000
outer loop
vertex 2.030677 2.015858 0.050000
vertex 2.030677 2.015858 0.100000
vertex 2.032324 2.017675 0.100000
endloop
endfacet
facet normal -0.740940 0.671571 0.000000
outer loop
vertex 2.030677 2.015858 0.050000
vertex 2.032324 2.017675 0.100000
vertex 2.032324 2.017675 0.050000
endloop
endfacet
facet normal -0.740880 0.671638 0.000000
outer loop
vertex 2.030677 2.015858 0.000000
vertex 2.030677 2.015858 0.050000
vertex 2.032324 2.017675 0.050000
endloop
endfacet
facet normal -0.740940 0.671571 0.000000
outer loop
vertex 2.030677 2.015858 0.000000
vertex 2.032324 2.017675 0.050000
vertex 2.032324 2.017675 0.000000
endloop
endfacet
facet normal -0.671344 0.741146 0.000000
outer loop
vertex 2.032324 2.017675 0.000000
vertex 2.032324 2.017675 0.050000
vertex 2.034142 2.019322 0.050000
endloop
endfacet
facet normal -0.671732 0.740795 0.000011
outer loop
vertex 2.032324 2.017675 0.000000
vertex 2.034142 2.019322 0.050000
vertex 2.034142 2.019323 0.000000
endloop
endfacet
facet normal -0.671611 0.740904 0.000000
outer loop
vertex 2.032324 2.017675 0.050000
vertex 2.032324 2.017675 0.100000
vertex 2.034142 2.019323 0.100000
endloop
endfacet
facet normal -0.671465 0.741036 -0.000011
outer loop
vertex 2.032324 2.017675 0.050000
vertex 2.034142 2.019323 0.100000
vertex 2.034142 2.019322 0.050000
endloop
endfacet
facet normal -0.595585 0.803292 -0.000015
outer loop
vertex 2.034142 2.019322 0.050000
vertex 2.034142 2.019323 0.100000
vertex 2.036112 2.020784 0.100000
endloop
endfacet
facet normal -0.595783 0.803146 -0.000012
outer loop
vertex 2.034142 2.019322 0.050000
vertex 2.036112 2.020784 0.100000
vertex 2.036113 2.020784 0.050000
endloop
endfacet
facet normal -0.595667 0.803232 0.000015
outer loop
vertex 2.034142 2.019323 0.000000
vertex 2.034142 2.019322 0.050000
vertex 2.036113 2.020784 0.050000
endloop
endfacet
facet normal -0.595702 0.803206 0.000012
outer loop
vertex 2.034142 2.019323 0.000000
vertex 2.036113 2.020784 0.050000
vertex 2.036112 2.020784 0.000000
endloop
endfacet
facet normal -0.514531 0.857471 0.000008
outer loop
vertex 2.036112 2.020784 0.000000
vertex 2.036113 2.020784 0.050000
vertex 2.038216 2.022046 0.050000
endloop
endfacet
facet normal -0.514317 0.857600 -0.000016
outer loop
vertex 2.036112 2.020784 0.000000
vertex 2.038216 2.022046 0.050000
vertex 2.038217 2.022046 0.000000
endloop
endfacet
facet normal -0.514210 0.857664 0.000000
outer loop
vertex 2.036113 2.020784 0.050000
vertex 2.036112 2.020784 0.100000
vertex 2.038217 2.022046 0.100000
endloop
endfacet
facet normal -0.514639 0.857407 0.000009
outer loop
vertex 2.036113 2.020784 0.050000
vertex 2.038217 2.022046 0.100000
vertex 2.038216 2.022046 0.050000
endloop
endfacet
facet normal -0.427271 0.904123 0.000015
outer loop
vertex 2.038216 2.022046 0.050000
vertex 2.038217 2.022046 0.100000
vertex 2.040434 2.023094 0.100000
endloop
endfacet
facet normal -0.427177 0.904168 0.000000
outer loop
vertex 2.038216 2.022046 0.050000
vertex 2.040434 2.023094 0.100000
vertex 2.040434 2.023094 0.050000
endloop
endfacet
facet normal -0.427130 0.904190 -0.000015
outer loop
vertex 2.038217 2.022046 0.000000
vertex 2.038216 2.022046 0.050000
vertex 2.040434 2.023094 0.050000
endloop
endfacet
facet normal -0.427318 0.904101 0.000000
outer loop
vertex 2.038217 2.022046 0.000000
vertex 2.040434 2.023094 0.050000
vertex 2.040434 2.023094 0.000000
endloop
endfacet
facet normal 0.000000 0.000000 1.000000
outer loop
vertex 2.054878 2.024520 0.100000
vertex 2.052450 2.024877 0.100000
vertex 2.050001 2.000001 0.100000
endloop
endfacet
facet normal 0.000000 0.000000 1.000000
outer loop
vertex 2.054878 2.024520 0.100000
vertex 2.050001 2.000001 0.100000
vertex 2.057257 2.023920 0.100000
endloop
endfacet
facet normal -0.000008 0.000000 1.000000
outer loop
vertex 2.050000 2.025000 0.100000
vertex 2.047550 2.024877 0.100000
vertex 2.050001 2.000001 0.100000
endloop
endfacet
facet normal 0.000008 0.000000 1.000000
outer loop
vertex 2.050000 2.025000 0.100000
vertex 2.050001 2.000001 0.100000
vertex 2.052450 2.024877 0.100000
endloop
endfacet
facet normal 0.000000 0.000000 1.000000
outer loop
vertex 2.045123 2.024520 0.100000
vertex 2.042744 2.023920 0.100000
vertex 2.050001 2.000001 0.100000
endloop
endfacet
facet normal 0.000000 0.000000 1.000000
outer loop
vertex 2.045123 2.024520 0.100000
vertex 2.050001 2.000001 0.100000
vertex 2.047550 2.024877 0.100000
endloop
endfacet
facet normal 0.000008 0.000000 1.000000
outer loop
vertex 2.040433 2.023096 0.100000
vertex 2.038216 2.022046 0.100000
vertex 2.050001 2.000001 0.100000
endloop
endfacet
facet normal -0.000008 0.000000 1.000000
outer loop
vertex 2.040433 2.023096 0.100000
vertex 2.050001 2.000001 0.100000
vertex 2.042744 2.023920 0.100000
endloop
endfacet
facet normal 0.000000 0.000000 1.000000
outer loop
vertex 2.036111 2.020786 0.100000
vertex 2.034142 2.019323 0.100000
vertex 2.050001 2.000001 0.100000
endloop
endfacet
facet normal 0.000000 0.000000 1.000000
outer loop
vertex 2.036111 2.020786 0.100000
vertex 2.050001 2.000001 0.100000
vertex 2.038216 2.022046 0.100000
endloop
endfacet
facet normal 0.000000 0.000000 1.000000
outer loop
vertex 2.032323 2.017677 0.100000
vertex 2.030677 2.015858 0.100000
vertex 2.050001 2.000001 0.100000
endloop
endfacet
facet normal -0.000004 0.000000 1.000000
outer loop
vertex 2.032323 2.017677 0.100000
vertex 2.050001 2.000001 0.100000
vertex 2.034142 2.019323 0.100000
endloop
endfacet
facet normal 0.000000 0.000000 1.000000
outer loop
vertex 2.029213 2.013888 0.100000
vertex 2.027955 2.011784 0.100000
vertex 2.050001 2.000001 0.100000
endloop
endfacet
facet normal 0.000000 0.000000 1.000000
outer loop
vertex 2.029213 2.013888 0.100000
vertex 2.050001 2.000001 0.100000
vertex 2.030677 2.015858 0.100000
endloop
endfacet
facet normal 0.000000 0.000000 1.000000
outer loop
vertex 2.026903 2.009566 0.100000
vertex 2.026079 2.007257 0.100000
vertex 2.050001 2.000001 0.100000
endloop
endfacet
facet normal 0.000000 0.000000 1.000000
outer loop
vertex 2.026903 2.009566 0.100000
vertex 2.050001 2.000001 0.100000
vertex 2.027955 2.011784 0.100000
endloop
endfacet
facet normal 0.000000 0.000000 1.000000
outer loop
vertex 2.025481 2.004877 0.100000
vertex 2.025123 2.002449 0.100000
vertex 2.050001 2.000001 0.100000
endloop
endfacet
facet normal 0.000000 0.000000 1.000000
outer loop
vertex 2.025481 2.004877 0.100000
vertex 2.050001 2.000001 0.100000
vertex 2.026079 2.007257 0.100000
endloop
endfacet
facet normal 0.000000 0.000000 1.000000
outer loop
vertex 2.025000 2.000000 0.100000
vertex 2.025123 1.997550 0.100000
vertex 2.050001 2.000001 0.100000
endloop
endfacet
facet normal 0.000000 0.000000 1.000000
outer loop
vertex 2.025000 2.000000 0.100000
vertex 2.050001 2.000001 0.100000
vertex 2.025123 2.002449 0.100000
endloop
endfacet
facet normal 0.000000 0.000000 1.000000
outer loop
vertex 2.025481 1.995123 0.100000
vertex 2.026079 1.992744 0.100000
vertex 2.050001 2.000001 0.100000
endloop
endfacet
facet normal 0.000000 0.000000 1.000000
outer loop
vertex 2.025481 1.995123 0.100000
vertex 2.050001 2.000001 0.100000
vertex 2.025123 1.997550 0.100000
endloop
endfacet
facet normal 0.000000 0.000000 1.000000
outer loop
vertex 2.026903 1.990433 0.100000
vertex 2.027954 1.988216 0.100000
vertex 2.050001 2.000001 0.100000
endloop
endfacet
facet normal 0.000000 0.000000 1.000000
outer loop
vertex 2.026903 1.990433 0.100000
vertex 2.050001 2.000001 0.100000
vertex 2.026079 1.992744 0.100000
endloop
endfacet
facet normal 0.000000 0.000000 1.000000
outer loop
vertex 2.029213 1.986111 0.100000
vertex 2.030677 1.984142 0.100000
vertex 2.050001 2.000001 0.100000
endloop
endfacet
facet normal 0.000000 0.000000 1.000000
outer loop
vertex 2.029213 1.986111 0.100000
vertex 2.050001 2.000001 0.100000
vertex 2.027954 1.988216 0.100000
endloop
endfacet
facet normal -0.000004 0.000000 1.000000
outer loop
vertex 2.032323 1.982323 0.100000
vertex 2.034142 1.980677 0.100000
vertex 2.050001 2.000001 0.100000
endloop
endfacet
facet normal 0.000000 0.000000 1.000000
outer loop
vertex 2.032323 1.982323 0.100000
vertex 2.050001 2.000001 0.100000
vertex 2.030677 1.984142 0.100000
endloop
endfacet
facet normal 0.000008 0.000000 1.000000
outer loop
vertex 2.036111 1.979213 0.100000
vertex 2.038217 1.977955 0.100000
vertex 2.050001 2.000001 0.100000
endloop
endfacet
facet normal -0.000004 0.000000 1.000000
outer loop
vertex 2.036111 1.979213 0.100000
vertex 2.050001 2.000001 0.100000
vertex 2.034142 1.980677 0.100000
endloop
endfacet
facet normal -0.000008 0.000000 1.000000
outer loop
vertex 2.040433 1.976903 0.100000
vertex 2.042744 1.976079 0.100000
vertex 2.050001 2.000001 0.100000
endloop
endfacet
facet normal 0.000000 0.000000 1.000000
outer loop
vertex 2.040433 1.976903 0.100000
vertex 2.050001 2.000001 0.100000
vertex 2.038217 1.977955 0.100000
endloop
endfacet
facet normal 0.000000 0.000000 1.000000
outer loop
vertex 2.045123 1.975482 0.100000
vertex 2.047550 1.975123 0.100000
vertex 2.050001 2.000001 0.100000
endloop
endfacet
facet normal 0.000008 0.000000 1.000000
outer loop
vertex 2.045123 1.975482 0.100000
vertex 2.050001 2.000001 0.100000
vertex 2.042744 1.976079 0.100000
endloop
endfacet
facet normal 0.000008 0.000000 1.000000
outer loop
vertex 2.050000 1.975000 0.100000
vertex 2.052450 1.975123 0.100000
vertex 2.050001 2.000001 0.100000
endloop
endfacet
facet normal -0.000008 0.000000 1.000000
outer loop
vertex 2.050000 1.975000 0.100000
vertex 2.050001 2.000001 0.100000
vertex 2.047550 1.975123 0.100000
endloop
endfacet
facet normal -0.000008 0.000000 1.000000
outer loop
vertex 2.054878 1.975482 0.100000
vertex 2.057257 1.976079 0.100000
vertex 2.050001 2.000001 0.100000
endloop
endfacet
facet normal 0.000000 0.000000 1.000000
outer loop
vertex 2.054878 1.975482 0.100000
vertex 2.050001 2.000001 0.100000
vertex 2.052450 1.975123 0.100000
endloop
endfacet
facet normal 0.000000 0.000000 1.000000
outer loop
vertex 2.059567 1.976903 0.100000
vertex 2.061784 1.977954 0.100000
vertex 2.050001 2.000001 0.100000
endloop
endfacet
facet normal 0.000008 0.000000 1.000000
outer loop
vertex 2.059567 1.976903 0.100000
vertex 2.050001 2.000001 0.100000
vertex 2.057257 1.976079 0.100000
endloop
endfacet
facet normal 0.000004 0.000000 1.000000
outer loop
vertex 2.063889 1.979213 0.100000
vertex 2.065858 1.980677 0.100000
vertex 2.050001 2.000001 0.100000
endloop
endfacet
facet normal 0.000000 0.000000 1.000000
outer loop
vertex 2.063889 1.979213 0.100000
vertex 2.050001 2.000001 0.100000
vertex 2.061784 1.977954 0.100000
endloop
endfacet
facet normal 0.000000 0.000000 1.000000
outer loop
vertex 2.067677 1.982323 0.100000
vertex 2.069323 1.984142 0.100000
vertex 2.050001 2.000001 0.100000
endloop
endfacet
facet normal 0.000004 0.000000 1.000000
outer loop
vertex 2.067677 1.982323 0.100000
vertex 2.050001 2.000001 0.100000
vertex 2.065858 1.980677 0.100000
endloop
endfacet
facet normal 0.000000 0.000000 1.000000
outer loop
vertex 2.070786 1.986111 0.100000
vertex 2.072046 1.988217 0.100000
vertex 2.050001 2.000001 0.100000
endloop
endfacet
facet normal 0.000000 0.000000 1.000000
outer loop
vertex 2.070786 1.986111 0.100000
vertex 2.050001 2.000001 0.100000
vertex 2.069323 1.984142 0.100000
endloop
endfacet
facet normal 0.000000 0.000000 1.000000
outer loop
vertex 2.073097 1.990433 0.100000
vertex 2.073921 1.992744 0.100000
vertex 2.050001 2.000001 0.100000
endloop
endfacet
facet normal 0.000000 0.000000 1.000000
outer loop
vertex 2.073097 1.990433 0.100000
vertex 2.050001 2.000001 0.100000
vertex 2.072046 1.988217 0.100000
endloop
endfacet
facet normal 0.000000 0.000000 1.000000
outer loop
vertex 2.074520 1.995123 0.100000
vertex 2.074878 1.997550 0.100000
vertex 2.050001 2.000001 0.100000
endloop
endfacet
facet normal 0.000000 0.000000 1.000000
outer loop
vertex 2.074520 1.995123 0.100000
vertex 2.050001 2.000001 0.100000
vertex 2.073921 1.992744 0.100000
endloop
endfacet
facet normal 0.000000 0.000000 1.000000
outer loop
vertex 2.075000 2.000000 0.100000
vertex 2.074878 2.002449 0.100000
vertex 2.050001 2.000001 0.100000
endloop
endfacet
facet normal 0.000000 0.000000 1.000000
outer loop
vertex 2.075000 2.000000 0.100000
vertex 2.050001 2.000001 0.100000
vertex 2.074878 1.997550 0.100000
endloop
endfacet
facet normal 0.000000 0.000000 1.000000
outer loop
vertex 2.074520 2.004877 0.100000
vertex 2.073921 2.007257 0.100000
vertex 2.050001 2.000001 0.100000
endloop
endfacet
facet normal 0.000000 0.000000 1.000000
outer loop
vertex 2.074520 2.004877 0.100000
vertex 2.050001 2.000001 0.100000
vertex 2.074878 2.002449 0.100000
endloop
endfacet
facet normal 0.000000 0.000000 1.000000
outer loop
vertex 2.073097 2.009566 0.100000
vertex 2.072046 2.011784 0.100000
vertex 2.050001 2.000001 0.100000
endloop
endfacet
facet normal 0.000000 0.000000 1.000000
outer loop
vertex 2.073097 2.009566 0.100000
vertex 2.050001 2.000001 0.100000
vertex 2.073921 2.007257 0.100000
endloop
endfacet
facet normal 0.000000 0.000000 1.000000
outer loop
vertex 2.070786 2.013888 0.100000
vertex 2.069323 2.015858 0.100000
vertex 2.050001 2.000001 0.100000
endloop
endfacet
facet normal 0.000000 0.000000 1.000000
outer loop
vertex 2.070786 2.013888 0.100000
vertex 2.050001 2.000001 0.100000
vertex 2.072046 2.011784 0.100000
endloop
endfacet
facet normal 0.000004 0.000000 1.000000
outer loop
vertex 2.067677 2.017677 0.100000
vertex 2.065858 2.019323 0.100000
vertex 2.050001 2.000001 0.100000
endloop
endfacet
facet normal 0.000000 0.000000 1.000000
outer loop
vertex 2.067677 2.017677 0.100000
vertex 2.050001 2.000001 0.100000
vertex 2.069323 2.015858 0.100000
endloop
endfacet
facet normal 0.000000 0.000000 1.000000
outer loop
vertex 2.063889 2.020786 0.100000
vertex 2.061784 2.022046 0.100000
vertex 2.050001 2.000001 0.100000
endloop
endfacet
facet normal 0.000000 0.000000 1.000000
outer loop
vertex 2.063889 2.020786 0.100000
vertex 2.050001 2.000001 0.100000
vertex 2.065858 2.019323 0.100000
endloop
endfacet
facet normal 0.000008 0.000000 1.000000
outer loop
vertex 2.059567 2.023096 0.100000
vertex 2.057257 2.023920 0.100000
vertex 2.050001 2.000001 0.100000
endloop
endfacet
facet normal -0.000008 0.000000 1.000000
outer loop
vertex 2.059567 2.023096 0.100000
vertex 2.050001 2.000001 0.100000
vertex 2.061784 2.022046 0.100000
endloop
endfacet
facet normal -0.336783 0.941582 0.000000
outer loop
vertex 2.040434 2.023094 0.000000
vertex 2.040434 2.023094 0.050000
vertex 2.042744 2.023920 0.050000
endloop
endfacet
facet normal -0.336744 0.941596 0.000000
outer loop
vertex 2.040434 2.023094 0.000000
vertex 2.042744 2.023920 0.050000
vertex 2.042744 2.023920 0.000000
endloop
endfacet
facet normal -0.336783 0.941582 0.000000
outer loop
vertex 2.040434 2.023094 0.050000
vertex 2.040434 2.023094 0.100000
vertex 2.042744 2.023920 0.100000
endloop
endfacet
facet normal -0.336744 0.941596 0.000000
outer loop
vertex 2.040434 2.023094 0.050000
vertex 2.042744 2.023920 0.100000
vertex 2.042744 2.023920 0.050000
endloop
endfacet
facet normal -0.243330 0.969944 0.000000
outer loop
vertex 2.042744 2.023920 0.050000
vertex 2.042744 2.023920 0.100000
vertex 2.045124 2.024517 0.100000
endloop
endfacet
facet normal -0.243359 0.969936 0.000009
outer loop
vertex 2.042744 2.023920 0.050000
vertex 2.045124 2.024517 0.100000
vertex 2.045123 2.024517 0.050000
endloop
endfacet
facet normal -0.243416 0.969922 0.000000
outer loop
vertex 2.042744 2.023920 0.000000
vertex 2.042744 2.023920 0.050000
vertex 2.045123 2.024517 0.050000
endloop
endfacet
facet normal -0.243273 0.969958 -0.000009
outer loop
vertex 2.042744 2.023920 0.000000
vertex 2.045123 2.024517 0.050000
vertex 2.045124 2.024517 0.000000
endloop
endfacet
facet normal -0.146725 0.989177 0.000000
outer loop
vertex 2.045124 2.024517 0.000000
vertex 2.045123 2.024517 0.050000
vertex 2.047550 2.024877 0.050000
endloop
endfacet
facet normal -0.146813 0.989164 0.000000
outer loop
vertex 2.045124 2.024517 0.000000
vertex 2.047550 2.024877 0.050000
vertex 2.047550 2.024877 0.000000
endloop
endfacet
facet normal -0.146778 0.989169 0.000000
outer loop
vertex 2.045123 2.024517 0.050000
vertex 2.045124 2.024517 0.100000
vertex 2.047550 2.024877 0.100000
endloop
endfacet
facet normal -0.146760 0.989172 0.000000
outer loop
vertex 2.045123 2.024517 0.050000
vertex 2.047550 2.024877 0.100000
vertex 2.047550 2.024877 0.050000
endloop
endfacet
facet normal -0.049277 0.998785 0.000000
outer loop
vertex 2.047550 2.024877 0.050000
vertex 2.047550 2.024877 0.100000
vertex 2.050000 2.024998 0.100000
endloop
endfacet
facet normal -0.049277 0.998785 0.000000
outer loop
vertex 2.047550 2.024877 0.050000
vertex 2.050000 2.024998 0.100000
vertex 2.050000 2.024998 0.050000
endloop
endfacet
facet normal -0.049277 0.998785 0.000000
outer loop
vertex 2.047550 2.024877 0.000000
vertex 2.047550 2.024877 0.050000
vertex 2.050000 2.024998 0.050000
endloop
endfacet
facet normal -0.049277 0.998785 0.000000
outer loop
vertex 2.047550 2.024877 0.000000
vertex 2.050000 2.024998 0.050000
vertex 2.050000 2.024998 0.000000
endloop
endfacet
facet normal 0.000000 0.000000 -1.000000
outer loop
vertex 2.050000 2.025000 0.000000
vertex 2.052450 2.024877 0.000000
vertex 2.050001 2.000001 0.000000
endloop
endfacet
facet normal 0.000000 0.000000 -1.000000
outer loop
vertex 2.050000 2.025000 0.000000
vertex 2.050001 2.000001 0.000000
vertex 2.047550 2.024877 0.000000
endloop
endfacet
facet normal 0.000000 0.000000 -1.000000
outer loop
vertex 2.054878 2.024520 0.000000
vertex 2.057257 2.023920 0.000000
vertex 2.050001 2.000001 0.000000
endloop
endfacet
facet normal 0.000000 0.000000 -1.000000
outer loop
vertex 2.054878 2.024520 0.000000
vertex 2.050001 2.000001 0.000000
vertex 2.052450 2.024877 0.000000
endloop
endfacet
facet normal 0.000000 0.000000 -1.000000
outer loop
vertex 2.059567 2.023096 0.000000
vertex 2.061784 2.022046 0.000000
vertex 2.050001 2.000001 0.000000
endloop
endfacet
facet normal 0.000000 0.000000 -1.000000
outer loop
vertex 2.059567 2.023096 0.000000
vertex 2.050001 2.000001 0.000000
vertex 2.057257 2.023920 0.000000
endloop
endfacet
facet normal 0.000000 0.000000 -1.000000
outer loop
vertex 2.063889 2.020786 0.000000
vertex 2.065858 2.019323 0.000000
vertex 2.050001 2.000001 0.000000
endloop
endfacet
facet normal 0.000000 0.000000 -1.000000
outer loop
vertex 2.063889 2.020786 0.000000
vertex 2.050001 2.000001 0.000000
vertex 2.061784 2.022046 0.000000
endloop
endfacet
facet normal 0.000000 0.000000 -1.000000
outer loop
vertex 2.067677 2.017677 0.000000
vertex 2.069323 2.015858 0.000000
vertex 2.050001 2.000001 0.000000
endloop
endfacet
facet normal 0.000000 0.000000 -1.000000
outer loop
vertex 2.067677 2.017677 0.000000
vertex 2.050001 2.000001 0.000000
vertex 2.065858 2.019323 0.000000
endloop
endfacet
facet normal 0.000000 0.000000 -1.000000
outer loop
vertex 2.070786 2.013888 0.000000
vertex 2.072046 2.011784 0.000000
vertex 2.050001 2.000001 0.000000
endloop
endfacet
facet normal 0.000000 0.000000 -1.000000
outer loop
vertex 2.070786 2.013888 0.000000
vertex 2.050001 2.000001 0.000000
vertex 2.069323 2.015858 0.000000
endloop
endfacet
facet normal 0.000000 0.000000 -1.000000
outer loop
vertex 2.073097 2.009566 0.000000
vertex 2.073921 2.007257 0.000000
vertex 2.050001 2.000001 0.000000
endloop
endfacet
facet normal 0.000000 0.000000 -1.000000
outer loop
vertex 2.073097 2.009566 0.000000
vertex 2.050001 2.000001 0.000000
vertex 2.072046 2.011784 0.000000
endloop
endfacet
facet normal 0.000000 0.000000 -1.000000
outer loop
vertex 2.074520 2.004877 0.000000
vertex 2.074878 2.002449 0.000000
vertex 2.050001 2.000001 0.000000
endloop
endfacet
facet normal 0.000000 0.000000 -1.000000
outer loop
vertex 2.074520 2.004877 0.000000
vertex 2.050001 2.000001 0.000000
vertex 2.073921 2.007257 0.000000
endloop
endfacet
facet normal 0.000000 0.000000 -1.000000
outer loop
vertex 2.075000 2.000000 0.000000
vertex 2.074878 1.997550 0.000000
vertex 2.050001 2.000001 0.000000
endloop
endfacet
facet normal 0.000000 0.000000 -1.000000
outer loop
vertex 2.075000 2.000000 0.000000
vertex 2.050001 2.000001 0.000000
vertex 2.074878 2.002449 0.000000
endloop
endfacet
facet normal 0.000000 0.000000 -1.000000
outer loop
vertex 2.074520 1.995123 0.000000
vertex 2.073921 1.992744 0.000000
vertex 2.050001 2.000001 0.000000
endloop
endfacet
facet normal 0.000000 0.000000 -1.000000
outer loop
vertex 2.074520 1.995123 0.000000
vertex 2.050001 2.000001 0.000000
vertex 2.074878 1.997550 0.000000
endloop
endfacet
facet normal 0.000000 0.000000 -1.000000
outer loop
vertex 2.073097 1.990433 0.000000
vertex 2.072046 1.988216 0.000000
vertex 2.050001 2.000001 0.000000
endloop
endfacet
facet normal 0.000000 0.000000 -1.000000
outer loop
vertex 2.073097 1.990433 0.000000
vertex 2.050001 2.000001 0.000000
vertex 2.073921 1.992744 0.000000
endloop
endfacet
facet normal 0.000000 0.000000 -1.000000
outer loop
vertex 2.070786 1.986111 0.000000
vertex 2.069323 1.984142 0.000000
vertex 2.050001 2.000001 0.000000
endloop
endfacet
facet normal 0.000000 0.000000 -1.000000
outer loop
vertex 2.070786 1.986111 0.000000
vertex 2.050001 2.000001 0.000000
vertex 2.072046 1.988216 0.000000
endloop
endfacet
facet normal 0.000000 0.000000 -1.000000
outer loop
vertex 2.067677 1.982323 0.000000
vertex 2.065858 1.980677 0.000000
vertex 2.050001 2.000001 0.000000
endloop
endfacet
facet normal 0.000000 0.000000 -1.000000
outer loop
vertex 2.067677 1.982323 0.000000
vertex 2.050001 2.000001 0.000000
vertex 2.069323 1.984142 0.000000
endloop
endfacet
facet normal 0.000000 0.000000 -1.000000
outer loop
vertex 2.063889 1.979213 0.000000
vertex 2.061784 1.977954 0.000000
vertex 2.050001 2.000001 0.000000
endloop
endfacet
facet normal 0.000000 0.000000 -1.000000
outer loop
vertex 2.063889 1.979213 0.000000
vertex 2.050001 2.000001 0.000000
vertex 2.065858 1.980677 0.000000
endloop
endfacet
facet normal 0.000000 0.000000 -1.000000
outer loop
vertex 2.059567 1.976903 0.000000
vertex 2.057257 1.976079 0.000000
vertex 2.050001 2.000001 0.000000
endloop
endfacet
facet normal 0.000000 0.000000 -1.000000
outer loop
vertex 2.059567 1.976903 0.000000
vertex 2.050001 2.000001 0.000000
vertex 2.061784 1.977954 0.000000
endloop
endfacet
facet normal 0.000000 0.000000 -1.000000
outer loop
vertex 2.054878 1.975482 0.000000
vertex 2.052450 1.975123 0.000000
vertex 2.050001 2.000001 0.000000
endloop
endfacet
facet normal 0.000000 0.000000 -1.000000
outer loop
vertex 2.054878 1.975482 0.000000
vertex 2.050001 2.000001 0.000000
vertex 2.057257 1.976079 0.000000
endloop
endfacet
facet normal 0.000000 0.000000 -1.000000
outer loop
vertex 2.050000 1.975000 0.000000
vertex 2.047550 1.975123 0.000000
vertex 2.050001 2.000001 0.000000
endloop
endfacet
facet normal 0.000000 0.000000 -1.000000
outer loop
vertex 2.050000 1.975000 0.000000
vertex 2.050001 2.000001 0.000000
vertex 2.052450 1.975123 0.000000
endloop
endfacet
facet normal 0.000000 0.000000 -1.000000
outer loop
vertex 2.045123 1.975482 0.000000
vertex 2.042744 1.976079 0.000000
vertex 2.050001 2.000001 0.000000
endloop
endfacet
facet normal 0.000000 0.000000 -1.000000
outer loop
vertex 2.045123 1.975482 0.000000
vertex 2.050001 2.000001 0.000000
vertex 2.047550 1.975123 0.000000
endloop
endfacet
facet normal 0.000000 0.000000 -1.000000
outer loop
vertex 2.040433 1.976903 0.000000
vertex 2.038216 1.977954 0.000000
vertex 2.050001 2.000001 0.000000
endloop
endfacet
facet normal 0.000000 0.000000 -1.000000
outer loop
vertex 2.040433 1.976903 0.000000
vertex 2.050001 2.000001 0.000000
vertex 2.042744 1.976079 0.000000
endloop
endfacet
facet normal 0.000000 0.000000 -1.000000
outer loop
vertex 2.036111 1.979213 0.000000
vertex 2.034142 1.980677 0.000000
vertex 2.050001 2.000001 0.000000
endloop
endfacet
facet normal 0.000000 0.000000 -1.000000
outer loop
vertex 2.036111 1.979213 0.000000
vertex 2.050001 2.000001 0.000000
vertex 2.038216 1.977954 0.000000
endloop
endfacet
facet normal 0.000000 0.000000 -1.000000
outer loop
vertex 2.032323 1.982323 0.000000
vertex 2.030677 1.984142 0.000000
vertex 2.050001 2.000001 0.000000
endloop
endfacet
facet normal 0.000000 0.000000 -1.000000
outer loop
vertex 2.032323 1.982323 0.000000
vertex 2.050001 2.000001 0.000000
vertex 2.034142 1.980677 0.000000
endloop
endfacet
facet normal 0.000000 0.000000 -1.000000
outer loop
vertex 2.029213 1.986111 0.000000
vertex 2.027954 1.988217 0.000000
vertex 2.050001 2.000001 0.000000
endloop
endfacet
facet normal 0.000000 0.000000 -1.000000
outer loop
vertex 2.029213 1.986111 0.000000
vertex 2.050001 2.000001 0.000000
vertex 2.030677 1.984142 0.000000
endloop
endfacet
facet normal 0.000000 0.000000 -1.000000
outer loop
vertex 2.026903 1.990433 0.000000
vertex 2.026079 1.992744 0.000000
vertex 2.050001 2.000001 0.000000
endloop
endfacet
facet normal 0.000000 0.000000 -1.000000
outer loop
vertex 2.026903 1.990433 0.000000
vertex 2.050001 2.000001 0.000000
vertex 2.027954 1.988217 0.000000
endloop
endfacet
facet normal 0.000000 0.000000 -1.000000
outer loop
vertex 2.025481 1.995123 0.000000
vertex 2.025123 1.997550 0.000000
vertex 2.050001 2.000001 0.000000
endloop
endfacet
facet normal 0.000000 0.000000 -1.000000
outer loop
vertex 2.025481 1.995123 0.000000
vertex 2.050001 2.000001 0.000000
vertex 2.026079 1.992744 0.000000
endloop
endfacet
facet normal 0.000000 0.000000 -1.000000
outer loop
vertex 2.025000 2.000000 0.000000
vertex 2.025123 2.002449 0.000000
vertex 2.050001 2.000001 0.000000
endloop
endfacet
facet normal 0.000000 0.000000 -1.000000
outer loop
vertex 2.025000 2.000000 0.000000
vertex 2.050001 2.000001 0.000000
vertex 2.025123 1.997550 0.000000
endloop
endfacet
facet normal 0.000000 0.000000 -1.000000
outer loop
vertex 2.025481 2.004877 0.000000
vertex 2.026079 2.007257 0.000000
vertex 2.050001 2.000001 0.000000
endloop
endfacet
facet normal 0.000000 0.000000 -1.000000
outer loop
vertex 2.025481 2.004877 0.000000
vertex 2.050001 2.000001 0.000000
vertex 2.025123 2.002449 0.000000
endloop
endfacet
facet normal 0.000000 0.000000 -1.000000
outer loop
vertex 2.026903 2.009566 0.000000
vertex 2.027954 2.011784 0.000000
vertex 2.050001 2.000001 0.000000
endloop
endfacet
facet normal 0.000000 0.000000 -1.000000
outer loop
vertex 2.026903 2.009566 0.000000
vertex 2.050001 2.000001 0.000000
vertex 2.026079 2.007257 0.000000
endloop
endfacet
facet normal 0.000000 0.000000 -1.000000
outer loop
vertex 2.029213 2.013888 0.000000
vertex 2.030677 2.015858 0.000000
vertex 2.050001 2.000001 0.000000
endloop
endfacet
facet normal 0.000000 0.000000 -1.000000
outer loop
vertex 2.029213 2.013888 0.000000
vertex 2.050001 2.000001 0.000000
vertex 2.027954 2.011784 0.000000
endloop
endfacet
facet normal 0.000000 0.000000 -1.000000
outer loop
vertex 2.032323 2.017677 0.000000
vertex 2.034142 2.019323 0.000000
vertex 2.050001 2.000001 0.000000
endloop
endfacet
facet normal 0.000000 0.000000 -1.000000
outer loop
vertex 2.032323 2.017677 0.000000
vertex 2.050001 2.000001 0.000000
vertex 2.030677 2.015858 0.000000
endloop
endfacet
facet normal 0.000000 0.000000 -1.000000
outer loop
vertex 2.036111 2.020786 0.000000
vertex 2.038217 2.022046 0.000000
vertex 2.050001 2.000001 0.000000
endloop
endfacet
facet normal 0.000000 0.000000 -1.000000
outer loop
vertex 2.036111 2.020786 0.000000
vertex 2.050001 2.000001 0.000000
vertex 2.034142 2.019323 0.000000
endloop
endfacet
facet normal 0.000000 0.000000 -1.000000
outer loop
vertex 2.040433 2.023096 0.000000
vertex 2.042744 2.023920 0.000000
vertex 2.050001 2.000001 0.000000
endloop
endfacet
facet normal 0.000000 0.000000 -1.000000
outer loop
vertex 2.040433 2.023096 0.000000
vertex 2.050001 2.000001 0.000000
vertex 2.038217 2.022046 0.000000
endloop
endfacet
facet normal 0.000000 0.000000 -1.000000
outer loop
vertex 2.045123 2.024520 0.000000
vertex 2.047550 2.024877 0.000000
vertex 2.050001 2.000001 0.000000
endloop
endfacet
facet normal 0.000000 0.000000 -1.000000
outer loop
vertex 2.045123 2.024520 0.000000
vertex 2.050001 2.000001 0.000000
vertex 2.042744 2.023920 0.000000
endloop
endfacet
endsolid Exported from Blender-2.82 (sub 7)
