solid Exported from Blender-2.82 (sub 7)
facet normal 0.049356 0.998781 0.000000
outer loop
vertex 11.925000 8.137498 0.000000
vertex 11.925000 8.137498 0.050000
vertex 11.927450 8.137377 0.050000
endloop
endfacet
facet normal 0.049356 0.998781 0.000000
outer loop
vertex 11.925000 8.137498 0.000000
vertex 11.927450 8.137377 0.050000
vertex 11.927450 8.137377 0.000000
endloop
endfacet
facet normal 0.049356 0.998781 0.000000
outer loop
vertex 11.925000 8.137498 0.050000
vertex 11.925000 8.137498 0.100000
vertex 11.927450 8.137377 0.100000
endloop
endfacet
facet normal 0.049356 0.998781 0.000000
outer loop
vertex 11.925000 8.137498 0.050000
vertex 11.927450 8.137377 0.100000
vertex 11.927450 8.137377 0.050000
endloop
endfacet
facet normal 0.146676 0.989185 0.000000
outer loop
vertex 11.927450 8.137377 0.050000
vertex 11.927450 8.137377 0.100000
vertex 11.929877 8.137017 0.100000
endloop
endfacet
facet normal 0.146394 0.989226 0.000000
outer loop
vertex 11.927450 8.137377 0.050000
vertex 11.929877 8.137017 0.100000
vertex 11.929877 8.137017 0.050000
endloop
endfacet
facet normal 0.146676 0.989185 0.000000
outer loop
vertex 11.927450 8.137377 0.000000
vertex 11.927450 8.137377 0.050000
vertex 11.929877 8.137017 0.050000
endloop
endfacet
facet normal 0.146394 0.989226 0.000000
outer loop
vertex 11.927450 8.137377 0.000000
vertex 11.929877 8.137017 0.050000
vertex 11.929877 8.137017 0.000000
endloop
endfacet
facet normal 0.243588 0.969879 0.000000
outer loop
vertex 11.929877 8.137017 0.000000
vertex 11.929877 8.137017 0.050000
vertex 11.932256 8.136420 0.050000
endloop
endfacet
facet normal 0.243130 0.969994 0.000009
outer loop
vertex 11.929877 8.137017 0.000000
vertex 11.932256 8.136420 0.050000
vertex 11.932258 8.136420 0.000000
endloop
endfacet
facet normal 0.243359 0.969936 0.000000
outer loop
vertex 11.929877 8.137017 0.050000
vertex 11.929877 8.137017 0.100000
vertex 11.932258 8.136420 0.100000
endloop
endfacet
facet normal 0.243359 0.969936 -0.000009
outer loop
vertex 11.929877 8.137017 0.050000
vertex 11.932258 8.136420 0.100000
vertex 11.932256 8.136420 0.050000
endloop
endfacet
facet normal 0.336928 0.941531 0.000000
outer loop
vertex 11.932256 8.136420 0.050000
vertex 11.932258 8.136420 0.100000
vertex 11.934566 8.135594 0.100000
endloop
endfacet
facet normal 0.336928 0.941531 0.000000
outer loop
vertex 11.932256 8.136420 0.050000
vertex 11.934566 8.135594 0.100000
vertex 11.934566 8.135594 0.050000
endloop
endfacet
facet normal 0.336928 0.941531 0.000000
outer loop
vertex 11.932258 8.136420 0.000000
vertex 11.932256 8.136420 0.050000
vertex 11.934566 8.135594 0.050000
endloop
endfacet
facet normal 0.336928 0.941531 0.000000
outer loop
vertex 11.932258 8.136420 0.000000
vertex 11.934566 8.135594 0.050000
vertex 11.934566 8.135594 0.000000
endloop
endfacet
facet normal 0.426975 0.904263 0.000000
outer loop
vertex 11.934566 8.135594 0.000000
vertex 11.934566 8.135594 0.050000
vertex 11.936784 8.134546 0.050000
endloop
endfacet
facet normal 0.427351 0.904086 0.000000
outer loop
vertex 11.934566 8.135594 0.000000
vertex 11.936784 8.134546 0.050000
vertex 11.936784 8.134546 0.000000
endloop
endfacet
facet normal 0.426975 0.904263 0.000000
outer loop
vertex 11.934566 8.135594 0.050000
vertex 11.934566 8.135594 0.100000
vertex 11.936784 8.134546 0.100000
endloop
endfacet
facet normal 0.427351 0.904086 0.000000
outer loop
vertex 11.934566 8.135594 0.050000
vertex 11.936784 8.134546 0.100000
vertex 11.936784 8.134546 0.050000
endloop
endfacet
facet normal 0.514067 0.857750 0.000000
outer loop
vertex 11.936784 8.134546 0.050000
vertex 11.936784 8.134546 0.100000
vertex 11.938889 8.133285 0.100000
endloop
endfacet
facet normal 0.514067 0.857750 0.000000
outer loop
vertex 11.936784 8.134546 0.050000
vertex 11.938889 8.133285 0.100000
vertex 11.938889 8.133285 0.050000
endloop
endfacet
facet normal 0.514067 0.857750 0.000000
outer loop
vertex 11.936784 8.134546 0.000000
vertex 11.936784 8.134546 0.050000
vertex 11.938889 8.133285 0.050000
endloop
endfacet
facet normal 0.514067 0.857750 0.000000
outer loop
vertex 11.936784 8.134546 0.000000
vertex 11.938889 8.133285 0.050000
vertex 11.938889 8.133285 0.000000
endloop
endfacet
facet normal 0.596539 0.802584 0.000000
outer loop
vertex 11.938889 8.133285 0.000000
vertex 11.938889 8.133285 0.050000
vertex 11.940858 8.131823 0.050000
endloop
endfacet
facet normal 0.595608 0.803275 0.000000
outer loop
vertex 11.938889 8.133285 0.000000
vertex 11.940858 8.131823 0.050000
vertex 11.940858 8.131823 0.000000
endloop
endfacet
facet normal 0.596539 0.802584 0.000000
outer loop
vertex 11.938889 8.133285 0.050000
vertex 11.938889 8.133285 0.100000
vertex 11.940858 8.131823 0.100000
endloop
endfacet
facet normal 0.595608 0.803275 0.000000
outer loop
vertex 11.938889 8.133285 0.050000
vertex 11.940858 8.131823 0.100000
vertex 11.940858 8.131823 0.050000
endloop
endfacet
facet normal 0.671646 0.740872 0.000000
outer loop
vertex 11.940858 8.131823 0.050000
vertex 11.940858 8.131823 0.100000
vertex 11.942677 8.130176 0.100000
endloop
endfacet
facet normal 0.671163 0.741310 0.000000
outer loop
vertex 11.940858 8.131823 0.050000
vertex 11.942677 8.130176 0.100000
vertex 11.942677 8.130176 0.050000
endloop
endfacet
facet normal 0.671646 0.740872 0.000000
outer loop
vertex 11.940858 8.131823 0.000000
vertex 11.940858 8.131823 0.050000
vertex 11.942677 8.130176 0.050000
endloop
endfacet
facet normal 0.671163 0.741310 0.000000
outer loop
vertex 11.940858 8.131823 0.000000
vertex 11.942677 8.130176 0.050000
vertex 11.942677 8.130176 0.000000
endloop
endfacet
facet normal 0.740467 0.672092 0.000000
outer loop
vertex 11.942677 8.130176 0.000000
vertex 11.942677 8.130176 0.050000
vertex 11.944324 8.128358 0.050000
endloop
endfacet
facet normal 0.741434 0.671025 0.000000
outer loop
vertex 11.942677 8.130176 0.000000
vertex 11.944324 8.128358 0.050000
vertex 11.944324 8.128358 0.000000
endloop
endfacet
facet normal 0.740467 0.672093 0.000000
outer loop
vertex 11.942677 8.130176 0.050000
vertex 11.942677 8.130176 0.100000
vertex 11.944324 8.128358 0.100000
endloop
endfacet
facet normal 0.741434 0.671025 0.000000
outer loop
vertex 11.942677 8.130176 0.050000
vertex 11.944324 8.128358 0.100000
vertex 11.944324 8.128358 0.050000
endloop
endfacet
facet normal 0.802696 0.596388 0.000000
outer loop
vertex 11.944324 8.128358 0.050000
vertex 11.944324 8.128358 0.100000
vertex 11.945786 8.126388 0.100000
endloop
endfacet
facet normal 0.803161 0.595762 0.000000
outer loop
vertex 11.944324 8.128358 0.050000
vertex 11.945786 8.126388 0.100000
vertex 11.945786 8.126388 0.050000
endloop
endfacet
facet normal 0.802696 0.596388 0.000000
outer loop
vertex 11.944324 8.128358 0.000000
vertex 11.944324 8.128358 0.050000
vertex 11.945786 8.126388 0.050000
endloop
endfacet
facet normal 0.803161 0.595762 0.000000
outer loop
vertex 11.944324 8.128358 0.000000
vertex 11.945786 8.126388 0.050000
vertex 11.945786 8.126388 0.000000
endloop
endfacet
facet normal 0.857682 0.514181 0.000000
outer loop
vertex 11.945786 8.126388 0.000000
vertex 11.945786 8.126388 0.050000
vertex 11.947046 8.124284 0.050000
endloop
endfacet
facet normal 0.858110 0.513466 0.000000
outer loop
vertex 11.945786 8.126388 0.000000
vertex 11.947046 8.124284 0.050000
vertex 11.947046 8.124284 0.000000
endloop
endfacet
facet normal 0.857682 0.514181 0.000000
outer loop
vertex 11.945786 8.126388 0.050000
vertex 11.945786 8.126388 0.100000
vertex 11.947046 8.124284 0.100000
endloop
endfacet
facet normal 0.858110 0.513466 0.000000
outer loop
vertex 11.945786 8.126388 0.050000
vertex 11.947046 8.124284 0.100000
vertex 11.947046 8.124284 0.050000
endloop
endfacet
facet normal 0.904007 0.427518 0.000000
outer loop
vertex 11.947046 8.124284 0.050000
vertex 11.947046 8.124284 0.100000
vertex 11.948095 8.122066 0.100000
endloop
endfacet
facet normal 0.904007 0.427518 0.000000
outer loop
vertex 11.947046 8.124284 0.050000
vertex 11.948095 8.122066 0.100000
vertex 11.948095 8.122066 0.050000
endloop
endfacet
facet normal 0.904007 0.427518 0.000000
outer loop
vertex 11.947046 8.124284 0.000000
vertex 11.947046 8.124284 0.050000
vertex 11.948095 8.122066 0.050000
endloop
endfacet
facet normal 0.904007 0.427518 0.000000
outer loop
vertex 11.947046 8.124284 0.000000
vertex 11.948095 8.122066 0.050000
vertex 11.948095 8.122066 0.000000
endloop
endfacet
facet normal 0.941698 0.336460 0.000000
outer loop
vertex 11.948095 8.122066 0.000000
vertex 11.948095 8.122066 0.050000
vertex 11.948921 8.119757 0.050000
endloop
endfacet
facet normal 0.941390 0.337322 0.000000
outer loop
vertex 11.948095 8.122066 0.000000
vertex 11.948921 8.119757 0.050000
vertex 11.948921 8.119757 0.000000
endloop
endfacet
facet normal 0.941698 0.336460 0.000000
outer loop
vertex 11.948095 8.122066 0.050000
vertex 11.948095 8.122066 0.100000
vertex 11.948921 8.119757 0.100000
endloop
endfacet
facet normal 0.941390 0.337321 0.000000
outer loop
vertex 11.948095 8.122066 0.050000
vertex 11.948921 8.119757 0.100000
vertex 11.948921 8.119757 0.050000
endloop
endfacet
facet normal 0.970028 0.242993 0.000000
outer loop
vertex 11.948921 8.119757 0.050000
vertex 11.948921 8.119757 0.100000
vertex 11.949518 8.117377 0.100000
endloop
endfacet
facet normal 0.969799 0.243907 0.000000
outer loop
vertex 11.948921 8.119757 0.050000
vertex 11.949518 8.117377 0.100000
vertex 11.949518 8.117377 0.050000
endloop
endfacet
facet normal 0.970028 0.242993 0.000000
outer loop
vertex 11.948921 8.119757 0.000000
vertex 11.948921 8.119757 0.050000
vertex 11.949518 8.117377 0.050000
endloop
endfacet
facet normal 0.969799 0.243907 0.000000
outer loop
vertex 11.948921 8.119757 0.000000
vertex 11.949518 8.117377 0.050000
vertex 11.949518 8.117377 0.000000
endloop
endfacet
facet normal 0.989326 0.145718 0.000000
outer loop
vertex 11.949518 8.117377 0.000000
vertex 11.949518 8.117377 0.050000
vertex 11.949877 8.114949 0.050000
endloop
endfacet
facet normal 0.989326 0.145718 0.000000
outer loop
vertex 11.949518 8.117377 0.000000
vertex 11.949877 8.114949 0.050000
vertex 11.949877 8.114949 0.000000
endloop
endfacet
facet normal 0.989326 0.145718 0.000000
outer loop
vertex 11.949518 8.117377 0.050000
vertex 11.949518 8.117377 0.100000
vertex 11.949877 8.114949 0.100000
endloop
endfacet
facet normal 0.989326 0.145718 0.000000
outer loop
vertex 11.949518 8.117377 0.050000
vertex 11.949877 8.114949 0.100000
vertex 11.949877 8.114949 0.050000
endloop
endfacet
facet normal 0.998721 0.050558 0.000000
outer loop
vertex 11.949877 8.114949 0.050000
vertex 11.949877 8.114949 0.100000
vertex 11.949998 8.112500 0.100000
endloop
endfacet
facet normal 0.998817 0.048618 0.000000
outer loop
vertex 11.949877 8.114949 0.050000
vertex 11.949998 8.112500 0.100000
vertex 11.949998 8.112500 0.050000
endloop
endfacet
facet normal 0.998721 0.050558 0.000000
outer loop
vertex 11.949877 8.114949 0.000000
vertex 11.949877 8.114949 0.050000
vertex 11.949998 8.112500 0.050000
endloop
endfacet
facet normal 0.998817 0.048618 0.000000
outer loop
vertex 11.949877 8.114949 0.000000
vertex 11.949998 8.112500 0.050000
vertex 11.949998 8.112500 0.000000
endloop
endfacet
facet normal 0.998819 -0.048581 0.000000
outer loop
vertex 11.949998 8.112500 0.000000
vertex 11.949998 8.112500 0.050000
vertex 11.949877 8.110049 0.050000
endloop
endfacet
facet normal 0.998723 -0.050519 0.000000
outer loop
vertex 11.949998 8.112500 0.000000
vertex 11.949877 8.110049 0.050000
vertex 11.949877 8.110049 0.000000
endloop
endfacet
facet normal 0.998819 -0.048581 0.000000
outer loop
vertex 11.949998 8.112500 0.050000
vertex 11.949998 8.112500 0.100000
vertex 11.949877 8.110049 0.100000
endloop
endfacet
facet normal 0.998723 -0.050519 0.000000
outer loop
vertex 11.949998 8.112500 0.050000
vertex 11.949877 8.110049 0.100000
vertex 11.949877 8.110049 0.050000
endloop
endfacet
facet normal 0.989301 -0.145886 0.000000
outer loop
vertex 11.949877 8.110049 0.050000
vertex 11.949877 8.110049 0.100000
vertex 11.949518 8.107624 0.100000
endloop
endfacet
facet normal 0.989301 -0.145886 0.000000
outer loop
vertex 11.949877 8.110049 0.050000
vertex 11.949518 8.107624 0.100000
vertex 11.949518 8.107624 0.050000
endloop
endfacet
facet normal 0.989301 -0.145886 0.000000
outer loop
vertex 11.949877 8.110049 0.000000
vertex 11.949877 8.110049 0.050000
vertex 11.949518 8.107624 0.050000
endloop
endfacet
facet normal 0.989301 -0.145886 0.000000
outer loop
vertex 11.949877 8.110049 0.000000
vertex 11.949518 8.107624 0.050000
vertex 11.949518 8.107624 0.000000
endloop
endfacet
facet normal 0.969822 -0.243815 0.000000
outer loop
vertex 11.949518 8.107624 0.000000
vertex 11.949518 8.107624 0.050000
vertex 11.948921 8.105244 0.050000
endloop
endfacet
facet normal 0.970051 -0.242901 0.000000
outer loop
vertex 11.949518 8.107624 0.000000
vertex 11.948921 8.105244 0.050000
vertex 11.948921 8.105244 0.000000
endloop
endfacet
facet normal 0.969822 -0.243815 0.000000
outer loop
vertex 11.949518 8.107624 0.050000
vertex 11.949518 8.107624 0.100000
vertex 11.948921 8.105244 0.100000
endloop
endfacet
facet normal 0.970051 -0.242901 0.000000
outer loop
vertex 11.949518 8.107624 0.050000
vertex 11.948921 8.105244 0.100000
vertex 11.948921 8.105244 0.050000
endloop
endfacet
facet normal 0.941434 -0.337198 0.000000
outer loop
vertex 11.948921 8.105244 0.050000
vertex 11.948921 8.105244 0.100000
vertex 11.948095 8.102934 0.100000
endloop
endfacet
facet normal 0.941742 -0.336336 0.000000
outer loop
vertex 11.948921 8.105244 0.050000
vertex 11.948095 8.102934 0.100000
vertex 11.948095 8.102934 0.050000
endloop
endfacet
facet normal 0.941434 -0.337198 0.000000
outer loop
vertex 11.948921 8.105244 0.000000
vertex 11.948921 8.105244 0.050000
vertex 11.948095 8.102934 0.050000
endloop
endfacet
facet normal 0.941742 -0.336336 0.000000
outer loop
vertex 11.948921 8.105244 0.000000
vertex 11.948095 8.102934 0.050000
vertex 11.948095 8.102934 0.000000
endloop
endfacet
facet normal 0.904007 -0.427518 0.000000
outer loop
vertex 11.948095 8.102934 0.000000
vertex 11.948095 8.102934 0.050000
vertex 11.947046 8.100716 0.050000
endloop
endfacet
facet normal 0.904007 -0.427518 0.000000
outer loop
vertex 11.948095 8.102934 0.000000
vertex 11.947046 8.100716 0.050000
vertex 11.947046 8.100716 0.000000
endloop
endfacet
facet normal 0.904007 -0.427518 0.000000
outer loop
vertex 11.948095 8.102934 0.050000
vertex 11.948095 8.102934 0.100000
vertex 11.947046 8.100716 0.100000
endloop
endfacet
facet normal 0.904007 -0.427518 0.000000
outer loop
vertex 11.948095 8.102934 0.050000
vertex 11.947046 8.100716 0.100000
vertex 11.947046 8.100716 0.050000
endloop
endfacet
facet normal 0.858110 -0.513466 0.000000
outer loop
vertex 11.947046 8.100716 0.050000
vertex 11.947046 8.100716 0.100000
vertex 11.945786 8.098612 0.100000
endloop
endfacet
facet normal 0.857682 -0.514181 0.000000
outer loop
vertex 11.947046 8.100716 0.050000
vertex 11.945786 8.098612 0.100000
vertex 11.945786 8.098612 0.050000
endloop
endfacet
facet normal 0.858110 -0.513466 0.000000
outer loop
vertex 11.947046 8.100716 0.000000
vertex 11.947046 8.100716 0.050000
vertex 11.945786 8.098612 0.050000
endloop
endfacet
facet normal 0.857682 -0.514181 0.000000
outer loop
vertex 11.947046 8.100716 0.000000
vertex 11.945786 8.098612 0.050000
vertex 11.945786 8.098612 0.000000
endloop
endfacet
facet normal 0.803161 -0.595762 0.000000
outer loop
vertex 11.945786 8.098612 0.000000
vertex 11.945786 8.098612 0.050000
vertex 11.944324 8.096642 0.050000
endloop
endfacet
facet normal 0.802696 -0.596388 0.000000
outer loop
vertex 11.945786 8.098612 0.000000
vertex 11.944324 8.096642 0.050000
vertex 11.944324 8.096642 0.000000
endloop
endfacet
facet normal 0.803161 -0.595762 0.000000
outer loop
vertex 11.945786 8.098612 0.050000
vertex 11.945786 8.098612 0.100000
vertex 11.944324 8.096642 0.100000
endloop
endfacet
facet normal 0.802696 -0.596388 0.000000
outer loop
vertex 11.945786 8.098612 0.050000
vertex 11.944324 8.096642 0.100000
vertex 11.944324 8.096642 0.050000
endloop
endfacet
facet normal 0.741434 -0.671025 0.000000
outer loop
vertex 11.944324 8.096642 0.050000
vertex 11.944324 8.096642 0.100000
vertex 11.942677 8.094824 0.100000
endloop
endfacet
facet normal 0.740467 -0.672092 0.000000
outer loop
vertex 11.944324 8.096642 0.050000
vertex 11.942677 8.094824 0.100000
vertex 11.942677 8.094824 0.050000
endloop
endfacet
facet normal 0.741434 -0.671025 0.000000
outer loop
vertex 11.944324 8.096642 0.000000
vertex 11.944324 8.096642 0.050000
vertex 11.942677 8.094824 0.050000
endloop
endfacet
facet normal 0.740467 -0.672092 0.000000
outer loop
vertex 11.944324 8.096642 0.000000
vertex 11.942677 8.094824 0.050000
vertex 11.942677 8.094824 0.000000
endloop
endfacet
facet normal 0.671163 -0.741310 0.000000
outer loop
vertex 11.942677 8.094824 0.000000
vertex 11.942677 8.094824 0.050000
vertex 11.940858 8.093177 0.050000
endloop
endfacet
facet normal 0.671646 -0.740872 0.000000
outer loop
vertex 11.942677 8.094824 0.000000
vertex 11.940858 8.093177 0.050000
vertex 11.940858 8.093177 0.000000
endloop
endfacet
facet normal 0.671162 -0.741310 0.000000
outer loop
vertex 11.942677 8.094824 0.050000
vertex 11.942677 8.094824 0.100000
vertex 11.940858 8.093177 0.100000
endloop
endfacet
facet normal 0.671646 -0.740872 0.000000
outer loop
vertex 11.942677 8.094824 0.050000
vertex 11.940858 8.093177 0.100000
vertex 11.940858 8.093177 0.050000
endloop
endfacet
facet normal 0.595358 -0.803461 0.000000
outer loop
vertex 11.940858 8.093177 0.050000
vertex 11.940858 8.093177 0.100000
vertex 11.938889 8.091716 0.100000
endloop
endfacet
facet normal 0.596288 -0.802770 0.000000
outer loop
vertex 11.940858 8.093177 0.050000
vertex 11.938889 8.091716 0.100000
vertex 11.938889 8.091716 0.050000
endloop
endfacet
facet normal 0.595358 -0.803461 0.000000
outer loop
vertex 11.940858 8.093177 0.000000
vertex 11.940858 8.093177 0.050000
vertex 11.938889 8.091716 0.050000
endloop
endfacet
facet normal 0.596288 -0.802770 0.000000
outer loop
vertex 11.940858 8.093177 0.000000
vertex 11.938889 8.091716 0.050000
vertex 11.938889 8.091716 0.000000
endloop
endfacet
facet normal 0.514067 -0.857750 0.000000
outer loop
vertex 11.938889 8.091716 0.000000
vertex 11.938889 8.091716 0.050000
vertex 11.936784 8.090454 0.050000
endloop
endfacet
facet normal 0.513781 -0.857921 0.000000
outer loop
vertex 11.938889 8.091716 0.000000
vertex 11.936784 8.090454 0.050000
vertex 11.936784 8.090455 0.000000
endloop
endfacet
facet normal 0.513781 -0.857921 0.000000
outer loop
vertex 11.938889 8.091716 0.050000
vertex 11.938889 8.091716 0.100000
vertex 11.936784 8.090455 0.100000
endloop
endfacet
facet normal 0.514067 -0.857750 0.000000
outer loop
vertex 11.938889 8.091716 0.050000
vertex 11.936784 8.090455 0.100000
vertex 11.936784 8.090454 0.050000
endloop
endfacet
facet normal 0.427986 -0.903785 0.000000
outer loop
vertex 11.936784 8.090454 0.050000
vertex 11.936784 8.090455 0.100000
vertex 11.934566 8.089405 0.100000
endloop
endfacet
facet normal 0.427293 -0.904113 0.000000
outer loop
vertex 11.936784 8.090454 0.050000
vertex 11.934566 8.089405 0.100000
vertex 11.934566 8.089405 0.050000
endloop
endfacet
facet normal 0.427668 -0.903936 0.000000
outer loop
vertex 11.936784 8.090455 0.000000
vertex 11.936784 8.090454 0.050000
vertex 11.934566 8.089405 0.050000
endloop
endfacet
facet normal 0.427610 -0.903963 0.000000
outer loop
vertex 11.936784 8.090455 0.000000
vertex 11.934566 8.089405 0.050000
vertex 11.934566 8.089405 0.000000
endloop
endfacet
facet normal 0.337273 -0.941407 0.000000
outer loop
vertex 11.934566 8.089405 0.000000
vertex 11.934566 8.089405 0.050000
vertex 11.932258 8.088578 0.050000
endloop
endfacet
facet normal 0.337273 -0.941407 0.000000
outer loop
vertex 11.934566 8.089405 0.000000
vertex 11.932258 8.088578 0.050000
vertex 11.932258 8.088578 0.000000
endloop
endfacet
facet normal 0.337273 -0.941407 0.000000
outer loop
vertex 11.934566 8.089405 0.050000
vertex 11.934566 8.089405 0.100000
vertex 11.932258 8.088578 0.100000
endloop
endfacet
facet normal 0.337273 -0.941407 0.000000
outer loop
vertex 11.934566 8.089405 0.050000
vertex 11.932258 8.088578 0.100000
vertex 11.932258 8.088578 0.050000
endloop
endfacet
facet normal 0.242627 -0.970120 0.000000
outer loop
vertex 11.932258 8.088578 0.050000
vertex 11.932258 8.088578 0.100000
vertex 11.929877 8.087983 0.100000
endloop
endfacet
facet normal 0.242627 -0.970120 0.000000
outer loop
vertex 11.932258 8.088578 0.050000
vertex 11.929877 8.087983 0.100000
vertex 11.929877 8.087983 0.050000
endloop
endfacet
facet normal 0.242627 -0.970120 0.000000
outer loop
vertex 11.932258 8.088578 0.000000
vertex 11.932258 8.088578 0.050000
vertex 11.929877 8.087983 0.050000
endloop
endfacet
facet normal 0.242627 -0.970120 0.000000
outer loop
vertex 11.932258 8.088578 0.000000
vertex 11.929877 8.087983 0.050000
vertex 11.929877 8.087983 0.000000
endloop
endfacet
facet normal 0.146774 -0.989170 0.000000
outer loop
vertex 11.929877 8.087983 0.000000
vertex 11.929877 8.087983 0.050000
vertex 11.927450 8.087623 0.050000
endloop
endfacet
facet normal 0.147056 -0.989128 0.000000
outer loop
vertex 11.929877 8.087983 0.000000
vertex 11.927450 8.087623 0.050000
vertex 11.927450 8.087623 0.000000
endloop
endfacet
facet normal 0.146774 -0.989170 0.000000
outer loop
vertex 11.929877 8.087983 0.050000
vertex 11.929877 8.087983 0.100000
vertex 11.927450 8.087623 0.100000
endloop
endfacet
facet normal 0.147056 -0.989128 0.000000
outer loop
vertex 11.929877 8.087983 0.050000
vertex 11.927450 8.087623 0.100000
vertex 11.927450 8.087623 0.050000
endloop
endfacet
facet normal 0.048968 -0.998800 0.000000
outer loop
vertex 11.927450 8.087623 0.050000
vertex 11.927450 8.087623 0.100000
vertex 11.925000 8.087502 0.100000
endloop
endfacet
facet normal 0.048968 -0.998800 0.000000
outer loop
vertex 11.927450 8.087623 0.050000
vertex 11.925000 8.087502 0.100000
vertex 11.925000 8.087502 0.050000
endloop
endfacet
facet normal 0.048968 -0.998800 0.000000
outer loop
vertex 11.927450 8.087623 0.000000
vertex 11.927450 8.087623 0.050000
vertex 11.925000 8.087502 0.050000
endloop
endfacet
facet normal 0.048968 -0.998800 0.000000
outer loop
vertex 11.927450 8.087623 0.000000
vertex 11.925000 8.087502 0.050000
vertex 11.925000 8.087502 0.000000
endloop
endfacet
facet normal -0.048968 -0.998800 0.000000
outer loop
vertex 11.925000 8.087502 0.000000
vertex 11.925000 8.087502 0.050000
vertex 11.922550 8.087623 0.050000
endloop
endfacet
facet normal -0.049016 -0.998798 0.000000
outer loop
vertex 11.925000 8.087502 0.000000
vertex 11.922550 8.087623 0.050000
vertex 11.922550 8.087623 0.000000
endloop
endfacet
facet normal -0.048968 -0.998800 0.000000
outer loop
vertex 11.925000 8.087502 0.050000
vertex 11.925000 8.087502 0.100000
vertex 11.922550 8.087623 0.100000
endloop
endfacet
facet normal -0.049016 -0.998798 0.000000
outer loop
vertex 11.925000 8.087502 0.050000
vertex 11.922550 8.087623 0.100000
vertex 11.922550 8.087623 0.050000
endloop
endfacet
facet normal -0.147056 -0.989128 0.000000
outer loop
vertex 11.922550 8.087623 0.050000
vertex 11.922550 8.087623 0.100000
vertex 11.920124 8.087983 0.100000
endloop
endfacet
facet normal -0.146915 -0.989149 0.000000
outer loop
vertex 11.922550 8.087623 0.050000
vertex 11.920124 8.087983 0.100000
vertex 11.920124 8.087983 0.050000
endloop
endfacet
facet normal -0.147056 -0.989128 0.000000
outer loop
vertex 11.922550 8.087623 0.000000
vertex 11.922550 8.087623 0.050000
vertex 11.920124 8.087983 0.050000
endloop
endfacet
facet normal -0.146915 -0.989149 0.000000
outer loop
vertex 11.922550 8.087623 0.000000
vertex 11.920124 8.087983 0.050000
vertex 11.920124 8.087983 0.000000
endloop
endfacet
facet normal -0.242627 -0.970120 0.000000
outer loop
vertex 11.920124 8.087983 0.000000
vertex 11.920124 8.087983 0.050000
vertex 11.917745 8.088578 0.050000
endloop
endfacet
facet normal -0.242627 -0.970120 0.000000
outer loop
vertex 11.920124 8.087983 0.000000
vertex 11.917745 8.088578 0.050000
vertex 11.917745 8.088578 0.000000
endloop
endfacet
facet normal -0.242627 -0.970120 0.000000
outer loop
vertex 11.920124 8.087983 0.050000
vertex 11.920124 8.087983 0.100000
vertex 11.917745 8.088578 0.100000
endloop
endfacet
facet normal -0.242627 -0.970120 0.000000
outer loop
vertex 11.920124 8.087983 0.050000
vertex 11.917745 8.088578 0.100000
vertex 11.917745 8.088578 0.050000
endloop
endfacet
facet normal -0.337309 -0.941394 0.000000
outer loop
vertex 11.917745 8.088578 0.050000
vertex 11.917745 8.088578 0.100000
vertex 11.915434 8.089406 0.100000
endloop
endfacet
facet normal -0.337309 -0.941394 0.000000
outer loop
vertex 11.917745 8.088578 0.050000
vertex 11.915434 8.089406 0.100000
vertex 11.915434 8.089406 0.050000
endloop
endfacet
facet normal -0.337309 -0.941394 0.000000
outer loop
vertex 11.917745 8.088578 0.000000
vertex 11.917745 8.088578 0.050000
vertex 11.915434 8.089406 0.050000
endloop
endfacet
facet normal -0.337309 -0.941394 0.000000
outer loop
vertex 11.917745 8.088578 0.000000
vertex 11.915434 8.089406 0.050000
vertex 11.915434 8.089406 0.000000
endloop
endfacet
facet normal -0.427351 -0.904086 0.000000
outer loop
vertex 11.915434 8.089406 0.000000
vertex 11.915434 8.089406 0.050000
vertex 11.913217 8.090454 0.050000
endloop
endfacet
facet normal -0.427668 -0.903936 -0.000030
outer loop
vertex 11.915434 8.089406 0.000000
vertex 11.913217 8.090454 0.050000
vertex 11.913217 8.090455 0.000000
endloop
endfacet
facet normal -0.427668 -0.903936 0.000000
outer loop
vertex 11.915434 8.089406 0.050000
vertex 11.915434 8.089406 0.100000
vertex 11.913217 8.090455 0.100000
endloop
endfacet
facet normal -0.427351 -0.904086 0.000030
outer loop
vertex 11.915434 8.089406 0.050000
vertex 11.913217 8.090455 0.100000
vertex 11.913217 8.090454 0.050000
endloop
endfacet
facet normal -0.513781 -0.857921 0.000000
outer loop
vertex 11.913217 8.090454 0.050000
vertex 11.913217 8.090455 0.100000
vertex 11.911112 8.091716 0.100000
endloop
endfacet
facet normal -0.514067 -0.857750 0.000000
outer loop
vertex 11.913217 8.090454 0.050000
vertex 11.911112 8.091716 0.100000
vertex 11.911112 8.091716 0.050000
endloop
endfacet
facet normal -0.514067 -0.857750 0.000000
outer loop
vertex 11.913217 8.090455 0.000000
vertex 11.913217 8.090454 0.050000
vertex 11.911112 8.091716 0.050000
endloop
endfacet
facet normal -0.513781 -0.857921 0.000000
outer loop
vertex 11.913217 8.090455 0.000000
vertex 11.911112 8.091716 0.050000
vertex 11.911112 8.091716 0.000000
endloop
endfacet
facet normal -0.595823 -0.803116 0.000000
outer loop
vertex 11.911112 8.091716 0.000000
vertex 11.911112 8.091716 0.050000
vertex 11.909142 8.093177 0.050000
endloop
endfacet
facet normal -0.595358 -0.803461 0.000000
outer loop
vertex 11.911112 8.091716 0.000000
vertex 11.909142 8.093177 0.050000
vertex 11.909142 8.093177 0.000000
endloop
endfacet
facet normal -0.595823 -0.803116 0.000000
outer loop
vertex 11.911112 8.091716 0.050000
vertex 11.911112 8.091716 0.100000
vertex 11.909142 8.093177 0.100000
endloop
endfacet
facet normal -0.595358 -0.803461 0.000000
outer loop
vertex 11.911112 8.091716 0.050000
vertex 11.909142 8.093177 0.100000
vertex 11.909142 8.093177 0.050000
endloop
endfacet
facet normal -0.671646 -0.740872 0.000000
outer loop
vertex 11.909142 8.093177 0.050000
vertex 11.909142 8.093177 0.100000
vertex 11.907324 8.094824 0.100000
endloop
endfacet
facet normal -0.671163 -0.741310 0.000000
outer loop
vertex 11.909142 8.093177 0.050000
vertex 11.907324 8.094824 0.100000
vertex 11.907324 8.094824 0.050000
endloop
endfacet
facet normal -0.671646 -0.740872 0.000000
outer loop
vertex 11.909142 8.093177 0.000000
vertex 11.909142 8.093177 0.050000
vertex 11.907324 8.094824 0.050000
endloop
endfacet
facet normal -0.671163 -0.741310 0.000000
outer loop
vertex 11.909142 8.093177 0.000000
vertex 11.907324 8.094824 0.050000
vertex 11.907324 8.094824 0.000000
endloop
endfacet
facet normal -0.740951 -0.671559 0.000000
outer loop
vertex 11.907324 8.094824 0.000000
vertex 11.907324 8.094824 0.050000
vertex 11.905677 8.096642 0.050000
endloop
endfacet
facet normal -0.741434 -0.671025 0.000000
outer loop
vertex 11.907324 8.094824 0.000000
vertex 11.905677 8.096642 0.050000
vertex 11.905677 8.096642 0.000000
endloop
endfacet
facet normal -0.740951 -0.671559 0.000000
outer loop
vertex 11.907324 8.094824 0.050000
vertex 11.907324 8.094824 0.100000
vertex 11.905677 8.096642 0.100000
endloop
endfacet
facet normal -0.741434 -0.671025 0.000000
outer loop
vertex 11.907324 8.094824 0.050000
vertex 11.905677 8.096642 0.100000
vertex 11.905677 8.096642 0.050000
endloop
endfacet
facet normal -0.803161 -0.595762 0.000000
outer loop
vertex 11.905677 8.096642 0.050000
vertex 11.905677 8.096642 0.100000
vertex 11.904216 8.098612 0.100000
endloop
endfacet
facet normal -0.803299 -0.595576 -0.000015
outer loop
vertex 11.905677 8.096642 0.050000
vertex 11.904216 8.098612 0.100000
vertex 11.904216 8.098613 0.050000
endloop
endfacet
facet normal -0.803299 -0.595576 0.000000
outer loop
vertex 11.905677 8.096642 0.000000
vertex 11.905677 8.096642 0.050000
vertex 11.904216 8.098613 0.050000
endloop
endfacet
facet normal -0.803161 -0.595762 0.000015
outer loop
vertex 11.905677 8.096642 0.000000
vertex 11.904216 8.098613 0.050000
vertex 11.904216 8.098612 0.000000
endloop
endfacet
facet normal -0.857579 -0.514353 0.000015
outer loop
vertex 11.904216 8.098612 0.000000
vertex 11.904216 8.098613 0.050000
vertex 11.902954 8.100716 0.050000
endloop
endfacet
facet normal -0.857784 -0.514010 -0.000032
outer loop
vertex 11.904216 8.098612 0.000000
vertex 11.902954 8.100716 0.050000
vertex 11.902955 8.100717 0.000000
endloop
endfacet
facet normal -0.857784 -0.514010 0.000000
outer loop
vertex 11.904216 8.098613 0.050000
vertex 11.904216 8.098612 0.100000
vertex 11.902955 8.100717 0.100000
endloop
endfacet
facet normal -0.857579 -0.514353 0.000017
outer loop
vertex 11.904216 8.098613 0.050000
vertex 11.902955 8.100717 0.100000
vertex 11.902954 8.100716 0.050000
endloop
endfacet
facet normal -0.903936 -0.427669 0.000046
outer loop
vertex 11.902954 8.100716 0.050000
vertex 11.902955 8.100717 0.100000
vertex 11.901905 8.102934 0.100000
endloop
endfacet
facet normal -0.904007 -0.427518 0.000000
outer loop
vertex 11.902954 8.100716 0.050000
vertex 11.901905 8.102934 0.100000
vertex 11.901905 8.102934 0.050000
endloop
endfacet
facet normal -0.904007 -0.427518 -0.000046
outer loop
vertex 11.902955 8.100717 0.000000
vertex 11.902954 8.100716 0.050000
vertex 11.901905 8.102934 0.050000
endloop
endfacet
facet normal -0.903936 -0.427668 0.000000
outer loop
vertex 11.902955 8.100717 0.000000
vertex 11.901905 8.102934 0.050000
vertex 11.901905 8.102934 0.000000
endloop
endfacet
facet normal -0.941434 -0.337198 0.000000
outer loop
vertex 11.901905 8.102934 0.000000
vertex 11.901905 8.102934 0.050000
vertex 11.901079 8.105244 0.050000
endloop
endfacet
facet normal -0.941742 -0.336336 0.000000
outer loop
vertex 11.901905 8.102934 0.000000
vertex 11.901079 8.105244 0.050000
vertex 11.901079 8.105244 0.000000
endloop
endfacet
facet normal -0.941434 -0.337198 0.000000
outer loop
vertex 11.901905 8.102934 0.050000
vertex 11.901905 8.102934 0.100000
vertex 11.901079 8.105244 0.100000
endloop
endfacet
facet normal -0.941742 -0.336336 0.000000
outer loop
vertex 11.901905 8.102934 0.050000
vertex 11.901079 8.105244 0.100000
vertex 11.901079 8.105244 0.050000
endloop
endfacet
facet normal -0.970051 -0.242901 0.000000
outer loop
vertex 11.901079 8.105244 0.050000
vertex 11.901079 8.105244 0.100000
vertex 11.900483 8.107624 0.100000
endloop
endfacet
facet normal -0.970028 -0.242993 0.000000
outer loop
vertex 11.901079 8.105244 0.050000
vertex 11.900483 8.107624 0.100000
vertex 11.900483 8.107623 0.050000
endloop
endfacet
facet normal -0.970028 -0.242993 0.000000
outer loop
vertex 11.901079 8.105244 0.000000
vertex 11.901079 8.105244 0.050000
vertex 11.900483 8.107623 0.050000
endloop
endfacet
facet normal -0.970051 -0.242901 0.000000
outer loop
vertex 11.901079 8.105244 0.000000
vertex 11.900483 8.107623 0.050000
vertex 11.900483 8.107624 0.000000
endloop
endfacet
facet normal -0.989169 -0.146781 -0.000004
outer loop
vertex 11.900483 8.107624 0.000000
vertex 11.900483 8.107623 0.050000
vertex 11.900124 8.110049 0.050000
endloop
endfacet
facet normal -0.989161 -0.146838 0.000000
outer loop
vertex 11.900483 8.107624 0.000000
vertex 11.900124 8.110049 0.050000
vertex 11.900124 8.110049 0.000000
endloop
endfacet
facet normal -0.989161 -0.146838 0.000004
outer loop
vertex 11.900483 8.107623 0.050000
vertex 11.900483 8.107624 0.100000
vertex 11.900124 8.110049 0.100000
endloop
endfacet
facet normal -0.989169 -0.146781 0.000000
outer loop
vertex 11.900483 8.107623 0.050000
vertex 11.900124 8.110049 0.100000
vertex 11.900124 8.110049 0.050000
endloop
endfacet
facet normal -0.998819 -0.048581 0.000000
outer loop
vertex 11.900124 8.110049 0.050000
vertex 11.900124 8.110049 0.100000
vertex 11.900003 8.112500 0.100000
endloop
endfacet
facet normal -0.998819 -0.048581 0.000000
outer loop
vertex 11.900124 8.110049 0.050000
vertex 11.900003 8.112500 0.100000
vertex 11.900003 8.112500 0.050000
endloop
endfacet
facet normal -0.998819 -0.048581 0.000000
outer loop
vertex 11.900124 8.110049 0.000000
vertex 11.900124 8.110049 0.050000
vertex 11.900003 8.112500 0.050000
endloop
endfacet
facet normal -0.998819 -0.048581 0.000000
outer loop
vertex 11.900124 8.110049 0.000000
vertex 11.900003 8.112500 0.050000
vertex 11.900003 8.112500 0.000000
endloop
endfacet
facet normal -0.998817 0.048618 0.000000
outer loop
vertex 11.900003 8.112500 0.000000
vertex 11.900003 8.112500 0.050000
vertex 11.900124 8.114949 0.050000
endloop
endfacet
facet normal -0.998817 0.048618 0.000000
outer loop
vertex 11.900003 8.112500 0.000000
vertex 11.900124 8.114949 0.050000
vertex 11.900124 8.114949 0.000000
endloop
endfacet
facet normal -0.998817 0.048618 0.000000
outer loop
vertex 11.900003 8.112500 0.050000
vertex 11.900003 8.112500 0.100000
vertex 11.900124 8.114949 0.100000
endloop
endfacet
facet normal -0.998817 0.048618 0.000000
outer loop
vertex 11.900003 8.112500 0.050000
vertex 11.900124 8.114949 0.100000
vertex 11.900124 8.114949 0.050000
endloop
endfacet
facet normal -0.989186 0.146668 0.000000
outer loop
vertex 11.900124 8.114949 0.050000
vertex 11.900124 8.114949 0.100000
vertex 11.900483 8.117377 0.100000
endloop
endfacet
facet normal -0.989186 0.146668 0.000000
outer loop
vertex 11.900124 8.114949 0.050000
vertex 11.900483 8.117377 0.100000
vertex 11.900483 8.117377 0.050000
endloop
endfacet
facet normal -0.989186 0.146668 0.000000
outer loop
vertex 11.900124 8.114949 0.000000
vertex 11.900124 8.114949 0.050000
vertex 11.900483 8.117377 0.050000
endloop
endfacet
facet normal -0.989186 0.146668 0.000000
outer loop
vertex 11.900124 8.114949 0.000000
vertex 11.900483 8.117377 0.050000
vertex 11.900483 8.117377 0.000000
endloop
endfacet
facet normal -0.970005 0.243085 0.000000
outer loop
vertex 11.900483 8.117377 0.000000
vertex 11.900483 8.117377 0.050000
vertex 11.901079 8.119756 0.050000
endloop
endfacet
facet normal -0.970028 0.242993 0.000000
outer loop
vertex 11.900483 8.117377 0.000000
vertex 11.901079 8.119756 0.050000
vertex 11.901079 8.119757 0.000000
endloop
endfacet
facet normal -0.970028 0.242993 0.000000
outer loop
vertex 11.900483 8.117377 0.050000
vertex 11.900483 8.117377 0.100000
vertex 11.901079 8.119757 0.100000
endloop
endfacet
facet normal -0.970005 0.243085 0.000000
outer loop
vertex 11.900483 8.117377 0.050000
vertex 11.901079 8.119757 0.100000
vertex 11.901079 8.119756 0.050000
endloop
endfacet
facet normal -0.941390 0.337322 0.000000
outer loop
vertex 11.901079 8.119756 0.050000
vertex 11.901079 8.119757 0.100000
vertex 11.901906 8.122066 0.100000
endloop
endfacet
facet normal -0.941434 0.337198 0.000000
outer loop
vertex 11.901079 8.119756 0.050000
vertex 11.901906 8.122066 0.100000
vertex 11.901906 8.122066 0.050000
endloop
endfacet
facet normal -0.941434 0.337198 0.000000
outer loop
vertex 11.901079 8.119757 0.000000
vertex 11.901079 8.119756 0.050000
vertex 11.901906 8.122066 0.050000
endloop
endfacet
facet normal -0.941390 0.337322 0.000000
outer loop
vertex 11.901079 8.119757 0.000000
vertex 11.901906 8.122066 0.050000
vertex 11.901906 8.122066 0.000000
endloop
endfacet
facet normal -0.904382 0.426724 0.000000
outer loop
vertex 11.901906 8.122066 0.000000
vertex 11.901906 8.122066 0.050000
vertex 11.902954 8.124284 0.050000
endloop
endfacet
facet normal -0.904007 0.427518 -0.000019
outer loop
vertex 11.901906 8.122066 0.000000
vertex 11.902954 8.124284 0.050000
vertex 11.902955 8.124284 0.000000
endloop
endfacet
facet normal -0.904007 0.427518 0.000000
outer loop
vertex 11.901906 8.122066 0.050000
vertex 11.901906 8.122066 0.100000
vertex 11.902955 8.124284 0.100000
endloop
endfacet
facet normal -0.904382 0.426724 0.000019
outer loop
vertex 11.901906 8.122066 0.050000
vertex 11.902955 8.124284 0.100000
vertex 11.902954 8.124284 0.050000
endloop
endfacet
facet normal -0.857682 0.514181 0.000030
outer loop
vertex 11.902954 8.124284 0.050000
vertex 11.902955 8.124284 0.100000
vertex 11.904216 8.126388 0.100000
endloop
endfacet
facet normal -0.857682 0.514181 0.000000
outer loop
vertex 11.902954 8.124284 0.050000
vertex 11.904216 8.126388 0.100000
vertex 11.904216 8.126388 0.050000
endloop
endfacet
facet normal -0.857682 0.514181 -0.000030
outer loop
vertex 11.902955 8.124284 0.000000
vertex 11.902954 8.124284 0.050000
vertex 11.904216 8.126388 0.050000
endloop
endfacet
facet normal -0.857682 0.514181 0.000000
outer loop
vertex 11.902955 8.124284 0.000000
vertex 11.904216 8.126388 0.050000
vertex 11.904216 8.126388 0.000000
endloop
endfacet
facet normal -0.803161 0.595762 0.000000
outer loop
vertex 11.904216 8.126388 0.000000
vertex 11.904216 8.126388 0.050000
vertex 11.905677 8.128358 0.050000
endloop
endfacet
facet normal -0.803161 0.595762 0.000000
outer loop
vertex 11.904216 8.126388 0.000000
vertex 11.905677 8.128358 0.050000
vertex 11.905677 8.128358 0.000000
endloop
endfacet
facet normal -0.803161 0.595762 0.000000
outer loop
vertex 11.904216 8.126388 0.050000
vertex 11.904216 8.126388 0.100000
vertex 11.905677 8.128358 0.100000
endloop
endfacet
facet normal -0.803161 0.595762 0.000000
outer loop
vertex 11.904216 8.126388 0.050000
vertex 11.905677 8.128358 0.100000
vertex 11.905677 8.128358 0.050000
endloop
endfacet
facet normal -0.741434 0.671025 0.000000
outer loop
vertex 11.905677 8.128358 0.050000
vertex 11.905677 8.128358 0.100000
vertex 11.907324 8.130176 0.100000
endloop
endfacet
facet normal -0.740951 0.671559 0.000000
outer loop
vertex 11.905677 8.128358 0.050000
vertex 11.907324 8.130176 0.100000
vertex 11.907324 8.130176 0.050000
endloop
endfacet
facet normal -0.741434 0.671025 0.000000
outer loop
vertex 11.905677 8.128358 0.000000
vertex 11.905677 8.128358 0.050000
vertex 11.907324 8.130176 0.050000
endloop
endfacet
facet normal -0.740951 0.671559 0.000000
outer loop
vertex 11.905677 8.128358 0.000000
vertex 11.907324 8.130176 0.050000
vertex 11.907324 8.130176 0.000000
endloop
endfacet
facet normal -0.671163 0.741310 0.000000
outer loop
vertex 11.907324 8.130176 0.000000
vertex 11.907324 8.130176 0.050000
vertex 11.909142 8.131823 0.050000
endloop
endfacet
facet normal -0.671860 0.740679 0.000030
outer loop
vertex 11.907324 8.130176 0.000000
vertex 11.909142 8.131823 0.050000
vertex 11.909142 8.131824 0.000000
endloop
endfacet
facet normal -0.671376 0.741117 0.000000
outer loop
vertex 11.907324 8.130176 0.050000
vertex 11.907324 8.130176 0.100000
vertex 11.909142 8.131824 0.100000
endloop
endfacet
facet normal -0.671646 0.740872 -0.000030
outer loop
vertex 11.907324 8.130176 0.050000
vertex 11.909142 8.131824 0.100000
vertex 11.909142 8.131823 0.050000
endloop
endfacet
facet normal -0.595358 0.803461 -0.000030
outer loop
vertex 11.909142 8.131823 0.050000
vertex 11.909142 8.131824 0.100000
vertex 11.911112 8.133285 0.100000
endloop
endfacet
facet normal -0.596073 0.802930 -0.000038
outer loop
vertex 11.909142 8.131823 0.050000
vertex 11.911112 8.133285 0.100000
vertex 11.911113 8.133285 0.050000
endloop
endfacet
facet normal -0.595608 0.803275 0.000030
outer loop
vertex 11.909142 8.131824 0.000000
vertex 11.909142 8.131823 0.050000
vertex 11.911113 8.133285 0.050000
endloop
endfacet
facet normal -0.595823 0.803116 0.000038
outer loop
vertex 11.909142 8.131824 0.000000
vertex 11.911113 8.133285 0.050000
vertex 11.911112 8.133285 0.000000
endloop
endfacet
facet normal -0.514067 0.857750 0.000030
outer loop
vertex 11.911112 8.133285 0.000000
vertex 11.911113 8.133285 0.050000
vertex 11.913217 8.134546 0.050000
endloop
endfacet
facet normal -0.514067 0.857750 -0.000027
outer loop
vertex 11.911112 8.133285 0.000000
vertex 11.913217 8.134546 0.050000
vertex 11.913218 8.134546 0.000000
endloop
endfacet
facet normal -0.514067 0.857750 0.000000
outer loop
vertex 11.911113 8.133285 0.050000
vertex 11.911112 8.133285 0.100000
vertex 11.913218 8.134546 0.100000
endloop
endfacet
facet normal -0.514067 0.857750 -0.000003
outer loop
vertex 11.911113 8.133285 0.050000
vertex 11.913218 8.134546 0.100000
vertex 11.913217 8.134546 0.050000
endloop
endfacet
facet normal -0.427351 0.904086 0.000000
outer loop
vertex 11.913217 8.134546 0.050000
vertex 11.913218 8.134546 0.100000
vertex 11.915434 8.135594 0.100000
endloop
endfacet
facet normal -0.427351 0.904086 0.000000
outer loop
vertex 11.913217 8.134546 0.050000
vertex 11.915434 8.135594 0.100000
vertex 11.915434 8.135594 0.050000
endloop
endfacet
facet normal -0.427351 0.904086 0.000000
outer loop
vertex 11.913218 8.134546 0.000000
vertex 11.913217 8.134546 0.050000
vertex 11.915434 8.135594 0.050000
endloop
endfacet
facet normal -0.427351 0.904086 0.000000
outer loop
vertex 11.913218 8.134546 0.000000
vertex 11.915434 8.135594 0.050000
vertex 11.915434 8.135594 0.000000
endloop
endfacet
facet normal 0.000008 0.000000 1.000000
outer loop
vertex 11.929878 8.137020 0.100000
vertex 11.927450 8.137377 0.100000
vertex 11.925001 8.112501 0.100000
endloop
endfacet
facet normal 0.000000 0.000000 1.000000
outer loop
vertex 11.929878 8.137020 0.100000
vertex 11.925001 8.112501 0.100000
vertex 11.932258 8.136420 0.100000
endloop
endfacet
facet normal 0.000000 0.000000 1.000000
outer loop
vertex 11.925000 8.137500 0.100000
vertex 11.922550 8.137377 0.100000
vertex 11.925001 8.112501 0.100000
endloop
endfacet
facet normal 0.000000 0.000000 1.000000
outer loop
vertex 11.925000 8.137500 0.100000
vertex 11.925001 8.112501 0.100000
vertex 11.927450 8.137377 0.100000
endloop
endfacet
facet normal 0.000000 0.000000 1.000000
outer loop
vertex 11.920123 8.137020 0.100000
vertex 11.917745 8.136420 0.100000
vertex 11.925001 8.112501 0.100000
endloop
endfacet
facet normal -0.000008 0.000000 1.000000
outer loop
vertex 11.920123 8.137020 0.100000
vertex 11.925001 8.112501 0.100000
vertex 11.922550 8.137377 0.100000
endloop
endfacet
facet normal 0.000008 0.000000 1.000000
outer loop
vertex 11.915433 8.135596 0.100000
vertex 11.913217 8.134546 0.100000
vertex 11.925001 8.112501 0.100000
endloop
endfacet
facet normal -0.000008 0.000000 1.000000
outer loop
vertex 11.915433 8.135596 0.100000
vertex 11.925001 8.112501 0.100000
vertex 11.917745 8.136420 0.100000
endloop
endfacet
facet normal 0.000000 0.000000 1.000000
outer loop
vertex 11.911111 8.133286 0.100000
vertex 11.909142 8.131824 0.100000
vertex 11.925001 8.112501 0.100000
endloop
endfacet
facet normal 0.000000 0.000000 1.000000
outer loop
vertex 11.911111 8.133286 0.100000
vertex 11.925001 8.112501 0.100000
vertex 11.913217 8.134546 0.100000
endloop
endfacet
facet normal 0.000004 0.000000 1.000000
outer loop
vertex 11.907323 8.130177 0.100000
vertex 11.905677 8.128358 0.100000
vertex 11.925001 8.112501 0.100000
endloop
endfacet
facet normal 0.000000 0.000000 1.000000
outer loop
vertex 11.907323 8.130177 0.100000
vertex 11.925001 8.112501 0.100000
vertex 11.909142 8.131824 0.100000
endloop
endfacet
facet normal -0.000004 0.000000 1.000000
outer loop
vertex 11.904213 8.126389 0.100000
vertex 11.902955 8.124284 0.100000
vertex 11.925001 8.112501 0.100000
endloop
endfacet
facet normal 0.000000 0.000000 1.000000
outer loop
vertex 11.904213 8.126389 0.100000
vertex 11.925001 8.112501 0.100000
vertex 11.905677 8.128358 0.100000
endloop
endfacet
facet normal 0.000000 0.000000 1.000000
outer loop
vertex 11.901903 8.122066 0.100000
vertex 11.901079 8.119757 0.100000
vertex 11.925001 8.112501 0.100000
endloop
endfacet
facet normal 0.000000 0.000000 1.000000
outer loop
vertex 11.901903 8.122066 0.100000
vertex 11.925001 8.112501 0.100000
vertex 11.902955 8.124284 0.100000
endloop
endfacet
facet normal 0.000000 0.000000 1.000000
outer loop
vertex 11.900481 8.117377 0.100000
vertex 11.900124 8.114949 0.100000
vertex 11.925001 8.112501 0.100000
endloop
endfacet
facet normal 0.000002 0.000000 1.000000
outer loop
vertex 11.900481 8.117377 0.100000
vertex 11.925001 8.112501 0.100000
vertex 11.901079 8.119757 0.100000
endloop
endfacet
facet normal 0.000000 0.000000 1.000000
outer loop
vertex 11.900001 8.112500 0.100000
vertex 11.900124 8.110049 0.100000
vertex 11.925001 8.112501 0.100000
endloop
endfacet
facet normal 0.000000 0.000000 1.000000
outer loop
vertex 11.900001 8.112500 0.100000
vertex 11.925001 8.112501 0.100000
vertex 11.900124 8.114949 0.100000
endloop
endfacet
facet normal 0.000000 0.000000 1.000000
outer loop
vertex 11.900481 8.107623 0.100000
vertex 11.901079 8.105244 0.100000
vertex 11.925001 8.112501 0.100000
endloop
endfacet
facet normal 0.000001 0.000000 1.000000
outer loop
vertex 11.900481 8.107623 0.100000
vertex 11.925001 8.112501 0.100000
vertex 11.900124 8.110049 0.100000
endloop
endfacet
facet normal 0.000000 0.000000 1.000000
outer loop
vertex 11.901903 8.102933 0.100000
vertex 11.902954 8.100716 0.100000
vertex 11.925001 8.112501 0.100000
endloop
endfacet
facet normal 0.000000 0.000000 1.000000
outer loop
vertex 11.901903 8.102933 0.100000
vertex 11.925001 8.112501 0.100000
vertex 11.901079 8.105244 0.100000
endloop
endfacet
facet normal 0.000000 0.000000 1.000000
outer loop
vertex 11.904213 8.098611 0.100000
vertex 11.905677 8.096642 0.100000
vertex 11.925001 8.112501 0.100000
endloop
endfacet
facet normal 0.000000 0.000000 1.000000
outer loop
vertex 11.904213 8.098611 0.100000
vertex 11.925001 8.112501 0.100000
vertex 11.902954 8.100716 0.100000
endloop
endfacet
facet normal 0.000000 0.000000 1.000000
outer loop
vertex 11.907323 8.094823 0.100000
vertex 11.909142 8.093177 0.100000
vertex 11.925001 8.112501 0.100000
endloop
endfacet
facet normal -0.000004 0.000000 1.000000
outer loop
vertex 11.907323 8.094823 0.100000
vertex 11.925001 8.112501 0.100000
vertex 11.905677 8.096642 0.100000
endloop
endfacet
facet normal 0.000000 0.000000 1.000000
outer loop
vertex 11.911111 8.091713 0.100000
vertex 11.913218 8.090455 0.100000
vertex 11.925001 8.112501 0.100000
endloop
endfacet
facet normal 0.000000 0.000000 1.000000
outer loop
vertex 11.911111 8.091713 0.100000
vertex 11.925001 8.112501 0.100000
vertex 11.909142 8.093177 0.100000
endloop
endfacet
facet normal 0.000000 0.000000 1.000000
outer loop
vertex 11.915433 8.089403 0.100000
vertex 11.917745 8.088578 0.100000
vertex 11.925001 8.112501 0.100000
endloop
endfacet
facet normal 0.000000 0.000000 1.000000
outer loop
vertex 11.915433 8.089403 0.100000
vertex 11.925001 8.112501 0.100000
vertex 11.913218 8.090455 0.100000
endloop
endfacet
facet normal 0.000008 0.000000 1.000000
outer loop
vertex 11.920123 8.087981 0.100000
vertex 11.922550 8.087623 0.100000
vertex 11.925001 8.112501 0.100000
endloop
endfacet
facet normal 0.000000 0.000000 1.000000
outer loop
vertex 11.920123 8.087981 0.100000
vertex 11.925001 8.112501 0.100000
vertex 11.917745 8.088578 0.100000
endloop
endfacet
facet normal 0.000008 0.000000 1.000000
outer loop
vertex 11.925000 8.087500 0.100000
vertex 11.927450 8.087623 0.100000
vertex 11.925001 8.112501 0.100000
endloop
endfacet
facet normal -0.000008 0.000000 1.000000
outer loop
vertex 11.925000 8.087500 0.100000
vertex 11.925001 8.112501 0.100000
vertex 11.922550 8.087623 0.100000
endloop
endfacet
facet normal 0.000000 0.000000 1.000000
outer loop
vertex 11.929878 8.087981 0.100000
vertex 11.932258 8.088578 0.100000
vertex 11.925001 8.112501 0.100000
endloop
endfacet
facet normal -0.000008 0.000000 1.000000
outer loop
vertex 11.929878 8.087981 0.100000
vertex 11.925001 8.112501 0.100000
vertex 11.927450 8.087623 0.100000
endloop
endfacet
facet normal 0.000000 0.000000 1.000000
outer loop
vertex 11.934567 8.089403 0.100000
vertex 11.936784 8.090454 0.100000
vertex 11.925001 8.112501 0.100000
endloop
endfacet
facet normal 0.000000 0.000000 1.000000
outer loop
vertex 11.934567 8.089403 0.100000
vertex 11.925001 8.112501 0.100000
vertex 11.932258 8.088578 0.100000
endloop
endfacet
facet normal 0.000000 0.000000 1.000000
outer loop
vertex 11.938890 8.091713 0.100000
vertex 11.940858 8.093177 0.100000
vertex 11.925001 8.112501 0.100000
endloop
endfacet
facet normal 0.000000 0.000000 1.000000
outer loop
vertex 11.938890 8.091713 0.100000
vertex 11.925001 8.112501 0.100000
vertex 11.936784 8.090454 0.100000
endloop
endfacet
facet normal 0.000004 0.000000 1.000000
outer loop
vertex 11.942678 8.094823 0.100000
vertex 11.944324 8.096642 0.100000
vertex 11.925001 8.112501 0.100000
endloop
endfacet
facet normal 0.000000 0.000000 1.000000
outer loop
vertex 11.942678 8.094823 0.100000
vertex 11.925001 8.112501 0.100000
vertex 11.940858 8.093177 0.100000
endloop
endfacet
facet normal -0.000004 0.000000 1.000000
outer loop
vertex 11.945787 8.098611 0.100000
vertex 11.947046 8.100717 0.100000
vertex 11.925001 8.112501 0.100000
endloop
endfacet
facet normal 0.000000 0.000000 1.000000
outer loop
vertex 11.945787 8.098611 0.100000
vertex 11.925001 8.112501 0.100000
vertex 11.944324 8.096642 0.100000
endloop
endfacet
facet normal 0.000000 0.000000 1.000000
outer loop
vertex 11.948097 8.102933 0.100000
vertex 11.948921 8.105244 0.100000
vertex 11.925001 8.112501 0.100000
endloop
endfacet
facet normal 0.000004 0.000000 1.000000
outer loop
vertex 11.948097 8.102933 0.100000
vertex 11.925001 8.112501 0.100000
vertex 11.947046 8.100717 0.100000
endloop
endfacet
facet normal -0.000001 0.000000 1.000000
outer loop
vertex 11.949520 8.107623 0.100000
vertex 11.949877 8.110049 0.100000
vertex 11.925001 8.112501 0.100000
endloop
endfacet
facet normal 0.000000 0.000000 1.000000
outer loop
vertex 11.949520 8.107623 0.100000
vertex 11.925001 8.112501 0.100000
vertex 11.948921 8.105244 0.100000
endloop
endfacet
facet normal 0.000000 0.000000 1.000000
outer loop
vertex 11.950000 8.112500 0.100000
vertex 11.949877 8.114949 0.100000
vertex 11.925001 8.112501 0.100000
endloop
endfacet
facet normal 0.000000 0.000000 1.000000
outer loop
vertex 11.950000 8.112500 0.100000
vertex 11.925001 8.112501 0.100000
vertex 11.949877 8.110049 0.100000
endloop
endfacet
facet normal -0.000002 0.000000 1.000000
outer loop
vertex 11.949520 8.117377 0.100000
vertex 11.948921 8.119757 0.100000
vertex 11.925001 8.112501 0.100000
endloop
endfacet
facet normal 0.000000 0.000000 1.000000
outer loop
vertex 11.949520 8.117377 0.100000
vertex 11.925001 8.112501 0.100000
vertex 11.949877 8.114949 0.100000
endloop
endfacet
facet normal 0.000000 0.000000 1.000000
outer loop
vertex 11.948097 8.122066 0.100000
vertex 11.947046 8.124284 0.100000
vertex 11.925001 8.112501 0.100000
endloop
endfacet
facet normal 0.000000 0.000000 1.000000
outer loop
vertex 11.948097 8.122066 0.100000
vertex 11.925001 8.112501 0.100000
vertex 11.948921 8.119757 0.100000
endloop
endfacet
facet normal 0.000000 0.000000 1.000000
outer loop
vertex 11.945787 8.126389 0.100000
vertex 11.944324 8.128358 0.100000
vertex 11.925001 8.112501 0.100000
endloop
endfacet
facet normal 0.000004 0.000000 1.000000
outer loop
vertex 11.945787 8.126389 0.100000
vertex 11.925001 8.112501 0.100000
vertex 11.947046 8.124284 0.100000
endloop
endfacet
facet normal 0.000000 0.000000 1.000000
outer loop
vertex 11.942678 8.130177 0.100000
vertex 11.940858 8.131824 0.100000
vertex 11.925001 8.112501 0.100000
endloop
endfacet
facet normal -0.000004 0.000000 1.000000
outer loop
vertex 11.942678 8.130177 0.100000
vertex 11.925001 8.112501 0.100000
vertex 11.944324 8.128358 0.100000
endloop
endfacet
facet normal 0.000000 0.000000 1.000000
outer loop
vertex 11.938890 8.133286 0.100000
vertex 11.936784 8.134546 0.100000
vertex 11.925001 8.112501 0.100000
endloop
endfacet
facet normal 0.000000 0.000000 1.000000
outer loop
vertex 11.938890 8.133286 0.100000
vertex 11.925001 8.112501 0.100000
vertex 11.940858 8.131824 0.100000
endloop
endfacet
facet normal 0.000008 0.000000 1.000000
outer loop
vertex 11.934567 8.135596 0.100000
vertex 11.932258 8.136420 0.100000
vertex 11.925001 8.112501 0.100000
endloop
endfacet
facet normal -0.000008 0.000000 1.000000
outer loop
vertex 11.934567 8.135596 0.100000
vertex 11.925001 8.112501 0.100000
vertex 11.936784 8.134546 0.100000
endloop
endfacet
facet normal -0.336620 0.941641 0.000000
outer loop
vertex 11.915434 8.135594 0.000000
vertex 11.915434 8.135594 0.050000
vertex 11.917745 8.136420 0.050000
endloop
endfacet
facet normal -0.336620 0.941641 0.000000
outer loop
vertex 11.915434 8.135594 0.000000
vertex 11.917745 8.136420 0.050000
vertex 11.917745 8.136420 0.000000
endloop
endfacet
facet normal -0.336619 0.941641 0.000000
outer loop
vertex 11.915434 8.135594 0.050000
vertex 11.915434 8.135594 0.100000
vertex 11.917745 8.136420 0.100000
endloop
endfacet
facet normal -0.336620 0.941641 0.000000
outer loop
vertex 11.915434 8.135594 0.050000
vertex 11.917745 8.136420 0.100000
vertex 11.917745 8.136420 0.050000
endloop
endfacet
facet normal -0.243359 0.969936 0.000000
outer loop
vertex 11.917745 8.136420 0.050000
vertex 11.917745 8.136420 0.100000
vertex 11.920124 8.137017 0.100000
endloop
endfacet
facet normal -0.243359 0.969936 0.000005
outer loop
vertex 11.917745 8.136420 0.050000
vertex 11.920124 8.137017 0.100000
vertex 11.920123 8.137017 0.050000
endloop
endfacet
facet normal -0.243359 0.969936 0.000000
outer loop
vertex 11.917745 8.136420 0.000000
vertex 11.917745 8.136420 0.050000
vertex 11.920123 8.137017 0.050000
endloop
endfacet
facet normal -0.243359 0.969936 -0.000005
outer loop
vertex 11.917745 8.136420 0.000000
vertex 11.920123 8.137017 0.050000
vertex 11.920124 8.137017 0.000000
endloop
endfacet
facet normal -0.146535 0.989206 0.000000
outer loop
vertex 11.920124 8.137017 0.000000
vertex 11.920123 8.137017 0.050000
vertex 11.922550 8.137377 0.050000
endloop
endfacet
facet normal -0.146676 0.989185 0.000000
outer loop
vertex 11.920124 8.137017 0.000000
vertex 11.922550 8.137377 0.050000
vertex 11.922550 8.137377 0.000000
endloop
endfacet
facet normal -0.146535 0.989206 0.000000
outer loop
vertex 11.920123 8.137017 0.050000
vertex 11.920124 8.137017 0.100000
vertex 11.922550 8.137377 0.100000
endloop
endfacet
facet normal -0.146676 0.989185 0.000000
outer loop
vertex 11.920123 8.137017 0.050000
vertex 11.922550 8.137377 0.100000
vertex 11.922550 8.137377 0.050000
endloop
endfacet
facet normal -0.049404 0.998779 0.000000
outer loop
vertex 11.922550 8.137377 0.050000
vertex 11.922550 8.137377 0.100000
vertex 11.925000 8.137498 0.100000
endloop
endfacet
facet normal -0.049356 0.998781 0.000000
outer loop
vertex 11.922550 8.137377 0.050000
vertex 11.925000 8.137498 0.100000
vertex 11.925000 8.137498 0.050000
endloop
endfacet
facet normal -0.049404 0.998779 0.000000
outer loop
vertex 11.922550 8.137377 0.000000
vertex 11.922550 8.137377 0.050000
vertex 11.925000 8.137498 0.050000
endloop
endfacet
facet normal -0.049356 0.998781 0.000000
outer loop
vertex 11.922550 8.137377 0.000000
vertex 11.925000 8.137498 0.050000
vertex 11.925000 8.137498 0.000000
endloop
endfacet
facet normal 0.000000 0.000000 -1.000000
outer loop
vertex 11.925000 8.137500 0.000000
vertex 11.927450 8.137377 0.000000
vertex 11.925001 8.112501 0.000000
endloop
endfacet
facet normal 0.000000 0.000000 -1.000000
outer loop
vertex 11.925000 8.137500 0.000000
vertex 11.925001 8.112501 0.000000
vertex 11.922550 8.137377 0.000000
endloop
endfacet
facet normal 0.000000 0.000000 -1.000000
outer loop
vertex 11.929878 8.137020 0.000000
vertex 11.932258 8.136420 0.000000
vertex 11.925001 8.112501 0.000000
endloop
endfacet
facet normal 0.000000 0.000000 -1.000000
outer loop
vertex 11.929878 8.137020 0.000000
vertex 11.925001 8.112501 0.000000
vertex 11.927450 8.137377 0.000000
endloop
endfacet
facet normal 0.000000 0.000000 -1.000000
outer loop
vertex 11.934567 8.135596 0.000000
vertex 11.936784 8.134546 0.000000
vertex 11.925001 8.112501 0.000000
endloop
endfacet
facet normal 0.000000 0.000000 -1.000000
outer loop
vertex 11.934567 8.135596 0.000000
vertex 11.925001 8.112501 0.000000
vertex 11.932258 8.136420 0.000000
endloop
endfacet
facet normal 0.000000 0.000000 -1.000000
outer loop
vertex 11.938890 8.133286 0.000000
vertex 11.940858 8.131824 0.000000
vertex 11.925001 8.112501 0.000000
endloop
endfacet
facet normal 0.000000 0.000000 -1.000000
outer loop
vertex 11.938890 8.133286 0.000000
vertex 11.925001 8.112501 0.000000
vertex 11.936784 8.134546 0.000000
endloop
endfacet
facet normal 0.000000 0.000000 -1.000000
outer loop
vertex 11.942678 8.130177 0.000000
vertex 11.944324 8.128358 0.000000
vertex 11.925001 8.112501 0.000000
endloop
endfacet
facet normal 0.000000 0.000000 -1.000000
outer loop
vertex 11.942678 8.130177 0.000000
vertex 11.925001 8.112501 0.000000
vertex 11.940858 8.131824 0.000000
endloop
endfacet
facet normal 0.000000 0.000000 -1.000000
outer loop
vertex 11.945787 8.126389 0.000000
vertex 11.947046 8.124284 0.000000
vertex 11.925001 8.112501 0.000000
endloop
endfacet
facet normal 0.000000 0.000000 -1.000000
outer loop
vertex 11.945787 8.126389 0.000000
vertex 11.925001 8.112501 0.000000
vertex 11.944324 8.128358 0.000000
endloop
endfacet
facet normal 0.000000 0.000000 -1.000000
outer loop
vertex 11.948097 8.122066 0.000000
vertex 11.948921 8.119757 0.000000
vertex 11.925001 8.112501 0.000000
endloop
endfacet
facet normal 0.000000 0.000000 -1.000000
outer loop
vertex 11.948097 8.122066 0.000000
vertex 11.925001 8.112501 0.000000
vertex 11.947046 8.124284 0.000000
endloop
endfacet
facet normal 0.000000 0.000000 -1.000000
outer loop
vertex 11.949520 8.117377 0.000000
vertex 11.949877 8.114949 0.000000
vertex 11.925001 8.112501 0.000000
endloop
endfacet
facet normal 0.000000 0.000000 -1.000000
outer loop
vertex 11.949520 8.117377 0.000000
vertex 11.925001 8.112501 0.000000
vertex 11.948921 8.119757 0.000000
endloop
endfacet
facet normal 0.000000 0.000000 -1.000000
outer loop
vertex 11.950000 8.112500 0.000000
vertex 11.949877 8.110049 0.000000
vertex 11.925001 8.112501 0.000000
endloop
endfacet
facet normal 0.000000 0.000000 -1.000000
outer loop
vertex 11.950000 8.112500 0.000000
vertex 11.925001 8.112501 0.000000
vertex 11.949877 8.114949 0.000000
endloop
endfacet
facet normal 0.000000 0.000000 -1.000000
outer loop
vertex 11.949520 8.107623 0.000000
vertex 11.948921 8.105244 0.000000
vertex 11.925001 8.112501 0.000000
endloop
endfacet
facet normal 0.000000 0.000000 -1.000000
outer loop
vertex 11.949520 8.107623 0.000000
vertex 11.925001 8.112501 0.000000
vertex 11.949877 8.110049 0.000000
endloop
endfacet
facet normal 0.000000 0.000000 -1.000000
outer loop
vertex 11.948097 8.102933 0.000000
vertex 11.947046 8.100716 0.000000
vertex 11.925001 8.112501 0.000000
endloop
endfacet
facet normal 0.000000 0.000000 -1.000000
outer loop
vertex 11.948097 8.102933 0.000000
vertex 11.925001 8.112501 0.000000
vertex 11.948921 8.105244 0.000000
endloop
endfacet
facet normal 0.000000 0.000000 -1.000000
outer loop
vertex 11.945787 8.098611 0.000000
vertex 11.944324 8.096642 0.000000
vertex 11.925001 8.112501 0.000000
endloop
endfacet
facet normal 0.000000 0.000000 -1.000000
outer loop
vertex 11.945787 8.098611 0.000000
vertex 11.925001 8.112501 0.000000
vertex 11.947046 8.100716 0.000000
endloop
endfacet
facet normal 0.000000 0.000000 -1.000000
outer loop
vertex 11.942678 8.094823 0.000000
vertex 11.940858 8.093177 0.000000
vertex 11.925001 8.112501 0.000000
endloop
endfacet
facet normal 0.000000 0.000000 -1.000000
outer loop
vertex 11.942678 8.094823 0.000000
vertex 11.925001 8.112501 0.000000
vertex 11.944324 8.096642 0.000000
endloop
endfacet
facet normal 0.000000 0.000000 -1.000000
outer loop
vertex 11.938890 8.091713 0.000000
vertex 11.936784 8.090454 0.000000
vertex 11.925001 8.112501 0.000000
endloop
endfacet
facet normal 0.000000 0.000000 -1.000000
outer loop
vertex 11.938890 8.091713 0.000000
vertex 11.925001 8.112501 0.000000
vertex 11.940858 8.093177 0.000000
endloop
endfacet
facet normal 0.000000 0.000000 -1.000000
outer loop
vertex 11.934567 8.089403 0.000000
vertex 11.932258 8.088578 0.000000
vertex 11.925001 8.112501 0.000000
endloop
endfacet
facet normal 0.000000 0.000000 -1.000000
outer loop
vertex 11.934567 8.089403 0.000000
vertex 11.925001 8.112501 0.000000
vertex 11.936784 8.090454 0.000000
endloop
endfacet
facet normal 0.000000 0.000000 -1.000000
outer loop
vertex 11.929878 8.087981 0.000000
vertex 11.927450 8.087623 0.000000
vertex 11.925001 8.112501 0.000000
endloop
endfacet
facet normal 0.000000 0.000000 -1.000000
outer loop
vertex 11.929878 8.087981 0.000000
vertex 11.925001 8.112501 0.000000
vertex 11.932258 8.088578 0.000000
endloop
endfacet
facet normal 0.000000 0.000000 -1.000000
outer loop
vertex 11.925000 8.087500 0.000000
vertex 11.922550 8.087623 0.000000
vertex 11.925001 8.112501 0.000000
endloop
endfacet
facet normal 0.000000 0.000000 -1.000000
outer loop
vertex 11.925000 8.087500 0.000000
vertex 11.925001 8.112501 0.000000
vertex 11.927450 8.087623 0.000000
endloop
endfacet
facet normal 0.000000 0.000000 -1.000000
outer loop
vertex 11.920123 8.087981 0.000000
vertex 11.917745 8.088578 0.000000
vertex 11.925001 8.112501 0.000000
endloop
endfacet
facet normal 0.000000 0.000000 -1.000000
outer loop
vertex 11.920123 8.087981 0.000000
vertex 11.925001 8.112501 0.000000
vertex 11.922550 8.087623 0.000000
endloop
endfacet
facet normal 0.000000 0.000000 -1.000000
outer loop
vertex 11.915433 8.089403 0.000000
vertex 11.913217 8.090454 0.000000
vertex 11.925001 8.112501 0.000000
endloop
endfacet
facet normal 0.000000 0.000000 -1.000000
outer loop
vertex 11.915433 8.089403 0.000000
vertex 11.925001 8.112501 0.000000
vertex 11.917745 8.088578 0.000000
endloop
endfacet
facet normal 0.000000 0.000000 -1.000000
outer loop
vertex 11.911111 8.091713 0.000000
vertex 11.909142 8.093177 0.000000
vertex 11.925001 8.112501 0.000000
endloop
endfacet
facet normal 0.000000 0.000000 -1.000000
outer loop
vertex 11.911111 8.091713 0.000000
vertex 11.925001 8.112501 0.000000
vertex 11.913217 8.090454 0.000000
endloop
endfacet
facet normal 0.000000 0.000000 -1.000000
outer loop
vertex 11.907323 8.094823 0.000000
vertex 11.905677 8.096642 0.000000
vertex 11.925001 8.112501 0.000000
endloop
endfacet
facet normal 0.000000 0.000000 -1.000000
outer loop
vertex 11.907323 8.094823 0.000000
vertex 11.925001 8.112501 0.000000
vertex 11.909142 8.093177 0.000000
endloop
endfacet
facet normal 0.000000 0.000000 -1.000000
outer loop
vertex 11.904213 8.098611 0.000000
vertex 11.902954 8.100717 0.000000
vertex 11.925001 8.112501 0.000000
endloop
endfacet
facet normal 0.000000 0.000000 -1.000000
outer loop
vertex 11.904213 8.098611 0.000000
vertex 11.925001 8.112501 0.000000
vertex 11.905677 8.096642 0.000000
endloop
endfacet
facet normal 0.000000 0.000000 -1.000000
outer loop
vertex 11.901903 8.102933 0.000000
vertex 11.901079 8.105244 0.000000
vertex 11.925001 8.112501 0.000000
endloop
endfacet
facet normal 0.000000 0.000000 -1.000000
outer loop
vertex 11.901903 8.102933 0.000000
vertex 11.925001 8.112501 0.000000
vertex 11.902954 8.100717 0.000000
endloop
endfacet
facet normal 0.000000 0.000000 -1.000000
outer loop
vertex 11.900481 8.107623 0.000000
vertex 11.900124 8.110049 0.000000
vertex 11.925001 8.112501 0.000000
endloop
endfacet
facet normal 0.000000 0.000000 -1.000000
outer loop
vertex 11.900481 8.107623 0.000000
vertex 11.925001 8.112501 0.000000
vertex 11.901079 8.105244 0.000000
endloop
endfacet
facet normal 0.000000 0.000000 -1.000000
outer loop
vertex 11.900001 8.112500 0.000000
vertex 11.900124 8.114949 0.000000
vertex 11.925001 8.112501 0.000000
endloop
endfacet
facet normal 0.000000 0.000000 -1.000000
outer loop
vertex 11.900001 8.112500 0.000000
vertex 11.925001 8.112501 0.000000
vertex 11.900124 8.110049 0.000000
endloop
endfacet
facet normal 0.000000 0.000000 -1.000000
outer loop
vertex 11.900481 8.117377 0.000000
vertex 11.901079 8.119757 0.000000
vertex 11.925001 8.112501 0.000000
endloop
endfacet
facet normal 0.000000 0.000000 -1.000000
outer loop
vertex 11.900481 8.117377 0.000000
vertex 11.925001 8.112501 0.000000
vertex 11.900124 8.114949 0.000000
endloop
endfacet
facet normal 0.000000 0.000000 -1.000000
outer loop
vertex 11.901903 8.122066 0.000000
vertex 11.902954 8.124284 0.000000
vertex 11.925001 8.112501 0.000000
endloop
endfacet
facet normal 0.000000 0.000000 -1.000000
outer loop
vertex 11.901903 8.122066 0.000000
vertex 11.925001 8.112501 0.000000
vertex 11.901079 8.119757 0.000000
endloop
endfacet
facet normal 0.000000 0.000000 -1.000000
outer loop
vertex 11.904213 8.126389 0.000000
vertex 11.905677 8.128358 0.000000
vertex 11.925001 8.112501 0.000000
endloop
endfacet
facet normal 0.000000 0.000000 -1.000000
outer loop
vertex 11.904213 8.126389 0.000000
vertex 11.925001 8.112501 0.000000
vertex 11.902954 8.124284 0.000000
endloop
endfacet
facet normal 0.000000 0.000000 -1.000000
outer loop
vertex 11.907323 8.130177 0.000000
vertex 11.909142 8.131824 0.000000
vertex 11.925001 8.112501 0.000000
endloop
endfacet
facet normal 0.000000 0.000000 -1.000000
outer loop
vertex 11.907323 8.130177 0.000000
vertex 11.925001 8.112501 0.000000
vertex 11.905677 8.128358 0.000000
endloop
endfacet
facet normal 0.000000 0.000000 -1.000000
outer loop
vertex 11.911111 8.133286 0.000000
vertex 11.913218 8.134546 0.000000
vertex 11.925001 8.112501 0.000000
endloop
endfacet
facet normal 0.000000 0.000000 -1.000000
outer loop
vertex 11.911111 8.133286 0.000000
vertex 11.925001 8.112501 0.000000
vertex 11.909142 8.131824 0.000000
endloop
endfacet
facet normal 0.000000 0.000000 -1.000000
outer loop
vertex 11.915433 8.135596 0.000000
vertex 11.917745 8.136420 0.000000
vertex 11.925001 8.112501 0.000000
endloop
endfacet
facet normal 0.000000 0.000000 -1.000000
outer loop
vertex 11.915433 8.135596 0.000000
vertex 11.925001 8.112501 0.000000
vertex 11.913218 8.134546 0.000000
endloop
endfacet
facet normal 0.000000 0.000000 -1.000000
outer loop
vertex 11.920123 8.137020 0.000000
vertex 11.922550 8.137377 0.000000
vertex 11.925001 8.112501 0.000000
endloop
endfacet
facet normal 0.000000 0.000000 -1.000000
outer loop
vertex 11.920123 8.137020 0.000000
vertex 11.925001 8.112501 0.000000
vertex 11.917745 8.136420 0.000000
endloop
endfacet
endsolid Exported from Blender-2.82 (sub 7)
