solid Exported from Blender-2.82 (sub 7)
facet normal 0.049356 0.998781 0.000000
outer loop
vertex 8.461940 8.216338 0.000000
vertex 8.461940 8.216338 0.050000
vertex 8.464390 8.216217 0.050000
endloop
endfacet
facet normal 0.049380 0.998780 0.000000
outer loop
vertex 8.461940 8.216338 0.000000
vertex 8.464390 8.216217 0.050000
vertex 8.464390 8.216217 0.000000
endloop
endfacet
facet normal 0.049356 0.998781 0.000000
outer loop
vertex 8.461940 8.216338 0.050000
vertex 8.461940 8.216338 0.100000
vertex 8.464390 8.216217 0.100000
endloop
endfacet
facet normal 0.049380 0.998780 0.000000
outer loop
vertex 8.461940 8.216338 0.050000
vertex 8.464390 8.216217 0.100000
vertex 8.464390 8.216217 0.050000
endloop
endfacet
facet normal 0.146605 0.989195 0.000000
outer loop
vertex 8.464390 8.216217 0.050000
vertex 8.464390 8.216217 0.100000
vertex 8.466817 8.215858 0.100000
endloop
endfacet
facet normal 0.146464 0.989216 0.000000
outer loop
vertex 8.464390 8.216217 0.050000
vertex 8.466817 8.215858 0.100000
vertex 8.466817 8.215858 0.050000
endloop
endfacet
facet normal 0.146605 0.989195 0.000000
outer loop
vertex 8.464390 8.216217 0.000000
vertex 8.464390 8.216217 0.050000
vertex 8.466817 8.215858 0.050000
endloop
endfacet
facet normal 0.146464 0.989216 0.000000
outer loop
vertex 8.464390 8.216217 0.000000
vertex 8.466817 8.215858 0.050000
vertex 8.466817 8.215858 0.000000
endloop
endfacet
facet normal 0.243474 0.969908 0.000000
outer loop
vertex 8.466817 8.215858 0.000000
vertex 8.466817 8.215858 0.050000
vertex 8.469196 8.215261 0.050000
endloop
endfacet
facet normal 0.243244 0.969965 0.000000
outer loop
vertex 8.466817 8.215858 0.000000
vertex 8.469196 8.215261 0.050000
vertex 8.469196 8.215261 0.000000
endloop
endfacet
facet normal 0.243474 0.969908 0.000000
outer loop
vertex 8.466817 8.215858 0.050000
vertex 8.466817 8.215858 0.100000
vertex 8.469196 8.215261 0.100000
endloop
endfacet
facet normal 0.243244 0.969965 0.000000
outer loop
vertex 8.466817 8.215858 0.050000
vertex 8.469196 8.215261 0.100000
vertex 8.469196 8.215261 0.050000
endloop
endfacet
facet normal 0.336928 0.941531 0.000000
outer loop
vertex 8.469196 8.215261 0.050000
vertex 8.469196 8.215261 0.100000
vertex 8.471505 8.214435 0.100000
endloop
endfacet
facet normal 0.336774 0.941586 0.000000
outer loop
vertex 8.469196 8.215261 0.050000
vertex 8.471505 8.214435 0.100000
vertex 8.471505 8.214435 0.050000
endloop
endfacet
facet normal 0.336928 0.941531 0.000000
outer loop
vertex 8.469196 8.215261 0.000000
vertex 8.469196 8.215261 0.050000
vertex 8.471505 8.214435 0.050000
endloop
endfacet
facet normal 0.336774 0.941586 0.000000
outer loop
vertex 8.469196 8.215261 0.000000
vertex 8.471505 8.214435 0.050000
vertex 8.471505 8.214435 0.000000
endloop
endfacet
facet normal 0.427163 0.904175 0.000000
outer loop
vertex 8.471505 8.214435 0.000000
vertex 8.471505 8.214435 0.050000
vertex 8.473724 8.213387 0.050000
endloop
endfacet
facet normal 0.426788 0.904352 0.000000
outer loop
vertex 8.471505 8.214435 0.000000
vertex 8.473724 8.213387 0.050000
vertex 8.473724 8.213387 0.000000
endloop
endfacet
facet normal 0.427163 0.904175 0.000000
outer loop
vertex 8.471505 8.214435 0.050000
vertex 8.471505 8.214435 0.100000
vertex 8.473724 8.213387 0.100000
endloop
endfacet
facet normal 0.426788 0.904352 0.000000
outer loop
vertex 8.471505 8.214435 0.050000
vertex 8.473724 8.213387 0.100000
vertex 8.473724 8.213387 0.050000
endloop
endfacet
facet normal 0.514996 0.857192 0.000000
outer loop
vertex 8.473724 8.213387 0.050000
vertex 8.473724 8.213387 0.100000
vertex 8.475826 8.212124 0.100000
endloop
endfacet
facet normal 0.514996 0.857192 0.000000
outer loop
vertex 8.473724 8.213387 0.050000
vertex 8.475826 8.212124 0.100000
vertex 8.475826 8.212124 0.050000
endloop
endfacet
facet normal 0.514996 0.857192 0.000000
outer loop
vertex 8.473724 8.213387 0.000000
vertex 8.473724 8.213387 0.050000
vertex 8.475826 8.212124 0.050000
endloop
endfacet
facet normal 0.514996 0.857192 0.000000
outer loop
vertex 8.473724 8.213387 0.000000
vertex 8.475826 8.212124 0.050000
vertex 8.475826 8.212124 0.000000
endloop
endfacet
facet normal 0.595358 0.803461 0.000000
outer loop
vertex 8.475826 8.212124 0.000000
vertex 8.475826 8.212124 0.050000
vertex 8.477798 8.210663 0.050000
endloop
endfacet
facet normal 0.595590 0.803289 0.000000
outer loop
vertex 8.475826 8.212124 0.000000
vertex 8.477798 8.210663 0.050000
vertex 8.477798 8.210663 0.000000
endloop
endfacet
facet normal 0.595358 0.803461 0.000000
outer loop
vertex 8.475826 8.212124 0.050000
vertex 8.475826 8.212124 0.100000
vertex 8.477798 8.210663 0.100000
endloop
endfacet
facet normal 0.595590 0.803289 0.000000
outer loop
vertex 8.475826 8.212124 0.050000
vertex 8.477798 8.210663 0.100000
vertex 8.477798 8.210663 0.050000
endloop
endfacet
facet normal 0.671618 0.740898 0.000000
outer loop
vertex 8.477798 8.210663 0.050000
vertex 8.477798 8.210663 0.100000
vertex 8.479614 8.209015 0.100000
endloop
endfacet
facet normal 0.672102 0.740459 0.000000
outer loop
vertex 8.477798 8.210663 0.050000
vertex 8.479614 8.209015 0.100000
vertex 8.479614 8.209015 0.050000
endloop
endfacet
facet normal 0.671618 0.740898 0.000000
outer loop
vertex 8.477798 8.210663 0.000000
vertex 8.477798 8.210663 0.050000
vertex 8.479614 8.209015 0.050000
endloop
endfacet
facet normal 0.672101 0.740459 0.000000
outer loop
vertex 8.477798 8.210663 0.000000
vertex 8.479614 8.209015 0.050000
vertex 8.479614 8.209015 0.000000
endloop
endfacet
facet normal 0.740533 0.672020 0.000000
outer loop
vertex 8.479614 8.209015 0.000000
vertex 8.479614 8.209015 0.050000
vertex 8.481263 8.207198 0.050000
endloop
endfacet
facet normal 0.740292 0.672286 0.000000
outer loop
vertex 8.479614 8.209015 0.000000
vertex 8.481263 8.207198 0.050000
vertex 8.481263 8.207198 0.000000
endloop
endfacet
facet normal 0.740533 0.672020 0.000000
outer loop
vertex 8.479614 8.209015 0.050000
vertex 8.479614 8.209015 0.100000
vertex 8.481263 8.207198 0.100000
endloop
endfacet
facet normal 0.740292 0.672286 0.000000
outer loop
vertex 8.479614 8.209015 0.050000
vertex 8.481263 8.207198 0.100000
vertex 8.481263 8.207198 0.050000
endloop
endfacet
facet normal 0.803764 0.594949 0.000000
outer loop
vertex 8.481263 8.207198 0.050000
vertex 8.481263 8.207198 0.100000
vertex 8.482723 8.205227 0.100000
endloop
endfacet
facet normal 0.803531 0.595262 0.000000
outer loop
vertex 8.481263 8.207198 0.050000
vertex 8.482723 8.205227 0.100000
vertex 8.482723 8.205227 0.050000
endloop
endfacet
facet normal 0.803764 0.594949 0.000000
outer loop
vertex 8.481263 8.207198 0.000000
vertex 8.481263 8.207198 0.050000
vertex 8.482723 8.205227 0.050000
endloop
endfacet
facet normal 0.803531 0.595262 0.000000
outer loop
vertex 8.481263 8.207198 0.000000
vertex 8.482723 8.205227 0.050000
vertex 8.482723 8.205227 0.000000
endloop
endfacet
facet normal 0.857261 0.514882 0.000000
outer loop
vertex 8.482723 8.205227 0.000000
vertex 8.482723 8.205227 0.050000
vertex 8.483986 8.203125 0.050000
endloop
endfacet
facet normal 0.857047 0.515239 0.000000
outer loop
vertex 8.482723 8.205227 0.000000
vertex 8.483986 8.203125 0.050000
vertex 8.483986 8.203125 0.000000
endloop
endfacet
facet normal 0.857261 0.514882 0.000000
outer loop
vertex 8.482723 8.205227 0.050000
vertex 8.482723 8.205227 0.100000
vertex 8.483986 8.203125 0.100000
endloop
endfacet
facet normal 0.857046 0.515239 0.000000
outer loop
vertex 8.482723 8.205227 0.050000
vertex 8.483986 8.203125 0.100000
vertex 8.483986 8.203125 0.050000
endloop
endfacet
facet normal 0.904078 0.427368 0.000000
outer loop
vertex 8.483986 8.203125 0.050000
vertex 8.483986 8.203125 0.100000
vertex 8.485035 8.200906 0.100000
endloop
endfacet
facet normal 0.904078 0.427368 0.000000
outer loop
vertex 8.483986 8.203125 0.050000
vertex 8.485035 8.200906 0.100000
vertex 8.485035 8.200906 0.050000
endloop
endfacet
facet normal 0.904078 0.427368 0.000000
outer loop
vertex 8.483986 8.203125 0.000000
vertex 8.483986 8.203125 0.050000
vertex 8.485035 8.200906 0.050000
endloop
endfacet
facet normal 0.904078 0.427368 0.000000
outer loop
vertex 8.483986 8.203125 0.000000
vertex 8.485035 8.200906 0.050000
vertex 8.485035 8.200906 0.000000
endloop
endfacet
facet normal 0.941698 0.336460 0.000000
outer loop
vertex 8.485035 8.200906 0.000000
vertex 8.485035 8.200906 0.050000
vertex 8.485861 8.198597 0.050000
endloop
endfacet
facet normal 0.941544 0.336891 0.000000
outer loop
vertex 8.485035 8.200906 0.000000
vertex 8.485861 8.198597 0.050000
vertex 8.485861 8.198597 0.000000
endloop
endfacet
facet normal 0.941698 0.336460 0.000000
outer loop
vertex 8.485035 8.200906 0.050000
vertex 8.485035 8.200906 0.100000
vertex 8.485861 8.198597 0.100000
endloop
endfacet
facet normal 0.941544 0.336891 0.000000
outer loop
vertex 8.485035 8.200906 0.050000
vertex 8.485861 8.198597 0.100000
vertex 8.485861 8.198597 0.050000
endloop
endfacet
facet normal 0.969913 0.243450 0.000000
outer loop
vertex 8.485861 8.198597 0.050000
vertex 8.485861 8.198597 0.100000
vertex 8.486458 8.196218 0.100000
endloop
endfacet
facet normal 0.969913 0.243450 0.000000
outer loop
vertex 8.485861 8.198597 0.050000
vertex 8.486458 8.196218 0.100000
vertex 8.486458 8.196218 0.050000
endloop
endfacet
facet normal 0.969913 0.243450 0.000000
outer loop
vertex 8.485861 8.198597 0.000000
vertex 8.485861 8.198597 0.050000
vertex 8.486458 8.196218 0.050000
endloop
endfacet
facet normal 0.969913 0.243450 0.000000
outer loop
vertex 8.485861 8.198597 0.000000
vertex 8.486458 8.196218 0.050000
vertex 8.486458 8.196218 0.000000
endloop
endfacet
facet normal 0.989186 0.146668 0.000000
outer loop
vertex 8.486458 8.196218 0.000000
vertex 8.486458 8.196218 0.050000
vertex 8.486818 8.193789 0.050000
endloop
endfacet
facet normal 0.989115 0.147143 0.000000
outer loop
vertex 8.486458 8.196218 0.000000
vertex 8.486818 8.193789 0.050000
vertex 8.486818 8.193789 0.000000
endloop
endfacet
facet normal 0.989186 0.146668 0.000000
outer loop
vertex 8.486458 8.196218 0.050000
vertex 8.486458 8.196218 0.100000
vertex 8.486818 8.193789 0.100000
endloop
endfacet
facet normal 0.989115 0.147143 0.000000
outer loop
vertex 8.486458 8.196218 0.050000
vertex 8.486818 8.193789 0.100000
vertex 8.486818 8.193789 0.050000
endloop
endfacet
facet normal 0.998841 0.048133 0.000000
outer loop
vertex 8.486818 8.193789 0.050000
vertex 8.486818 8.193789 0.100000
vertex 8.486938 8.191340 0.100000
endloop
endfacet
facet normal 0.998794 0.049103 0.000000
outer loop
vertex 8.486818 8.193789 0.050000
vertex 8.486938 8.191340 0.100000
vertex 8.486938 8.191340 0.050000
endloop
endfacet
facet normal 0.998841 0.048133 0.000000
outer loop
vertex 8.486818 8.193789 0.000000
vertex 8.486818 8.193789 0.050000
vertex 8.486938 8.191340 0.050000
endloop
endfacet
facet normal 0.998794 0.049103 0.000000
outer loop
vertex 8.486818 8.193789 0.000000
vertex 8.486938 8.191340 0.050000
vertex 8.486938 8.191340 0.000000
endloop
endfacet
facet normal 0.998795 -0.049084 0.000000
outer loop
vertex 8.486938 8.191340 0.000000
vertex 8.486938 8.191340 0.050000
vertex 8.486818 8.188890 0.050000
endloop
endfacet
facet normal 0.998842 -0.048115 0.000000
outer loop
vertex 8.486938 8.191340 0.000000
vertex 8.486818 8.188890 0.050000
vertex 8.486818 8.188890 0.000000
endloop
endfacet
facet normal 0.998795 -0.049084 0.000000
outer loop
vertex 8.486938 8.191340 0.050000
vertex 8.486938 8.191340 0.100000
vertex 8.486818 8.188890 0.100000
endloop
endfacet
facet normal 0.998842 -0.048115 0.000000
outer loop
vertex 8.486938 8.191340 0.050000
vertex 8.486818 8.188890 0.100000
vertex 8.486818 8.188890 0.050000
endloop
endfacet
facet normal 0.989098 -0.147257 0.000000
outer loop
vertex 8.486818 8.188890 0.050000
vertex 8.486818 8.188890 0.100000
vertex 8.486458 8.186464 0.100000
endloop
endfacet
facet normal 0.989169 -0.146781 0.000000
outer loop
vertex 8.486818 8.188890 0.050000
vertex 8.486458 8.186464 0.100000
vertex 8.486458 8.186464 0.050000
endloop
endfacet
facet normal 0.989098 -0.147257 0.000000
outer loop
vertex 8.486818 8.188890 0.000000
vertex 8.486818 8.188890 0.050000
vertex 8.486458 8.186464 0.050000
endloop
endfacet
facet normal 0.989169 -0.146781 0.000000
outer loop
vertex 8.486818 8.188890 0.000000
vertex 8.486458 8.186464 0.050000
vertex 8.486458 8.186464 0.000000
endloop
endfacet
facet normal 0.969936 -0.243358 0.000000
outer loop
vertex 8.486458 8.186464 0.000000
vertex 8.486458 8.186464 0.050000
vertex 8.485861 8.184084 0.050000
endloop
endfacet
facet normal 0.969936 -0.243358 0.000000
outer loop
vertex 8.486458 8.186464 0.000000
vertex 8.485861 8.184084 0.050000
vertex 8.485861 8.184084 0.000000
endloop
endfacet
facet normal 0.969936 -0.243358 0.000000
outer loop
vertex 8.486458 8.186464 0.050000
vertex 8.486458 8.186464 0.100000
vertex 8.485861 8.184084 0.100000
endloop
endfacet
facet normal 0.969936 -0.243358 0.000000
outer loop
vertex 8.486458 8.186464 0.050000
vertex 8.485861 8.184084 0.100000
vertex 8.485861 8.184084 0.050000
endloop
endfacet
facet normal 0.941588 -0.336767 0.000000
outer loop
vertex 8.485861 8.184084 0.050000
vertex 8.485861 8.184084 0.100000
vertex 8.485035 8.181774 0.100000
endloop
endfacet
facet normal 0.941742 -0.336336 0.000000
outer loop
vertex 8.485861 8.184084 0.050000
vertex 8.485035 8.181774 0.100000
vertex 8.485035 8.181774 0.050000
endloop
endfacet
facet normal 0.941588 -0.336767 0.000000
outer loop
vertex 8.485861 8.184084 0.000000
vertex 8.485861 8.184084 0.050000
vertex 8.485035 8.181774 0.050000
endloop
endfacet
facet normal 0.941742 -0.336336 0.000000
outer loop
vertex 8.485861 8.184084 0.000000
vertex 8.485035 8.181774 0.050000
vertex 8.485035 8.181774 0.000000
endloop
endfacet
facet normal 0.903936 -0.427668 0.000000
outer loop
vertex 8.485035 8.181774 0.000000
vertex 8.485035 8.181774 0.050000
vertex 8.483986 8.179557 0.050000
endloop
endfacet
facet normal 0.903936 -0.427668 0.000000
outer loop
vertex 8.485035 8.181774 0.000000
vertex 8.483986 8.179557 0.050000
vertex 8.483986 8.179557 0.000000
endloop
endfacet
facet normal 0.903936 -0.427668 0.000000
outer loop
vertex 8.485035 8.181774 0.050000
vertex 8.485035 8.181774 0.100000
vertex 8.483986 8.179557 0.100000
endloop
endfacet
facet normal 0.903936 -0.427668 0.000000
outer loop
vertex 8.485035 8.181774 0.050000
vertex 8.483986 8.179557 0.100000
vertex 8.483986 8.179557 0.050000
endloop
endfacet
facet normal 0.857356 -0.514724 0.000000
outer loop
vertex 8.483986 8.179557 0.050000
vertex 8.483986 8.179557 0.100000
vertex 8.482723 8.177452 0.100000
endloop
endfacet
facet normal 0.857570 -0.514367 0.000000
outer loop
vertex 8.483986 8.179557 0.050000
vertex 8.482723 8.177452 0.100000
vertex 8.482723 8.177452 0.050000
endloop
endfacet
facet normal 0.857356 -0.514724 0.000000
outer loop
vertex 8.483986 8.179557 0.000000
vertex 8.483986 8.179557 0.050000
vertex 8.482723 8.177452 0.050000
endloop
endfacet
facet normal 0.857570 -0.514367 0.000000
outer loop
vertex 8.483986 8.179557 0.000000
vertex 8.482723 8.177452 0.050000
vertex 8.482723 8.177452 0.000000
endloop
endfacet
facet normal 0.803256 -0.595634 0.000000
outer loop
vertex 8.482723 8.177452 0.000000
vertex 8.482723 8.177452 0.050000
vertex 8.481263 8.175483 0.050000
endloop
endfacet
facet normal 0.803488 -0.595321 0.000000
outer loop
vertex 8.482723 8.177452 0.000000
vertex 8.481263 8.175483 0.050000
vertex 8.481263 8.175483 0.000000
endloop
endfacet
facet normal 0.803256 -0.595634 0.000000
outer loop
vertex 8.482723 8.177452 0.050000
vertex 8.482723 8.177452 0.100000
vertex 8.481263 8.175483 0.100000
endloop
endfacet
facet normal 0.803488 -0.595321 0.000000
outer loop
vertex 8.482723 8.177452 0.050000
vertex 8.481263 8.175483 0.100000
vertex 8.481263 8.175483 0.050000
endloop
endfacet
facet normal 0.740643 -0.671899 0.000000
outer loop
vertex 8.481263 8.175483 0.050000
vertex 8.481263 8.175483 0.100000
vertex 8.479614 8.173664 0.100000
endloop
endfacet
facet normal 0.740884 -0.671633 0.000000
outer loop
vertex 8.481263 8.175483 0.050000
vertex 8.479614 8.173664 0.100000
vertex 8.479614 8.173664 0.050000
endloop
endfacet
facet normal 0.740643 -0.671899 0.000000
outer loop
vertex 8.481263 8.175483 0.000000
vertex 8.481263 8.175483 0.050000
vertex 8.479614 8.173664 0.050000
endloop
endfacet
facet normal 0.740884 -0.671633 0.000000
outer loop
vertex 8.481263 8.175483 0.000000
vertex 8.479614 8.173664 0.050000
vertex 8.479614 8.173664 0.000000
endloop
endfacet
facet normal 0.671888 -0.740653 0.000000
outer loop
vertex 8.479614 8.173664 0.000000
vertex 8.479614 8.173664 0.050000
vertex 8.477798 8.172017 0.050000
endloop
endfacet
facet normal 0.671404 -0.741091 0.000000
outer loop
vertex 8.479614 8.173664 0.000000
vertex 8.477798 8.172017 0.050000
vertex 8.477798 8.172017 0.000000
endloop
endfacet
facet normal 0.671888 -0.740653 0.000000
outer loop
vertex 8.479614 8.173664 0.050000
vertex 8.479614 8.173664 0.100000
vertex 8.477798 8.172017 0.100000
endloop
endfacet
facet normal 0.671404 -0.741091 0.000000
outer loop
vertex 8.479614 8.173664 0.050000
vertex 8.477798 8.172017 0.100000
vertex 8.477798 8.172017 0.050000
endloop
endfacet
facet normal 0.595590 -0.803289 0.000000
outer loop
vertex 8.477798 8.172017 0.050000
vertex 8.477798 8.172017 0.100000
vertex 8.475826 8.170556 0.100000
endloop
endfacet
facet normal 0.595358 -0.803461 0.000000
outer loop
vertex 8.477798 8.172017 0.050000
vertex 8.475826 8.170556 0.100000
vertex 8.475826 8.170556 0.050000
endloop
endfacet
facet normal 0.595590 -0.803289 0.000000
outer loop
vertex 8.477798 8.172017 0.000000
vertex 8.477798 8.172017 0.050000
vertex 8.475826 8.170556 0.050000
endloop
endfacet
facet normal 0.595358 -0.803461 0.000000
outer loop
vertex 8.477798 8.172017 0.000000
vertex 8.475826 8.170556 0.050000
vertex 8.475826 8.170556 0.000000
endloop
endfacet
facet normal 0.514710 -0.857364 0.000000
outer loop
vertex 8.475826 8.170556 0.000000
vertex 8.475826 8.170556 0.050000
vertex 8.473724 8.169294 0.050000
endloop
endfacet
facet normal 0.514424 -0.857536 0.000000
outer loop
vertex 8.475826 8.170556 0.000000
vertex 8.473724 8.169294 0.050000
vertex 8.473724 8.169295 0.000000
endloop
endfacet
facet normal 0.514424 -0.857536 0.000000
outer loop
vertex 8.475826 8.170556 0.050000
vertex 8.475826 8.170556 0.100000
vertex 8.473724 8.169295 0.100000
endloop
endfacet
facet normal 0.514710 -0.857364 0.000000
outer loop
vertex 8.475826 8.170556 0.050000
vertex 8.473724 8.169295 0.100000
vertex 8.473724 8.169294 0.050000
endloop
endfacet
facet normal 0.427423 -0.904052 0.000000
outer loop
vertex 8.473724 8.169294 0.050000
vertex 8.473724 8.169295 0.100000
vertex 8.471505 8.168245 0.100000
endloop
endfacet
facet normal 0.427481 -0.904025 0.000000
outer loop
vertex 8.473724 8.169294 0.050000
vertex 8.471505 8.168245 0.100000
vertex 8.471505 8.168245 0.050000
endloop
endfacet
facet normal 0.427105 -0.904202 0.000000
outer loop
vertex 8.473724 8.169295 0.000000
vertex 8.473724 8.169294 0.050000
vertex 8.471505 8.168245 0.050000
endloop
endfacet
facet normal 0.427798 -0.903874 0.000000
outer loop
vertex 8.473724 8.169295 0.000000
vertex 8.471505 8.168245 0.050000
vertex 8.471505 8.168245 0.000000
endloop
endfacet
facet normal 0.336774 -0.941586 0.000000
outer loop
vertex 8.471505 8.168245 0.000000
vertex 8.471505 8.168245 0.050000
vertex 8.469196 8.167419 0.050000
endloop
endfacet
facet normal 0.336928 -0.941531 0.000000
outer loop
vertex 8.471505 8.168245 0.000000
vertex 8.469196 8.167419 0.050000
vertex 8.469196 8.167419 0.000000
endloop
endfacet
facet normal 0.336774 -0.941586 0.000000
outer loop
vertex 8.471505 8.168245 0.050000
vertex 8.471505 8.168245 0.100000
vertex 8.469196 8.167419 0.100000
endloop
endfacet
facet normal 0.336928 -0.941531 0.000000
outer loop
vertex 8.471505 8.168245 0.050000
vertex 8.469196 8.167419 0.100000
vertex 8.469196 8.167419 0.050000
endloop
endfacet
facet normal 0.242878 -0.970057 0.000000
outer loop
vertex 8.469196 8.167419 0.050000
vertex 8.469196 8.167419 0.100000
vertex 8.466817 8.166823 0.100000
endloop
endfacet
facet normal 0.243108 -0.969999 0.000000
outer loop
vertex 8.469196 8.167419 0.050000
vertex 8.466817 8.166823 0.100000
vertex 8.466817 8.166823 0.050000
endloop
endfacet
facet normal 0.242878 -0.970057 0.000000
outer loop
vertex 8.469196 8.167419 0.000000
vertex 8.469196 8.167419 0.050000
vertex 8.466817 8.166823 0.050000
endloop
endfacet
facet normal 0.243108 -0.969999 0.000000
outer loop
vertex 8.469196 8.167419 0.000000
vertex 8.466817 8.166823 0.050000
vertex 8.466817 8.166823 0.000000
endloop
endfacet
facet normal 0.146464 -0.989216 0.000000
outer loop
vertex 8.466817 8.166823 0.000000
vertex 8.466817 8.166823 0.050000
vertex 8.464390 8.166464 0.050000
endloop
endfacet
facet normal 0.146605 -0.989195 0.000000
outer loop
vertex 8.466817 8.166823 0.000000
vertex 8.464390 8.166464 0.050000
vertex 8.464390 8.166464 0.000000
endloop
endfacet
facet normal 0.146464 -0.989216 0.000000
outer loop
vertex 8.466817 8.166823 0.050000
vertex 8.466817 8.166823 0.100000
vertex 8.464390 8.166464 0.100000
endloop
endfacet
facet normal 0.146605 -0.989195 0.000000
outer loop
vertex 8.466817 8.166823 0.050000
vertex 8.464390 8.166464 0.100000
vertex 8.464390 8.166464 0.050000
endloop
endfacet
facet normal 0.048992 -0.998799 0.000000
outer loop
vertex 8.464390 8.166464 0.050000
vertex 8.464390 8.166464 0.100000
vertex 8.461940 8.166344 0.100000
endloop
endfacet
facet normal 0.048968 -0.998800 0.000000
outer loop
vertex 8.464390 8.166464 0.050000
vertex 8.461940 8.166344 0.100000
vertex 8.461940 8.166344 0.050000
endloop
endfacet
facet normal 0.048992 -0.998799 0.000000
outer loop
vertex 8.464390 8.166464 0.000000
vertex 8.464390 8.166464 0.050000
vertex 8.461940 8.166344 0.050000
endloop
endfacet
facet normal 0.048968 -0.998800 0.000000
outer loop
vertex 8.464390 8.166464 0.000000
vertex 8.461940 8.166344 0.050000
vertex 8.461940 8.166344 0.000000
endloop
endfacet
facet normal -0.048968 -0.998800 0.000000
outer loop
vertex 8.461940 8.166344 0.000000
vertex 8.461940 8.166344 0.050000
vertex 8.459490 8.166464 0.050000
endloop
endfacet
facet normal -0.049016 -0.998798 0.000000
outer loop
vertex 8.461940 8.166344 0.000000
vertex 8.459490 8.166464 0.050000
vertex 8.459490 8.166464 0.000000
endloop
endfacet
facet normal -0.048968 -0.998800 0.000000
outer loop
vertex 8.461940 8.166344 0.050000
vertex 8.461940 8.166344 0.100000
vertex 8.459490 8.166464 0.100000
endloop
endfacet
facet normal -0.049016 -0.998798 0.000000
outer loop
vertex 8.461940 8.166344 0.050000
vertex 8.459490 8.166464 0.100000
vertex 8.459490 8.166464 0.050000
endloop
endfacet
facet normal -0.146605 -0.989195 0.000000
outer loop
vertex 8.459490 8.166464 0.050000
vertex 8.459490 8.166464 0.100000
vertex 8.457064 8.166823 0.100000
endloop
endfacet
facet normal -0.146605 -0.989195 0.000000
outer loop
vertex 8.459490 8.166464 0.050000
vertex 8.457064 8.166823 0.100000
vertex 8.457064 8.166823 0.050000
endloop
endfacet
facet normal -0.146605 -0.989195 0.000000
outer loop
vertex 8.459490 8.166464 0.000000
vertex 8.459490 8.166464 0.050000
vertex 8.457064 8.166823 0.050000
endloop
endfacet
facet normal -0.146605 -0.989195 0.000000
outer loop
vertex 8.459490 8.166464 0.000000
vertex 8.457064 8.166823 0.050000
vertex 8.457064 8.166823 0.000000
endloop
endfacet
facet normal -0.242878 -0.970057 0.000000
outer loop
vertex 8.457064 8.166823 0.000000
vertex 8.457064 8.166823 0.050000
vertex 8.454683 8.167419 0.050000
endloop
endfacet
facet normal -0.242878 -0.970057 0.000000
outer loop
vertex 8.457064 8.166823 0.000000
vertex 8.454683 8.167419 0.050000
vertex 8.454683 8.167419 0.000000
endloop
endfacet
facet normal -0.242878 -0.970057 0.000000
outer loop
vertex 8.457064 8.166823 0.050000
vertex 8.457064 8.166823 0.100000
vertex 8.454683 8.167419 0.100000
endloop
endfacet
facet normal -0.242878 -0.970057 0.000000
outer loop
vertex 8.457064 8.166823 0.050000
vertex 8.454683 8.167419 0.100000
vertex 8.454683 8.167419 0.050000
endloop
endfacet
facet normal -0.336964 -0.941518 0.000000
outer loop
vertex 8.454683 8.167419 0.050000
vertex 8.454683 8.167419 0.100000
vertex 8.452374 8.168246 0.100000
endloop
endfacet
facet normal -0.337118 -0.941462 0.000000
outer loop
vertex 8.454683 8.167419 0.050000
vertex 8.452374 8.168246 0.100000
vertex 8.452374 8.168246 0.050000
endloop
endfacet
facet normal -0.336964 -0.941518 0.000000
outer loop
vertex 8.454683 8.167419 0.000000
vertex 8.454683 8.167419 0.050000
vertex 8.452374 8.168246 0.050000
endloop
endfacet
facet normal -0.337118 -0.941462 0.000000
outer loop
vertex 8.454683 8.167419 0.000000
vertex 8.452374 8.168246 0.050000
vertex 8.452374 8.168246 0.000000
endloop
endfacet
facet normal -0.427539 -0.903997 0.000000
outer loop
vertex 8.452374 8.168246 0.000000
vertex 8.452374 8.168246 0.050000
vertex 8.450156 8.169294 0.050000
endloop
endfacet
facet normal -0.427481 -0.904025 -0.000030
outer loop
vertex 8.452374 8.168246 0.000000
vertex 8.450156 8.169294 0.050000
vertex 8.450156 8.169295 0.000000
endloop
endfacet
facet normal -0.427856 -0.903847 0.000000
outer loop
vertex 8.452374 8.168246 0.050000
vertex 8.452374 8.168246 0.100000
vertex 8.450156 8.169295 0.100000
endloop
endfacet
facet normal -0.427163 -0.904175 0.000030
outer loop
vertex 8.452374 8.168246 0.050000
vertex 8.450156 8.169295 0.100000
vertex 8.450156 8.169294 0.050000
endloop
endfacet
facet normal -0.513995 -0.857793 0.000000
outer loop
vertex 8.450156 8.169294 0.050000
vertex 8.450156 8.169295 0.100000
vertex 8.448051 8.170556 0.100000
endloop
endfacet
facet normal -0.514067 -0.857750 0.000000
outer loop
vertex 8.450156 8.169294 0.050000
vertex 8.448051 8.170556 0.100000
vertex 8.448051 8.170556 0.050000
endloop
endfacet
facet normal -0.514281 -0.857621 0.000000
outer loop
vertex 8.450156 8.169295 0.000000
vertex 8.450156 8.169294 0.050000
vertex 8.448051 8.170556 0.050000
endloop
endfacet
facet normal -0.513781 -0.857921 0.000000
outer loop
vertex 8.450156 8.169295 0.000000
vertex 8.448051 8.170556 0.050000
vertex 8.448051 8.170556 0.000000
endloop
endfacet
facet normal -0.595823 -0.803116 0.000000
outer loop
vertex 8.448051 8.170556 0.000000
vertex 8.448051 8.170556 0.050000
vertex 8.446082 8.172017 0.050000
endloop
endfacet
facet normal -0.595823 -0.803116 0.000000
outer loop
vertex 8.448051 8.170556 0.000000
vertex 8.446082 8.172017 0.050000
vertex 8.446082 8.172017 0.000000
endloop
endfacet
facet normal -0.595823 -0.803116 0.000000
outer loop
vertex 8.448051 8.170556 0.050000
vertex 8.448051 8.170556 0.100000
vertex 8.446082 8.172017 0.100000
endloop
endfacet
facet normal -0.595823 -0.803116 0.000000
outer loop
vertex 8.448051 8.170556 0.050000
vertex 8.446082 8.172017 0.100000
vertex 8.446082 8.172017 0.050000
endloop
endfacet
facet normal -0.671404 -0.741091 0.000000
outer loop
vertex 8.446082 8.172017 0.050000
vertex 8.446082 8.172017 0.100000
vertex 8.444263 8.173664 0.100000
endloop
endfacet
facet normal -0.670921 -0.741529 0.000000
outer loop
vertex 8.446082 8.172017 0.050000
vertex 8.444263 8.173664 0.100000
vertex 8.444263 8.173664 0.050000
endloop
endfacet
facet normal -0.671404 -0.741091 0.000000
outer loop
vertex 8.446082 8.172017 0.000000
vertex 8.446082 8.172017 0.050000
vertex 8.444263 8.173664 0.050000
endloop
endfacet
facet normal -0.670921 -0.741529 0.000000
outer loop
vertex 8.446082 8.172017 0.000000
vertex 8.444263 8.173664 0.050000
vertex 8.444263 8.173664 0.000000
endloop
endfacet
facet normal -0.741126 -0.671366 0.000000
outer loop
vertex 8.444263 8.173664 0.000000
vertex 8.444263 8.173664 0.050000
vertex 8.442616 8.175483 0.050000
endloop
endfacet
facet normal -0.741368 -0.671099 0.000000
outer loop
vertex 8.444263 8.173664 0.000000
vertex 8.442616 8.175483 0.050000
vertex 8.442616 8.175483 0.000000
endloop
endfacet
facet normal -0.741126 -0.671366 0.000000
outer loop
vertex 8.444263 8.173664 0.050000
vertex 8.444263 8.173664 0.100000
vertex 8.442616 8.175483 0.100000
endloop
endfacet
facet normal -0.741368 -0.671099 0.000000
outer loop
vertex 8.444263 8.173664 0.050000
vertex 8.442616 8.175483 0.100000
vertex 8.442616 8.175483 0.050000
endloop
endfacet
facet normal -0.803256 -0.595634 0.000000
outer loop
vertex 8.442616 8.175483 0.050000
vertex 8.442616 8.175483 0.100000
vertex 8.441155 8.177452 0.100000
endloop
endfacet
facet normal -0.803161 -0.595762 0.000000
outer loop
vertex 8.442616 8.175483 0.050000
vertex 8.441155 8.177452 0.100000
vertex 8.441155 8.177453 0.050000
endloop
endfacet
facet normal -0.803394 -0.595448 0.000000
outer loop
vertex 8.442616 8.175483 0.000000
vertex 8.442616 8.175483 0.050000
vertex 8.441155 8.177453 0.050000
endloop
endfacet
facet normal -0.803023 -0.595948 0.000000
outer loop
vertex 8.442616 8.175483 0.000000
vertex 8.441155 8.177453 0.050000
vertex 8.441155 8.177452 0.000000
endloop
endfacet
facet normal -0.857682 -0.514181 0.000000
outer loop
vertex 8.441155 8.177452 0.000000
vertex 8.441155 8.177453 0.050000
vertex 8.439894 8.179557 0.050000
endloop
endfacet
facet normal -0.857673 -0.514196 -0.000013
outer loop
vertex 8.441155 8.177452 0.000000
vertex 8.439894 8.179557 0.050000
vertex 8.439895 8.179558 0.000000
endloop
endfacet
facet normal -0.857887 -0.513839 0.000000
outer loop
vertex 8.441155 8.177453 0.050000
vertex 8.441155 8.177452 0.100000
vertex 8.439895 8.179558 0.100000
endloop
endfacet
facet normal -0.857467 -0.514539 0.000013
outer loop
vertex 8.441155 8.177453 0.050000
vertex 8.439895 8.179558 0.100000
vertex 8.439894 8.179557 0.050000
endloop
endfacet
facet normal -0.903865 -0.427819 0.000015
outer loop
vertex 8.439894 8.179557 0.050000
vertex 8.439895 8.179558 0.100000
vertex 8.438845 8.181774 0.100000
endloop
endfacet
facet normal -0.903936 -0.427668 0.000000
outer loop
vertex 8.439894 8.179557 0.050000
vertex 8.438845 8.181774 0.100000
vertex 8.438845 8.181774 0.050000
endloop
endfacet
facet normal -0.903936 -0.427669 -0.000015
outer loop
vertex 8.439895 8.179558 0.000000
vertex 8.439894 8.179557 0.050000
vertex 8.438845 8.181774 0.050000
endloop
endfacet
facet normal -0.903865 -0.427819 0.000000
outer loop
vertex 8.439895 8.179558 0.000000
vertex 8.438845 8.181774 0.050000
vertex 8.438845 8.181774 0.000000
endloop
endfacet
facet normal -0.941588 -0.336767 0.000000
outer loop
vertex 8.438845 8.181774 0.000000
vertex 8.438845 8.181774 0.050000
vertex 8.438019 8.184084 0.050000
endloop
endfacet
facet normal -0.941742 -0.336336 0.000000
outer loop
vertex 8.438845 8.181774 0.000000
vertex 8.438019 8.184084 0.050000
vertex 8.438019 8.184084 0.000000
endloop
endfacet
facet normal -0.941588 -0.336767 0.000000
outer loop
vertex 8.438845 8.181774 0.050000
vertex 8.438845 8.181774 0.100000
vertex 8.438019 8.184084 0.100000
endloop
endfacet
facet normal -0.941742 -0.336336 0.000000
outer loop
vertex 8.438845 8.181774 0.050000
vertex 8.438019 8.184084 0.100000
vertex 8.438019 8.184084 0.050000
endloop
endfacet
facet normal -0.970051 -0.242901 0.000000
outer loop
vertex 8.438019 8.184084 0.050000
vertex 8.438019 8.184084 0.100000
vertex 8.437423 8.186464 0.100000
endloop
endfacet
facet normal -0.970028 -0.242993 0.000000
outer loop
vertex 8.438019 8.184084 0.050000
vertex 8.437423 8.186464 0.100000
vertex 8.437423 8.186463 0.050000
endloop
endfacet
facet normal -0.970028 -0.242993 0.000000
outer loop
vertex 8.438019 8.184084 0.000000
vertex 8.438019 8.184084 0.050000
vertex 8.437423 8.186463 0.050000
endloop
endfacet
facet normal -0.970051 -0.242901 0.000000
outer loop
vertex 8.438019 8.184084 0.000000
vertex 8.437423 8.186463 0.050000
vertex 8.437423 8.186464 0.000000
endloop
endfacet
facet normal -0.989107 -0.147200 0.000000
outer loop
vertex 8.437423 8.186464 0.000000
vertex 8.437423 8.186463 0.050000
vertex 8.437063 8.188890 0.050000
endloop
endfacet
facet normal -0.989239 -0.146306 0.000000
outer loop
vertex 8.437423 8.186464 0.000000
vertex 8.437063 8.188890 0.050000
vertex 8.437063 8.188890 0.000000
endloop
endfacet
facet normal -0.989098 -0.147257 0.000000
outer loop
vertex 8.437423 8.186463 0.050000
vertex 8.437423 8.186464 0.100000
vertex 8.437063 8.188890 0.100000
endloop
endfacet
facet normal -0.989248 -0.146249 0.000000
outer loop
vertex 8.437423 8.186463 0.050000
vertex 8.437063 8.188890 0.100000
vertex 8.437063 8.188890 0.050000
endloop
endfacet
facet normal -0.998818 -0.048600 0.000000
outer loop
vertex 8.437063 8.188890 0.050000
vertex 8.437063 8.188890 0.100000
vertex 8.436943 8.191340 0.100000
endloop
endfacet
facet normal -0.998795 -0.049084 0.000000
outer loop
vertex 8.437063 8.188890 0.050000
vertex 8.436943 8.191340 0.100000
vertex 8.436943 8.191340 0.050000
endloop
endfacet
facet normal -0.998818 -0.048600 0.000000
outer loop
vertex 8.437063 8.188890 0.000000
vertex 8.437063 8.188890 0.050000
vertex 8.436943 8.191340 0.050000
endloop
endfacet
facet normal -0.998795 -0.049084 0.000000
outer loop
vertex 8.437063 8.188890 0.000000
vertex 8.436943 8.191340 0.050000
vertex 8.436943 8.191340 0.000000
endloop
endfacet
facet normal -0.998794 0.049103 0.000000
outer loop
vertex 8.436943 8.191340 0.000000
vertex 8.436943 8.191340 0.050000
vertex 8.437063 8.193789 0.050000
endloop
endfacet
facet normal -0.998817 0.048618 0.000000
outer loop
vertex 8.436943 8.191340 0.000000
vertex 8.437063 8.193789 0.050000
vertex 8.437063 8.193789 0.000000
endloop
endfacet
facet normal -0.998794 0.049103 0.000000
outer loop
vertex 8.436943 8.191340 0.050000
vertex 8.436943 8.191340 0.100000
vertex 8.437063 8.193789 0.100000
endloop
endfacet
facet normal -0.998817 0.048618 0.000000
outer loop
vertex 8.436943 8.191340 0.050000
vertex 8.437063 8.193789 0.100000
vertex 8.437063 8.193789 0.050000
endloop
endfacet
facet normal -0.989256 0.146193 0.000000
outer loop
vertex 8.437063 8.193789 0.050000
vertex 8.437063 8.193789 0.100000
vertex 8.437423 8.196218 0.100000
endloop
endfacet
facet normal -0.989115 0.147143 0.000000
outer loop
vertex 8.437063 8.193789 0.050000
vertex 8.437423 8.196218 0.100000
vertex 8.437423 8.196218 0.050000
endloop
endfacet
facet normal -0.989256 0.146193 0.000000
outer loop
vertex 8.437063 8.193789 0.000000
vertex 8.437063 8.193789 0.050000
vertex 8.437423 8.196218 0.050000
endloop
endfacet
facet normal -0.989115 0.147143 0.000000
outer loop
vertex 8.437063 8.193789 0.000000
vertex 8.437423 8.196218 0.050000
vertex 8.437423 8.196218 0.000000
endloop
endfacet
facet normal -0.970028 0.242993 0.000000
outer loop
vertex 8.437423 8.196218 0.000000
vertex 8.437423 8.196218 0.050000
vertex 8.438019 8.198597 0.050000
endloop
endfacet
facet normal -0.970028 0.242993 0.000000
outer loop
vertex 8.437423 8.196218 0.000000
vertex 8.438019 8.198597 0.050000
vertex 8.438019 8.198597 0.000000
endloop
endfacet
facet normal -0.970028 0.242993 0.000000
outer loop
vertex 8.437423 8.196218 0.050000
vertex 8.437423 8.196218 0.100000
vertex 8.438019 8.198597 0.100000
endloop
endfacet
facet normal -0.970028 0.242993 0.000000
outer loop
vertex 8.437423 8.196218 0.050000
vertex 8.438019 8.198597 0.100000
vertex 8.438019 8.198597 0.050000
endloop
endfacet
facet normal -0.941390 0.337322 0.000000
outer loop
vertex 8.438019 8.198597 0.050000
vertex 8.438019 8.198597 0.100000
vertex 8.438846 8.200906 0.100000
endloop
endfacet
facet normal -0.941544 0.336891 0.000000
outer loop
vertex 8.438019 8.198597 0.050000
vertex 8.438846 8.200906 0.100000
vertex 8.438846 8.200906 0.050000
endloop
endfacet
facet normal -0.941390 0.337322 0.000000
outer loop
vertex 8.438019 8.198597 0.000000
vertex 8.438019 8.198597 0.050000
vertex 8.438846 8.200906 0.050000
endloop
endfacet
facet normal -0.941544 0.336891 0.000000
outer loop
vertex 8.438019 8.198597 0.000000
vertex 8.438846 8.200906 0.050000
vertex 8.438846 8.200906 0.000000
endloop
endfacet
facet normal -0.904453 0.426574 0.000000
outer loop
vertex 8.438846 8.200906 0.000000
vertex 8.438846 8.200906 0.050000
vertex 8.439894 8.203125 0.050000
endloop
endfacet
facet normal -0.904078 0.427368 -0.000015
outer loop
vertex 8.438846 8.200906 0.000000
vertex 8.439894 8.203125 0.050000
vertex 8.439895 8.203125 0.000000
endloop
endfacet
facet normal -0.904078 0.427368 0.000000
outer loop
vertex 8.438846 8.200906 0.050000
vertex 8.438846 8.200906 0.100000
vertex 8.439895 8.203125 0.100000
endloop
endfacet
facet normal -0.904453 0.426574 0.000015
outer loop
vertex 8.438846 8.200906 0.050000
vertex 8.439895 8.203125 0.100000
vertex 8.439894 8.203125 0.050000
endloop
endfacet
facet normal -0.857261 0.514882 0.000015
outer loop
vertex 8.439894 8.203125 0.050000
vertex 8.439895 8.203125 0.100000
vertex 8.441155 8.205227 0.100000
endloop
endfacet
facet normal -0.857476 0.514524 0.000000
outer loop
vertex 8.439894 8.203125 0.050000
vertex 8.441155 8.205227 0.100000
vertex 8.441155 8.205227 0.050000
endloop
endfacet
facet normal -0.857261 0.514882 -0.000015
outer loop
vertex 8.439895 8.203125 0.000000
vertex 8.439894 8.203125 0.050000
vertex 8.441155 8.205227 0.050000
endloop
endfacet
facet normal -0.857476 0.514524 0.000000
outer loop
vertex 8.439895 8.203125 0.000000
vertex 8.441155 8.205227 0.050000
vertex 8.441155 8.205227 0.000000
endloop
endfacet
facet normal -0.803299 0.595576 0.000000
outer loop
vertex 8.441155 8.205227 0.000000
vertex 8.441155 8.205227 0.050000
vertex 8.442616 8.207198 0.050000
endloop
endfacet
facet normal -0.803531 0.595262 0.000000
outer loop
vertex 8.441155 8.205227 0.000000
vertex 8.442616 8.207198 0.050000
vertex 8.442616 8.207198 0.000000
endloop
endfacet
facet normal -0.803299 0.595576 0.000000
outer loop
vertex 8.441155 8.205227 0.050000
vertex 8.441155 8.205227 0.100000
vertex 8.442616 8.207198 0.100000
endloop
endfacet
facet normal -0.803531 0.595262 0.000000
outer loop
vertex 8.441155 8.205227 0.050000
vertex 8.442616 8.207198 0.100000
vertex 8.442616 8.207198 0.050000
endloop
endfacet
facet normal -0.741017 0.671486 0.000000
outer loop
vertex 8.442616 8.207198 0.050000
vertex 8.442616 8.207198 0.100000
vertex 8.444263 8.209015 0.100000
endloop
endfacet
facet normal -0.740775 0.671753 0.000000
outer loop
vertex 8.442616 8.207198 0.050000
vertex 8.444263 8.209015 0.100000
vertex 8.444263 8.209015 0.050000
endloop
endfacet
facet normal -0.741017 0.671486 0.000000
outer loop
vertex 8.442616 8.207198 0.000000
vertex 8.442616 8.207198 0.050000
vertex 8.444263 8.209015 0.050000
endloop
endfacet
facet normal -0.740775 0.671753 0.000000
outer loop
vertex 8.442616 8.207198 0.000000
vertex 8.444263 8.209015 0.050000
vertex 8.444263 8.209015 0.000000
endloop
endfacet
facet normal -0.671134 0.741336 0.000000
outer loop
vertex 8.444263 8.209015 0.000000
vertex 8.444263 8.209015 0.050000
vertex 8.446082 8.210663 0.050000
endloop
endfacet
facet normal -0.671831 0.740704 0.000000
outer loop
vertex 8.444263 8.209015 0.000000
vertex 8.446082 8.210663 0.050000
vertex 8.446082 8.210664 0.000000
endloop
endfacet
facet normal -0.671348 0.741142 0.000000
outer loop
vertex 8.444263 8.209015 0.050000
vertex 8.444263 8.209015 0.100000
vertex 8.446082 8.210664 0.100000
endloop
endfacet
facet normal -0.671618 0.740898 0.000000
outer loop
vertex 8.444263 8.209015 0.050000
vertex 8.446082 8.210664 0.100000
vertex 8.446082 8.210663 0.050000
endloop
endfacet
facet normal -0.595572 0.803302 0.000000
outer loop
vertex 8.446082 8.210663 0.050000
vertex 8.446082 8.210664 0.100000
vertex 8.448051 8.212124 0.100000
endloop
endfacet
facet normal -0.595823 0.803116 -0.000018
outer loop
vertex 8.446082 8.210663 0.050000
vertex 8.448051 8.212124 0.100000
vertex 8.448052 8.212124 0.050000
endloop
endfacet
facet normal -0.595823 0.803116 0.000000
outer loop
vertex 8.446082 8.210664 0.000000
vertex 8.446082 8.210663 0.050000
vertex 8.448052 8.212124 0.050000
endloop
endfacet
facet normal -0.595572 0.803302 0.000018
outer loop
vertex 8.446082 8.210664 0.000000
vertex 8.448052 8.212124 0.050000
vertex 8.448051 8.212124 0.000000
endloop
endfacet
facet normal -0.514353 0.857579 0.000000
outer loop
vertex 8.448051 8.212124 0.000000
vertex 8.448052 8.212124 0.050000
vertex 8.450156 8.213387 0.050000
endloop
endfacet
facet normal -0.514353 0.857579 -0.000008
outer loop
vertex 8.448051 8.212124 0.000000
vertex 8.450156 8.213387 0.050000
vertex 8.450157 8.213387 0.000000
endloop
endfacet
facet normal -0.514353 0.857579 0.000000
outer loop
vertex 8.448052 8.212124 0.050000
vertex 8.448051 8.212124 0.100000
vertex 8.450157 8.213387 0.100000
endloop
endfacet
facet normal -0.514353 0.857579 0.000008
outer loop
vertex 8.448052 8.212124 0.050000
vertex 8.450157 8.213387 0.100000
vertex 8.450156 8.213387 0.050000
endloop
endfacet
facet normal -0.427351 0.904086 0.000030
outer loop
vertex 8.450156 8.213387 0.050000
vertex 8.450157 8.213387 0.100000
vertex 8.452374 8.214435 0.100000
endloop
endfacet
facet normal -0.427539 0.903997 0.000000
outer loop
vertex 8.450156 8.213387 0.050000
vertex 8.452374 8.214435 0.100000
vertex 8.452374 8.214435 0.050000
endloop
endfacet
facet normal -0.427351 0.904086 -0.000030
outer loop
vertex 8.450157 8.213387 0.000000
vertex 8.450156 8.213387 0.050000
vertex 8.452374 8.214435 0.050000
endloop
endfacet
facet normal -0.427539 0.903997 0.000000
outer loop
vertex 8.450157 8.213387 0.000000
vertex 8.452374 8.214435 0.050000
vertex 8.452374 8.214435 0.000000
endloop
endfacet
facet normal 0.000008 0.000000 1.000000
outer loop
vertex 8.466818 8.215860 0.100000
vertex 8.464390 8.216217 0.100000
vertex 8.461941 8.191341 0.100000
endloop
endfacet
facet normal 0.000000 0.000000 1.000000
outer loop
vertex 8.466818 8.215860 0.100000
vertex 8.461941 8.191341 0.100000
vertex 8.469196 8.215261 0.100000
endloop
endfacet
facet normal 0.000000 0.000000 1.000000
outer loop
vertex 8.461940 8.216341 0.100000
vertex 8.459490 8.216217 0.100000
vertex 8.461941 8.191341 0.100000
endloop
endfacet
facet normal 0.000000 0.000000 1.000000
outer loop
vertex 8.461940 8.216341 0.100000
vertex 8.461941 8.191341 0.100000
vertex 8.464390 8.216217 0.100000
endloop
endfacet
facet normal 0.000000 0.000000 1.000000
outer loop
vertex 8.457063 8.215860 0.100000
vertex 8.454683 8.215261 0.100000
vertex 8.461941 8.191341 0.100000
endloop
endfacet
facet normal -0.000008 0.000000 1.000000
outer loop
vertex 8.457063 8.215860 0.100000
vertex 8.461941 8.191341 0.100000
vertex 8.459490 8.216217 0.100000
endloop
endfacet
facet normal 0.000008 0.000000 1.000000
outer loop
vertex 8.452373 8.214437 0.100000
vertex 8.450156 8.213387 0.100000
vertex 8.461941 8.191341 0.100000
endloop
endfacet
facet normal -0.000008 0.000000 1.000000
outer loop
vertex 8.452373 8.214437 0.100000
vertex 8.461941 8.191341 0.100000
vertex 8.454683 8.215261 0.100000
endloop
endfacet
facet normal 0.000000 0.000000 1.000000
outer loop
vertex 8.448050 8.212127 0.100000
vertex 8.446082 8.210664 0.100000
vertex 8.461941 8.191341 0.100000
endloop
endfacet
facet normal 0.000000 0.000000 1.000000
outer loop
vertex 8.448050 8.212127 0.100000
vertex 8.461941 8.191341 0.100000
vertex 8.450156 8.213387 0.100000
endloop
endfacet
facet normal 0.000004 0.000000 1.000000
outer loop
vertex 8.444263 8.209018 0.100000
vertex 8.442616 8.207198 0.100000
vertex 8.461941 8.191341 0.100000
endloop
endfacet
facet normal 0.000000 0.000000 1.000000
outer loop
vertex 8.444263 8.209018 0.100000
vertex 8.461941 8.191341 0.100000
vertex 8.446082 8.210664 0.100000
endloop
endfacet
facet normal -0.000004 0.000000 1.000000
outer loop
vertex 8.441153 8.205229 0.100000
vertex 8.439895 8.203125 0.100000
vertex 8.461941 8.191341 0.100000
endloop
endfacet
facet normal 0.000000 0.000000 1.000000
outer loop
vertex 8.441153 8.205229 0.100000
vertex 8.461941 8.191341 0.100000
vertex 8.442616 8.207198 0.100000
endloop
endfacet
facet normal 0.000000 0.000000 1.000000
outer loop
vertex 8.438843 8.200907 0.100000
vertex 8.438019 8.198597 0.100000
vertex 8.461941 8.191341 0.100000
endloop
endfacet
facet normal 0.000000 0.000000 1.000000
outer loop
vertex 8.438843 8.200907 0.100000
vertex 8.461941 8.191341 0.100000
vertex 8.439895 8.203125 0.100000
endloop
endfacet
facet normal 0.000000 0.000000 1.000000
outer loop
vertex 8.437421 8.196218 0.100000
vertex 8.437063 8.193789 0.100000
vertex 8.461941 8.191341 0.100000
endloop
endfacet
facet normal 0.000002 0.000000 1.000000
outer loop
vertex 8.437421 8.196218 0.100000
vertex 8.461941 8.191341 0.100000
vertex 8.438019 8.198597 0.100000
endloop
endfacet
facet normal 0.000000 0.000000 1.000000
outer loop
vertex 8.436940 8.191340 0.100000
vertex 8.437063 8.188890 0.100000
vertex 8.461941 8.191341 0.100000
endloop
endfacet
facet normal 0.000000 0.000000 1.000000
outer loop
vertex 8.436940 8.191340 0.100000
vertex 8.461941 8.191341 0.100000
vertex 8.437063 8.193789 0.100000
endloop
endfacet
facet normal 0.000000 0.000000 1.000000
outer loop
vertex 8.437421 8.186463 0.100000
vertex 8.438019 8.184084 0.100000
vertex 8.461941 8.191341 0.100000
endloop
endfacet
facet normal 0.000000 0.000000 1.000000
outer loop
vertex 8.437421 8.186463 0.100000
vertex 8.461941 8.191341 0.100000
vertex 8.437063 8.188890 0.100000
endloop
endfacet
facet normal -0.000004 0.000000 1.000000
outer loop
vertex 8.438843 8.181773 0.100000
vertex 8.439894 8.179557 0.100000
vertex 8.461941 8.191341 0.100000
endloop
endfacet
facet normal 0.000000 0.000000 1.000000
outer loop
vertex 8.438843 8.181773 0.100000
vertex 8.461941 8.191341 0.100000
vertex 8.438019 8.184084 0.100000
endloop
endfacet
facet normal 0.000000 0.000000 1.000000
outer loop
vertex 8.441153 8.177451 0.100000
vertex 8.442616 8.175483 0.100000
vertex 8.461941 8.191341 0.100000
endloop
endfacet
facet normal 0.000004 0.000000 1.000000
outer loop
vertex 8.441153 8.177451 0.100000
vertex 8.461941 8.191341 0.100000
vertex 8.439894 8.179557 0.100000
endloop
endfacet
facet normal 0.000000 0.000000 1.000000
outer loop
vertex 8.444263 8.173663 0.100000
vertex 8.446082 8.172017 0.100000
vertex 8.461941 8.191341 0.100000
endloop
endfacet
facet normal 0.000000 0.000000 1.000000
outer loop
vertex 8.444263 8.173663 0.100000
vertex 8.461941 8.191341 0.100000
vertex 8.442616 8.175483 0.100000
endloop
endfacet
facet normal 0.000000 0.000000 1.000000
outer loop
vertex 8.448050 8.170553 0.100000
vertex 8.450157 8.169295 0.100000
vertex 8.461941 8.191341 0.100000
endloop
endfacet
facet normal 0.000000 0.000000 1.000000
outer loop
vertex 8.448050 8.170553 0.100000
vertex 8.461941 8.191341 0.100000
vertex 8.446082 8.172017 0.100000
endloop
endfacet
facet normal -0.000008 0.000000 1.000000
outer loop
vertex 8.452373 8.168243 0.100000
vertex 8.454683 8.167419 0.100000
vertex 8.461941 8.191341 0.100000
endloop
endfacet
facet normal 0.000000 0.000000 1.000000
outer loop
vertex 8.452373 8.168243 0.100000
vertex 8.461941 8.191341 0.100000
vertex 8.450157 8.169295 0.100000
endloop
endfacet
facet normal 0.000000 0.000000 1.000000
outer loop
vertex 8.457063 8.166822 0.100000
vertex 8.459490 8.166464 0.100000
vertex 8.461941 8.191341 0.100000
endloop
endfacet
facet normal 0.000008 0.000000 1.000000
outer loop
vertex 8.457063 8.166822 0.100000
vertex 8.461941 8.191341 0.100000
vertex 8.454683 8.167419 0.100000
endloop
endfacet
facet normal 0.000000 0.000000 1.000000
outer loop
vertex 8.461940 8.166341 0.100000
vertex 8.464390 8.166464 0.100000
vertex 8.461941 8.191341 0.100000
endloop
endfacet
facet normal 0.000000 0.000000 1.000000
outer loop
vertex 8.461940 8.166341 0.100000
vertex 8.461941 8.191341 0.100000
vertex 8.459490 8.166464 0.100000
endloop
endfacet
facet normal -0.000008 0.000000 1.000000
outer loop
vertex 8.466818 8.166822 0.100000
vertex 8.469196 8.167419 0.100000
vertex 8.461941 8.191341 0.100000
endloop
endfacet
facet normal 0.000000 0.000000 1.000000
outer loop
vertex 8.466818 8.166822 0.100000
vertex 8.461941 8.191341 0.100000
vertex 8.464390 8.166464 0.100000
endloop
endfacet
facet normal 0.000000 0.000000 1.000000
outer loop
vertex 8.471507 8.168243 0.100000
vertex 8.473724 8.169294 0.100000
vertex 8.461941 8.191341 0.100000
endloop
endfacet
facet normal 0.000008 0.000000 1.000000
outer loop
vertex 8.471507 8.168243 0.100000
vertex 8.461941 8.191341 0.100000
vertex 8.469196 8.167419 0.100000
endloop
endfacet
facet normal 0.000000 0.000000 1.000000
outer loop
vertex 8.475829 8.170553 0.100000
vertex 8.477798 8.172017 0.100000
vertex 8.461941 8.191341 0.100000
endloop
endfacet
facet normal 0.000000 0.000000 1.000000
outer loop
vertex 8.475829 8.170553 0.100000
vertex 8.461941 8.191341 0.100000
vertex 8.473724 8.169294 0.100000
endloop
endfacet
facet normal 0.000000 0.000000 1.000000
outer loop
vertex 8.479617 8.173663 0.100000
vertex 8.481263 8.175483 0.100000
vertex 8.461941 8.191341 0.100000
endloop
endfacet
facet normal 0.000000 0.000000 1.000000
outer loop
vertex 8.479617 8.173663 0.100000
vertex 8.461941 8.191341 0.100000
vertex 8.477798 8.172017 0.100000
endloop
endfacet
facet normal 0.000000 0.000000 1.000000
outer loop
vertex 8.482726 8.177451 0.100000
vertex 8.483986 8.179558 0.100000
vertex 8.461941 8.191341 0.100000
endloop
endfacet
facet normal 0.000000 0.000000 1.000000
outer loop
vertex 8.482726 8.177451 0.100000
vertex 8.461941 8.191341 0.100000
vertex 8.481263 8.175483 0.100000
endloop
endfacet
facet normal 0.000000 0.000000 1.000000
outer loop
vertex 8.485037 8.181773 0.100000
vertex 8.485861 8.184084 0.100000
vertex 8.461941 8.191341 0.100000
endloop
endfacet
facet normal 0.000000 0.000000 1.000000
outer loop
vertex 8.485037 8.181773 0.100000
vertex 8.461941 8.191341 0.100000
vertex 8.483986 8.179558 0.100000
endloop
endfacet
facet normal 0.000000 0.000000 1.000000
outer loop
vertex 8.486460 8.186463 0.100000
vertex 8.486818 8.188890 0.100000
vertex 8.461941 8.191341 0.100000
endloop
endfacet
facet normal 0.000000 0.000000 1.000000
outer loop
vertex 8.486460 8.186463 0.100000
vertex 8.461941 8.191341 0.100000
vertex 8.485861 8.184084 0.100000
endloop
endfacet
facet normal 0.000000 0.000000 1.000000
outer loop
vertex 8.486940 8.191340 0.100000
vertex 8.486818 8.193789 0.100000
vertex 8.461941 8.191341 0.100000
endloop
endfacet
facet normal 0.000000 0.000000 1.000000
outer loop
vertex 8.486940 8.191340 0.100000
vertex 8.461941 8.191341 0.100000
vertex 8.486818 8.188890 0.100000
endloop
endfacet
facet normal -0.000002 0.000000 1.000000
outer loop
vertex 8.486460 8.196218 0.100000
vertex 8.485861 8.198597 0.100000
vertex 8.461941 8.191341 0.100000
endloop
endfacet
facet normal 0.000000 0.000000 1.000000
outer loop
vertex 8.486460 8.196218 0.100000
vertex 8.461941 8.191341 0.100000
vertex 8.486818 8.193789 0.100000
endloop
endfacet
facet normal 0.000000 0.000000 1.000000
outer loop
vertex 8.485037 8.200907 0.100000
vertex 8.483986 8.203125 0.100000
vertex 8.461941 8.191341 0.100000
endloop
endfacet
facet normal 0.000000 0.000000 1.000000
outer loop
vertex 8.485037 8.200907 0.100000
vertex 8.461941 8.191341 0.100000
vertex 8.485861 8.198597 0.100000
endloop
endfacet
facet normal 0.000000 0.000000 1.000000
outer loop
vertex 8.482726 8.205229 0.100000
vertex 8.481263 8.207198 0.100000
vertex 8.461941 8.191341 0.100000
endloop
endfacet
facet normal 0.000004 0.000000 1.000000
outer loop
vertex 8.482726 8.205229 0.100000
vertex 8.461941 8.191341 0.100000
vertex 8.483986 8.203125 0.100000
endloop
endfacet
facet normal 0.000000 0.000000 1.000000
outer loop
vertex 8.479617 8.209018 0.100000
vertex 8.477798 8.210664 0.100000
vertex 8.461941 8.191341 0.100000
endloop
endfacet
facet normal -0.000004 0.000000 1.000000
outer loop
vertex 8.479617 8.209018 0.100000
vertex 8.461941 8.191341 0.100000
vertex 8.481263 8.207198 0.100000
endloop
endfacet
facet normal 0.000000 0.000000 1.000000
outer loop
vertex 8.475829 8.212127 0.100000
vertex 8.473724 8.213387 0.100000
vertex 8.461941 8.191341 0.100000
endloop
endfacet
facet normal 0.000000 0.000000 1.000000
outer loop
vertex 8.475829 8.212127 0.100000
vertex 8.461941 8.191341 0.100000
vertex 8.477798 8.210664 0.100000
endloop
endfacet
facet normal 0.000008 0.000000 1.000000
outer loop
vertex 8.471507 8.214437 0.100000
vertex 8.469196 8.215261 0.100000
vertex 8.461941 8.191341 0.100000
endloop
endfacet
facet normal -0.000008 0.000000 1.000000
outer loop
vertex 8.471507 8.214437 0.100000
vertex 8.461941 8.191341 0.100000
vertex 8.473724 8.213387 0.100000
endloop
endfacet
facet normal -0.336774 0.941586 0.000000
outer loop
vertex 8.452374 8.214435 0.000000
vertex 8.452374 8.214435 0.050000
vertex 8.454683 8.215261 0.050000
endloop
endfacet
facet normal -0.336620 0.941641 0.000000
outer loop
vertex 8.452374 8.214435 0.000000
vertex 8.454683 8.215261 0.050000
vertex 8.454683 8.215261 0.000000
endloop
endfacet
facet normal -0.336774 0.941586 0.000000
outer loop
vertex 8.452374 8.214435 0.050000
vertex 8.452374 8.214435 0.100000
vertex 8.454683 8.215261 0.100000
endloop
endfacet
facet normal -0.336620 0.941641 0.000000
outer loop
vertex 8.452374 8.214435 0.050000
vertex 8.454683 8.215261 0.100000
vertex 8.454683 8.215261 0.050000
endloop
endfacet
facet normal -0.243244 0.969965 0.000000
outer loop
vertex 8.454683 8.215261 0.050000
vertex 8.454683 8.215261 0.100000
vertex 8.457064 8.215858 0.100000
endloop
endfacet
facet normal -0.243244 0.969965 0.000016
outer loop
vertex 8.454683 8.215261 0.050000
vertex 8.457064 8.215858 0.100000
vertex 8.457063 8.215858 0.050000
endloop
endfacet
facet normal -0.243244 0.969965 0.000000
outer loop
vertex 8.454683 8.215261 0.000000
vertex 8.454683 8.215261 0.050000
vertex 8.457063 8.215858 0.050000
endloop
endfacet
facet normal -0.243244 0.969965 -0.000016
outer loop
vertex 8.454683 8.215261 0.000000
vertex 8.457063 8.215858 0.050000
vertex 8.457064 8.215858 0.000000
endloop
endfacet
facet normal -0.146605 0.989195 0.000000
outer loop
vertex 8.457064 8.215858 0.000000
vertex 8.457063 8.215858 0.050000
vertex 8.459490 8.216217 0.050000
endloop
endfacet
facet normal -0.146605 0.989195 0.000000
outer loop
vertex 8.457064 8.215858 0.000000
vertex 8.459490 8.216217 0.050000
vertex 8.459490 8.216217 0.000000
endloop
endfacet
facet normal -0.146605 0.989195 0.000000
outer loop
vertex 8.457063 8.215858 0.050000
vertex 8.457064 8.215858 0.100000
vertex 8.459490 8.216217 0.100000
endloop
endfacet
facet normal -0.146605 0.989195 0.000000
outer loop
vertex 8.457063 8.215858 0.050000
vertex 8.459490 8.216217 0.100000
vertex 8.459490 8.216217 0.050000
endloop
endfacet
facet normal -0.049404 0.998779 0.000000
outer loop
vertex 8.459490 8.216217 0.050000
vertex 8.459490 8.216217 0.100000
vertex 8.461940 8.216338 0.100000
endloop
endfacet
facet normal -0.049356 0.998781 0.000000
outer loop
vertex 8.459490 8.216217 0.050000
vertex 8.461940 8.216338 0.100000
vertex 8.461940 8.216338 0.050000
endloop
endfacet
facet normal -0.049404 0.998779 0.000000
outer loop
vertex 8.459490 8.216217 0.000000
vertex 8.459490 8.216217 0.050000
vertex 8.461940 8.216338 0.050000
endloop
endfacet
facet normal -0.049356 0.998781 0.000000
outer loop
vertex 8.459490 8.216217 0.000000
vertex 8.461940 8.216338 0.050000
vertex 8.461940 8.216338 0.000000
endloop
endfacet
facet normal 0.000000 0.000000 -1.000000
outer loop
vertex 8.461940 8.216341 0.000000
vertex 8.464390 8.216217 0.000000
vertex 8.461941 8.191341 0.000000
endloop
endfacet
facet normal 0.000000 0.000000 -1.000000
outer loop
vertex 8.461940 8.216341 0.000000
vertex 8.461941 8.191341 0.000000
vertex 8.459490 8.216217 0.000000
endloop
endfacet
facet normal 0.000000 0.000000 -1.000000
outer loop
vertex 8.466818 8.215860 0.000000
vertex 8.469196 8.215261 0.000000
vertex 8.461941 8.191341 0.000000
endloop
endfacet
facet normal 0.000000 0.000000 -1.000000
outer loop
vertex 8.466818 8.215860 0.000000
vertex 8.461941 8.191341 0.000000
vertex 8.464390 8.216217 0.000000
endloop
endfacet
facet normal 0.000000 0.000000 -1.000000
outer loop
vertex 8.471507 8.214437 0.000000
vertex 8.473724 8.213387 0.000000
vertex 8.461941 8.191341 0.000000
endloop
endfacet
facet normal 0.000000 0.000000 -1.000000
outer loop
vertex 8.471507 8.214437 0.000000
vertex 8.461941 8.191341 0.000000
vertex 8.469196 8.215261 0.000000
endloop
endfacet
facet normal 0.000000 0.000000 -1.000000
outer loop
vertex 8.475829 8.212127 0.000000
vertex 8.477798 8.210664 0.000000
vertex 8.461941 8.191341 0.000000
endloop
endfacet
facet normal 0.000000 0.000000 -1.000000
outer loop
vertex 8.475829 8.212127 0.000000
vertex 8.461941 8.191341 0.000000
vertex 8.473724 8.213387 0.000000
endloop
endfacet
facet normal 0.000000 0.000000 -1.000000
outer loop
vertex 8.479617 8.209018 0.000000
vertex 8.481263 8.207198 0.000000
vertex 8.461941 8.191341 0.000000
endloop
endfacet
facet normal 0.000000 0.000000 -1.000000
outer loop
vertex 8.479617 8.209018 0.000000
vertex 8.461941 8.191341 0.000000
vertex 8.477798 8.210664 0.000000
endloop
endfacet
facet normal 0.000000 0.000000 -1.000000
outer loop
vertex 8.482726 8.205229 0.000000
vertex 8.483986 8.203125 0.000000
vertex 8.461941 8.191341 0.000000
endloop
endfacet
facet normal 0.000000 0.000000 -1.000000
outer loop
vertex 8.482726 8.205229 0.000000
vertex 8.461941 8.191341 0.000000
vertex 8.481263 8.207198 0.000000
endloop
endfacet
facet normal 0.000000 0.000000 -1.000000
outer loop
vertex 8.485037 8.200907 0.000000
vertex 8.485861 8.198597 0.000000
vertex 8.461941 8.191341 0.000000
endloop
endfacet
facet normal 0.000000 0.000000 -1.000000
outer loop
vertex 8.485037 8.200907 0.000000
vertex 8.461941 8.191341 0.000000
vertex 8.483986 8.203125 0.000000
endloop
endfacet
facet normal 0.000000 0.000000 -1.000000
outer loop
vertex 8.486460 8.196218 0.000000
vertex 8.486818 8.193789 0.000000
vertex 8.461941 8.191341 0.000000
endloop
endfacet
facet normal 0.000000 0.000000 -1.000000
outer loop
vertex 8.486460 8.196218 0.000000
vertex 8.461941 8.191341 0.000000
vertex 8.485861 8.198597 0.000000
endloop
endfacet
facet normal 0.000000 0.000000 -1.000000
outer loop
vertex 8.486940 8.191340 0.000000
vertex 8.486818 8.188890 0.000000
vertex 8.461941 8.191341 0.000000
endloop
endfacet
facet normal 0.000000 0.000000 -1.000000
outer loop
vertex 8.486940 8.191340 0.000000
vertex 8.461941 8.191341 0.000000
vertex 8.486818 8.193789 0.000000
endloop
endfacet
facet normal 0.000000 0.000000 -1.000000
outer loop
vertex 8.486460 8.186463 0.000000
vertex 8.485861 8.184084 0.000000
vertex 8.461941 8.191341 0.000000
endloop
endfacet
facet normal 0.000000 0.000000 -1.000000
outer loop
vertex 8.486460 8.186463 0.000000
vertex 8.461941 8.191341 0.000000
vertex 8.486818 8.188890 0.000000
endloop
endfacet
facet normal 0.000000 0.000000 -1.000000
outer loop
vertex 8.485037 8.181773 0.000000
vertex 8.483986 8.179557 0.000000
vertex 8.461941 8.191341 0.000000
endloop
endfacet
facet normal 0.000000 0.000000 -1.000000
outer loop
vertex 8.485037 8.181773 0.000000
vertex 8.461941 8.191341 0.000000
vertex 8.485861 8.184084 0.000000
endloop
endfacet
facet normal 0.000000 0.000000 -1.000000
outer loop
vertex 8.482726 8.177451 0.000000
vertex 8.481263 8.175483 0.000000
vertex 8.461941 8.191341 0.000000
endloop
endfacet
facet normal 0.000000 0.000000 -1.000000
outer loop
vertex 8.482726 8.177451 0.000000
vertex 8.461941 8.191341 0.000000
vertex 8.483986 8.179557 0.000000
endloop
endfacet
facet normal 0.000000 0.000000 -1.000000
outer loop
vertex 8.479617 8.173663 0.000000
vertex 8.477798 8.172017 0.000000
vertex 8.461941 8.191341 0.000000
endloop
endfacet
facet normal 0.000000 0.000000 -1.000000
outer loop
vertex 8.479617 8.173663 0.000000
vertex 8.461941 8.191341 0.000000
vertex 8.481263 8.175483 0.000000
endloop
endfacet
facet normal 0.000000 0.000000 -1.000000
outer loop
vertex 8.475829 8.170553 0.000000
vertex 8.473724 8.169294 0.000000
vertex 8.461941 8.191341 0.000000
endloop
endfacet
facet normal 0.000000 0.000000 -1.000000
outer loop
vertex 8.475829 8.170553 0.000000
vertex 8.461941 8.191341 0.000000
vertex 8.477798 8.172017 0.000000
endloop
endfacet
facet normal 0.000000 0.000000 -1.000000
outer loop
vertex 8.471507 8.168243 0.000000
vertex 8.469196 8.167419 0.000000
vertex 8.461941 8.191341 0.000000
endloop
endfacet
facet normal 0.000000 0.000000 -1.000000
outer loop
vertex 8.471507 8.168243 0.000000
vertex 8.461941 8.191341 0.000000
vertex 8.473724 8.169294 0.000000
endloop
endfacet
facet normal 0.000000 0.000000 -1.000000
outer loop
vertex 8.466818 8.166822 0.000000
vertex 8.464390 8.166464 0.000000
vertex 8.461941 8.191341 0.000000
endloop
endfacet
facet normal 0.000000 0.000000 -1.000000
outer loop
vertex 8.466818 8.166822 0.000000
vertex 8.461941 8.191341 0.000000
vertex 8.469196 8.167419 0.000000
endloop
endfacet
facet normal 0.000000 0.000000 -1.000000
outer loop
vertex 8.461940 8.166341 0.000000
vertex 8.459490 8.166464 0.000000
vertex 8.461941 8.191341 0.000000
endloop
endfacet
facet normal 0.000000 0.000000 -1.000000
outer loop
vertex 8.461940 8.166341 0.000000
vertex 8.461941 8.191341 0.000000
vertex 8.464390 8.166464 0.000000
endloop
endfacet
facet normal 0.000000 0.000000 -1.000000
outer loop
vertex 8.457063 8.166822 0.000000
vertex 8.454683 8.167419 0.000000
vertex 8.461941 8.191341 0.000000
endloop
endfacet
facet normal 0.000000 0.000000 -1.000000
outer loop
vertex 8.457063 8.166822 0.000000
vertex 8.461941 8.191341 0.000000
vertex 8.459490 8.166464 0.000000
endloop
endfacet
facet normal 0.000000 0.000000 -1.000000
outer loop
vertex 8.452373 8.168243 0.000000
vertex 8.450156 8.169294 0.000000
vertex 8.461941 8.191341 0.000000
endloop
endfacet
facet normal 0.000000 0.000000 -1.000000
outer loop
vertex 8.452373 8.168243 0.000000
vertex 8.461941 8.191341 0.000000
vertex 8.454683 8.167419 0.000000
endloop
endfacet
facet normal 0.000000 0.000000 -1.000000
outer loop
vertex 8.448050 8.170553 0.000000
vertex 8.446082 8.172017 0.000000
vertex 8.461941 8.191341 0.000000
endloop
endfacet
facet normal 0.000000 0.000000 -1.000000
outer loop
vertex 8.448050 8.170553 0.000000
vertex 8.461941 8.191341 0.000000
vertex 8.450156 8.169294 0.000000
endloop
endfacet
facet normal 0.000000 0.000000 -1.000000
outer loop
vertex 8.444263 8.173663 0.000000
vertex 8.442616 8.175483 0.000000
vertex 8.461941 8.191341 0.000000
endloop
endfacet
facet normal 0.000000 0.000000 -1.000000
outer loop
vertex 8.444263 8.173663 0.000000
vertex 8.461941 8.191341 0.000000
vertex 8.446082 8.172017 0.000000
endloop
endfacet
facet normal 0.000000 0.000000 -1.000000
outer loop
vertex 8.441153 8.177451 0.000000
vertex 8.439894 8.179558 0.000000
vertex 8.461941 8.191341 0.000000
endloop
endfacet
facet normal 0.000000 0.000000 -1.000000
outer loop
vertex 8.441153 8.177451 0.000000
vertex 8.461941 8.191341 0.000000
vertex 8.442616 8.175483 0.000000
endloop
endfacet
facet normal 0.000000 0.000000 -1.000000
outer loop
vertex 8.438843 8.181773 0.000000
vertex 8.438019 8.184084 0.000000
vertex 8.461941 8.191341 0.000000
endloop
endfacet
facet normal 0.000000 0.000000 -1.000000
outer loop
vertex 8.438843 8.181773 0.000000
vertex 8.461941 8.191341 0.000000
vertex 8.439894 8.179558 0.000000
endloop
endfacet
facet normal 0.000000 0.000000 -1.000000
outer loop
vertex 8.437421 8.186463 0.000000
vertex 8.437063 8.188890 0.000000
vertex 8.461941 8.191341 0.000000
endloop
endfacet
facet normal 0.000000 0.000000 -1.000000
outer loop
vertex 8.437421 8.186463 0.000000
vertex 8.461941 8.191341 0.000000
vertex 8.438019 8.184084 0.000000
endloop
endfacet
facet normal 0.000000 0.000000 -1.000000
outer loop
vertex 8.436940 8.191340 0.000000
vertex 8.437063 8.193789 0.000000
vertex 8.461941 8.191341 0.000000
endloop
endfacet
facet normal 0.000000 0.000000 -1.000000
outer loop
vertex 8.436940 8.191340 0.000000
vertex 8.461941 8.191341 0.000000
vertex 8.437063 8.188890 0.000000
endloop
endfacet
facet normal 0.000000 0.000000 -1.000000
outer loop
vertex 8.437421 8.196218 0.000000
vertex 8.438019 8.198597 0.000000
vertex 8.461941 8.191341 0.000000
endloop
endfacet
facet normal 0.000000 0.000000 -1.000000
outer loop
vertex 8.437421 8.196218 0.000000
vertex 8.461941 8.191341 0.000000
vertex 8.437063 8.193789 0.000000
endloop
endfacet
facet normal 0.000000 0.000000 -1.000000
outer loop
vertex 8.438843 8.200907 0.000000
vertex 8.439894 8.203125 0.000000
vertex 8.461941 8.191341 0.000000
endloop
endfacet
facet normal 0.000000 0.000000 -1.000000
outer loop
vertex 8.438843 8.200907 0.000000
vertex 8.461941 8.191341 0.000000
vertex 8.438019 8.198597 0.000000
endloop
endfacet
facet normal 0.000000 0.000000 -1.000000
outer loop
vertex 8.441153 8.205229 0.000000
vertex 8.442616 8.207198 0.000000
vertex 8.461941 8.191341 0.000000
endloop
endfacet
facet normal 0.000000 0.000000 -1.000000
outer loop
vertex 8.441153 8.205229 0.000000
vertex 8.461941 8.191341 0.000000
vertex 8.439894 8.203125 0.000000
endloop
endfacet
facet normal 0.000000 0.000000 -1.000000
outer loop
vertex 8.444263 8.209018 0.000000
vertex 8.446082 8.210664 0.000000
vertex 8.461941 8.191341 0.000000
endloop
endfacet
facet normal 0.000000 0.000000 -1.000000
outer loop
vertex 8.444263 8.209018 0.000000
vertex 8.461941 8.191341 0.000000
vertex 8.442616 8.207198 0.000000
endloop
endfacet
facet normal 0.000000 0.000000 -1.000000
outer loop
vertex 8.448050 8.212127 0.000000
vertex 8.450157 8.213387 0.000000
vertex 8.461941 8.191341 0.000000
endloop
endfacet
facet normal 0.000000 0.000000 -1.000000
outer loop
vertex 8.448050 8.212127 0.000000
vertex 8.461941 8.191341 0.000000
vertex 8.446082 8.210664 0.000000
endloop
endfacet
facet normal 0.000000 0.000000 -1.000000
outer loop
vertex 8.452373 8.214437 0.000000
vertex 8.454683 8.215261 0.000000
vertex 8.461941 8.191341 0.000000
endloop
endfacet
facet normal 0.000000 0.000000 -1.000000
outer loop
vertex 8.452373 8.214437 0.000000
vertex 8.461941 8.191341 0.000000
vertex 8.450157 8.213387 0.000000
endloop
endfacet
facet normal 0.000000 0.000000 -1.000000
outer loop
vertex 8.457063 8.215860 0.000000
vertex 8.459490 8.216217 0.000000
vertex 8.461941 8.191341 0.000000
endloop
endfacet
facet normal 0.000000 0.000000 -1.000000
outer loop
vertex 8.457063 8.215860 0.000000
vertex 8.461941 8.191341 0.000000
vertex 8.454683 8.215261 0.000000
endloop
endfacet
endsolid Exported from Blender-2.82 (sub 7)
