solid Exported from Blender-2.82 (sub 7)
facet normal 0.049162 0.998791 0.000000
outer loop
vertex 11.925000 7.987498 0.000000
vertex 11.925000 7.987498 0.050000
vertex 11.927450 7.987377 0.050000
endloop
endfacet
facet normal 0.049162 0.998791 0.000000
outer loop
vertex 11.925000 7.987498 0.000000
vertex 11.927450 7.987377 0.050000
vertex 11.927450 7.987377 0.000000
endloop
endfacet
facet normal 0.049162 0.998791 0.000000
outer loop
vertex 11.925000 7.987498 0.050000
vertex 11.925000 7.987498 0.100000
vertex 11.927450 7.987377 0.100000
endloop
endfacet
facet normal 0.049162 0.998791 0.000000
outer loop
vertex 11.925000 7.987498 0.050000
vertex 11.927450 7.987377 0.100000
vertex 11.927450 7.987377 0.050000
endloop
endfacet
facet normal 0.146866 0.989156 0.000000
outer loop
vertex 11.927450 7.987377 0.050000
vertex 11.927450 7.987377 0.100000
vertex 11.929877 7.987017 0.100000
endloop
endfacet
facet normal 0.146584 0.989198 0.000000
outer loop
vertex 11.927450 7.987377 0.050000
vertex 11.929877 7.987017 0.100000
vertex 11.929877 7.987017 0.050000
endloop
endfacet
facet normal 0.146866 0.989156 0.000000
outer loop
vertex 11.927450 7.987377 0.000000
vertex 11.927450 7.987377 0.050000
vertex 11.929877 7.987017 0.050000
endloop
endfacet
facet normal 0.146584 0.989198 0.000000
outer loop
vertex 11.927450 7.987377 0.000000
vertex 11.929877 7.987017 0.050000
vertex 11.929877 7.987017 0.000000
endloop
endfacet
facet normal 0.243222 0.969971 0.000000
outer loop
vertex 11.929877 7.987017 0.000000
vertex 11.929877 7.987017 0.050000
vertex 11.932256 7.986421 0.050000
endloop
endfacet
facet normal 0.242764 0.970085 0.000027
outer loop
vertex 11.929877 7.987017 0.000000
vertex 11.932256 7.986421 0.050000
vertex 11.932258 7.986421 0.000000
endloop
endfacet
facet normal 0.242993 0.970028 0.000000
outer loop
vertex 11.929877 7.987017 0.050000
vertex 11.929877 7.987017 0.100000
vertex 11.932258 7.986421 0.100000
endloop
endfacet
facet normal 0.242993 0.970028 -0.000027
outer loop
vertex 11.929877 7.987017 0.050000
vertex 11.932258 7.986421 0.100000
vertex 11.932256 7.986421 0.050000
endloop
endfacet
facet normal 0.336928 0.941531 -0.000030
outer loop
vertex 11.932256 7.986421 0.050000
vertex 11.932258 7.986421 0.100000
vertex 11.934566 7.985595 0.100000
endloop
endfacet
facet normal 0.336928 0.941531 0.000000
outer loop
vertex 11.932256 7.986421 0.050000
vertex 11.934566 7.985595 0.100000
vertex 11.934566 7.985595 0.050000
endloop
endfacet
facet normal 0.336928 0.941531 0.000030
outer loop
vertex 11.932258 7.986421 0.000000
vertex 11.932256 7.986421 0.050000
vertex 11.934566 7.985595 0.050000
endloop
endfacet
facet normal 0.336928 0.941531 0.000000
outer loop
vertex 11.932258 7.986421 0.000000
vertex 11.934566 7.985595 0.050000
vertex 11.934566 7.985595 0.000000
endloop
endfacet
facet normal 0.427293 0.904113 0.000000
outer loop
vertex 11.934566 7.985595 0.000000
vertex 11.934566 7.985595 0.050000
vertex 11.936784 7.984546 0.050000
endloop
endfacet
facet normal 0.427668 0.903936 0.000000
outer loop
vertex 11.934566 7.985595 0.000000
vertex 11.936784 7.984546 0.050000
vertex 11.936784 7.984546 0.000000
endloop
endfacet
facet normal 0.427293 0.904113 0.000000
outer loop
vertex 11.934566 7.985595 0.050000
vertex 11.934566 7.985595 0.100000
vertex 11.936784 7.984546 0.100000
endloop
endfacet
facet normal 0.427668 0.903936 0.000000
outer loop
vertex 11.934566 7.985595 0.050000
vertex 11.936784 7.984546 0.100000
vertex 11.936784 7.984546 0.050000
endloop
endfacet
facet normal 0.513924 0.857836 0.000000
outer loop
vertex 11.936784 7.984546 0.050000
vertex 11.936784 7.984546 0.100000
vertex 11.938889 7.983285 0.100000
endloop
endfacet
facet normal 0.513924 0.857836 0.000000
outer loop
vertex 11.936784 7.984546 0.050000
vertex 11.938889 7.983285 0.100000
vertex 11.938889 7.983285 0.050000
endloop
endfacet
facet normal 0.513924 0.857836 0.000000
outer loop
vertex 11.936784 7.984546 0.000000
vertex 11.936784 7.984546 0.050000
vertex 11.938889 7.983285 0.050000
endloop
endfacet
facet normal 0.513924 0.857836 0.000000
outer loop
vertex 11.936784 7.984546 0.000000
vertex 11.938889 7.983285 0.050000
vertex 11.938889 7.983285 0.000000
endloop
endfacet
facet normal 0.596539 0.802584 0.000000
outer loop
vertex 11.938889 7.983285 0.000000
vertex 11.938889 7.983285 0.050000
vertex 11.940858 7.981823 0.050000
endloop
endfacet
facet normal 0.595608 0.803275 0.000000
outer loop
vertex 11.938889 7.983285 0.000000
vertex 11.940858 7.981823 0.050000
vertex 11.940858 7.981823 0.000000
endloop
endfacet
facet normal 0.596539 0.802584 0.000000
outer loop
vertex 11.938889 7.983285 0.050000
vertex 11.938889 7.983285 0.100000
vertex 11.940858 7.981823 0.100000
endloop
endfacet
facet normal 0.595608 0.803275 0.000000
outer loop
vertex 11.938889 7.983285 0.050000
vertex 11.940858 7.981823 0.100000
vertex 11.940858 7.981823 0.050000
endloop
endfacet
facet normal 0.671646 0.740872 0.000000
outer loop
vertex 11.940858 7.981823 0.050000
vertex 11.940858 7.981823 0.100000
vertex 11.942677 7.980176 0.100000
endloop
endfacet
facet normal 0.671163 0.741310 0.000000
outer loop
vertex 11.940858 7.981823 0.050000
vertex 11.942677 7.980176 0.100000
vertex 11.942677 7.980176 0.050000
endloop
endfacet
facet normal 0.671646 0.740872 0.000000
outer loop
vertex 11.940858 7.981823 0.000000
vertex 11.940858 7.981823 0.050000
vertex 11.942677 7.980176 0.050000
endloop
endfacet
facet normal 0.671163 0.741310 0.000000
outer loop
vertex 11.940858 7.981823 0.000000
vertex 11.942677 7.980176 0.050000
vertex 11.942677 7.980176 0.000000
endloop
endfacet
facet normal 0.740555 0.671996 0.000000
outer loop
vertex 11.942677 7.980176 0.000000
vertex 11.942677 7.980176 0.050000
vertex 11.944324 7.978358 0.050000
endloop
endfacet
facet normal 0.741522 0.670929 0.000000
outer loop
vertex 11.942677 7.980176 0.000000
vertex 11.944324 7.978358 0.050000
vertex 11.944324 7.978358 0.000000
endloop
endfacet
facet normal 0.740555 0.671996 0.000000
outer loop
vertex 11.942677 7.980176 0.050000
vertex 11.942677 7.980176 0.100000
vertex 11.944324 7.978358 0.100000
endloop
endfacet
facet normal 0.741522 0.670929 0.000000
outer loop
vertex 11.942677 7.980176 0.050000
vertex 11.944324 7.978358 0.100000
vertex 11.944324 7.978358 0.050000
endloop
endfacet
facet normal 0.802627 0.596481 0.000000
outer loop
vertex 11.944324 7.978358 0.050000
vertex 11.944324 7.978358 0.100000
vertex 11.945786 7.976388 0.100000
endloop
endfacet
facet normal 0.803092 0.595855 0.000000
outer loop
vertex 11.944324 7.978358 0.050000
vertex 11.945786 7.976388 0.100000
vertex 11.945786 7.976388 0.050000
endloop
endfacet
facet normal 0.802627 0.596481 0.000000
outer loop
vertex 11.944324 7.978358 0.000000
vertex 11.944324 7.978358 0.050000
vertex 11.945786 7.976388 0.050000
endloop
endfacet
facet normal 0.803092 0.595855 0.000000
outer loop
vertex 11.944324 7.978358 0.000000
vertex 11.945786 7.976388 0.050000
vertex 11.945786 7.976388 0.000000
endloop
endfacet
facet normal 0.857682 0.514181 0.000000
outer loop
vertex 11.945786 7.976388 0.000000
vertex 11.945786 7.976388 0.050000
vertex 11.947046 7.974284 0.050000
endloop
endfacet
facet normal 0.858110 0.513466 0.000000
outer loop
vertex 11.945786 7.976388 0.000000
vertex 11.947046 7.974284 0.050000
vertex 11.947046 7.974284 0.000000
endloop
endfacet
facet normal 0.857682 0.514181 0.000000
outer loop
vertex 11.945786 7.976388 0.050000
vertex 11.945786 7.976388 0.100000
vertex 11.947046 7.974284 0.100000
endloop
endfacet
facet normal 0.858110 0.513466 0.000000
outer loop
vertex 11.945786 7.976388 0.050000
vertex 11.947046 7.974284 0.100000
vertex 11.947046 7.974284 0.050000
endloop
endfacet
facet normal 0.904007 0.427518 0.000000
outer loop
vertex 11.947046 7.974284 0.050000
vertex 11.947046 7.974284 0.100000
vertex 11.948095 7.972066 0.100000
endloop
endfacet
facet normal 0.904007 0.427518 0.000000
outer loop
vertex 11.947046 7.974284 0.050000
vertex 11.948095 7.972066 0.100000
vertex 11.948095 7.972066 0.050000
endloop
endfacet
facet normal 0.904007 0.427518 0.000000
outer loop
vertex 11.947046 7.974284 0.000000
vertex 11.947046 7.974284 0.050000
vertex 11.948095 7.972066 0.050000
endloop
endfacet
facet normal 0.904007 0.427518 0.000000
outer loop
vertex 11.947046 7.974284 0.000000
vertex 11.948095 7.972066 0.050000
vertex 11.948095 7.972066 0.000000
endloop
endfacet
facet normal 0.941742 0.336336 0.000000
outer loop
vertex 11.948095 7.972066 0.000000
vertex 11.948095 7.972066 0.050000
vertex 11.948921 7.969756 0.050000
endloop
endfacet
facet normal 0.941434 0.337198 0.000000
outer loop
vertex 11.948095 7.972066 0.000000
vertex 11.948921 7.969756 0.050000
vertex 11.948921 7.969756 0.000000
endloop
endfacet
facet normal 0.941742 0.336336 0.000000
outer loop
vertex 11.948095 7.972066 0.050000
vertex 11.948095 7.972066 0.100000
vertex 11.948921 7.969756 0.100000
endloop
endfacet
facet normal 0.941434 0.337198 0.000000
outer loop
vertex 11.948095 7.972066 0.050000
vertex 11.948921 7.969756 0.100000
vertex 11.948921 7.969756 0.050000
endloop
endfacet
facet normal 0.970016 0.243039 0.000000
outer loop
vertex 11.948921 7.969756 0.050000
vertex 11.948921 7.969756 0.100000
vertex 11.949518 7.967377 0.100000
endloop
endfacet
facet normal 0.969787 0.243953 0.000000
outer loop
vertex 11.948921 7.969756 0.050000
vertex 11.949518 7.967377 0.100000
vertex 11.949518 7.967377 0.050000
endloop
endfacet
facet normal 0.970017 0.243039 0.000000
outer loop
vertex 11.948921 7.969756 0.000000
vertex 11.948921 7.969756 0.050000
vertex 11.949518 7.967377 0.050000
endloop
endfacet
facet normal 0.969787 0.243953 0.000000
outer loop
vertex 11.948921 7.969756 0.000000
vertex 11.949518 7.967377 0.050000
vertex 11.949518 7.967377 0.000000
endloop
endfacet
facet normal 0.989318 0.145774 0.000000
outer loop
vertex 11.949518 7.967377 0.000000
vertex 11.949518 7.967377 0.050000
vertex 11.949877 7.964950 0.050000
endloop
endfacet
facet normal 0.989318 0.145774 0.000000
outer loop
vertex 11.949518 7.967377 0.000000
vertex 11.949877 7.964950 0.050000
vertex 11.949877 7.964950 0.000000
endloop
endfacet
facet normal 0.989318 0.145774 0.000000
outer loop
vertex 11.949518 7.967377 0.050000
vertex 11.949518 7.967377 0.100000
vertex 11.949877 7.964950 0.100000
endloop
endfacet
facet normal 0.989318 0.145774 0.000000
outer loop
vertex 11.949518 7.967377 0.050000
vertex 11.949877 7.964950 0.100000
vertex 11.949877 7.964950 0.050000
endloop
endfacet
facet normal 0.998722 0.050539 0.000000
outer loop
vertex 11.949877 7.964950 0.050000
vertex 11.949877 7.964950 0.100000
vertex 11.949998 7.962500 0.100000
endloop
endfacet
facet normal 0.998818 0.048600 0.000000
outer loop
vertex 11.949877 7.964950 0.050000
vertex 11.949998 7.962500 0.100000
vertex 11.949998 7.962500 0.050000
endloop
endfacet
facet normal 0.998722 0.050539 0.000000
outer loop
vertex 11.949877 7.964950 0.000000
vertex 11.949877 7.964950 0.050000
vertex 11.949998 7.962500 0.050000
endloop
endfacet
facet normal 0.998818 0.048600 0.000000
outer loop
vertex 11.949877 7.964950 0.000000
vertex 11.949998 7.962500 0.050000
vertex 11.949998 7.962500 0.000000
endloop
endfacet
facet normal 0.998818 -0.048600 0.000000
outer loop
vertex 11.949998 7.962500 0.000000
vertex 11.949998 7.962500 0.050000
vertex 11.949877 7.960050 0.050000
endloop
endfacet
facet normal 0.998722 -0.050539 0.000000
outer loop
vertex 11.949998 7.962500 0.000000
vertex 11.949877 7.960050 0.050000
vertex 11.949877 7.960050 0.000000
endloop
endfacet
facet normal 0.998818 -0.048600 0.000000
outer loop
vertex 11.949998 7.962500 0.050000
vertex 11.949998 7.962500 0.100000
vertex 11.949877 7.960050 0.100000
endloop
endfacet
facet normal 0.998722 -0.050539 0.000000
outer loop
vertex 11.949998 7.962500 0.050000
vertex 11.949877 7.960050 0.100000
vertex 11.949877 7.960050 0.050000
endloop
endfacet
facet normal 0.989318 -0.145774 0.000000
outer loop
vertex 11.949877 7.960050 0.050000
vertex 11.949877 7.960050 0.100000
vertex 11.949518 7.957623 0.100000
endloop
endfacet
facet normal 0.989318 -0.145774 0.000000
outer loop
vertex 11.949877 7.960050 0.050000
vertex 11.949518 7.957623 0.100000
vertex 11.949518 7.957623 0.050000
endloop
endfacet
facet normal 0.989318 -0.145774 0.000000
outer loop
vertex 11.949877 7.960050 0.000000
vertex 11.949877 7.960050 0.050000
vertex 11.949518 7.957623 0.050000
endloop
endfacet
facet normal 0.989318 -0.145774 0.000000
outer loop
vertex 11.949877 7.960050 0.000000
vertex 11.949518 7.957623 0.050000
vertex 11.949518 7.957623 0.000000
endloop
endfacet
facet normal 0.969787 -0.243953 0.000000
outer loop
vertex 11.949518 7.957623 0.000000
vertex 11.949518 7.957623 0.050000
vertex 11.948921 7.955244 0.050000
endloop
endfacet
facet normal 0.970017 -0.243039 0.000000
outer loop
vertex 11.949518 7.957623 0.000000
vertex 11.948921 7.955244 0.050000
vertex 11.948921 7.955244 0.000000
endloop
endfacet
facet normal 0.969787 -0.243953 0.000000
outer loop
vertex 11.949518 7.957623 0.050000
vertex 11.949518 7.957623 0.100000
vertex 11.948921 7.955244 0.100000
endloop
endfacet
facet normal 0.970016 -0.243039 0.000000
outer loop
vertex 11.949518 7.957623 0.050000
vertex 11.948921 7.955244 0.100000
vertex 11.948921 7.955244 0.050000
endloop
endfacet
facet normal 0.941456 -0.337136 0.000000
outer loop
vertex 11.948921 7.955244 0.050000
vertex 11.948921 7.955244 0.100000
vertex 11.948095 7.952934 0.100000
endloop
endfacet
facet normal 0.941764 -0.336275 0.000000
outer loop
vertex 11.948921 7.955244 0.050000
vertex 11.948095 7.952934 0.100000
vertex 11.948095 7.952934 0.050000
endloop
endfacet
facet normal 0.941456 -0.337136 0.000000
outer loop
vertex 11.948921 7.955244 0.000000
vertex 11.948921 7.955244 0.050000
vertex 11.948095 7.952934 0.050000
endloop
endfacet
facet normal 0.941764 -0.336275 0.000000
outer loop
vertex 11.948921 7.955244 0.000000
vertex 11.948095 7.952934 0.050000
vertex 11.948095 7.952934 0.000000
endloop
endfacet
facet normal 0.903971 -0.427593 0.000000
outer loop
vertex 11.948095 7.952934 0.000000
vertex 11.948095 7.952934 0.050000
vertex 11.947046 7.950716 0.050000
endloop
endfacet
facet normal 0.903900 -0.427744 0.000000
outer loop
vertex 11.948095 7.952934 0.000000
vertex 11.947046 7.950716 0.050000
vertex 11.947046 7.950717 0.000000
endloop
endfacet
facet normal 0.903900 -0.427744 0.000000
outer loop
vertex 11.948095 7.952934 0.050000
vertex 11.948095 7.952934 0.100000
vertex 11.947046 7.950717 0.100000
endloop
endfacet
facet normal 0.903971 -0.427593 0.000000
outer loop
vertex 11.948095 7.952934 0.050000
vertex 11.947046 7.950717 0.100000
vertex 11.947046 7.950716 0.050000
endloop
endfacet
facet normal 0.858213 -0.513294 0.000015
outer loop
vertex 11.947046 7.950716 0.050000
vertex 11.947046 7.950717 0.100000
vertex 11.945786 7.948612 0.100000
endloop
endfacet
facet normal 0.857682 -0.514181 0.000000
outer loop
vertex 11.947046 7.950716 0.050000
vertex 11.945786 7.948612 0.100000
vertex 11.945786 7.948612 0.050000
endloop
endfacet
facet normal 0.858110 -0.513466 -0.000015
outer loop
vertex 11.947046 7.950717 0.000000
vertex 11.947046 7.950716 0.050000
vertex 11.945786 7.948612 0.050000
endloop
endfacet
facet normal 0.857784 -0.514010 0.000000
outer loop
vertex 11.947046 7.950717 0.000000
vertex 11.945786 7.948612 0.050000
vertex 11.945786 7.948612 0.000000
endloop
endfacet
facet normal 0.803161 -0.595762 0.000000
outer loop
vertex 11.945786 7.948612 0.000000
vertex 11.945786 7.948612 0.050000
vertex 11.944324 7.946642 0.050000
endloop
endfacet
facet normal 0.802696 -0.596388 0.000000
outer loop
vertex 11.945786 7.948612 0.000000
vertex 11.944324 7.946642 0.050000
vertex 11.944324 7.946642 0.000000
endloop
endfacet
facet normal 0.803161 -0.595762 0.000000
outer loop
vertex 11.945786 7.948612 0.050000
vertex 11.945786 7.948612 0.100000
vertex 11.944324 7.946642 0.100000
endloop
endfacet
facet normal 0.802696 -0.596388 0.000000
outer loop
vertex 11.945786 7.948612 0.050000
vertex 11.944324 7.946642 0.100000
vertex 11.944324 7.946642 0.050000
endloop
endfacet
facet normal 0.741434 -0.671025 0.000000
outer loop
vertex 11.944324 7.946642 0.050000
vertex 11.944324 7.946642 0.100000
vertex 11.942677 7.944824 0.100000
endloop
endfacet
facet normal 0.740467 -0.672092 0.000000
outer loop
vertex 11.944324 7.946642 0.050000
vertex 11.942677 7.944824 0.100000
vertex 11.942677 7.944824 0.050000
endloop
endfacet
facet normal 0.741434 -0.671025 0.000000
outer loop
vertex 11.944324 7.946642 0.000000
vertex 11.944324 7.946642 0.050000
vertex 11.942677 7.944824 0.050000
endloop
endfacet
facet normal 0.740467 -0.672092 0.000000
outer loop
vertex 11.944324 7.946642 0.000000
vertex 11.942677 7.944824 0.050000
vertex 11.942677 7.944824 0.000000
endloop
endfacet
facet normal 0.671163 -0.741310 0.000000
outer loop
vertex 11.942677 7.944824 0.000000
vertex 11.942677 7.944824 0.050000
vertex 11.940858 7.943177 0.050000
endloop
endfacet
facet normal 0.671646 -0.740872 0.000000
outer loop
vertex 11.942677 7.944824 0.000000
vertex 11.940858 7.943177 0.050000
vertex 11.940858 7.943177 0.000000
endloop
endfacet
facet normal 0.671162 -0.741310 0.000000
outer loop
vertex 11.942677 7.944824 0.050000
vertex 11.942677 7.944824 0.100000
vertex 11.940858 7.943177 0.100000
endloop
endfacet
facet normal 0.671646 -0.740872 0.000000
outer loop
vertex 11.942677 7.944824 0.050000
vertex 11.940858 7.943177 0.100000
vertex 11.940858 7.943177 0.050000
endloop
endfacet
facet normal 0.595734 -0.803182 0.000000
outer loop
vertex 11.940858 7.943177 0.050000
vertex 11.940858 7.943177 0.100000
vertex 11.938889 7.941715 0.100000
endloop
endfacet
facet normal 0.596664 -0.802491 0.000000
outer loop
vertex 11.940858 7.943177 0.050000
vertex 11.938889 7.941715 0.100000
vertex 11.938889 7.941715 0.050000
endloop
endfacet
facet normal 0.595734 -0.803182 0.000000
outer loop
vertex 11.940858 7.943177 0.000000
vertex 11.940858 7.943177 0.050000
vertex 11.938889 7.941715 0.050000
endloop
endfacet
facet normal 0.596664 -0.802491 0.000000
outer loop
vertex 11.940858 7.943177 0.000000
vertex 11.938889 7.941715 0.050000
vertex 11.938889 7.941715 0.000000
endloop
endfacet
facet normal 0.513781 -0.857921 0.000000
outer loop
vertex 11.938889 7.941715 0.000000
vertex 11.938889 7.941715 0.050000
vertex 11.936784 7.940454 0.050000
endloop
endfacet
facet normal 0.513781 -0.857921 0.000000
outer loop
vertex 11.938889 7.941715 0.000000
vertex 11.936784 7.940454 0.050000
vertex 11.936784 7.940454 0.000000
endloop
endfacet
facet normal 0.513781 -0.857921 0.000000
outer loop
vertex 11.938889 7.941715 0.050000
vertex 11.938889 7.941715 0.100000
vertex 11.936784 7.940454 0.100000
endloop
endfacet
facet normal 0.513781 -0.857921 0.000000
outer loop
vertex 11.938889 7.941715 0.050000
vertex 11.936784 7.940454 0.100000
vertex 11.936784 7.940454 0.050000
endloop
endfacet
facet normal 0.427351 -0.904086 0.000000
outer loop
vertex 11.936784 7.940454 0.050000
vertex 11.936784 7.940454 0.100000
vertex 11.934566 7.939406 0.100000
endloop
endfacet
facet normal 0.426975 -0.904263 0.000000
outer loop
vertex 11.936784 7.940454 0.050000
vertex 11.934566 7.939406 0.100000
vertex 11.934566 7.939406 0.050000
endloop
endfacet
facet normal 0.427351 -0.904086 0.000000
outer loop
vertex 11.936784 7.940454 0.000000
vertex 11.936784 7.940454 0.050000
vertex 11.934566 7.939406 0.050000
endloop
endfacet
facet normal 0.426975 -0.904263 0.000000
outer loop
vertex 11.936784 7.940454 0.000000
vertex 11.934566 7.939406 0.050000
vertex 11.934566 7.939406 0.000000
endloop
endfacet
facet normal 0.337273 -0.941407 0.000000
outer loop
vertex 11.934566 7.939406 0.000000
vertex 11.934566 7.939406 0.050000
vertex 11.932258 7.938579 0.050000
endloop
endfacet
facet normal 0.337273 -0.941407 0.000000
outer loop
vertex 11.934566 7.939406 0.000000
vertex 11.932258 7.938579 0.050000
vertex 11.932258 7.938579 0.000000
endloop
endfacet
facet normal 0.337273 -0.941407 0.000000
outer loop
vertex 11.934566 7.939406 0.050000
vertex 11.934566 7.939406 0.100000
vertex 11.932258 7.938579 0.100000
endloop
endfacet
facet normal 0.337273 -0.941407 0.000000
outer loop
vertex 11.934566 7.939406 0.050000
vertex 11.932258 7.938579 0.100000
vertex 11.932258 7.938579 0.050000
endloop
endfacet
facet normal 0.242993 -0.970028 0.000000
outer loop
vertex 11.932258 7.938579 0.050000
vertex 11.932258 7.938579 0.100000
vertex 11.929877 7.937983 0.100000
endloop
endfacet
facet normal 0.242993 -0.970028 0.000000
outer loop
vertex 11.932258 7.938579 0.050000
vertex 11.929877 7.937983 0.100000
vertex 11.929877 7.937983 0.050000
endloop
endfacet
facet normal 0.242993 -0.970028 0.000000
outer loop
vertex 11.932258 7.938579 0.000000
vertex 11.932258 7.938579 0.050000
vertex 11.929877 7.937983 0.050000
endloop
endfacet
facet normal 0.242993 -0.970028 0.000000
outer loop
vertex 11.932258 7.938579 0.000000
vertex 11.929877 7.937983 0.050000
vertex 11.929877 7.937983 0.000000
endloop
endfacet
facet normal 0.146584 -0.989198 0.000000
outer loop
vertex 11.929877 7.937983 0.000000
vertex 11.929877 7.937983 0.050000
vertex 11.927450 7.937623 0.050000
endloop
endfacet
facet normal 0.146866 -0.989156 0.000000
outer loop
vertex 11.929877 7.937983 0.000000
vertex 11.927450 7.937623 0.050000
vertex 11.927450 7.937623 0.000000
endloop
endfacet
facet normal 0.146584 -0.989198 0.000000
outer loop
vertex 11.929877 7.937983 0.050000
vertex 11.929877 7.937983 0.100000
vertex 11.927450 7.937623 0.100000
endloop
endfacet
facet normal 0.146866 -0.989156 0.000000
outer loop
vertex 11.929877 7.937983 0.050000
vertex 11.927450 7.937623 0.100000
vertex 11.927450 7.937623 0.050000
endloop
endfacet
facet normal 0.048968 -0.998800 0.000000
outer loop
vertex 11.927450 7.937623 0.050000
vertex 11.927450 7.937623 0.100000
vertex 11.925000 7.937503 0.100000
endloop
endfacet
facet normal 0.048968 -0.998800 0.000000
outer loop
vertex 11.927450 7.937623 0.050000
vertex 11.925000 7.937503 0.100000
vertex 11.925000 7.937503 0.050000
endloop
endfacet
facet normal 0.048968 -0.998800 0.000000
outer loop
vertex 11.927450 7.937623 0.000000
vertex 11.927450 7.937623 0.050000
vertex 11.925000 7.937503 0.050000
endloop
endfacet
facet normal 0.048968 -0.998800 0.000000
outer loop
vertex 11.927450 7.937623 0.000000
vertex 11.925000 7.937503 0.050000
vertex 11.925000 7.937503 0.000000
endloop
endfacet
facet normal -0.048968 -0.998800 0.000000
outer loop
vertex 11.925000 7.937503 0.000000
vertex 11.925000 7.937503 0.050000
vertex 11.922550 7.937623 0.050000
endloop
endfacet
facet normal -0.049016 -0.998798 0.000000
outer loop
vertex 11.925000 7.937503 0.000000
vertex 11.922550 7.937623 0.050000
vertex 11.922550 7.937623 0.000000
endloop
endfacet
facet normal -0.048968 -0.998800 0.000000
outer loop
vertex 11.925000 7.937503 0.050000
vertex 11.925000 7.937503 0.100000
vertex 11.922550 7.937623 0.100000
endloop
endfacet
facet normal -0.049016 -0.998798 0.000000
outer loop
vertex 11.925000 7.937503 0.050000
vertex 11.922550 7.937623 0.100000
vertex 11.922550 7.937623 0.050000
endloop
endfacet
facet normal -0.146866 -0.989156 0.000000
outer loop
vertex 11.922550 7.937623 0.050000
vertex 11.922550 7.937623 0.100000
vertex 11.920124 7.937983 0.100000
endloop
endfacet
facet normal -0.146725 -0.989177 0.000000
outer loop
vertex 11.922550 7.937623 0.050000
vertex 11.920124 7.937983 0.100000
vertex 11.920124 7.937983 0.050000
endloop
endfacet
facet normal -0.146866 -0.989156 0.000000
outer loop
vertex 11.922550 7.937623 0.000000
vertex 11.922550 7.937623 0.050000
vertex 11.920124 7.937983 0.050000
endloop
endfacet
facet normal -0.146725 -0.989177 0.000000
outer loop
vertex 11.922550 7.937623 0.000000
vertex 11.920124 7.937983 0.050000
vertex 11.920124 7.937983 0.000000
endloop
endfacet
facet normal -0.242993 -0.970028 0.000000
outer loop
vertex 11.920124 7.937983 0.000000
vertex 11.920124 7.937983 0.050000
vertex 11.917745 7.938579 0.050000
endloop
endfacet
facet normal -0.242993 -0.970028 0.000000
outer loop
vertex 11.920124 7.937983 0.000000
vertex 11.917745 7.938579 0.050000
vertex 11.917745 7.938579 0.000000
endloop
endfacet
facet normal -0.242993 -0.970028 0.000000
outer loop
vertex 11.920124 7.937983 0.050000
vertex 11.920124 7.937983 0.100000
vertex 11.917745 7.938579 0.100000
endloop
endfacet
facet normal -0.242993 -0.970028 0.000000
outer loop
vertex 11.920124 7.937983 0.050000
vertex 11.917745 7.938579 0.100000
vertex 11.917745 7.938579 0.050000
endloop
endfacet
facet normal -0.336964 -0.941518 0.000000
outer loop
vertex 11.917745 7.938579 0.050000
vertex 11.917745 7.938579 0.100000
vertex 11.915434 7.939406 0.100000
endloop
endfacet
facet normal -0.336964 -0.941518 0.000000
outer loop
vertex 11.917745 7.938579 0.050000
vertex 11.915434 7.939406 0.100000
vertex 11.915434 7.939406 0.050000
endloop
endfacet
facet normal -0.336964 -0.941518 0.000000
outer loop
vertex 11.917745 7.938579 0.000000
vertex 11.917745 7.938579 0.050000
vertex 11.915434 7.939406 0.050000
endloop
endfacet
facet normal -0.336964 -0.941518 0.000000
outer loop
vertex 11.917745 7.938579 0.000000
vertex 11.915434 7.939406 0.050000
vertex 11.915434 7.939406 0.000000
endloop
endfacet
facet normal -0.427351 -0.904086 0.000000
outer loop
vertex 11.915434 7.939406 0.000000
vertex 11.915434 7.939406 0.050000
vertex 11.913217 7.940454 0.050000
endloop
endfacet
facet normal -0.427351 -0.904086 0.000000
outer loop
vertex 11.915434 7.939406 0.000000
vertex 11.913217 7.940454 0.050000
vertex 11.913217 7.940454 0.000000
endloop
endfacet
facet normal -0.427351 -0.904086 0.000000
outer loop
vertex 11.915434 7.939406 0.050000
vertex 11.915434 7.939406 0.100000
vertex 11.913217 7.940454 0.100000
endloop
endfacet
facet normal -0.427351 -0.904086 0.000000
outer loop
vertex 11.915434 7.939406 0.050000
vertex 11.913217 7.940454 0.100000
vertex 11.913217 7.940454 0.050000
endloop
endfacet
facet normal -0.513781 -0.857921 0.000000
outer loop
vertex 11.913217 7.940454 0.050000
vertex 11.913217 7.940454 0.100000
vertex 11.911112 7.941715 0.100000
endloop
endfacet
facet normal -0.513781 -0.857921 0.000000
outer loop
vertex 11.913217 7.940454 0.050000
vertex 11.911112 7.941715 0.100000
vertex 11.911112 7.941715 0.050000
endloop
endfacet
facet normal -0.513781 -0.857921 0.000000
outer loop
vertex 11.913217 7.940454 0.000000
vertex 11.913217 7.940454 0.050000
vertex 11.911112 7.941715 0.050000
endloop
endfacet
facet normal -0.513781 -0.857921 0.000000
outer loop
vertex 11.913217 7.940454 0.000000
vertex 11.911112 7.941715 0.050000
vertex 11.911112 7.941715 0.000000
endloop
endfacet
facet normal -0.596199 -0.802837 0.000000
outer loop
vertex 11.911112 7.941715 0.000000
vertex 11.911112 7.941715 0.050000
vertex 11.909142 7.943177 0.050000
endloop
endfacet
facet normal -0.595734 -0.803182 0.000000
outer loop
vertex 11.911112 7.941715 0.000000
vertex 11.909142 7.943177 0.050000
vertex 11.909142 7.943177 0.000000
endloop
endfacet
facet normal -0.596199 -0.802837 0.000000
outer loop
vertex 11.911112 7.941715 0.050000
vertex 11.911112 7.941715 0.100000
vertex 11.909142 7.943177 0.100000
endloop
endfacet
facet normal -0.595734 -0.803182 0.000000
outer loop
vertex 11.911112 7.941715 0.050000
vertex 11.909142 7.943177 0.100000
vertex 11.909142 7.943177 0.050000
endloop
endfacet
facet normal -0.671646 -0.740872 0.000000
outer loop
vertex 11.909142 7.943177 0.050000
vertex 11.909142 7.943177 0.100000
vertex 11.907324 7.944824 0.100000
endloop
endfacet
facet normal -0.671163 -0.741310 0.000000
outer loop
vertex 11.909142 7.943177 0.050000
vertex 11.907324 7.944824 0.100000
vertex 11.907324 7.944824 0.050000
endloop
endfacet
facet normal -0.671646 -0.740872 0.000000
outer loop
vertex 11.909142 7.943177 0.000000
vertex 11.909142 7.943177 0.050000
vertex 11.907324 7.944824 0.050000
endloop
endfacet
facet normal -0.671163 -0.741310 0.000000
outer loop
vertex 11.909142 7.943177 0.000000
vertex 11.907324 7.944824 0.050000
vertex 11.907324 7.944824 0.000000
endloop
endfacet
facet normal -0.740951 -0.671559 0.000000
outer loop
vertex 11.907324 7.944824 0.000000
vertex 11.907324 7.944824 0.050000
vertex 11.905677 7.946642 0.050000
endloop
endfacet
facet normal -0.741434 -0.671025 0.000000
outer loop
vertex 11.907324 7.944824 0.000000
vertex 11.905677 7.946642 0.050000
vertex 11.905677 7.946642 0.000000
endloop
endfacet
facet normal -0.740951 -0.671559 0.000000
outer loop
vertex 11.907324 7.944824 0.050000
vertex 11.907324 7.944824 0.100000
vertex 11.905677 7.946642 0.100000
endloop
endfacet
facet normal -0.741434 -0.671025 0.000000
outer loop
vertex 11.907324 7.944824 0.050000
vertex 11.905677 7.946642 0.100000
vertex 11.905677 7.946642 0.050000
endloop
endfacet
facet normal -0.803161 -0.595762 0.000000
outer loop
vertex 11.905677 7.946642 0.050000
vertex 11.905677 7.946642 0.100000
vertex 11.904216 7.948612 0.100000
endloop
endfacet
facet normal -0.803161 -0.595762 0.000000
outer loop
vertex 11.905677 7.946642 0.050000
vertex 11.904216 7.948612 0.100000
vertex 11.904216 7.948612 0.050000
endloop
endfacet
facet normal -0.803161 -0.595762 0.000000
outer loop
vertex 11.905677 7.946642 0.000000
vertex 11.905677 7.946642 0.050000
vertex 11.904216 7.948612 0.050000
endloop
endfacet
facet normal -0.803161 -0.595762 0.000000
outer loop
vertex 11.905677 7.946642 0.000000
vertex 11.904216 7.948612 0.050000
vertex 11.904216 7.948612 0.000000
endloop
endfacet
facet normal -0.857682 -0.514181 0.000000
outer loop
vertex 11.904216 7.948612 0.000000
vertex 11.904216 7.948612 0.050000
vertex 11.902954 7.950716 0.050000
endloop
endfacet
facet normal -0.857682 -0.514181 -0.000023
outer loop
vertex 11.904216 7.948612 0.000000
vertex 11.902954 7.950716 0.050000
vertex 11.902955 7.950716 0.000000
endloop
endfacet
facet normal -0.857682 -0.514181 0.000000
outer loop
vertex 11.904216 7.948612 0.050000
vertex 11.904216 7.948612 0.100000
vertex 11.902955 7.950716 0.100000
endloop
endfacet
facet normal -0.857682 -0.514181 0.000023
outer loop
vertex 11.904216 7.948612 0.050000
vertex 11.902955 7.950716 0.100000
vertex 11.902954 7.950716 0.050000
endloop
endfacet
facet normal -0.903971 -0.427593 0.000015
outer loop
vertex 11.902954 7.950716 0.050000
vertex 11.902955 7.950716 0.100000
vertex 11.901905 7.952934 0.100000
endloop
endfacet
facet normal -0.903971 -0.427593 0.000000
outer loop
vertex 11.902954 7.950716 0.050000
vertex 11.901905 7.952934 0.100000
vertex 11.901905 7.952934 0.050000
endloop
endfacet
facet normal -0.903971 -0.427593 -0.000015
outer loop
vertex 11.902955 7.950716 0.000000
vertex 11.902954 7.950716 0.050000
vertex 11.901905 7.952934 0.050000
endloop
endfacet
facet normal -0.903971 -0.427593 0.000000
outer loop
vertex 11.902955 7.950716 0.000000
vertex 11.901905 7.952934 0.050000
vertex 11.901905 7.952934 0.000000
endloop
endfacet
facet normal -0.941456 -0.337136 0.000000
outer loop
vertex 11.901905 7.952934 0.000000
vertex 11.901905 7.952934 0.050000
vertex 11.901079 7.955244 0.050000
endloop
endfacet
facet normal -0.941764 -0.336275 0.000000
outer loop
vertex 11.901905 7.952934 0.000000
vertex 11.901079 7.955244 0.050000
vertex 11.901079 7.955244 0.000000
endloop
endfacet
facet normal -0.941456 -0.337136 0.000000
outer loop
vertex 11.901905 7.952934 0.050000
vertex 11.901905 7.952934 0.100000
vertex 11.901079 7.955244 0.100000
endloop
endfacet
facet normal -0.941764 -0.336275 0.000000
outer loop
vertex 11.901905 7.952934 0.050000
vertex 11.901079 7.955244 0.100000
vertex 11.901079 7.955244 0.050000
endloop
endfacet
facet normal -0.970016 -0.243039 0.000000
outer loop
vertex 11.901079 7.955244 0.050000
vertex 11.901079 7.955244 0.100000
vertex 11.900483 7.957623 0.100000
endloop
endfacet
facet normal -0.970039 -0.242947 -0.000008
outer loop
vertex 11.901079 7.955244 0.050000
vertex 11.900483 7.957623 0.100000
vertex 11.900483 7.957624 0.050000
endloop
endfacet
facet normal -0.970039 -0.242947 0.000000
outer loop
vertex 11.901079 7.955244 0.000000
vertex 11.901079 7.955244 0.050000
vertex 11.900483 7.957624 0.050000
endloop
endfacet
facet normal -0.970017 -0.243039 0.000008
outer loop
vertex 11.901079 7.955244 0.000000
vertex 11.900483 7.957624 0.050000
vertex 11.900483 7.957623 0.000000
endloop
endfacet
facet normal -0.989169 -0.146781 0.000000
outer loop
vertex 11.900483 7.957623 0.000000
vertex 11.900483 7.957624 0.050000
vertex 11.900124 7.960050 0.050000
endloop
endfacet
facet normal -0.989177 -0.146725 0.000000
outer loop
vertex 11.900483 7.957623 0.000000
vertex 11.900124 7.960050 0.050000
vertex 11.900124 7.960050 0.000000
endloop
endfacet
facet normal -0.989177 -0.146725 0.000000
outer loop
vertex 11.900483 7.957624 0.050000
vertex 11.900483 7.957623 0.100000
vertex 11.900124 7.960050 0.100000
endloop
endfacet
facet normal -0.989169 -0.146781 0.000000
outer loop
vertex 11.900483 7.957624 0.050000
vertex 11.900124 7.960050 0.100000
vertex 11.900124 7.960050 0.050000
endloop
endfacet
facet normal -0.998818 -0.048600 0.000000
outer loop
vertex 11.900124 7.960050 0.050000
vertex 11.900124 7.960050 0.100000
vertex 11.900003 7.962500 0.100000
endloop
endfacet
facet normal -0.998818 -0.048600 0.000000
outer loop
vertex 11.900124 7.960050 0.050000
vertex 11.900003 7.962500 0.100000
vertex 11.900003 7.962500 0.050000
endloop
endfacet
facet normal -0.998818 -0.048600 0.000000
outer loop
vertex 11.900124 7.960050 0.000000
vertex 11.900124 7.960050 0.050000
vertex 11.900003 7.962500 0.050000
endloop
endfacet
facet normal -0.998818 -0.048600 0.000000
outer loop
vertex 11.900124 7.960050 0.000000
vertex 11.900003 7.962500 0.050000
vertex 11.900003 7.962500 0.000000
endloop
endfacet
facet normal -0.998818 0.048600 0.000000
outer loop
vertex 11.900003 7.962500 0.000000
vertex 11.900003 7.962500 0.050000
vertex 11.900124 7.964950 0.050000
endloop
endfacet
facet normal -0.998818 0.048600 0.000000
outer loop
vertex 11.900003 7.962500 0.000000
vertex 11.900124 7.964950 0.050000
vertex 11.900124 7.964950 0.000000
endloop
endfacet
facet normal -0.998818 0.048600 0.000000
outer loop
vertex 11.900003 7.962500 0.050000
vertex 11.900003 7.962500 0.100000
vertex 11.900124 7.964950 0.100000
endloop
endfacet
facet normal -0.998818 0.048600 0.000000
outer loop
vertex 11.900003 7.962500 0.050000
vertex 11.900124 7.964950 0.100000
vertex 11.900124 7.964950 0.050000
endloop
endfacet
facet normal -0.989177 0.146725 0.000000
outer loop
vertex 11.900124 7.964950 0.050000
vertex 11.900124 7.964950 0.100000
vertex 11.900483 7.967377 0.100000
endloop
endfacet
facet normal -0.989177 0.146725 0.000000
outer loop
vertex 11.900124 7.964950 0.050000
vertex 11.900483 7.967377 0.100000
vertex 11.900483 7.967377 0.050000
endloop
endfacet
facet normal -0.989177 0.146725 0.000000
outer loop
vertex 11.900124 7.964950 0.000000
vertex 11.900124 7.964950 0.050000
vertex 11.900483 7.967377 0.050000
endloop
endfacet
facet normal -0.989177 0.146725 0.000000
outer loop
vertex 11.900124 7.964950 0.000000
vertex 11.900483 7.967377 0.050000
vertex 11.900483 7.967377 0.000000
endloop
endfacet
facet normal -0.970017 0.243039 0.000000
outer loop
vertex 11.900483 7.967377 0.000000
vertex 11.900483 7.967377 0.050000
vertex 11.901079 7.969756 0.050000
endloop
endfacet
facet normal -0.970039 0.242947 0.000000
outer loop
vertex 11.900483 7.967377 0.000000
vertex 11.901079 7.969756 0.050000
vertex 11.901079 7.969757 0.000000
endloop
endfacet
facet normal -0.970040 0.242947 0.000000
outer loop
vertex 11.900483 7.967377 0.050000
vertex 11.900483 7.967377 0.100000
vertex 11.901079 7.969757 0.100000
endloop
endfacet
facet normal -0.970017 0.243039 0.000000
outer loop
vertex 11.900483 7.967377 0.050000
vertex 11.901079 7.969757 0.100000
vertex 11.901079 7.969756 0.050000
endloop
endfacet
facet normal -0.941390 0.337322 -0.000008
outer loop
vertex 11.901079 7.969756 0.050000
vertex 11.901079 7.969757 0.100000
vertex 11.901906 7.972066 0.100000
endloop
endfacet
facet normal -0.941434 0.337198 0.000000
outer loop
vertex 11.901079 7.969756 0.050000
vertex 11.901906 7.972066 0.100000
vertex 11.901906 7.972066 0.050000
endloop
endfacet
facet normal -0.941434 0.337198 0.000008
outer loop
vertex 11.901079 7.969757 0.000000
vertex 11.901079 7.969756 0.050000
vertex 11.901906 7.972066 0.050000
endloop
endfacet
facet normal -0.941390 0.337322 0.000000
outer loop
vertex 11.901079 7.969757 0.000000
vertex 11.901906 7.972066 0.050000
vertex 11.901906 7.972066 0.000000
endloop
endfacet
facet normal -0.904382 0.426724 0.000000
outer loop
vertex 11.901906 7.972066 0.000000
vertex 11.901906 7.972066 0.050000
vertex 11.902954 7.974284 0.050000
endloop
endfacet
facet normal -0.904007 0.427518 -0.000025
outer loop
vertex 11.901906 7.972066 0.000000
vertex 11.902954 7.974284 0.050000
vertex 11.902955 7.974284 0.000000
endloop
endfacet
facet normal -0.904007 0.427518 0.000000
outer loop
vertex 11.901906 7.972066 0.050000
vertex 11.901906 7.972066 0.100000
vertex 11.902955 7.974284 0.100000
endloop
endfacet
facet normal -0.904382 0.426724 0.000025
outer loop
vertex 11.901906 7.972066 0.050000
vertex 11.902955 7.974284 0.100000
vertex 11.902954 7.974284 0.050000
endloop
endfacet
facet normal -0.857682 0.514181 0.000000
outer loop
vertex 11.902954 7.974284 0.050000
vertex 11.902955 7.974284 0.100000
vertex 11.904216 7.976388 0.100000
endloop
endfacet
facet normal -0.857682 0.514181 0.000000
outer loop
vertex 11.902954 7.974284 0.050000
vertex 11.904216 7.976388 0.100000
vertex 11.904216 7.976388 0.050000
endloop
endfacet
facet normal -0.857682 0.514181 0.000000
outer loop
vertex 11.902955 7.974284 0.000000
vertex 11.902954 7.974284 0.050000
vertex 11.904216 7.976388 0.050000
endloop
endfacet
facet normal -0.857682 0.514181 0.000000
outer loop
vertex 11.902955 7.974284 0.000000
vertex 11.904216 7.976388 0.050000
vertex 11.904216 7.976388 0.000000
endloop
endfacet
facet normal -0.803092 0.595855 0.000000
outer loop
vertex 11.904216 7.976388 0.000000
vertex 11.904216 7.976388 0.050000
vertex 11.905677 7.978358 0.050000
endloop
endfacet
facet normal -0.803092 0.595855 0.000000
outer loop
vertex 11.904216 7.976388 0.000000
vertex 11.905677 7.978358 0.050000
vertex 11.905677 7.978358 0.000000
endloop
endfacet
facet normal -0.803092 0.595855 0.000000
outer loop
vertex 11.904216 7.976388 0.050000
vertex 11.904216 7.976388 0.100000
vertex 11.905677 7.978358 0.100000
endloop
endfacet
facet normal -0.803092 0.595855 0.000000
outer loop
vertex 11.904216 7.976388 0.050000
vertex 11.905677 7.978358 0.100000
vertex 11.905677 7.978358 0.050000
endloop
endfacet
facet normal -0.741522 0.670928 0.000000
outer loop
vertex 11.905677 7.978358 0.050000
vertex 11.905677 7.978358 0.100000
vertex 11.907324 7.980176 0.100000
endloop
endfacet
facet normal -0.741038 0.671463 0.000000
outer loop
vertex 11.905677 7.978358 0.050000
vertex 11.907324 7.980176 0.100000
vertex 11.907324 7.980176 0.050000
endloop
endfacet
facet normal -0.741522 0.670929 0.000000
outer loop
vertex 11.905677 7.978358 0.000000
vertex 11.905677 7.978358 0.050000
vertex 11.907324 7.980176 0.050000
endloop
endfacet
facet normal -0.741038 0.671463 0.000000
outer loop
vertex 11.905677 7.978358 0.000000
vertex 11.907324 7.980176 0.050000
vertex 11.907324 7.980176 0.000000
endloop
endfacet
facet normal -0.671163 0.741310 0.000000
outer loop
vertex 11.907324 7.980176 0.000000
vertex 11.907324 7.980176 0.050000
vertex 11.909142 7.981823 0.050000
endloop
endfacet
facet normal -0.671646 0.740872 0.000000
outer loop
vertex 11.907324 7.980176 0.000000
vertex 11.909142 7.981823 0.050000
vertex 11.909142 7.981823 0.000000
endloop
endfacet
facet normal -0.671162 0.741310 0.000000
outer loop
vertex 11.907324 7.980176 0.050000
vertex 11.907324 7.980176 0.100000
vertex 11.909142 7.981823 0.100000
endloop
endfacet
facet normal -0.671646 0.740872 0.000000
outer loop
vertex 11.907324 7.980176 0.050000
vertex 11.909142 7.981823 0.100000
vertex 11.909142 7.981823 0.050000
endloop
endfacet
facet normal -0.595608 0.803275 0.000000
outer loop
vertex 11.909142 7.981823 0.050000
vertex 11.909142 7.981823 0.100000
vertex 11.911112 7.983285 0.100000
endloop
endfacet
facet normal -0.596073 0.802930 -0.000013
outer loop
vertex 11.909142 7.981823 0.050000
vertex 11.911112 7.983285 0.100000
vertex 11.911113 7.983285 0.050000
endloop
endfacet
facet normal -0.595608 0.803275 0.000000
outer loop
vertex 11.909142 7.981823 0.000000
vertex 11.909142 7.981823 0.050000
vertex 11.911113 7.983285 0.050000
endloop
endfacet
facet normal -0.596073 0.802930 0.000013
outer loop
vertex 11.909142 7.981823 0.000000
vertex 11.911113 7.983285 0.050000
vertex 11.911112 7.983285 0.000000
endloop
endfacet
facet normal -0.513924 0.857836 0.000030
outer loop
vertex 11.911112 7.983285 0.000000
vertex 11.911113 7.983285 0.050000
vertex 11.913217 7.984546 0.050000
endloop
endfacet
facet normal -0.513924 0.857836 -0.000033
outer loop
vertex 11.911112 7.983285 0.000000
vertex 11.913217 7.984546 0.050000
vertex 11.913218 7.984546 0.000000
endloop
endfacet
facet normal -0.513924 0.857836 0.000000
outer loop
vertex 11.911113 7.983285 0.050000
vertex 11.911112 7.983285 0.100000
vertex 11.913218 7.984546 0.100000
endloop
endfacet
facet normal -0.513924 0.857836 0.000003
outer loop
vertex 11.911113 7.983285 0.050000
vertex 11.913218 7.984546 0.100000
vertex 11.913217 7.984546 0.050000
endloop
endfacet
facet normal -0.427668 0.903936 0.000000
outer loop
vertex 11.913217 7.984546 0.050000
vertex 11.913218 7.984546 0.100000
vertex 11.915434 7.985595 0.100000
endloop
endfacet
facet normal -0.427668 0.903936 0.000000
outer loop
vertex 11.913217 7.984546 0.050000
vertex 11.915434 7.985595 0.100000
vertex 11.915434 7.985595 0.050000
endloop
endfacet
facet normal -0.427668 0.903936 0.000000
outer loop
vertex 11.913218 7.984546 0.000000
vertex 11.913217 7.984546 0.050000
vertex 11.915434 7.985595 0.050000
endloop
endfacet
facet normal -0.427668 0.903936 0.000000
outer loop
vertex 11.913218 7.984546 0.000000
vertex 11.915434 7.985595 0.050000
vertex 11.915434 7.985595 0.000000
endloop
endfacet
facet normal 0.000000 0.000000 1.000000
outer loop
vertex 11.929878 7.987020 0.100000
vertex 11.927450 7.987377 0.100000
vertex 11.925001 7.962501 0.100000
endloop
endfacet
facet normal 0.000000 0.000000 1.000000
outer loop
vertex 11.929878 7.987020 0.100000
vertex 11.925001 7.962501 0.100000
vertex 11.932258 7.986421 0.100000
endloop
endfacet
facet normal -0.000008 0.000000 1.000000
outer loop
vertex 11.925000 7.987500 0.100000
vertex 11.922550 7.987377 0.100000
vertex 11.925001 7.962501 0.100000
endloop
endfacet
facet normal 0.000008 0.000000 1.000000
outer loop
vertex 11.925000 7.987500 0.100000
vertex 11.925001 7.962501 0.100000
vertex 11.927450 7.987377 0.100000
endloop
endfacet
facet normal 0.000000 0.000000 1.000000
outer loop
vertex 11.920123 7.987020 0.100000
vertex 11.917745 7.986421 0.100000
vertex 11.925001 7.962501 0.100000
endloop
endfacet
facet normal 0.000000 0.000000 1.000000
outer loop
vertex 11.920123 7.987020 0.100000
vertex 11.925001 7.962501 0.100000
vertex 11.922550 7.987377 0.100000
endloop
endfacet
facet normal 0.000000 0.000000 1.000000
outer loop
vertex 11.915433 7.985597 0.100000
vertex 11.913217 7.984546 0.100000
vertex 11.925001 7.962501 0.100000
endloop
endfacet
facet normal 0.000000 0.000000 1.000000
outer loop
vertex 11.915433 7.985597 0.100000
vertex 11.925001 7.962501 0.100000
vertex 11.917745 7.986421 0.100000
endloop
endfacet
facet normal 0.000000 0.000000 1.000000
outer loop
vertex 11.911111 7.983287 0.100000
vertex 11.909142 7.981823 0.100000
vertex 11.925001 7.962501 0.100000
endloop
endfacet
facet normal 0.000000 0.000000 1.000000
outer loop
vertex 11.911111 7.983287 0.100000
vertex 11.925001 7.962501 0.100000
vertex 11.913217 7.984546 0.100000
endloop
endfacet
facet normal 0.000000 0.000000 1.000000
outer loop
vertex 11.907323 7.980178 0.100000
vertex 11.905677 7.978358 0.100000
vertex 11.925001 7.962501 0.100000
endloop
endfacet
facet normal 0.000000 0.000000 1.000000
outer loop
vertex 11.907323 7.980178 0.100000
vertex 11.925001 7.962501 0.100000
vertex 11.909142 7.981823 0.100000
endloop
endfacet
facet normal 0.000004 0.000000 1.000000
outer loop
vertex 11.904213 7.976390 0.100000
vertex 11.902955 7.974284 0.100000
vertex 11.925001 7.962501 0.100000
endloop
endfacet
facet normal -0.000004 0.000000 1.000000
outer loop
vertex 11.904213 7.976390 0.100000
vertex 11.925001 7.962501 0.100000
vertex 11.905677 7.978358 0.100000
endloop
endfacet
facet normal 0.000002 0.000000 1.000000
outer loop
vertex 11.901903 7.972067 0.100000
vertex 11.901079 7.969757 0.100000
vertex 11.925001 7.962501 0.100000
endloop
endfacet
facet normal 0.000000 0.000000 1.000000
outer loop
vertex 11.901903 7.972067 0.100000
vertex 11.925001 7.962501 0.100000
vertex 11.902955 7.974284 0.100000
endloop
endfacet
facet normal 0.000000 0.000000 1.000000
outer loop
vertex 11.900481 7.967377 0.100000
vertex 11.900124 7.964950 0.100000
vertex 11.925001 7.962501 0.100000
endloop
endfacet
facet normal 0.000000 0.000000 1.000000
outer loop
vertex 11.900481 7.967377 0.100000
vertex 11.925001 7.962501 0.100000
vertex 11.901079 7.969757 0.100000
endloop
endfacet
facet normal 0.000000 0.000000 1.000000
outer loop
vertex 11.900001 7.962500 0.100000
vertex 11.900124 7.960050 0.100000
vertex 11.925001 7.962501 0.100000
endloop
endfacet
facet normal -0.000001 0.000000 1.000000
outer loop
vertex 11.900001 7.962500 0.100000
vertex 11.925001 7.962501 0.100000
vertex 11.900124 7.964950 0.100000
endloop
endfacet
facet normal 0.000000 0.000000 1.000000
outer loop
vertex 11.900481 7.957623 0.100000
vertex 11.901079 7.955244 0.100000
vertex 11.925001 7.962501 0.100000
endloop
endfacet
facet normal 0.000000 0.000000 1.000000
outer loop
vertex 11.900481 7.957623 0.100000
vertex 11.925001 7.962501 0.100000
vertex 11.900124 7.960050 0.100000
endloop
endfacet
facet normal 0.000000 0.000000 1.000000
outer loop
vertex 11.901903 7.952933 0.100000
vertex 11.902954 7.950716 0.100000
vertex 11.925001 7.962501 0.100000
endloop
endfacet
facet normal 0.000002 0.000000 1.000000
outer loop
vertex 11.901903 7.952933 0.100000
vertex 11.925001 7.962501 0.100000
vertex 11.901079 7.955244 0.100000
endloop
endfacet
facet normal -0.000004 0.000000 1.000000
outer loop
vertex 11.904213 7.948611 0.100000
vertex 11.905677 7.946642 0.100000
vertex 11.925001 7.962501 0.100000
endloop
endfacet
facet normal 0.000000 0.000000 1.000000
outer loop
vertex 11.904213 7.948611 0.100000
vertex 11.925001 7.962501 0.100000
vertex 11.902954 7.950716 0.100000
endloop
endfacet
facet normal 0.000004 0.000000 1.000000
outer loop
vertex 11.907323 7.944823 0.100000
vertex 11.909142 7.943177 0.100000
vertex 11.925001 7.962501 0.100000
endloop
endfacet
facet normal 0.000000 0.000000 1.000000
outer loop
vertex 11.907323 7.944823 0.100000
vertex 11.925001 7.962501 0.100000
vertex 11.905677 7.946642 0.100000
endloop
endfacet
facet normal 0.000000 0.000000 1.000000
outer loop
vertex 11.911111 7.941713 0.100000
vertex 11.913218 7.940454 0.100000
vertex 11.925001 7.962501 0.100000
endloop
endfacet
facet normal 0.000000 0.000000 1.000000
outer loop
vertex 11.911111 7.941713 0.100000
vertex 11.925001 7.962501 0.100000
vertex 11.909142 7.943177 0.100000
endloop
endfacet
facet normal -0.000008 0.000000 1.000000
outer loop
vertex 11.915433 7.939403 0.100000
vertex 11.917745 7.938579 0.100000
vertex 11.925001 7.962501 0.100000
endloop
endfacet
facet normal 0.000000 0.000000 1.000000
outer loop
vertex 11.915433 7.939403 0.100000
vertex 11.925001 7.962501 0.100000
vertex 11.913218 7.940454 0.100000
endloop
endfacet
facet normal 0.000000 0.000000 1.000000
outer loop
vertex 11.920123 7.937981 0.100000
vertex 11.922550 7.937623 0.100000
vertex 11.925001 7.962501 0.100000
endloop
endfacet
facet normal 0.000000 0.000000 1.000000
outer loop
vertex 11.920123 7.937981 0.100000
vertex 11.925001 7.962501 0.100000
vertex 11.917745 7.938579 0.100000
endloop
endfacet
facet normal 0.000000 0.000000 1.000000
outer loop
vertex 11.925000 7.937500 0.100000
vertex 11.927450 7.937623 0.100000
vertex 11.925001 7.962501 0.100000
endloop
endfacet
facet normal 0.000000 0.000000 1.000000
outer loop
vertex 11.925000 7.937500 0.100000
vertex 11.925001 7.962501 0.100000
vertex 11.922550 7.937623 0.100000
endloop
endfacet
facet normal 0.000000 0.000000 1.000000
outer loop
vertex 11.929878 7.937981 0.100000
vertex 11.932258 7.938579 0.100000
vertex 11.925001 7.962501 0.100000
endloop
endfacet
facet normal 0.000000 0.000000 1.000000
outer loop
vertex 11.929878 7.937981 0.100000
vertex 11.925001 7.962501 0.100000
vertex 11.927450 7.937623 0.100000
endloop
endfacet
facet normal 0.000000 0.000000 1.000000
outer loop
vertex 11.934567 7.939403 0.100000
vertex 11.936784 7.940454 0.100000
vertex 11.925001 7.962501 0.100000
endloop
endfacet
facet normal 0.000008 0.000000 1.000000
outer loop
vertex 11.934567 7.939403 0.100000
vertex 11.925001 7.962501 0.100000
vertex 11.932258 7.938579 0.100000
endloop
endfacet
facet normal 0.000000 0.000000 1.000000
outer loop
vertex 11.938890 7.941713 0.100000
vertex 11.940858 7.943177 0.100000
vertex 11.925001 7.962501 0.100000
endloop
endfacet
facet normal 0.000000 0.000000 1.000000
outer loop
vertex 11.938890 7.941713 0.100000
vertex 11.925001 7.962501 0.100000
vertex 11.936784 7.940454 0.100000
endloop
endfacet
facet normal 0.000000 0.000000 1.000000
outer loop
vertex 11.942678 7.944823 0.100000
vertex 11.944324 7.946642 0.100000
vertex 11.925001 7.962501 0.100000
endloop
endfacet
facet normal -0.000004 0.000000 1.000000
outer loop
vertex 11.942678 7.944823 0.100000
vertex 11.925001 7.962501 0.100000
vertex 11.940858 7.943177 0.100000
endloop
endfacet
facet normal 0.000000 0.000000 1.000000
outer loop
vertex 11.945787 7.948611 0.100000
vertex 11.947046 7.950716 0.100000
vertex 11.925001 7.962501 0.100000
endloop
endfacet
facet normal 0.000004 0.000000 1.000000
outer loop
vertex 11.945787 7.948611 0.100000
vertex 11.925001 7.962501 0.100000
vertex 11.944324 7.946642 0.100000
endloop
endfacet
facet normal -0.000002 0.000000 1.000000
outer loop
vertex 11.948097 7.952933 0.100000
vertex 11.948921 7.955244 0.100000
vertex 11.925001 7.962501 0.100000
endloop
endfacet
facet normal 0.000000 0.000000 1.000000
outer loop
vertex 11.948097 7.952933 0.100000
vertex 11.925001 7.962501 0.100000
vertex 11.947046 7.950716 0.100000
endloop
endfacet
facet normal 0.000000 0.000000 1.000000
outer loop
vertex 11.949520 7.957623 0.100000
vertex 11.949877 7.960050 0.100000
vertex 11.925001 7.962501 0.100000
endloop
endfacet
facet normal 0.000000 0.000000 1.000000
outer loop
vertex 11.949520 7.957623 0.100000
vertex 11.925001 7.962501 0.100000
vertex 11.948921 7.955244 0.100000
endloop
endfacet
facet normal 0.000001 0.000000 1.000000
outer loop
vertex 11.950000 7.962500 0.100000
vertex 11.949877 7.964950 0.100000
vertex 11.925001 7.962501 0.100000
endloop
endfacet
facet normal 0.000000 0.000000 1.000000
outer loop
vertex 11.950000 7.962500 0.100000
vertex 11.925001 7.962501 0.100000
vertex 11.949877 7.960050 0.100000
endloop
endfacet
facet normal 0.000000 0.000000 1.000000
outer loop
vertex 11.949520 7.967377 0.100000
vertex 11.948921 7.969757 0.100000
vertex 11.925001 7.962501 0.100000
endloop
endfacet
facet normal 0.000000 0.000000 1.000000
outer loop
vertex 11.949520 7.967377 0.100000
vertex 11.925001 7.962501 0.100000
vertex 11.949877 7.964950 0.100000
endloop
endfacet
facet normal 0.000000 0.000000 1.000000
outer loop
vertex 11.948097 7.972067 0.100000
vertex 11.947046 7.974284 0.100000
vertex 11.925001 7.962501 0.100000
endloop
endfacet
facet normal -0.000002 0.000000 1.000000
outer loop
vertex 11.948097 7.972067 0.100000
vertex 11.925001 7.962501 0.100000
vertex 11.948921 7.969757 0.100000
endloop
endfacet
facet normal 0.000004 0.000000 1.000000
outer loop
vertex 11.945787 7.976390 0.100000
vertex 11.944324 7.978358 0.100000
vertex 11.925001 7.962501 0.100000
endloop
endfacet
facet normal -0.000004 0.000000 1.000000
outer loop
vertex 11.945787 7.976390 0.100000
vertex 11.925001 7.962501 0.100000
vertex 11.947046 7.974284 0.100000
endloop
endfacet
facet normal 0.000000 0.000000 1.000000
outer loop
vertex 11.942678 7.980178 0.100000
vertex 11.940858 7.981824 0.100000
vertex 11.925001 7.962501 0.100000
endloop
endfacet
facet normal 0.000000 0.000000 1.000000
outer loop
vertex 11.942678 7.980178 0.100000
vertex 11.925001 7.962501 0.100000
vertex 11.944324 7.978358 0.100000
endloop
endfacet
facet normal 0.000000 0.000000 1.000000
outer loop
vertex 11.938890 7.983287 0.100000
vertex 11.936784 7.984546 0.100000
vertex 11.925001 7.962501 0.100000
endloop
endfacet
facet normal 0.000000 0.000000 1.000000
outer loop
vertex 11.938890 7.983287 0.100000
vertex 11.925001 7.962501 0.100000
vertex 11.940858 7.981824 0.100000
endloop
endfacet
facet normal 0.000000 0.000000 1.000000
outer loop
vertex 11.934567 7.985597 0.100000
vertex 11.932258 7.986421 0.100000
vertex 11.925001 7.962501 0.100000
endloop
endfacet
facet normal 0.000000 0.000000 1.000000
outer loop
vertex 11.934567 7.985597 0.100000
vertex 11.925001 7.962501 0.100000
vertex 11.936784 7.984546 0.100000
endloop
endfacet
facet normal -0.336620 0.941641 0.000000
outer loop
vertex 11.915434 7.985595 0.000000
vertex 11.915434 7.985595 0.050000
vertex 11.917745 7.986421 0.050000
endloop
endfacet
facet normal -0.336620 0.941641 0.000000
outer loop
vertex 11.915434 7.985595 0.000000
vertex 11.917745 7.986421 0.050000
vertex 11.917745 7.986421 0.000000
endloop
endfacet
facet normal -0.336619 0.941641 0.000000
outer loop
vertex 11.915434 7.985595 0.050000
vertex 11.915434 7.985595 0.100000
vertex 11.917745 7.986421 0.100000
endloop
endfacet
facet normal -0.336620 0.941641 0.000000
outer loop
vertex 11.915434 7.985595 0.050000
vertex 11.917745 7.986421 0.100000
vertex 11.917745 7.986421 0.050000
endloop
endfacet
facet normal -0.242993 0.970028 0.000000
outer loop
vertex 11.917745 7.986421 0.050000
vertex 11.917745 7.986421 0.100000
vertex 11.920124 7.987017 0.100000
endloop
endfacet
facet normal -0.242993 0.970028 0.000011
outer loop
vertex 11.917745 7.986421 0.050000
vertex 11.920124 7.987017 0.100000
vertex 11.920123 7.987017 0.050000
endloop
endfacet
facet normal -0.242993 0.970028 0.000000
outer loop
vertex 11.917745 7.986421 0.000000
vertex 11.917745 7.986421 0.050000
vertex 11.920123 7.987017 0.050000
endloop
endfacet
facet normal -0.242993 0.970028 -0.000011
outer loop
vertex 11.917745 7.986421 0.000000
vertex 11.920123 7.987017 0.050000
vertex 11.920124 7.987017 0.000000
endloop
endfacet
facet normal -0.146725 0.989177 0.000000
outer loop
vertex 11.920124 7.987017 0.000000
vertex 11.920123 7.987017 0.050000
vertex 11.922550 7.987377 0.050000
endloop
endfacet
facet normal -0.146866 0.989156 0.000000
outer loop
vertex 11.920124 7.987017 0.000000
vertex 11.922550 7.987377 0.050000
vertex 11.922550 7.987377 0.000000
endloop
endfacet
facet normal -0.146725 0.989177 0.000000
outer loop
vertex 11.920123 7.987017 0.050000
vertex 11.920124 7.987017 0.100000
vertex 11.922550 7.987377 0.100000
endloop
endfacet
facet normal -0.146866 0.989156 0.000000
outer loop
vertex 11.920123 7.987017 0.050000
vertex 11.922550 7.987377 0.100000
vertex 11.922550 7.987377 0.050000
endloop
endfacet
facet normal -0.049210 0.998788 0.000000
outer loop
vertex 11.922550 7.987377 0.050000
vertex 11.922550 7.987377 0.100000
vertex 11.925000 7.987498 0.100000
endloop
endfacet
facet normal -0.049162 0.998791 0.000000
outer loop
vertex 11.922550 7.987377 0.050000
vertex 11.925000 7.987498 0.100000
vertex 11.925000 7.987498 0.050000
endloop
endfacet
facet normal -0.049210 0.998788 0.000000
outer loop
vertex 11.922550 7.987377 0.000000
vertex 11.922550 7.987377 0.050000
vertex 11.925000 7.987498 0.050000
endloop
endfacet
facet normal -0.049162 0.998791 0.000000
outer loop
vertex 11.922550 7.987377 0.000000
vertex 11.925000 7.987498 0.050000
vertex 11.925000 7.987498 0.000000
endloop
endfacet
facet normal 0.000000 0.000000 -1.000000
outer loop
vertex 11.925000 7.987500 0.000000
vertex 11.927450 7.987377 0.000000
vertex 11.925001 7.962501 0.000000
endloop
endfacet
facet normal 0.000000 0.000000 -1.000000
outer loop
vertex 11.925000 7.987500 0.000000
vertex 11.925001 7.962501 0.000000
vertex 11.922550 7.987377 0.000000
endloop
endfacet
facet normal 0.000000 0.000000 -1.000000
outer loop
vertex 11.929878 7.987020 0.000000
vertex 11.932258 7.986421 0.000000
vertex 11.925001 7.962501 0.000000
endloop
endfacet
facet normal 0.000000 0.000000 -1.000000
outer loop
vertex 11.929878 7.987020 0.000000
vertex 11.925001 7.962501 0.000000
vertex 11.927450 7.987377 0.000000
endloop
endfacet
facet normal 0.000000 0.000000 -1.000000
outer loop
vertex 11.934567 7.985597 0.000000
vertex 11.936784 7.984546 0.000000
vertex 11.925001 7.962501 0.000000
endloop
endfacet
facet normal 0.000000 0.000000 -1.000000
outer loop
vertex 11.934567 7.985597 0.000000
vertex 11.925001 7.962501 0.000000
vertex 11.932258 7.986421 0.000000
endloop
endfacet
facet normal 0.000000 0.000000 -1.000000
outer loop
vertex 11.938890 7.983287 0.000000
vertex 11.940858 7.981823 0.000000
vertex 11.925001 7.962501 0.000000
endloop
endfacet
facet normal 0.000000 0.000000 -1.000000
outer loop
vertex 11.938890 7.983287 0.000000
vertex 11.925001 7.962501 0.000000
vertex 11.936784 7.984546 0.000000
endloop
endfacet
facet normal 0.000000 0.000000 -1.000000
outer loop
vertex 11.942678 7.980178 0.000000
vertex 11.944324 7.978358 0.000000
vertex 11.925001 7.962501 0.000000
endloop
endfacet
facet normal 0.000000 0.000000 -1.000000
outer loop
vertex 11.942678 7.980178 0.000000
vertex 11.925001 7.962501 0.000000
vertex 11.940858 7.981823 0.000000
endloop
endfacet
facet normal 0.000000 0.000000 -1.000000
outer loop
vertex 11.945787 7.976390 0.000000
vertex 11.947046 7.974284 0.000000
vertex 11.925001 7.962501 0.000000
endloop
endfacet
facet normal 0.000000 0.000000 -1.000000
outer loop
vertex 11.945787 7.976390 0.000000
vertex 11.925001 7.962501 0.000000
vertex 11.944324 7.978358 0.000000
endloop
endfacet
facet normal 0.000000 0.000000 -1.000000
outer loop
vertex 11.948097 7.972067 0.000000
vertex 11.948921 7.969757 0.000000
vertex 11.925001 7.962501 0.000000
endloop
endfacet
facet normal 0.000000 0.000000 -1.000000
outer loop
vertex 11.948097 7.972067 0.000000
vertex 11.925001 7.962501 0.000000
vertex 11.947046 7.974284 0.000000
endloop
endfacet
facet normal 0.000000 0.000000 -1.000000
outer loop
vertex 11.949520 7.967377 0.000000
vertex 11.949877 7.964950 0.000000
vertex 11.925001 7.962501 0.000000
endloop
endfacet
facet normal 0.000000 0.000000 -1.000000
outer loop
vertex 11.949520 7.967377 0.000000
vertex 11.925001 7.962501 0.000000
vertex 11.948921 7.969757 0.000000
endloop
endfacet
facet normal 0.000000 0.000000 -1.000000
outer loop
vertex 11.950000 7.962500 0.000000
vertex 11.949877 7.960050 0.000000
vertex 11.925001 7.962501 0.000000
endloop
endfacet
facet normal 0.000000 0.000000 -1.000000
outer loop
vertex 11.950000 7.962500 0.000000
vertex 11.925001 7.962501 0.000000
vertex 11.949877 7.964950 0.000000
endloop
endfacet
facet normal 0.000000 0.000000 -1.000000
outer loop
vertex 11.949520 7.957623 0.000000
vertex 11.948921 7.955244 0.000000
vertex 11.925001 7.962501 0.000000
endloop
endfacet
facet normal 0.000000 0.000000 -1.000000
outer loop
vertex 11.949520 7.957623 0.000000
vertex 11.925001 7.962501 0.000000
vertex 11.949877 7.960050 0.000000
endloop
endfacet
facet normal 0.000000 0.000000 -1.000000
outer loop
vertex 11.948097 7.952933 0.000000
vertex 11.947046 7.950716 0.000000
vertex 11.925001 7.962501 0.000000
endloop
endfacet
facet normal 0.000000 0.000000 -1.000000
outer loop
vertex 11.948097 7.952933 0.000000
vertex 11.925001 7.962501 0.000000
vertex 11.948921 7.955244 0.000000
endloop
endfacet
facet normal 0.000000 0.000000 -1.000000
outer loop
vertex 11.945787 7.948611 0.000000
vertex 11.944324 7.946642 0.000000
vertex 11.925001 7.962501 0.000000
endloop
endfacet
facet normal 0.000000 0.000000 -1.000000
outer loop
vertex 11.945787 7.948611 0.000000
vertex 11.925001 7.962501 0.000000
vertex 11.947046 7.950716 0.000000
endloop
endfacet
facet normal 0.000000 0.000000 -1.000000
outer loop
vertex 11.942678 7.944823 0.000000
vertex 11.940858 7.943177 0.000000
vertex 11.925001 7.962501 0.000000
endloop
endfacet
facet normal 0.000000 0.000000 -1.000000
outer loop
vertex 11.942678 7.944823 0.000000
vertex 11.925001 7.962501 0.000000
vertex 11.944324 7.946642 0.000000
endloop
endfacet
facet normal 0.000000 0.000000 -1.000000
outer loop
vertex 11.938890 7.941713 0.000000
vertex 11.936784 7.940454 0.000000
vertex 11.925001 7.962501 0.000000
endloop
endfacet
facet normal 0.000000 0.000000 -1.000000
outer loop
vertex 11.938890 7.941713 0.000000
vertex 11.925001 7.962501 0.000000
vertex 11.940858 7.943177 0.000000
endloop
endfacet
facet normal 0.000000 0.000000 -1.000000
outer loop
vertex 11.934567 7.939403 0.000000
vertex 11.932258 7.938579 0.000000
vertex 11.925001 7.962501 0.000000
endloop
endfacet
facet normal 0.000000 0.000000 -1.000000
outer loop
vertex 11.934567 7.939403 0.000000
vertex 11.925001 7.962501 0.000000
vertex 11.936784 7.940454 0.000000
endloop
endfacet
facet normal 0.000000 0.000000 -1.000000
outer loop
vertex 11.929878 7.937981 0.000000
vertex 11.927450 7.937623 0.000000
vertex 11.925001 7.962501 0.000000
endloop
endfacet
facet normal 0.000000 0.000000 -1.000000
outer loop
vertex 11.929878 7.937981 0.000000
vertex 11.925001 7.962501 0.000000
vertex 11.932258 7.938579 0.000000
endloop
endfacet
facet normal 0.000000 0.000000 -1.000000
outer loop
vertex 11.925000 7.937500 0.000000
vertex 11.922550 7.937623 0.000000
vertex 11.925001 7.962501 0.000000
endloop
endfacet
facet normal 0.000000 0.000000 -1.000000
outer loop
vertex 11.925000 7.937500 0.000000
vertex 11.925001 7.962501 0.000000
vertex 11.927450 7.937623 0.000000
endloop
endfacet
facet normal 0.000000 0.000000 -1.000000
outer loop
vertex 11.920123 7.937981 0.000000
vertex 11.917745 7.938579 0.000000
vertex 11.925001 7.962501 0.000000
endloop
endfacet
facet normal 0.000000 0.000000 -1.000000
outer loop
vertex 11.920123 7.937981 0.000000
vertex 11.925001 7.962501 0.000000
vertex 11.922550 7.937623 0.000000
endloop
endfacet
facet normal 0.000000 0.000000 -1.000000
outer loop
vertex 11.915433 7.939403 0.000000
vertex 11.913217 7.940454 0.000000
vertex 11.925001 7.962501 0.000000
endloop
endfacet
facet normal 0.000000 0.000000 -1.000000
outer loop
vertex 11.915433 7.939403 0.000000
vertex 11.925001 7.962501 0.000000
vertex 11.917745 7.938579 0.000000
endloop
endfacet
facet normal 0.000000 0.000000 -1.000000
outer loop
vertex 11.911111 7.941713 0.000000
vertex 11.909142 7.943177 0.000000
vertex 11.925001 7.962501 0.000000
endloop
endfacet
facet normal 0.000000 0.000000 -1.000000
outer loop
vertex 11.911111 7.941713 0.000000
vertex 11.925001 7.962501 0.000000
vertex 11.913217 7.940454 0.000000
endloop
endfacet
facet normal 0.000000 0.000000 -1.000000
outer loop
vertex 11.907323 7.944823 0.000000
vertex 11.905677 7.946642 0.000000
vertex 11.925001 7.962501 0.000000
endloop
endfacet
facet normal 0.000000 0.000000 -1.000000
outer loop
vertex 11.907323 7.944823 0.000000
vertex 11.925001 7.962501 0.000000
vertex 11.909142 7.943177 0.000000
endloop
endfacet
facet normal 0.000000 0.000000 -1.000000
outer loop
vertex 11.904213 7.948611 0.000000
vertex 11.902954 7.950716 0.000000
vertex 11.925001 7.962501 0.000000
endloop
endfacet
facet normal 0.000000 0.000000 -1.000000
outer loop
vertex 11.904213 7.948611 0.000000
vertex 11.925001 7.962501 0.000000
vertex 11.905677 7.946642 0.000000
endloop
endfacet
facet normal 0.000000 0.000000 -1.000000
outer loop
vertex 11.901903 7.952933 0.000000
vertex 11.901079 7.955244 0.000000
vertex 11.925001 7.962501 0.000000
endloop
endfacet
facet normal 0.000000 0.000000 -1.000000
outer loop
vertex 11.901903 7.952933 0.000000
vertex 11.925001 7.962501 0.000000
vertex 11.902954 7.950716 0.000000
endloop
endfacet
facet normal 0.000000 0.000000 -1.000000
outer loop
vertex 11.900481 7.957623 0.000000
vertex 11.900124 7.960050 0.000000
vertex 11.925001 7.962501 0.000000
endloop
endfacet
facet normal 0.000000 0.000000 -1.000000
outer loop
vertex 11.900481 7.957623 0.000000
vertex 11.925001 7.962501 0.000000
vertex 11.901079 7.955244 0.000000
endloop
endfacet
facet normal 0.000000 0.000000 -1.000000
outer loop
vertex 11.900001 7.962500 0.000000
vertex 11.900124 7.964950 0.000000
vertex 11.925001 7.962501 0.000000
endloop
endfacet
facet normal 0.000000 0.000000 -1.000000
outer loop
vertex 11.900001 7.962500 0.000000
vertex 11.925001 7.962501 0.000000
vertex 11.900124 7.960050 0.000000
endloop
endfacet
facet normal 0.000000 0.000000 -1.000000
outer loop
vertex 11.900481 7.967377 0.000000
vertex 11.901079 7.969757 0.000000
vertex 11.925001 7.962501 0.000000
endloop
endfacet
facet normal 0.000000 0.000000 -1.000000
outer loop
vertex 11.900481 7.967377 0.000000
vertex 11.925001 7.962501 0.000000
vertex 11.900124 7.964950 0.000000
endloop
endfacet
facet normal 0.000000 0.000000 -1.000000
outer loop
vertex 11.901903 7.972067 0.000000
vertex 11.902954 7.974284 0.000000
vertex 11.925001 7.962501 0.000000
endloop
endfacet
facet normal 0.000000 0.000000 -1.000000
outer loop
vertex 11.901903 7.972067 0.000000
vertex 11.925001 7.962501 0.000000
vertex 11.901079 7.969757 0.000000
endloop
endfacet
facet normal 0.000000 0.000000 -1.000000
outer loop
vertex 11.904213 7.976390 0.000000
vertex 11.905677 7.978358 0.000000
vertex 11.925001 7.962501 0.000000
endloop
endfacet
facet normal 0.000000 0.000000 -1.000000
outer loop
vertex 11.904213 7.976390 0.000000
vertex 11.925001 7.962501 0.000000
vertex 11.902954 7.974284 0.000000
endloop
endfacet
facet normal 0.000000 0.000000 -1.000000
outer loop
vertex 11.907323 7.980178 0.000000
vertex 11.909142 7.981824 0.000000
vertex 11.925001 7.962501 0.000000
endloop
endfacet
facet normal 0.000000 0.000000 -1.000000
outer loop
vertex 11.907323 7.980178 0.000000
vertex 11.925001 7.962501 0.000000
vertex 11.905677 7.978358 0.000000
endloop
endfacet
facet normal 0.000000 0.000000 -1.000000
outer loop
vertex 11.911111 7.983287 0.000000
vertex 11.913218 7.984546 0.000000
vertex 11.925001 7.962501 0.000000
endloop
endfacet
facet normal 0.000000 0.000000 -1.000000
outer loop
vertex 11.911111 7.983287 0.000000
vertex 11.925001 7.962501 0.000000
vertex 11.909142 7.981824 0.000000
endloop
endfacet
facet normal 0.000000 0.000000 -1.000000
outer loop
vertex 11.915433 7.985597 0.000000
vertex 11.917745 7.986421 0.000000
vertex 11.925001 7.962501 0.000000
endloop
endfacet
facet normal 0.000000 0.000000 -1.000000
outer loop
vertex 11.915433 7.985597 0.000000
vertex 11.925001 7.962501 0.000000
vertex 11.913218 7.984546 0.000000
endloop
endfacet
facet normal 0.000000 0.000000 -1.000000
outer loop
vertex 11.920123 7.987020 0.000000
vertex 11.922550 7.987377 0.000000
vertex 11.925001 7.962501 0.000000
endloop
endfacet
facet normal 0.000000 0.000000 -1.000000
outer loop
vertex 11.920123 7.987020 0.000000
vertex 11.925001 7.962501 0.000000
vertex 11.917745 7.986421 0.000000
endloop
endfacet
endsolid Exported from Blender-2.82 (sub 7)
