solid Exported from Blender-2.82 (sub 7)
facet normal 0.049356 0.998781 0.000000
outer loop
vertex 8.191340 8.486938 0.000000
vertex 8.191340 8.486938 0.050000
vertex 8.193790 8.486816 0.050000
endloop
endfacet
facet normal 0.049404 0.998779 0.000000
outer loop
vertex 8.191340 8.486938 0.000000
vertex 8.193790 8.486816 0.050000
vertex 8.193790 8.486816 0.000000
endloop
endfacet
facet normal 0.049356 0.998781 0.000000
outer loop
vertex 8.191340 8.486938 0.050000
vertex 8.191340 8.486938 0.100000
vertex 8.193790 8.486816 0.100000
endloop
endfacet
facet normal 0.049404 0.998779 0.000000
outer loop
vertex 8.191340 8.486938 0.050000
vertex 8.193790 8.486816 0.100000
vertex 8.193790 8.486816 0.050000
endloop
endfacet
facet normal 0.146535 0.989206 0.000000
outer loop
vertex 8.193790 8.486816 0.050000
vertex 8.193790 8.486816 0.100000
vertex 8.196218 8.486457 0.100000
endloop
endfacet
facet normal 0.146535 0.989206 0.000000
outer loop
vertex 8.193790 8.486816 0.050000
vertex 8.196218 8.486457 0.100000
vertex 8.196218 8.486457 0.050000
endloop
endfacet
facet normal 0.146535 0.989206 0.000000
outer loop
vertex 8.193790 8.486816 0.000000
vertex 8.193790 8.486816 0.050000
vertex 8.196218 8.486457 0.050000
endloop
endfacet
facet normal 0.146535 0.989206 0.000000
outer loop
vertex 8.193790 8.486816 0.000000
vertex 8.196218 8.486457 0.050000
vertex 8.196218 8.486457 0.000000
endloop
endfacet
facet normal 0.243359 0.969936 0.000000
outer loop
vertex 8.196218 8.486457 0.000000
vertex 8.196218 8.486457 0.050000
vertex 8.198597 8.485860 0.050000
endloop
endfacet
facet normal 0.243359 0.969936 0.000000
outer loop
vertex 8.196218 8.486457 0.000000
vertex 8.198597 8.485860 0.050000
vertex 8.198597 8.485860 0.000000
endloop
endfacet
facet normal 0.243359 0.969936 0.000000
outer loop
vertex 8.196218 8.486457 0.050000
vertex 8.196218 8.486457 0.100000
vertex 8.198597 8.485860 0.100000
endloop
endfacet
facet normal 0.243359 0.969936 0.000000
outer loop
vertex 8.196218 8.486457 0.050000
vertex 8.198597 8.485860 0.100000
vertex 8.198597 8.485860 0.050000
endloop
endfacet
facet normal 0.336928 0.941531 0.000000
outer loop
vertex 8.198597 8.485860 0.050000
vertex 8.198597 8.485860 0.100000
vertex 8.200906 8.485034 0.100000
endloop
endfacet
facet normal 0.336620 0.941641 0.000000
outer loop
vertex 8.198597 8.485860 0.050000
vertex 8.200906 8.485034 0.100000
vertex 8.200906 8.485034 0.050000
endloop
endfacet
facet normal 0.336928 0.941531 0.000000
outer loop
vertex 8.198597 8.485860 0.000000
vertex 8.198597 8.485860 0.050000
vertex 8.200906 8.485034 0.050000
endloop
endfacet
facet normal 0.336620 0.941641 0.000000
outer loop
vertex 8.198597 8.485860 0.000000
vertex 8.200906 8.485034 0.050000
vertex 8.200906 8.485034 0.000000
endloop
endfacet
facet normal 0.427163 0.904175 0.000000
outer loop
vertex 8.200906 8.485034 0.000000
vertex 8.200906 8.485034 0.050000
vertex 8.203125 8.483986 0.050000
endloop
endfacet
facet normal 0.426975 0.904263 0.000000
outer loop
vertex 8.200906 8.485034 0.000000
vertex 8.203125 8.483986 0.050000
vertex 8.203125 8.483986 0.000000
endloop
endfacet
facet normal 0.427163 0.904175 0.000000
outer loop
vertex 8.200906 8.485034 0.050000
vertex 8.200906 8.485034 0.100000
vertex 8.203125 8.483986 0.100000
endloop
endfacet
facet normal 0.426975 0.904263 0.000000
outer loop
vertex 8.200906 8.485034 0.050000
vertex 8.203125 8.483986 0.100000
vertex 8.203125 8.483986 0.050000
endloop
endfacet
facet normal 0.514996 0.857192 0.000000
outer loop
vertex 8.203125 8.483986 0.050000
vertex 8.203125 8.483986 0.100000
vertex 8.205227 8.482723 0.100000
endloop
endfacet
facet normal 0.514782 0.857321 0.000000
outer loop
vertex 8.203125 8.483986 0.050000
vertex 8.205227 8.482723 0.100000
vertex 8.205227 8.482723 0.050000
endloop
endfacet
facet normal 0.514996 0.857192 0.000000
outer loop
vertex 8.203125 8.483986 0.000000
vertex 8.203125 8.483986 0.050000
vertex 8.205227 8.482723 0.050000
endloop
endfacet
facet normal 0.514782 0.857321 0.000000
outer loop
vertex 8.203125 8.483986 0.000000
vertex 8.205227 8.482723 0.050000
vertex 8.205227 8.482723 0.000000
endloop
endfacet
facet normal 0.595358 0.803461 0.000000
outer loop
vertex 8.205227 8.482723 0.000000
vertex 8.205227 8.482723 0.050000
vertex 8.207198 8.481262 0.050000
endloop
endfacet
facet normal 0.595590 0.803289 0.000000
outer loop
vertex 8.205227 8.482723 0.000000
vertex 8.207198 8.481262 0.050000
vertex 8.207198 8.481262 0.000000
endloop
endfacet
facet normal 0.595358 0.803461 0.000000
outer loop
vertex 8.205227 8.482723 0.050000
vertex 8.205227 8.482723 0.100000
vertex 8.207198 8.481262 0.100000
endloop
endfacet
facet normal 0.595590 0.803289 0.000000
outer loop
vertex 8.205227 8.482723 0.050000
vertex 8.207198 8.481262 0.100000
vertex 8.207198 8.481262 0.050000
endloop
endfacet
facet normal 0.671618 0.740898 0.000000
outer loop
vertex 8.207198 8.481262 0.050000
vertex 8.207198 8.481262 0.100000
vertex 8.209015 8.479614 0.100000
endloop
endfacet
facet normal 0.672102 0.740459 0.000000
outer loop
vertex 8.207198 8.481262 0.050000
vertex 8.209015 8.479614 0.100000
vertex 8.209015 8.479614 0.050000
endloop
endfacet
facet normal 0.671618 0.740898 0.000000
outer loop
vertex 8.207198 8.481262 0.000000
vertex 8.207198 8.481262 0.050000
vertex 8.209015 8.479614 0.050000
endloop
endfacet
facet normal 0.672101 0.740459 0.000000
outer loop
vertex 8.207198 8.481262 0.000000
vertex 8.209015 8.479614 0.050000
vertex 8.209015 8.479614 0.000000
endloop
endfacet
facet normal 0.740775 0.671753 0.000000
outer loop
vertex 8.209015 8.479614 0.000000
vertex 8.209015 8.479614 0.050000
vertex 8.210664 8.477798 0.050000
endloop
endfacet
facet normal 0.740292 0.672286 0.000000
outer loop
vertex 8.209015 8.479614 0.000000
vertex 8.210664 8.477798 0.050000
vertex 8.210664 8.477798 0.000000
endloop
endfacet
facet normal 0.740775 0.671753 0.000000
outer loop
vertex 8.209015 8.479614 0.050000
vertex 8.209015 8.479614 0.100000
vertex 8.210664 8.477798 0.100000
endloop
endfacet
facet normal 0.740292 0.672286 0.000000
outer loop
vertex 8.209015 8.479614 0.050000
vertex 8.210664 8.477798 0.100000
vertex 8.210664 8.477798 0.050000
endloop
endfacet
facet normal 0.803764 0.594949 0.000000
outer loop
vertex 8.210664 8.477798 0.050000
vertex 8.210664 8.477798 0.100000
vertex 8.212124 8.475826 0.100000
endloop
endfacet
facet normal 0.803299 0.595576 0.000000
outer loop
vertex 8.210664 8.477798 0.050000
vertex 8.212124 8.475826 0.100000
vertex 8.212124 8.475826 0.050000
endloop
endfacet
facet normal 0.803764 0.594949 0.000000
outer loop
vertex 8.210664 8.477798 0.000000
vertex 8.210664 8.477798 0.050000
vertex 8.212124 8.475826 0.050000
endloop
endfacet
facet normal 0.803299 0.595576 0.000000
outer loop
vertex 8.210664 8.477798 0.000000
vertex 8.212124 8.475826 0.050000
vertex 8.212124 8.475826 0.000000
endloop
endfacet
facet normal 0.857261 0.514882 0.000000
outer loop
vertex 8.212124 8.475826 0.000000
vertex 8.212124 8.475826 0.050000
vertex 8.213387 8.473724 0.050000
endloop
endfacet
facet normal 0.857261 0.514882 0.000000
outer loop
vertex 8.212124 8.475826 0.000000
vertex 8.213387 8.473724 0.050000
vertex 8.213387 8.473724 0.000000
endloop
endfacet
facet normal 0.857261 0.514882 0.000000
outer loop
vertex 8.212124 8.475826 0.050000
vertex 8.212124 8.475826 0.100000
vertex 8.213387 8.473724 0.100000
endloop
endfacet
facet normal 0.857261 0.514882 0.000000
outer loop
vertex 8.212124 8.475826 0.050000
vertex 8.213387 8.473724 0.100000
vertex 8.213387 8.473724 0.050000
endloop
endfacet
facet normal 0.904078 0.427368 0.000000
outer loop
vertex 8.213387 8.473724 0.050000
vertex 8.213387 8.473724 0.100000
vertex 8.214436 8.471505 0.100000
endloop
endfacet
facet normal 0.904078 0.427368 0.000000
outer loop
vertex 8.213387 8.473724 0.050000
vertex 8.214436 8.471505 0.100000
vertex 8.214436 8.471505 0.050000
endloop
endfacet
facet normal 0.904078 0.427368 0.000000
outer loop
vertex 8.213387 8.473724 0.000000
vertex 8.213387 8.473724 0.050000
vertex 8.214436 8.471505 0.050000
endloop
endfacet
facet normal 0.904078 0.427368 0.000000
outer loop
vertex 8.213387 8.473724 0.000000
vertex 8.214436 8.471505 0.050000
vertex 8.214436 8.471505 0.000000
endloop
endfacet
facet normal 0.941544 0.336891 0.000000
outer loop
vertex 8.214436 8.471505 0.000000
vertex 8.214436 8.471505 0.050000
vertex 8.215261 8.469196 0.050000
endloop
endfacet
facet normal 0.941544 0.336891 0.000000
outer loop
vertex 8.214436 8.471505 0.000000
vertex 8.215261 8.469196 0.050000
vertex 8.215261 8.469196 0.000000
endloop
endfacet
facet normal 0.941544 0.336891 0.000000
outer loop
vertex 8.214436 8.471505 0.050000
vertex 8.214436 8.471505 0.100000
vertex 8.215261 8.469196 0.100000
endloop
endfacet
facet normal 0.941544 0.336891 0.000000
outer loop
vertex 8.214436 8.471505 0.050000
vertex 8.215261 8.469196 0.100000
vertex 8.215261 8.469196 0.050000
endloop
endfacet
facet normal 0.969913 0.243450 0.000000
outer loop
vertex 8.215261 8.469196 0.050000
vertex 8.215261 8.469196 0.100000
vertex 8.215858 8.466817 0.100000
endloop
endfacet
facet normal 0.970028 0.242993 0.000000
outer loop
vertex 8.215261 8.469196 0.050000
vertex 8.215858 8.466817 0.100000
vertex 8.215858 8.466817 0.050000
endloop
endfacet
facet normal 0.969913 0.243450 0.000000
outer loop
vertex 8.215261 8.469196 0.000000
vertex 8.215261 8.469196 0.050000
vertex 8.215858 8.466817 0.050000
endloop
endfacet
facet normal 0.970028 0.242993 0.000000
outer loop
vertex 8.215261 8.469196 0.000000
vertex 8.215858 8.466817 0.050000
vertex 8.215858 8.466817 0.000000
endloop
endfacet
facet normal 0.989115 0.147143 0.000000
outer loop
vertex 8.215858 8.466817 0.000000
vertex 8.215858 8.466817 0.050000
vertex 8.216219 8.464389 0.050000
endloop
endfacet
facet normal 0.989186 0.146668 0.000000
outer loop
vertex 8.215858 8.466817 0.000000
vertex 8.216219 8.464389 0.050000
vertex 8.216219 8.464389 0.000000
endloop
endfacet
facet normal 0.989115 0.147144 0.000000
outer loop
vertex 8.215858 8.466817 0.050000
vertex 8.215858 8.466817 0.100000
vertex 8.216219 8.464389 0.100000
endloop
endfacet
facet normal 0.989186 0.146668 0.000000
outer loop
vertex 8.215858 8.466817 0.050000
vertex 8.216219 8.464389 0.100000
vertex 8.216219 8.464389 0.050000
endloop
endfacet
facet normal 0.998841 0.048133 0.000000
outer loop
vertex 8.216219 8.464389 0.050000
vertex 8.216219 8.464389 0.100000
vertex 8.216338 8.461940 0.100000
endloop
endfacet
facet normal 0.998794 0.049103 0.000000
outer loop
vertex 8.216219 8.464389 0.050000
vertex 8.216338 8.461940 0.100000
vertex 8.216338 8.461940 0.050000
endloop
endfacet
facet normal 0.998841 0.048133 0.000000
outer loop
vertex 8.216219 8.464389 0.000000
vertex 8.216219 8.464389 0.050000
vertex 8.216338 8.461940 0.050000
endloop
endfacet
facet normal 0.998794 0.049103 0.000000
outer loop
vertex 8.216219 8.464389 0.000000
vertex 8.216338 8.461940 0.050000
vertex 8.216338 8.461940 0.000000
endloop
endfacet
facet normal 0.998795 -0.049084 0.000000
outer loop
vertex 8.216338 8.461940 0.000000
vertex 8.216338 8.461940 0.050000
vertex 8.216219 8.459490 0.050000
endloop
endfacet
facet normal 0.998842 -0.048115 0.000000
outer loop
vertex 8.216338 8.461940 0.000000
vertex 8.216219 8.459490 0.050000
vertex 8.216219 8.459490 0.000000
endloop
endfacet
facet normal 0.998795 -0.049084 0.000000
outer loop
vertex 8.216338 8.461940 0.050000
vertex 8.216338 8.461940 0.100000
vertex 8.216219 8.459490 0.100000
endloop
endfacet
facet normal 0.998842 -0.048115 0.000000
outer loop
vertex 8.216338 8.461940 0.050000
vertex 8.216219 8.459490 0.100000
vertex 8.216219 8.459490 0.050000
endloop
endfacet
facet normal 0.989169 -0.146781 0.000000
outer loop
vertex 8.216219 8.459490 0.050000
vertex 8.216219 8.459490 0.100000
vertex 8.215858 8.457064 0.100000
endloop
endfacet
facet normal 0.989098 -0.147257 0.000000
outer loop
vertex 8.216219 8.459490 0.050000
vertex 8.215858 8.457064 0.100000
vertex 8.215858 8.457064 0.050000
endloop
endfacet
facet normal 0.989169 -0.146781 0.000000
outer loop
vertex 8.216219 8.459490 0.000000
vertex 8.216219 8.459490 0.050000
vertex 8.215858 8.457064 0.050000
endloop
endfacet
facet normal 0.989098 -0.147257 0.000000
outer loop
vertex 8.216219 8.459490 0.000000
vertex 8.215858 8.457064 0.050000
vertex 8.215858 8.457064 0.000000
endloop
endfacet
facet normal 0.970051 -0.242901 0.000000
outer loop
vertex 8.215858 8.457064 0.000000
vertex 8.215858 8.457064 0.050000
vertex 8.215261 8.454683 0.050000
endloop
endfacet
facet normal 0.969936 -0.243358 0.000000
outer loop
vertex 8.215858 8.457064 0.000000
vertex 8.215261 8.454683 0.050000
vertex 8.215261 8.454683 0.000000
endloop
endfacet
facet normal 0.970051 -0.242901 0.000000
outer loop
vertex 8.215858 8.457064 0.050000
vertex 8.215858 8.457064 0.100000
vertex 8.215261 8.454683 0.100000
endloop
endfacet
facet normal 0.969936 -0.243358 0.000000
outer loop
vertex 8.215858 8.457064 0.050000
vertex 8.215261 8.454683 0.100000
vertex 8.215261 8.454683 0.050000
endloop
endfacet
facet normal 0.941588 -0.336767 0.000000
outer loop
vertex 8.215261 8.454683 0.050000
vertex 8.215261 8.454683 0.100000
vertex 8.214436 8.452374 0.100000
endloop
endfacet
facet normal 0.941588 -0.336767 0.000000
outer loop
vertex 8.215261 8.454683 0.050000
vertex 8.214436 8.452374 0.100000
vertex 8.214436 8.452374 0.050000
endloop
endfacet
facet normal 0.941588 -0.336767 0.000000
outer loop
vertex 8.215261 8.454683 0.000000
vertex 8.215261 8.454683 0.050000
vertex 8.214436 8.452374 0.050000
endloop
endfacet
facet normal 0.941588 -0.336767 0.000000
outer loop
vertex 8.215261 8.454683 0.000000
vertex 8.214436 8.452374 0.050000
vertex 8.214436 8.452374 0.000000
endloop
endfacet
facet normal 0.903936 -0.427668 0.000000
outer loop
vertex 8.214436 8.452374 0.000000
vertex 8.214436 8.452374 0.050000
vertex 8.213387 8.450156 0.050000
endloop
endfacet
facet normal 0.903936 -0.427668 0.000000
outer loop
vertex 8.214436 8.452374 0.000000
vertex 8.213387 8.450156 0.050000
vertex 8.213387 8.450156 0.000000
endloop
endfacet
facet normal 0.903936 -0.427668 0.000000
outer loop
vertex 8.214436 8.452374 0.050000
vertex 8.214436 8.452374 0.100000
vertex 8.213387 8.450156 0.100000
endloop
endfacet
facet normal 0.903936 -0.427668 0.000000
outer loop
vertex 8.214436 8.452374 0.050000
vertex 8.213387 8.450156 0.100000
vertex 8.213387 8.450156 0.050000
endloop
endfacet
facet normal 0.857570 -0.514367 0.000000
outer loop
vertex 8.213387 8.450156 0.050000
vertex 8.213387 8.450156 0.100000
vertex 8.212124 8.448051 0.100000
endloop
endfacet
facet normal 0.857570 -0.514367 0.000000
outer loop
vertex 8.213387 8.450156 0.050000
vertex 8.212124 8.448051 0.100000
vertex 8.212124 8.448051 0.050000
endloop
endfacet
facet normal 0.857570 -0.514367 0.000000
outer loop
vertex 8.213387 8.450156 0.000000
vertex 8.213387 8.450156 0.050000
vertex 8.212124 8.448051 0.050000
endloop
endfacet
facet normal 0.857570 -0.514367 0.000000
outer loop
vertex 8.213387 8.450156 0.000000
vertex 8.212124 8.448051 0.050000
vertex 8.212124 8.448051 0.000000
endloop
endfacet
facet normal 0.803023 -0.595948 0.000000
outer loop
vertex 8.212124 8.448051 0.000000
vertex 8.212124 8.448051 0.050000
vertex 8.210664 8.446082 0.050000
endloop
endfacet
facet normal 0.803488 -0.595321 0.000000
outer loop
vertex 8.212124 8.448051 0.000000
vertex 8.210664 8.446082 0.050000
vertex 8.210664 8.446082 0.000000
endloop
endfacet
facet normal 0.803023 -0.595948 0.000000
outer loop
vertex 8.212124 8.448051 0.050000
vertex 8.212124 8.448051 0.100000
vertex 8.210664 8.446082 0.100000
endloop
endfacet
facet normal 0.803488 -0.595321 0.000000
outer loop
vertex 8.212124 8.448051 0.050000
vertex 8.210664 8.446082 0.100000
vertex 8.210664 8.446082 0.050000
endloop
endfacet
facet normal 0.740643 -0.671899 0.000000
outer loop
vertex 8.210664 8.446082 0.050000
vertex 8.210664 8.446082 0.100000
vertex 8.209015 8.444263 0.100000
endloop
endfacet
facet normal 0.741126 -0.671366 0.000000
outer loop
vertex 8.210664 8.446082 0.050000
vertex 8.209015 8.444263 0.100000
vertex 8.209015 8.444263 0.050000
endloop
endfacet
facet normal 0.740643 -0.671899 0.000000
outer loop
vertex 8.210664 8.446082 0.000000
vertex 8.210664 8.446082 0.050000
vertex 8.209015 8.444263 0.050000
endloop
endfacet
facet normal 0.741126 -0.671366 0.000000
outer loop
vertex 8.210664 8.446082 0.000000
vertex 8.209015 8.444263 0.050000
vertex 8.209015 8.444263 0.000000
endloop
endfacet
facet normal 0.671888 -0.740653 0.000000
outer loop
vertex 8.209015 8.444263 0.000000
vertex 8.209015 8.444263 0.050000
vertex 8.207198 8.442616 0.050000
endloop
endfacet
facet normal 0.671404 -0.741091 0.000000
outer loop
vertex 8.209015 8.444263 0.000000
vertex 8.207198 8.442616 0.050000
vertex 8.207198 8.442616 0.000000
endloop
endfacet
facet normal 0.671888 -0.740653 0.000000
outer loop
vertex 8.209015 8.444263 0.050000
vertex 8.209015 8.444263 0.100000
vertex 8.207198 8.442616 0.100000
endloop
endfacet
facet normal 0.671404 -0.741091 0.000000
outer loop
vertex 8.209015 8.444263 0.050000
vertex 8.207198 8.442616 0.100000
vertex 8.207198 8.442616 0.050000
endloop
endfacet
facet normal 0.595590 -0.803289 0.000000
outer loop
vertex 8.207198 8.442616 0.050000
vertex 8.207198 8.442616 0.100000
vertex 8.205227 8.441155 0.100000
endloop
endfacet
facet normal 0.595358 -0.803461 0.000000
outer loop
vertex 8.207198 8.442616 0.050000
vertex 8.205227 8.441155 0.100000
vertex 8.205227 8.441155 0.050000
endloop
endfacet
facet normal 0.595590 -0.803289 0.000000
outer loop
vertex 8.207198 8.442616 0.000000
vertex 8.207198 8.442616 0.050000
vertex 8.205227 8.441155 0.050000
endloop
endfacet
facet normal 0.595358 -0.803461 0.000000
outer loop
vertex 8.207198 8.442616 0.000000
vertex 8.205227 8.441155 0.050000
vertex 8.205227 8.441155 0.000000
endloop
endfacet
facet normal 0.514496 -0.857493 0.000000
outer loop
vertex 8.205227 8.441155 0.000000
vertex 8.205227 8.441155 0.050000
vertex 8.203125 8.439894 0.050000
endloop
endfacet
facet normal 0.514424 -0.857536 0.000000
outer loop
vertex 8.205227 8.441155 0.000000
vertex 8.203125 8.439894 0.050000
vertex 8.203125 8.439895 0.000000
endloop
endfacet
facet normal 0.514210 -0.857665 0.000000
outer loop
vertex 8.205227 8.441155 0.050000
vertex 8.205227 8.441155 0.100000
vertex 8.203125 8.439895 0.100000
endloop
endfacet
facet normal 0.514710 -0.857364 0.000000
outer loop
vertex 8.205227 8.441155 0.050000
vertex 8.203125 8.439895 0.100000
vertex 8.203125 8.439894 0.050000
endloop
endfacet
facet normal 0.427611 -0.903963 0.000000
outer loop
vertex 8.203125 8.439894 0.050000
vertex 8.203125 8.439895 0.100000
vertex 8.200906 8.438845 0.100000
endloop
endfacet
facet normal 0.427481 -0.904025 0.000000
outer loop
vertex 8.203125 8.439894 0.050000
vertex 8.200906 8.438845 0.100000
vertex 8.200906 8.438845 0.050000
endloop
endfacet
facet normal 0.427293 -0.904113 0.000000
outer loop
vertex 8.203125 8.439895 0.000000
vertex 8.203125 8.439894 0.050000
vertex 8.200906 8.438845 0.050000
endloop
endfacet
facet normal 0.427798 -0.903874 0.000000
outer loop
vertex 8.203125 8.439895 0.000000
vertex 8.200906 8.438845 0.050000
vertex 8.200906 8.438845 0.000000
endloop
endfacet
facet normal 0.336620 -0.941641 0.000000
outer loop
vertex 8.200906 8.438845 0.000000
vertex 8.200906 8.438845 0.050000
vertex 8.198597 8.438019 0.050000
endloop
endfacet
facet normal 0.336928 -0.941531 0.000000
outer loop
vertex 8.200906 8.438845 0.000000
vertex 8.198597 8.438019 0.050000
vertex 8.198597 8.438019 0.000000
endloop
endfacet
facet normal 0.336619 -0.941641 0.000000
outer loop
vertex 8.200906 8.438845 0.050000
vertex 8.200906 8.438845 0.100000
vertex 8.198597 8.438019 0.100000
endloop
endfacet
facet normal 0.336928 -0.941531 0.000000
outer loop
vertex 8.200906 8.438845 0.050000
vertex 8.198597 8.438019 0.100000
vertex 8.198597 8.438019 0.050000
endloop
endfacet
facet normal 0.242993 -0.970028 0.000000
outer loop
vertex 8.198597 8.438019 0.050000
vertex 8.198597 8.438019 0.100000
vertex 8.196218 8.437423 0.100000
endloop
endfacet
facet normal 0.242993 -0.970028 0.000000
outer loop
vertex 8.198597 8.438019 0.050000
vertex 8.196218 8.437423 0.100000
vertex 8.196218 8.437423 0.050000
endloop
endfacet
facet normal 0.242993 -0.970028 0.000000
outer loop
vertex 8.198597 8.438019 0.000000
vertex 8.198597 8.438019 0.050000
vertex 8.196218 8.437423 0.050000
endloop
endfacet
facet normal 0.242993 -0.970028 0.000000
outer loop
vertex 8.198597 8.438019 0.000000
vertex 8.196218 8.437423 0.050000
vertex 8.196218 8.437423 0.000000
endloop
endfacet
facet normal 0.146535 -0.989206 0.000000
outer loop
vertex 8.196218 8.437423 0.000000
vertex 8.196218 8.437423 0.050000
vertex 8.193790 8.437063 0.050000
endloop
endfacet
facet normal 0.146535 -0.989206 0.000000
outer loop
vertex 8.196218 8.437423 0.000000
vertex 8.193790 8.437063 0.050000
vertex 8.193790 8.437063 0.000000
endloop
endfacet
facet normal 0.146535 -0.989206 0.000000
outer loop
vertex 8.196218 8.437423 0.050000
vertex 8.196218 8.437423 0.100000
vertex 8.193790 8.437063 0.100000
endloop
endfacet
facet normal 0.146535 -0.989206 0.000000
outer loop
vertex 8.196218 8.437423 0.050000
vertex 8.193790 8.437063 0.100000
vertex 8.193790 8.437063 0.050000
endloop
endfacet
facet normal 0.049016 -0.998798 0.000000
outer loop
vertex 8.193790 8.437063 0.050000
vertex 8.193790 8.437063 0.100000
vertex 8.191340 8.436943 0.100000
endloop
endfacet
facet normal 0.048968 -0.998800 0.000000
outer loop
vertex 8.193790 8.437063 0.050000
vertex 8.191340 8.436943 0.100000
vertex 8.191340 8.436943 0.050000
endloop
endfacet
facet normal 0.049016 -0.998798 0.000000
outer loop
vertex 8.193790 8.437063 0.000000
vertex 8.193790 8.437063 0.050000
vertex 8.191340 8.436943 0.050000
endloop
endfacet
facet normal 0.048968 -0.998800 0.000000
outer loop
vertex 8.193790 8.437063 0.000000
vertex 8.191340 8.436943 0.050000
vertex 8.191340 8.436943 0.000000
endloop
endfacet
facet normal -0.048968 -0.998800 0.000000
outer loop
vertex 8.191340 8.436943 0.000000
vertex 8.191340 8.436943 0.050000
vertex 8.188890 8.437063 0.050000
endloop
endfacet
facet normal -0.049016 -0.998798 0.000000
outer loop
vertex 8.191340 8.436943 0.000000
vertex 8.188890 8.437063 0.050000
vertex 8.188890 8.437063 0.000000
endloop
endfacet
facet normal -0.048968 -0.998800 0.000000
outer loop
vertex 8.191340 8.436943 0.050000
vertex 8.191340 8.436943 0.100000
vertex 8.188890 8.437063 0.100000
endloop
endfacet
facet normal -0.049016 -0.998798 0.000000
outer loop
vertex 8.191340 8.436943 0.050000
vertex 8.188890 8.437063 0.100000
vertex 8.188890 8.437063 0.050000
endloop
endfacet
facet normal -0.146535 -0.989206 0.000000
outer loop
vertex 8.188890 8.437063 0.050000
vertex 8.188890 8.437063 0.100000
vertex 8.186464 8.437423 0.100000
endloop
endfacet
facet normal -0.146605 -0.989195 0.000000
outer loop
vertex 8.188890 8.437063 0.050000
vertex 8.186464 8.437423 0.100000
vertex 8.186464 8.437423 0.050000
endloop
endfacet
facet normal -0.146535 -0.989206 0.000000
outer loop
vertex 8.188890 8.437063 0.000000
vertex 8.188890 8.437063 0.050000
vertex 8.186464 8.437423 0.050000
endloop
endfacet
facet normal -0.146605 -0.989195 0.000000
outer loop
vertex 8.188890 8.437063 0.000000
vertex 8.186464 8.437423 0.050000
vertex 8.186464 8.437423 0.000000
endloop
endfacet
facet normal -0.242878 -0.970057 0.000000
outer loop
vertex 8.186464 8.437423 0.000000
vertex 8.186464 8.437423 0.050000
vertex 8.184084 8.438019 0.050000
endloop
endfacet
facet normal -0.242993 -0.970028 0.000000
outer loop
vertex 8.186464 8.437423 0.000000
vertex 8.184084 8.438019 0.050000
vertex 8.184084 8.438019 0.000000
endloop
endfacet
facet normal -0.242878 -0.970057 0.000000
outer loop
vertex 8.186464 8.437423 0.050000
vertex 8.186464 8.437423 0.100000
vertex 8.184084 8.438019 0.100000
endloop
endfacet
facet normal -0.242993 -0.970028 0.000000
outer loop
vertex 8.186464 8.437423 0.050000
vertex 8.184084 8.438019 0.100000
vertex 8.184084 8.438019 0.050000
endloop
endfacet
facet normal -0.336964 -0.941518 0.000000
outer loop
vertex 8.184084 8.438019 0.050000
vertex 8.184084 8.438019 0.100000
vertex 8.181774 8.438846 0.100000
endloop
endfacet
facet normal -0.336964 -0.941518 0.000000
outer loop
vertex 8.184084 8.438019 0.050000
vertex 8.181774 8.438846 0.100000
vertex 8.181774 8.438846 0.050000
endloop
endfacet
facet normal -0.336964 -0.941518 0.000000
outer loop
vertex 8.184084 8.438019 0.000000
vertex 8.184084 8.438019 0.050000
vertex 8.181774 8.438846 0.050000
endloop
endfacet
facet normal -0.336964 -0.941518 0.000000
outer loop
vertex 8.184084 8.438019 0.000000
vertex 8.181774 8.438846 0.050000
vertex 8.181774 8.438846 0.000000
endloop
endfacet
facet normal -0.427539 -0.903997 0.000000
outer loop
vertex 8.181774 8.438846 0.000000
vertex 8.181774 8.438846 0.050000
vertex 8.179557 8.439894 0.050000
endloop
endfacet
facet normal -0.427481 -0.904025 -0.000030
outer loop
vertex 8.181774 8.438846 0.000000
vertex 8.179557 8.439894 0.050000
vertex 8.179557 8.439895 0.000000
endloop
endfacet
facet normal -0.427856 -0.903847 0.000000
outer loop
vertex 8.181774 8.438846 0.050000
vertex 8.181774 8.438846 0.100000
vertex 8.179557 8.439895 0.100000
endloop
endfacet
facet normal -0.427163 -0.904175 0.000030
outer loop
vertex 8.181774 8.438846 0.050000
vertex 8.179557 8.439895 0.100000
vertex 8.179557 8.439894 0.050000
endloop
endfacet
facet normal -0.514210 -0.857665 0.000000
outer loop
vertex 8.179557 8.439894 0.050000
vertex 8.179557 8.439895 0.100000
vertex 8.177452 8.441155 0.100000
endloop
endfacet
facet normal -0.513853 -0.857878 0.000000
outer loop
vertex 8.179557 8.439894 0.050000
vertex 8.177452 8.441155 0.100000
vertex 8.177452 8.441155 0.050000
endloop
endfacet
facet normal -0.514496 -0.857493 0.000000
outer loop
vertex 8.179557 8.439895 0.000000
vertex 8.179557 8.439894 0.050000
vertex 8.177452 8.441155 0.050000
endloop
endfacet
facet normal -0.513567 -0.858049 0.000000
outer loop
vertex 8.179557 8.439895 0.000000
vertex 8.177452 8.441155 0.050000
vertex 8.177452 8.441155 0.000000
endloop
endfacet
facet normal -0.596055 -0.802943 0.000000
outer loop
vertex 8.177452 8.441155 0.000000
vertex 8.177452 8.441155 0.050000
vertex 8.175483 8.442616 0.050000
endloop
endfacet
facet normal -0.595590 -0.803289 0.000000
outer loop
vertex 8.177452 8.441155 0.000000
vertex 8.175483 8.442616 0.050000
vertex 8.175483 8.442616 0.000000
endloop
endfacet
facet normal -0.596055 -0.802943 0.000000
outer loop
vertex 8.177452 8.441155 0.050000
vertex 8.177452 8.441155 0.100000
vertex 8.175483 8.442616 0.100000
endloop
endfacet
facet normal -0.595590 -0.803289 0.000000
outer loop
vertex 8.177452 8.441155 0.050000
vertex 8.175483 8.442616 0.100000
vertex 8.175483 8.442616 0.050000
endloop
endfacet
facet normal -0.671404 -0.741091 0.000000
outer loop
vertex 8.175483 8.442616 0.050000
vertex 8.175483 8.442616 0.100000
vertex 8.173664 8.444263 0.100000
endloop
endfacet
facet normal -0.671163 -0.741310 0.000000
outer loop
vertex 8.175483 8.442616 0.050000
vertex 8.173664 8.444263 0.100000
vertex 8.173664 8.444263 0.050000
endloop
endfacet
facet normal -0.671404 -0.741091 0.000000
outer loop
vertex 8.175483 8.442616 0.000000
vertex 8.175483 8.442616 0.050000
vertex 8.173664 8.444263 0.050000
endloop
endfacet
facet normal -0.671163 -0.741310 0.000000
outer loop
vertex 8.175483 8.442616 0.000000
vertex 8.173664 8.444263 0.050000
vertex 8.173664 8.444263 0.000000
endloop
endfacet
facet normal -0.741126 -0.671366 0.000000
outer loop
vertex 8.173664 8.444263 0.000000
vertex 8.173664 8.444263 0.050000
vertex 8.172017 8.446082 0.050000
endloop
endfacet
facet normal -0.741368 -0.671099 0.000000
outer loop
vertex 8.173664 8.444263 0.000000
vertex 8.172017 8.446082 0.050000
vertex 8.172017 8.446082 0.000000
endloop
endfacet
facet normal -0.741126 -0.671366 0.000000
outer loop
vertex 8.173664 8.444263 0.050000
vertex 8.173664 8.444263 0.100000
vertex 8.172017 8.446082 0.100000
endloop
endfacet
facet normal -0.741368 -0.671099 0.000000
outer loop
vertex 8.173664 8.444263 0.050000
vertex 8.172017 8.446082 0.100000
vertex 8.172017 8.446082 0.050000
endloop
endfacet
facet normal -0.803023 -0.595948 0.000000
outer loop
vertex 8.172017 8.446082 0.050000
vertex 8.172017 8.446082 0.100000
vertex 8.170556 8.448051 0.100000
endloop
endfacet
facet normal -0.803393 -0.595448 0.000000
outer loop
vertex 8.172017 8.446082 0.050000
vertex 8.170556 8.448051 0.100000
vertex 8.170556 8.448052 0.050000
endloop
endfacet
facet normal -0.803161 -0.595762 0.000000
outer loop
vertex 8.172017 8.446082 0.000000
vertex 8.172017 8.446082 0.050000
vertex 8.170556 8.448052 0.050000
endloop
endfacet
facet normal -0.803256 -0.595634 0.000000
outer loop
vertex 8.172017 8.446082 0.000000
vertex 8.170556 8.448052 0.050000
vertex 8.170556 8.448051 0.000000
endloop
endfacet
facet normal -0.857682 -0.514181 0.000000
outer loop
vertex 8.170556 8.448051 0.000000
vertex 8.170556 8.448052 0.050000
vertex 8.169294 8.450156 0.050000
endloop
endfacet
facet normal -0.857673 -0.514196 -0.000015
outer loop
vertex 8.170556 8.448051 0.000000
vertex 8.169294 8.450156 0.050000
vertex 8.169295 8.450157 0.000000
endloop
endfacet
facet normal -0.857887 -0.513839 0.000000
outer loop
vertex 8.170556 8.448052 0.050000
vertex 8.170556 8.448051 0.100000
vertex 8.169295 8.450157 0.100000
endloop
endfacet
facet normal -0.857467 -0.514539 0.000015
outer loop
vertex 8.170556 8.448052 0.050000
vertex 8.169295 8.450157 0.100000
vertex 8.169294 8.450156 0.050000
endloop
endfacet
facet normal -0.903865 -0.427819 0.000015
outer loop
vertex 8.169294 8.450156 0.050000
vertex 8.169295 8.450157 0.100000
vertex 8.168245 8.452374 0.100000
endloop
endfacet
facet normal -0.903936 -0.427668 0.000000
outer loop
vertex 8.169294 8.450156 0.050000
vertex 8.168245 8.452374 0.100000
vertex 8.168245 8.452374 0.050000
endloop
endfacet
facet normal -0.903936 -0.427669 -0.000015
outer loop
vertex 8.169295 8.450157 0.000000
vertex 8.169294 8.450156 0.050000
vertex 8.168245 8.452374 0.050000
endloop
endfacet
facet normal -0.903865 -0.427819 0.000000
outer loop
vertex 8.169295 8.450157 0.000000
vertex 8.168245 8.452374 0.050000
vertex 8.168245 8.452374 0.000000
endloop
endfacet
facet normal -0.941588 -0.336767 0.000000
outer loop
vertex 8.168245 8.452374 0.000000
vertex 8.168245 8.452374 0.050000
vertex 8.167419 8.454683 0.050000
endloop
endfacet
facet normal -0.941588 -0.336767 0.000000
outer loop
vertex 8.168245 8.452374 0.000000
vertex 8.167419 8.454683 0.050000
vertex 8.167419 8.454683 0.000000
endloop
endfacet
facet normal -0.941588 -0.336767 0.000000
outer loop
vertex 8.168245 8.452374 0.050000
vertex 8.168245 8.452374 0.100000
vertex 8.167419 8.454683 0.100000
endloop
endfacet
facet normal -0.941588 -0.336767 0.000000
outer loop
vertex 8.168245 8.452374 0.050000
vertex 8.167419 8.454683 0.100000
vertex 8.167419 8.454683 0.050000
endloop
endfacet
facet normal -0.970165 -0.242444 0.000000
outer loop
vertex 8.167419 8.454683 0.050000
vertex 8.167419 8.454683 0.100000
vertex 8.166823 8.457064 0.100000
endloop
endfacet
facet normal -0.969913 -0.243450 0.000000
outer loop
vertex 8.167419 8.454683 0.050000
vertex 8.166823 8.457064 0.100000
vertex 8.166823 8.457063 0.050000
endloop
endfacet
facet normal -0.970142 -0.242536 0.000000
outer loop
vertex 8.167419 8.454683 0.000000
vertex 8.167419 8.454683 0.050000
vertex 8.166823 8.457063 0.050000
endloop
endfacet
facet normal -0.969936 -0.243358 0.000000
outer loop
vertex 8.167419 8.454683 0.000000
vertex 8.166823 8.457063 0.050000
vertex 8.166823 8.457064 0.000000
endloop
endfacet
facet normal -0.989177 -0.146725 0.000000
outer loop
vertex 8.166823 8.457064 0.000000
vertex 8.166823 8.457063 0.050000
vertex 8.166464 8.459490 0.050000
endloop
endfacet
facet normal -0.989239 -0.146306 0.000000
outer loop
vertex 8.166823 8.457064 0.000000
vertex 8.166464 8.459490 0.050000
vertex 8.166464 8.459490 0.000000
endloop
endfacet
facet normal -0.989169 -0.146781 0.000000
outer loop
vertex 8.166823 8.457063 0.050000
vertex 8.166823 8.457064 0.100000
vertex 8.166464 8.459490 0.100000
endloop
endfacet
facet normal -0.989248 -0.146249 0.000000
outer loop
vertex 8.166823 8.457063 0.050000
vertex 8.166464 8.459490 0.100000
vertex 8.166464 8.459490 0.050000
endloop
endfacet
facet normal -0.998795 -0.049084 0.000000
outer loop
vertex 8.166464 8.459490 0.050000
vertex 8.166464 8.459490 0.100000
vertex 8.166344 8.461940 0.100000
endloop
endfacet
facet normal -0.998795 -0.049084 0.000000
outer loop
vertex 8.166464 8.459490 0.050000
vertex 8.166344 8.461940 0.100000
vertex 8.166344 8.461940 0.050000
endloop
endfacet
facet normal -0.998795 -0.049084 0.000000
outer loop
vertex 8.166464 8.459490 0.000000
vertex 8.166464 8.459490 0.050000
vertex 8.166344 8.461940 0.050000
endloop
endfacet
facet normal -0.998795 -0.049084 0.000000
outer loop
vertex 8.166464 8.459490 0.000000
vertex 8.166344 8.461940 0.050000
vertex 8.166344 8.461940 0.000000
endloop
endfacet
facet normal -0.998794 0.049103 0.000000
outer loop
vertex 8.166344 8.461940 0.000000
vertex 8.166344 8.461940 0.050000
vertex 8.166464 8.464389 0.050000
endloop
endfacet
facet normal -0.998794 0.049103 0.000000
outer loop
vertex 8.166344 8.461940 0.000000
vertex 8.166464 8.464389 0.050000
vertex 8.166464 8.464389 0.000000
endloop
endfacet
facet normal -0.998794 0.049103 0.000000
outer loop
vertex 8.166344 8.461940 0.050000
vertex 8.166344 8.461940 0.100000
vertex 8.166464 8.464389 0.100000
endloop
endfacet
facet normal -0.998794 0.049103 0.000000
outer loop
vertex 8.166344 8.461940 0.050000
vertex 8.166464 8.464389 0.100000
vertex 8.166464 8.464389 0.050000
endloop
endfacet
facet normal -0.989256 0.146193 0.000000
outer loop
vertex 8.166464 8.464389 0.050000
vertex 8.166464 8.464389 0.100000
vertex 8.166823 8.466817 0.100000
endloop
endfacet
facet normal -0.989186 0.146668 0.000000
outer loop
vertex 8.166464 8.464389 0.050000
vertex 8.166823 8.466817 0.100000
vertex 8.166823 8.466817 0.050000
endloop
endfacet
facet normal -0.989256 0.146193 0.000000
outer loop
vertex 8.166464 8.464389 0.000000
vertex 8.166464 8.464389 0.050000
vertex 8.166823 8.466817 0.050000
endloop
endfacet
facet normal -0.989186 0.146668 0.000000
outer loop
vertex 8.166464 8.464389 0.000000
vertex 8.166823 8.466817 0.050000
vertex 8.166823 8.466817 0.000000
endloop
endfacet
facet normal -0.969913 0.243450 0.000000
outer loop
vertex 8.166823 8.466817 0.000000
vertex 8.166823 8.466817 0.050000
vertex 8.167419 8.469196 0.050000
endloop
endfacet
facet normal -0.970142 0.242536 0.000000
outer loop
vertex 8.166823 8.466817 0.000000
vertex 8.167419 8.469196 0.050000
vertex 8.167419 8.469196 0.000000
endloop
endfacet
facet normal -0.969913 0.243450 0.000000
outer loop
vertex 8.166823 8.466817 0.050000
vertex 8.166823 8.466817 0.100000
vertex 8.167419 8.469196 0.100000
endloop
endfacet
facet normal -0.970142 0.242536 0.000000
outer loop
vertex 8.166823 8.466817 0.050000
vertex 8.167419 8.469196 0.100000
vertex 8.167419 8.469196 0.050000
endloop
endfacet
facet normal -0.941235 0.337752 0.000000
outer loop
vertex 8.167419 8.469196 0.050000
vertex 8.167419 8.469196 0.100000
vertex 8.168246 8.471505 0.100000
endloop
endfacet
facet normal -0.941698 0.336460 0.000000
outer loop
vertex 8.167419 8.469196 0.050000
vertex 8.168246 8.471505 0.100000
vertex 8.168246 8.471505 0.050000
endloop
endfacet
facet normal -0.941235 0.337752 0.000000
outer loop
vertex 8.167419 8.469196 0.000000
vertex 8.167419 8.469196 0.050000
vertex 8.168246 8.471505 0.050000
endloop
endfacet
facet normal -0.941698 0.336460 0.000000
outer loop
vertex 8.167419 8.469196 0.000000
vertex 8.168246 8.471505 0.050000
vertex 8.168246 8.471505 0.000000
endloop
endfacet
facet normal -0.904265 0.426971 0.000000
outer loop
vertex 8.168246 8.471505 0.000000
vertex 8.168246 8.471505 0.050000
vertex 8.169294 8.473724 0.050000
endloop
endfacet
facet normal -0.904078 0.427368 -0.000017
outer loop
vertex 8.168246 8.471505 0.000000
vertex 8.169294 8.473724 0.050000
vertex 8.169295 8.473724 0.000000
endloop
endfacet
facet normal -0.904078 0.427368 0.000000
outer loop
vertex 8.168246 8.471505 0.050000
vertex 8.168246 8.471505 0.100000
vertex 8.169295 8.473724 0.100000
endloop
endfacet
facet normal -0.904265 0.426971 0.000017
outer loop
vertex 8.168246 8.471505 0.050000
vertex 8.169295 8.473724 0.100000
vertex 8.169294 8.473724 0.050000
endloop
endfacet
facet normal -0.857261 0.514882 0.000015
outer loop
vertex 8.169294 8.473724 0.050000
vertex 8.169295 8.473724 0.100000
vertex 8.170556 8.475826 0.100000
endloop
endfacet
facet normal -0.857476 0.514524 0.000000
outer loop
vertex 8.169294 8.473724 0.050000
vertex 8.170556 8.475826 0.100000
vertex 8.170556 8.475826 0.050000
endloop
endfacet
facet normal -0.857261 0.514882 -0.000015
outer loop
vertex 8.169295 8.473724 0.000000
vertex 8.169294 8.473724 0.050000
vertex 8.170556 8.475826 0.050000
endloop
endfacet
facet normal -0.857476 0.514524 0.000000
outer loop
vertex 8.169295 8.473724 0.000000
vertex 8.170556 8.475826 0.050000
vertex 8.170556 8.475826 0.000000
endloop
endfacet
facet normal -0.803531 0.595262 0.000000
outer loop
vertex 8.170556 8.475826 0.000000
vertex 8.170556 8.475826 0.050000
vertex 8.172017 8.477798 0.050000
endloop
endfacet
facet normal -0.803299 0.595576 0.000000
outer loop
vertex 8.170556 8.475826 0.000000
vertex 8.172017 8.477798 0.050000
vertex 8.172017 8.477798 0.000000
endloop
endfacet
facet normal -0.803531 0.595262 0.000000
outer loop
vertex 8.170556 8.475826 0.050000
vertex 8.170556 8.475826 0.100000
vertex 8.172017 8.477798 0.100000
endloop
endfacet
facet normal -0.803299 0.595576 0.000000
outer loop
vertex 8.170556 8.475826 0.050000
vertex 8.172017 8.477798 0.100000
vertex 8.172017 8.477798 0.050000
endloop
endfacet
facet normal -0.741017 0.671486 0.000000
outer loop
vertex 8.172017 8.477798 0.050000
vertex 8.172017 8.477798 0.100000
vertex 8.173664 8.479614 0.100000
endloop
endfacet
facet normal -0.740775 0.671753 0.000000
outer loop
vertex 8.172017 8.477798 0.050000
vertex 8.173664 8.479614 0.100000
vertex 8.173664 8.479614 0.050000
endloop
endfacet
facet normal -0.741017 0.671486 0.000000
outer loop
vertex 8.172017 8.477798 0.000000
vertex 8.172017 8.477798 0.050000
vertex 8.173664 8.479614 0.050000
endloop
endfacet
facet normal -0.740775 0.671753 0.000000
outer loop
vertex 8.172017 8.477798 0.000000
vertex 8.173664 8.479614 0.050000
vertex 8.173664 8.479614 0.000000
endloop
endfacet
facet normal -0.671376 0.741117 0.000000
outer loop
vertex 8.173664 8.479614 0.000000
vertex 8.173664 8.479614 0.050000
vertex 8.175483 8.481262 0.050000
endloop
endfacet
facet normal -0.671831 0.740704 0.000000
outer loop
vertex 8.173664 8.479614 0.000000
vertex 8.175483 8.481262 0.050000
vertex 8.175483 8.481263 0.000000
endloop
endfacet
facet normal -0.671589 0.740923 0.000000
outer loop
vertex 8.173664 8.479614 0.050000
vertex 8.173664 8.479614 0.100000
vertex 8.175483 8.481263 0.100000
endloop
endfacet
facet normal -0.671618 0.740898 0.000000
outer loop
vertex 8.173664 8.479614 0.050000
vertex 8.175483 8.481263 0.100000
vertex 8.175483 8.481262 0.050000
endloop
endfacet
facet normal -0.595339 0.803475 0.000000
outer loop
vertex 8.175483 8.481262 0.050000
vertex 8.175483 8.481263 0.100000
vertex 8.177452 8.482723 0.100000
endloop
endfacet
facet normal -0.596055 0.802943 -0.000005
outer loop
vertex 8.175483 8.481262 0.050000
vertex 8.177452 8.482723 0.100000
vertex 8.177453 8.482723 0.050000
endloop
endfacet
facet normal -0.595590 0.803289 0.000000
outer loop
vertex 8.175483 8.481263 0.000000
vertex 8.175483 8.481262 0.050000
vertex 8.177453 8.482723 0.050000
endloop
endfacet
facet normal -0.595804 0.803130 0.000005
outer loop
vertex 8.175483 8.481263 0.000000
vertex 8.177453 8.482723 0.050000
vertex 8.177452 8.482723 0.000000
endloop
endfacet
facet normal -0.514139 0.857707 0.000030
outer loop
vertex 8.177452 8.482723 0.000000
vertex 8.177453 8.482723 0.050000
vertex 8.179557 8.483986 0.050000
endloop
endfacet
facet normal -0.514353 0.857579 -0.000024
outer loop
vertex 8.177452 8.482723 0.000000
vertex 8.179557 8.483986 0.050000
vertex 8.179558 8.483986 0.000000
endloop
endfacet
facet normal -0.514139 0.857707 0.000000
outer loop
vertex 8.177453 8.482723 0.050000
vertex 8.177452 8.482723 0.100000
vertex 8.179558 8.483986 0.100000
endloop
endfacet
facet normal -0.514353 0.857579 -0.000006
outer loop
vertex 8.177453 8.482723 0.050000
vertex 8.179558 8.483986 0.100000
vertex 8.179557 8.483986 0.050000
endloop
endfacet
facet normal -0.427539 0.903997 0.000000
outer loop
vertex 8.179557 8.483986 0.050000
vertex 8.179558 8.483986 0.100000
vertex 8.181774 8.485034 0.100000
endloop
endfacet
facet normal -0.427539 0.903997 0.000000
outer loop
vertex 8.179557 8.483986 0.050000
vertex 8.181774 8.485034 0.100000
vertex 8.181774 8.485034 0.050000
endloop
endfacet
facet normal -0.427539 0.903997 0.000000
outer loop
vertex 8.179558 8.483986 0.000000
vertex 8.179557 8.483986 0.050000
vertex 8.181774 8.485034 0.050000
endloop
endfacet
facet normal -0.427539 0.903997 0.000000
outer loop
vertex 8.179558 8.483986 0.000000
vertex 8.181774 8.485034 0.050000
vertex 8.181774 8.485034 0.000000
endloop
endfacet
facet normal 0.000008 0.000000 1.000000
outer loop
vertex 8.196218 8.486460 0.100000
vertex 8.193790 8.486816 0.100000
vertex 8.191341 8.461941 0.100000
endloop
endfacet
facet normal 0.000000 0.000000 1.000000
outer loop
vertex 8.196218 8.486460 0.100000
vertex 8.191341 8.461941 0.100000
vertex 8.198597 8.485860 0.100000
endloop
endfacet
facet normal 0.000000 0.000000 1.000000
outer loop
vertex 8.191340 8.486940 0.100000
vertex 8.188890 8.486816 0.100000
vertex 8.191341 8.461941 0.100000
endloop
endfacet
facet normal 0.000000 0.000000 1.000000
outer loop
vertex 8.191340 8.486940 0.100000
vertex 8.191341 8.461941 0.100000
vertex 8.193790 8.486816 0.100000
endloop
endfacet
facet normal 0.000000 0.000000 1.000000
outer loop
vertex 8.186463 8.486460 0.100000
vertex 8.184084 8.485860 0.100000
vertex 8.191341 8.461941 0.100000
endloop
endfacet
facet normal -0.000008 0.000000 1.000000
outer loop
vertex 8.186463 8.486460 0.100000
vertex 8.191341 8.461941 0.100000
vertex 8.188890 8.486816 0.100000
endloop
endfacet
facet normal 0.000008 0.000000 1.000000
outer loop
vertex 8.181773 8.485036 0.100000
vertex 8.179557 8.483986 0.100000
vertex 8.191341 8.461941 0.100000
endloop
endfacet
facet normal -0.000008 0.000000 1.000000
outer loop
vertex 8.181773 8.485036 0.100000
vertex 8.191341 8.461941 0.100000
vertex 8.184084 8.485860 0.100000
endloop
endfacet
facet normal 0.000000 0.000000 1.000000
outer loop
vertex 8.177451 8.482726 0.100000
vertex 8.175483 8.481263 0.100000
vertex 8.191341 8.461941 0.100000
endloop
endfacet
facet normal 0.000000 0.000000 1.000000
outer loop
vertex 8.177451 8.482726 0.100000
vertex 8.191341 8.461941 0.100000
vertex 8.179557 8.483986 0.100000
endloop
endfacet
facet normal 0.000004 0.000000 1.000000
outer loop
vertex 8.173663 8.479617 0.100000
vertex 8.172017 8.477798 0.100000
vertex 8.191341 8.461941 0.100000
endloop
endfacet
facet normal 0.000000 0.000000 1.000000
outer loop
vertex 8.173663 8.479617 0.100000
vertex 8.191341 8.461941 0.100000
vertex 8.175483 8.481263 0.100000
endloop
endfacet
facet normal -0.000004 0.000000 1.000000
outer loop
vertex 8.170553 8.475828 0.100000
vertex 8.169295 8.473724 0.100000
vertex 8.191341 8.461941 0.100000
endloop
endfacet
facet normal 0.000000 0.000000 1.000000
outer loop
vertex 8.170553 8.475828 0.100000
vertex 8.191341 8.461941 0.100000
vertex 8.172017 8.477798 0.100000
endloop
endfacet
facet normal 0.000000 0.000000 1.000000
outer loop
vertex 8.168243 8.471506 0.100000
vertex 8.167419 8.469196 0.100000
vertex 8.191341 8.461941 0.100000
endloop
endfacet
facet normal 0.000000 0.000000 1.000000
outer loop
vertex 8.168243 8.471506 0.100000
vertex 8.191341 8.461941 0.100000
vertex 8.169295 8.473724 0.100000
endloop
endfacet
facet normal 0.000000 0.000000 1.000000
outer loop
vertex 8.166821 8.466817 0.100000
vertex 8.166464 8.464389 0.100000
vertex 8.191341 8.461941 0.100000
endloop
endfacet
facet normal 0.000002 0.000000 1.000000
outer loop
vertex 8.166821 8.466817 0.100000
vertex 8.191341 8.461941 0.100000
vertex 8.167419 8.469196 0.100000
endloop
endfacet
facet normal 0.000000 0.000000 1.000000
outer loop
vertex 8.166341 8.461940 0.100000
vertex 8.166464 8.459490 0.100000
vertex 8.191341 8.461941 0.100000
endloop
endfacet
facet normal 0.000000 0.000000 1.000000
outer loop
vertex 8.166341 8.461940 0.100000
vertex 8.191341 8.461941 0.100000
vertex 8.166464 8.464389 0.100000
endloop
endfacet
facet normal 0.000000 0.000000 1.000000
outer loop
vertex 8.166821 8.457063 0.100000
vertex 8.167419 8.454683 0.100000
vertex 8.191341 8.461941 0.100000
endloop
endfacet
facet normal 0.000000 0.000000 1.000000
outer loop
vertex 8.166821 8.457063 0.100000
vertex 8.191341 8.461941 0.100000
vertex 8.166464 8.459490 0.100000
endloop
endfacet
facet normal -0.000004 0.000000 1.000000
outer loop
vertex 8.168243 8.452373 0.100000
vertex 8.169294 8.450156 0.100000
vertex 8.191341 8.461941 0.100000
endloop
endfacet
facet normal 0.000000 0.000000 1.000000
outer loop
vertex 8.168243 8.452373 0.100000
vertex 8.191341 8.461941 0.100000
vertex 8.167419 8.454683 0.100000
endloop
endfacet
facet normal 0.000000 0.000000 1.000000
outer loop
vertex 8.170553 8.448050 0.100000
vertex 8.172017 8.446082 0.100000
vertex 8.191341 8.461941 0.100000
endloop
endfacet
facet normal 0.000004 0.000000 1.000000
outer loop
vertex 8.170553 8.448050 0.100000
vertex 8.191341 8.461941 0.100000
vertex 8.169294 8.450156 0.100000
endloop
endfacet
facet normal 0.000000 0.000000 1.000000
outer loop
vertex 8.173663 8.444263 0.100000
vertex 8.175483 8.442616 0.100000
vertex 8.191341 8.461941 0.100000
endloop
endfacet
facet normal 0.000000 0.000000 1.000000
outer loop
vertex 8.173663 8.444263 0.100000
vertex 8.191341 8.461941 0.100000
vertex 8.172017 8.446082 0.100000
endloop
endfacet
facet normal 0.000000 0.000000 1.000000
outer loop
vertex 8.177451 8.441153 0.100000
vertex 8.179558 8.439895 0.100000
vertex 8.191341 8.461941 0.100000
endloop
endfacet
facet normal 0.000000 0.000000 1.000000
outer loop
vertex 8.177451 8.441153 0.100000
vertex 8.191341 8.461941 0.100000
vertex 8.175483 8.442616 0.100000
endloop
endfacet
facet normal -0.000008 0.000000 1.000000
outer loop
vertex 8.181773 8.438843 0.100000
vertex 8.184084 8.438019 0.100000
vertex 8.191341 8.461941 0.100000
endloop
endfacet
facet normal 0.000000 0.000000 1.000000
outer loop
vertex 8.181773 8.438843 0.100000
vertex 8.191341 8.461941 0.100000
vertex 8.179558 8.439895 0.100000
endloop
endfacet
facet normal 0.000000 0.000000 1.000000
outer loop
vertex 8.186463 8.437422 0.100000
vertex 8.188890 8.437063 0.100000
vertex 8.191341 8.461941 0.100000
endloop
endfacet
facet normal 0.000008 0.000000 1.000000
outer loop
vertex 8.186463 8.437422 0.100000
vertex 8.191341 8.461941 0.100000
vertex 8.184084 8.438019 0.100000
endloop
endfacet
facet normal 0.000000 0.000000 1.000000
outer loop
vertex 8.191340 8.436940 0.100000
vertex 8.193790 8.437063 0.100000
vertex 8.191341 8.461941 0.100000
endloop
endfacet
facet normal 0.000000 0.000000 1.000000
outer loop
vertex 8.191340 8.436940 0.100000
vertex 8.191341 8.461941 0.100000
vertex 8.188890 8.437063 0.100000
endloop
endfacet
facet normal -0.000008 0.000000 1.000000
outer loop
vertex 8.196218 8.437422 0.100000
vertex 8.198597 8.438019 0.100000
vertex 8.191341 8.461941 0.100000
endloop
endfacet
facet normal 0.000000 0.000000 1.000000
outer loop
vertex 8.196218 8.437422 0.100000
vertex 8.191341 8.461941 0.100000
vertex 8.193790 8.437063 0.100000
endloop
endfacet
facet normal 0.000000 0.000000 1.000000
outer loop
vertex 8.200908 8.438843 0.100000
vertex 8.203125 8.439894 0.100000
vertex 8.191341 8.461941 0.100000
endloop
endfacet
facet normal 0.000008 0.000000 1.000000
outer loop
vertex 8.200908 8.438843 0.100000
vertex 8.191341 8.461941 0.100000
vertex 8.198597 8.438019 0.100000
endloop
endfacet
facet normal 0.000000 0.000000 1.000000
outer loop
vertex 8.205230 8.441153 0.100000
vertex 8.207198 8.442616 0.100000
vertex 8.191341 8.461941 0.100000
endloop
endfacet
facet normal 0.000000 0.000000 1.000000
outer loop
vertex 8.205230 8.441153 0.100000
vertex 8.191341 8.461941 0.100000
vertex 8.203125 8.439894 0.100000
endloop
endfacet
facet normal 0.000000 0.000000 1.000000
outer loop
vertex 8.209018 8.444263 0.100000
vertex 8.210664 8.446082 0.100000
vertex 8.191341 8.461941 0.100000
endloop
endfacet
facet normal 0.000000 0.000000 1.000000
outer loop
vertex 8.209018 8.444263 0.100000
vertex 8.191341 8.461941 0.100000
vertex 8.207198 8.442616 0.100000
endloop
endfacet
facet normal 0.000000 0.000000 1.000000
outer loop
vertex 8.212127 8.448050 0.100000
vertex 8.213387 8.450157 0.100000
vertex 8.191341 8.461941 0.100000
endloop
endfacet
facet normal 0.000000 0.000000 1.000000
outer loop
vertex 8.212127 8.448050 0.100000
vertex 8.191341 8.461941 0.100000
vertex 8.210664 8.446082 0.100000
endloop
endfacet
facet normal 0.000000 0.000000 1.000000
outer loop
vertex 8.214437 8.452373 0.100000
vertex 8.215261 8.454683 0.100000
vertex 8.191341 8.461941 0.100000
endloop
endfacet
facet normal 0.000000 0.000000 1.000000
outer loop
vertex 8.214437 8.452373 0.100000
vertex 8.191341 8.461941 0.100000
vertex 8.213387 8.450157 0.100000
endloop
endfacet
facet normal 0.000000 0.000000 1.000000
outer loop
vertex 8.215860 8.457063 0.100000
vertex 8.216219 8.459490 0.100000
vertex 8.191341 8.461941 0.100000
endloop
endfacet
facet normal 0.000000 0.000000 1.000000
outer loop
vertex 8.215860 8.457063 0.100000
vertex 8.191341 8.461941 0.100000
vertex 8.215261 8.454683 0.100000
endloop
endfacet
facet normal 0.000000 0.000000 1.000000
outer loop
vertex 8.216341 8.461940 0.100000
vertex 8.216219 8.464389 0.100000
vertex 8.191341 8.461941 0.100000
endloop
endfacet
facet normal 0.000000 0.000000 1.000000
outer loop
vertex 8.216341 8.461940 0.100000
vertex 8.191341 8.461941 0.100000
vertex 8.216219 8.459490 0.100000
endloop
endfacet
facet normal -0.000002 0.000000 1.000000
outer loop
vertex 8.215860 8.466817 0.100000
vertex 8.215261 8.469196 0.100000
vertex 8.191341 8.461941 0.100000
endloop
endfacet
facet normal 0.000000 0.000000 1.000000
outer loop
vertex 8.215860 8.466817 0.100000
vertex 8.191341 8.461941 0.100000
vertex 8.216219 8.464389 0.100000
endloop
endfacet
facet normal 0.000000 0.000000 1.000000
outer loop
vertex 8.214437 8.471506 0.100000
vertex 8.213387 8.473724 0.100000
vertex 8.191341 8.461941 0.100000
endloop
endfacet
facet normal 0.000000 0.000000 1.000000
outer loop
vertex 8.214437 8.471506 0.100000
vertex 8.191341 8.461941 0.100000
vertex 8.215261 8.469196 0.100000
endloop
endfacet
facet normal 0.000000 0.000000 1.000000
outer loop
vertex 8.212127 8.475828 0.100000
vertex 8.210664 8.477798 0.100000
vertex 8.191341 8.461941 0.100000
endloop
endfacet
facet normal 0.000004 0.000000 1.000000
outer loop
vertex 8.212127 8.475828 0.100000
vertex 8.191341 8.461941 0.100000
vertex 8.213387 8.473724 0.100000
endloop
endfacet
facet normal 0.000000 0.000000 1.000000
outer loop
vertex 8.209018 8.479617 0.100000
vertex 8.207198 8.481263 0.100000
vertex 8.191341 8.461941 0.100000
endloop
endfacet
facet normal -0.000004 0.000000 1.000000
outer loop
vertex 8.209018 8.479617 0.100000
vertex 8.191341 8.461941 0.100000
vertex 8.210664 8.477798 0.100000
endloop
endfacet
facet normal 0.000000 0.000000 1.000000
outer loop
vertex 8.205230 8.482726 0.100000
vertex 8.203125 8.483986 0.100000
vertex 8.191341 8.461941 0.100000
endloop
endfacet
facet normal 0.000000 0.000000 1.000000
outer loop
vertex 8.205230 8.482726 0.100000
vertex 8.191341 8.461941 0.100000
vertex 8.207198 8.481263 0.100000
endloop
endfacet
facet normal 0.000008 0.000000 1.000000
outer loop
vertex 8.200908 8.485036 0.100000
vertex 8.198597 8.485860 0.100000
vertex 8.191341 8.461941 0.100000
endloop
endfacet
facet normal -0.000008 0.000000 1.000000
outer loop
vertex 8.200908 8.485036 0.100000
vertex 8.191341 8.461941 0.100000
vertex 8.203125 8.483986 0.100000
endloop
endfacet
facet normal -0.336620 0.941641 0.000000
outer loop
vertex 8.181774 8.485034 0.000000
vertex 8.181774 8.485034 0.050000
vertex 8.184084 8.485860 0.050000
endloop
endfacet
facet normal -0.336620 0.941641 0.000000
outer loop
vertex 8.181774 8.485034 0.000000
vertex 8.184084 8.485860 0.050000
vertex 8.184084 8.485860 0.000000
endloop
endfacet
facet normal -0.336619 0.941641 0.000000
outer loop
vertex 8.181774 8.485034 0.050000
vertex 8.181774 8.485034 0.100000
vertex 8.184084 8.485860 0.100000
endloop
endfacet
facet normal -0.336620 0.941641 0.000000
outer loop
vertex 8.181774 8.485034 0.050000
vertex 8.184084 8.485860 0.100000
vertex 8.184084 8.485860 0.050000
endloop
endfacet
facet normal -0.243359 0.969936 0.000000
outer loop
vertex 8.184084 8.485860 0.050000
vertex 8.184084 8.485860 0.100000
vertex 8.186464 8.486457 0.100000
endloop
endfacet
facet normal -0.243244 0.969965 0.000002
outer loop
vertex 8.184084 8.485860 0.050000
vertex 8.186464 8.486457 0.100000
vertex 8.186463 8.486457 0.050000
endloop
endfacet
facet normal -0.243359 0.969936 0.000000
outer loop
vertex 8.184084 8.485860 0.000000
vertex 8.184084 8.485860 0.050000
vertex 8.186463 8.486457 0.050000
endloop
endfacet
facet normal -0.243244 0.969965 -0.000002
outer loop
vertex 8.184084 8.485860 0.000000
vertex 8.186463 8.486457 0.050000
vertex 8.186464 8.486457 0.000000
endloop
endfacet
facet normal -0.146605 0.989195 -0.000030
outer loop
vertex 8.186464 8.486457 0.000000
vertex 8.186463 8.486457 0.050000
vertex 8.188890 8.486816 0.050000
endloop
endfacet
facet normal -0.146535 0.989206 0.000000
outer loop
vertex 8.186464 8.486457 0.000000
vertex 8.188890 8.486816 0.050000
vertex 8.188890 8.486816 0.000000
endloop
endfacet
facet normal -0.146605 0.989195 0.000030
outer loop
vertex 8.186463 8.486457 0.050000
vertex 8.186464 8.486457 0.100000
vertex 8.188890 8.486816 0.100000
endloop
endfacet
facet normal -0.146535 0.989206 0.000000
outer loop
vertex 8.186463 8.486457 0.050000
vertex 8.188890 8.486816 0.100000
vertex 8.188890 8.486816 0.050000
endloop
endfacet
facet normal -0.049404 0.998779 0.000000
outer loop
vertex 8.188890 8.486816 0.050000
vertex 8.188890 8.486816 0.100000
vertex 8.191340 8.486938 0.100000
endloop
endfacet
facet normal -0.049356 0.998781 0.000000
outer loop
vertex 8.188890 8.486816 0.050000
vertex 8.191340 8.486938 0.100000
vertex 8.191340 8.486938 0.050000
endloop
endfacet
facet normal -0.049404 0.998779 0.000000
outer loop
vertex 8.188890 8.486816 0.000000
vertex 8.188890 8.486816 0.050000
vertex 8.191340 8.486938 0.050000
endloop
endfacet
facet normal -0.049356 0.998781 0.000000
outer loop
vertex 8.188890 8.486816 0.000000
vertex 8.191340 8.486938 0.050000
vertex 8.191340 8.486938 0.000000
endloop
endfacet
facet normal 0.000000 0.000000 -1.000000
outer loop
vertex 8.191340 8.486940 0.000000
vertex 8.193790 8.486816 0.000000
vertex 8.191341 8.461941 0.000000
endloop
endfacet
facet normal 0.000000 0.000000 -1.000000
outer loop
vertex 8.191340 8.486940 0.000000
vertex 8.191341 8.461941 0.000000
vertex 8.188890 8.486816 0.000000
endloop
endfacet
facet normal 0.000000 0.000000 -1.000000
outer loop
vertex 8.196218 8.486460 0.000000
vertex 8.198597 8.485860 0.000000
vertex 8.191341 8.461941 0.000000
endloop
endfacet
facet normal 0.000000 0.000000 -1.000000
outer loop
vertex 8.196218 8.486460 0.000000
vertex 8.191341 8.461941 0.000000
vertex 8.193790 8.486816 0.000000
endloop
endfacet
facet normal 0.000000 0.000000 -1.000000
outer loop
vertex 8.200908 8.485036 0.000000
vertex 8.203125 8.483986 0.000000
vertex 8.191341 8.461941 0.000000
endloop
endfacet
facet normal 0.000000 0.000000 -1.000000
outer loop
vertex 8.200908 8.485036 0.000000
vertex 8.191341 8.461941 0.000000
vertex 8.198597 8.485860 0.000000
endloop
endfacet
facet normal 0.000000 0.000000 -1.000000
outer loop
vertex 8.205230 8.482726 0.000000
vertex 8.207198 8.481263 0.000000
vertex 8.191341 8.461941 0.000000
endloop
endfacet
facet normal 0.000000 0.000000 -1.000000
outer loop
vertex 8.205230 8.482726 0.000000
vertex 8.191341 8.461941 0.000000
vertex 8.203125 8.483986 0.000000
endloop
endfacet
facet normal 0.000000 0.000000 -1.000000
outer loop
vertex 8.209018 8.479617 0.000000
vertex 8.210664 8.477798 0.000000
vertex 8.191341 8.461941 0.000000
endloop
endfacet
facet normal 0.000000 0.000000 -1.000000
outer loop
vertex 8.209018 8.479617 0.000000
vertex 8.191341 8.461941 0.000000
vertex 8.207198 8.481263 0.000000
endloop
endfacet
facet normal 0.000000 0.000000 -1.000000
outer loop
vertex 8.212127 8.475828 0.000000
vertex 8.213387 8.473724 0.000000
vertex 8.191341 8.461941 0.000000
endloop
endfacet
facet normal 0.000000 0.000000 -1.000000
outer loop
vertex 8.212127 8.475828 0.000000
vertex 8.191341 8.461941 0.000000
vertex 8.210664 8.477798 0.000000
endloop
endfacet
facet normal 0.000000 0.000000 -1.000000
outer loop
vertex 8.214437 8.471506 0.000000
vertex 8.215261 8.469196 0.000000
vertex 8.191341 8.461941 0.000000
endloop
endfacet
facet normal 0.000000 0.000000 -1.000000
outer loop
vertex 8.214437 8.471506 0.000000
vertex 8.191341 8.461941 0.000000
vertex 8.213387 8.473724 0.000000
endloop
endfacet
facet normal 0.000000 0.000000 -1.000000
outer loop
vertex 8.215860 8.466817 0.000000
vertex 8.216219 8.464389 0.000000
vertex 8.191341 8.461941 0.000000
endloop
endfacet
facet normal 0.000000 0.000000 -1.000000
outer loop
vertex 8.215860 8.466817 0.000000
vertex 8.191341 8.461941 0.000000
vertex 8.215261 8.469196 0.000000
endloop
endfacet
facet normal 0.000000 0.000000 -1.000000
outer loop
vertex 8.216341 8.461940 0.000000
vertex 8.216219 8.459490 0.000000
vertex 8.191341 8.461941 0.000000
endloop
endfacet
facet normal 0.000000 0.000000 -1.000000
outer loop
vertex 8.216341 8.461940 0.000000
vertex 8.191341 8.461941 0.000000
vertex 8.216219 8.464389 0.000000
endloop
endfacet
facet normal 0.000000 0.000000 -1.000000
outer loop
vertex 8.215860 8.457063 0.000000
vertex 8.215261 8.454683 0.000000
vertex 8.191341 8.461941 0.000000
endloop
endfacet
facet normal 0.000000 0.000000 -1.000000
outer loop
vertex 8.215860 8.457063 0.000000
vertex 8.191341 8.461941 0.000000
vertex 8.216219 8.459490 0.000000
endloop
endfacet
facet normal 0.000000 0.000000 -1.000000
outer loop
vertex 8.214437 8.452373 0.000000
vertex 8.213387 8.450156 0.000000
vertex 8.191341 8.461941 0.000000
endloop
endfacet
facet normal 0.000000 0.000000 -1.000000
outer loop
vertex 8.214437 8.452373 0.000000
vertex 8.191341 8.461941 0.000000
vertex 8.215261 8.454683 0.000000
endloop
endfacet
facet normal 0.000000 0.000000 -1.000000
outer loop
vertex 8.212127 8.448050 0.000000
vertex 8.210664 8.446082 0.000000
vertex 8.191341 8.461941 0.000000
endloop
endfacet
facet normal 0.000000 0.000000 -1.000000
outer loop
vertex 8.212127 8.448050 0.000000
vertex 8.191341 8.461941 0.000000
vertex 8.213387 8.450156 0.000000
endloop
endfacet
facet normal 0.000000 0.000000 -1.000000
outer loop
vertex 8.209018 8.444263 0.000000
vertex 8.207198 8.442616 0.000000
vertex 8.191341 8.461941 0.000000
endloop
endfacet
facet normal 0.000000 0.000000 -1.000000
outer loop
vertex 8.209018 8.444263 0.000000
vertex 8.191341 8.461941 0.000000
vertex 8.210664 8.446082 0.000000
endloop
endfacet
facet normal 0.000000 0.000000 -1.000000
outer loop
vertex 8.205230 8.441153 0.000000
vertex 8.203125 8.439894 0.000000
vertex 8.191341 8.461941 0.000000
endloop
endfacet
facet normal 0.000000 0.000000 -1.000000
outer loop
vertex 8.205230 8.441153 0.000000
vertex 8.191341 8.461941 0.000000
vertex 8.207198 8.442616 0.000000
endloop
endfacet
facet normal 0.000000 0.000000 -1.000000
outer loop
vertex 8.200908 8.438843 0.000000
vertex 8.198597 8.438019 0.000000
vertex 8.191341 8.461941 0.000000
endloop
endfacet
facet normal 0.000000 0.000000 -1.000000
outer loop
vertex 8.200908 8.438843 0.000000
vertex 8.191341 8.461941 0.000000
vertex 8.203125 8.439894 0.000000
endloop
endfacet
facet normal 0.000000 0.000000 -1.000000
outer loop
vertex 8.196218 8.437422 0.000000
vertex 8.193790 8.437063 0.000000
vertex 8.191341 8.461941 0.000000
endloop
endfacet
facet normal 0.000000 0.000000 -1.000000
outer loop
vertex 8.196218 8.437422 0.000000
vertex 8.191341 8.461941 0.000000
vertex 8.198597 8.438019 0.000000
endloop
endfacet
facet normal 0.000000 0.000000 -1.000000
outer loop
vertex 8.191340 8.436940 0.000000
vertex 8.188890 8.437063 0.000000
vertex 8.191341 8.461941 0.000000
endloop
endfacet
facet normal 0.000000 0.000000 -1.000000
outer loop
vertex 8.191340 8.436940 0.000000
vertex 8.191341 8.461941 0.000000
vertex 8.193790 8.437063 0.000000
endloop
endfacet
facet normal 0.000000 0.000000 -1.000000
outer loop
vertex 8.186463 8.437422 0.000000
vertex 8.184084 8.438019 0.000000
vertex 8.191341 8.461941 0.000000
endloop
endfacet
facet normal 0.000000 0.000000 -1.000000
outer loop
vertex 8.186463 8.437422 0.000000
vertex 8.191341 8.461941 0.000000
vertex 8.188890 8.437063 0.000000
endloop
endfacet
facet normal 0.000000 0.000000 -1.000000
outer loop
vertex 8.181773 8.438843 0.000000
vertex 8.179557 8.439894 0.000000
vertex 8.191341 8.461941 0.000000
endloop
endfacet
facet normal 0.000000 0.000000 -1.000000
outer loop
vertex 8.181773 8.438843 0.000000
vertex 8.191341 8.461941 0.000000
vertex 8.184084 8.438019 0.000000
endloop
endfacet
facet normal 0.000000 0.000000 -1.000000
outer loop
vertex 8.177451 8.441153 0.000000
vertex 8.175483 8.442616 0.000000
vertex 8.191341 8.461941 0.000000
endloop
endfacet
facet normal 0.000000 0.000000 -1.000000
outer loop
vertex 8.177451 8.441153 0.000000
vertex 8.191341 8.461941 0.000000
vertex 8.179557 8.439894 0.000000
endloop
endfacet
facet normal 0.000000 0.000000 -1.000000
outer loop
vertex 8.173663 8.444263 0.000000
vertex 8.172017 8.446082 0.000000
vertex 8.191341 8.461941 0.000000
endloop
endfacet
facet normal 0.000000 0.000000 -1.000000
outer loop
vertex 8.173663 8.444263 0.000000
vertex 8.191341 8.461941 0.000000
vertex 8.175483 8.442616 0.000000
endloop
endfacet
facet normal 0.000000 0.000000 -1.000000
outer loop
vertex 8.170553 8.448050 0.000000
vertex 8.169294 8.450157 0.000000
vertex 8.191341 8.461941 0.000000
endloop
endfacet
facet normal 0.000000 0.000000 -1.000000
outer loop
vertex 8.170553 8.448050 0.000000
vertex 8.191341 8.461941 0.000000
vertex 8.172017 8.446082 0.000000
endloop
endfacet
facet normal 0.000000 0.000000 -1.000000
outer loop
vertex 8.168243 8.452373 0.000000
vertex 8.167419 8.454683 0.000000
vertex 8.191341 8.461941 0.000000
endloop
endfacet
facet normal 0.000000 0.000000 -1.000000
outer loop
vertex 8.168243 8.452373 0.000000
vertex 8.191341 8.461941 0.000000
vertex 8.169294 8.450157 0.000000
endloop
endfacet
facet normal 0.000000 0.000000 -1.000000
outer loop
vertex 8.166821 8.457063 0.000000
vertex 8.166464 8.459490 0.000000
vertex 8.191341 8.461941 0.000000
endloop
endfacet
facet normal 0.000000 0.000000 -1.000000
outer loop
vertex 8.166821 8.457063 0.000000
vertex 8.191341 8.461941 0.000000
vertex 8.167419 8.454683 0.000000
endloop
endfacet
facet normal 0.000000 0.000000 -1.000000
outer loop
vertex 8.166341 8.461940 0.000000
vertex 8.166464 8.464389 0.000000
vertex 8.191341 8.461941 0.000000
endloop
endfacet
facet normal 0.000000 0.000000 -1.000000
outer loop
vertex 8.166341 8.461940 0.000000
vertex 8.191341 8.461941 0.000000
vertex 8.166464 8.459490 0.000000
endloop
endfacet
facet normal 0.000000 0.000000 -1.000000
outer loop
vertex 8.166821 8.466817 0.000000
vertex 8.167419 8.469196 0.000000
vertex 8.191341 8.461941 0.000000
endloop
endfacet
facet normal 0.000000 0.000000 -1.000000
outer loop
vertex 8.166821 8.466817 0.000000
vertex 8.191341 8.461941 0.000000
vertex 8.166464 8.464389 0.000000
endloop
endfacet
facet normal 0.000000 0.000000 -1.000000
outer loop
vertex 8.168243 8.471506 0.000000
vertex 8.169294 8.473724 0.000000
vertex 8.191341 8.461941 0.000000
endloop
endfacet
facet normal 0.000000 0.000000 -1.000000
outer loop
vertex 8.168243 8.471506 0.000000
vertex 8.191341 8.461941 0.000000
vertex 8.167419 8.469196 0.000000
endloop
endfacet
facet normal 0.000000 0.000000 -1.000000
outer loop
vertex 8.170553 8.475828 0.000000
vertex 8.172017 8.477798 0.000000
vertex 8.191341 8.461941 0.000000
endloop
endfacet
facet normal 0.000000 0.000000 -1.000000
outer loop
vertex 8.170553 8.475828 0.000000
vertex 8.191341 8.461941 0.000000
vertex 8.169294 8.473724 0.000000
endloop
endfacet
facet normal 0.000000 0.000000 -1.000000
outer loop
vertex 8.173663 8.479617 0.000000
vertex 8.175483 8.481263 0.000000
vertex 8.191341 8.461941 0.000000
endloop
endfacet
facet normal 0.000000 0.000000 -1.000000
outer loop
vertex 8.173663 8.479617 0.000000
vertex 8.191341 8.461941 0.000000
vertex 8.172017 8.477798 0.000000
endloop
endfacet
facet normal 0.000000 0.000000 -1.000000
outer loop
vertex 8.177451 8.482726 0.000000
vertex 8.179558 8.483986 0.000000
vertex 8.191341 8.461941 0.000000
endloop
endfacet
facet normal 0.000000 0.000000 -1.000000
outer loop
vertex 8.177451 8.482726 0.000000
vertex 8.191341 8.461941 0.000000
vertex 8.175483 8.481263 0.000000
endloop
endfacet
facet normal 0.000000 0.000000 -1.000000
outer loop
vertex 8.181773 8.485036 0.000000
vertex 8.184084 8.485860 0.000000
vertex 8.191341 8.461941 0.000000
endloop
endfacet
facet normal 0.000000 0.000000 -1.000000
outer loop
vertex 8.181773 8.485036 0.000000
vertex 8.191341 8.461941 0.000000
vertex 8.179558 8.483986 0.000000
endloop
endfacet
facet normal 0.000000 0.000000 -1.000000
outer loop
vertex 8.186463 8.486460 0.000000
vertex 8.188890 8.486816 0.000000
vertex 8.191341 8.461941 0.000000
endloop
endfacet
facet normal 0.000000 0.000000 -1.000000
outer loop
vertex 8.186463 8.486460 0.000000
vertex 8.191341 8.461941 0.000000
vertex 8.184084 8.485860 0.000000
endloop
endfacet
endsolid Exported from Blender-2.82 (sub 7)
