solid Exported from Blender-2.82 (sub 7)
facet normal 0.049404 0.998779 0.000000
outer loop
vertex 12.500000 7.987498 0.000000
vertex 12.500000 7.987498 0.050000
vertex 12.502450 7.987377 0.050000
endloop
endfacet
facet normal 0.049356 0.998781 0.000000
outer loop
vertex 12.500000 7.987498 0.000000
vertex 12.502450 7.987377 0.050000
vertex 12.502450 7.987377 0.000000
endloop
endfacet
facet normal 0.049404 0.998779 0.000000
outer loop
vertex 12.500000 7.987498 0.050000
vertex 12.500000 7.987498 0.100000
vertex 12.502450 7.987377 0.100000
endloop
endfacet
facet normal 0.049356 0.998781 0.000000
outer loop
vertex 12.500000 7.987498 0.050000
vertex 12.502450 7.987377 0.100000
vertex 12.502450 7.987377 0.050000
endloop
endfacet
facet normal 0.146584 0.989198 0.000000
outer loop
vertex 12.502450 7.987377 0.050000
vertex 12.502450 7.987377 0.100000
vertex 12.504877 7.987017 0.100000
endloop
endfacet
facet normal 0.146866 0.989156 0.000000
outer loop
vertex 12.502450 7.987377 0.050000
vertex 12.504877 7.987017 0.100000
vertex 12.504877 7.987017 0.050000
endloop
endfacet
facet normal 0.146584 0.989198 0.000000
outer loop
vertex 12.502450 7.987377 0.000000
vertex 12.502450 7.987377 0.050000
vertex 12.504877 7.987017 0.050000
endloop
endfacet
facet normal 0.146866 0.989156 0.000000
outer loop
vertex 12.502450 7.987377 0.000000
vertex 12.504877 7.987017 0.050000
vertex 12.504877 7.987017 0.000000
endloop
endfacet
facet normal 0.242993 0.970028 0.000000
outer loop
vertex 12.504877 7.987017 0.000000
vertex 12.504877 7.987017 0.050000
vertex 12.507256 7.986421 0.050000
endloop
endfacet
facet normal 0.242993 0.970028 0.000027
outer loop
vertex 12.504877 7.987017 0.000000
vertex 12.507256 7.986421 0.050000
vertex 12.507257 7.986421 0.000000
endloop
endfacet
facet normal 0.242764 0.970085 0.000000
outer loop
vertex 12.504877 7.987017 0.050000
vertex 12.504877 7.987017 0.100000
vertex 12.507257 7.986421 0.100000
endloop
endfacet
facet normal 0.243222 0.969971 -0.000028
outer loop
vertex 12.504877 7.987017 0.050000
vertex 12.507257 7.986421 0.100000
vertex 12.507256 7.986421 0.050000
endloop
endfacet
facet normal 0.336792 0.941579 -0.000030
outer loop
vertex 12.507256 7.986421 0.050000
vertex 12.507257 7.986421 0.100000
vertex 12.509566 7.985595 0.100000
endloop
endfacet
facet normal 0.336792 0.941579 0.000000
outer loop
vertex 12.507256 7.986421 0.050000
vertex 12.509566 7.985595 0.100000
vertex 12.509566 7.985595 0.050000
endloop
endfacet
facet normal 0.336792 0.941579 0.000030
outer loop
vertex 12.507257 7.986421 0.000000
vertex 12.507256 7.986421 0.050000
vertex 12.509566 7.985595 0.050000
endloop
endfacet
facet normal 0.336792 0.941579 0.000000
outer loop
vertex 12.507257 7.986421 0.000000
vertex 12.509566 7.985595 0.050000
vertex 12.509566 7.985595 0.000000
endloop
endfacet
facet normal 0.427668 0.903936 0.000000
outer loop
vertex 12.509566 7.985595 0.000000
vertex 12.509566 7.985595 0.050000
vertex 12.511784 7.984546 0.050000
endloop
endfacet
facet normal 0.427668 0.903936 0.000000
outer loop
vertex 12.509566 7.985595 0.000000
vertex 12.511784 7.984546 0.050000
vertex 12.511784 7.984546 0.000000
endloop
endfacet
facet normal 0.427668 0.903936 0.000000
outer loop
vertex 12.509566 7.985595 0.050000
vertex 12.509566 7.985595 0.100000
vertex 12.511784 7.984546 0.100000
endloop
endfacet
facet normal 0.427668 0.903936 0.000000
outer loop
vertex 12.509566 7.985595 0.050000
vertex 12.511784 7.984546 0.100000
vertex 12.511784 7.984546 0.050000
endloop
endfacet
facet normal 0.514210 0.857665 0.000000
outer loop
vertex 12.511784 7.984546 0.050000
vertex 12.511784 7.984546 0.100000
vertex 12.513887 7.983285 0.100000
endloop
endfacet
facet normal 0.513781 0.857921 0.000000
outer loop
vertex 12.511784 7.984546 0.050000
vertex 12.513887 7.983285 0.100000
vertex 12.513887 7.983285 0.050000
endloop
endfacet
facet normal 0.514210 0.857665 0.000000
outer loop
vertex 12.511784 7.984546 0.000000
vertex 12.511784 7.984546 0.050000
vertex 12.513887 7.983285 0.050000
endloop
endfacet
facet normal 0.513781 0.857921 0.000000
outer loop
vertex 12.511784 7.984546 0.000000
vertex 12.513887 7.983285 0.050000
vertex 12.513887 7.983285 0.000000
endloop
endfacet
facet normal 0.596073 0.802930 0.000000
outer loop
vertex 12.513887 7.983285 0.000000
vertex 12.513887 7.983285 0.050000
vertex 12.515858 7.981823 0.050000
endloop
endfacet
facet normal 0.595608 0.803275 0.000000
outer loop
vertex 12.513887 7.983285 0.000000
vertex 12.515858 7.981823 0.050000
vertex 12.515858 7.981823 0.000000
endloop
endfacet
facet normal 0.596073 0.802930 0.000000
outer loop
vertex 12.513887 7.983285 0.050000
vertex 12.513887 7.983285 0.100000
vertex 12.515858 7.981823 0.100000
endloop
endfacet
facet normal 0.595608 0.803275 0.000000
outer loop
vertex 12.513887 7.983285 0.050000
vertex 12.515858 7.981823 0.100000
vertex 12.515858 7.981823 0.050000
endloop
endfacet
facet normal 0.671162 0.741310 0.000000
outer loop
vertex 12.515858 7.981823 0.050000
vertex 12.515858 7.981823 0.100000
vertex 12.517676 7.980176 0.100000
endloop
endfacet
facet normal 0.671646 0.740872 0.000000
outer loop
vertex 12.515858 7.981823 0.050000
vertex 12.517676 7.980176 0.100000
vertex 12.517676 7.980176 0.050000
endloop
endfacet
facet normal 0.671163 0.741310 0.000000
outer loop
vertex 12.515858 7.981823 0.000000
vertex 12.515858 7.981823 0.050000
vertex 12.517676 7.980176 0.050000
endloop
endfacet
facet normal 0.671646 0.740872 0.000000
outer loop
vertex 12.515858 7.981823 0.000000
vertex 12.517676 7.980176 0.050000
vertex 12.517676 7.980176 0.000000
endloop
endfacet
facet normal 0.740951 0.671559 0.000000
outer loop
vertex 12.517676 7.980176 0.000000
vertex 12.517676 7.980176 0.050000
vertex 12.519323 7.978358 0.050000
endloop
endfacet
facet normal 0.740951 0.671559 0.000018
outer loop
vertex 12.517676 7.980176 0.000000
vertex 12.519323 7.978358 0.050000
vertex 12.519324 7.978358 0.000000
endloop
endfacet
facet normal 0.740951 0.671559 0.000000
outer loop
vertex 12.517676 7.980176 0.050000
vertex 12.517676 7.980176 0.100000
vertex 12.519324 7.978358 0.100000
endloop
endfacet
facet normal 0.740951 0.671559 -0.000018
outer loop
vertex 12.517676 7.980176 0.050000
vertex 12.519324 7.978358 0.100000
vertex 12.519323 7.978358 0.050000
endloop
endfacet
facet normal 0.803161 0.595762 -0.000015
outer loop
vertex 12.519323 7.978358 0.050000
vertex 12.519324 7.978358 0.100000
vertex 12.520785 7.976388 0.100000
endloop
endfacet
facet normal 0.803161 0.595762 0.000000
outer loop
vertex 12.519323 7.978358 0.050000
vertex 12.520785 7.976388 0.100000
vertex 12.520785 7.976388 0.050000
endloop
endfacet
facet normal 0.803161 0.595762 0.000015
outer loop
vertex 12.519324 7.978358 0.000000
vertex 12.519323 7.978358 0.050000
vertex 12.520785 7.976388 0.050000
endloop
endfacet
facet normal 0.803161 0.595762 0.000000
outer loop
vertex 12.519324 7.978358 0.000000
vertex 12.520785 7.976388 0.050000
vertex 12.520785 7.976388 0.000000
endloop
endfacet
facet normal 0.857682 0.514181 0.000000
outer loop
vertex 12.520785 7.976388 0.000000
vertex 12.520785 7.976388 0.050000
vertex 12.522046 7.974284 0.050000
endloop
endfacet
facet normal 0.857682 0.514181 0.000000
outer loop
vertex 12.520785 7.976388 0.000000
vertex 12.522046 7.974284 0.050000
vertex 12.522046 7.974284 0.000000
endloop
endfacet
facet normal 0.857682 0.514181 0.000000
outer loop
vertex 12.520785 7.976388 0.050000
vertex 12.520785 7.976388 0.100000
vertex 12.522046 7.974284 0.100000
endloop
endfacet
facet normal 0.857682 0.514181 0.000000
outer loop
vertex 12.520785 7.976388 0.050000
vertex 12.522046 7.974284 0.100000
vertex 12.522046 7.974284 0.050000
endloop
endfacet
facet normal 0.904007 0.427518 0.000000
outer loop
vertex 12.522046 7.974284 0.050000
vertex 12.522046 7.974284 0.100000
vertex 12.523095 7.972066 0.100000
endloop
endfacet
facet normal 0.904007 0.427518 0.000000
outer loop
vertex 12.522046 7.974284 0.050000
vertex 12.523095 7.972066 0.100000
vertex 12.523095 7.972066 0.050000
endloop
endfacet
facet normal 0.904007 0.427518 0.000000
outer loop
vertex 12.522046 7.974284 0.000000
vertex 12.522046 7.974284 0.050000
vertex 12.523095 7.972066 0.050000
endloop
endfacet
facet normal 0.904007 0.427518 0.000000
outer loop
vertex 12.522046 7.974284 0.000000
vertex 12.523095 7.972066 0.050000
vertex 12.523095 7.972066 0.000000
endloop
endfacet
facet normal 0.941742 0.336336 0.000000
outer loop
vertex 12.523095 7.972066 0.000000
vertex 12.523095 7.972066 0.050000
vertex 12.523921 7.969756 0.050000
endloop
endfacet
facet normal 0.941434 0.337198 0.000000
outer loop
vertex 12.523095 7.972066 0.000000
vertex 12.523921 7.969756 0.050000
vertex 12.523921 7.969756 0.000000
endloop
endfacet
facet normal 0.941742 0.336336 0.000000
outer loop
vertex 12.523095 7.972066 0.050000
vertex 12.523095 7.972066 0.100000
vertex 12.523921 7.969756 0.100000
endloop
endfacet
facet normal 0.941434 0.337198 0.000000
outer loop
vertex 12.523095 7.972066 0.050000
vertex 12.523921 7.969756 0.100000
vertex 12.523921 7.969756 0.050000
endloop
endfacet
facet normal 0.970028 0.242993 0.000000
outer loop
vertex 12.523921 7.969756 0.050000
vertex 12.523921 7.969756 0.100000
vertex 12.524518 7.967377 0.100000
endloop
endfacet
facet normal 0.970028 0.242993 0.000000
outer loop
vertex 12.523921 7.969756 0.050000
vertex 12.524518 7.967377 0.100000
vertex 12.524518 7.967377 0.050000
endloop
endfacet
facet normal 0.970028 0.242993 0.000000
outer loop
vertex 12.523921 7.969756 0.000000
vertex 12.523921 7.969756 0.050000
vertex 12.524518 7.967377 0.050000
endloop
endfacet
facet normal 0.970028 0.242993 0.000000
outer loop
vertex 12.523921 7.969756 0.000000
vertex 12.524518 7.967377 0.050000
vertex 12.524518 7.967377 0.000000
endloop
endfacet
facet normal 0.989032 0.147704 0.000000
outer loop
vertex 12.524518 7.967377 0.000000
vertex 12.524518 7.967377 0.050000
vertex 12.524878 7.964950 0.050000
endloop
endfacet
facet normal 0.989314 0.145802 0.000000
outer loop
vertex 12.524518 7.967377 0.000000
vertex 12.524878 7.964950 0.050000
vertex 12.524878 7.964950 0.000000
endloop
endfacet
facet normal 0.989032 0.147704 0.000000
outer loop
vertex 12.524518 7.967377 0.050000
vertex 12.524518 7.967377 0.100000
vertex 12.524878 7.964950 0.100000
endloop
endfacet
facet normal 0.989314 0.145802 0.000000
outer loop
vertex 12.524518 7.967377 0.050000
vertex 12.524878 7.964950 0.100000
vertex 12.524878 7.964950 0.050000
endloop
endfacet
facet normal 0.998818 0.048600 0.000000
outer loop
vertex 12.524878 7.964950 0.050000
vertex 12.524878 7.964950 0.100000
vertex 12.524998 7.962500 0.100000
endloop
endfacet
facet normal 0.998771 0.049569 0.000000
outer loop
vertex 12.524878 7.964950 0.050000
vertex 12.524998 7.962500 0.100000
vertex 12.524998 7.962500 0.050000
endloop
endfacet
facet normal 0.998818 0.048600 0.000000
outer loop
vertex 12.524878 7.964950 0.000000
vertex 12.524878 7.964950 0.050000
vertex 12.524998 7.962500 0.050000
endloop
endfacet
facet normal 0.998771 0.049569 0.000000
outer loop
vertex 12.524878 7.964950 0.000000
vertex 12.524998 7.962500 0.050000
vertex 12.524998 7.962500 0.000000
endloop
endfacet
facet normal 0.998771 -0.049569 0.000000
outer loop
vertex 12.524998 7.962500 0.000000
vertex 12.524998 7.962500 0.050000
vertex 12.524878 7.960050 0.050000
endloop
endfacet
facet normal 0.998818 -0.048600 0.000000
outer loop
vertex 12.524998 7.962500 0.000000
vertex 12.524878 7.960050 0.050000
vertex 12.524878 7.960050 0.000000
endloop
endfacet
facet normal 0.998771 -0.049569 0.000000
outer loop
vertex 12.524998 7.962500 0.050000
vertex 12.524998 7.962500 0.100000
vertex 12.524878 7.960050 0.100000
endloop
endfacet
facet normal 0.998818 -0.048600 0.000000
outer loop
vertex 12.524998 7.962500 0.050000
vertex 12.524878 7.960050 0.100000
vertex 12.524878 7.960050 0.050000
endloop
endfacet
facet normal 0.989318 -0.145774 0.000000
outer loop
vertex 12.524878 7.960050 0.050000
vertex 12.524878 7.960050 0.100000
vertex 12.524518 7.957623 0.100000
endloop
endfacet
facet normal 0.989036 -0.147675 0.000000
outer loop
vertex 12.524878 7.960050 0.050000
vertex 12.524518 7.957623 0.100000
vertex 12.524518 7.957623 0.050000
endloop
endfacet
facet normal 0.989318 -0.145774 0.000000
outer loop
vertex 12.524878 7.960050 0.000000
vertex 12.524878 7.960050 0.050000
vertex 12.524518 7.957623 0.050000
endloop
endfacet
facet normal 0.989036 -0.147675 0.000000
outer loop
vertex 12.524878 7.960050 0.000000
vertex 12.524518 7.957623 0.050000
vertex 12.524518 7.957623 0.000000
endloop
endfacet
facet normal 0.970017 -0.243039 0.000000
outer loop
vertex 12.524518 7.957623 0.000000
vertex 12.524518 7.957623 0.050000
vertex 12.523921 7.955244 0.050000
endloop
endfacet
facet normal 0.970017 -0.243039 0.000000
outer loop
vertex 12.524518 7.957623 0.000000
vertex 12.523921 7.955244 0.050000
vertex 12.523921 7.955244 0.000000
endloop
endfacet
facet normal 0.970016 -0.243039 0.000000
outer loop
vertex 12.524518 7.957623 0.050000
vertex 12.524518 7.957623 0.100000
vertex 12.523921 7.955244 0.100000
endloop
endfacet
facet normal 0.970016 -0.243039 0.000000
outer loop
vertex 12.524518 7.957623 0.050000
vertex 12.523921 7.955244 0.100000
vertex 12.523921 7.955244 0.050000
endloop
endfacet
facet normal 0.941434 -0.337198 0.000000
outer loop
vertex 12.523921 7.955244 0.050000
vertex 12.523921 7.955244 0.100000
vertex 12.523095 7.952934 0.100000
endloop
endfacet
facet normal 0.941742 -0.336336 0.000000
outer loop
vertex 12.523921 7.955244 0.050000
vertex 12.523095 7.952934 0.100000
vertex 12.523095 7.952934 0.050000
endloop
endfacet
facet normal 0.941434 -0.337198 0.000000
outer loop
vertex 12.523921 7.955244 0.000000
vertex 12.523921 7.955244 0.050000
vertex 12.523095 7.952934 0.050000
endloop
endfacet
facet normal 0.941742 -0.336336 0.000000
outer loop
vertex 12.523921 7.955244 0.000000
vertex 12.523095 7.952934 0.050000
vertex 12.523095 7.952934 0.000000
endloop
endfacet
facet normal 0.904007 -0.427518 0.000000
outer loop
vertex 12.523095 7.952934 0.000000
vertex 12.523095 7.952934 0.050000
vertex 12.522046 7.950716 0.050000
endloop
endfacet
facet normal 0.903936 -0.427668 0.000000
outer loop
vertex 12.523095 7.952934 0.000000
vertex 12.522046 7.950716 0.050000
vertex 12.522046 7.950717 0.000000
endloop
endfacet
facet normal 0.903936 -0.427668 0.000000
outer loop
vertex 12.523095 7.952934 0.050000
vertex 12.523095 7.952934 0.100000
vertex 12.522046 7.950717 0.100000
endloop
endfacet
facet normal 0.904007 -0.427518 0.000000
outer loop
vertex 12.523095 7.952934 0.050000
vertex 12.522046 7.950717 0.100000
vertex 12.522046 7.950716 0.050000
endloop
endfacet
facet normal 0.857784 -0.514010 0.000015
outer loop
vertex 12.522046 7.950716 0.050000
vertex 12.522046 7.950717 0.100000
vertex 12.520785 7.948612 0.100000
endloop
endfacet
facet normal 0.857682 -0.514181 0.000000
outer loop
vertex 12.522046 7.950716 0.050000
vertex 12.520785 7.948612 0.100000
vertex 12.520785 7.948612 0.050000
endloop
endfacet
facet normal 0.857682 -0.514181 -0.000015
outer loop
vertex 12.522046 7.950717 0.000000
vertex 12.522046 7.950716 0.050000
vertex 12.520785 7.948612 0.050000
endloop
endfacet
facet normal 0.857784 -0.514010 0.000000
outer loop
vertex 12.522046 7.950717 0.000000
vertex 12.520785 7.948612 0.050000
vertex 12.520785 7.948612 0.000000
endloop
endfacet
facet normal 0.803161 -0.595762 0.000000
outer loop
vertex 12.520785 7.948612 0.000000
vertex 12.520785 7.948612 0.050000
vertex 12.519323 7.946642 0.050000
endloop
endfacet
facet normal 0.803161 -0.595762 0.000000
outer loop
vertex 12.520785 7.948612 0.000000
vertex 12.519323 7.946642 0.050000
vertex 12.519323 7.946642 0.000000
endloop
endfacet
facet normal 0.803161 -0.595762 0.000000
outer loop
vertex 12.520785 7.948612 0.050000
vertex 12.520785 7.948612 0.100000
vertex 12.519323 7.946642 0.100000
endloop
endfacet
facet normal 0.803161 -0.595762 0.000000
outer loop
vertex 12.520785 7.948612 0.050000
vertex 12.519323 7.946642 0.100000
vertex 12.519323 7.946642 0.050000
endloop
endfacet
facet normal 0.740951 -0.671559 0.000000
outer loop
vertex 12.519323 7.946642 0.050000
vertex 12.519323 7.946642 0.100000
vertex 12.517676 7.944824 0.100000
endloop
endfacet
facet normal 0.740951 -0.671559 0.000000
outer loop
vertex 12.519323 7.946642 0.050000
vertex 12.517676 7.944824 0.100000
vertex 12.517676 7.944824 0.050000
endloop
endfacet
facet normal 0.740951 -0.671559 0.000000
outer loop
vertex 12.519323 7.946642 0.000000
vertex 12.519323 7.946642 0.050000
vertex 12.517676 7.944824 0.050000
endloop
endfacet
facet normal 0.740951 -0.671559 0.000000
outer loop
vertex 12.519323 7.946642 0.000000
vertex 12.517676 7.944824 0.050000
vertex 12.517676 7.944824 0.000000
endloop
endfacet
facet normal 0.671646 -0.740872 0.000000
outer loop
vertex 12.517676 7.944824 0.000000
vertex 12.517676 7.944824 0.050000
vertex 12.515858 7.943177 0.050000
endloop
endfacet
facet normal 0.671163 -0.741310 0.000000
outer loop
vertex 12.517676 7.944824 0.000000
vertex 12.515858 7.943177 0.050000
vertex 12.515858 7.943177 0.000000
endloop
endfacet
facet normal 0.671646 -0.740872 0.000000
outer loop
vertex 12.517676 7.944824 0.050000
vertex 12.517676 7.944824 0.100000
vertex 12.515858 7.943177 0.100000
endloop
endfacet
facet normal 0.671163 -0.741310 0.000000
outer loop
vertex 12.517676 7.944824 0.050000
vertex 12.515858 7.943177 0.100000
vertex 12.515858 7.943177 0.050000
endloop
endfacet
facet normal 0.595608 -0.803275 0.000000
outer loop
vertex 12.515858 7.943177 0.050000
vertex 12.515858 7.943177 0.100000
vertex 12.513887 7.941715 0.100000
endloop
endfacet
facet normal 0.596073 -0.802930 0.000000
outer loop
vertex 12.515858 7.943177 0.050000
vertex 12.513887 7.941715 0.100000
vertex 12.513887 7.941715 0.050000
endloop
endfacet
facet normal 0.595608 -0.803275 0.000000
outer loop
vertex 12.515858 7.943177 0.000000
vertex 12.515858 7.943177 0.050000
vertex 12.513887 7.941715 0.050000
endloop
endfacet
facet normal 0.596073 -0.802930 0.000000
outer loop
vertex 12.515858 7.943177 0.000000
vertex 12.513887 7.941715 0.050000
vertex 12.513887 7.941715 0.000000
endloop
endfacet
facet normal 0.513924 -0.857836 0.000000
outer loop
vertex 12.513887 7.941715 0.000000
vertex 12.513887 7.941715 0.050000
vertex 12.511784 7.940454 0.050000
endloop
endfacet
facet normal 0.514353 -0.857579 0.000000
outer loop
vertex 12.513887 7.941715 0.000000
vertex 12.511784 7.940454 0.050000
vertex 12.511784 7.940454 0.000000
endloop
endfacet
facet normal 0.513924 -0.857836 0.000000
outer loop
vertex 12.513887 7.941715 0.050000
vertex 12.513887 7.941715 0.100000
vertex 12.511784 7.940454 0.100000
endloop
endfacet
facet normal 0.514353 -0.857579 0.000000
outer loop
vertex 12.513887 7.941715 0.050000
vertex 12.511784 7.940454 0.100000
vertex 12.511784 7.940454 0.050000
endloop
endfacet
facet normal 0.427351 -0.904086 0.000000
outer loop
vertex 12.511784 7.940454 0.050000
vertex 12.511784 7.940454 0.100000
vertex 12.509566 7.939406 0.100000
endloop
endfacet
facet normal 0.427351 -0.904086 0.000000
outer loop
vertex 12.511784 7.940454 0.050000
vertex 12.509566 7.939406 0.100000
vertex 12.509566 7.939406 0.050000
endloop
endfacet
facet normal 0.427351 -0.904086 0.000000
outer loop
vertex 12.511784 7.940454 0.000000
vertex 12.511784 7.940454 0.050000
vertex 12.509566 7.939406 0.050000
endloop
endfacet
facet normal 0.427351 -0.904086 0.000000
outer loop
vertex 12.511784 7.940454 0.000000
vertex 12.509566 7.939406 0.050000
vertex 12.509566 7.939406 0.000000
endloop
endfacet
facet normal 0.336964 -0.941518 0.000000
outer loop
vertex 12.509566 7.939406 0.000000
vertex 12.509566 7.939406 0.050000
vertex 12.507257 7.938579 0.050000
endloop
endfacet
facet normal 0.337273 -0.941407 0.000000
outer loop
vertex 12.509566 7.939406 0.000000
vertex 12.507257 7.938579 0.050000
vertex 12.507257 7.938579 0.000000
endloop
endfacet
facet normal 0.336964 -0.941518 0.000000
outer loop
vertex 12.509566 7.939406 0.050000
vertex 12.509566 7.939406 0.100000
vertex 12.507257 7.938579 0.100000
endloop
endfacet
facet normal 0.337273 -0.941407 0.000000
outer loop
vertex 12.509566 7.939406 0.050000
vertex 12.507257 7.938579 0.100000
vertex 12.507257 7.938579 0.050000
endloop
endfacet
facet normal 0.242993 -0.970028 0.000000
outer loop
vertex 12.507257 7.938579 0.050000
vertex 12.507257 7.938579 0.100000
vertex 12.504877 7.937983 0.100000
endloop
endfacet
facet normal 0.242764 -0.970085 0.000000
outer loop
vertex 12.507257 7.938579 0.050000
vertex 12.504877 7.937983 0.100000
vertex 12.504877 7.937983 0.050000
endloop
endfacet
facet normal 0.242993 -0.970028 0.000000
outer loop
vertex 12.507257 7.938579 0.000000
vertex 12.507257 7.938579 0.050000
vertex 12.504877 7.937983 0.050000
endloop
endfacet
facet normal 0.242764 -0.970085 0.000000
outer loop
vertex 12.507257 7.938579 0.000000
vertex 12.504877 7.937983 0.050000
vertex 12.504877 7.937983 0.000000
endloop
endfacet
facet normal 0.146866 -0.989156 0.000000
outer loop
vertex 12.504877 7.937983 0.000000
vertex 12.504877 7.937983 0.050000
vertex 12.502450 7.937623 0.050000
endloop
endfacet
facet normal 0.146584 -0.989198 0.000000
outer loop
vertex 12.504877 7.937983 0.000000
vertex 12.502450 7.937623 0.050000
vertex 12.502450 7.937623 0.000000
endloop
endfacet
facet normal 0.146866 -0.989156 0.000000
outer loop
vertex 12.504877 7.937983 0.050000
vertex 12.504877 7.937983 0.100000
vertex 12.502450 7.937623 0.100000
endloop
endfacet
facet normal 0.146584 -0.989198 0.000000
outer loop
vertex 12.504877 7.937983 0.050000
vertex 12.502450 7.937623 0.100000
vertex 12.502450 7.937623 0.050000
endloop
endfacet
facet normal 0.048968 -0.998800 0.000000
outer loop
vertex 12.502450 7.937623 0.050000
vertex 12.502450 7.937623 0.100000
vertex 12.500000 7.937503 0.100000
endloop
endfacet
facet normal 0.049016 -0.998798 0.000000
outer loop
vertex 12.502450 7.937623 0.050000
vertex 12.500000 7.937503 0.100000
vertex 12.500000 7.937503 0.050000
endloop
endfacet
facet normal 0.048968 -0.998800 0.000000
outer loop
vertex 12.502450 7.937623 0.000000
vertex 12.502450 7.937623 0.050000
vertex 12.500000 7.937503 0.050000
endloop
endfacet
facet normal 0.049016 -0.998798 0.000000
outer loop
vertex 12.502450 7.937623 0.000000
vertex 12.500000 7.937503 0.050000
vertex 12.500000 7.937503 0.000000
endloop
endfacet
facet normal -0.049016 -0.998798 0.000000
outer loop
vertex 12.500000 7.937503 0.000000
vertex 12.500000 7.937503 0.050000
vertex 12.497550 7.937623 0.050000
endloop
endfacet
facet normal -0.048968 -0.998800 0.000000
outer loop
vertex 12.500000 7.937503 0.000000
vertex 12.497550 7.937623 0.050000
vertex 12.497550 7.937623 0.000000
endloop
endfacet
facet normal -0.049016 -0.998798 0.000000
outer loop
vertex 12.500000 7.937503 0.050000
vertex 12.500000 7.937503 0.100000
vertex 12.497550 7.937623 0.100000
endloop
endfacet
facet normal -0.048968 -0.998800 0.000000
outer loop
vertex 12.500000 7.937503 0.050000
vertex 12.497550 7.937623 0.100000
vertex 12.497550 7.937623 0.050000
endloop
endfacet
facet normal -0.146725 -0.989177 0.000000
outer loop
vertex 12.497550 7.937623 0.050000
vertex 12.497550 7.937623 0.100000
vertex 12.495124 7.937983 0.100000
endloop
endfacet
facet normal -0.146866 -0.989156 0.000000
outer loop
vertex 12.497550 7.937623 0.050000
vertex 12.495124 7.937983 0.100000
vertex 12.495124 7.937983 0.050000
endloop
endfacet
facet normal -0.146725 -0.989177 0.000000
outer loop
vertex 12.497550 7.937623 0.000000
vertex 12.497550 7.937623 0.050000
vertex 12.495124 7.937983 0.050000
endloop
endfacet
facet normal -0.146866 -0.989156 0.000000
outer loop
vertex 12.497550 7.937623 0.000000
vertex 12.495124 7.937983 0.050000
vertex 12.495124 7.937983 0.000000
endloop
endfacet
facet normal -0.242993 -0.970028 0.000000
outer loop
vertex 12.495124 7.937983 0.000000
vertex 12.495124 7.937983 0.050000
vertex 12.492744 7.938579 0.050000
endloop
endfacet
facet normal -0.242993 -0.970028 0.000000
outer loop
vertex 12.495124 7.937983 0.000000
vertex 12.492744 7.938579 0.050000
vertex 12.492744 7.938579 0.000000
endloop
endfacet
facet normal -0.242993 -0.970028 0.000000
outer loop
vertex 12.495124 7.937983 0.050000
vertex 12.495124 7.937983 0.100000
vertex 12.492744 7.938579 0.100000
endloop
endfacet
facet normal -0.242993 -0.970028 0.000000
outer loop
vertex 12.495124 7.937983 0.050000
vertex 12.492744 7.938579 0.100000
vertex 12.492744 7.938579 0.050000
endloop
endfacet
facet normal -0.336656 -0.941628 0.000000
outer loop
vertex 12.492744 7.938579 0.050000
vertex 12.492744 7.938579 0.100000
vertex 12.490434 7.939406 0.100000
endloop
endfacet
facet normal -0.336964 -0.941518 0.000000
outer loop
vertex 12.492744 7.938579 0.050000
vertex 12.490434 7.939406 0.100000
vertex 12.490434 7.939406 0.050000
endloop
endfacet
facet normal -0.336656 -0.941628 0.000000
outer loop
vertex 12.492744 7.938579 0.000000
vertex 12.492744 7.938579 0.050000
vertex 12.490434 7.939406 0.050000
endloop
endfacet
facet normal -0.336964 -0.941518 0.000000
outer loop
vertex 12.492744 7.938579 0.000000
vertex 12.490434 7.939406 0.050000
vertex 12.490434 7.939406 0.000000
endloop
endfacet
facet normal -0.427351 -0.904086 0.000000
outer loop
vertex 12.490434 7.939406 0.000000
vertex 12.490434 7.939406 0.050000
vertex 12.488216 7.940454 0.050000
endloop
endfacet
facet normal -0.427351 -0.904086 0.000000
outer loop
vertex 12.490434 7.939406 0.000000
vertex 12.488216 7.940454 0.050000
vertex 12.488216 7.940454 0.000000
endloop
endfacet
facet normal -0.427351 -0.904086 0.000000
outer loop
vertex 12.490434 7.939406 0.050000
vertex 12.490434 7.939406 0.100000
vertex 12.488216 7.940454 0.100000
endloop
endfacet
facet normal -0.427351 -0.904086 0.000000
outer loop
vertex 12.490434 7.939406 0.050000
vertex 12.488216 7.940454 0.100000
vertex 12.488216 7.940454 0.050000
endloop
endfacet
facet normal -0.514353 -0.857579 0.000000
outer loop
vertex 12.488216 7.940454 0.050000
vertex 12.488216 7.940454 0.100000
vertex 12.486113 7.941715 0.100000
endloop
endfacet
facet normal -0.514353 -0.857579 0.000000
outer loop
vertex 12.488216 7.940454 0.050000
vertex 12.486113 7.941715 0.100000
vertex 12.486113 7.941715 0.050000
endloop
endfacet
facet normal -0.514353 -0.857579 0.000000
outer loop
vertex 12.488216 7.940454 0.000000
vertex 12.488216 7.940454 0.050000
vertex 12.486113 7.941715 0.050000
endloop
endfacet
facet normal -0.514353 -0.857579 0.000000
outer loop
vertex 12.488216 7.940454 0.000000
vertex 12.486113 7.941715 0.050000
vertex 12.486113 7.941715 0.000000
endloop
endfacet
facet normal -0.595608 -0.803275 0.000000
outer loop
vertex 12.486113 7.941715 0.000000
vertex 12.486113 7.941715 0.050000
vertex 12.484142 7.943177 0.050000
endloop
endfacet
facet normal -0.596073 -0.802930 0.000000
outer loop
vertex 12.486113 7.941715 0.000000
vertex 12.484142 7.943177 0.050000
vertex 12.484142 7.943177 0.000000
endloop
endfacet
facet normal -0.595608 -0.803275 0.000000
outer loop
vertex 12.486113 7.941715 0.050000
vertex 12.486113 7.941715 0.100000
vertex 12.484142 7.943177 0.100000
endloop
endfacet
facet normal -0.596073 -0.802930 0.000000
outer loop
vertex 12.486113 7.941715 0.050000
vertex 12.484142 7.943177 0.100000
vertex 12.484142 7.943177 0.050000
endloop
endfacet
facet normal -0.671162 -0.741310 0.000000
outer loop
vertex 12.484142 7.943177 0.050000
vertex 12.484142 7.943177 0.100000
vertex 12.482324 7.944824 0.100000
endloop
endfacet
facet normal -0.671163 -0.741310 0.000000
outer loop
vertex 12.484142 7.943177 0.050000
vertex 12.482324 7.944824 0.100000
vertex 12.482324 7.944824 0.050000
endloop
endfacet
facet normal -0.671163 -0.741310 0.000000
outer loop
vertex 12.484142 7.943177 0.000000
vertex 12.484142 7.943177 0.050000
vertex 12.482324 7.944824 0.050000
endloop
endfacet
facet normal -0.671163 -0.741310 0.000000
outer loop
vertex 12.484142 7.943177 0.000000
vertex 12.482324 7.944824 0.050000
vertex 12.482324 7.944824 0.000000
endloop
endfacet
facet normal -0.741434 -0.671025 0.000000
outer loop
vertex 12.482324 7.944824 0.000000
vertex 12.482324 7.944824 0.050000
vertex 12.480677 7.946642 0.050000
endloop
endfacet
facet normal -0.740951 -0.671559 0.000000
outer loop
vertex 12.482324 7.944824 0.000000
vertex 12.480677 7.946642 0.050000
vertex 12.480677 7.946642 0.000000
endloop
endfacet
facet normal -0.741434 -0.671025 0.000000
outer loop
vertex 12.482324 7.944824 0.050000
vertex 12.482324 7.944824 0.100000
vertex 12.480677 7.946642 0.100000
endloop
endfacet
facet normal -0.740951 -0.671559 0.000000
outer loop
vertex 12.482324 7.944824 0.050000
vertex 12.480677 7.946642 0.100000
vertex 12.480677 7.946642 0.050000
endloop
endfacet
facet normal -0.803161 -0.595762 0.000000
outer loop
vertex 12.480677 7.946642 0.050000
vertex 12.480677 7.946642 0.100000
vertex 12.479216 7.948612 0.100000
endloop
endfacet
facet normal -0.803161 -0.595762 0.000000
outer loop
vertex 12.480677 7.946642 0.050000
vertex 12.479216 7.948612 0.100000
vertex 12.479216 7.948612 0.050000
endloop
endfacet
facet normal -0.803161 -0.595762 0.000000
outer loop
vertex 12.480677 7.946642 0.000000
vertex 12.480677 7.946642 0.050000
vertex 12.479216 7.948612 0.050000
endloop
endfacet
facet normal -0.803161 -0.595762 0.000000
outer loop
vertex 12.480677 7.946642 0.000000
vertex 12.479216 7.948612 0.050000
vertex 12.479216 7.948612 0.000000
endloop
endfacet
facet normal -0.857253 -0.514896 0.000000
outer loop
vertex 12.479216 7.948612 0.000000
vertex 12.479216 7.948612 0.050000
vertex 12.477954 7.950716 0.050000
endloop
endfacet
facet normal -0.858110 -0.513466 -0.000023
outer loop
vertex 12.479216 7.948612 0.000000
vertex 12.477954 7.950716 0.050000
vertex 12.477955 7.950716 0.000000
endloop
endfacet
facet normal -0.857682 -0.514181 0.000000
outer loop
vertex 12.479216 7.948612 0.050000
vertex 12.479216 7.948612 0.100000
vertex 12.477955 7.950716 0.100000
endloop
endfacet
facet normal -0.857682 -0.514181 0.000023
outer loop
vertex 12.479216 7.948612 0.050000
vertex 12.477955 7.950716 0.100000
vertex 12.477954 7.950716 0.050000
endloop
endfacet
facet normal -0.904007 -0.427518 0.000015
outer loop
vertex 12.477954 7.950716 0.050000
vertex 12.477955 7.950716 0.100000
vertex 12.476905 7.952934 0.100000
endloop
endfacet
facet normal -0.904007 -0.427518 0.000000
outer loop
vertex 12.477954 7.950716 0.050000
vertex 12.476905 7.952934 0.100000
vertex 12.476905 7.952934 0.050000
endloop
endfacet
facet normal -0.904007 -0.427518 -0.000015
outer loop
vertex 12.477955 7.950716 0.000000
vertex 12.477954 7.950716 0.050000
vertex 12.476905 7.952934 0.050000
endloop
endfacet
facet normal -0.904007 -0.427518 0.000000
outer loop
vertex 12.477955 7.950716 0.000000
vertex 12.476905 7.952934 0.050000
vertex 12.476905 7.952934 0.000000
endloop
endfacet
facet normal -0.941434 -0.337198 0.000000
outer loop
vertex 12.476905 7.952934 0.000000
vertex 12.476905 7.952934 0.050000
vertex 12.476079 7.955244 0.050000
endloop
endfacet
facet normal -0.941742 -0.336336 0.000000
outer loop
vertex 12.476905 7.952934 0.000000
vertex 12.476079 7.955244 0.050000
vertex 12.476079 7.955244 0.000000
endloop
endfacet
facet normal -0.941434 -0.337198 0.000000
outer loop
vertex 12.476905 7.952934 0.050000
vertex 12.476905 7.952934 0.100000
vertex 12.476079 7.955244 0.100000
endloop
endfacet
facet normal -0.941742 -0.336336 0.000000
outer loop
vertex 12.476905 7.952934 0.050000
vertex 12.476079 7.955244 0.100000
vertex 12.476079 7.955244 0.050000
endloop
endfacet
facet normal -0.969787 -0.243953 0.000000
outer loop
vertex 12.476079 7.955244 0.050000
vertex 12.476079 7.955244 0.100000
vertex 12.475483 7.957623 0.100000
endloop
endfacet
facet normal -0.970268 -0.242032 -0.000008
outer loop
vertex 12.476079 7.955244 0.050000
vertex 12.475483 7.957623 0.100000
vertex 12.475483 7.957624 0.050000
endloop
endfacet
facet normal -0.969810 -0.243861 0.000000
outer loop
vertex 12.476079 7.955244 0.000000
vertex 12.476079 7.955244 0.050000
vertex 12.475483 7.957624 0.050000
endloop
endfacet
facet normal -0.970245 -0.242124 0.000008
outer loop
vertex 12.476079 7.955244 0.000000
vertex 12.475483 7.957624 0.050000
vertex 12.475483 7.957623 0.000000
endloop
endfacet
facet normal -0.989169 -0.146781 0.000004
outer loop
vertex 12.475483 7.957623 0.000000
vertex 12.475483 7.957624 0.050000
vertex 12.475122 7.960050 0.050000
endloop
endfacet
facet normal -0.989036 -0.147675 0.000000
outer loop
vertex 12.475483 7.957623 0.000000
vertex 12.475122 7.960050 0.050000
vertex 12.475122 7.960050 0.000000
endloop
endfacet
facet normal -0.989177 -0.146725 -0.000004
outer loop
vertex 12.475483 7.957624 0.050000
vertex 12.475483 7.957623 0.100000
vertex 12.475122 7.960050 0.100000
endloop
endfacet
facet normal -0.989027 -0.147732 0.000000
outer loop
vertex 12.475483 7.957624 0.050000
vertex 12.475122 7.960050 0.100000
vertex 12.475122 7.960050 0.050000
endloop
endfacet
facet normal -0.998865 -0.047630 0.000000
outer loop
vertex 12.475122 7.960050 0.050000
vertex 12.475122 7.960050 0.100000
vertex 12.475003 7.962500 0.100000
endloop
endfacet
facet normal -0.998771 -0.049569 0.000000
outer loop
vertex 12.475122 7.960050 0.050000
vertex 12.475003 7.962500 0.100000
vertex 12.475003 7.962500 0.050000
endloop
endfacet
facet normal -0.998865 -0.047630 0.000000
outer loop
vertex 12.475122 7.960050 0.000000
vertex 12.475122 7.960050 0.050000
vertex 12.475003 7.962500 0.050000
endloop
endfacet
facet normal -0.998771 -0.049569 0.000000
outer loop
vertex 12.475122 7.960050 0.000000
vertex 12.475003 7.962500 0.050000
vertex 12.475003 7.962500 0.000000
endloop
endfacet
facet normal -0.998771 0.049569 0.000000
outer loop
vertex 12.475003 7.962500 0.000000
vertex 12.475003 7.962500 0.050000
vertex 12.475122 7.964950 0.050000
endloop
endfacet
facet normal -0.998865 0.047630 0.000000
outer loop
vertex 12.475003 7.962500 0.000000
vertex 12.475122 7.964950 0.050000
vertex 12.475122 7.964950 0.000000
endloop
endfacet
facet normal -0.998771 0.049569 0.000000
outer loop
vertex 12.475003 7.962500 0.050000
vertex 12.475003 7.962500 0.100000
vertex 12.475122 7.964950 0.100000
endloop
endfacet
facet normal -0.998865 0.047630 0.000000
outer loop
vertex 12.475003 7.962500 0.050000
vertex 12.475122 7.964950 0.100000
vertex 12.475122 7.964950 0.050000
endloop
endfacet
facet normal -0.989032 0.147704 0.000000
outer loop
vertex 12.475122 7.964950 0.050000
vertex 12.475122 7.964950 0.100000
vertex 12.475483 7.967377 0.100000
endloop
endfacet
facet normal -0.989173 0.146753 0.000000
outer loop
vertex 12.475122 7.964950 0.050000
vertex 12.475483 7.967377 0.100000
vertex 12.475483 7.967377 0.050000
endloop
endfacet
facet normal -0.989032 0.147704 0.000000
outer loop
vertex 12.475122 7.964950 0.000000
vertex 12.475122 7.964950 0.050000
vertex 12.475483 7.967377 0.050000
endloop
endfacet
facet normal -0.989173 0.146753 0.000000
outer loop
vertex 12.475122 7.964950 0.000000
vertex 12.475483 7.967377 0.050000
vertex 12.475483 7.967377 0.000000
endloop
endfacet
facet normal -0.970257 0.242078 0.000000
outer loop
vertex 12.475483 7.967377 0.000000
vertex 12.475483 7.967377 0.050000
vertex 12.476079 7.969756 0.050000
endloop
endfacet
facet normal -0.969822 0.243815 0.000008
outer loop
vertex 12.475483 7.967377 0.000000
vertex 12.476079 7.969756 0.050000
vertex 12.476079 7.969757 0.000000
endloop
endfacet
facet normal -0.970280 0.241987 0.000000
outer loop
vertex 12.475483 7.967377 0.050000
vertex 12.475483 7.967377 0.100000
vertex 12.476079 7.969757 0.100000
endloop
endfacet
facet normal -0.969799 0.243907 -0.000008
outer loop
vertex 12.475483 7.967377 0.050000
vertex 12.476079 7.969757 0.100000
vertex 12.476079 7.969756 0.050000
endloop
endfacet
facet normal -0.941698 0.336460 -0.000008
outer loop
vertex 12.476079 7.969756 0.050000
vertex 12.476079 7.969757 0.100000
vertex 12.476906 7.972066 0.100000
endloop
endfacet
facet normal -0.941434 0.337198 0.000000
outer loop
vertex 12.476079 7.969756 0.050000
vertex 12.476906 7.972066 0.100000
vertex 12.476906 7.972066 0.050000
endloop
endfacet
facet normal -0.941742 0.336336 0.000008
outer loop
vertex 12.476079 7.969757 0.000000
vertex 12.476079 7.969756 0.050000
vertex 12.476906 7.972066 0.050000
endloop
endfacet
facet normal -0.941390 0.337322 0.000000
outer loop
vertex 12.476079 7.969757 0.000000
vertex 12.476906 7.972066 0.050000
vertex 12.476906 7.972066 0.000000
endloop
endfacet
facet normal -0.904007 0.427518 0.000000
outer loop
vertex 12.476906 7.972066 0.000000
vertex 12.476906 7.972066 0.050000
vertex 12.477954 7.974284 0.050000
endloop
endfacet
facet normal -0.904007 0.427518 -0.000025
outer loop
vertex 12.476906 7.972066 0.000000
vertex 12.477954 7.974284 0.050000
vertex 12.477955 7.974284 0.000000
endloop
endfacet
facet normal -0.904007 0.427518 0.000000
outer loop
vertex 12.476906 7.972066 0.050000
vertex 12.476906 7.972066 0.100000
vertex 12.477955 7.974284 0.100000
endloop
endfacet
facet normal -0.904007 0.427518 0.000025
outer loop
vertex 12.476906 7.972066 0.050000
vertex 12.477955 7.974284 0.100000
vertex 12.477954 7.974284 0.050000
endloop
endfacet
facet normal -0.858110 0.513466 0.000000
outer loop
vertex 12.477954 7.974284 0.050000
vertex 12.477955 7.974284 0.100000
vertex 12.479216 7.976388 0.100000
endloop
endfacet
facet normal -0.857253 0.514896 0.000000
outer loop
vertex 12.477954 7.974284 0.050000
vertex 12.479216 7.976388 0.100000
vertex 12.479216 7.976388 0.050000
endloop
endfacet
facet normal -0.857682 0.514181 0.000000
outer loop
vertex 12.477955 7.974284 0.000000
vertex 12.477954 7.974284 0.050000
vertex 12.479216 7.976388 0.050000
endloop
endfacet
facet normal -0.857682 0.514181 0.000000
outer loop
vertex 12.477955 7.974284 0.000000
vertex 12.479216 7.976388 0.050000
vertex 12.479216 7.976388 0.000000
endloop
endfacet
facet normal -0.803161 0.595762 0.000000
outer loop
vertex 12.479216 7.976388 0.000000
vertex 12.479216 7.976388 0.050000
vertex 12.480677 7.978358 0.050000
endloop
endfacet
facet normal -0.803161 0.595762 0.000000
outer loop
vertex 12.479216 7.976388 0.000000
vertex 12.480677 7.978358 0.050000
vertex 12.480677 7.978358 0.000000
endloop
endfacet
facet normal -0.803161 0.595762 0.000000
outer loop
vertex 12.479216 7.976388 0.050000
vertex 12.479216 7.976388 0.100000
vertex 12.480677 7.978358 0.100000
endloop
endfacet
facet normal -0.803161 0.595762 0.000000
outer loop
vertex 12.479216 7.976388 0.050000
vertex 12.480677 7.978358 0.100000
vertex 12.480677 7.978358 0.050000
endloop
endfacet
facet normal -0.740951 0.671559 0.000000
outer loop
vertex 12.480677 7.978358 0.050000
vertex 12.480677 7.978358 0.100000
vertex 12.482324 7.980176 0.100000
endloop
endfacet
facet normal -0.741434 0.671025 0.000000
outer loop
vertex 12.480677 7.978358 0.050000
vertex 12.482324 7.980176 0.100000
vertex 12.482324 7.980176 0.050000
endloop
endfacet
facet normal -0.740951 0.671559 0.000000
outer loop
vertex 12.480677 7.978358 0.000000
vertex 12.480677 7.978358 0.050000
vertex 12.482324 7.980176 0.050000
endloop
endfacet
facet normal -0.741434 0.671025 0.000000
outer loop
vertex 12.480677 7.978358 0.000000
vertex 12.482324 7.980176 0.050000
vertex 12.482324 7.980176 0.000000
endloop
endfacet
facet normal -0.671163 0.741310 0.000000
outer loop
vertex 12.482324 7.980176 0.000000
vertex 12.482324 7.980176 0.050000
vertex 12.484142 7.981823 0.050000
endloop
endfacet
facet normal -0.671163 0.741310 0.000000
outer loop
vertex 12.482324 7.980176 0.000000
vertex 12.484142 7.981823 0.050000
vertex 12.484142 7.981823 0.000000
endloop
endfacet
facet normal -0.671162 0.741310 0.000000
outer loop
vertex 12.482324 7.980176 0.050000
vertex 12.482324 7.980176 0.100000
vertex 12.484142 7.981823 0.100000
endloop
endfacet
facet normal -0.671163 0.741310 0.000000
outer loop
vertex 12.482324 7.980176 0.050000
vertex 12.484142 7.981823 0.100000
vertex 12.484142 7.981823 0.050000
endloop
endfacet
facet normal -0.596073 0.802930 0.000000
outer loop
vertex 12.484142 7.981823 0.050000
vertex 12.484142 7.981823 0.100000
vertex 12.486113 7.983285 0.100000
endloop
endfacet
facet normal -0.595608 0.803275 0.000000
outer loop
vertex 12.484142 7.981823 0.050000
vertex 12.486113 7.983285 0.100000
vertex 12.486113 7.983285 0.050000
endloop
endfacet
facet normal -0.596073 0.802930 0.000000
outer loop
vertex 12.484142 7.981823 0.000000
vertex 12.484142 7.981823 0.050000
vertex 12.486113 7.983285 0.050000
endloop
endfacet
facet normal -0.595608 0.803275 0.000000
outer loop
vertex 12.484142 7.981823 0.000000
vertex 12.486113 7.983285 0.050000
vertex 12.486113 7.983285 0.000000
endloop
endfacet
facet normal -0.514210 0.857665 0.000000
outer loop
vertex 12.486113 7.983285 0.000000
vertex 12.486113 7.983285 0.050000
vertex 12.488216 7.984546 0.050000
endloop
endfacet
facet normal -0.514210 0.857665 -0.000003
outer loop
vertex 12.486113 7.983285 0.000000
vertex 12.488216 7.984546 0.050000
vertex 12.488217 7.984546 0.000000
endloop
endfacet
facet normal -0.513781 0.857921 0.000000
outer loop
vertex 12.486113 7.983285 0.050000
vertex 12.486113 7.983285 0.100000
vertex 12.488217 7.984546 0.100000
endloop
endfacet
facet normal -0.514639 0.857407 0.000003
outer loop
vertex 12.486113 7.983285 0.050000
vertex 12.488217 7.984546 0.100000
vertex 12.488216 7.984546 0.050000
endloop
endfacet
facet normal -0.427668 0.903936 0.000030
outer loop
vertex 12.488216 7.984546 0.050000
vertex 12.488217 7.984546 0.100000
vertex 12.490434 7.985595 0.100000
endloop
endfacet
facet normal -0.427668 0.903936 0.000000
outer loop
vertex 12.488216 7.984546 0.050000
vertex 12.490434 7.985595 0.100000
vertex 12.490434 7.985595 0.050000
endloop
endfacet
facet normal -0.427293 0.904113 -0.000030
outer loop
vertex 12.488217 7.984546 0.000000
vertex 12.488216 7.984546 0.050000
vertex 12.490434 7.985595 0.050000
endloop
endfacet
facet normal -0.428045 0.903758 0.000000
outer loop
vertex 12.488217 7.984546 0.000000
vertex 12.490434 7.985595 0.050000
vertex 12.490434 7.985595 0.000000
endloop
endfacet
facet normal 0.000000 0.000000 1.000000
outer loop
vertex 12.504878 7.987020 0.100000
vertex 12.502450 7.987377 0.100000
vertex 12.500001 7.962501 0.100000
endloop
endfacet
facet normal 0.000000 0.000000 1.000000
outer loop
vertex 12.504878 7.987020 0.100000
vertex 12.500001 7.962501 0.100000
vertex 12.507257 7.986421 0.100000
endloop
endfacet
facet normal -0.000008 0.000000 1.000000
outer loop
vertex 12.500000 7.987500 0.100000
vertex 12.497550 7.987377 0.100000
vertex 12.500001 7.962501 0.100000
endloop
endfacet
facet normal 0.000008 0.000000 1.000000
outer loop
vertex 12.500000 7.987500 0.100000
vertex 12.500001 7.962501 0.100000
vertex 12.502450 7.987377 0.100000
endloop
endfacet
facet normal 0.000000 0.000000 1.000000
outer loop
vertex 12.495123 7.987020 0.100000
vertex 12.492744 7.986421 0.100000
vertex 12.500001 7.962501 0.100000
endloop
endfacet
facet normal 0.000000 0.000000 1.000000
outer loop
vertex 12.495123 7.987020 0.100000
vertex 12.500001 7.962501 0.100000
vertex 12.497550 7.987377 0.100000
endloop
endfacet
facet normal 0.000000 0.000000 1.000000
outer loop
vertex 12.490433 7.985597 0.100000
vertex 12.488216 7.984546 0.100000
vertex 12.500001 7.962501 0.100000
endloop
endfacet
facet normal 0.000000 0.000000 1.000000
outer loop
vertex 12.490433 7.985597 0.100000
vertex 12.500001 7.962501 0.100000
vertex 12.492744 7.986421 0.100000
endloop
endfacet
facet normal 0.000000 0.000000 1.000000
outer loop
vertex 12.486111 7.983287 0.100000
vertex 12.484142 7.981823 0.100000
vertex 12.500001 7.962501 0.100000
endloop
endfacet
facet normal 0.000000 0.000000 1.000000
outer loop
vertex 12.486111 7.983287 0.100000
vertex 12.500001 7.962501 0.100000
vertex 12.488216 7.984546 0.100000
endloop
endfacet
facet normal 0.000000 0.000000 1.000000
outer loop
vertex 12.482323 7.980178 0.100000
vertex 12.480677 7.978358 0.100000
vertex 12.500001 7.962501 0.100000
endloop
endfacet
facet normal 0.000000 0.000000 1.000000
outer loop
vertex 12.482323 7.980178 0.100000
vertex 12.500001 7.962501 0.100000
vertex 12.484142 7.981823 0.100000
endloop
endfacet
facet normal 0.000004 0.000000 1.000000
outer loop
vertex 12.479213 7.976390 0.100000
vertex 12.477955 7.974284 0.100000
vertex 12.500001 7.962501 0.100000
endloop
endfacet
facet normal 0.000000 0.000000 1.000000
outer loop
vertex 12.479213 7.976390 0.100000
vertex 12.500001 7.962501 0.100000
vertex 12.480677 7.978358 0.100000
endloop
endfacet
facet normal 0.000002 0.000000 1.000000
outer loop
vertex 12.476903 7.972067 0.100000
vertex 12.476079 7.969757 0.100000
vertex 12.500001 7.962501 0.100000
endloop
endfacet
facet normal 0.000000 0.000000 1.000000
outer loop
vertex 12.476903 7.972067 0.100000
vertex 12.500001 7.962501 0.100000
vertex 12.477955 7.974284 0.100000
endloop
endfacet
facet normal 0.000001 0.000000 1.000000
outer loop
vertex 12.475481 7.967377 0.100000
vertex 12.475122 7.964950 0.100000
vertex 12.500001 7.962501 0.100000
endloop
endfacet
facet normal -0.000002 0.000000 1.000000
outer loop
vertex 12.475481 7.967377 0.100000
vertex 12.500001 7.962501 0.100000
vertex 12.476079 7.969757 0.100000
endloop
endfacet
facet normal 0.000000 0.000000 1.000000
outer loop
vertex 12.475000 7.962500 0.100000
vertex 12.475122 7.960050 0.100000
vertex 12.500001 7.962501 0.100000
endloop
endfacet
facet normal -0.000001 0.000000 1.000000
outer loop
vertex 12.475000 7.962500 0.100000
vertex 12.500001 7.962501 0.100000
vertex 12.475122 7.964950 0.100000
endloop
endfacet
facet normal 0.000000 0.000000 1.000000
outer loop
vertex 12.475481 7.957623 0.100000
vertex 12.476079 7.955244 0.100000
vertex 12.500001 7.962501 0.100000
endloop
endfacet
facet normal 0.000000 0.000000 1.000000
outer loop
vertex 12.475481 7.957623 0.100000
vertex 12.500001 7.962501 0.100000
vertex 12.475122 7.960050 0.100000
endloop
endfacet
facet normal 0.000000 0.000000 1.000000
outer loop
vertex 12.476903 7.952933 0.100000
vertex 12.477954 7.950716 0.100000
vertex 12.500001 7.962501 0.100000
endloop
endfacet
facet normal 0.000002 0.000000 1.000000
outer loop
vertex 12.476903 7.952933 0.100000
vertex 12.500001 7.962501 0.100000
vertex 12.476079 7.955244 0.100000
endloop
endfacet
facet normal 0.000000 0.000000 1.000000
outer loop
vertex 12.479213 7.948611 0.100000
vertex 12.480677 7.946642 0.100000
vertex 12.500001 7.962501 0.100000
endloop
endfacet
facet normal -0.000004 0.000000 1.000000
outer loop
vertex 12.479213 7.948611 0.100000
vertex 12.500001 7.962501 0.100000
vertex 12.477954 7.950716 0.100000
endloop
endfacet
facet normal 0.000000 0.000000 1.000000
outer loop
vertex 12.482323 7.944823 0.100000
vertex 12.484142 7.943177 0.100000
vertex 12.500001 7.962501 0.100000
endloop
endfacet
facet normal 0.000000 0.000000 1.000000
outer loop
vertex 12.482323 7.944823 0.100000
vertex 12.500001 7.962501 0.100000
vertex 12.480677 7.946642 0.100000
endloop
endfacet
facet normal 0.000000 0.000000 1.000000
outer loop
vertex 12.486111 7.941713 0.100000
vertex 12.488217 7.940454 0.100000
vertex 12.500001 7.962501 0.100000
endloop
endfacet
facet normal 0.000000 0.000000 1.000000
outer loop
vertex 12.486111 7.941713 0.100000
vertex 12.500001 7.962501 0.100000
vertex 12.484142 7.943177 0.100000
endloop
endfacet
facet normal -0.000008 0.000000 1.000000
outer loop
vertex 12.490433 7.939403 0.100000
vertex 12.492744 7.938579 0.100000
vertex 12.500001 7.962501 0.100000
endloop
endfacet
facet normal 0.000000 0.000000 1.000000
outer loop
vertex 12.490433 7.939403 0.100000
vertex 12.500001 7.962501 0.100000
vertex 12.488217 7.940454 0.100000
endloop
endfacet
facet normal 0.000000 0.000000 1.000000
outer loop
vertex 12.495123 7.937981 0.100000
vertex 12.497550 7.937623 0.100000
vertex 12.500001 7.962501 0.100000
endloop
endfacet
facet normal 0.000000 0.000000 1.000000
outer loop
vertex 12.495123 7.937981 0.100000
vertex 12.500001 7.962501 0.100000
vertex 12.492744 7.938579 0.100000
endloop
endfacet
facet normal 0.000000 0.000000 1.000000
outer loop
vertex 12.500000 7.937500 0.100000
vertex 12.502450 7.937623 0.100000
vertex 12.500001 7.962501 0.100000
endloop
endfacet
facet normal 0.000000 0.000000 1.000000
outer loop
vertex 12.500000 7.937500 0.100000
vertex 12.500001 7.962501 0.100000
vertex 12.497550 7.937623 0.100000
endloop
endfacet
facet normal 0.000000 0.000000 1.000000
outer loop
vertex 12.504878 7.937981 0.100000
vertex 12.507257 7.938579 0.100000
vertex 12.500001 7.962501 0.100000
endloop
endfacet
facet normal 0.000000 0.000000 1.000000
outer loop
vertex 12.504878 7.937981 0.100000
vertex 12.500001 7.962501 0.100000
vertex 12.502450 7.937623 0.100000
endloop
endfacet
facet normal 0.000000 0.000000 1.000000
outer loop
vertex 12.509567 7.939403 0.100000
vertex 12.511784 7.940454 0.100000
vertex 12.500001 7.962501 0.100000
endloop
endfacet
facet normal 0.000008 0.000000 1.000000
outer loop
vertex 12.509567 7.939403 0.100000
vertex 12.500001 7.962501 0.100000
vertex 12.507257 7.938579 0.100000
endloop
endfacet
facet normal 0.000000 0.000000 1.000000
outer loop
vertex 12.513889 7.941713 0.100000
vertex 12.515858 7.943177 0.100000
vertex 12.500001 7.962501 0.100000
endloop
endfacet
facet normal 0.000000 0.000000 1.000000
outer loop
vertex 12.513889 7.941713 0.100000
vertex 12.500001 7.962501 0.100000
vertex 12.511784 7.940454 0.100000
endloop
endfacet
facet normal 0.000000 0.000000 1.000000
outer loop
vertex 12.517678 7.944823 0.100000
vertex 12.519324 7.946642 0.100000
vertex 12.500001 7.962501 0.100000
endloop
endfacet
facet normal 0.000000 0.000000 1.000000
outer loop
vertex 12.517678 7.944823 0.100000
vertex 12.500001 7.962501 0.100000
vertex 12.515858 7.943177 0.100000
endloop
endfacet
facet normal 0.000004 0.000000 1.000000
outer loop
vertex 12.520787 7.948611 0.100000
vertex 12.522046 7.950716 0.100000
vertex 12.500001 7.962501 0.100000
endloop
endfacet
facet normal 0.000000 0.000000 1.000000
outer loop
vertex 12.520787 7.948611 0.100000
vertex 12.500001 7.962501 0.100000
vertex 12.519324 7.946642 0.100000
endloop
endfacet
facet normal -0.000002 0.000000 1.000000
outer loop
vertex 12.523097 7.952933 0.100000
vertex 12.523921 7.955244 0.100000
vertex 12.500001 7.962501 0.100000
endloop
endfacet
facet normal 0.000000 0.000000 1.000000
outer loop
vertex 12.523097 7.952933 0.100000
vertex 12.500001 7.962501 0.100000
vertex 12.522046 7.950716 0.100000
endloop
endfacet
facet normal 0.000000 0.000000 1.000000
outer loop
vertex 12.524520 7.957623 0.100000
vertex 12.524878 7.960050 0.100000
vertex 12.500001 7.962501 0.100000
endloop
endfacet
facet normal 0.000000 0.000000 1.000000
outer loop
vertex 12.524520 7.957623 0.100000
vertex 12.500001 7.962501 0.100000
vertex 12.523921 7.955244 0.100000
endloop
endfacet
facet normal 0.000001 0.000000 1.000000
outer loop
vertex 12.525000 7.962500 0.100000
vertex 12.524878 7.964950 0.100000
vertex 12.500001 7.962501 0.100000
endloop
endfacet
facet normal 0.000000 0.000000 1.000000
outer loop
vertex 12.525000 7.962500 0.100000
vertex 12.500001 7.962501 0.100000
vertex 12.524878 7.960050 0.100000
endloop
endfacet
facet normal 0.000002 0.000000 1.000000
outer loop
vertex 12.524520 7.967377 0.100000
vertex 12.523921 7.969757 0.100000
vertex 12.500001 7.962501 0.100000
endloop
endfacet
facet normal -0.000001 0.000000 1.000000
outer loop
vertex 12.524520 7.967377 0.100000
vertex 12.500001 7.962501 0.100000
vertex 12.524878 7.964950 0.100000
endloop
endfacet
facet normal 0.000000 0.000000 1.000000
outer loop
vertex 12.523097 7.972067 0.100000
vertex 12.522046 7.974284 0.100000
vertex 12.500001 7.962501 0.100000
endloop
endfacet
facet normal -0.000002 0.000000 1.000000
outer loop
vertex 12.523097 7.972067 0.100000
vertex 12.500001 7.962501 0.100000
vertex 12.523921 7.969757 0.100000
endloop
endfacet
facet normal 0.000000 0.000000 1.000000
outer loop
vertex 12.520787 7.976390 0.100000
vertex 12.519324 7.978358 0.100000
vertex 12.500001 7.962501 0.100000
endloop
endfacet
facet normal -0.000004 0.000000 1.000000
outer loop
vertex 12.520787 7.976390 0.100000
vertex 12.500001 7.962501 0.100000
vertex 12.522046 7.974284 0.100000
endloop
endfacet
facet normal 0.000000 0.000000 1.000000
outer loop
vertex 12.517678 7.980178 0.100000
vertex 12.515858 7.981824 0.100000
vertex 12.500001 7.962501 0.100000
endloop
endfacet
facet normal 0.000000 0.000000 1.000000
outer loop
vertex 12.517678 7.980178 0.100000
vertex 12.500001 7.962501 0.100000
vertex 12.519324 7.978358 0.100000
endloop
endfacet
facet normal 0.000000 0.000000 1.000000
outer loop
vertex 12.513889 7.983287 0.100000
vertex 12.511784 7.984546 0.100000
vertex 12.500001 7.962501 0.100000
endloop
endfacet
facet normal 0.000000 0.000000 1.000000
outer loop
vertex 12.513889 7.983287 0.100000
vertex 12.500001 7.962501 0.100000
vertex 12.515858 7.981824 0.100000
endloop
endfacet
facet normal 0.000000 0.000000 1.000000
outer loop
vertex 12.509567 7.985597 0.100000
vertex 12.507257 7.986421 0.100000
vertex 12.500001 7.962501 0.100000
endloop
endfacet
facet normal 0.000000 0.000000 1.000000
outer loop
vertex 12.509567 7.985597 0.100000
vertex 12.500001 7.962501 0.100000
vertex 12.511784 7.984546 0.100000
endloop
endfacet
facet normal -0.336792 0.941579 0.000000
outer loop
vertex 12.490434 7.985595 0.000000
vertex 12.490434 7.985595 0.050000
vertex 12.492744 7.986421 0.050000
endloop
endfacet
facet normal -0.336484 0.941689 0.000000
outer loop
vertex 12.490434 7.985595 0.000000
vertex 12.492744 7.986421 0.050000
vertex 12.492744 7.986421 0.000000
endloop
endfacet
facet normal -0.336792 0.941579 0.000000
outer loop
vertex 12.490434 7.985595 0.050000
vertex 12.490434 7.985595 0.100000
vertex 12.492744 7.986421 0.100000
endloop
endfacet
facet normal -0.336484 0.941689 0.000000
outer loop
vertex 12.490434 7.985595 0.050000
vertex 12.492744 7.986421 0.100000
vertex 12.492744 7.986421 0.050000
endloop
endfacet
facet normal -0.242993 0.970028 0.000000
outer loop
vertex 12.492744 7.986421 0.050000
vertex 12.492744 7.986421 0.100000
vertex 12.495124 7.987017 0.100000
endloop
endfacet
facet normal -0.243222 0.969971 0.000011
outer loop
vertex 12.492744 7.986421 0.050000
vertex 12.495124 7.987017 0.100000
vertex 12.495123 7.987017 0.050000
endloop
endfacet
facet normal -0.243222 0.969971 0.000000
outer loop
vertex 12.492744 7.986421 0.000000
vertex 12.492744 7.986421 0.050000
vertex 12.495123 7.987017 0.050000
endloop
endfacet
facet normal -0.242993 0.970028 -0.000011
outer loop
vertex 12.492744 7.986421 0.000000
vertex 12.495123 7.987017 0.050000
vertex 12.495124 7.987017 0.000000
endloop
endfacet
facet normal -0.146725 0.989177 0.000000
outer loop
vertex 12.495124 7.987017 0.000000
vertex 12.495123 7.987017 0.050000
vertex 12.497550 7.987377 0.050000
endloop
endfacet
facet normal -0.146725 0.989177 0.000000
outer loop
vertex 12.495124 7.987017 0.000000
vertex 12.497550 7.987377 0.050000
vertex 12.497550 7.987377 0.000000
endloop
endfacet
facet normal -0.146725 0.989177 0.000000
outer loop
vertex 12.495123 7.987017 0.050000
vertex 12.495124 7.987017 0.100000
vertex 12.497550 7.987377 0.100000
endloop
endfacet
facet normal -0.146725 0.989177 0.000000
outer loop
vertex 12.495123 7.987017 0.050000
vertex 12.497550 7.987377 0.100000
vertex 12.497550 7.987377 0.050000
endloop
endfacet
facet normal -0.049356 0.998781 0.000000
outer loop
vertex 12.497550 7.987377 0.050000
vertex 12.497550 7.987377 0.100000
vertex 12.500000 7.987498 0.100000
endloop
endfacet
facet normal -0.049404 0.998779 0.000000
outer loop
vertex 12.497550 7.987377 0.050000
vertex 12.500000 7.987498 0.100000
vertex 12.500000 7.987498 0.050000
endloop
endfacet
facet normal -0.049356 0.998781 0.000000
outer loop
vertex 12.497550 7.987377 0.000000
vertex 12.497550 7.987377 0.050000
vertex 12.500000 7.987498 0.050000
endloop
endfacet
facet normal -0.049404 0.998779 0.000000
outer loop
vertex 12.497550 7.987377 0.000000
vertex 12.500000 7.987498 0.050000
vertex 12.500000 7.987498 0.000000
endloop
endfacet
facet normal 0.000000 0.000000 -1.000000
outer loop
vertex 12.500000 7.987500 0.000000
vertex 12.502450 7.987377 0.000000
vertex 12.500001 7.962501 0.000000
endloop
endfacet
facet normal 0.000000 0.000000 -1.000000
outer loop
vertex 12.500000 7.987500 0.000000
vertex 12.500001 7.962501 0.000000
vertex 12.497550 7.987377 0.000000
endloop
endfacet
facet normal 0.000000 0.000000 -1.000000
outer loop
vertex 12.504878 7.987020 0.000000
vertex 12.507257 7.986421 0.000000
vertex 12.500001 7.962501 0.000000
endloop
endfacet
facet normal 0.000000 0.000000 -1.000000
outer loop
vertex 12.504878 7.987020 0.000000
vertex 12.500001 7.962501 0.000000
vertex 12.502450 7.987377 0.000000
endloop
endfacet
facet normal 0.000000 0.000000 -1.000000
outer loop
vertex 12.509567 7.985597 0.000000
vertex 12.511784 7.984546 0.000000
vertex 12.500001 7.962501 0.000000
endloop
endfacet
facet normal 0.000000 0.000000 -1.000000
outer loop
vertex 12.509567 7.985597 0.000000
vertex 12.500001 7.962501 0.000000
vertex 12.507257 7.986421 0.000000
endloop
endfacet
facet normal 0.000000 0.000000 -1.000000
outer loop
vertex 12.513889 7.983287 0.000000
vertex 12.515858 7.981823 0.000000
vertex 12.500001 7.962501 0.000000
endloop
endfacet
facet normal 0.000000 0.000000 -1.000000
outer loop
vertex 12.513889 7.983287 0.000000
vertex 12.500001 7.962501 0.000000
vertex 12.511784 7.984546 0.000000
endloop
endfacet
facet normal 0.000000 0.000000 -1.000000
outer loop
vertex 12.517678 7.980178 0.000000
vertex 12.519324 7.978358 0.000000
vertex 12.500001 7.962501 0.000000
endloop
endfacet
facet normal 0.000000 0.000000 -1.000000
outer loop
vertex 12.517678 7.980178 0.000000
vertex 12.500001 7.962501 0.000000
vertex 12.515858 7.981823 0.000000
endloop
endfacet
facet normal 0.000000 0.000000 -1.000000
outer loop
vertex 12.520787 7.976390 0.000000
vertex 12.522046 7.974284 0.000000
vertex 12.500001 7.962501 0.000000
endloop
endfacet
facet normal 0.000000 0.000000 -1.000000
outer loop
vertex 12.520787 7.976390 0.000000
vertex 12.500001 7.962501 0.000000
vertex 12.519324 7.978358 0.000000
endloop
endfacet
facet normal 0.000000 0.000000 -1.000000
outer loop
vertex 12.523097 7.972067 0.000000
vertex 12.523921 7.969757 0.000000
vertex 12.500001 7.962501 0.000000
endloop
endfacet
facet normal 0.000000 0.000000 -1.000000
outer loop
vertex 12.523097 7.972067 0.000000
vertex 12.500001 7.962501 0.000000
vertex 12.522046 7.974284 0.000000
endloop
endfacet
facet normal 0.000000 0.000000 -1.000000
outer loop
vertex 12.524520 7.967377 0.000000
vertex 12.524878 7.964950 0.000000
vertex 12.500001 7.962501 0.000000
endloop
endfacet
facet normal 0.000000 0.000000 -1.000000
outer loop
vertex 12.524520 7.967377 0.000000
vertex 12.500001 7.962501 0.000000
vertex 12.523921 7.969757 0.000000
endloop
endfacet
facet normal 0.000000 0.000000 -1.000000
outer loop
vertex 12.525000 7.962500 0.000000
vertex 12.524878 7.960050 0.000000
vertex 12.500001 7.962501 0.000000
endloop
endfacet
facet normal 0.000000 0.000000 -1.000000
outer loop
vertex 12.525000 7.962500 0.000000
vertex 12.500001 7.962501 0.000000
vertex 12.524878 7.964950 0.000000
endloop
endfacet
facet normal 0.000000 0.000000 -1.000000
outer loop
vertex 12.524520 7.957623 0.000000
vertex 12.523921 7.955244 0.000000
vertex 12.500001 7.962501 0.000000
endloop
endfacet
facet normal 0.000000 0.000000 -1.000000
outer loop
vertex 12.524520 7.957623 0.000000
vertex 12.500001 7.962501 0.000000
vertex 12.524878 7.960050 0.000000
endloop
endfacet
facet normal 0.000000 0.000000 -1.000000
outer loop
vertex 12.523097 7.952933 0.000000
vertex 12.522046 7.950716 0.000000
vertex 12.500001 7.962501 0.000000
endloop
endfacet
facet normal 0.000000 0.000000 -1.000000
outer loop
vertex 12.523097 7.952933 0.000000
vertex 12.500001 7.962501 0.000000
vertex 12.523921 7.955244 0.000000
endloop
endfacet
facet normal 0.000000 0.000000 -1.000000
outer loop
vertex 12.520787 7.948611 0.000000
vertex 12.519324 7.946642 0.000000
vertex 12.500001 7.962501 0.000000
endloop
endfacet
facet normal 0.000000 0.000000 -1.000000
outer loop
vertex 12.520787 7.948611 0.000000
vertex 12.500001 7.962501 0.000000
vertex 12.522046 7.950716 0.000000
endloop
endfacet
facet normal 0.000000 0.000000 -1.000000
outer loop
vertex 12.517678 7.944823 0.000000
vertex 12.515858 7.943177 0.000000
vertex 12.500001 7.962501 0.000000
endloop
endfacet
facet normal 0.000000 0.000000 -1.000000
outer loop
vertex 12.517678 7.944823 0.000000
vertex 12.500001 7.962501 0.000000
vertex 12.519324 7.946642 0.000000
endloop
endfacet
facet normal 0.000000 0.000000 -1.000000
outer loop
vertex 12.513889 7.941713 0.000000
vertex 12.511784 7.940454 0.000000
vertex 12.500001 7.962501 0.000000
endloop
endfacet
facet normal 0.000000 0.000000 -1.000000
outer loop
vertex 12.513889 7.941713 0.000000
vertex 12.500001 7.962501 0.000000
vertex 12.515858 7.943177 0.000000
endloop
endfacet
facet normal 0.000000 0.000000 -1.000000
outer loop
vertex 12.509567 7.939403 0.000000
vertex 12.507257 7.938579 0.000000
vertex 12.500001 7.962501 0.000000
endloop
endfacet
facet normal 0.000000 0.000000 -1.000000
outer loop
vertex 12.509567 7.939403 0.000000
vertex 12.500001 7.962501 0.000000
vertex 12.511784 7.940454 0.000000
endloop
endfacet
facet normal 0.000000 0.000000 -1.000000
outer loop
vertex 12.504878 7.937981 0.000000
vertex 12.502450 7.937623 0.000000
vertex 12.500001 7.962501 0.000000
endloop
endfacet
facet normal 0.000000 0.000000 -1.000000
outer loop
vertex 12.504878 7.937981 0.000000
vertex 12.500001 7.962501 0.000000
vertex 12.507257 7.938579 0.000000
endloop
endfacet
facet normal 0.000000 0.000000 -1.000000
outer loop
vertex 12.500000 7.937500 0.000000
vertex 12.497550 7.937623 0.000000
vertex 12.500001 7.962501 0.000000
endloop
endfacet
facet normal 0.000000 0.000000 -1.000000
outer loop
vertex 12.500000 7.937500 0.000000
vertex 12.500001 7.962501 0.000000
vertex 12.502450 7.937623 0.000000
endloop
endfacet
facet normal 0.000000 0.000000 -1.000000
outer loop
vertex 12.495123 7.937981 0.000000
vertex 12.492744 7.938579 0.000000
vertex 12.500001 7.962501 0.000000
endloop
endfacet
facet normal 0.000000 0.000000 -1.000000
outer loop
vertex 12.495123 7.937981 0.000000
vertex 12.500001 7.962501 0.000000
vertex 12.497550 7.937623 0.000000
endloop
endfacet
facet normal 0.000000 0.000000 -1.000000
outer loop
vertex 12.490433 7.939403 0.000000
vertex 12.488216 7.940454 0.000000
vertex 12.500001 7.962501 0.000000
endloop
endfacet
facet normal 0.000000 0.000000 -1.000000
outer loop
vertex 12.490433 7.939403 0.000000
vertex 12.500001 7.962501 0.000000
vertex 12.492744 7.938579 0.000000
endloop
endfacet
facet normal 0.000000 0.000000 -1.000000
outer loop
vertex 12.486111 7.941713 0.000000
vertex 12.484142 7.943177 0.000000
vertex 12.500001 7.962501 0.000000
endloop
endfacet
facet normal 0.000000 0.000000 -1.000000
outer loop
vertex 12.486111 7.941713 0.000000
vertex 12.500001 7.962501 0.000000
vertex 12.488216 7.940454 0.000000
endloop
endfacet
facet normal 0.000000 0.000000 -1.000000
outer loop
vertex 12.482323 7.944823 0.000000
vertex 12.480677 7.946642 0.000000
vertex 12.500001 7.962501 0.000000
endloop
endfacet
facet normal 0.000000 0.000000 -1.000000
outer loop
vertex 12.482323 7.944823 0.000000
vertex 12.500001 7.962501 0.000000
vertex 12.484142 7.943177 0.000000
endloop
endfacet
facet normal 0.000000 0.000000 -1.000000
outer loop
vertex 12.479213 7.948611 0.000000
vertex 12.477954 7.950716 0.000000
vertex 12.500001 7.962501 0.000000
endloop
endfacet
facet normal 0.000000 0.000000 -1.000000
outer loop
vertex 12.479213 7.948611 0.000000
vertex 12.500001 7.962501 0.000000
vertex 12.480677 7.946642 0.000000
endloop
endfacet
facet normal 0.000000 0.000000 -1.000000
outer loop
vertex 12.476903 7.952933 0.000000
vertex 12.476079 7.955244 0.000000
vertex 12.500001 7.962501 0.000000
endloop
endfacet
facet normal 0.000000 0.000000 -1.000000
outer loop
vertex 12.476903 7.952933 0.000000
vertex 12.500001 7.962501 0.000000
vertex 12.477954 7.950716 0.000000
endloop
endfacet
facet normal 0.000000 0.000000 -1.000000
outer loop
vertex 12.475481 7.957623 0.000000
vertex 12.475122 7.960050 0.000000
vertex 12.500001 7.962501 0.000000
endloop
endfacet
facet normal 0.000000 0.000000 -1.000000
outer loop
vertex 12.475481 7.957623 0.000000
vertex 12.500001 7.962501 0.000000
vertex 12.476079 7.955244 0.000000
endloop
endfacet
facet normal 0.000000 0.000000 -1.000000
outer loop
vertex 12.475000 7.962500 0.000000
vertex 12.475122 7.964950 0.000000
vertex 12.500001 7.962501 0.000000
endloop
endfacet
facet normal 0.000000 0.000000 -1.000000
outer loop
vertex 12.475000 7.962500 0.000000
vertex 12.500001 7.962501 0.000000
vertex 12.475122 7.960050 0.000000
endloop
endfacet
facet normal 0.000000 0.000000 -1.000000
outer loop
vertex 12.475481 7.967377 0.000000
vertex 12.476079 7.969757 0.000000
vertex 12.500001 7.962501 0.000000
endloop
endfacet
facet normal 0.000000 0.000000 -1.000000
outer loop
vertex 12.475481 7.967377 0.000000
vertex 12.500001 7.962501 0.000000
vertex 12.475122 7.964950 0.000000
endloop
endfacet
facet normal 0.000000 0.000000 -1.000000
outer loop
vertex 12.476903 7.972067 0.000000
vertex 12.477954 7.974284 0.000000
vertex 12.500001 7.962501 0.000000
endloop
endfacet
facet normal 0.000000 0.000000 -1.000000
outer loop
vertex 12.476903 7.972067 0.000000
vertex 12.500001 7.962501 0.000000
vertex 12.476079 7.969757 0.000000
endloop
endfacet
facet normal 0.000000 0.000000 -1.000000
outer loop
vertex 12.479213 7.976390 0.000000
vertex 12.480677 7.978358 0.000000
vertex 12.500001 7.962501 0.000000
endloop
endfacet
facet normal 0.000000 0.000000 -1.000000
outer loop
vertex 12.479213 7.976390 0.000000
vertex 12.500001 7.962501 0.000000
vertex 12.477954 7.974284 0.000000
endloop
endfacet
facet normal 0.000000 0.000000 -1.000000
outer loop
vertex 12.482323 7.980178 0.000000
vertex 12.484142 7.981824 0.000000
vertex 12.500001 7.962501 0.000000
endloop
endfacet
facet normal 0.000000 0.000000 -1.000000
outer loop
vertex 12.482323 7.980178 0.000000
vertex 12.500001 7.962501 0.000000
vertex 12.480677 7.978358 0.000000
endloop
endfacet
facet normal 0.000000 0.000000 -1.000000
outer loop
vertex 12.486111 7.983287 0.000000
vertex 12.488217 7.984546 0.000000
vertex 12.500001 7.962501 0.000000
endloop
endfacet
facet normal 0.000000 0.000000 -1.000000
outer loop
vertex 12.486111 7.983287 0.000000
vertex 12.500001 7.962501 0.000000
vertex 12.484142 7.981824 0.000000
endloop
endfacet
facet normal 0.000000 0.000000 -1.000000
outer loop
vertex 12.490433 7.985597 0.000000
vertex 12.492744 7.986421 0.000000
vertex 12.500001 7.962501 0.000000
endloop
endfacet
facet normal 0.000000 0.000000 -1.000000
outer loop
vertex 12.490433 7.985597 0.000000
vertex 12.500001 7.962501 0.000000
vertex 12.488217 7.984546 0.000000
endloop
endfacet
facet normal 0.000000 0.000000 -1.000000
outer loop
vertex 12.495123 7.987020 0.000000
vertex 12.497550 7.987377 0.000000
vertex 12.500001 7.962501 0.000000
endloop
endfacet
facet normal 0.000000 0.000000 -1.000000
outer loop
vertex 12.495123 7.987020 0.000000
vertex 12.500001 7.962501 0.000000
vertex 12.492744 7.986421 0.000000
endloop
endfacet
endsolid Exported from Blender-2.82 (sub 7)
