solid Exported from Blender-2.82 (sub 7)
facet normal 0.048992 0.998799 0.000000
outer loop
vertex 8.353550 8.378548 0.000000
vertex 8.353550 8.378548 0.050000
vertex 8.356000 8.378428 0.050000
endloop
endfacet
facet normal 0.048968 0.998800 0.000000
outer loop
vertex 8.353550 8.378548 0.000000
vertex 8.356000 8.378428 0.050000
vertex 8.356000 8.378428 0.000000
endloop
endfacet
facet normal 0.048992 0.998799 0.000000
outer loop
vertex 8.353550 8.378548 0.050000
vertex 8.353550 8.378548 0.100000
vertex 8.356000 8.378428 0.100000
endloop
endfacet
facet normal 0.048968 0.998800 0.000000
outer loop
vertex 8.353550 8.378548 0.050000
vertex 8.356000 8.378428 0.100000
vertex 8.356000 8.378428 0.050000
endloop
endfacet
facet normal 0.146844 0.989160 0.000000
outer loop
vertex 8.356000 8.378428 0.050000
vertex 8.356000 8.378428 0.100000
vertex 8.358427 8.378067 0.100000
endloop
endfacet
facet normal 0.146986 0.989139 0.000000
outer loop
vertex 8.356000 8.378428 0.050000
vertex 8.358427 8.378067 0.100000
vertex 8.358427 8.378067 0.050000
endloop
endfacet
facet normal 0.146844 0.989160 0.000000
outer loop
vertex 8.356000 8.378428 0.000000
vertex 8.356000 8.378428 0.050000
vertex 8.358427 8.378067 0.050000
endloop
endfacet
facet normal 0.146986 0.989139 0.000000
outer loop
vertex 8.356000 8.378428 0.000000
vertex 8.358427 8.378067 0.050000
vertex 8.358427 8.378067 0.000000
endloop
endfacet
facet normal 0.243474 0.969908 0.000000
outer loop
vertex 8.358427 8.378067 0.000000
vertex 8.358427 8.378067 0.050000
vertex 8.360806 8.377470 0.050000
endloop
endfacet
facet normal 0.243244 0.969965 0.000014
outer loop
vertex 8.358427 8.378067 0.000000
vertex 8.360806 8.377470 0.050000
vertex 8.360807 8.377470 0.000000
endloop
endfacet
facet normal 0.243244 0.969965 0.000000
outer loop
vertex 8.358427 8.378067 0.050000
vertex 8.358427 8.378067 0.100000
vertex 8.360807 8.377470 0.100000
endloop
endfacet
facet normal 0.243474 0.969908 -0.000014
outer loop
vertex 8.358427 8.378067 0.050000
vertex 8.360807 8.377470 0.100000
vertex 8.360806 8.377470 0.050000
endloop
endfacet
facet normal 0.336928 0.941531 -0.000030
outer loop
vertex 8.360806 8.377470 0.050000
vertex 8.360807 8.377470 0.100000
vertex 8.363115 8.376644 0.100000
endloop
endfacet
facet normal 0.336774 0.941586 0.000000
outer loop
vertex 8.360806 8.377470 0.050000
vertex 8.363115 8.376644 0.100000
vertex 8.363115 8.376644 0.050000
endloop
endfacet
facet normal 0.336774 0.941586 0.000030
outer loop
vertex 8.360807 8.377470 0.000000
vertex 8.360806 8.377470 0.050000
vertex 8.363115 8.376644 0.050000
endloop
endfacet
facet normal 0.336928 0.941531 0.000000
outer loop
vertex 8.360807 8.377470 0.000000
vertex 8.363115 8.376644 0.050000
vertex 8.363115 8.376644 0.000000
endloop
endfacet
facet normal 0.427163 0.904175 0.000000
outer loop
vertex 8.363115 8.376644 0.000000
vertex 8.363115 8.376644 0.050000
vertex 8.365334 8.375596 0.050000
endloop
endfacet
facet normal 0.427163 0.904175 0.000000
outer loop
vertex 8.363115 8.376644 0.000000
vertex 8.365334 8.375596 0.050000
vertex 8.365334 8.375596 0.000000
endloop
endfacet
facet normal 0.427163 0.904175 0.000000
outer loop
vertex 8.363115 8.376644 0.050000
vertex 8.363115 8.376644 0.100000
vertex 8.365334 8.375596 0.100000
endloop
endfacet
facet normal 0.427163 0.904175 0.000000
outer loop
vertex 8.363115 8.376644 0.050000
vertex 8.365334 8.375596 0.100000
vertex 8.365334 8.375596 0.050000
endloop
endfacet
facet normal 0.514281 0.857621 0.000000
outer loop
vertex 8.365334 8.375596 0.050000
vertex 8.365334 8.375596 0.100000
vertex 8.367437 8.374334 0.100000
endloop
endfacet
facet normal 0.514281 0.857621 0.000000
outer loop
vertex 8.365334 8.375596 0.050000
vertex 8.367437 8.374334 0.100000
vertex 8.367437 8.374334 0.050000
endloop
endfacet
facet normal 0.514281 0.857621 0.000000
outer loop
vertex 8.365334 8.375596 0.000000
vertex 8.365334 8.375596 0.050000
vertex 8.367437 8.374334 0.050000
endloop
endfacet
facet normal 0.514281 0.857621 0.000000
outer loop
vertex 8.365334 8.375596 0.000000
vertex 8.367437 8.374334 0.050000
vertex 8.367437 8.374334 0.000000
endloop
endfacet
facet normal 0.596324 0.802744 0.000000
outer loop
vertex 8.367437 8.374334 0.000000
vertex 8.367437 8.374334 0.050000
vertex 8.369408 8.372871 0.050000
endloop
endfacet
facet normal 0.596091 0.802916 0.000000
outer loop
vertex 8.367437 8.374334 0.000000
vertex 8.369408 8.372871 0.050000
vertex 8.369408 8.372871 0.000000
endloop
endfacet
facet normal 0.596324 0.802744 0.000000
outer loop
vertex 8.367437 8.374334 0.050000
vertex 8.367437 8.374334 0.100000
vertex 8.369408 8.372871 0.100000
endloop
endfacet
facet normal 0.596091 0.802916 0.000000
outer loop
vertex 8.367437 8.374334 0.050000
vertex 8.369408 8.372871 0.100000
vertex 8.369408 8.372871 0.050000
endloop
endfacet
facet normal 0.671191 0.741285 0.000000
outer loop
vertex 8.369408 8.372871 0.050000
vertex 8.369408 8.372871 0.100000
vertex 8.371225 8.371225 0.100000
endloop
endfacet
facet normal 0.671191 0.741285 0.000000
outer loop
vertex 8.369408 8.372871 0.050000
vertex 8.371225 8.371225 0.100000
vertex 8.371225 8.371225 0.050000
endloop
endfacet
facet normal 0.671191 0.741285 0.000000
outer loop
vertex 8.369408 8.372871 0.000000
vertex 8.369408 8.372871 0.050000
vertex 8.371225 8.371225 0.050000
endloop
endfacet
facet normal 0.671191 0.741285 0.000000
outer loop
vertex 8.369408 8.372871 0.000000
vertex 8.371225 8.371225 0.050000
vertex 8.371225 8.371225 0.000000
endloop
endfacet
facet normal 0.740951 0.671559 0.000000
outer loop
vertex 8.371225 8.371225 0.000000
vertex 8.371225 8.371225 0.050000
vertex 8.372873 8.369408 0.050000
endloop
endfacet
facet normal 0.740709 0.671826 0.000000
outer loop
vertex 8.371225 8.371225 0.000000
vertex 8.372873 8.369408 0.050000
vertex 8.372873 8.369408 0.000000
endloop
endfacet
facet normal 0.740951 0.671559 0.000000
outer loop
vertex 8.371225 8.371225 0.050000
vertex 8.371225 8.371225 0.100000
vertex 8.372873 8.369408 0.100000
endloop
endfacet
facet normal 0.740709 0.671826 0.000000
outer loop
vertex 8.371225 8.371225 0.050000
vertex 8.372873 8.369408 0.100000
vertex 8.372873 8.369408 0.050000
endloop
endfacet
facet normal 0.803394 0.595448 0.000000
outer loop
vertex 8.372873 8.369408 0.050000
vertex 8.372873 8.369408 0.100000
vertex 8.374334 8.367437 0.100000
endloop
endfacet
facet normal 0.803161 0.595762 0.000000
outer loop
vertex 8.372873 8.369408 0.050000
vertex 8.374334 8.367437 0.100000
vertex 8.374334 8.367437 0.050000
endloop
endfacet
facet normal 0.803394 0.595448 0.000000
outer loop
vertex 8.372873 8.369408 0.000000
vertex 8.372873 8.369408 0.050000
vertex 8.374334 8.367437 0.050000
endloop
endfacet
facet normal 0.803161 0.595762 0.000000
outer loop
vertex 8.372873 8.369408 0.000000
vertex 8.374334 8.367437 0.050000
vertex 8.374334 8.367437 0.000000
endloop
endfacet
facet normal 0.857467 0.514539 0.000000
outer loop
vertex 8.374334 8.367437 0.000000
vertex 8.374334 8.367437 0.050000
vertex 8.375596 8.365334 0.050000
endloop
endfacet
facet normal 0.857682 0.514181 0.000000
outer loop
vertex 8.374334 8.367437 0.000000
vertex 8.375596 8.365334 0.050000
vertex 8.375596 8.365334 0.000000
endloop
endfacet
facet normal 0.857467 0.514539 0.000000
outer loop
vertex 8.374334 8.367437 0.050000
vertex 8.374334 8.367437 0.100000
vertex 8.375596 8.365334 0.100000
endloop
endfacet
facet normal 0.857682 0.514181 0.000000
outer loop
vertex 8.374334 8.367437 0.050000
vertex 8.375596 8.365334 0.100000
vertex 8.375596 8.365334 0.050000
endloop
endfacet
facet normal 0.904007 0.427518 0.000000
outer loop
vertex 8.375596 8.365334 0.050000
vertex 8.375596 8.365334 0.100000
vertex 8.376645 8.363115 0.100000
endloop
endfacet
facet normal 0.904007 0.427518 0.000000
outer loop
vertex 8.375596 8.365334 0.050000
vertex 8.376645 8.363115 0.100000
vertex 8.376645 8.363115 0.050000
endloop
endfacet
facet normal 0.904007 0.427518 0.000000
outer loop
vertex 8.375596 8.365334 0.000000
vertex 8.375596 8.365334 0.050000
vertex 8.376645 8.363115 0.050000
endloop
endfacet
facet normal 0.904007 0.427518 0.000000
outer loop
vertex 8.375596 8.365334 0.000000
vertex 8.376645 8.363115 0.050000
vertex 8.376645 8.363115 0.000000
endloop
endfacet
facet normal 0.941654 0.336583 0.000000
outer loop
vertex 8.376645 8.363115 0.000000
vertex 8.376645 8.363115 0.050000
vertex 8.377471 8.360807 0.050000
endloop
endfacet
facet normal 0.941500 0.337014 0.000000
outer loop
vertex 8.376645 8.363115 0.000000
vertex 8.377471 8.360807 0.050000
vertex 8.377471 8.360807 0.000000
endloop
endfacet
facet normal 0.941654 0.336583 0.000000
outer loop
vertex 8.376645 8.363115 0.050000
vertex 8.376645 8.363115 0.100000
vertex 8.377471 8.360807 0.100000
endloop
endfacet
facet normal 0.941500 0.337014 0.000000
outer loop
vertex 8.376645 8.363115 0.050000
vertex 8.377471 8.360807 0.100000
vertex 8.377471 8.360807 0.050000
endloop
endfacet
facet normal 0.969936 0.243358 0.000000
outer loop
vertex 8.377471 8.360807 0.050000
vertex 8.377471 8.360807 0.100000
vertex 8.378068 8.358427 0.100000
endloop
endfacet
facet normal 0.969936 0.243358 0.000000
outer loop
vertex 8.377471 8.360807 0.050000
vertex 8.378068 8.358427 0.100000
vertex 8.378068 8.358427 0.050000
endloop
endfacet
facet normal 0.969936 0.243358 0.000000
outer loop
vertex 8.377471 8.360807 0.000000
vertex 8.377471 8.360807 0.050000
vertex 8.378068 8.358427 0.050000
endloop
endfacet
facet normal 0.969936 0.243358 0.000000
outer loop
vertex 8.377471 8.360807 0.000000
vertex 8.378068 8.358427 0.050000
vertex 8.378068 8.358427 0.000000
endloop
endfacet
facet normal 0.989186 0.146668 0.000000
outer loop
vertex 8.378068 8.358427 0.000000
vertex 8.378068 8.358427 0.050000
vertex 8.378428 8.355999 0.050000
endloop
endfacet
facet normal 0.989256 0.146193 0.000000
outer loop
vertex 8.378068 8.358427 0.000000
vertex 8.378428 8.355999 0.050000
vertex 8.378428 8.355999 0.000000
endloop
endfacet
facet normal 0.989186 0.146668 0.000000
outer loop
vertex 8.378068 8.358427 0.050000
vertex 8.378068 8.358427 0.100000
vertex 8.378428 8.355999 0.100000
endloop
endfacet
facet normal 0.989256 0.146193 0.000000
outer loop
vertex 8.378068 8.358427 0.050000
vertex 8.378428 8.355999 0.100000
vertex 8.378428 8.355999 0.050000
endloop
endfacet
facet normal 0.998794 0.049103 0.000000
outer loop
vertex 8.378428 8.355999 0.050000
vertex 8.378428 8.355999 0.100000
vertex 8.378548 8.353550 0.100000
endloop
endfacet
facet normal 0.998794 0.049103 0.000000
outer loop
vertex 8.378428 8.355999 0.050000
vertex 8.378548 8.353550 0.100000
vertex 8.378548 8.353550 0.050000
endloop
endfacet
facet normal 0.998794 0.049103 0.000000
outer loop
vertex 8.378428 8.355999 0.000000
vertex 8.378428 8.355999 0.050000
vertex 8.378548 8.353550 0.050000
endloop
endfacet
facet normal 0.998794 0.049103 0.000000
outer loop
vertex 8.378428 8.355999 0.000000
vertex 8.378548 8.353550 0.050000
vertex 8.378548 8.353550 0.000000
endloop
endfacet
facet normal 0.998795 -0.049084 0.000000
outer loop
vertex 8.378548 8.353550 0.000000
vertex 8.378548 8.353550 0.050000
vertex 8.378428 8.351100 0.050000
endloop
endfacet
facet normal 0.998795 -0.049084 0.000000
outer loop
vertex 8.378548 8.353550 0.000000
vertex 8.378428 8.351100 0.050000
vertex 8.378428 8.351100 0.000000
endloop
endfacet
facet normal 0.998795 -0.049084 0.000000
outer loop
vertex 8.378548 8.353550 0.050000
vertex 8.378548 8.353550 0.100000
vertex 8.378428 8.351100 0.100000
endloop
endfacet
facet normal 0.998795 -0.049084 0.000000
outer loop
vertex 8.378548 8.353550 0.050000
vertex 8.378428 8.351100 0.100000
vertex 8.378428 8.351100 0.050000
endloop
endfacet
facet normal 0.989239 -0.146306 0.000000
outer loop
vertex 8.378428 8.351100 0.050000
vertex 8.378428 8.351100 0.100000
vertex 8.378068 8.348674 0.100000
endloop
endfacet
facet normal 0.989169 -0.146781 0.000000
outer loop
vertex 8.378428 8.351100 0.050000
vertex 8.378068 8.348674 0.100000
vertex 8.378068 8.348674 0.050000
endloop
endfacet
facet normal 0.989239 -0.146306 0.000000
outer loop
vertex 8.378428 8.351100 0.000000
vertex 8.378428 8.351100 0.050000
vertex 8.378068 8.348674 0.050000
endloop
endfacet
facet normal 0.989169 -0.146781 0.000000
outer loop
vertex 8.378428 8.351100 0.000000
vertex 8.378068 8.348674 0.050000
vertex 8.378068 8.348674 0.000000
endloop
endfacet
facet normal 0.969913 -0.243450 0.000000
outer loop
vertex 8.378068 8.348674 0.000000
vertex 8.378068 8.348674 0.050000
vertex 8.377471 8.346294 0.050000
endloop
endfacet
facet normal 0.969913 -0.243450 0.000000
outer loop
vertex 8.378068 8.348674 0.000000
vertex 8.377471 8.346294 0.050000
vertex 8.377471 8.346294 0.000000
endloop
endfacet
facet normal 0.969913 -0.243450 0.000000
outer loop
vertex 8.378068 8.348674 0.050000
vertex 8.378068 8.348674 0.100000
vertex 8.377471 8.346294 0.100000
endloop
endfacet
facet normal 0.969913 -0.243450 0.000000
outer loop
vertex 8.378068 8.348674 0.050000
vertex 8.377471 8.346294 0.100000
vertex 8.377471 8.346294 0.050000
endloop
endfacet
facet normal 0.941632 -0.336644 0.000000
outer loop
vertex 8.377471 8.346294 0.050000
vertex 8.377471 8.346294 0.100000
vertex 8.376645 8.343984 0.100000
endloop
endfacet
facet normal 0.941786 -0.336213 0.000000
outer loop
vertex 8.377471 8.346294 0.050000
vertex 8.376645 8.343984 0.100000
vertex 8.376645 8.343984 0.050000
endloop
endfacet
facet normal 0.941632 -0.336644 0.000000
outer loop
vertex 8.377471 8.346294 0.000000
vertex 8.377471 8.346294 0.050000
vertex 8.376645 8.343984 0.050000
endloop
endfacet
facet normal 0.941786 -0.336213 0.000000
outer loop
vertex 8.377471 8.346294 0.000000
vertex 8.376645 8.343984 0.050000
vertex 8.376645 8.343984 0.000000
endloop
endfacet
facet normal 0.903936 -0.427668 0.000000
outer loop
vertex 8.376645 8.343984 0.000000
vertex 8.376645 8.343984 0.050000
vertex 8.375596 8.341766 0.050000
endloop
endfacet
facet normal 0.903936 -0.427668 0.000000
outer loop
vertex 8.376645 8.343984 0.000000
vertex 8.375596 8.341766 0.050000
vertex 8.375596 8.341766 0.000000
endloop
endfacet
facet normal 0.903936 -0.427668 0.000000
outer loop
vertex 8.376645 8.343984 0.050000
vertex 8.376645 8.343984 0.100000
vertex 8.375596 8.341766 0.100000
endloop
endfacet
facet normal 0.903936 -0.427668 0.000000
outer loop
vertex 8.376645 8.343984 0.050000
vertex 8.375596 8.341766 0.100000
vertex 8.375596 8.341766 0.050000
endloop
endfacet
facet normal 0.857784 -0.514010 0.000000
outer loop
vertex 8.375596 8.341766 0.050000
vertex 8.375596 8.341766 0.100000
vertex 8.374334 8.339662 0.100000
endloop
endfacet
facet normal 0.857570 -0.514367 0.000000
outer loop
vertex 8.375596 8.341766 0.050000
vertex 8.374334 8.339662 0.100000
vertex 8.374334 8.339662 0.050000
endloop
endfacet
facet normal 0.857784 -0.514010 0.000000
outer loop
vertex 8.375596 8.341766 0.000000
vertex 8.375596 8.341766 0.050000
vertex 8.374334 8.339662 0.050000
endloop
endfacet
facet normal 0.857570 -0.514367 0.000000
outer loop
vertex 8.375596 8.341766 0.000000
vertex 8.374334 8.339662 0.050000
vertex 8.374334 8.339662 0.000000
endloop
endfacet
facet normal 0.803023 -0.595948 0.000000
outer loop
vertex 8.374334 8.339662 0.000000
vertex 8.374334 8.339662 0.050000
vertex 8.372873 8.337692 0.050000
endloop
endfacet
facet normal 0.803256 -0.595634 0.000000
outer loop
vertex 8.374334 8.339662 0.000000
vertex 8.372873 8.337692 0.050000
vertex 8.372873 8.337692 0.000000
endloop
endfacet
facet normal 0.803023 -0.595948 0.000000
outer loop
vertex 8.374334 8.339662 0.050000
vertex 8.374334 8.339662 0.100000
vertex 8.372873 8.337692 0.100000
endloop
endfacet
facet normal 0.803256 -0.595634 0.000000
outer loop
vertex 8.374334 8.339662 0.050000
vertex 8.372873 8.337692 0.100000
vertex 8.372873 8.337692 0.050000
endloop
endfacet
facet normal 0.740884 -0.671633 0.000000
outer loop
vertex 8.372873 8.337692 0.050000
vertex 8.372873 8.337692 0.100000
vertex 8.371225 8.335874 0.100000
endloop
endfacet
facet normal 0.741126 -0.671366 0.000000
outer loop
vertex 8.372873 8.337692 0.050000
vertex 8.371225 8.335874 0.100000
vertex 8.371225 8.335874 0.050000
endloop
endfacet
facet normal 0.740884 -0.671633 0.000000
outer loop
vertex 8.372873 8.337692 0.000000
vertex 8.372873 8.337692 0.050000
vertex 8.371225 8.335874 0.050000
endloop
endfacet
facet normal 0.741126 -0.671366 0.000000
outer loop
vertex 8.372873 8.337692 0.000000
vertex 8.371225 8.335874 0.050000
vertex 8.371225 8.335874 0.000000
endloop
endfacet
facet normal 0.671404 -0.741091 0.000000
outer loop
vertex 8.371225 8.335874 0.000000
vertex 8.371225 8.335874 0.050000
vertex 8.369408 8.334227 0.050000
endloop
endfacet
facet normal 0.671404 -0.741091 0.000000
outer loop
vertex 8.371225 8.335874 0.000000
vertex 8.369408 8.334227 0.050000
vertex 8.369408 8.334227 0.000000
endloop
endfacet
facet normal 0.671404 -0.741091 0.000000
outer loop
vertex 8.371225 8.335874 0.050000
vertex 8.371225 8.335874 0.100000
vertex 8.369408 8.334227 0.100000
endloop
endfacet
facet normal 0.671404 -0.741091 0.000000
outer loop
vertex 8.371225 8.335874 0.050000
vertex 8.369408 8.334227 0.100000
vertex 8.369408 8.334227 0.050000
endloop
endfacet
facet normal 0.595590 -0.803289 0.000000
outer loop
vertex 8.369408 8.334227 0.050000
vertex 8.369408 8.334227 0.100000
vertex 8.367437 8.332766 0.100000
endloop
endfacet
facet normal 0.595823 -0.803116 0.000000
outer loop
vertex 8.369408 8.334227 0.050000
vertex 8.367437 8.332766 0.100000
vertex 8.367437 8.332766 0.050000
endloop
endfacet
facet normal 0.595590 -0.803289 0.000000
outer loop
vertex 8.369408 8.334227 0.000000
vertex 8.369408 8.334227 0.050000
vertex 8.367437 8.332766 0.050000
endloop
endfacet
facet normal 0.595823 -0.803116 0.000000
outer loop
vertex 8.369408 8.334227 0.000000
vertex 8.367437 8.332766 0.050000
vertex 8.367437 8.332766 0.000000
endloop
endfacet
facet normal 0.514281 -0.857621 0.000000
outer loop
vertex 8.367437 8.332766 0.000000
vertex 8.367437 8.332766 0.050000
vertex 8.365334 8.331504 0.050000
endloop
endfacet
facet normal 0.513995 -0.857793 -0.000030
outer loop
vertex 8.367437 8.332766 0.000000
vertex 8.365334 8.331504 0.050000
vertex 8.365334 8.331505 0.000000
endloop
endfacet
facet normal 0.513995 -0.857793 0.000000
outer loop
vertex 8.367437 8.332766 0.050000
vertex 8.367437 8.332766 0.100000
vertex 8.365334 8.331505 0.100000
endloop
endfacet
facet normal 0.514281 -0.857621 0.000030
outer loop
vertex 8.367437 8.332766 0.050000
vertex 8.365334 8.331505 0.100000
vertex 8.365334 8.331504 0.050000
endloop
endfacet
facet normal 0.427798 -0.903874 0.000030
outer loop
vertex 8.365334 8.331504 0.050000
vertex 8.365334 8.331505 0.100000
vertex 8.363115 8.330455 0.100000
endloop
endfacet
facet normal 0.427481 -0.904025 0.000000
outer loop
vertex 8.365334 8.331504 0.050000
vertex 8.363115 8.330455 0.100000
vertex 8.363115 8.330455 0.050000
endloop
endfacet
facet normal 0.427481 -0.904025 -0.000030
outer loop
vertex 8.365334 8.331505 0.000000
vertex 8.365334 8.331504 0.050000
vertex 8.363115 8.330455 0.050000
endloop
endfacet
facet normal 0.427798 -0.903874 0.000000
outer loop
vertex 8.365334 8.331505 0.000000
vertex 8.363115 8.330455 0.050000
vertex 8.363115 8.330455 0.000000
endloop
endfacet
facet normal 0.336928 -0.941531 0.000000
outer loop
vertex 8.363115 8.330455 0.000000
vertex 8.363115 8.330455 0.050000
vertex 8.360807 8.329629 0.050000
endloop
endfacet
facet normal 0.336928 -0.941531 0.000000
outer loop
vertex 8.363115 8.330455 0.000000
vertex 8.360807 8.329629 0.050000
vertex 8.360807 8.329629 0.000000
endloop
endfacet
facet normal 0.336928 -0.941531 0.000000
outer loop
vertex 8.363115 8.330455 0.050000
vertex 8.363115 8.330455 0.100000
vertex 8.360807 8.329629 0.100000
endloop
endfacet
facet normal 0.336928 -0.941531 0.000000
outer loop
vertex 8.363115 8.330455 0.050000
vertex 8.360807 8.329629 0.100000
vertex 8.360807 8.329629 0.050000
endloop
endfacet
facet normal 0.242993 -0.970028 0.000000
outer loop
vertex 8.360807 8.329629 0.050000
vertex 8.360807 8.329629 0.100000
vertex 8.358427 8.329033 0.100000
endloop
endfacet
facet normal 0.242878 -0.970057 0.000000
outer loop
vertex 8.360807 8.329629 0.050000
vertex 8.358427 8.329033 0.100000
vertex 8.358427 8.329033 0.050000
endloop
endfacet
facet normal 0.242993 -0.970028 0.000000
outer loop
vertex 8.360807 8.329629 0.000000
vertex 8.360807 8.329629 0.050000
vertex 8.358427 8.329033 0.050000
endloop
endfacet
facet normal 0.242878 -0.970057 0.000000
outer loop
vertex 8.360807 8.329629 0.000000
vertex 8.358427 8.329033 0.050000
vertex 8.358427 8.329033 0.000000
endloop
endfacet
facet normal 0.146605 -0.989195 0.000000
outer loop
vertex 8.358427 8.329033 0.000000
vertex 8.358427 8.329033 0.050000
vertex 8.356000 8.328673 0.050000
endloop
endfacet
facet normal 0.146464 -0.989216 0.000000
outer loop
vertex 8.358427 8.329033 0.000000
vertex 8.356000 8.328673 0.050000
vertex 8.356000 8.328673 0.000000
endloop
endfacet
facet normal 0.146605 -0.989195 0.000000
outer loop
vertex 8.358427 8.329033 0.050000
vertex 8.358427 8.329033 0.100000
vertex 8.356000 8.328673 0.100000
endloop
endfacet
facet normal 0.146464 -0.989216 0.000000
outer loop
vertex 8.358427 8.329033 0.050000
vertex 8.356000 8.328673 0.100000
vertex 8.356000 8.328673 0.050000
endloop
endfacet
facet normal 0.048968 -0.998800 0.000000
outer loop
vertex 8.356000 8.328673 0.050000
vertex 8.356000 8.328673 0.100000
vertex 8.353550 8.328553 0.100000
endloop
endfacet
facet normal 0.048992 -0.998799 0.000000
outer loop
vertex 8.356000 8.328673 0.050000
vertex 8.353550 8.328553 0.100000
vertex 8.353550 8.328553 0.050000
endloop
endfacet
facet normal 0.048968 -0.998800 0.000000
outer loop
vertex 8.356000 8.328673 0.000000
vertex 8.356000 8.328673 0.050000
vertex 8.353550 8.328553 0.050000
endloop
endfacet
facet normal 0.048992 -0.998799 0.000000
outer loop
vertex 8.356000 8.328673 0.000000
vertex 8.353550 8.328553 0.050000
vertex 8.353550 8.328553 0.000000
endloop
endfacet
facet normal -0.049016 -0.998798 0.000000
outer loop
vertex 8.353550 8.328553 0.000000
vertex 8.353550 8.328553 0.050000
vertex 8.351100 8.328673 0.050000
endloop
endfacet
facet normal -0.048968 -0.998800 0.000000
outer loop
vertex 8.353550 8.328553 0.000000
vertex 8.351100 8.328673 0.050000
vertex 8.351100 8.328673 0.000000
endloop
endfacet
facet normal -0.049016 -0.998798 0.000000
outer loop
vertex 8.353550 8.328553 0.050000
vertex 8.353550 8.328553 0.100000
vertex 8.351100 8.328673 0.100000
endloop
endfacet
facet normal -0.048968 -0.998800 0.000000
outer loop
vertex 8.353550 8.328553 0.050000
vertex 8.351100 8.328673 0.100000
vertex 8.351100 8.328673 0.050000
endloop
endfacet
facet normal -0.146605 -0.989195 0.000000
outer loop
vertex 8.351100 8.328673 0.050000
vertex 8.351100 8.328673 0.100000
vertex 8.348674 8.329033 0.100000
endloop
endfacet
facet normal -0.146605 -0.989195 0.000000
outer loop
vertex 8.351100 8.328673 0.050000
vertex 8.348674 8.329033 0.100000
vertex 8.348674 8.329033 0.050000
endloop
endfacet
facet normal -0.146605 -0.989195 0.000000
outer loop
vertex 8.351100 8.328673 0.000000
vertex 8.351100 8.328673 0.050000
vertex 8.348674 8.329033 0.050000
endloop
endfacet
facet normal -0.146605 -0.989195 0.000000
outer loop
vertex 8.351100 8.328673 0.000000
vertex 8.348674 8.329033 0.050000
vertex 8.348674 8.329033 0.000000
endloop
endfacet
facet normal -0.242993 -0.970028 0.000000
outer loop
vertex 8.348674 8.329033 0.000000
vertex 8.348674 8.329033 0.050000
vertex 8.346294 8.329629 0.050000
endloop
endfacet
facet normal -0.242993 -0.970028 0.000000
outer loop
vertex 8.348674 8.329033 0.000000
vertex 8.346294 8.329629 0.050000
vertex 8.346294 8.329629 0.000000
endloop
endfacet
facet normal -0.242993 -0.970028 0.000000
outer loop
vertex 8.348674 8.329033 0.050000
vertex 8.348674 8.329033 0.100000
vertex 8.346294 8.329629 0.100000
endloop
endfacet
facet normal -0.242993 -0.970028 0.000000
outer loop
vertex 8.348674 8.329033 0.050000
vertex 8.346294 8.329629 0.100000
vertex 8.346294 8.329629 0.050000
endloop
endfacet
facet normal -0.336656 -0.941628 0.000000
outer loop
vertex 8.346294 8.329629 0.050000
vertex 8.346294 8.329629 0.100000
vertex 8.343984 8.330456 0.100000
endloop
endfacet
facet normal -0.337118 -0.941462 0.000000
outer loop
vertex 8.346294 8.329629 0.050000
vertex 8.343984 8.330456 0.100000
vertex 8.343984 8.330456 0.050000
endloop
endfacet
facet normal -0.336656 -0.941628 0.000000
outer loop
vertex 8.346294 8.329629 0.000000
vertex 8.346294 8.329629 0.050000
vertex 8.343984 8.330456 0.050000
endloop
endfacet
facet normal -0.337118 -0.941462 0.000000
outer loop
vertex 8.346294 8.329629 0.000000
vertex 8.343984 8.330456 0.050000
vertex 8.343984 8.330456 0.000000
endloop
endfacet
facet normal -0.427163 -0.904175 0.000000
outer loop
vertex 8.343984 8.330456 0.000000
vertex 8.343984 8.330456 0.050000
vertex 8.341766 8.331504 0.050000
endloop
endfacet
facet normal -0.427856 -0.903847 0.000000
outer loop
vertex 8.343984 8.330456 0.000000
vertex 8.341766 8.331504 0.050000
vertex 8.341766 8.331505 0.000000
endloop
endfacet
facet normal -0.427481 -0.904025 0.000000
outer loop
vertex 8.343984 8.330456 0.050000
vertex 8.343984 8.330456 0.100000
vertex 8.341766 8.331505 0.100000
endloop
endfacet
facet normal -0.427539 -0.903997 0.000000
outer loop
vertex 8.343984 8.330456 0.050000
vertex 8.341766 8.331505 0.100000
vertex 8.341766 8.331504 0.050000
endloop
endfacet
facet normal -0.513567 -0.858050 0.000030
outer loop
vertex 8.341766 8.331504 0.050000
vertex 8.341766 8.331505 0.100000
vertex 8.339662 8.332766 0.100000
endloop
endfacet
facet normal -0.514496 -0.857493 0.000000
outer loop
vertex 8.341766 8.331504 0.050000
vertex 8.339662 8.332766 0.100000
vertex 8.339662 8.332766 0.050000
endloop
endfacet
facet normal -0.513853 -0.857878 -0.000030
outer loop
vertex 8.341766 8.331505 0.000000
vertex 8.341766 8.331504 0.050000
vertex 8.339662 8.332766 0.050000
endloop
endfacet
facet normal -0.514210 -0.857665 0.000000
outer loop
vertex 8.341766 8.331505 0.000000
vertex 8.339662 8.332766 0.050000
vertex 8.339662 8.332766 0.000000
endloop
endfacet
facet normal -0.595590 -0.803289 0.000000
outer loop
vertex 8.339662 8.332766 0.000000
vertex 8.339662 8.332766 0.050000
vertex 8.337692 8.334227 0.050000
endloop
endfacet
facet normal -0.596055 -0.802943 0.000000
outer loop
vertex 8.339662 8.332766 0.000000
vertex 8.337692 8.334227 0.050000
vertex 8.337692 8.334227 0.000000
endloop
endfacet
facet normal -0.595590 -0.803289 0.000000
outer loop
vertex 8.339662 8.332766 0.050000
vertex 8.339662 8.332766 0.100000
vertex 8.337692 8.334227 0.100000
endloop
endfacet
facet normal -0.596055 -0.802943 0.000000
outer loop
vertex 8.339662 8.332766 0.050000
vertex 8.337692 8.334227 0.100000
vertex 8.337692 8.334227 0.050000
endloop
endfacet
facet normal -0.670921 -0.741529 0.000000
outer loop
vertex 8.337692 8.334227 0.050000
vertex 8.337692 8.334227 0.100000
vertex 8.335874 8.335874 0.100000
endloop
endfacet
facet normal -0.671404 -0.741091 0.000000
outer loop
vertex 8.337692 8.334227 0.050000
vertex 8.335874 8.335874 0.100000
vertex 8.335874 8.335874 0.050000
endloop
endfacet
facet normal -0.670921 -0.741529 0.000000
outer loop
vertex 8.337692 8.334227 0.000000
vertex 8.337692 8.334227 0.050000
vertex 8.335874 8.335874 0.050000
endloop
endfacet
facet normal -0.671404 -0.741091 0.000000
outer loop
vertex 8.337692 8.334227 0.000000
vertex 8.335874 8.335874 0.050000
vertex 8.335874 8.335874 0.000000
endloop
endfacet
facet normal -0.741610 -0.670832 0.000000
outer loop
vertex 8.335874 8.335874 0.000000
vertex 8.335874 8.335874 0.050000
vertex 8.334227 8.337692 0.050000
endloop
endfacet
facet normal -0.740884 -0.671633 0.000000
outer loop
vertex 8.335874 8.335874 0.000000
vertex 8.334227 8.337692 0.050000
vertex 8.334227 8.337692 0.000000
endloop
endfacet
facet normal -0.741609 -0.670832 0.000000
outer loop
vertex 8.335874 8.335874 0.050000
vertex 8.335874 8.335874 0.100000
vertex 8.334227 8.337692 0.100000
endloop
endfacet
facet normal -0.740884 -0.671633 0.000000
outer loop
vertex 8.335874 8.335874 0.050000
vertex 8.334227 8.337692 0.100000
vertex 8.334227 8.337692 0.050000
endloop
endfacet
facet normal -0.803256 -0.595634 0.000000
outer loop
vertex 8.334227 8.337692 0.050000
vertex 8.334227 8.337692 0.100000
vertex 8.332766 8.339662 0.100000
endloop
endfacet
facet normal -0.803161 -0.595762 -0.000015
outer loop
vertex 8.334227 8.337692 0.050000
vertex 8.332766 8.339662 0.100000
vertex 8.332766 8.339663 0.050000
endloop
endfacet
facet normal -0.803394 -0.595448 0.000000
outer loop
vertex 8.334227 8.337692 0.000000
vertex 8.334227 8.337692 0.050000
vertex 8.332766 8.339663 0.050000
endloop
endfacet
facet normal -0.803023 -0.595948 0.000015
outer loop
vertex 8.334227 8.337692 0.000000
vertex 8.332766 8.339663 0.050000
vertex 8.332766 8.339662 0.000000
endloop
endfacet
facet normal -0.857467 -0.514539 0.000030
outer loop
vertex 8.332766 8.339662 0.000000
vertex 8.332766 8.339663 0.050000
vertex 8.331504 8.341766 0.050000
endloop
endfacet
facet normal -0.858315 -0.513123 -0.000045
outer loop
vertex 8.332766 8.339662 0.000000
vertex 8.331504 8.341766 0.050000
vertex 8.331505 8.341767 0.000000
endloop
endfacet
facet normal -0.857887 -0.513839 -0.000015
outer loop
vertex 8.332766 8.339663 0.050000
vertex 8.332766 8.339662 0.100000
vertex 8.331505 8.341767 0.100000
endloop
endfacet
facet normal -0.857896 -0.513824 0.000030
outer loop
vertex 8.332766 8.339663 0.050000
vertex 8.331505 8.341767 0.100000
vertex 8.331504 8.341766 0.050000
endloop
endfacet
facet normal -0.903488 -0.428613 0.000030
outer loop
vertex 8.331504 8.341766 0.050000
vertex 8.331505 8.341767 0.100000
vertex 8.330455 8.343984 0.100000
endloop
endfacet
facet normal -0.903936 -0.427668 0.000000
outer loop
vertex 8.331504 8.341766 0.050000
vertex 8.330455 8.343984 0.100000
vertex 8.330455 8.343984 0.050000
endloop
endfacet
facet normal -0.903936 -0.427669 -0.000030
outer loop
vertex 8.331505 8.341767 0.000000
vertex 8.331504 8.341766 0.050000
vertex 8.330455 8.343984 0.050000
endloop
endfacet
facet normal -0.903488 -0.428613 0.000000
outer loop
vertex 8.331505 8.341767 0.000000
vertex 8.330455 8.343984 0.050000
vertex 8.330455 8.343984 0.000000
endloop
endfacet
facet normal -0.941632 -0.336644 0.000000
outer loop
vertex 8.330455 8.343984 0.000000
vertex 8.330455 8.343984 0.050000
vertex 8.329629 8.346294 0.050000
endloop
endfacet
facet normal -0.941786 -0.336213 0.000000
outer loop
vertex 8.330455 8.343984 0.000000
vertex 8.329629 8.346294 0.050000
vertex 8.329629 8.346294 0.000000
endloop
endfacet
facet normal -0.941632 -0.336644 0.000000
outer loop
vertex 8.330455 8.343984 0.050000
vertex 8.330455 8.343984 0.100000
vertex 8.329629 8.346294 0.100000
endloop
endfacet
facet normal -0.941786 -0.336213 0.000000
outer loop
vertex 8.330455 8.343984 0.050000
vertex 8.329629 8.346294 0.100000
vertex 8.329629 8.346294 0.050000
endloop
endfacet
facet normal -0.969913 -0.243450 0.000000
outer loop
vertex 8.329629 8.346294 0.050000
vertex 8.329629 8.346294 0.100000
vertex 8.329033 8.348674 0.100000
endloop
endfacet
facet normal -0.970120 -0.242627 0.000008
outer loop
vertex 8.329629 8.346294 0.050000
vertex 8.329033 8.348674 0.100000
vertex 8.329033 8.348673 0.050000
endloop
endfacet
facet normal -0.969890 -0.243542 0.000000
outer loop
vertex 8.329629 8.346294 0.000000
vertex 8.329629 8.346294 0.050000
vertex 8.329033 8.348673 0.050000
endloop
endfacet
facet normal -0.970142 -0.242536 -0.000008
outer loop
vertex 8.329629 8.346294 0.000000
vertex 8.329033 8.348673 0.050000
vertex 8.329033 8.348674 0.000000
endloop
endfacet
facet normal -0.989248 -0.146249 -0.000008
outer loop
vertex 8.329033 8.348674 0.000000
vertex 8.329033 8.348673 0.050000
vertex 8.328673 8.351100 0.050000
endloop
endfacet
facet normal -0.989098 -0.147257 0.000000
outer loop
vertex 8.329033 8.348674 0.000000
vertex 8.328673 8.351100 0.050000
vertex 8.328673 8.351100 0.000000
endloop
endfacet
facet normal -0.989239 -0.146306 0.000008
outer loop
vertex 8.329033 8.348673 0.050000
vertex 8.329033 8.348674 0.100000
vertex 8.328673 8.351100 0.100000
endloop
endfacet
facet normal -0.989107 -0.147200 0.000000
outer loop
vertex 8.329033 8.348673 0.050000
vertex 8.328673 8.351100 0.100000
vertex 8.328673 8.351100 0.050000
endloop
endfacet
facet normal -0.998818 -0.048600 0.000000
outer loop
vertex 8.328673 8.351100 0.050000
vertex 8.328673 8.351100 0.100000
vertex 8.328553 8.353550 0.100000
endloop
endfacet
facet normal -0.998795 -0.049084 0.000000
outer loop
vertex 8.328673 8.351100 0.050000
vertex 8.328553 8.353550 0.100000
vertex 8.328553 8.353550 0.050000
endloop
endfacet
facet normal -0.998818 -0.048600 0.000000
outer loop
vertex 8.328673 8.351100 0.000000
vertex 8.328673 8.351100 0.050000
vertex 8.328553 8.353550 0.050000
endloop
endfacet
facet normal -0.998795 -0.049084 0.000000
outer loop
vertex 8.328673 8.351100 0.000000
vertex 8.328553 8.353550 0.050000
vertex 8.328553 8.353550 0.000000
endloop
endfacet
facet normal -0.998794 0.049103 0.000000
outer loop
vertex 8.328553 8.353550 0.000000
vertex 8.328553 8.353550 0.050000
vertex 8.328673 8.355999 0.050000
endloop
endfacet
facet normal -0.998817 0.048618 0.000000
outer loop
vertex 8.328553 8.353550 0.000000
vertex 8.328673 8.355999 0.050000
vertex 8.328673 8.355999 0.000000
endloop
endfacet
facet normal -0.998794 0.049103 0.000000
outer loop
vertex 8.328553 8.353550 0.050000
vertex 8.328553 8.353550 0.100000
vertex 8.328673 8.355999 0.100000
endloop
endfacet
facet normal -0.998817 0.048618 0.000000
outer loop
vertex 8.328553 8.353550 0.050000
vertex 8.328673 8.355999 0.100000
vertex 8.328673 8.355999 0.050000
endloop
endfacet
facet normal -0.989115 0.147144 0.000000
outer loop
vertex 8.328673 8.355999 0.050000
vertex 8.328673 8.355999 0.100000
vertex 8.329033 8.358427 0.100000
endloop
endfacet
facet normal -0.989256 0.146193 0.000000
outer loop
vertex 8.328673 8.355999 0.050000
vertex 8.329033 8.358427 0.100000
vertex 8.329033 8.358427 0.050000
endloop
endfacet
facet normal -0.989115 0.147143 0.000000
outer loop
vertex 8.328673 8.355999 0.000000
vertex 8.328673 8.355999 0.050000
vertex 8.329033 8.358427 0.050000
endloop
endfacet
facet normal -0.989256 0.146193 0.000000
outer loop
vertex 8.328673 8.355999 0.000000
vertex 8.329033 8.358427 0.050000
vertex 8.329033 8.358427 0.000000
endloop
endfacet
facet normal -0.970120 0.242627 0.000000
outer loop
vertex 8.329033 8.358427 0.000000
vertex 8.329033 8.358427 0.050000
vertex 8.329629 8.360806 0.050000
endloop
endfacet
facet normal -0.969936 0.243358 0.000008
outer loop
vertex 8.329033 8.358427 0.000000
vertex 8.329629 8.360806 0.050000
vertex 8.329629 8.360807 0.000000
endloop
endfacet
facet normal -0.970165 0.242444 0.000000
outer loop
vertex 8.329033 8.358427 0.050000
vertex 8.329033 8.358427 0.100000
vertex 8.329629 8.360807 0.100000
endloop
endfacet
facet normal -0.969890 0.243542 -0.000008
outer loop
vertex 8.329033 8.358427 0.050000
vertex 8.329629 8.360807 0.100000
vertex 8.329629 8.360806 0.050000
endloop
endfacet
facet normal -0.941654 0.336583 -0.000008
outer loop
vertex 8.329629 8.360806 0.050000
vertex 8.329629 8.360807 0.100000
vertex 8.330456 8.363115 0.100000
endloop
endfacet
facet normal -0.941279 0.337629 0.000000
outer loop
vertex 8.329629 8.360806 0.050000
vertex 8.330456 8.363115 0.100000
vertex 8.330456 8.363115 0.050000
endloop
endfacet
facet normal -0.941742 0.336336 0.000008
outer loop
vertex 8.329629 8.360807 0.000000
vertex 8.329629 8.360806 0.050000
vertex 8.330456 8.363115 0.050000
endloop
endfacet
facet normal -0.941191 0.337876 0.000000
outer loop
vertex 8.329629 8.360807 0.000000
vertex 8.330456 8.363115 0.050000
vertex 8.330456 8.363115 0.000000
endloop
endfacet
facet normal -0.904007 0.427518 0.000000
outer loop
vertex 8.330456 8.363115 0.000000
vertex 8.330456 8.363115 0.050000
vertex 8.331504 8.365334 0.050000
endloop
endfacet
facet normal -0.904007 0.427518 -0.000017
outer loop
vertex 8.330456 8.363115 0.000000
vertex 8.331504 8.365334 0.050000
vertex 8.331505 8.365334 0.000000
endloop
endfacet
facet normal -0.904007 0.427518 0.000000
outer loop
vertex 8.330456 8.363115 0.050000
vertex 8.330456 8.363115 0.100000
vertex 8.331505 8.365334 0.100000
endloop
endfacet
facet normal -0.904007 0.427518 0.000017
outer loop
vertex 8.330456 8.363115 0.050000
vertex 8.331505 8.365334 0.100000
vertex 8.331504 8.365334 0.050000
endloop
endfacet
facet normal -0.858110 0.513466 0.000015
outer loop
vertex 8.331504 8.365334 0.050000
vertex 8.331505 8.365334 0.100000
vertex 8.332766 8.367437 0.100000
endloop
endfacet
facet normal -0.857467 0.514539 0.000000
outer loop
vertex 8.331504 8.365334 0.050000
vertex 8.332766 8.367437 0.100000
vertex 8.332766 8.367437 0.050000
endloop
endfacet
facet normal -0.857896 0.513824 -0.000015
outer loop
vertex 8.331505 8.365334 0.000000
vertex 8.331504 8.365334 0.050000
vertex 8.332766 8.367437 0.050000
endloop
endfacet
facet normal -0.857682 0.514181 0.000000
outer loop
vertex 8.331505 8.365334 0.000000
vertex 8.332766 8.367437 0.050000
vertex 8.332766 8.367437 0.000000
endloop
endfacet
facet normal -0.803161 0.595762 0.000000
outer loop
vertex 8.332766 8.367437 0.000000
vertex 8.332766 8.367437 0.050000
vertex 8.334227 8.369408 0.050000
endloop
endfacet
facet normal -0.803394 0.595448 0.000000
outer loop
vertex 8.332766 8.367437 0.000000
vertex 8.334227 8.369408 0.050000
vertex 8.334227 8.369408 0.000000
endloop
endfacet
facet normal -0.803161 0.595762 0.000000
outer loop
vertex 8.332766 8.367437 0.050000
vertex 8.332766 8.367437 0.100000
vertex 8.334227 8.369408 0.100000
endloop
endfacet
facet normal -0.803394 0.595448 0.000000
outer loop
vertex 8.332766 8.367437 0.050000
vertex 8.334227 8.369408 0.100000
vertex 8.334227 8.369408 0.050000
endloop
endfacet
facet normal -0.740709 0.671826 0.000000
outer loop
vertex 8.334227 8.369408 0.050000
vertex 8.334227 8.369408 0.100000
vertex 8.335874 8.371225 0.100000
endloop
endfacet
facet normal -0.741434 0.671025 0.000000
outer loop
vertex 8.334227 8.369408 0.050000
vertex 8.335874 8.371225 0.100000
vertex 8.335874 8.371225 0.050000
endloop
endfacet
facet normal -0.740709 0.671826 0.000000
outer loop
vertex 8.334227 8.369408 0.000000
vertex 8.334227 8.369408 0.050000
vertex 8.335874 8.371225 0.050000
endloop
endfacet
facet normal -0.741434 0.671025 0.000000
outer loop
vertex 8.334227 8.369408 0.000000
vertex 8.335874 8.371225 0.050000
vertex 8.335874 8.371225 0.000000
endloop
endfacet
facet normal -0.671191 0.741285 0.000000
outer loop
vertex 8.335874 8.371225 0.000000
vertex 8.335874 8.371225 0.050000
vertex 8.337692 8.372871 0.050000
endloop
endfacet
facet normal -0.671134 0.741336 0.000030
outer loop
vertex 8.335874 8.371225 0.000000
vertex 8.337692 8.372871 0.050000
vertex 8.337692 8.372873 0.000000
endloop
endfacet
facet normal -0.671618 0.740898 0.000000
outer loop
vertex 8.335874 8.371225 0.050000
vertex 8.335874 8.371225 0.100000
vertex 8.337692 8.372873 0.100000
endloop
endfacet
facet normal -0.670707 0.741722 -0.000030
outer loop
vertex 8.335874 8.371225 0.050000
vertex 8.337692 8.372873 0.100000
vertex 8.337692 8.372871 0.050000
endloop
endfacet
facet normal -0.596055 0.802943 -0.000030
outer loop
vertex 8.337692 8.372871 0.050000
vertex 8.337692 8.372873 0.100000
vertex 8.339662 8.374334 0.100000
endloop
endfacet
facet normal -0.595859 0.803089 -0.000020
outer loop
vertex 8.337692 8.372871 0.050000
vertex 8.339662 8.374334 0.100000
vertex 8.339663 8.374334 0.050000
endloop
endfacet
facet normal -0.596324 0.802744 0.000030
outer loop
vertex 8.337692 8.372873 0.000000
vertex 8.337692 8.372871 0.050000
vertex 8.339663 8.374334 0.050000
endloop
endfacet
facet normal -0.595590 0.803289 0.000020
outer loop
vertex 8.337692 8.372873 0.000000
vertex 8.339663 8.374334 0.050000
vertex 8.339662 8.374334 0.000000
endloop
endfacet
facet normal -0.514710 0.857364 0.000000
outer loop
vertex 8.339662 8.374334 0.000000
vertex 8.339663 8.374334 0.050000
vertex 8.341766 8.375596 0.050000
endloop
endfacet
facet normal -0.513853 0.857878 -0.000009
outer loop
vertex 8.339662 8.374334 0.000000
vertex 8.341766 8.375596 0.050000
vertex 8.341767 8.375596 0.000000
endloop
endfacet
facet normal -0.513853 0.857878 0.000000
outer loop
vertex 8.339663 8.374334 0.050000
vertex 8.339662 8.374334 0.100000
vertex 8.341767 8.375596 0.100000
endloop
endfacet
facet normal -0.514710 0.857364 0.000009
outer loop
vertex 8.339663 8.374334 0.050000
vertex 8.341767 8.375596 0.100000
vertex 8.341766 8.375596 0.050000
endloop
endfacet
facet normal -0.427539 0.903997 0.000030
outer loop
vertex 8.341766 8.375596 0.050000
vertex 8.341767 8.375596 0.100000
vertex 8.343984 8.376644 0.100000
endloop
endfacet
facet normal -0.427163 0.904175 0.000000
outer loop
vertex 8.341766 8.375596 0.050000
vertex 8.343984 8.376644 0.100000
vertex 8.343984 8.376644 0.050000
endloop
endfacet
facet normal -0.427163 0.904175 -0.000030
outer loop
vertex 8.341767 8.375596 0.000000
vertex 8.341766 8.375596 0.050000
vertex 8.343984 8.376644 0.050000
endloop
endfacet
facet normal -0.427539 0.903997 0.000000
outer loop
vertex 8.341767 8.375596 0.000000
vertex 8.343984 8.376644 0.050000
vertex 8.343984 8.376644 0.000000
endloop
endfacet
facet normal 0.000000 0.000000 1.000000
outer loop
vertex 8.358428 8.378070 0.100000
vertex 8.356000 8.378428 0.100000
vertex 8.353551 8.353551 0.100000
endloop
endfacet
facet normal 0.000000 0.000000 1.000000
outer loop
vertex 8.358428 8.378070 0.100000
vertex 8.353551 8.353551 0.100000
vertex 8.360807 8.377470 0.100000
endloop
endfacet
facet normal 0.000000 0.000000 1.000000
outer loop
vertex 8.353550 8.378550 0.100000
vertex 8.351100 8.378428 0.100000
vertex 8.353551 8.353551 0.100000
endloop
endfacet
facet normal 0.000000 0.000000 1.000000
outer loop
vertex 8.353550 8.378550 0.100000
vertex 8.353551 8.353551 0.100000
vertex 8.356000 8.378428 0.100000
endloop
endfacet
facet normal 0.000000 0.000000 1.000000
outer loop
vertex 8.348673 8.378070 0.100000
vertex 8.346294 8.377470 0.100000
vertex 8.353551 8.353551 0.100000
endloop
endfacet
facet normal 0.000000 0.000000 1.000000
outer loop
vertex 8.348673 8.378070 0.100000
vertex 8.353551 8.353551 0.100000
vertex 8.351100 8.378428 0.100000
endloop
endfacet
facet normal 0.000008 0.000000 1.000000
outer loop
vertex 8.343983 8.376646 0.100000
vertex 8.341766 8.375596 0.100000
vertex 8.353551 8.353551 0.100000
endloop
endfacet
facet normal -0.000008 0.000000 1.000000
outer loop
vertex 8.343983 8.376646 0.100000
vertex 8.353551 8.353551 0.100000
vertex 8.346294 8.377470 0.100000
endloop
endfacet
facet normal 0.000000 0.000000 1.000000
outer loop
vertex 8.339661 8.374336 0.100000
vertex 8.337692 8.372873 0.100000
vertex 8.353551 8.353551 0.100000
endloop
endfacet
facet normal 0.000000 0.000000 1.000000
outer loop
vertex 8.339661 8.374336 0.100000
vertex 8.353551 8.353551 0.100000
vertex 8.341766 8.375596 0.100000
endloop
endfacet
facet normal 0.000004 0.000000 1.000000
outer loop
vertex 8.335873 8.371227 0.100000
vertex 8.334227 8.369408 0.100000
vertex 8.353551 8.353551 0.100000
endloop
endfacet
facet normal 0.000000 0.000000 1.000000
outer loop
vertex 8.335873 8.371227 0.100000
vertex 8.353551 8.353551 0.100000
vertex 8.337692 8.372873 0.100000
endloop
endfacet
facet normal 0.000000 0.000000 1.000000
outer loop
vertex 8.332763 8.367437 0.100000
vertex 8.331505 8.365334 0.100000
vertex 8.353551 8.353551 0.100000
endloop
endfacet
facet normal -0.000004 0.000000 1.000000
outer loop
vertex 8.332763 8.367437 0.100000
vertex 8.353551 8.353551 0.100000
vertex 8.334227 8.369408 0.100000
endloop
endfacet
facet normal 0.000000 0.000000 1.000000
outer loop
vertex 8.330453 8.363116 0.100000
vertex 8.329629 8.360807 0.100000
vertex 8.353551 8.353551 0.100000
endloop
endfacet
facet normal 0.000000 0.000000 1.000000
outer loop
vertex 8.330453 8.363116 0.100000
vertex 8.353551 8.353551 0.100000
vertex 8.331505 8.365334 0.100000
endloop
endfacet
facet normal 0.000000 0.000000 1.000000
outer loop
vertex 8.329031 8.358427 0.100000
vertex 8.328673 8.355999 0.100000
vertex 8.353551 8.353551 0.100000
endloop
endfacet
facet normal 0.000000 0.000000 1.000000
outer loop
vertex 8.329031 8.358427 0.100000
vertex 8.353551 8.353551 0.100000
vertex 8.329629 8.360807 0.100000
endloop
endfacet
facet normal 0.000000 0.000000 1.000000
outer loop
vertex 8.328550 8.353550 0.100000
vertex 8.328673 8.351100 0.100000
vertex 8.353551 8.353551 0.100000
endloop
endfacet
facet normal 0.000000 0.000000 1.000000
outer loop
vertex 8.328550 8.353550 0.100000
vertex 8.353551 8.353551 0.100000
vertex 8.328673 8.355999 0.100000
endloop
endfacet
facet normal 0.000000 0.000000 1.000000
outer loop
vertex 8.329031 8.348673 0.100000
vertex 8.329629 8.346294 0.100000
vertex 8.353551 8.353551 0.100000
endloop
endfacet
facet normal 0.000000 0.000000 1.000000
outer loop
vertex 8.329031 8.348673 0.100000
vertex 8.353551 8.353551 0.100000
vertex 8.328673 8.351100 0.100000
endloop
endfacet
facet normal -0.000004 0.000000 1.000000
outer loop
vertex 8.330453 8.343983 0.100000
vertex 8.331504 8.341766 0.100000
vertex 8.353551 8.353551 0.100000
endloop
endfacet
facet normal 0.000002 0.000000 1.000000
outer loop
vertex 8.330453 8.343983 0.100000
vertex 8.353551 8.353551 0.100000
vertex 8.329629 8.346294 0.100000
endloop
endfacet
facet normal 0.000000 0.000000 1.000000
outer loop
vertex 8.332763 8.339661 0.100000
vertex 8.334227 8.337692 0.100000
vertex 8.353551 8.353551 0.100000
endloop
endfacet
facet normal 0.000004 0.000000 1.000000
outer loop
vertex 8.332763 8.339661 0.100000
vertex 8.353551 8.353551 0.100000
vertex 8.331504 8.341766 0.100000
endloop
endfacet
facet normal 0.000000 0.000000 1.000000
outer loop
vertex 8.335873 8.335873 0.100000
vertex 8.337692 8.334227 0.100000
vertex 8.353551 8.353551 0.100000
endloop
endfacet
facet normal 0.000000 0.000000 1.000000
outer loop
vertex 8.335873 8.335873 0.100000
vertex 8.353551 8.353551 0.100000
vertex 8.334227 8.337692 0.100000
endloop
endfacet
facet normal 0.000000 0.000000 1.000000
outer loop
vertex 8.339661 8.332763 0.100000
vertex 8.341767 8.331505 0.100000
vertex 8.353551 8.353551 0.100000
endloop
endfacet
facet normal 0.000000 0.000000 1.000000
outer loop
vertex 8.339661 8.332763 0.100000
vertex 8.353551 8.353551 0.100000
vertex 8.337692 8.334227 0.100000
endloop
endfacet
facet normal -0.000008 0.000000 1.000000
outer loop
vertex 8.343983 8.330453 0.100000
vertex 8.346294 8.329629 0.100000
vertex 8.353551 8.353551 0.100000
endloop
endfacet
facet normal 0.000000 0.000000 1.000000
outer loop
vertex 8.343983 8.330453 0.100000
vertex 8.353551 8.353551 0.100000
vertex 8.341767 8.331505 0.100000
endloop
endfacet
facet normal 0.000000 0.000000 1.000000
outer loop
vertex 8.348673 8.329032 0.100000
vertex 8.351100 8.328673 0.100000
vertex 8.353551 8.353551 0.100000
endloop
endfacet
facet normal 0.000008 0.000000 1.000000
outer loop
vertex 8.348673 8.329032 0.100000
vertex 8.353551 8.353551 0.100000
vertex 8.346294 8.329629 0.100000
endloop
endfacet
facet normal 0.000000 0.000000 1.000000
outer loop
vertex 8.353550 8.328550 0.100000
vertex 8.356000 8.328673 0.100000
vertex 8.353551 8.353551 0.100000
endloop
endfacet
facet normal 0.000000 0.000000 1.000000
outer loop
vertex 8.353550 8.328550 0.100000
vertex 8.353551 8.353551 0.100000
vertex 8.351100 8.328673 0.100000
endloop
endfacet
facet normal -0.000008 0.000000 1.000000
outer loop
vertex 8.358428 8.329032 0.100000
vertex 8.360807 8.329629 0.100000
vertex 8.353551 8.353551 0.100000
endloop
endfacet
facet normal 0.000000 0.000000 1.000000
outer loop
vertex 8.358428 8.329032 0.100000
vertex 8.353551 8.353551 0.100000
vertex 8.356000 8.328673 0.100000
endloop
endfacet
facet normal 0.000000 0.000000 1.000000
outer loop
vertex 8.363117 8.330453 0.100000
vertex 8.365334 8.331504 0.100000
vertex 8.353551 8.353551 0.100000
endloop
endfacet
facet normal 0.000008 0.000000 1.000000
outer loop
vertex 8.363117 8.330453 0.100000
vertex 8.353551 8.353551 0.100000
vertex 8.360807 8.329629 0.100000
endloop
endfacet
facet normal 0.000000 0.000000 1.000000
outer loop
vertex 8.367439 8.332763 0.100000
vertex 8.369408 8.334227 0.100000
vertex 8.353551 8.353551 0.100000
endloop
endfacet
facet normal 0.000000 0.000000 1.000000
outer loop
vertex 8.367439 8.332763 0.100000
vertex 8.353551 8.353551 0.100000
vertex 8.365334 8.331504 0.100000
endloop
endfacet
facet normal 0.000000 0.000000 1.000000
outer loop
vertex 8.371227 8.335873 0.100000
vertex 8.372873 8.337692 0.100000
vertex 8.353551 8.353551 0.100000
endloop
endfacet
facet normal 0.000000 0.000000 1.000000
outer loop
vertex 8.371227 8.335873 0.100000
vertex 8.353551 8.353551 0.100000
vertex 8.369408 8.334227 0.100000
endloop
endfacet
facet normal 0.000000 0.000000 1.000000
outer loop
vertex 8.374336 8.339661 0.100000
vertex 8.375596 8.341767 0.100000
vertex 8.353551 8.353551 0.100000
endloop
endfacet
facet normal 0.000000 0.000000 1.000000
outer loop
vertex 8.374336 8.339661 0.100000
vertex 8.353551 8.353551 0.100000
vertex 8.372873 8.337692 0.100000
endloop
endfacet
facet normal -0.000002 0.000000 1.000000
outer loop
vertex 8.376647 8.343983 0.100000
vertex 8.377471 8.346294 0.100000
vertex 8.353551 8.353551 0.100000
endloop
endfacet
facet normal 0.000000 0.000000 1.000000
outer loop
vertex 8.376647 8.343983 0.100000
vertex 8.353551 8.353551 0.100000
vertex 8.375596 8.341767 0.100000
endloop
endfacet
facet normal 0.000000 0.000000 1.000000
outer loop
vertex 8.378070 8.348673 0.100000
vertex 8.378428 8.351100 0.100000
vertex 8.353551 8.353551 0.100000
endloop
endfacet
facet normal 0.000000 0.000000 1.000000
outer loop
vertex 8.378070 8.348673 0.100000
vertex 8.353551 8.353551 0.100000
vertex 8.377471 8.346294 0.100000
endloop
endfacet
facet normal 0.000000 0.000000 1.000000
outer loop
vertex 8.378550 8.353550 0.100000
vertex 8.378428 8.355999 0.100000
vertex 8.353551 8.353551 0.100000
endloop
endfacet
facet normal 0.000000 0.000000 1.000000
outer loop
vertex 8.378550 8.353550 0.100000
vertex 8.353551 8.353551 0.100000
vertex 8.378428 8.351100 0.100000
endloop
endfacet
facet normal 0.000000 0.000000 1.000000
outer loop
vertex 8.378070 8.358427 0.100000
vertex 8.377471 8.360807 0.100000
vertex 8.353551 8.353551 0.100000
endloop
endfacet
facet normal 0.000000 0.000000 1.000000
outer loop
vertex 8.378070 8.358427 0.100000
vertex 8.353551 8.353551 0.100000
vertex 8.378428 8.355999 0.100000
endloop
endfacet
facet normal 0.000000 0.000000 1.000000
outer loop
vertex 8.376647 8.363116 0.100000
vertex 8.375596 8.365334 0.100000
vertex 8.353551 8.353551 0.100000
endloop
endfacet
facet normal 0.000000 0.000000 1.000000
outer loop
vertex 8.376647 8.363116 0.100000
vertex 8.353551 8.353551 0.100000
vertex 8.377471 8.360807 0.100000
endloop
endfacet
facet normal 0.000004 0.000000 1.000000
outer loop
vertex 8.374336 8.367437 0.100000
vertex 8.372873 8.369408 0.100000
vertex 8.353551 8.353551 0.100000
endloop
endfacet
facet normal 0.000000 0.000000 1.000000
outer loop
vertex 8.374336 8.367437 0.100000
vertex 8.353551 8.353551 0.100000
vertex 8.375596 8.365334 0.100000
endloop
endfacet
facet normal 0.000000 0.000000 1.000000
outer loop
vertex 8.371227 8.371227 0.100000
vertex 8.369408 8.372873 0.100000
vertex 8.353551 8.353551 0.100000
endloop
endfacet
facet normal -0.000004 0.000000 1.000000
outer loop
vertex 8.371227 8.371227 0.100000
vertex 8.353551 8.353551 0.100000
vertex 8.372873 8.369408 0.100000
endloop
endfacet
facet normal 0.000000 0.000000 1.000000
outer loop
vertex 8.367439 8.374336 0.100000
vertex 8.365334 8.375596 0.100000
vertex 8.353551 8.353551 0.100000
endloop
endfacet
facet normal 0.000000 0.000000 1.000000
outer loop
vertex 8.367439 8.374336 0.100000
vertex 8.353551 8.353551 0.100000
vertex 8.369408 8.372873 0.100000
endloop
endfacet
facet normal 0.000008 0.000000 1.000000
outer loop
vertex 8.363117 8.376646 0.100000
vertex 8.360807 8.377470 0.100000
vertex 8.353551 8.353551 0.100000
endloop
endfacet
facet normal -0.000008 0.000000 1.000000
outer loop
vertex 8.363117 8.376646 0.100000
vertex 8.353551 8.353551 0.100000
vertex 8.365334 8.375596 0.100000
endloop
endfacet
facet normal -0.336774 0.941586 0.000000
outer loop
vertex 8.343984 8.376644 0.000000
vertex 8.343984 8.376644 0.050000
vertex 8.346294 8.377470 0.050000
endloop
endfacet
facet normal -0.336312 0.941751 0.000000
outer loop
vertex 8.343984 8.376644 0.000000
vertex 8.346294 8.377470 0.050000
vertex 8.346294 8.377470 0.000000
endloop
endfacet
facet normal -0.336774 0.941586 0.000000
outer loop
vertex 8.343984 8.376644 0.050000
vertex 8.343984 8.376644 0.100000
vertex 8.346294 8.377470 0.100000
endloop
endfacet
facet normal -0.336312 0.941751 0.000000
outer loop
vertex 8.343984 8.376644 0.050000
vertex 8.346294 8.377470 0.100000
vertex 8.346294 8.377470 0.050000
endloop
endfacet
facet normal -0.243359 0.969936 0.000000
outer loop
vertex 8.346294 8.377470 0.050000
vertex 8.346294 8.377470 0.100000
vertex 8.348674 8.378067 0.100000
endloop
endfacet
facet normal -0.243588 0.969879 -0.000013
outer loop
vertex 8.346294 8.377470 0.050000
vertex 8.348674 8.378067 0.100000
vertex 8.348673 8.378067 0.050000
endloop
endfacet
facet normal -0.243474 0.969908 0.000000
outer loop
vertex 8.346294 8.377470 0.000000
vertex 8.346294 8.377470 0.050000
vertex 8.348673 8.378067 0.050000
endloop
endfacet
facet normal -0.243474 0.969908 0.000013
outer loop
vertex 8.346294 8.377470 0.000000
vertex 8.348673 8.378067 0.050000
vertex 8.348674 8.378067 0.000000
endloop
endfacet
facet normal -0.146844 0.989160 0.000030
outer loop
vertex 8.348674 8.378067 0.000000
vertex 8.348673 8.378067 0.050000
vertex 8.351100 8.378428 0.050000
endloop
endfacet
facet normal -0.146986 0.989139 0.000000
outer loop
vertex 8.348674 8.378067 0.000000
vertex 8.351100 8.378428 0.050000
vertex 8.351100 8.378428 0.000000
endloop
endfacet
facet normal -0.146986 0.989139 -0.000030
outer loop
vertex 8.348673 8.378067 0.050000
vertex 8.348674 8.378067 0.100000
vertex 8.351100 8.378428 0.100000
endloop
endfacet
facet normal -0.146844 0.989160 0.000000
outer loop
vertex 8.348673 8.378067 0.050000
vertex 8.351100 8.378428 0.100000
vertex 8.351100 8.378428 0.050000
endloop
endfacet
facet normal -0.048968 0.998800 0.000000
outer loop
vertex 8.351100 8.378428 0.050000
vertex 8.351100 8.378428 0.100000
vertex 8.353550 8.378548 0.100000
endloop
endfacet
facet normal -0.049016 0.998798 0.000000
outer loop
vertex 8.351100 8.378428 0.050000
vertex 8.353550 8.378548 0.100000
vertex 8.353550 8.378548 0.050000
endloop
endfacet
facet normal -0.048968 0.998800 0.000000
outer loop
vertex 8.351100 8.378428 0.000000
vertex 8.351100 8.378428 0.050000
vertex 8.353550 8.378548 0.050000
endloop
endfacet
facet normal -0.049016 0.998798 0.000000
outer loop
vertex 8.351100 8.378428 0.000000
vertex 8.353550 8.378548 0.050000
vertex 8.353550 8.378548 0.000000
endloop
endfacet
facet normal 0.000000 0.000000 -1.000000
outer loop
vertex 8.353550 8.378550 0.000000
vertex 8.356000 8.378428 0.000000
vertex 8.353551 8.353551 0.000000
endloop
endfacet
facet normal 0.000000 0.000000 -1.000000
outer loop
vertex 8.353550 8.378550 0.000000
vertex 8.353551 8.353551 0.000000
vertex 8.351100 8.378428 0.000000
endloop
endfacet
facet normal 0.000000 0.000000 -1.000000
outer loop
vertex 8.358428 8.378070 0.000000
vertex 8.360807 8.377470 0.000000
vertex 8.353551 8.353551 0.000000
endloop
endfacet
facet normal 0.000000 0.000000 -1.000000
outer loop
vertex 8.358428 8.378070 0.000000
vertex 8.353551 8.353551 0.000000
vertex 8.356000 8.378428 0.000000
endloop
endfacet
facet normal 0.000000 0.000000 -1.000000
outer loop
vertex 8.363117 8.376646 0.000000
vertex 8.365334 8.375596 0.000000
vertex 8.353551 8.353551 0.000000
endloop
endfacet
facet normal 0.000000 0.000000 -1.000000
outer loop
vertex 8.363117 8.376646 0.000000
vertex 8.353551 8.353551 0.000000
vertex 8.360807 8.377470 0.000000
endloop
endfacet
facet normal 0.000000 0.000000 -1.000000
outer loop
vertex 8.367439 8.374336 0.000000
vertex 8.369408 8.372873 0.000000
vertex 8.353551 8.353551 0.000000
endloop
endfacet
facet normal 0.000000 0.000000 -1.000000
outer loop
vertex 8.367439 8.374336 0.000000
vertex 8.353551 8.353551 0.000000
vertex 8.365334 8.375596 0.000000
endloop
endfacet
facet normal 0.000000 0.000000 -1.000000
outer loop
vertex 8.371227 8.371227 0.000000
vertex 8.372873 8.369408 0.000000
vertex 8.353551 8.353551 0.000000
endloop
endfacet
facet normal 0.000000 0.000000 -1.000000
outer loop
vertex 8.371227 8.371227 0.000000
vertex 8.353551 8.353551 0.000000
vertex 8.369408 8.372873 0.000000
endloop
endfacet
facet normal 0.000000 0.000000 -1.000000
outer loop
vertex 8.374336 8.367437 0.000000
vertex 8.375596 8.365334 0.000000
vertex 8.353551 8.353551 0.000000
endloop
endfacet
facet normal 0.000000 0.000000 -1.000000
outer loop
vertex 8.374336 8.367437 0.000000
vertex 8.353551 8.353551 0.000000
vertex 8.372873 8.369408 0.000000
endloop
endfacet
facet normal 0.000000 0.000000 -1.000000
outer loop
vertex 8.376647 8.363116 0.000000
vertex 8.377471 8.360807 0.000000
vertex 8.353551 8.353551 0.000000
endloop
endfacet
facet normal 0.000000 0.000000 -1.000000
outer loop
vertex 8.376647 8.363116 0.000000
vertex 8.353551 8.353551 0.000000
vertex 8.375596 8.365334 0.000000
endloop
endfacet
facet normal 0.000000 0.000000 -1.000000
outer loop
vertex 8.378070 8.358427 0.000000
vertex 8.378428 8.355999 0.000000
vertex 8.353551 8.353551 0.000000
endloop
endfacet
facet normal 0.000000 0.000000 -1.000000
outer loop
vertex 8.378070 8.358427 0.000000
vertex 8.353551 8.353551 0.000000
vertex 8.377471 8.360807 0.000000
endloop
endfacet
facet normal 0.000000 0.000000 -1.000000
outer loop
vertex 8.378550 8.353550 0.000000
vertex 8.378428 8.351100 0.000000
vertex 8.353551 8.353551 0.000000
endloop
endfacet
facet normal 0.000000 0.000000 -1.000000
outer loop
vertex 8.378550 8.353550 0.000000
vertex 8.353551 8.353551 0.000000
vertex 8.378428 8.355999 0.000000
endloop
endfacet
facet normal 0.000000 0.000000 -1.000000
outer loop
vertex 8.378070 8.348673 0.000000
vertex 8.377471 8.346294 0.000000
vertex 8.353551 8.353551 0.000000
endloop
endfacet
facet normal 0.000000 0.000000 -1.000000
outer loop
vertex 8.378070 8.348673 0.000000
vertex 8.353551 8.353551 0.000000
vertex 8.378428 8.351100 0.000000
endloop
endfacet
facet normal 0.000000 0.000000 -1.000000
outer loop
vertex 8.376647 8.343983 0.000000
vertex 8.375596 8.341766 0.000000
vertex 8.353551 8.353551 0.000000
endloop
endfacet
facet normal 0.000000 0.000000 -1.000000
outer loop
vertex 8.376647 8.343983 0.000000
vertex 8.353551 8.353551 0.000000
vertex 8.377471 8.346294 0.000000
endloop
endfacet
facet normal 0.000000 0.000000 -1.000000
outer loop
vertex 8.374336 8.339661 0.000000
vertex 8.372873 8.337692 0.000000
vertex 8.353551 8.353551 0.000000
endloop
endfacet
facet normal 0.000000 0.000000 -1.000000
outer loop
vertex 8.374336 8.339661 0.000000
vertex 8.353551 8.353551 0.000000
vertex 8.375596 8.341766 0.000000
endloop
endfacet
facet normal 0.000000 0.000000 -1.000000
outer loop
vertex 8.371227 8.335873 0.000000
vertex 8.369408 8.334227 0.000000
vertex 8.353551 8.353551 0.000000
endloop
endfacet
facet normal 0.000000 0.000000 -1.000000
outer loop
vertex 8.371227 8.335873 0.000000
vertex 8.353551 8.353551 0.000000
vertex 8.372873 8.337692 0.000000
endloop
endfacet
facet normal 0.000000 0.000000 -1.000000
outer loop
vertex 8.367439 8.332763 0.000000
vertex 8.365334 8.331504 0.000000
vertex 8.353551 8.353551 0.000000
endloop
endfacet
facet normal 0.000000 0.000000 -1.000000
outer loop
vertex 8.367439 8.332763 0.000000
vertex 8.353551 8.353551 0.000000
vertex 8.369408 8.334227 0.000000
endloop
endfacet
facet normal 0.000000 0.000000 -1.000000
outer loop
vertex 8.363117 8.330453 0.000000
vertex 8.360807 8.329629 0.000000
vertex 8.353551 8.353551 0.000000
endloop
endfacet
facet normal 0.000000 0.000000 -1.000000
outer loop
vertex 8.363117 8.330453 0.000000
vertex 8.353551 8.353551 0.000000
vertex 8.365334 8.331504 0.000000
endloop
endfacet
facet normal 0.000000 0.000000 -1.000000
outer loop
vertex 8.358428 8.329032 0.000000
vertex 8.356000 8.328673 0.000000
vertex 8.353551 8.353551 0.000000
endloop
endfacet
facet normal 0.000000 0.000000 -1.000000
outer loop
vertex 8.358428 8.329032 0.000000
vertex 8.353551 8.353551 0.000000
vertex 8.360807 8.329629 0.000000
endloop
endfacet
facet normal 0.000000 0.000000 -1.000000
outer loop
vertex 8.353550 8.328550 0.000000
vertex 8.351100 8.328673 0.000000
vertex 8.353551 8.353551 0.000000
endloop
endfacet
facet normal 0.000000 0.000000 -1.000000
outer loop
vertex 8.353550 8.328550 0.000000
vertex 8.353551 8.353551 0.000000
vertex 8.356000 8.328673 0.000000
endloop
endfacet
facet normal 0.000000 0.000000 -1.000000
outer loop
vertex 8.348673 8.329032 0.000000
vertex 8.346294 8.329629 0.000000
vertex 8.353551 8.353551 0.000000
endloop
endfacet
facet normal 0.000000 0.000000 -1.000000
outer loop
vertex 8.348673 8.329032 0.000000
vertex 8.353551 8.353551 0.000000
vertex 8.351100 8.328673 0.000000
endloop
endfacet
facet normal 0.000000 0.000000 -1.000000
outer loop
vertex 8.343983 8.330453 0.000000
vertex 8.341766 8.331504 0.000000
vertex 8.353551 8.353551 0.000000
endloop
endfacet
facet normal 0.000000 0.000000 -1.000000
outer loop
vertex 8.343983 8.330453 0.000000
vertex 8.353551 8.353551 0.000000
vertex 8.346294 8.329629 0.000000
endloop
endfacet
facet normal 0.000000 0.000000 -1.000000
outer loop
vertex 8.339661 8.332763 0.000000
vertex 8.337692 8.334227 0.000000
vertex 8.353551 8.353551 0.000000
endloop
endfacet
facet normal 0.000000 0.000000 -1.000000
outer loop
vertex 8.339661 8.332763 0.000000
vertex 8.353551 8.353551 0.000000
vertex 8.341766 8.331504 0.000000
endloop
endfacet
facet normal 0.000000 0.000000 -1.000000
outer loop
vertex 8.335873 8.335873 0.000000
vertex 8.334227 8.337692 0.000000
vertex 8.353551 8.353551 0.000000
endloop
endfacet
facet normal 0.000000 0.000000 -1.000000
outer loop
vertex 8.335873 8.335873 0.000000
vertex 8.353551 8.353551 0.000000
vertex 8.337692 8.334227 0.000000
endloop
endfacet
facet normal 0.000000 0.000000 -1.000000
outer loop
vertex 8.332763 8.339661 0.000000
vertex 8.331504 8.341767 0.000000
vertex 8.353551 8.353551 0.000000
endloop
endfacet
facet normal 0.000000 0.000000 -1.000000
outer loop
vertex 8.332763 8.339661 0.000000
vertex 8.353551 8.353551 0.000000
vertex 8.334227 8.337692 0.000000
endloop
endfacet
facet normal 0.000000 0.000000 -1.000000
outer loop
vertex 8.330453 8.343983 0.000000
vertex 8.329629 8.346294 0.000000
vertex 8.353551 8.353551 0.000000
endloop
endfacet
facet normal 0.000000 0.000000 -1.000000
outer loop
vertex 8.330453 8.343983 0.000000
vertex 8.353551 8.353551 0.000000
vertex 8.331504 8.341767 0.000000
endloop
endfacet
facet normal 0.000000 0.000000 -1.000000
outer loop
vertex 8.329031 8.348673 0.000000
vertex 8.328673 8.351100 0.000000
vertex 8.353551 8.353551 0.000000
endloop
endfacet
facet normal 0.000000 0.000000 -1.000000
outer loop
vertex 8.329031 8.348673 0.000000
vertex 8.353551 8.353551 0.000000
vertex 8.329629 8.346294 0.000000
endloop
endfacet
facet normal 0.000000 0.000000 -1.000000
outer loop
vertex 8.328550 8.353550 0.000000
vertex 8.328673 8.355999 0.000000
vertex 8.353551 8.353551 0.000000
endloop
endfacet
facet normal 0.000000 0.000000 -1.000000
outer loop
vertex 8.328550 8.353550 0.000000
vertex 8.353551 8.353551 0.000000
vertex 8.328673 8.351100 0.000000
endloop
endfacet
facet normal 0.000000 0.000000 -1.000000
outer loop
vertex 8.329031 8.358427 0.000000
vertex 8.329629 8.360807 0.000000
vertex 8.353551 8.353551 0.000000
endloop
endfacet
facet normal 0.000000 0.000000 -1.000000
outer loop
vertex 8.329031 8.358427 0.000000
vertex 8.353551 8.353551 0.000000
vertex 8.328673 8.355999 0.000000
endloop
endfacet
facet normal 0.000000 0.000000 -1.000000
outer loop
vertex 8.330453 8.363116 0.000000
vertex 8.331504 8.365334 0.000000
vertex 8.353551 8.353551 0.000000
endloop
endfacet
facet normal 0.000000 0.000000 -1.000000
outer loop
vertex 8.330453 8.363116 0.000000
vertex 8.353551 8.353551 0.000000
vertex 8.329629 8.360807 0.000000
endloop
endfacet
facet normal 0.000000 0.000000 -1.000000
outer loop
vertex 8.332763 8.367437 0.000000
vertex 8.334227 8.369408 0.000000
vertex 8.353551 8.353551 0.000000
endloop
endfacet
facet normal 0.000000 0.000000 -1.000000
outer loop
vertex 8.332763 8.367437 0.000000
vertex 8.353551 8.353551 0.000000
vertex 8.331504 8.365334 0.000000
endloop
endfacet
facet normal 0.000000 0.000000 -1.000000
outer loop
vertex 8.335873 8.371227 0.000000
vertex 8.337692 8.372873 0.000000
vertex 8.353551 8.353551 0.000000
endloop
endfacet
facet normal 0.000000 0.000000 -1.000000
outer loop
vertex 8.335873 8.371227 0.000000
vertex 8.353551 8.353551 0.000000
vertex 8.334227 8.369408 0.000000
endloop
endfacet
facet normal 0.000000 0.000000 -1.000000
outer loop
vertex 8.339661 8.374336 0.000000
vertex 8.341767 8.375596 0.000000
vertex 8.353551 8.353551 0.000000
endloop
endfacet
facet normal 0.000000 0.000000 -1.000000
outer loop
vertex 8.339661 8.374336 0.000000
vertex 8.353551 8.353551 0.000000
vertex 8.337692 8.372873 0.000000
endloop
endfacet
facet normal 0.000000 0.000000 -1.000000
outer loop
vertex 8.343983 8.376646 0.000000
vertex 8.346294 8.377470 0.000000
vertex 8.353551 8.353551 0.000000
endloop
endfacet
facet normal 0.000000 0.000000 -1.000000
outer loop
vertex 8.343983 8.376646 0.000000
vertex 8.353551 8.353551 0.000000
vertex 8.341767 8.375596 0.000000
endloop
endfacet
facet normal 0.000000 0.000000 -1.000000
outer loop
vertex 8.348673 8.378070 0.000000
vertex 8.351100 8.378428 0.000000
vertex 8.353551 8.353551 0.000000
endloop
endfacet
facet normal 0.000000 0.000000 -1.000000
outer loop
vertex 8.348673 8.378070 0.000000
vertex 8.353551 8.353551 0.000000
vertex 8.346294 8.377470 0.000000
endloop
endfacet
endsolid Exported from Blender-2.82 (sub 7)
