solid Exported from Blender-2.82 (sub 7)
facet normal 0.049380 0.998780 0.000000
outer loop
vertex 4.000000 4.024998 0.000000
vertex 4.000000 4.024998 0.050000
vertex 4.002450 4.024877 0.050000
endloop
endfacet
facet normal 0.049368 0.998781 0.000000
outer loop
vertex 4.000000 4.024998 0.000000
vertex 4.002450 4.024877 0.050000
vertex 4.002450 4.024877 0.000000
endloop
endfacet
facet normal 0.049380 0.998780 0.000000
outer loop
vertex 4.000000 4.024998 0.050000
vertex 4.000000 4.024998 0.100000
vertex 4.002450 4.024877 0.100000
endloop
endfacet
facet normal 0.049368 0.998781 0.000000
outer loop
vertex 4.000000 4.024998 0.050000
vertex 4.002450 4.024877 0.100000
vertex 4.002450 4.024877 0.050000
endloop
endfacet
facet normal 0.146535 0.989206 0.000000
outer loop
vertex 4.002450 4.024877 0.050000
vertex 4.002450 4.024877 0.100000
vertex 4.004877 4.024517 0.100000
endloop
endfacet
facet normal 0.146535 0.989206 0.000000
outer loop
vertex 4.002450 4.024877 0.050000
vertex 4.004877 4.024517 0.100000
vertex 4.004877 4.024517 0.050000
endloop
endfacet
facet normal 0.146535 0.989206 0.000000
outer loop
vertex 4.002450 4.024877 0.000000
vertex 4.002450 4.024877 0.050000
vertex 4.004877 4.024517 0.050000
endloop
endfacet
facet normal 0.146535 0.989206 0.000000
outer loop
vertex 4.002450 4.024877 0.000000
vertex 4.004877 4.024517 0.050000
vertex 4.004877 4.024517 0.000000
endloop
endfacet
facet normal 0.243474 0.969908 0.000000
outer loop
vertex 4.004877 4.024517 0.000000
vertex 4.004877 4.024517 0.050000
vertex 4.007256 4.023920 0.050000
endloop
endfacet
facet normal 0.243244 0.969965 0.000000
outer loop
vertex 4.004877 4.024517 0.000000
vertex 4.007256 4.023920 0.050000
vertex 4.007257 4.023920 0.000000
endloop
endfacet
facet normal 0.243301 0.969951 0.000000
outer loop
vertex 4.004877 4.024517 0.050000
vertex 4.004877 4.024517 0.100000
vertex 4.007257 4.023920 0.100000
endloop
endfacet
facet normal 0.243416 0.969922 -0.000000
outer loop
vertex 4.004877 4.024517 0.050000
vertex 4.007257 4.023920 0.100000
vertex 4.007256 4.023920 0.050000
endloop
endfacet
facet normal 0.336928 0.941531 -0.000015
outer loop
vertex 4.007256 4.023920 0.050000
vertex 4.007257 4.023920 0.100000
vertex 4.009565 4.023094 0.100000
endloop
endfacet
facet normal 0.336697 0.941613 0.000000
outer loop
vertex 4.007256 4.023920 0.050000
vertex 4.009565 4.023094 0.100000
vertex 4.009565 4.023094 0.050000
endloop
endfacet
facet normal 0.336697 0.941613 0.000015
outer loop
vertex 4.007257 4.023920 0.000000
vertex 4.007256 4.023920 0.050000
vertex 4.009565 4.023094 0.050000
endloop
endfacet
facet normal 0.336928 0.941531 0.000000
outer loop
vertex 4.007257 4.023920 0.000000
vertex 4.009565 4.023094 0.050000
vertex 4.009565 4.023094 0.000000
endloop
endfacet
facet normal 0.427163 0.904175 0.000000
outer loop
vertex 4.009565 4.023094 0.000000
vertex 4.009565 4.023094 0.050000
vertex 4.011784 4.022046 0.050000
endloop
endfacet
facet normal 0.427257 0.904130 0.000000
outer loop
vertex 4.009565 4.023094 0.000000
vertex 4.011784 4.022046 0.050000
vertex 4.011784 4.022046 0.000000
endloop
endfacet
facet normal 0.427163 0.904175 0.000000
outer loop
vertex 4.009565 4.023094 0.050000
vertex 4.009565 4.023094 0.100000
vertex 4.011784 4.022046 0.100000
endloop
endfacet
facet normal 0.427257 0.904130 0.000000
outer loop
vertex 4.009565 4.023094 0.050000
vertex 4.011784 4.022046 0.100000
vertex 4.011784 4.022046 0.050000
endloop
endfacet
facet normal 0.514281 0.857621 0.000000
outer loop
vertex 4.011784 4.022046 0.050000
vertex 4.011784 4.022046 0.100000
vertex 4.013887 4.020784 0.100000
endloop
endfacet
facet normal 0.514389 0.857557 0.000000
outer loop
vertex 4.011784 4.022046 0.050000
vertex 4.013887 4.020784 0.100000
vertex 4.013887 4.020784 0.050000
endloop
endfacet
facet normal 0.514281 0.857621 0.000000
outer loop
vertex 4.011784 4.022046 0.000000
vertex 4.011784 4.022046 0.050000
vertex 4.013887 4.020784 0.050000
endloop
endfacet
facet normal 0.514389 0.857557 0.000000
outer loop
vertex 4.011784 4.022046 0.000000
vertex 4.013887 4.020784 0.050000
vertex 4.013887 4.020784 0.000000
endloop
endfacet
facet normal 0.595841 0.803102 0.000000
outer loop
vertex 4.013887 4.020784 0.000000
vertex 4.013887 4.020784 0.050000
vertex 4.015858 4.019322 0.050000
endloop
endfacet
facet normal 0.595841 0.803102 0.000000
outer loop
vertex 4.013887 4.020784 0.000000
vertex 4.015858 4.019322 0.050000
vertex 4.015858 4.019322 0.000000
endloop
endfacet
facet normal 0.595841 0.803102 0.000000
outer loop
vertex 4.013887 4.020784 0.050000
vertex 4.013887 4.020784 0.100000
vertex 4.015858 4.019322 0.100000
endloop
endfacet
facet normal 0.595841 0.803102 0.000000
outer loop
vertex 4.013887 4.020784 0.050000
vertex 4.015858 4.019322 0.100000
vertex 4.015858 4.019322 0.050000
endloop
endfacet
facet normal 0.671525 0.740982 0.000000
outer loop
vertex 4.015858 4.019322 0.050000
vertex 4.015858 4.019322 0.100000
vertex 4.017675 4.017675 0.100000
endloop
endfacet
facet normal 0.671404 0.741091 0.000000
outer loop
vertex 4.015858 4.019322 0.050000
vertex 4.017675 4.017675 0.100000
vertex 4.017675 4.017675 0.050000
endloop
endfacet
facet normal 0.671525 0.740982 0.000000
outer loop
vertex 4.015858 4.019322 0.000000
vertex 4.015858 4.019322 0.050000
vertex 4.017675 4.017675 0.050000
endloop
endfacet
facet normal 0.671404 0.741091 0.000000
outer loop
vertex 4.015858 4.019322 0.000000
vertex 4.017675 4.017675 0.050000
vertex 4.017675 4.017675 0.000000
endloop
endfacet
facet normal 0.740830 0.671693 0.000000
outer loop
vertex 4.017675 4.017675 0.000000
vertex 4.017675 4.017675 0.050000
vertex 4.019323 4.015858 0.050000
endloop
endfacet
facet normal 0.740951 0.671559 0.000000
outer loop
vertex 4.017675 4.017675 0.000000
vertex 4.019323 4.015858 0.050000
vertex 4.019323 4.015858 0.000000
endloop
endfacet
facet normal 0.740830 0.671693 0.000000
outer loop
vertex 4.017675 4.017675 0.050000
vertex 4.017675 4.017675 0.100000
vertex 4.019323 4.015858 0.100000
endloop
endfacet
facet normal 0.740951 0.671559 0.000000
outer loop
vertex 4.017675 4.017675 0.050000
vertex 4.019323 4.015858 0.100000
vertex 4.019323 4.015858 0.050000
endloop
endfacet
facet normal 0.803161 0.595762 0.000000
outer loop
vertex 4.019323 4.015858 0.050000
vertex 4.019323 4.015858 0.100000
vertex 4.020784 4.013887 0.100000
endloop
endfacet
facet normal 0.803277 0.595605 0.000000
outer loop
vertex 4.019323 4.015858 0.050000
vertex 4.020784 4.013887 0.100000
vertex 4.020784 4.013887 0.050000
endloop
endfacet
facet normal 0.803161 0.595762 0.000000
outer loop
vertex 4.019323 4.015858 0.000000
vertex 4.019323 4.015858 0.050000
vertex 4.020784 4.013887 0.050000
endloop
endfacet
facet normal 0.803277 0.595605 0.000000
outer loop
vertex 4.019323 4.015858 0.000000
vertex 4.020784 4.013887 0.050000
vertex 4.020784 4.013887 0.000000
endloop
endfacet
facet normal 0.857574 0.514360 0.000000
outer loop
vertex 4.020784 4.013887 0.000000
vertex 4.020784 4.013887 0.050000
vertex 4.022046 4.011784 0.050000
endloop
endfacet
facet normal 0.857682 0.514181 0.000000
outer loop
vertex 4.020784 4.013887 0.000000
vertex 4.022046 4.011784 0.050000
vertex 4.022046 4.011784 0.000000
endloop
endfacet
facet normal 0.857574 0.514360 0.000000
outer loop
vertex 4.020784 4.013887 0.050000
vertex 4.020784 4.013887 0.100000
vertex 4.022046 4.011784 0.100000
endloop
endfacet
facet normal 0.857682 0.514181 0.000000
outer loop
vertex 4.020784 4.013887 0.050000
vertex 4.022046 4.011784 0.100000
vertex 4.022046 4.011784 0.050000
endloop
endfacet
facet normal 0.904007 0.427518 0.000000
outer loop
vertex 4.022046 4.011784 0.050000
vertex 4.022046 4.011784 0.100000
vertex 4.023095 4.009565 0.100000
endloop
endfacet
facet normal 0.904007 0.427518 0.000000
outer loop
vertex 4.022046 4.011784 0.050000
vertex 4.023095 4.009565 0.100000
vertex 4.023095 4.009565 0.050000
endloop
endfacet
facet normal 0.904007 0.427518 0.000000
outer loop
vertex 4.022046 4.011784 0.000000
vertex 4.022046 4.011784 0.050000
vertex 4.023095 4.009565 0.050000
endloop
endfacet
facet normal 0.904007 0.427518 0.000000
outer loop
vertex 4.022046 4.011784 0.000000
vertex 4.023095 4.009565 0.050000
vertex 4.023095 4.009565 0.000000
endloop
endfacet
facet normal 0.941544 0.336891 0.000000
outer loop
vertex 4.023095 4.009565 0.000000
vertex 4.023095 4.009565 0.050000
vertex 4.023921 4.007257 0.050000
endloop
endfacet
facet normal 0.941544 0.336891 0.000000
outer loop
vertex 4.023095 4.009565 0.000000
vertex 4.023921 4.007257 0.050000
vertex 4.023921 4.007257 0.000000
endloop
endfacet
facet normal 0.941544 0.336891 0.000000
outer loop
vertex 4.023095 4.009565 0.050000
vertex 4.023095 4.009565 0.100000
vertex 4.023921 4.007257 0.100000
endloop
endfacet
facet normal 0.941544 0.336891 0.000000
outer loop
vertex 4.023095 4.009565 0.050000
vertex 4.023921 4.007257 0.100000
vertex 4.023921 4.007257 0.050000
endloop
endfacet
facet normal 0.969971 0.243222 0.000000
outer loop
vertex 4.023921 4.007257 0.050000
vertex 4.023921 4.007257 0.100000
vertex 4.024518 4.004877 0.100000
endloop
endfacet
facet normal 0.969913 0.243450 0.000000
outer loop
vertex 4.023921 4.007257 0.050000
vertex 4.024518 4.004877 0.100000
vertex 4.024518 4.004877 0.050000
endloop
endfacet
facet normal 0.969971 0.243222 0.000000
outer loop
vertex 4.023921 4.007257 0.000000
vertex 4.023921 4.007257 0.050000
vertex 4.024518 4.004877 0.050000
endloop
endfacet
facet normal 0.969913 0.243450 0.000000
outer loop
vertex 4.023921 4.007257 0.000000
vertex 4.024518 4.004877 0.050000
vertex 4.024518 4.004877 0.000000
endloop
endfacet
facet normal 0.989221 0.146431 0.000000
outer loop
vertex 4.024518 4.004877 0.000000
vertex 4.024518 4.004877 0.050000
vertex 4.024878 4.002449 0.050000
endloop
endfacet
facet normal 0.989221 0.146431 0.000000
outer loop
vertex 4.024518 4.004877 0.000000
vertex 4.024878 4.002449 0.050000
vertex 4.024878 4.002449 0.000000
endloop
endfacet
facet normal 0.989221 0.146431 0.000000
outer loop
vertex 4.024518 4.004877 0.050000
vertex 4.024518 4.004877 0.100000
vertex 4.024878 4.002449 0.100000
endloop
endfacet
facet normal 0.989221 0.146431 0.000000
outer loop
vertex 4.024518 4.004877 0.050000
vertex 4.024878 4.002449 0.100000
vertex 4.024878 4.002449 0.050000
endloop
endfacet
facet normal 0.998794 0.049103 0.000000
outer loop
vertex 4.024878 4.002449 0.050000
vertex 4.024878 4.002449 0.100000
vertex 4.024998 4.000000 0.100000
endloop
endfacet
facet normal 0.998806 0.048861 0.000000
outer loop
vertex 4.024878 4.002449 0.050000
vertex 4.024998 4.000000 0.100000
vertex 4.024998 4.000000 0.050000
endloop
endfacet
facet normal 0.998794 0.049103 0.000000
outer loop
vertex 4.024878 4.002449 0.000000
vertex 4.024878 4.002449 0.050000
vertex 4.024998 4.000000 0.050000
endloop
endfacet
facet normal 0.998806 0.048861 0.000000
outer loop
vertex 4.024878 4.002449 0.000000
vertex 4.024998 4.000000 0.050000
vertex 4.024998 4.000000 0.000000
endloop
endfacet
facet normal 0.998807 -0.048833 0.000000
outer loop
vertex 4.024998 4.000000 0.000000
vertex 4.024998 4.000000 0.050000
vertex 4.024878 3.997550 0.050000
endloop
endfacet
facet normal 0.998795 -0.049075 0.000000
outer loop
vertex 4.024998 4.000000 0.000000
vertex 4.024878 3.997550 0.050000
vertex 4.024878 3.997550 0.000000
endloop
endfacet
facet normal 0.998807 -0.048833 0.000000
outer loop
vertex 4.024998 4.000000 0.050000
vertex 4.024998 4.000000 0.100000
vertex 4.024878 3.997550 0.100000
endloop
endfacet
facet normal 0.998795 -0.049075 0.000000
outer loop
vertex 4.024998 4.000000 0.050000
vertex 4.024878 3.997550 0.100000
vertex 4.024878 3.997550 0.050000
endloop
endfacet
facet normal 0.989196 -0.146600 0.000000
outer loop
vertex 4.024878 3.997550 0.050000
vertex 4.024878 3.997550 0.100000
vertex 4.024518 3.995124 0.100000
endloop
endfacet
facet normal 0.989196 -0.146600 0.000000
outer loop
vertex 4.024878 3.997550 0.050000
vertex 4.024518 3.995124 0.100000
vertex 4.024518 3.995124 0.050000
endloop
endfacet
facet normal 0.989196 -0.146600 0.000000
outer loop
vertex 4.024878 3.997550 0.000000
vertex 4.024878 3.997550 0.050000
vertex 4.024518 3.995124 0.050000
endloop
endfacet
facet normal 0.989196 -0.146600 0.000000
outer loop
vertex 4.024878 3.997550 0.000000
vertex 4.024518 3.995124 0.050000
vertex 4.024518 3.995124 0.000000
endloop
endfacet
facet normal 0.969936 -0.243358 0.000000
outer loop
vertex 4.024518 3.995124 0.000000
vertex 4.024518 3.995124 0.050000
vertex 4.023921 3.992744 0.050000
endloop
endfacet
facet normal 0.969994 -0.243130 0.000000
outer loop
vertex 4.024518 3.995124 0.000000
vertex 4.023921 3.992744 0.050000
vertex 4.023921 3.992744 0.000000
endloop
endfacet
facet normal 0.969936 -0.243358 0.000000
outer loop
vertex 4.024518 3.995124 0.050000
vertex 4.024518 3.995124 0.100000
vertex 4.023921 3.992744 0.100000
endloop
endfacet
facet normal 0.969994 -0.243130 0.000000
outer loop
vertex 4.024518 3.995124 0.050000
vertex 4.023921 3.992744 0.100000
vertex 4.023921 3.992744 0.050000
endloop
endfacet
facet normal 0.941588 -0.336767 0.000000
outer loop
vertex 4.023921 3.992744 0.050000
vertex 4.023921 3.992744 0.100000
vertex 4.023095 3.990434 0.100000
endloop
endfacet
facet normal 0.941588 -0.336767 0.000000
outer loop
vertex 4.023921 3.992744 0.050000
vertex 4.023095 3.990434 0.100000
vertex 4.023095 3.990434 0.050000
endloop
endfacet
facet normal 0.941588 -0.336767 0.000000
outer loop
vertex 4.023921 3.992744 0.000000
vertex 4.023921 3.992744 0.050000
vertex 4.023095 3.990434 0.050000
endloop
endfacet
facet normal 0.941588 -0.336767 0.000000
outer loop
vertex 4.023921 3.992744 0.000000
vertex 4.023095 3.990434 0.050000
vertex 4.023095 3.990434 0.000000
endloop
endfacet
facet normal 0.904007 -0.427518 0.000000
outer loop
vertex 4.023095 3.990434 0.000000
vertex 4.023095 3.990434 0.050000
vertex 4.022046 3.988216 0.050000
endloop
endfacet
facet normal 0.904007 -0.427518 0.000000
outer loop
vertex 4.023095 3.990434 0.000000
vertex 4.022046 3.988216 0.050000
vertex 4.022046 3.988216 0.000000
endloop
endfacet
facet normal 0.904007 -0.427518 0.000000
outer loop
vertex 4.023095 3.990434 0.050000
vertex 4.023095 3.990434 0.100000
vertex 4.022046 3.988216 0.100000
endloop
endfacet
facet normal 0.904007 -0.427518 0.000000
outer loop
vertex 4.023095 3.990434 0.050000
vertex 4.022046 3.988216 0.100000
vertex 4.022046 3.988216 0.050000
endloop
endfacet
facet normal 0.857682 -0.514181 0.000000
outer loop
vertex 4.022046 3.988216 0.050000
vertex 4.022046 3.988216 0.100000
vertex 4.020784 3.986112 0.100000
endloop
endfacet
facet normal 0.857574 -0.514360 0.000000
outer loop
vertex 4.022046 3.988216 0.050000
vertex 4.020784 3.986112 0.100000
vertex 4.020784 3.986112 0.050000
endloop
endfacet
facet normal 0.857682 -0.514181 0.000000
outer loop
vertex 4.022046 3.988216 0.000000
vertex 4.022046 3.988216 0.050000
vertex 4.020784 3.986112 0.050000
endloop
endfacet
facet normal 0.857574 -0.514360 0.000000
outer loop
vertex 4.022046 3.988216 0.000000
vertex 4.020784 3.986112 0.050000
vertex 4.020784 3.986112 0.000000
endloop
endfacet
facet normal 0.803277 -0.595605 0.000000
outer loop
vertex 4.020784 3.986112 0.000000
vertex 4.020784 3.986112 0.050000
vertex 4.019323 3.984142 0.050000
endloop
endfacet
facet normal 0.803161 -0.595762 0.000000
outer loop
vertex 4.020784 3.986112 0.000000
vertex 4.019323 3.984142 0.050000
vertex 4.019323 3.984142 0.000000
endloop
endfacet
facet normal 0.803277 -0.595605 0.000000
outer loop
vertex 4.020784 3.986112 0.050000
vertex 4.020784 3.986112 0.100000
vertex 4.019323 3.984142 0.100000
endloop
endfacet
facet normal 0.803161 -0.595762 0.000000
outer loop
vertex 4.020784 3.986112 0.050000
vertex 4.019323 3.984142 0.100000
vertex 4.019323 3.984142 0.050000
endloop
endfacet
facet normal 0.740951 -0.671559 0.000000
outer loop
vertex 4.019323 3.984142 0.050000
vertex 4.019323 3.984142 0.100000
vertex 4.017675 3.982324 0.100000
endloop
endfacet
facet normal 0.740830 -0.671693 0.000000
outer loop
vertex 4.019323 3.984142 0.050000
vertex 4.017675 3.982324 0.100000
vertex 4.017675 3.982324 0.050000
endloop
endfacet
facet normal 0.740951 -0.671559 0.000000
outer loop
vertex 4.019323 3.984142 0.000000
vertex 4.019323 3.984142 0.050000
vertex 4.017675 3.982324 0.050000
endloop
endfacet
facet normal 0.740830 -0.671693 0.000000
outer loop
vertex 4.019323 3.984142 0.000000
vertex 4.017675 3.982324 0.050000
vertex 4.017675 3.982324 0.000000
endloop
endfacet
facet normal 0.671404 -0.741091 0.000000
outer loop
vertex 4.017675 3.982324 0.000000
vertex 4.017675 3.982324 0.050000
vertex 4.015858 3.980677 0.050000
endloop
endfacet
facet normal 0.671525 -0.740982 0.000000
outer loop
vertex 4.017675 3.982324 0.000000
vertex 4.015858 3.980677 0.050000
vertex 4.015858 3.980677 0.000000
endloop
endfacet
facet normal 0.671404 -0.741091 0.000000
outer loop
vertex 4.017675 3.982324 0.050000
vertex 4.017675 3.982324 0.100000
vertex 4.015858 3.980677 0.100000
endloop
endfacet
facet normal 0.671525 -0.740982 0.000000
outer loop
vertex 4.017675 3.982324 0.050000
vertex 4.015858 3.980677 0.100000
vertex 4.015858 3.980677 0.050000
endloop
endfacet
facet normal 0.595590 -0.803289 0.000000
outer loop
vertex 4.015858 3.980677 0.050000
vertex 4.015858 3.980677 0.100000
vertex 4.013887 3.979216 0.100000
endloop
endfacet
facet normal 0.595590 -0.803289 0.000000
outer loop
vertex 4.015858 3.980677 0.050000
vertex 4.013887 3.979216 0.100000
vertex 4.013887 3.979216 0.050000
endloop
endfacet
facet normal 0.595590 -0.803289 0.000000
outer loop
vertex 4.015858 3.980677 0.000000
vertex 4.015858 3.980677 0.050000
vertex 4.013887 3.979216 0.050000
endloop
endfacet
facet normal 0.595590 -0.803289 0.000000
outer loop
vertex 4.015858 3.980677 0.000000
vertex 4.013887 3.979216 0.050000
vertex 4.013887 3.979216 0.000000
endloop
endfacet
facet normal 0.514389 -0.857557 0.000000
outer loop
vertex 4.013887 3.979216 0.000000
vertex 4.013887 3.979216 0.050000
vertex 4.011784 3.977954 0.050000
endloop
endfacet
facet normal 0.513995 -0.857793 -0.000015
outer loop
vertex 4.013887 3.979216 0.000000
vertex 4.011784 3.977954 0.050000
vertex 4.011784 3.977955 0.000000
endloop
endfacet
facet normal 0.514102 -0.857729 0.000000
outer loop
vertex 4.013887 3.979216 0.050000
vertex 4.013887 3.979216 0.100000
vertex 4.011784 3.977955 0.100000
endloop
endfacet
facet normal 0.514281 -0.857621 0.000015
outer loop
vertex 4.013887 3.979216 0.050000
vertex 4.011784 3.977955 0.100000
vertex 4.011784 3.977954 0.050000
endloop
endfacet
facet normal 0.427892 -0.903830 0.000015
outer loop
vertex 4.011784 3.977954 0.050000
vertex 4.011784 3.977955 0.100000
vertex 4.009565 3.976905 0.100000
endloop
endfacet
facet normal 0.427481 -0.904025 0.000000
outer loop
vertex 4.011784 3.977954 0.050000
vertex 4.009565 3.976905 0.100000
vertex 4.009565 3.976905 0.050000
endloop
endfacet
facet normal 0.427575 -0.903980 -0.000015
outer loop
vertex 4.011784 3.977955 0.000000
vertex 4.011784 3.977954 0.050000
vertex 4.009565 3.976905 0.050000
endloop
endfacet
facet normal 0.427798 -0.903874 0.000000
outer loop
vertex 4.011784 3.977955 0.000000
vertex 4.009565 3.976905 0.050000
vertex 4.009565 3.976905 0.000000
endloop
endfacet
facet normal 0.337273 -0.941407 0.000000
outer loop
vertex 4.009565 3.976905 0.000000
vertex 4.009565 3.976905 0.050000
vertex 4.007257 3.976079 0.050000
endloop
endfacet
facet normal 0.337273 -0.941407 0.000000
outer loop
vertex 4.009565 3.976905 0.000000
vertex 4.007257 3.976079 0.050000
vertex 4.007257 3.976079 0.000000
endloop
endfacet
facet normal 0.337273 -0.941407 0.000000
outer loop
vertex 4.009565 3.976905 0.050000
vertex 4.009565 3.976905 0.100000
vertex 4.007257 3.976079 0.100000
endloop
endfacet
facet normal 0.337273 -0.941407 0.000000
outer loop
vertex 4.009565 3.976905 0.050000
vertex 4.007257 3.976079 0.100000
vertex 4.007257 3.976079 0.050000
endloop
endfacet
facet normal 0.242513 -0.970148 0.000000
outer loop
vertex 4.007257 3.976079 0.050000
vertex 4.007257 3.976079 0.100000
vertex 4.004877 3.975483 0.100000
endloop
endfacet
facet normal 0.242570 -0.970134 0.000000
outer loop
vertex 4.007257 3.976079 0.050000
vertex 4.004877 3.975483 0.100000
vertex 4.004877 3.975483 0.050000
endloop
endfacet
facet normal 0.242513 -0.970148 0.000000
outer loop
vertex 4.007257 3.976079 0.000000
vertex 4.007257 3.976079 0.050000
vertex 4.004877 3.975483 0.050000
endloop
endfacet
facet normal 0.242570 -0.970134 0.000000
outer loop
vertex 4.007257 3.976079 0.000000
vertex 4.004877 3.975483 0.050000
vertex 4.004877 3.975483 0.000000
endloop
endfacet
facet normal 0.146915 -0.989149 0.000000
outer loop
vertex 4.004877 3.975483 0.000000
vertex 4.004877 3.975483 0.050000
vertex 4.002450 3.975123 0.050000
endloop
endfacet
facet normal 0.146915 -0.989149 0.000000
outer loop
vertex 4.004877 3.975483 0.000000
vertex 4.002450 3.975123 0.050000
vertex 4.002450 3.975123 0.000000
endloop
endfacet
facet normal 0.146915 -0.989149 0.000000
outer loop
vertex 4.004877 3.975483 0.050000
vertex 4.004877 3.975483 0.100000
vertex 4.002450 3.975123 0.100000
endloop
endfacet
facet normal 0.146915 -0.989149 0.000000
outer loop
vertex 4.004877 3.975483 0.050000
vertex 4.002450 3.975123 0.100000
vertex 4.002450 3.975123 0.050000
endloop
endfacet
facet normal 0.048980 -0.998800 0.000000
outer loop
vertex 4.002450 3.975123 0.050000
vertex 4.002450 3.975123 0.100000
vertex 4.000000 3.975003 0.100000
endloop
endfacet
facet normal 0.048992 -0.998799 0.000000
outer loop
vertex 4.002450 3.975123 0.050000
vertex 4.000000 3.975003 0.100000
vertex 4.000000 3.975003 0.050000
endloop
endfacet
facet normal 0.048980 -0.998800 0.000000
outer loop
vertex 4.002450 3.975123 0.000000
vertex 4.002450 3.975123 0.050000
vertex 4.000000 3.975003 0.050000
endloop
endfacet
facet normal 0.048992 -0.998799 0.000000
outer loop
vertex 4.002450 3.975123 0.000000
vertex 4.000000 3.975003 0.050000
vertex 4.000000 3.975003 0.000000
endloop
endfacet
facet normal -0.048992 -0.998799 0.000000
outer loop
vertex 4.000000 3.975003 0.000000
vertex 4.000000 3.975003 0.050000
vertex 3.997550 3.975123 0.050000
endloop
endfacet
facet normal -0.048980 -0.998800 0.000000
outer loop
vertex 4.000000 3.975003 0.000000
vertex 3.997550 3.975123 0.050000
vertex 3.997550 3.975123 0.000000
endloop
endfacet
facet normal -0.048992 -0.998799 0.000000
outer loop
vertex 4.000000 3.975003 0.050000
vertex 4.000000 3.975003 0.100000
vertex 3.997550 3.975123 0.100000
endloop
endfacet
facet normal -0.048980 -0.998800 0.000000
outer loop
vertex 4.000000 3.975003 0.050000
vertex 3.997550 3.975123 0.100000
vertex 3.997550 3.975123 0.050000
endloop
endfacet
facet normal -0.146986 -0.989139 0.000000
outer loop
vertex 3.997550 3.975123 0.050000
vertex 3.997550 3.975123 0.100000
vertex 3.995124 3.975483 0.100000
endloop
endfacet
facet normal -0.146950 -0.989144 0.000000
outer loop
vertex 3.997550 3.975123 0.050000
vertex 3.995124 3.975483 0.100000
vertex 3.995124 3.975483 0.050000
endloop
endfacet
facet normal -0.146986 -0.989139 0.000000
outer loop
vertex 3.997550 3.975123 0.000000
vertex 3.997550 3.975123 0.050000
vertex 3.995124 3.975483 0.050000
endloop
endfacet
facet normal -0.146950 -0.989144 0.000000
outer loop
vertex 3.997550 3.975123 0.000000
vertex 3.995124 3.975483 0.050000
vertex 3.995124 3.975483 0.000000
endloop
endfacet
facet normal -0.242627 -0.970120 0.000000
outer loop
vertex 3.995124 3.975483 0.000000
vertex 3.995124 3.975483 0.050000
vertex 3.992744 3.976079 0.050000
endloop
endfacet
facet normal -0.242570 -0.970134 0.000000
outer loop
vertex 3.995124 3.975483 0.000000
vertex 3.992744 3.976079 0.050000
vertex 3.992744 3.976079 0.000000
endloop
endfacet
facet normal -0.242627 -0.970120 0.000000
outer loop
vertex 3.995124 3.975483 0.050000
vertex 3.995124 3.975483 0.100000
vertex 3.992744 3.976079 0.100000
endloop
endfacet
facet normal -0.242570 -0.970134 0.000000
outer loop
vertex 3.995124 3.975483 0.050000
vertex 3.992744 3.976079 0.100000
vertex 3.992744 3.976079 0.050000
endloop
endfacet
facet normal -0.337386 -0.941366 0.000000
outer loop
vertex 3.992744 3.976079 0.050000
vertex 3.992744 3.976079 0.100000
vertex 3.990434 3.976906 0.100000
endloop
endfacet
facet normal -0.337309 -0.941394 0.000000
outer loop
vertex 3.992744 3.976079 0.050000
vertex 3.990434 3.976906 0.100000
vertex 3.990434 3.976906 0.050000
endloop
endfacet
facet normal -0.337386 -0.941366 0.000000
outer loop
vertex 3.992744 3.976079 0.000000
vertex 3.992744 3.976079 0.050000
vertex 3.990434 3.976906 0.050000
endloop
endfacet
facet normal -0.337309 -0.941394 0.000000
outer loop
vertex 3.992744 3.976079 0.000000
vertex 3.990434 3.976906 0.050000
vertex 3.990434 3.976906 0.000000
endloop
endfacet
facet normal -0.427257 -0.904130 0.000000
outer loop
vertex 3.990434 3.976906 0.000000
vertex 3.990434 3.976906 0.050000
vertex 3.988216 3.977954 0.050000
endloop
endfacet
facet normal -0.427481 -0.904025 -0.000015
outer loop
vertex 3.990434 3.976906 0.000000
vertex 3.988216 3.977954 0.050000
vertex 3.988216 3.977955 0.000000
endloop
endfacet
facet normal -0.427575 -0.903980 0.000000
outer loop
vertex 3.990434 3.976906 0.050000
vertex 3.990434 3.976906 0.100000
vertex 3.988216 3.977955 0.100000
endloop
endfacet
facet normal -0.427163 -0.904175 0.000015
outer loop
vertex 3.990434 3.976906 0.050000
vertex 3.988216 3.977955 0.100000
vertex 3.988216 3.977954 0.050000
endloop
endfacet
facet normal -0.514102 -0.857729 0.000015
outer loop
vertex 3.988216 3.977954 0.050000
vertex 3.988216 3.977955 0.100000
vertex 3.986112 3.979216 0.100000
endloop
endfacet
facet normal -0.514281 -0.857621 0.000000
outer loop
vertex 3.988216 3.977954 0.050000
vertex 3.986112 3.979216 0.100000
vertex 3.986112 3.979216 0.050000
endloop
endfacet
facet normal -0.514389 -0.857557 -0.000015
outer loop
vertex 3.988216 3.977955 0.000000
vertex 3.988216 3.977954 0.050000
vertex 3.986112 3.979216 0.050000
endloop
endfacet
facet normal -0.513995 -0.857793 0.000000
outer loop
vertex 3.988216 3.977955 0.000000
vertex 3.986112 3.979216 0.050000
vertex 3.986112 3.979216 0.000000
endloop
endfacet
facet normal -0.595590 -0.803289 0.000000
outer loop
vertex 3.986112 3.979216 0.000000
vertex 3.986112 3.979216 0.050000
vertex 3.984142 3.980677 0.050000
endloop
endfacet
facet normal -0.595706 -0.803202 0.000000
outer loop
vertex 3.986112 3.979216 0.000000
vertex 3.984142 3.980677 0.050000
vertex 3.984142 3.980677 0.000000
endloop
endfacet
facet normal -0.595590 -0.803289 0.000000
outer loop
vertex 3.986112 3.979216 0.050000
vertex 3.986112 3.979216 0.100000
vertex 3.984142 3.980677 0.100000
endloop
endfacet
facet normal -0.595706 -0.803202 0.000000
outer loop
vertex 3.986112 3.979216 0.050000
vertex 3.984142 3.980677 0.100000
vertex 3.984142 3.980677 0.050000
endloop
endfacet
facet normal -0.671404 -0.741091 0.000000
outer loop
vertex 3.984142 3.980677 0.050000
vertex 3.984142 3.980677 0.100000
vertex 3.982324 3.982324 0.100000
endloop
endfacet
facet normal -0.671525 -0.740982 0.000000
outer loop
vertex 3.984142 3.980677 0.050000
vertex 3.982324 3.982324 0.100000
vertex 3.982324 3.982324 0.050000
endloop
endfacet
facet normal -0.671404 -0.741091 0.000000
outer loop
vertex 3.984142 3.980677 0.000000
vertex 3.984142 3.980677 0.050000
vertex 3.982324 3.982324 0.050000
endloop
endfacet
facet normal -0.671525 -0.740982 0.000000
outer loop
vertex 3.984142 3.980677 0.000000
vertex 3.982324 3.982324 0.050000
vertex 3.982324 3.982324 0.000000
endloop
endfacet
facet normal -0.740951 -0.671559 0.000000
outer loop
vertex 3.982324 3.982324 0.000000
vertex 3.982324 3.982324 0.050000
vertex 3.980677 3.984142 0.050000
endloop
endfacet
facet normal -0.741072 -0.671426 0.000000
outer loop
vertex 3.982324 3.982324 0.000000
vertex 3.980677 3.984142 0.050000
vertex 3.980677 3.984142 0.000000
endloop
endfacet
facet normal -0.740951 -0.671559 0.000000
outer loop
vertex 3.982324 3.982324 0.050000
vertex 3.982324 3.982324 0.100000
vertex 3.980677 3.984142 0.100000
endloop
endfacet
facet normal -0.741072 -0.671426 0.000000
outer loop
vertex 3.982324 3.982324 0.050000
vertex 3.980677 3.984142 0.100000
vertex 3.980677 3.984142 0.050000
endloop
endfacet
facet normal -0.803277 -0.595605 0.000000
outer loop
vertex 3.980677 3.984142 0.050000
vertex 3.980677 3.984142 0.100000
vertex 3.979216 3.986112 0.100000
endloop
endfacet
facet normal -0.803415 -0.595419 -0.000015
outer loop
vertex 3.980677 3.984142 0.050000
vertex 3.979216 3.986112 0.100000
vertex 3.979216 3.986113 0.050000
endloop
endfacet
facet normal -0.803415 -0.595419 0.000000
outer loop
vertex 3.980677 3.984142 0.000000
vertex 3.980677 3.984142 0.050000
vertex 3.979216 3.986113 0.050000
endloop
endfacet
facet normal -0.803277 -0.595605 0.000015
outer loop
vertex 3.980677 3.984142 0.000000
vertex 3.979216 3.986113 0.050000
vertex 3.979216 3.986112 0.000000
endloop
endfacet
facet normal -0.857364 -0.514710 0.000008
outer loop
vertex 3.979216 3.986112 0.000000
vertex 3.979216 3.986113 0.050000
vertex 3.977954 3.988216 0.050000
endloop
endfacet
facet normal -0.857784 -0.514010 -0.000022
outer loop
vertex 3.979216 3.986112 0.000000
vertex 3.977954 3.988216 0.050000
vertex 3.977955 3.988217 0.000000
endloop
endfacet
facet normal -0.857784 -0.514010 -0.000015
outer loop
vertex 3.979216 3.986113 0.050000
vertex 3.979216 3.986112 0.100000
vertex 3.977955 3.988217 0.100000
endloop
endfacet
facet normal -0.857364 -0.514710 0.000029
outer loop
vertex 3.979216 3.986113 0.050000
vertex 3.977955 3.988217 0.100000
vertex 3.977954 3.988216 0.050000
endloop
endfacet
facet normal -0.903842 -0.427867 0.000030
outer loop
vertex 3.977954 3.988216 0.050000
vertex 3.977955 3.988217 0.100000
vertex 3.976905 3.990434 0.100000
endloop
endfacet
facet normal -0.904007 -0.427518 0.000000
outer loop
vertex 3.977954 3.988216 0.050000
vertex 3.976905 3.990434 0.100000
vertex 3.976905 3.990434 0.050000
endloop
endfacet
facet normal -0.904007 -0.427518 -0.000030
outer loop
vertex 3.977955 3.988217 0.000000
vertex 3.977954 3.988216 0.050000
vertex 3.976905 3.990434 0.050000
endloop
endfacet
facet normal -0.903842 -0.427867 0.000000
outer loop
vertex 3.977955 3.988217 0.000000
vertex 3.976905 3.990434 0.050000
vertex 3.976905 3.990434 0.000000
endloop
endfacet
facet normal -0.941588 -0.336767 0.000000
outer loop
vertex 3.976905 3.990434 0.000000
vertex 3.976905 3.990434 0.050000
vertex 3.976079 3.992744 0.050000
endloop
endfacet
facet normal -0.941588 -0.336767 0.000000
outer loop
vertex 3.976905 3.990434 0.000000
vertex 3.976079 3.992744 0.050000
vertex 3.976079 3.992744 0.000000
endloop
endfacet
facet normal -0.941588 -0.336767 0.000000
outer loop
vertex 3.976905 3.990434 0.050000
vertex 3.976905 3.990434 0.100000
vertex 3.976079 3.992744 0.100000
endloop
endfacet
facet normal -0.941588 -0.336767 0.000000
outer loop
vertex 3.976905 3.990434 0.050000
vertex 3.976079 3.992744 0.100000
vertex 3.976079 3.992744 0.050000
endloop
endfacet
facet normal -0.970051 -0.242901 0.000000
outer loop
vertex 3.976079 3.992744 0.050000
vertex 3.976079 3.992744 0.100000
vertex 3.975483 3.995124 0.100000
endloop
endfacet
facet normal -0.970028 -0.242993 0.000004
outer loop
vertex 3.976079 3.992744 0.050000
vertex 3.975483 3.995124 0.100000
vertex 3.975483 3.995123 0.050000
endloop
endfacet
facet normal -0.970028 -0.242993 0.000000
outer loop
vertex 3.976079 3.992744 0.000000
vertex 3.976079 3.992744 0.050000
vertex 3.975483 3.995123 0.050000
endloop
endfacet
facet normal -0.970051 -0.242901 -0.000004
outer loop
vertex 3.976079 3.992744 0.000000
vertex 3.975483 3.995123 0.050000
vertex 3.975483 3.995124 0.000000
endloop
endfacet
facet normal -0.989169 -0.146781 -0.000002
outer loop
vertex 3.975483 3.995124 0.000000
vertex 3.975483 3.995123 0.050000
vertex 3.975123 3.997550 0.050000
endloop
endfacet
facet normal -0.989161 -0.146838 0.000000
outer loop
vertex 3.975483 3.995124 0.000000
vertex 3.975123 3.997550 0.050000
vertex 3.975123 3.997550 0.000000
endloop
endfacet
facet normal -0.989161 -0.146838 0.000002
outer loop
vertex 3.975483 3.995123 0.050000
vertex 3.975483 3.995124 0.100000
vertex 3.975123 3.997550 0.100000
endloop
endfacet
facet normal -0.989169 -0.146781 0.000000
outer loop
vertex 3.975483 3.995123 0.050000
vertex 3.975123 3.997550 0.100000
vertex 3.975123 3.997550 0.050000
endloop
endfacet
facet normal -0.998807 -0.048833 0.000000
outer loop
vertex 3.975123 3.997550 0.050000
vertex 3.975123 3.997550 0.100000
vertex 3.975003 4.000000 0.100000
endloop
endfacet
facet normal -0.998795 -0.049075 0.000000
outer loop
vertex 3.975123 3.997550 0.050000
vertex 3.975003 4.000000 0.100000
vertex 3.975003 4.000000 0.050000
endloop
endfacet
facet normal -0.998807 -0.048833 0.000000
outer loop
vertex 3.975123 3.997550 0.000000
vertex 3.975123 3.997550 0.050000
vertex 3.975003 4.000000 0.050000
endloop
endfacet
facet normal -0.998795 -0.049075 0.000000
outer loop
vertex 3.975123 3.997550 0.000000
vertex 3.975003 4.000000 0.050000
vertex 3.975003 4.000000 0.000000
endloop
endfacet
facet normal -0.998794 0.049103 0.000000
outer loop
vertex 3.975003 4.000000 0.000000
vertex 3.975003 4.000000 0.050000
vertex 3.975123 4.002449 0.050000
endloop
endfacet
facet normal -0.998806 0.048861 0.000000
outer loop
vertex 3.975003 4.000000 0.000000
vertex 3.975123 4.002449 0.050000
vertex 3.975123 4.002449 0.000000
endloop
endfacet
facet normal -0.998794 0.049103 0.000000
outer loop
vertex 3.975003 4.000000 0.050000
vertex 3.975003 4.000000 0.100000
vertex 3.975123 4.002449 0.100000
endloop
endfacet
facet normal -0.998806 0.048861 0.000000
outer loop
vertex 3.975003 4.000000 0.050000
vertex 3.975123 4.002449 0.100000
vertex 3.975123 4.002449 0.050000
endloop
endfacet
facet normal -0.989186 0.146668 0.000000
outer loop
vertex 3.975123 4.002449 0.050000
vertex 3.975123 4.002449 0.100000
vertex 3.975483 4.004877 0.100000
endloop
endfacet
facet normal -0.989186 0.146668 0.000000
outer loop
vertex 3.975123 4.002449 0.050000
vertex 3.975483 4.004877 0.100000
vertex 3.975483 4.004877 0.050000
endloop
endfacet
facet normal -0.989186 0.146668 0.000000
outer loop
vertex 3.975123 4.002449 0.000000
vertex 3.975123 4.002449 0.050000
vertex 3.975483 4.004877 0.050000
endloop
endfacet
facet normal -0.989186 0.146668 0.000000
outer loop
vertex 3.975123 4.002449 0.000000
vertex 3.975483 4.004877 0.050000
vertex 3.975483 4.004877 0.000000
endloop
endfacet
facet normal -0.970005 0.243085 0.000000
outer loop
vertex 3.975483 4.004877 0.000000
vertex 3.975483 4.004877 0.050000
vertex 3.976079 4.007256 0.050000
endloop
endfacet
facet normal -0.970028 0.242993 0.000004
outer loop
vertex 3.975483 4.004877 0.000000
vertex 3.976079 4.007256 0.050000
vertex 3.976079 4.007257 0.000000
endloop
endfacet
facet normal -0.970028 0.242993 0.000000
outer loop
vertex 3.975483 4.004877 0.050000
vertex 3.975483 4.004877 0.100000
vertex 3.976079 4.007257 0.100000
endloop
endfacet
facet normal -0.970005 0.243085 -0.000004
outer loop
vertex 3.975483 4.004877 0.050000
vertex 3.976079 4.007257 0.100000
vertex 3.976079 4.007256 0.050000
endloop
endfacet
facet normal -0.941390 0.337322 -0.000008
outer loop
vertex 3.976079 4.007256 0.050000
vertex 3.976079 4.007257 0.100000
vertex 3.976906 4.009565 0.100000
endloop
endfacet
facet normal -0.941511 0.336983 0.000000
outer loop
vertex 3.976079 4.007256 0.050000
vertex 3.976906 4.009565 0.100000
vertex 3.976906 4.009565 0.050000
endloop
endfacet
facet normal -0.941434 0.337198 0.000008
outer loop
vertex 3.976079 4.007257 0.000000
vertex 3.976079 4.007256 0.050000
vertex 3.976906 4.009565 0.050000
endloop
endfacet
facet normal -0.941467 0.337106 0.000000
outer loop
vertex 3.976079 4.007257 0.000000
vertex 3.976906 4.009565 0.050000
vertex 3.976906 4.009565 0.000000
endloop
endfacet
facet normal -0.904194 0.427121 0.000000
outer loop
vertex 3.976906 4.009565 0.000000
vertex 3.976906 4.009565 0.050000
vertex 3.977954 4.011784 0.050000
endloop
endfacet
facet normal -0.904007 0.427518 -0.000024
outer loop
vertex 3.976906 4.009565 0.000000
vertex 3.977954 4.011784 0.050000
vertex 3.977955 4.011784 0.000000
endloop
endfacet
facet normal -0.904007 0.427518 0.000000
outer loop
vertex 3.976906 4.009565 0.050000
vertex 3.976906 4.009565 0.100000
vertex 3.977955 4.011784 0.100000
endloop
endfacet
facet normal -0.904194 0.427121 0.000024
outer loop
vertex 3.976906 4.009565 0.050000
vertex 3.977955 4.011784 0.100000
vertex 3.977954 4.011784 0.050000
endloop
endfacet
facet normal -0.857682 0.514181 0.000015
outer loop
vertex 3.977954 4.011784 0.050000
vertex 3.977955 4.011784 0.100000
vertex 3.979216 4.013887 0.100000
endloop
endfacet
facet normal -0.857467 0.514539 0.000000
outer loop
vertex 3.977954 4.011784 0.050000
vertex 3.979216 4.013887 0.100000
vertex 3.979216 4.013887 0.050000
endloop
endfacet
facet normal -0.857467 0.514539 -0.000015
outer loop
vertex 3.977955 4.011784 0.000000
vertex 3.977954 4.011784 0.050000
vertex 3.979216 4.013887 0.050000
endloop
endfacet
facet normal -0.857682 0.514181 0.000000
outer loop
vertex 3.977955 4.011784 0.000000
vertex 3.979216 4.013887 0.050000
vertex 3.979216 4.013887 0.000000
endloop
endfacet
facet normal -0.803277 0.595605 0.000000
outer loop
vertex 3.979216 4.013887 0.000000
vertex 3.979216 4.013887 0.050000
vertex 3.980677 4.015858 0.050000
endloop
endfacet
facet normal -0.803277 0.595605 0.000000
outer loop
vertex 3.979216 4.013887 0.000000
vertex 3.980677 4.015858 0.050000
vertex 3.980677 4.015858 0.000000
endloop
endfacet
facet normal -0.803277 0.595605 0.000000
outer loop
vertex 3.979216 4.013887 0.050000
vertex 3.979216 4.013887 0.100000
vertex 3.980677 4.015858 0.100000
endloop
endfacet
facet normal -0.803277 0.595605 0.000000
outer loop
vertex 3.979216 4.013887 0.050000
vertex 3.980677 4.015858 0.100000
vertex 3.980677 4.015858 0.050000
endloop
endfacet
facet normal -0.741071 0.671426 0.000000
outer loop
vertex 3.980677 4.015858 0.050000
vertex 3.980677 4.015858 0.100000
vertex 3.982324 4.017675 0.100000
endloop
endfacet
facet normal -0.740951 0.671559 0.000000
outer loop
vertex 3.980677 4.015858 0.050000
vertex 3.982324 4.017675 0.100000
vertex 3.982324 4.017675 0.050000
endloop
endfacet
facet normal -0.741072 0.671426 0.000000
outer loop
vertex 3.980677 4.015858 0.000000
vertex 3.980677 4.015858 0.050000
vertex 3.982324 4.017675 0.050000
endloop
endfacet
facet normal -0.740951 0.671559 0.000000
outer loop
vertex 3.980677 4.015858 0.000000
vertex 3.982324 4.017675 0.050000
vertex 3.982324 4.017675 0.000000
endloop
endfacet
facet normal -0.671525 0.740982 0.000000
outer loop
vertex 3.982324 4.017675 0.000000
vertex 3.982324 4.017675 0.050000
vertex 3.984142 4.019322 0.050000
endloop
endfacet
facet normal -0.671618 0.740898 0.000015
outer loop
vertex 3.982324 4.017675 0.000000
vertex 3.984142 4.019322 0.050000
vertex 3.984142 4.019323 0.000000
endloop
endfacet
facet normal -0.671739 0.740788 0.000000
outer loop
vertex 3.982324 4.017675 0.050000
vertex 3.982324 4.017675 0.100000
vertex 3.984142 4.019323 0.100000
endloop
endfacet
facet normal -0.671404 0.741091 -0.000015
outer loop
vertex 3.982324 4.017675 0.050000
vertex 3.984142 4.019323 0.100000
vertex 3.984142 4.019322 0.050000
endloop
endfacet
facet normal -0.595706 0.803202 -0.000015
outer loop
vertex 3.984142 4.019322 0.050000
vertex 3.984142 4.019323 0.100000
vertex 3.986112 4.020784 0.100000
endloop
endfacet
facet normal -0.595608 0.803275 -0.000019
outer loop
vertex 3.984142 4.019322 0.050000
vertex 3.986112 4.020784 0.100000
vertex 3.986113 4.020784 0.050000
endloop
endfacet
facet normal -0.595725 0.803189 0.000015
outer loop
vertex 3.984142 4.019323 0.000000
vertex 3.984142 4.019322 0.050000
vertex 3.986113 4.020784 0.050000
endloop
endfacet
facet normal -0.595590 0.803289 0.000019
outer loop
vertex 3.984142 4.019323 0.000000
vertex 3.986113 4.020784 0.050000
vertex 3.986112 4.020784 0.000000
endloop
endfacet
facet normal -0.514496 0.857493 0.000015
outer loop
vertex 3.986112 4.020784 0.000000
vertex 3.986113 4.020784 0.050000
vertex 3.988216 4.022046 0.050000
endloop
endfacet
facet normal -0.514174 0.857686 -0.000009
outer loop
vertex 3.986112 4.020784 0.000000
vertex 3.988216 4.022046 0.050000
vertex 3.988217 4.022046 0.000000
endloop
endfacet
facet normal -0.514174 0.857686 -0.000015
outer loop
vertex 3.986113 4.020784 0.050000
vertex 3.986112 4.020784 0.100000
vertex 3.988217 4.022046 0.100000
endloop
endfacet
facet normal -0.514496 0.857493 0.000009
outer loop
vertex 3.986113 4.020784 0.050000
vertex 3.988217 4.022046 0.100000
vertex 3.988216 4.022046 0.050000
endloop
endfacet
facet normal -0.427351 0.904086 0.000000
outer loop
vertex 3.988216 4.022046 0.050000
vertex 3.988217 4.022046 0.100000
vertex 3.990434 4.023094 0.100000
endloop
endfacet
facet normal -0.427257 0.904130 0.000000
outer loop
vertex 3.988216 4.022046 0.050000
vertex 3.990434 4.023094 0.100000
vertex 3.990434 4.023094 0.050000
endloop
endfacet
facet normal -0.427257 0.904130 0.000000
outer loop
vertex 3.988217 4.022046 0.000000
vertex 3.988216 4.022046 0.050000
vertex 3.990434 4.023094 0.050000
endloop
endfacet
facet normal -0.427351 0.904086 0.000000
outer loop
vertex 3.988217 4.022046 0.000000
vertex 3.990434 4.023094 0.050000
vertex 3.990434 4.023094 0.000000
endloop
endfacet
facet normal 0.000008 0.000000 1.000000
outer loop
vertex 4.004878 4.024520 0.100000
vertex 4.002450 4.024877 0.100000
vertex 4.000001 4.000001 0.100000
endloop
endfacet
facet normal 0.000000 0.000000 1.000000
outer loop
vertex 4.004878 4.024520 0.100000
vertex 4.000001 4.000001 0.100000
vertex 4.007257 4.023920 0.100000
endloop
endfacet
facet normal 0.000000 0.000000 1.000000
outer loop
vertex 4.000000 4.025000 0.100000
vertex 3.997550 4.024877 0.100000
vertex 4.000001 4.000001 0.100000
endloop
endfacet
facet normal 0.000000 0.000000 1.000000
outer loop
vertex 4.000000 4.025000 0.100000
vertex 4.000001 4.000001 0.100000
vertex 4.002450 4.024877 0.100000
endloop
endfacet
facet normal 0.000000 0.000000 1.000000
outer loop
vertex 3.995123 4.024520 0.100000
vertex 3.992744 4.023920 0.100000
vertex 4.000001 4.000001 0.100000
endloop
endfacet
facet normal -0.000008 0.000000 1.000000
outer loop
vertex 3.995123 4.024520 0.100000
vertex 4.000001 4.000001 0.100000
vertex 3.997550 4.024877 0.100000
endloop
endfacet
facet normal 0.000008 0.000000 1.000000
outer loop
vertex 3.990433 4.023096 0.100000
vertex 3.988216 4.022046 0.100000
vertex 4.000001 4.000001 0.100000
endloop
endfacet
facet normal -0.000008 0.000000 1.000000
outer loop
vertex 3.990433 4.023096 0.100000
vertex 4.000001 4.000001 0.100000
vertex 3.992744 4.023920 0.100000
endloop
endfacet
facet normal 0.000000 0.000000 1.000000
outer loop
vertex 3.986111 4.020786 0.100000
vertex 3.984142 4.019323 0.100000
vertex 4.000001 4.000001 0.100000
endloop
endfacet
facet normal 0.000000 0.000000 1.000000
outer loop
vertex 3.986111 4.020786 0.100000
vertex 4.000001 4.000001 0.100000
vertex 3.988216 4.022046 0.100000
endloop
endfacet
facet normal 0.000004 0.000000 1.000000
outer loop
vertex 3.982323 4.017677 0.100000
vertex 3.980677 4.015858 0.100000
vertex 4.000001 4.000001 0.100000
endloop
endfacet
facet normal 0.000000 0.000000 1.000000
outer loop
vertex 3.982323 4.017677 0.100000
vertex 4.000001 4.000001 0.100000
vertex 3.984142 4.019323 0.100000
endloop
endfacet
facet normal -0.000004 0.000000 1.000000
outer loop
vertex 3.979213 4.013888 0.100000
vertex 3.977955 4.011784 0.100000
vertex 4.000001 4.000001 0.100000
endloop
endfacet
facet normal 0.000000 0.000000 1.000000
outer loop
vertex 3.979213 4.013888 0.100000
vertex 4.000001 4.000001 0.100000
vertex 3.980677 4.015858 0.100000
endloop
endfacet
facet normal 0.000000 0.000000 1.000000
outer loop
vertex 3.976903 4.009566 0.100000
vertex 3.976079 4.007257 0.100000
vertex 4.000001 4.000001 0.100000
endloop
endfacet
facet normal 0.000000 0.000000 1.000000
outer loop
vertex 3.976903 4.009566 0.100000
vertex 4.000001 4.000001 0.100000
vertex 3.977955 4.011784 0.100000
endloop
endfacet
facet normal 0.000000 0.000000 1.000000
outer loop
vertex 3.975481 4.004877 0.100000
vertex 3.975123 4.002449 0.100000
vertex 4.000001 4.000001 0.100000
endloop
endfacet
facet normal 0.000002 0.000000 1.000000
outer loop
vertex 3.975481 4.004877 0.100000
vertex 4.000001 4.000001 0.100000
vertex 3.976079 4.007257 0.100000
endloop
endfacet
facet normal 0.000000 0.000000 1.000000
outer loop
vertex 3.975000 4.000000 0.100000
vertex 3.975123 3.997550 0.100000
vertex 4.000001 4.000001 0.100000
endloop
endfacet
facet normal 0.000000 0.000000 1.000000
outer loop
vertex 3.975000 4.000000 0.100000
vertex 4.000001 4.000001 0.100000
vertex 3.975123 4.002449 0.100000
endloop
endfacet
facet normal 0.000000 0.000000 1.000000
outer loop
vertex 3.975481 3.995123 0.100000
vertex 3.976079 3.992744 0.100000
vertex 4.000001 4.000001 0.100000
endloop
endfacet
facet normal 0.000001 0.000000 1.000000
outer loop
vertex 3.975481 3.995123 0.100000
vertex 4.000001 4.000001 0.100000
vertex 3.975123 3.997550 0.100000
endloop
endfacet
facet normal 0.000000 0.000000 1.000000
outer loop
vertex 3.976903 3.990433 0.100000
vertex 3.977954 3.988216 0.100000
vertex 4.000001 4.000001 0.100000
endloop
endfacet
facet normal 0.000000 0.000000 1.000000
outer loop
vertex 3.976903 3.990433 0.100000
vertex 4.000001 4.000001 0.100000
vertex 3.976079 3.992744 0.100000
endloop
endfacet
facet normal 0.000000 0.000000 1.000000
outer loop
vertex 3.979213 3.986111 0.100000
vertex 3.980677 3.984142 0.100000
vertex 4.000001 4.000001 0.100000
endloop
endfacet
facet normal -0.000004 0.000000 1.000000
outer loop
vertex 3.979213 3.986111 0.100000
vertex 4.000001 4.000001 0.100000
vertex 3.977954 3.988216 0.100000
endloop
endfacet
facet normal 0.000000 0.000000 1.000000
outer loop
vertex 3.982323 3.982323 0.100000
vertex 3.984142 3.980677 0.100000
vertex 4.000001 4.000001 0.100000
endloop
endfacet
facet normal 0.000000 0.000000 1.000000
outer loop
vertex 3.982323 3.982323 0.100000
vertex 4.000001 4.000001 0.100000
vertex 3.980677 3.984142 0.100000
endloop
endfacet
facet normal -0.000008 0.000000 1.000000
outer loop
vertex 3.986111 3.979213 0.100000
vertex 3.988217 3.977955 0.100000
vertex 4.000001 4.000001 0.100000
endloop
endfacet
facet normal 0.000000 0.000000 1.000000
outer loop
vertex 3.986111 3.979213 0.100000
vertex 4.000001 4.000001 0.100000
vertex 3.984142 3.980677 0.100000
endloop
endfacet
facet normal 0.000000 0.000000 1.000000
outer loop
vertex 3.990433 3.976903 0.100000
vertex 3.992744 3.976079 0.100000
vertex 4.000001 4.000001 0.100000
endloop
endfacet
facet normal 0.000008 0.000000 1.000000
outer loop
vertex 3.990433 3.976903 0.100000
vertex 4.000001 4.000001 0.100000
vertex 3.988217 3.977955 0.100000
endloop
endfacet
facet normal 0.000000 0.000000 1.000000
outer loop
vertex 3.995123 3.975482 0.100000
vertex 3.997550 3.975123 0.100000
vertex 4.000001 4.000001 0.100000
endloop
endfacet
facet normal 0.000000 0.000000 1.000000
outer loop
vertex 3.995123 3.975482 0.100000
vertex 4.000001 4.000001 0.100000
vertex 3.992744 3.976079 0.100000
endloop
endfacet
facet normal 0.000000 0.000000 1.000000
outer loop
vertex 4.000000 3.975000 0.100000
vertex 4.002450 3.975123 0.100000
vertex 4.000001 4.000001 0.100000
endloop
endfacet
facet normal 0.000000 0.000000 1.000000
outer loop
vertex 4.000000 3.975000 0.100000
vertex 4.000001 4.000001 0.100000
vertex 3.997550 3.975123 0.100000
endloop
endfacet
facet normal 0.000000 0.000000 1.000000
outer loop
vertex 4.004878 3.975482 0.100000
vertex 4.007257 3.976079 0.100000
vertex 4.000001 4.000001 0.100000
endloop
endfacet
facet normal 0.000000 0.000000 1.000000
outer loop
vertex 4.004878 3.975482 0.100000
vertex 4.000001 4.000001 0.100000
vertex 4.002450 3.975123 0.100000
endloop
endfacet
facet normal 0.000000 0.000000 1.000000
outer loop
vertex 4.009567 3.976903 0.100000
vertex 4.011784 3.977954 0.100000
vertex 4.000001 4.000001 0.100000
endloop
endfacet
facet normal 0.000000 0.000000 1.000000
outer loop
vertex 4.009567 3.976903 0.100000
vertex 4.000001 4.000001 0.100000
vertex 4.007257 3.976079 0.100000
endloop
endfacet
facet normal 0.000000 0.000000 1.000000
outer loop
vertex 4.013889 3.979213 0.100000
vertex 4.015858 3.980677 0.100000
vertex 4.000001 4.000001 0.100000
endloop
endfacet
facet normal 0.000000 0.000000 1.000000
outer loop
vertex 4.013889 3.979213 0.100000
vertex 4.000001 4.000001 0.100000
vertex 4.011784 3.977954 0.100000
endloop
endfacet
facet normal 0.000000 0.000000 1.000000
outer loop
vertex 4.017677 3.982323 0.100000
vertex 4.019323 3.984142 0.100000
vertex 4.000001 4.000001 0.100000
endloop
endfacet
facet normal 0.000000 0.000000 1.000000
outer loop
vertex 4.017677 3.982323 0.100000
vertex 4.000001 4.000001 0.100000
vertex 4.015858 3.980677 0.100000
endloop
endfacet
facet normal 0.000000 0.000000 1.000000
outer loop
vertex 4.020786 3.986111 0.100000
vertex 4.022046 3.988217 0.100000
vertex 4.000001 4.000001 0.100000
endloop
endfacet
facet normal 0.000000 0.000000 1.000000
outer loop
vertex 4.020786 3.986111 0.100000
vertex 4.000001 4.000001 0.100000
vertex 4.019323 3.984142 0.100000
endloop
endfacet
facet normal 0.000000 0.000000 1.000000
outer loop
vertex 4.023097 3.990433 0.100000
vertex 4.023921 3.992744 0.100000
vertex 4.000001 4.000001 0.100000
endloop
endfacet
facet normal 0.000000 0.000000 1.000000
outer loop
vertex 4.023097 3.990433 0.100000
vertex 4.000001 4.000001 0.100000
vertex 4.022046 3.988217 0.100000
endloop
endfacet
facet normal -0.000001 0.000000 1.000000
outer loop
vertex 4.024520 3.995123 0.100000
vertex 4.024878 3.997550 0.100000
vertex 4.000001 4.000001 0.100000
endloop
endfacet
facet normal 0.000000 0.000000 1.000000
outer loop
vertex 4.024520 3.995123 0.100000
vertex 4.000001 4.000001 0.100000
vertex 4.023921 3.992744 0.100000
endloop
endfacet
facet normal 0.000000 0.000000 1.000000
outer loop
vertex 4.025000 4.000000 0.100000
vertex 4.024878 4.002449 0.100000
vertex 4.000001 4.000001 0.100000
endloop
endfacet
facet normal 0.000000 0.000000 1.000000
outer loop
vertex 4.025000 4.000000 0.100000
vertex 4.000001 4.000001 0.100000
vertex 4.024878 3.997550 0.100000
endloop
endfacet
facet normal -0.000002 0.000000 1.000000
outer loop
vertex 4.024520 4.004877 0.100000
vertex 4.023921 4.007257 0.100000
vertex 4.000001 4.000001 0.100000
endloop
endfacet
facet normal 0.000000 0.000000 1.000000
outer loop
vertex 4.024520 4.004877 0.100000
vertex 4.000001 4.000001 0.100000
vertex 4.024878 4.002449 0.100000
endloop
endfacet
facet normal 0.000000 0.000000 1.000000
outer loop
vertex 4.023097 4.009566 0.100000
vertex 4.022046 4.011784 0.100000
vertex 4.000001 4.000001 0.100000
endloop
endfacet
facet normal 0.000000 0.000000 1.000000
outer loop
vertex 4.023097 4.009566 0.100000
vertex 4.000001 4.000001 0.100000
vertex 4.023921 4.007257 0.100000
endloop
endfacet
facet normal 0.000000 0.000000 1.000000
outer loop
vertex 4.020786 4.013888 0.100000
vertex 4.019323 4.015858 0.100000
vertex 4.000001 4.000001 0.100000
endloop
endfacet
facet normal 0.000004 0.000000 1.000000
outer loop
vertex 4.020786 4.013888 0.100000
vertex 4.000001 4.000001 0.100000
vertex 4.022046 4.011784 0.100000
endloop
endfacet
facet normal 0.000000 0.000000 1.000000
outer loop
vertex 4.017677 4.017677 0.100000
vertex 4.015858 4.019323 0.100000
vertex 4.000001 4.000001 0.100000
endloop
endfacet
facet normal -0.000004 0.000000 1.000000
outer loop
vertex 4.017677 4.017677 0.100000
vertex 4.000001 4.000001 0.100000
vertex 4.019323 4.015858 0.100000
endloop
endfacet
facet normal 0.000000 0.000000 1.000000
outer loop
vertex 4.013889 4.020786 0.100000
vertex 4.011784 4.022046 0.100000
vertex 4.000001 4.000001 0.100000
endloop
endfacet
facet normal 0.000000 0.000000 1.000000
outer loop
vertex 4.013889 4.020786 0.100000
vertex 4.000001 4.000001 0.100000
vertex 4.015858 4.019323 0.100000
endloop
endfacet
facet normal 0.000008 0.000000 1.000000
outer loop
vertex 4.009567 4.023096 0.100000
vertex 4.007257 4.023920 0.100000
vertex 4.000001 4.000001 0.100000
endloop
endfacet
facet normal -0.000008 0.000000 1.000000
outer loop
vertex 4.009567 4.023096 0.100000
vertex 4.000001 4.000001 0.100000
vertex 4.011784 4.022046 0.100000
endloop
endfacet
facet normal -0.336620 0.941641 0.000000
outer loop
vertex 3.990434 4.023094 0.000000
vertex 3.990434 4.023094 0.050000
vertex 3.992744 4.023920 0.050000
endloop
endfacet
facet normal -0.336697 0.941613 0.000000
outer loop
vertex 3.990434 4.023094 0.000000
vertex 3.992744 4.023920 0.050000
vertex 3.992744 4.023920 0.000000
endloop
endfacet
facet normal -0.336619 0.941641 0.000000
outer loop
vertex 3.990434 4.023094 0.050000
vertex 3.990434 4.023094 0.100000
vertex 3.992744 4.023920 0.100000
endloop
endfacet
facet normal -0.336697 0.941613 0.000000
outer loop
vertex 3.990434 4.023094 0.050000
vertex 3.992744 4.023920 0.100000
vertex 3.992744 4.023920 0.050000
endloop
endfacet
facet normal -0.243301 0.969951 0.000000
outer loop
vertex 3.992744 4.023920 0.050000
vertex 3.992744 4.023920 0.100000
vertex 3.995124 4.024517 0.100000
endloop
endfacet
facet normal -0.243416 0.969922 0.000002
outer loop
vertex 3.992744 4.023920 0.050000
vertex 3.995124 4.024517 0.100000
vertex 3.995123 4.024517 0.050000
endloop
endfacet
facet normal -0.243416 0.969922 0.000000
outer loop
vertex 3.992744 4.023920 0.000000
vertex 3.992744 4.023920 0.050000
vertex 3.995123 4.024517 0.050000
endloop
endfacet
facet normal -0.243301 0.969951 -0.000002
outer loop
vertex 3.992744 4.023920 0.000000
vertex 3.995123 4.024517 0.050000
vertex 3.995124 4.024517 0.000000
endloop
endfacet
facet normal -0.146535 0.989206 0.000000
outer loop
vertex 3.995124 4.024517 0.000000
vertex 3.995123 4.024517 0.050000
vertex 3.997550 4.024877 0.050000
endloop
endfacet
facet normal -0.146605 0.989195 0.000000
outer loop
vertex 3.995124 4.024517 0.000000
vertex 3.997550 4.024877 0.050000
vertex 3.997550 4.024877 0.000000
endloop
endfacet
facet normal -0.146605 0.989195 0.000000
outer loop
vertex 3.995123 4.024517 0.050000
vertex 3.995124 4.024517 0.100000
vertex 3.997550 4.024877 0.100000
endloop
endfacet
facet normal -0.146535 0.989206 0.000000
outer loop
vertex 3.995123 4.024517 0.050000
vertex 3.997550 4.024877 0.100000
vertex 3.997550 4.024877 0.050000
endloop
endfacet
facet normal -0.049368 0.998781 0.000000
outer loop
vertex 3.997550 4.024877 0.050000
vertex 3.997550 4.024877 0.100000
vertex 4.000000 4.024998 0.100000
endloop
endfacet
facet normal -0.049380 0.998780 0.000000
outer loop
vertex 3.997550 4.024877 0.050000
vertex 4.000000 4.024998 0.100000
vertex 4.000000 4.024998 0.050000
endloop
endfacet
facet normal -0.049368 0.998781 0.000000
outer loop
vertex 3.997550 4.024877 0.000000
vertex 3.997550 4.024877 0.050000
vertex 4.000000 4.024998 0.050000
endloop
endfacet
facet normal -0.049380 0.998780 0.000000
outer loop
vertex 3.997550 4.024877 0.000000
vertex 4.000000 4.024998 0.050000
vertex 4.000000 4.024998 0.000000
endloop
endfacet
facet normal 0.000000 0.000000 -1.000000
outer loop
vertex 4.000000 4.025000 0.000000
vertex 4.002450 4.024877 0.000000
vertex 4.000001 4.000001 0.000000
endloop
endfacet
facet normal 0.000000 0.000000 -1.000000
outer loop
vertex 4.000000 4.025000 0.000000
vertex 4.000001 4.000001 0.000000
vertex 3.997550 4.024877 0.000000
endloop
endfacet
facet normal 0.000000 0.000000 -1.000000
outer loop
vertex 4.004878 4.024520 0.000000
vertex 4.007257 4.023920 0.000000
vertex 4.000001 4.000001 0.000000
endloop
endfacet
facet normal 0.000000 0.000000 -1.000000
outer loop
vertex 4.004878 4.024520 0.000000
vertex 4.000001 4.000001 0.000000
vertex 4.002450 4.024877 0.000000
endloop
endfacet
facet normal 0.000000 0.000000 -1.000000
outer loop
vertex 4.009567 4.023096 0.000000
vertex 4.011784 4.022046 0.000000
vertex 4.000001 4.000001 0.000000
endloop
endfacet
facet normal 0.000000 0.000000 -1.000000
outer loop
vertex 4.009567 4.023096 0.000000
vertex 4.000001 4.000001 0.000000
vertex 4.007257 4.023920 0.000000
endloop
endfacet
facet normal 0.000000 0.000000 -1.000000
outer loop
vertex 4.013889 4.020786 0.000000
vertex 4.015858 4.019323 0.000000
vertex 4.000001 4.000001 0.000000
endloop
endfacet
facet normal 0.000000 0.000000 -1.000000
outer loop
vertex 4.013889 4.020786 0.000000
vertex 4.000001 4.000001 0.000000
vertex 4.011784 4.022046 0.000000
endloop
endfacet
facet normal 0.000000 0.000000 -1.000000
outer loop
vertex 4.017677 4.017677 0.000000
vertex 4.019323 4.015858 0.000000
vertex 4.000001 4.000001 0.000000
endloop
endfacet
facet normal 0.000000 0.000000 -1.000000
outer loop
vertex 4.017677 4.017677 0.000000
vertex 4.000001 4.000001 0.000000
vertex 4.015858 4.019323 0.000000
endloop
endfacet
facet normal 0.000000 0.000000 -1.000000
outer loop
vertex 4.020786 4.013888 0.000000
vertex 4.022046 4.011784 0.000000
vertex 4.000001 4.000001 0.000000
endloop
endfacet
facet normal 0.000000 0.000000 -1.000000
outer loop
vertex 4.020786 4.013888 0.000000
vertex 4.000001 4.000001 0.000000
vertex 4.019323 4.015858 0.000000
endloop
endfacet
facet normal 0.000000 0.000000 -1.000000
outer loop
vertex 4.023097 4.009566 0.000000
vertex 4.023921 4.007257 0.000000
vertex 4.000001 4.000001 0.000000
endloop
endfacet
facet normal 0.000000 0.000000 -1.000000
outer loop
vertex 4.023097 4.009566 0.000000
vertex 4.000001 4.000001 0.000000
vertex 4.022046 4.011784 0.000000
endloop
endfacet
facet normal 0.000000 0.000000 -1.000000
outer loop
vertex 4.024520 4.004877 0.000000
vertex 4.024878 4.002449 0.000000
vertex 4.000001 4.000001 0.000000
endloop
endfacet
facet normal 0.000000 0.000000 -1.000000
outer loop
vertex 4.024520 4.004877 0.000000
vertex 4.000001 4.000001 0.000000
vertex 4.023921 4.007257 0.000000
endloop
endfacet
facet normal 0.000000 0.000000 -1.000000
outer loop
vertex 4.025000 4.000000 0.000000
vertex 4.024878 3.997550 0.000000
vertex 4.000001 4.000001 0.000000
endloop
endfacet
facet normal 0.000000 0.000000 -1.000000
outer loop
vertex 4.025000 4.000000 0.000000
vertex 4.000001 4.000001 0.000000
vertex 4.024878 4.002449 0.000000
endloop
endfacet
facet normal 0.000000 0.000000 -1.000000
outer loop
vertex 4.024520 3.995123 0.000000
vertex 4.023921 3.992744 0.000000
vertex 4.000001 4.000001 0.000000
endloop
endfacet
facet normal 0.000000 0.000000 -1.000000
outer loop
vertex 4.024520 3.995123 0.000000
vertex 4.000001 4.000001 0.000000
vertex 4.024878 3.997550 0.000000
endloop
endfacet
facet normal 0.000000 0.000000 -1.000000
outer loop
vertex 4.023097 3.990433 0.000000
vertex 4.022046 3.988216 0.000000
vertex 4.000001 4.000001 0.000000
endloop
endfacet
facet normal 0.000000 0.000000 -1.000000
outer loop
vertex 4.023097 3.990433 0.000000
vertex 4.000001 4.000001 0.000000
vertex 4.023921 3.992744 0.000000
endloop
endfacet
facet normal 0.000000 0.000000 -1.000000
outer loop
vertex 4.020786 3.986111 0.000000
vertex 4.019323 3.984142 0.000000
vertex 4.000001 4.000001 0.000000
endloop
endfacet
facet normal 0.000000 0.000000 -1.000000
outer loop
vertex 4.020786 3.986111 0.000000
vertex 4.000001 4.000001 0.000000
vertex 4.022046 3.988216 0.000000
endloop
endfacet
facet normal 0.000000 0.000000 -1.000000
outer loop
vertex 4.017677 3.982323 0.000000
vertex 4.015858 3.980677 0.000000
vertex 4.000001 4.000001 0.000000
endloop
endfacet
facet normal 0.000000 0.000000 -1.000000
outer loop
vertex 4.017677 3.982323 0.000000
vertex 4.000001 4.000001 0.000000
vertex 4.019323 3.984142 0.000000
endloop
endfacet
facet normal 0.000000 0.000000 -1.000000
outer loop
vertex 4.013889 3.979213 0.000000
vertex 4.011784 3.977954 0.000000
vertex 4.000001 4.000001 0.000000
endloop
endfacet
facet normal 0.000000 0.000000 -1.000000
outer loop
vertex 4.013889 3.979213 0.000000
vertex 4.000001 4.000001 0.000000
vertex 4.015858 3.980677 0.000000
endloop
endfacet
facet normal 0.000000 0.000000 -1.000000
outer loop
vertex 4.009567 3.976903 0.000000
vertex 4.007257 3.976079 0.000000
vertex 4.000001 4.000001 0.000000
endloop
endfacet
facet normal 0.000000 0.000000 -1.000000
outer loop
vertex 4.009567 3.976903 0.000000
vertex 4.000001 4.000001 0.000000
vertex 4.011784 3.977954 0.000000
endloop
endfacet
facet normal 0.000000 0.000000 -1.000000
outer loop
vertex 4.004878 3.975482 0.000000
vertex 4.002450 3.975123 0.000000
vertex 4.000001 4.000001 0.000000
endloop
endfacet
facet normal 0.000000 0.000000 -1.000000
outer loop
vertex 4.004878 3.975482 0.000000
vertex 4.000001 4.000001 0.000000
vertex 4.007257 3.976079 0.000000
endloop
endfacet
facet normal 0.000000 0.000000 -1.000000
outer loop
vertex 4.000000 3.975000 0.000000
vertex 3.997550 3.975123 0.000000
vertex 4.000001 4.000001 0.000000
endloop
endfacet
facet normal 0.000000 0.000000 -1.000000
outer loop
vertex 4.000000 3.975000 0.000000
vertex 4.000001 4.000001 0.000000
vertex 4.002450 3.975123 0.000000
endloop
endfacet
facet normal 0.000000 0.000000 -1.000000
outer loop
vertex 3.995123 3.975482 0.000000
vertex 3.992744 3.976079 0.000000
vertex 4.000001 4.000001 0.000000
endloop
endfacet
facet normal 0.000000 0.000000 -1.000000
outer loop
vertex 3.995123 3.975482 0.000000
vertex 4.000001 4.000001 0.000000
vertex 3.997550 3.975123 0.000000
endloop
endfacet
facet normal 0.000000 0.000000 -1.000000
outer loop
vertex 3.990433 3.976903 0.000000
vertex 3.988216 3.977954 0.000000
vertex 4.000001 4.000001 0.000000
endloop
endfacet
facet normal 0.000000 0.000000 -1.000000
outer loop
vertex 3.990433 3.976903 0.000000
vertex 4.000001 4.000001 0.000000
vertex 3.992744 3.976079 0.000000
endloop
endfacet
facet normal 0.000000 0.000000 -1.000000
outer loop
vertex 3.986111 3.979213 0.000000
vertex 3.984142 3.980677 0.000000
vertex 4.000001 4.000001 0.000000
endloop
endfacet
facet normal 0.000000 0.000000 -1.000000
outer loop
vertex 3.986111 3.979213 0.000000
vertex 4.000001 4.000001 0.000000
vertex 3.988216 3.977954 0.000000
endloop
endfacet
facet normal 0.000000 0.000000 -1.000000
outer loop
vertex 3.982323 3.982323 0.000000
vertex 3.980677 3.984142 0.000000
vertex 4.000001 4.000001 0.000000
endloop
endfacet
facet normal 0.000000 0.000000 -1.000000
outer loop
vertex 3.982323 3.982323 0.000000
vertex 4.000001 4.000001 0.000000
vertex 3.984142 3.980677 0.000000
endloop
endfacet
facet normal 0.000000 0.000000 -1.000000
outer loop
vertex 3.979213 3.986111 0.000000
vertex 3.977954 3.988217 0.000000
vertex 4.000001 4.000001 0.000000
endloop
endfacet
facet normal 0.000000 0.000000 -1.000000
outer loop
vertex 3.979213 3.986111 0.000000
vertex 4.000001 4.000001 0.000000
vertex 3.980677 3.984142 0.000000
endloop
endfacet
facet normal 0.000000 0.000000 -1.000000
outer loop
vertex 3.976903 3.990433 0.000000
vertex 3.976079 3.992744 0.000000
vertex 4.000001 4.000001 0.000000
endloop
endfacet
facet normal 0.000000 0.000000 -1.000000
outer loop
vertex 3.976903 3.990433 0.000000
vertex 4.000001 4.000001 0.000000
vertex 3.977954 3.988217 0.000000
endloop
endfacet
facet normal 0.000000 0.000000 -1.000000
outer loop
vertex 3.975481 3.995123 0.000000
vertex 3.975123 3.997550 0.000000
vertex 4.000001 4.000001 0.000000
endloop
endfacet
facet normal 0.000000 0.000000 -1.000000
outer loop
vertex 3.975481 3.995123 0.000000
vertex 4.000001 4.000001 0.000000
vertex 3.976079 3.992744 0.000000
endloop
endfacet
facet normal 0.000000 0.000000 -1.000000
outer loop
vertex 3.975000 4.000000 0.000000
vertex 3.975123 4.002449 0.000000
vertex 4.000001 4.000001 0.000000
endloop
endfacet
facet normal 0.000000 0.000000 -1.000000
outer loop
vertex 3.975000 4.000000 0.000000
vertex 4.000001 4.000001 0.000000
vertex 3.975123 3.997550 0.000000
endloop
endfacet
facet normal 0.000000 0.000000 -1.000000
outer loop
vertex 3.975481 4.004877 0.000000
vertex 3.976079 4.007257 0.000000
vertex 4.000001 4.000001 0.000000
endloop
endfacet
facet normal 0.000000 0.000000 -1.000000
outer loop
vertex 3.975481 4.004877 0.000000
vertex 4.000001 4.000001 0.000000
vertex 3.975123 4.002449 0.000000
endloop
endfacet
facet normal 0.000000 0.000000 -1.000000
outer loop
vertex 3.976903 4.009566 0.000000
vertex 3.977954 4.011784 0.000000
vertex 4.000001 4.000001 0.000000
endloop
endfacet
facet normal 0.000000 0.000000 -1.000000
outer loop
vertex 3.976903 4.009566 0.000000
vertex 4.000001 4.000001 0.000000
vertex 3.976079 4.007257 0.000000
endloop
endfacet
facet normal 0.000000 0.000000 -1.000000
outer loop
vertex 3.979213 4.013888 0.000000
vertex 3.980677 4.015858 0.000000
vertex 4.000001 4.000001 0.000000
endloop
endfacet
facet normal 0.000000 0.000000 -1.000000
outer loop
vertex 3.979213 4.013888 0.000000
vertex 4.000001 4.000001 0.000000
vertex 3.977954 4.011784 0.000000
endloop
endfacet
facet normal 0.000000 0.000000 -1.000000
outer loop
vertex 3.982323 4.017677 0.000000
vertex 3.984142 4.019323 0.000000
vertex 4.000001 4.000001 0.000000
endloop
endfacet
facet normal 0.000000 0.000000 -1.000000
outer loop
vertex 3.982323 4.017677 0.000000
vertex 4.000001 4.000001 0.000000
vertex 3.980677 4.015858 0.000000
endloop
endfacet
facet normal 0.000000 0.000000 -1.000000
outer loop
vertex 3.986111 4.020786 0.000000
vertex 3.988217 4.022046 0.000000
vertex 4.000001 4.000001 0.000000
endloop
endfacet
facet normal 0.000000 0.000000 -1.000000
outer loop
vertex 3.986111 4.020786 0.000000
vertex 4.000001 4.000001 0.000000
vertex 3.984142 4.019323 0.000000
endloop
endfacet
facet normal 0.000000 0.000000 -1.000000
outer loop
vertex 3.990433 4.023096 0.000000
vertex 3.992744 4.023920 0.000000
vertex 4.000001 4.000001 0.000000
endloop
endfacet
facet normal 0.000000 0.000000 -1.000000
outer loop
vertex 3.990433 4.023096 0.000000
vertex 4.000001 4.000001 0.000000
vertex 3.988217 4.022046 0.000000
endloop
endfacet
facet normal 0.000000 0.000000 -1.000000
outer loop
vertex 3.995123 4.024520 0.000000
vertex 3.997550 4.024877 0.000000
vertex 4.000001 4.000001 0.000000
endloop
endfacet
facet normal 0.000000 0.000000 -1.000000
outer loop
vertex 3.995123 4.024520 0.000000
vertex 4.000001 4.000001 0.000000
vertex 3.992744 4.023920 0.000000
endloop
endfacet
endsolid Exported from Blender-2.82 (sub 7)
