solid Exported from Blender-2.82 (sub 7)
facet normal 0.049210 0.998788 0.000000
outer loop
vertex 12.000000 7.912498 0.000000
vertex 12.000000 7.912498 0.050000
vertex 12.002450 7.912377 0.050000
endloop
endfacet
facet normal 0.049162 0.998791 0.000000
outer loop
vertex 12.000000 7.912498 0.000000
vertex 12.002450 7.912377 0.050000
vertex 12.002450 7.912377 0.000000
endloop
endfacet
facet normal 0.049210 0.998788 0.000000
outer loop
vertex 12.000000 7.912498 0.050000
vertex 12.000000 7.912498 0.100000
vertex 12.002450 7.912377 0.100000
endloop
endfacet
facet normal 0.049162 0.998791 0.000000
outer loop
vertex 12.000000 7.912498 0.050000
vertex 12.002450 7.912377 0.100000
vertex 12.002450 7.912377 0.050000
endloop
endfacet
facet normal 0.146725 0.989177 0.000000
outer loop
vertex 12.002450 7.912377 0.050000
vertex 12.002450 7.912377 0.100000
vertex 12.004877 7.912017 0.100000
endloop
endfacet
facet normal 0.146725 0.989177 0.000000
outer loop
vertex 12.002450 7.912377 0.050000
vertex 12.004877 7.912017 0.100000
vertex 12.004877 7.912017 0.050000
endloop
endfacet
facet normal 0.146725 0.989177 0.000000
outer loop
vertex 12.002450 7.912377 0.000000
vertex 12.002450 7.912377 0.050000
vertex 12.004877 7.912017 0.050000
endloop
endfacet
facet normal 0.146725 0.989177 0.000000
outer loop
vertex 12.002450 7.912377 0.000000
vertex 12.004877 7.912017 0.050000
vertex 12.004877 7.912017 0.000000
endloop
endfacet
facet normal 0.242993 0.970028 0.000000
outer loop
vertex 12.004877 7.912017 0.000000
vertex 12.004877 7.912017 0.050000
vertex 12.007256 7.911421 0.050000
endloop
endfacet
facet normal 0.242993 0.970028 0.000021
outer loop
vertex 12.004877 7.912017 0.000000
vertex 12.007256 7.911421 0.050000
vertex 12.007257 7.911421 0.000000
endloop
endfacet
facet normal 0.242993 0.970028 0.000000
outer loop
vertex 12.004877 7.912017 0.050000
vertex 12.004877 7.912017 0.100000
vertex 12.007257 7.911421 0.100000
endloop
endfacet
facet normal 0.242993 0.970028 -0.000021
outer loop
vertex 12.004877 7.912017 0.050000
vertex 12.007257 7.911421 0.100000
vertex 12.007256 7.911421 0.050000
endloop
endfacet
facet normal 0.336619 0.941641 0.000000
outer loop
vertex 12.007256 7.911421 0.050000
vertex 12.007257 7.911421 0.100000
vertex 12.009566 7.910595 0.100000
endloop
endfacet
facet normal 0.336620 0.941641 0.000000
outer loop
vertex 12.007256 7.911421 0.050000
vertex 12.009566 7.910595 0.100000
vertex 12.009566 7.910595 0.050000
endloop
endfacet
facet normal 0.336620 0.941641 0.000000
outer loop
vertex 12.007257 7.911421 0.000000
vertex 12.007256 7.911421 0.050000
vertex 12.009566 7.910595 0.050000
endloop
endfacet
facet normal 0.336620 0.941641 0.000000
outer loop
vertex 12.007257 7.911421 0.000000
vertex 12.009566 7.910595 0.050000
vertex 12.009566 7.910595 0.000000
endloop
endfacet
facet normal 0.427668 0.903936 0.000000
outer loop
vertex 12.009566 7.910595 0.000000
vertex 12.009566 7.910595 0.050000
vertex 12.011784 7.909546 0.050000
endloop
endfacet
facet normal 0.427668 0.903936 0.000000
outer loop
vertex 12.009566 7.910595 0.000000
vertex 12.011784 7.909546 0.050000
vertex 12.011784 7.909546 0.000000
endloop
endfacet
facet normal 0.427668 0.903936 0.000000
outer loop
vertex 12.009566 7.910595 0.050000
vertex 12.009566 7.910595 0.100000
vertex 12.011784 7.909546 0.100000
endloop
endfacet
facet normal 0.427668 0.903936 0.000000
outer loop
vertex 12.009566 7.910595 0.050000
vertex 12.011784 7.909546 0.100000
vertex 12.011784 7.909546 0.050000
endloop
endfacet
facet normal 0.513924 0.857836 0.000000
outer loop
vertex 12.011784 7.909546 0.050000
vertex 12.011784 7.909546 0.100000
vertex 12.013888 7.908285 0.100000
endloop
endfacet
facet normal 0.514353 0.857579 0.000000
outer loop
vertex 12.011784 7.909546 0.050000
vertex 12.013888 7.908285 0.100000
vertex 12.013888 7.908285 0.050000
endloop
endfacet
facet normal 0.513924 0.857836 0.000000
outer loop
vertex 12.011784 7.909546 0.000000
vertex 12.011784 7.909546 0.050000
vertex 12.013888 7.908285 0.050000
endloop
endfacet
facet normal 0.514353 0.857579 0.000000
outer loop
vertex 12.011784 7.909546 0.000000
vertex 12.013888 7.908285 0.050000
vertex 12.013888 7.908285 0.000000
endloop
endfacet
facet normal 0.595608 0.803275 0.000000
outer loop
vertex 12.013888 7.908285 0.000000
vertex 12.013888 7.908285 0.050000
vertex 12.015858 7.906823 0.050000
endloop
endfacet
facet normal 0.596539 0.802584 0.000000
outer loop
vertex 12.013888 7.908285 0.000000
vertex 12.015858 7.906823 0.050000
vertex 12.015858 7.906823 0.000000
endloop
endfacet
facet normal 0.595608 0.803275 0.000000
outer loop
vertex 12.013888 7.908285 0.050000
vertex 12.013888 7.908285 0.100000
vertex 12.015858 7.906823 0.100000
endloop
endfacet
facet normal 0.596539 0.802584 0.000000
outer loop
vertex 12.013888 7.908285 0.050000
vertex 12.015858 7.906823 0.100000
vertex 12.015858 7.906823 0.050000
endloop
endfacet
facet normal 0.671162 0.741310 0.000000
outer loop
vertex 12.015858 7.906823 0.050000
vertex 12.015858 7.906823 0.100000
vertex 12.017676 7.905176 0.100000
endloop
endfacet
facet normal 0.671163 0.741310 0.000000
outer loop
vertex 12.015858 7.906823 0.050000
vertex 12.017676 7.905176 0.100000
vertex 12.017676 7.905176 0.050000
endloop
endfacet
facet normal 0.671163 0.741310 0.000000
outer loop
vertex 12.015858 7.906823 0.000000
vertex 12.015858 7.906823 0.050000
vertex 12.017676 7.905176 0.050000
endloop
endfacet
facet normal 0.671163 0.741310 0.000000
outer loop
vertex 12.015858 7.906823 0.000000
vertex 12.017676 7.905176 0.050000
vertex 12.017676 7.905176 0.000000
endloop
endfacet
facet normal 0.741522 0.670929 0.000000
outer loop
vertex 12.017676 7.905176 0.000000
vertex 12.017676 7.905176 0.050000
vertex 12.019323 7.903358 0.050000
endloop
endfacet
facet normal 0.741038 0.671463 0.000015
outer loop
vertex 12.017676 7.905176 0.000000
vertex 12.019323 7.903358 0.050000
vertex 12.019324 7.903358 0.000000
endloop
endfacet
facet normal 0.741038 0.671463 0.000000
outer loop
vertex 12.017676 7.905176 0.050000
vertex 12.017676 7.905176 0.100000
vertex 12.019324 7.903358 0.100000
endloop
endfacet
facet normal 0.741522 0.670929 -0.000015
outer loop
vertex 12.017676 7.905176 0.050000
vertex 12.019324 7.903358 0.100000
vertex 12.019323 7.903358 0.050000
endloop
endfacet
facet normal 0.803092 0.595855 -0.000015
outer loop
vertex 12.019323 7.903358 0.050000
vertex 12.019324 7.903358 0.100000
vertex 12.020785 7.901388 0.100000
endloop
endfacet
facet normal 0.802627 0.596481 0.000000
outer loop
vertex 12.019323 7.903358 0.050000
vertex 12.020785 7.901388 0.100000
vertex 12.020785 7.901388 0.050000
endloop
endfacet
facet normal 0.802627 0.596481 0.000015
outer loop
vertex 12.019324 7.903358 0.000000
vertex 12.019323 7.903358 0.050000
vertex 12.020785 7.901388 0.050000
endloop
endfacet
facet normal 0.803092 0.595855 0.000000
outer loop
vertex 12.019324 7.903358 0.000000
vertex 12.020785 7.901388 0.050000
vertex 12.020785 7.901388 0.000000
endloop
endfacet
facet normal 0.857682 0.514181 0.000000
outer loop
vertex 12.020785 7.901388 0.000000
vertex 12.020785 7.901388 0.050000
vertex 12.022046 7.899284 0.050000
endloop
endfacet
facet normal 0.858110 0.513466 0.000000
outer loop
vertex 12.020785 7.901388 0.000000
vertex 12.022046 7.899284 0.050000
vertex 12.022046 7.899284 0.000000
endloop
endfacet
facet normal 0.857682 0.514181 0.000000
outer loop
vertex 12.020785 7.901388 0.050000
vertex 12.020785 7.901388 0.100000
vertex 12.022046 7.899284 0.100000
endloop
endfacet
facet normal 0.858110 0.513466 0.000000
outer loop
vertex 12.020785 7.901388 0.050000
vertex 12.022046 7.899284 0.100000
vertex 12.022046 7.899284 0.050000
endloop
endfacet
facet normal 0.904007 0.427518 0.000000
outer loop
vertex 12.022046 7.899284 0.050000
vertex 12.022046 7.899284 0.100000
vertex 12.023095 7.897066 0.100000
endloop
endfacet
facet normal 0.904007 0.427518 0.000000
outer loop
vertex 12.022046 7.899284 0.050000
vertex 12.023095 7.897066 0.100000
vertex 12.023095 7.897066 0.050000
endloop
endfacet
facet normal 0.904007 0.427518 0.000000
outer loop
vertex 12.022046 7.899284 0.000000
vertex 12.022046 7.899284 0.050000
vertex 12.023095 7.897066 0.050000
endloop
endfacet
facet normal 0.904007 0.427518 0.000000
outer loop
vertex 12.022046 7.899284 0.000000
vertex 12.023095 7.897066 0.050000
vertex 12.023095 7.897066 0.000000
endloop
endfacet
facet normal 0.941434 0.337198 0.000000
outer loop
vertex 12.023095 7.897066 0.000000
vertex 12.023095 7.897066 0.050000
vertex 12.023921 7.894756 0.050000
endloop
endfacet
facet normal 0.941742 0.336336 0.000000
outer loop
vertex 12.023095 7.897066 0.000000
vertex 12.023921 7.894756 0.050000
vertex 12.023921 7.894756 0.000000
endloop
endfacet
facet normal 0.941434 0.337198 0.000000
outer loop
vertex 12.023095 7.897066 0.050000
vertex 12.023095 7.897066 0.100000
vertex 12.023921 7.894756 0.100000
endloop
endfacet
facet normal 0.941742 0.336336 0.000000
outer loop
vertex 12.023095 7.897066 0.050000
vertex 12.023921 7.894756 0.100000
vertex 12.023921 7.894756 0.050000
endloop
endfacet
facet normal 0.969787 0.243953 0.000000
outer loop
vertex 12.023921 7.894756 0.050000
vertex 12.023921 7.894756 0.100000
vertex 12.024518 7.892377 0.100000
endloop
endfacet
facet normal 0.970016 0.243039 0.000000
outer loop
vertex 12.023921 7.894756 0.050000
vertex 12.024518 7.892377 0.100000
vertex 12.024518 7.892377 0.050000
endloop
endfacet
facet normal 0.969787 0.243953 0.000000
outer loop
vertex 12.023921 7.894756 0.000000
vertex 12.023921 7.894756 0.050000
vertex 12.024518 7.892377 0.050000
endloop
endfacet
facet normal 0.970017 0.243039 0.000000
outer loop
vertex 12.023921 7.894756 0.000000
vertex 12.024518 7.892377 0.050000
vertex 12.024518 7.892377 0.000000
endloop
endfacet
facet normal 0.989318 0.145774 0.000000
outer loop
vertex 12.024518 7.892377 0.000000
vertex 12.024518 7.892377 0.050000
vertex 12.024877 7.889950 0.050000
endloop
endfacet
facet normal 0.989177 0.146725 0.000000
outer loop
vertex 12.024518 7.892377 0.000000
vertex 12.024877 7.889950 0.050000
vertex 12.024877 7.889950 0.000000
endloop
endfacet
facet normal 0.989318 0.145774 0.000000
outer loop
vertex 12.024518 7.892377 0.050000
vertex 12.024518 7.892377 0.100000
vertex 12.024877 7.889950 0.100000
endloop
endfacet
facet normal 0.989177 0.146725 0.000000
outer loop
vertex 12.024518 7.892377 0.050000
vertex 12.024877 7.889950 0.100000
vertex 12.024877 7.889950 0.050000
endloop
endfacet
facet normal 0.998818 0.048600 0.000000
outer loop
vertex 12.024877 7.889950 0.050000
vertex 12.024877 7.889950 0.100000
vertex 12.024998 7.887500 0.100000
endloop
endfacet
facet normal 0.998771 0.049569 0.000000
outer loop
vertex 12.024877 7.889950 0.050000
vertex 12.024998 7.887500 0.100000
vertex 12.024998 7.887500 0.050000
endloop
endfacet
facet normal 0.998818 0.048600 0.000000
outer loop
vertex 12.024877 7.889950 0.000000
vertex 12.024877 7.889950 0.050000
vertex 12.024998 7.887500 0.050000
endloop
endfacet
facet normal 0.998771 0.049569 0.000000
outer loop
vertex 12.024877 7.889950 0.000000
vertex 12.024998 7.887500 0.050000
vertex 12.024998 7.887500 0.000000
endloop
endfacet
facet normal 0.998771 -0.049569 0.000000
outer loop
vertex 12.024998 7.887500 0.000000
vertex 12.024998 7.887500 0.050000
vertex 12.024877 7.885050 0.050000
endloop
endfacet
facet normal 0.998818 -0.048600 0.000000
outer loop
vertex 12.024998 7.887500 0.000000
vertex 12.024877 7.885050 0.050000
vertex 12.024877 7.885050 0.000000
endloop
endfacet
facet normal 0.998771 -0.049569 0.000000
outer loop
vertex 12.024998 7.887500 0.050000
vertex 12.024998 7.887500 0.100000
vertex 12.024877 7.885050 0.100000
endloop
endfacet
facet normal 0.998818 -0.048600 0.000000
outer loop
vertex 12.024998 7.887500 0.050000
vertex 12.024877 7.885050 0.100000
vertex 12.024877 7.885050 0.050000
endloop
endfacet
facet normal 0.989177 -0.146725 0.000000
outer loop
vertex 12.024877 7.885050 0.050000
vertex 12.024877 7.885050 0.100000
vertex 12.024518 7.882623 0.100000
endloop
endfacet
facet normal 0.989318 -0.145774 0.000000
outer loop
vertex 12.024877 7.885050 0.050000
vertex 12.024518 7.882623 0.100000
vertex 12.024518 7.882623 0.050000
endloop
endfacet
facet normal 0.989177 -0.146725 0.000000
outer loop
vertex 12.024877 7.885050 0.000000
vertex 12.024877 7.885050 0.050000
vertex 12.024518 7.882623 0.050000
endloop
endfacet
facet normal 0.989318 -0.145774 0.000000
outer loop
vertex 12.024877 7.885050 0.000000
vertex 12.024518 7.882623 0.050000
vertex 12.024518 7.882623 0.000000
endloop
endfacet
facet normal 0.970017 -0.243039 0.000000
outer loop
vertex 12.024518 7.882623 0.000000
vertex 12.024518 7.882623 0.050000
vertex 12.023921 7.880244 0.050000
endloop
endfacet
facet normal 0.969787 -0.243953 0.000000
outer loop
vertex 12.024518 7.882623 0.000000
vertex 12.023921 7.880244 0.050000
vertex 12.023921 7.880244 0.000000
endloop
endfacet
facet normal 0.970016 -0.243039 0.000000
outer loop
vertex 12.024518 7.882623 0.050000
vertex 12.024518 7.882623 0.100000
vertex 12.023921 7.880244 0.100000
endloop
endfacet
facet normal 0.969787 -0.243953 0.000000
outer loop
vertex 12.024518 7.882623 0.050000
vertex 12.023921 7.880244 0.100000
vertex 12.023921 7.880244 0.050000
endloop
endfacet
facet normal 0.941764 -0.336275 0.000000
outer loop
vertex 12.023921 7.880244 0.050000
vertex 12.023921 7.880244 0.100000
vertex 12.023095 7.877934 0.100000
endloop
endfacet
facet normal 0.941456 -0.337136 0.000000
outer loop
vertex 12.023921 7.880244 0.050000
vertex 12.023095 7.877934 0.100000
vertex 12.023095 7.877934 0.050000
endloop
endfacet
facet normal 0.941764 -0.336275 0.000000
outer loop
vertex 12.023921 7.880244 0.000000
vertex 12.023921 7.880244 0.050000
vertex 12.023095 7.877934 0.050000
endloop
endfacet
facet normal 0.941456 -0.337136 0.000000
outer loop
vertex 12.023921 7.880244 0.000000
vertex 12.023095 7.877934 0.050000
vertex 12.023095 7.877934 0.000000
endloop
endfacet
facet normal 0.903971 -0.427593 0.000000
outer loop
vertex 12.023095 7.877934 0.000000
vertex 12.023095 7.877934 0.050000
vertex 12.022046 7.875716 0.050000
endloop
endfacet
facet normal 0.903900 -0.427744 0.000000
outer loop
vertex 12.023095 7.877934 0.000000
vertex 12.022046 7.875716 0.050000
vertex 12.022046 7.875717 0.000000
endloop
endfacet
facet normal 0.903900 -0.427744 0.000000
outer loop
vertex 12.023095 7.877934 0.050000
vertex 12.023095 7.877934 0.100000
vertex 12.022046 7.875717 0.100000
endloop
endfacet
facet normal 0.903971 -0.427593 0.000000
outer loop
vertex 12.023095 7.877934 0.050000
vertex 12.022046 7.875717 0.100000
vertex 12.022046 7.875716 0.050000
endloop
endfacet
facet normal 0.858213 -0.513294 0.000000
outer loop
vertex 12.022046 7.875716 0.050000
vertex 12.022046 7.875717 0.100000
vertex 12.020785 7.873612 0.100000
endloop
endfacet
facet normal 0.857682 -0.514181 0.000000
outer loop
vertex 12.022046 7.875716 0.050000
vertex 12.020785 7.873612 0.100000
vertex 12.020785 7.873612 0.050000
endloop
endfacet
facet normal 0.858110 -0.513466 0.000000
outer loop
vertex 12.022046 7.875717 0.000000
vertex 12.022046 7.875716 0.050000
vertex 12.020785 7.873612 0.050000
endloop
endfacet
facet normal 0.857784 -0.514010 0.000000
outer loop
vertex 12.022046 7.875717 0.000000
vertex 12.020785 7.873612 0.050000
vertex 12.020785 7.873612 0.000000
endloop
endfacet
facet normal 0.802696 -0.596388 0.000000
outer loop
vertex 12.020785 7.873612 0.000000
vertex 12.020785 7.873612 0.050000
vertex 12.019323 7.871642 0.050000
endloop
endfacet
facet normal 0.803161 -0.595762 0.000000
outer loop
vertex 12.020785 7.873612 0.000000
vertex 12.019323 7.871642 0.050000
vertex 12.019323 7.871642 0.000000
endloop
endfacet
facet normal 0.802696 -0.596388 0.000000
outer loop
vertex 12.020785 7.873612 0.050000
vertex 12.020785 7.873612 0.100000
vertex 12.019323 7.871642 0.100000
endloop
endfacet
facet normal 0.803161 -0.595762 0.000000
outer loop
vertex 12.020785 7.873612 0.050000
vertex 12.019323 7.871642 0.100000
vertex 12.019323 7.871642 0.050000
endloop
endfacet
facet normal 0.740951 -0.671559 0.000000
outer loop
vertex 12.019323 7.871642 0.050000
vertex 12.019323 7.871642 0.100000
vertex 12.017676 7.869824 0.100000
endloop
endfacet
facet normal 0.741434 -0.671025 0.000000
outer loop
vertex 12.019323 7.871642 0.050000
vertex 12.017676 7.869824 0.100000
vertex 12.017676 7.869824 0.050000
endloop
endfacet
facet normal 0.740951 -0.671559 0.000000
outer loop
vertex 12.019323 7.871642 0.000000
vertex 12.019323 7.871642 0.050000
vertex 12.017676 7.869824 0.050000
endloop
endfacet
facet normal 0.741434 -0.671025 0.000000
outer loop
vertex 12.019323 7.871642 0.000000
vertex 12.017676 7.869824 0.050000
vertex 12.017676 7.869824 0.000000
endloop
endfacet
facet normal 0.671163 -0.741310 0.000000
outer loop
vertex 12.017676 7.869824 0.000000
vertex 12.017676 7.869824 0.050000
vertex 12.015858 7.868177 0.050000
endloop
endfacet
facet normal 0.671163 -0.741310 0.000000
outer loop
vertex 12.017676 7.869824 0.000000
vertex 12.015858 7.868177 0.050000
vertex 12.015858 7.868177 0.000000
endloop
endfacet
facet normal 0.671162 -0.741310 0.000000
outer loop
vertex 12.017676 7.869824 0.050000
vertex 12.017676 7.869824 0.100000
vertex 12.015858 7.868177 0.100000
endloop
endfacet
facet normal 0.671163 -0.741310 0.000000
outer loop
vertex 12.017676 7.869824 0.050000
vertex 12.015858 7.868177 0.100000
vertex 12.015858 7.868177 0.050000
endloop
endfacet
facet normal 0.596664 -0.802491 0.000000
outer loop
vertex 12.015858 7.868177 0.050000
vertex 12.015858 7.868177 0.100000
vertex 12.013888 7.866715 0.100000
endloop
endfacet
facet normal 0.595734 -0.803182 0.000000
outer loop
vertex 12.015858 7.868177 0.050000
vertex 12.013888 7.866715 0.100000
vertex 12.013888 7.866715 0.050000
endloop
endfacet
facet normal 0.596664 -0.802491 0.000000
outer loop
vertex 12.015858 7.868177 0.000000
vertex 12.015858 7.868177 0.050000
vertex 12.013888 7.866715 0.050000
endloop
endfacet
facet normal 0.595734 -0.803182 0.000000
outer loop
vertex 12.015858 7.868177 0.000000
vertex 12.013888 7.866715 0.050000
vertex 12.013888 7.866715 0.000000
endloop
endfacet
facet normal 0.514210 -0.857665 0.000000
outer loop
vertex 12.013888 7.866715 0.000000
vertex 12.013888 7.866715 0.050000
vertex 12.011784 7.865454 0.050000
endloop
endfacet
facet normal 0.513781 -0.857921 0.000000
outer loop
vertex 12.013888 7.866715 0.000000
vertex 12.011784 7.865454 0.050000
vertex 12.011784 7.865454 0.000000
endloop
endfacet
facet normal 0.514210 -0.857665 0.000000
outer loop
vertex 12.013888 7.866715 0.050000
vertex 12.013888 7.866715 0.100000
vertex 12.011784 7.865454 0.100000
endloop
endfacet
facet normal 0.513781 -0.857921 0.000000
outer loop
vertex 12.013888 7.866715 0.050000
vertex 12.011784 7.865454 0.100000
vertex 12.011784 7.865454 0.050000
endloop
endfacet
facet normal 0.427351 -0.904086 0.000000
outer loop
vertex 12.011784 7.865454 0.050000
vertex 12.011784 7.865454 0.100000
vertex 12.009566 7.864406 0.100000
endloop
endfacet
facet normal 0.427351 -0.904086 0.000000
outer loop
vertex 12.011784 7.865454 0.050000
vertex 12.009566 7.864406 0.100000
vertex 12.009566 7.864406 0.050000
endloop
endfacet
facet normal 0.427351 -0.904086 0.000000
outer loop
vertex 12.011784 7.865454 0.000000
vertex 12.011784 7.865454 0.050000
vertex 12.009566 7.864406 0.050000
endloop
endfacet
facet normal 0.427351 -0.904086 0.000000
outer loop
vertex 12.011784 7.865454 0.000000
vertex 12.009566 7.864406 0.050000
vertex 12.009566 7.864406 0.000000
endloop
endfacet
facet normal 0.336964 -0.941518 0.000000
outer loop
vertex 12.009566 7.864406 0.000000
vertex 12.009566 7.864406 0.050000
vertex 12.007257 7.863579 0.050000
endloop
endfacet
facet normal 0.337273 -0.941407 0.000000
outer loop
vertex 12.009566 7.864406 0.000000
vertex 12.007257 7.863579 0.050000
vertex 12.007257 7.863579 0.000000
endloop
endfacet
facet normal 0.336964 -0.941518 0.000000
outer loop
vertex 12.009566 7.864406 0.050000
vertex 12.009566 7.864406 0.100000
vertex 12.007257 7.863579 0.100000
endloop
endfacet
facet normal 0.337273 -0.941407 0.000000
outer loop
vertex 12.009566 7.864406 0.050000
vertex 12.007257 7.863579 0.100000
vertex 12.007257 7.863579 0.050000
endloop
endfacet
facet normal 0.242764 -0.970085 0.000000
outer loop
vertex 12.007257 7.863579 0.050000
vertex 12.007257 7.863579 0.100000
vertex 12.004877 7.862983 0.100000
endloop
endfacet
facet normal 0.242993 -0.970028 0.000000
outer loop
vertex 12.007257 7.863579 0.050000
vertex 12.004877 7.862983 0.100000
vertex 12.004877 7.862983 0.050000
endloop
endfacet
facet normal 0.242764 -0.970085 0.000000
outer loop
vertex 12.007257 7.863579 0.000000
vertex 12.007257 7.863579 0.050000
vertex 12.004877 7.862983 0.050000
endloop
endfacet
facet normal 0.242993 -0.970028 0.000000
outer loop
vertex 12.007257 7.863579 0.000000
vertex 12.004877 7.862983 0.050000
vertex 12.004877 7.862983 0.000000
endloop
endfacet
facet normal 0.146725 -0.989177 0.000000
outer loop
vertex 12.004877 7.862983 0.000000
vertex 12.004877 7.862983 0.050000
vertex 12.002450 7.862623 0.050000
endloop
endfacet
facet normal 0.146725 -0.989177 0.000000
outer loop
vertex 12.004877 7.862983 0.000000
vertex 12.002450 7.862623 0.050000
vertex 12.002450 7.862623 0.000000
endloop
endfacet
facet normal 0.146725 -0.989177 0.000000
outer loop
vertex 12.004877 7.862983 0.050000
vertex 12.004877 7.862983 0.100000
vertex 12.002450 7.862623 0.100000
endloop
endfacet
facet normal 0.146725 -0.989177 0.000000
outer loop
vertex 12.004877 7.862983 0.050000
vertex 12.002450 7.862623 0.100000
vertex 12.002450 7.862623 0.050000
endloop
endfacet
facet normal 0.048968 -0.998800 0.000000
outer loop
vertex 12.002450 7.862623 0.050000
vertex 12.002450 7.862623 0.100000
vertex 12.000000 7.862503 0.100000
endloop
endfacet
facet normal 0.049016 -0.998798 0.000000
outer loop
vertex 12.002450 7.862623 0.050000
vertex 12.000000 7.862503 0.100000
vertex 12.000000 7.862503 0.050000
endloop
endfacet
facet normal 0.048968 -0.998800 0.000000
outer loop
vertex 12.002450 7.862623 0.000000
vertex 12.002450 7.862623 0.050000
vertex 12.000000 7.862503 0.050000
endloop
endfacet
facet normal 0.049016 -0.998798 0.000000
outer loop
vertex 12.002450 7.862623 0.000000
vertex 12.000000 7.862503 0.050000
vertex 12.000000 7.862503 0.000000
endloop
endfacet
facet normal -0.049016 -0.998798 0.000000
outer loop
vertex 12.000000 7.862503 0.000000
vertex 12.000000 7.862503 0.050000
vertex 11.997550 7.862623 0.050000
endloop
endfacet
facet normal -0.048968 -0.998800 0.000000
outer loop
vertex 12.000000 7.862503 0.000000
vertex 11.997550 7.862623 0.050000
vertex 11.997550 7.862623 0.000000
endloop
endfacet
facet normal -0.049016 -0.998798 0.000000
outer loop
vertex 12.000000 7.862503 0.050000
vertex 12.000000 7.862503 0.100000
vertex 11.997550 7.862623 0.100000
endloop
endfacet
facet normal -0.048968 -0.998800 0.000000
outer loop
vertex 12.000000 7.862503 0.050000
vertex 11.997550 7.862623 0.100000
vertex 11.997550 7.862623 0.050000
endloop
endfacet
facet normal -0.146725 -0.989177 0.000000
outer loop
vertex 11.997550 7.862623 0.050000
vertex 11.997550 7.862623 0.100000
vertex 11.995124 7.862983 0.100000
endloop
endfacet
facet normal -0.146725 -0.989177 0.000000
outer loop
vertex 11.997550 7.862623 0.050000
vertex 11.995124 7.862983 0.100000
vertex 11.995124 7.862983 0.050000
endloop
endfacet
facet normal -0.146725 -0.989177 0.000000
outer loop
vertex 11.997550 7.862623 0.000000
vertex 11.997550 7.862623 0.050000
vertex 11.995124 7.862983 0.050000
endloop
endfacet
facet normal -0.146725 -0.989177 0.000000
outer loop
vertex 11.997550 7.862623 0.000000
vertex 11.995124 7.862983 0.050000
vertex 11.995124 7.862983 0.000000
endloop
endfacet
facet normal -0.243222 -0.969971 0.000000
outer loop
vertex 11.995124 7.862983 0.000000
vertex 11.995124 7.862983 0.050000
vertex 11.992744 7.863579 0.050000
endloop
endfacet
facet normal -0.242764 -0.970085 0.000000
outer loop
vertex 11.995124 7.862983 0.000000
vertex 11.992744 7.863579 0.050000
vertex 11.992744 7.863579 0.000000
endloop
endfacet
facet normal -0.243222 -0.969971 0.000000
outer loop
vertex 11.995124 7.862983 0.050000
vertex 11.995124 7.862983 0.100000
vertex 11.992744 7.863579 0.100000
endloop
endfacet
facet normal -0.242764 -0.970085 0.000000
outer loop
vertex 11.995124 7.862983 0.050000
vertex 11.992744 7.863579 0.100000
vertex 11.992744 7.863579 0.050000
endloop
endfacet
facet normal -0.336964 -0.941518 0.000000
outer loop
vertex 11.992744 7.863579 0.050000
vertex 11.992744 7.863579 0.100000
vertex 11.990434 7.864406 0.100000
endloop
endfacet
facet normal -0.336964 -0.941518 0.000000
outer loop
vertex 11.992744 7.863579 0.050000
vertex 11.990434 7.864406 0.100000
vertex 11.990434 7.864406 0.050000
endloop
endfacet
facet normal -0.336964 -0.941518 0.000000
outer loop
vertex 11.992744 7.863579 0.000000
vertex 11.992744 7.863579 0.050000
vertex 11.990434 7.864406 0.050000
endloop
endfacet
facet normal -0.336964 -0.941518 0.000000
outer loop
vertex 11.992744 7.863579 0.000000
vertex 11.990434 7.864406 0.050000
vertex 11.990434 7.864406 0.000000
endloop
endfacet
facet normal -0.427351 -0.904086 0.000000
outer loop
vertex 11.990434 7.864406 0.000000
vertex 11.990434 7.864406 0.050000
vertex 11.988216 7.865454 0.050000
endloop
endfacet
facet normal -0.427351 -0.904086 0.000000
outer loop
vertex 11.990434 7.864406 0.000000
vertex 11.988216 7.865454 0.050000
vertex 11.988216 7.865454 0.000000
endloop
endfacet
facet normal -0.427351 -0.904086 0.000000
outer loop
vertex 11.990434 7.864406 0.050000
vertex 11.990434 7.864406 0.100000
vertex 11.988216 7.865454 0.100000
endloop
endfacet
facet normal -0.427351 -0.904086 0.000000
outer loop
vertex 11.990434 7.864406 0.050000
vertex 11.988216 7.865454 0.100000
vertex 11.988216 7.865454 0.050000
endloop
endfacet
facet normal -0.513781 -0.857921 0.000000
outer loop
vertex 11.988216 7.865454 0.050000
vertex 11.988216 7.865454 0.100000
vertex 11.986112 7.866715 0.100000
endloop
endfacet
facet normal -0.513781 -0.857921 0.000000
outer loop
vertex 11.988216 7.865454 0.050000
vertex 11.986112 7.866715 0.100000
vertex 11.986112 7.866715 0.050000
endloop
endfacet
facet normal -0.513781 -0.857921 0.000000
outer loop
vertex 11.988216 7.865454 0.000000
vertex 11.988216 7.865454 0.050000
vertex 11.986112 7.866715 0.050000
endloop
endfacet
facet normal -0.513781 -0.857921 0.000000
outer loop
vertex 11.988216 7.865454 0.000000
vertex 11.986112 7.866715 0.050000
vertex 11.986112 7.866715 0.000000
endloop
endfacet
facet normal -0.596199 -0.802837 0.000000
outer loop
vertex 11.986112 7.866715 0.000000
vertex 11.986112 7.866715 0.050000
vertex 11.984142 7.868177 0.050000
endloop
endfacet
facet normal -0.596199 -0.802837 0.000000
outer loop
vertex 11.986112 7.866715 0.000000
vertex 11.984142 7.868177 0.050000
vertex 11.984142 7.868177 0.000000
endloop
endfacet
facet normal -0.596199 -0.802837 0.000000
outer loop
vertex 11.986112 7.866715 0.050000
vertex 11.986112 7.866715 0.100000
vertex 11.984142 7.868177 0.100000
endloop
endfacet
facet normal -0.596199 -0.802837 0.000000
outer loop
vertex 11.986112 7.866715 0.050000
vertex 11.984142 7.868177 0.100000
vertex 11.984142 7.868177 0.050000
endloop
endfacet
facet normal -0.671162 -0.741310 0.000000
outer loop
vertex 11.984142 7.868177 0.050000
vertex 11.984142 7.868177 0.100000
vertex 11.982324 7.869824 0.100000
endloop
endfacet
facet normal -0.671646 -0.740872 0.000000
outer loop
vertex 11.984142 7.868177 0.050000
vertex 11.982324 7.869824 0.100000
vertex 11.982324 7.869824 0.050000
endloop
endfacet
facet normal -0.671163 -0.741310 0.000000
outer loop
vertex 11.984142 7.868177 0.000000
vertex 11.984142 7.868177 0.050000
vertex 11.982324 7.869824 0.050000
endloop
endfacet
facet normal -0.671646 -0.740872 0.000000
outer loop
vertex 11.984142 7.868177 0.000000
vertex 11.982324 7.869824 0.050000
vertex 11.982324 7.869824 0.000000
endloop
endfacet
facet normal -0.740951 -0.671559 0.000000
outer loop
vertex 11.982324 7.869824 0.000000
vertex 11.982324 7.869824 0.050000
vertex 11.980677 7.871642 0.050000
endloop
endfacet
facet normal -0.740951 -0.671559 0.000000
outer loop
vertex 11.982324 7.869824 0.000000
vertex 11.980677 7.871642 0.050000
vertex 11.980677 7.871642 0.000000
endloop
endfacet
facet normal -0.740951 -0.671559 0.000000
outer loop
vertex 11.982324 7.869824 0.050000
vertex 11.982324 7.869824 0.100000
vertex 11.980677 7.871642 0.100000
endloop
endfacet
facet normal -0.740951 -0.671559 0.000000
outer loop
vertex 11.982324 7.869824 0.050000
vertex 11.980677 7.871642 0.100000
vertex 11.980677 7.871642 0.050000
endloop
endfacet
facet normal -0.803161 -0.595762 0.000000
outer loop
vertex 11.980677 7.871642 0.050000
vertex 11.980677 7.871642 0.100000
vertex 11.979216 7.873612 0.100000
endloop
endfacet
facet normal -0.803626 -0.595134 0.000000
outer loop
vertex 11.980677 7.871642 0.050000
vertex 11.979216 7.873612 0.100000
vertex 11.979216 7.873612 0.050000
endloop
endfacet
facet normal -0.803161 -0.595762 0.000000
outer loop
vertex 11.980677 7.871642 0.000000
vertex 11.980677 7.871642 0.050000
vertex 11.979216 7.873612 0.050000
endloop
endfacet
facet normal -0.803626 -0.595134 0.000000
outer loop
vertex 11.980677 7.871642 0.000000
vertex 11.979216 7.873612 0.050000
vertex 11.979216 7.873612 0.000000
endloop
endfacet
facet normal -0.857253 -0.514896 0.000000
outer loop
vertex 11.979216 7.873612 0.000000
vertex 11.979216 7.873612 0.050000
vertex 11.977954 7.875716 0.050000
endloop
endfacet
facet normal -0.858110 -0.513466 -0.000026
outer loop
vertex 11.979216 7.873612 0.000000
vertex 11.977954 7.875716 0.050000
vertex 11.977955 7.875716 0.000000
endloop
endfacet
facet normal -0.857682 -0.514181 0.000000
outer loop
vertex 11.979216 7.873612 0.050000
vertex 11.979216 7.873612 0.100000
vertex 11.977955 7.875716 0.100000
endloop
endfacet
facet normal -0.857682 -0.514181 0.000026
outer loop
vertex 11.979216 7.873612 0.050000
vertex 11.977955 7.875716 0.100000
vertex 11.977954 7.875716 0.050000
endloop
endfacet
facet normal -0.903595 -0.428387 0.000015
outer loop
vertex 11.977954 7.875716 0.050000
vertex 11.977955 7.875716 0.100000
vertex 11.976905 7.877934 0.100000
endloop
endfacet
facet normal -0.903971 -0.427593 0.000000
outer loop
vertex 11.977954 7.875716 0.050000
vertex 11.976905 7.877934 0.100000
vertex 11.976905 7.877934 0.050000
endloop
endfacet
facet normal -0.903971 -0.427593 -0.000015
outer loop
vertex 11.977955 7.875716 0.000000
vertex 11.977954 7.875716 0.050000
vertex 11.976905 7.877934 0.050000
endloop
endfacet
facet normal -0.903596 -0.428387 0.000000
outer loop
vertex 11.977955 7.875716 0.000000
vertex 11.976905 7.877934 0.050000
vertex 11.976905 7.877934 0.000000
endloop
endfacet
facet normal -0.941764 -0.336275 0.000000
outer loop
vertex 11.976905 7.877934 0.000000
vertex 11.976905 7.877934 0.050000
vertex 11.976079 7.880244 0.050000
endloop
endfacet
facet normal -0.941456 -0.337136 0.000000
outer loop
vertex 11.976905 7.877934 0.000000
vertex 11.976079 7.880244 0.050000
vertex 11.976079 7.880244 0.000000
endloop
endfacet
facet normal -0.941764 -0.336275 0.000000
outer loop
vertex 11.976905 7.877934 0.050000
vertex 11.976905 7.877934 0.100000
vertex 11.976079 7.880244 0.100000
endloop
endfacet
facet normal -0.941456 -0.337136 0.000000
outer loop
vertex 11.976905 7.877934 0.050000
vertex 11.976079 7.880244 0.100000
vertex 11.976079 7.880244 0.050000
endloop
endfacet
facet normal -0.970016 -0.243039 0.000000
outer loop
vertex 11.976079 7.880244 0.050000
vertex 11.976079 7.880244 0.100000
vertex 11.975483 7.882623 0.100000
endloop
endfacet
facet normal -0.970039 -0.242947 -0.000008
outer loop
vertex 11.976079 7.880244 0.050000
vertex 11.975483 7.882623 0.100000
vertex 11.975483 7.882624 0.050000
endloop
endfacet
facet normal -0.970039 -0.242947 0.000000
outer loop
vertex 11.976079 7.880244 0.000000
vertex 11.976079 7.880244 0.050000
vertex 11.975483 7.882624 0.050000
endloop
endfacet
facet normal -0.970017 -0.243039 0.000008
outer loop
vertex 11.976079 7.880244 0.000000
vertex 11.975483 7.882624 0.050000
vertex 11.975483 7.882623 0.000000
endloop
endfacet
facet normal -0.989310 -0.145830 0.000000
outer loop
vertex 11.975483 7.882623 0.000000
vertex 11.975483 7.882624 0.050000
vertex 11.975123 7.885050 0.050000
endloop
endfacet
facet normal -0.989177 -0.146725 0.000000
outer loop
vertex 11.975483 7.882623 0.000000
vertex 11.975123 7.885050 0.050000
vertex 11.975123 7.885050 0.000000
endloop
endfacet
facet normal -0.989318 -0.145774 0.000000
outer loop
vertex 11.975483 7.882624 0.050000
vertex 11.975483 7.882623 0.100000
vertex 11.975123 7.885050 0.100000
endloop
endfacet
facet normal -0.989169 -0.146781 0.000000
outer loop
vertex 11.975483 7.882624 0.050000
vertex 11.975123 7.885050 0.100000
vertex 11.975123 7.885050 0.050000
endloop
endfacet
facet normal -0.998771 -0.049569 0.000000
outer loop
vertex 11.975123 7.885050 0.050000
vertex 11.975123 7.885050 0.100000
vertex 11.975003 7.887500 0.100000
endloop
endfacet
facet normal -0.998818 -0.048600 0.000000
outer loop
vertex 11.975123 7.885050 0.050000
vertex 11.975003 7.887500 0.100000
vertex 11.975003 7.887500 0.050000
endloop
endfacet
facet normal -0.998771 -0.049569 0.000000
outer loop
vertex 11.975123 7.885050 0.000000
vertex 11.975123 7.885050 0.050000
vertex 11.975003 7.887500 0.050000
endloop
endfacet
facet normal -0.998818 -0.048600 0.000000
outer loop
vertex 11.975123 7.885050 0.000000
vertex 11.975003 7.887500 0.050000
vertex 11.975003 7.887500 0.000000
endloop
endfacet
facet normal -0.998818 0.048600 0.000000
outer loop
vertex 11.975003 7.887500 0.000000
vertex 11.975003 7.887500 0.050000
vertex 11.975123 7.889950 0.050000
endloop
endfacet
facet normal -0.998771 0.049569 0.000000
outer loop
vertex 11.975003 7.887500 0.000000
vertex 11.975123 7.889950 0.050000
vertex 11.975123 7.889950 0.000000
endloop
endfacet
facet normal -0.998818 0.048600 0.000000
outer loop
vertex 11.975003 7.887500 0.050000
vertex 11.975003 7.887500 0.100000
vertex 11.975123 7.889950 0.100000
endloop
endfacet
facet normal -0.998771 0.049569 0.000000
outer loop
vertex 11.975003 7.887500 0.050000
vertex 11.975123 7.889950 0.100000
vertex 11.975123 7.889950 0.050000
endloop
endfacet
facet normal -0.989177 0.146725 0.000000
outer loop
vertex 11.975123 7.889950 0.050000
vertex 11.975123 7.889950 0.100000
vertex 11.975483 7.892377 0.100000
endloop
endfacet
facet normal -0.989318 0.145774 0.000000
outer loop
vertex 11.975123 7.889950 0.050000
vertex 11.975483 7.892377 0.100000
vertex 11.975483 7.892377 0.050000
endloop
endfacet
facet normal -0.989177 0.146725 0.000000
outer loop
vertex 11.975123 7.889950 0.000000
vertex 11.975123 7.889950 0.050000
vertex 11.975483 7.892377 0.050000
endloop
endfacet
facet normal -0.989318 0.145774 0.000000
outer loop
vertex 11.975123 7.889950 0.000000
vertex 11.975483 7.892377 0.050000
vertex 11.975483 7.892377 0.000000
endloop
endfacet
facet normal -0.970017 0.243039 0.000000
outer loop
vertex 11.975483 7.892377 0.000000
vertex 11.975483 7.892377 0.050000
vertex 11.976079 7.894756 0.050000
endloop
endfacet
facet normal -0.970039 0.242947 0.000000
outer loop
vertex 11.975483 7.892377 0.000000
vertex 11.976079 7.894756 0.050000
vertex 11.976079 7.894757 0.000000
endloop
endfacet
facet normal -0.970040 0.242947 0.000000
outer loop
vertex 11.975483 7.892377 0.050000
vertex 11.975483 7.892377 0.100000
vertex 11.976079 7.894757 0.100000
endloop
endfacet
facet normal -0.970017 0.243039 0.000000
outer loop
vertex 11.975483 7.892377 0.050000
vertex 11.976079 7.894757 0.100000
vertex 11.976079 7.894756 0.050000
endloop
endfacet
facet normal -0.941390 0.337322 -0.000008
outer loop
vertex 11.976079 7.894756 0.050000
vertex 11.976079 7.894757 0.100000
vertex 11.976906 7.897066 0.100000
endloop
endfacet
facet normal -0.941434 0.337198 0.000000
outer loop
vertex 11.976079 7.894756 0.050000
vertex 11.976906 7.897066 0.100000
vertex 11.976906 7.897066 0.050000
endloop
endfacet
facet normal -0.941434 0.337198 0.000008
outer loop
vertex 11.976079 7.894757 0.000000
vertex 11.976079 7.894756 0.050000
vertex 11.976906 7.897066 0.050000
endloop
endfacet
facet normal -0.941390 0.337322 0.000000
outer loop
vertex 11.976079 7.894757 0.000000
vertex 11.976906 7.897066 0.050000
vertex 11.976906 7.897066 0.000000
endloop
endfacet
facet normal -0.904007 0.427518 0.000000
outer loop
vertex 11.976906 7.897066 0.000000
vertex 11.976906 7.897066 0.050000
vertex 11.977954 7.899284 0.050000
endloop
endfacet
facet normal -0.904007 0.427518 -0.000013
outer loop
vertex 11.976906 7.897066 0.000000
vertex 11.977954 7.899284 0.050000
vertex 11.977955 7.899284 0.000000
endloop
endfacet
facet normal -0.904007 0.427518 0.000000
outer loop
vertex 11.976906 7.897066 0.050000
vertex 11.976906 7.897066 0.100000
vertex 11.977955 7.899284 0.100000
endloop
endfacet
facet normal -0.904007 0.427518 0.000013
outer loop
vertex 11.976906 7.897066 0.050000
vertex 11.977955 7.899284 0.100000
vertex 11.977954 7.899284 0.050000
endloop
endfacet
facet normal -0.858110 0.513466 0.000015
outer loop
vertex 11.977954 7.899284 0.050000
vertex 11.977955 7.899284 0.100000
vertex 11.979216 7.901388 0.100000
endloop
endfacet
facet normal -0.857253 0.514896 0.000000
outer loop
vertex 11.977954 7.899284 0.050000
vertex 11.979216 7.901388 0.100000
vertex 11.979216 7.901388 0.050000
endloop
endfacet
facet normal -0.857682 0.514181 -0.000015
outer loop
vertex 11.977955 7.899284 0.000000
vertex 11.977954 7.899284 0.050000
vertex 11.979216 7.901388 0.050000
endloop
endfacet
facet normal -0.857682 0.514181 0.000000
outer loop
vertex 11.977955 7.899284 0.000000
vertex 11.979216 7.901388 0.050000
vertex 11.979216 7.901388 0.000000
endloop
endfacet
facet normal -0.803557 0.595228 0.000000
outer loop
vertex 11.979216 7.901388 0.000000
vertex 11.979216 7.901388 0.050000
vertex 11.980677 7.903358 0.050000
endloop
endfacet
facet normal -0.803092 0.595855 0.000000
outer loop
vertex 11.979216 7.901388 0.000000
vertex 11.980677 7.903358 0.050000
vertex 11.980677 7.903358 0.000000
endloop
endfacet
facet normal -0.803557 0.595228 0.000000
outer loop
vertex 11.979216 7.901388 0.050000
vertex 11.979216 7.901388 0.100000
vertex 11.980677 7.903358 0.100000
endloop
endfacet
facet normal -0.803092 0.595855 0.000000
outer loop
vertex 11.979216 7.901388 0.050000
vertex 11.980677 7.903358 0.100000
vertex 11.980677 7.903358 0.050000
endloop
endfacet
facet normal -0.741038 0.671463 0.000000
outer loop
vertex 11.980677 7.903358 0.050000
vertex 11.980677 7.903358 0.100000
vertex 11.982324 7.905176 0.100000
endloop
endfacet
facet normal -0.741038 0.671463 0.000000
outer loop
vertex 11.980677 7.903358 0.050000
vertex 11.982324 7.905176 0.100000
vertex 11.982324 7.905176 0.050000
endloop
endfacet
facet normal -0.741038 0.671463 0.000000
outer loop
vertex 11.980677 7.903358 0.000000
vertex 11.980677 7.903358 0.050000
vertex 11.982324 7.905176 0.050000
endloop
endfacet
facet normal -0.741038 0.671463 0.000000
outer loop
vertex 11.980677 7.903358 0.000000
vertex 11.982324 7.905176 0.050000
vertex 11.982324 7.905176 0.000000
endloop
endfacet
facet normal -0.671646 0.740872 0.000000
outer loop
vertex 11.982324 7.905176 0.000000
vertex 11.982324 7.905176 0.050000
vertex 11.984142 7.906823 0.050000
endloop
endfacet
facet normal -0.671163 0.741310 0.000000
outer loop
vertex 11.982324 7.905176 0.000000
vertex 11.984142 7.906823 0.050000
vertex 11.984142 7.906823 0.000000
endloop
endfacet
facet normal -0.671646 0.740872 0.000000
outer loop
vertex 11.982324 7.905176 0.050000
vertex 11.982324 7.905176 0.100000
vertex 11.984142 7.906823 0.100000
endloop
endfacet
facet normal -0.671163 0.741310 0.000000
outer loop
vertex 11.982324 7.905176 0.050000
vertex 11.984142 7.906823 0.100000
vertex 11.984142 7.906823 0.050000
endloop
endfacet
facet normal -0.596073 0.802930 0.000000
outer loop
vertex 11.984142 7.906823 0.050000
vertex 11.984142 7.906823 0.100000
vertex 11.986112 7.908285 0.100000
endloop
endfacet
facet normal -0.595608 0.803275 -0.000016
outer loop
vertex 11.984142 7.906823 0.050000
vertex 11.986112 7.908285 0.100000
vertex 11.986113 7.908285 0.050000
endloop
endfacet
facet normal -0.595608 0.803275 0.000000
outer loop
vertex 11.984142 7.906823 0.000000
vertex 11.984142 7.906823 0.050000
vertex 11.986113 7.908285 0.050000
endloop
endfacet
facet normal -0.596073 0.802930 0.000016
outer loop
vertex 11.984142 7.906823 0.000000
vertex 11.986113 7.908285 0.050000
vertex 11.986112 7.908285 0.000000
endloop
endfacet
facet normal -0.514353 0.857579 0.000000
outer loop
vertex 11.986112 7.908285 0.000000
vertex 11.986113 7.908285 0.050000
vertex 11.988216 7.909546 0.050000
endloop
endfacet
facet normal -0.513924 0.857836 -0.000021
outer loop
vertex 11.986112 7.908285 0.000000
vertex 11.988216 7.909546 0.050000
vertex 11.988217 7.909546 0.000000
endloop
endfacet
facet normal -0.513924 0.857836 0.000000
outer loop
vertex 11.986113 7.908285 0.050000
vertex 11.986112 7.908285 0.100000
vertex 11.988217 7.909546 0.100000
endloop
endfacet
facet normal -0.514353 0.857579 0.000021
outer loop
vertex 11.986113 7.908285 0.050000
vertex 11.988217 7.909546 0.100000
vertex 11.988216 7.909546 0.050000
endloop
endfacet
facet normal -0.427668 0.903936 0.000000
outer loop
vertex 11.988216 7.909546 0.050000
vertex 11.988217 7.909546 0.100000
vertex 11.990434 7.910595 0.100000
endloop
endfacet
facet normal -0.427668 0.903936 0.000000
outer loop
vertex 11.988216 7.909546 0.050000
vertex 11.990434 7.910595 0.100000
vertex 11.990434 7.910595 0.050000
endloop
endfacet
facet normal -0.427668 0.903936 0.000000
outer loop
vertex 11.988217 7.909546 0.000000
vertex 11.988216 7.909546 0.050000
vertex 11.990434 7.910595 0.050000
endloop
endfacet
facet normal -0.427668 0.903936 0.000000
outer loop
vertex 11.988217 7.909546 0.000000
vertex 11.990434 7.910595 0.050000
vertex 11.990434 7.910595 0.000000
endloop
endfacet
facet normal 0.000000 0.000000 1.000000
outer loop
vertex 12.004878 7.912020 0.100000
vertex 12.002450 7.912377 0.100000
vertex 12.000001 7.887501 0.100000
endloop
endfacet
facet normal 0.000000 0.000000 1.000000
outer loop
vertex 12.004878 7.912020 0.100000
vertex 12.000001 7.887501 0.100000
vertex 12.007257 7.911421 0.100000
endloop
endfacet
facet normal -0.000008 0.000000 1.000000
outer loop
vertex 12.000000 7.912500 0.100000
vertex 11.997550 7.912377 0.100000
vertex 12.000001 7.887501 0.100000
endloop
endfacet
facet normal 0.000008 0.000000 1.000000
outer loop
vertex 12.000000 7.912500 0.100000
vertex 12.000001 7.887501 0.100000
vertex 12.002450 7.912377 0.100000
endloop
endfacet
facet normal 0.000000 0.000000 1.000000
outer loop
vertex 11.995123 7.912020 0.100000
vertex 11.992744 7.911421 0.100000
vertex 12.000001 7.887501 0.100000
endloop
endfacet
facet normal 0.000000 0.000000 1.000000
outer loop
vertex 11.995123 7.912020 0.100000
vertex 12.000001 7.887501 0.100000
vertex 11.997550 7.912377 0.100000
endloop
endfacet
facet normal 0.000000 0.000000 1.000000
outer loop
vertex 11.990433 7.910597 0.100000
vertex 11.988216 7.909546 0.100000
vertex 12.000001 7.887501 0.100000
endloop
endfacet
facet normal 0.000000 0.000000 1.000000
outer loop
vertex 11.990433 7.910597 0.100000
vertex 12.000001 7.887501 0.100000
vertex 11.992744 7.911421 0.100000
endloop
endfacet
facet normal 0.000000 0.000000 1.000000
outer loop
vertex 11.986111 7.908287 0.100000
vertex 11.984142 7.906823 0.100000
vertex 12.000001 7.887501 0.100000
endloop
endfacet
facet normal 0.000000 0.000000 1.000000
outer loop
vertex 11.986111 7.908287 0.100000
vertex 12.000001 7.887501 0.100000
vertex 11.988216 7.909546 0.100000
endloop
endfacet
facet normal 0.000000 0.000000 1.000000
outer loop
vertex 11.982323 7.905178 0.100000
vertex 11.980677 7.903358 0.100000
vertex 12.000001 7.887501 0.100000
endloop
endfacet
facet normal 0.000000 0.000000 1.000000
outer loop
vertex 11.982323 7.905178 0.100000
vertex 12.000001 7.887501 0.100000
vertex 11.984142 7.906823 0.100000
endloop
endfacet
facet normal 0.000004 0.000000 1.000000
outer loop
vertex 11.979213 7.901390 0.100000
vertex 11.977955 7.899284 0.100000
vertex 12.000001 7.887501 0.100000
endloop
endfacet
facet normal -0.000004 0.000000 1.000000
outer loop
vertex 11.979213 7.901390 0.100000
vertex 12.000001 7.887501 0.100000
vertex 11.980677 7.903358 0.100000
endloop
endfacet
facet normal 0.000002 0.000000 1.000000
outer loop
vertex 11.976903 7.897067 0.100000
vertex 11.976079 7.894757 0.100000
vertex 12.000001 7.887501 0.100000
endloop
endfacet
facet normal 0.000000 0.000000 1.000000
outer loop
vertex 11.976903 7.897067 0.100000
vertex 12.000001 7.887501 0.100000
vertex 11.977955 7.899284 0.100000
endloop
endfacet
facet normal 0.000000 0.000000 1.000000
outer loop
vertex 11.975481 7.892377 0.100000
vertex 11.975123 7.889950 0.100000
vertex 12.000001 7.887501 0.100000
endloop
endfacet
facet normal 0.000000 0.000000 1.000000
outer loop
vertex 11.975481 7.892377 0.100000
vertex 12.000001 7.887501 0.100000
vertex 11.976079 7.894757 0.100000
endloop
endfacet
facet normal 0.000000 0.000000 1.000000
outer loop
vertex 11.975000 7.887500 0.100000
vertex 11.975123 7.885050 0.100000
vertex 12.000001 7.887501 0.100000
endloop
endfacet
facet normal -0.000001 0.000000 1.000000
outer loop
vertex 11.975000 7.887500 0.100000
vertex 12.000001 7.887501 0.100000
vertex 11.975123 7.889950 0.100000
endloop
endfacet
facet normal 0.000000 0.000000 1.000000
outer loop
vertex 11.975481 7.882623 0.100000
vertex 11.976079 7.880244 0.100000
vertex 12.000001 7.887501 0.100000
endloop
endfacet
facet normal 0.000000 0.000000 1.000000
outer loop
vertex 11.975481 7.882623 0.100000
vertex 12.000001 7.887501 0.100000
vertex 11.975123 7.885050 0.100000
endloop
endfacet
facet normal 0.000000 0.000000 1.000000
outer loop
vertex 11.976903 7.877933 0.100000
vertex 11.977954 7.875716 0.100000
vertex 12.000001 7.887501 0.100000
endloop
endfacet
facet normal 0.000002 0.000000 1.000000
outer loop
vertex 11.976903 7.877933 0.100000
vertex 12.000001 7.887501 0.100000
vertex 11.976079 7.880244 0.100000
endloop
endfacet
facet normal -0.000004 0.000000 1.000000
outer loop
vertex 11.979213 7.873611 0.100000
vertex 11.980677 7.871642 0.100000
vertex 12.000001 7.887501 0.100000
endloop
endfacet
facet normal 0.000000 0.000000 1.000000
outer loop
vertex 11.979213 7.873611 0.100000
vertex 12.000001 7.887501 0.100000
vertex 11.977954 7.875716 0.100000
endloop
endfacet
facet normal 0.000004 0.000000 1.000000
outer loop
vertex 11.982323 7.869823 0.100000
vertex 11.984142 7.868177 0.100000
vertex 12.000001 7.887501 0.100000
endloop
endfacet
facet normal 0.000000 0.000000 1.000000
outer loop
vertex 11.982323 7.869823 0.100000
vertex 12.000001 7.887501 0.100000
vertex 11.980677 7.871642 0.100000
endloop
endfacet
facet normal 0.000000 0.000000 1.000000
outer loop
vertex 11.986111 7.866713 0.100000
vertex 11.988217 7.865454 0.100000
vertex 12.000001 7.887501 0.100000
endloop
endfacet
facet normal 0.000000 0.000000 1.000000
outer loop
vertex 11.986111 7.866713 0.100000
vertex 12.000001 7.887501 0.100000
vertex 11.984142 7.868177 0.100000
endloop
endfacet
facet normal -0.000008 0.000000 1.000000
outer loop
vertex 11.990433 7.864403 0.100000
vertex 11.992744 7.863579 0.100000
vertex 12.000001 7.887501 0.100000
endloop
endfacet
facet normal 0.000000 0.000000 1.000000
outer loop
vertex 11.990433 7.864403 0.100000
vertex 12.000001 7.887501 0.100000
vertex 11.988217 7.865454 0.100000
endloop
endfacet
facet normal 0.000000 0.000000 1.000000
outer loop
vertex 11.995123 7.862981 0.100000
vertex 11.997550 7.862623 0.100000
vertex 12.000001 7.887501 0.100000
endloop
endfacet
facet normal 0.000000 0.000000 1.000000
outer loop
vertex 11.995123 7.862981 0.100000
vertex 12.000001 7.887501 0.100000
vertex 11.992744 7.863579 0.100000
endloop
endfacet
facet normal 0.000000 0.000000 1.000000
outer loop
vertex 12.000000 7.862500 0.100000
vertex 12.002450 7.862623 0.100000
vertex 12.000001 7.887501 0.100000
endloop
endfacet
facet normal 0.000000 0.000000 1.000000
outer loop
vertex 12.000000 7.862500 0.100000
vertex 12.000001 7.887501 0.100000
vertex 11.997550 7.862623 0.100000
endloop
endfacet
facet normal 0.000000 0.000000 1.000000
outer loop
vertex 12.004878 7.862981 0.100000
vertex 12.007257 7.863579 0.100000
vertex 12.000001 7.887501 0.100000
endloop
endfacet
facet normal 0.000000 0.000000 1.000000
outer loop
vertex 12.004878 7.862981 0.100000
vertex 12.000001 7.887501 0.100000
vertex 12.002450 7.862623 0.100000
endloop
endfacet
facet normal 0.000000 0.000000 1.000000
outer loop
vertex 12.009567 7.864403 0.100000
vertex 12.011784 7.865454 0.100000
vertex 12.000001 7.887501 0.100000
endloop
endfacet
facet normal 0.000008 0.000000 1.000000
outer loop
vertex 12.009567 7.864403 0.100000
vertex 12.000001 7.887501 0.100000
vertex 12.007257 7.863579 0.100000
endloop
endfacet
facet normal 0.000000 0.000000 1.000000
outer loop
vertex 12.013889 7.866713 0.100000
vertex 12.015858 7.868177 0.100000
vertex 12.000001 7.887501 0.100000
endloop
endfacet
facet normal 0.000000 0.000000 1.000000
outer loop
vertex 12.013889 7.866713 0.100000
vertex 12.000001 7.887501 0.100000
vertex 12.011784 7.865454 0.100000
endloop
endfacet
facet normal 0.000000 0.000000 1.000000
outer loop
vertex 12.017678 7.869823 0.100000
vertex 12.019324 7.871642 0.100000
vertex 12.000001 7.887501 0.100000
endloop
endfacet
facet normal -0.000004 0.000000 1.000000
outer loop
vertex 12.017678 7.869823 0.100000
vertex 12.000001 7.887501 0.100000
vertex 12.015858 7.868177 0.100000
endloop
endfacet
facet normal 0.000000 0.000000 1.000000
outer loop
vertex 12.020787 7.873611 0.100000
vertex 12.022046 7.875716 0.100000
vertex 12.000001 7.887501 0.100000
endloop
endfacet
facet normal 0.000004 0.000000 1.000000
outer loop
vertex 12.020787 7.873611 0.100000
vertex 12.000001 7.887501 0.100000
vertex 12.019324 7.871642 0.100000
endloop
endfacet
facet normal -0.000002 0.000000 1.000000
outer loop
vertex 12.023097 7.877933 0.100000
vertex 12.023921 7.880244 0.100000
vertex 12.000001 7.887501 0.100000
endloop
endfacet
facet normal 0.000000 0.000000 1.000000
outer loop
vertex 12.023097 7.877933 0.100000
vertex 12.000001 7.887501 0.100000
vertex 12.022046 7.875716 0.100000
endloop
endfacet
facet normal 0.000000 0.000000 1.000000
outer loop
vertex 12.024520 7.882623 0.100000
vertex 12.024877 7.885050 0.100000
vertex 12.000001 7.887501 0.100000
endloop
endfacet
facet normal 0.000000 0.000000 1.000000
outer loop
vertex 12.024520 7.882623 0.100000
vertex 12.000001 7.887501 0.100000
vertex 12.023921 7.880244 0.100000
endloop
endfacet
facet normal 0.000001 0.000000 1.000000
outer loop
vertex 12.025000 7.887500 0.100000
vertex 12.024877 7.889950 0.100000
vertex 12.000001 7.887501 0.100000
endloop
endfacet
facet normal 0.000000 0.000000 1.000000
outer loop
vertex 12.025000 7.887500 0.100000
vertex 12.000001 7.887501 0.100000
vertex 12.024877 7.885050 0.100000
endloop
endfacet
facet normal 0.000000 0.000000 1.000000
outer loop
vertex 12.024520 7.892377 0.100000
vertex 12.023921 7.894757 0.100000
vertex 12.000001 7.887501 0.100000
endloop
endfacet
facet normal 0.000000 0.000000 1.000000
outer loop
vertex 12.024520 7.892377 0.100000
vertex 12.000001 7.887501 0.100000
vertex 12.024877 7.889950 0.100000
endloop
endfacet
facet normal 0.000000 0.000000 1.000000
outer loop
vertex 12.023097 7.897067 0.100000
vertex 12.022046 7.899284 0.100000
vertex 12.000001 7.887501 0.100000
endloop
endfacet
facet normal -0.000002 0.000000 1.000000
outer loop
vertex 12.023097 7.897067 0.100000
vertex 12.000001 7.887501 0.100000
vertex 12.023921 7.894757 0.100000
endloop
endfacet
facet normal 0.000004 0.000000 1.000000
outer loop
vertex 12.020787 7.901390 0.100000
vertex 12.019324 7.903358 0.100000
vertex 12.000001 7.887501 0.100000
endloop
endfacet
facet normal -0.000004 0.000000 1.000000
outer loop
vertex 12.020787 7.901390 0.100000
vertex 12.000001 7.887501 0.100000
vertex 12.022046 7.899284 0.100000
endloop
endfacet
facet normal 0.000000 0.000000 1.000000
outer loop
vertex 12.017678 7.905178 0.100000
vertex 12.015858 7.906824 0.100000
vertex 12.000001 7.887501 0.100000
endloop
endfacet
facet normal 0.000000 0.000000 1.000000
outer loop
vertex 12.017678 7.905178 0.100000
vertex 12.000001 7.887501 0.100000
vertex 12.019324 7.903358 0.100000
endloop
endfacet
facet normal 0.000000 0.000000 1.000000
outer loop
vertex 12.013889 7.908287 0.100000
vertex 12.011784 7.909546 0.100000
vertex 12.000001 7.887501 0.100000
endloop
endfacet
facet normal 0.000000 0.000000 1.000000
outer loop
vertex 12.013889 7.908287 0.100000
vertex 12.000001 7.887501 0.100000
vertex 12.015858 7.906824 0.100000
endloop
endfacet
facet normal 0.000000 0.000000 1.000000
outer loop
vertex 12.009567 7.910597 0.100000
vertex 12.007257 7.911421 0.100000
vertex 12.000001 7.887501 0.100000
endloop
endfacet
facet normal 0.000000 0.000000 1.000000
outer loop
vertex 12.009567 7.910597 0.100000
vertex 12.000001 7.887501 0.100000
vertex 12.011784 7.909546 0.100000
endloop
endfacet
facet normal -0.336620 0.941641 0.000000
outer loop
vertex 11.990434 7.910595 0.000000
vertex 11.990434 7.910595 0.050000
vertex 11.992744 7.911421 0.050000
endloop
endfacet
facet normal -0.336620 0.941641 0.000000
outer loop
vertex 11.990434 7.910595 0.000000
vertex 11.992744 7.911421 0.050000
vertex 11.992744 7.911421 0.000000
endloop
endfacet
facet normal -0.336619 0.941641 0.000000
outer loop
vertex 11.990434 7.910595 0.050000
vertex 11.990434 7.910595 0.100000
vertex 11.992744 7.911421 0.100000
endloop
endfacet
facet normal -0.336620 0.941641 0.000000
outer loop
vertex 11.990434 7.910595 0.050000
vertex 11.992744 7.911421 0.100000
vertex 11.992744 7.911421 0.050000
endloop
endfacet
facet normal -0.242764 0.970085 0.000000
outer loop
vertex 11.992744 7.911421 0.050000
vertex 11.992744 7.911421 0.100000
vertex 11.995124 7.912017 0.100000
endloop
endfacet
facet normal -0.243222 0.969971 -0.000001
outer loop
vertex 11.992744 7.911421 0.050000
vertex 11.995124 7.912017 0.100000
vertex 11.995123 7.912017 0.050000
endloop
endfacet
facet normal -0.242993 0.970028 0.000000
outer loop
vertex 11.992744 7.911421 0.000000
vertex 11.992744 7.911421 0.050000
vertex 11.995123 7.912017 0.050000
endloop
endfacet
facet normal -0.242993 0.970028 0.000001
outer loop
vertex 11.992744 7.911421 0.000000
vertex 11.995123 7.912017 0.050000
vertex 11.995124 7.912017 0.000000
endloop
endfacet
facet normal -0.146725 0.989177 0.000000
outer loop
vertex 11.995124 7.912017 0.000000
vertex 11.995123 7.912017 0.050000
vertex 11.997550 7.912377 0.050000
endloop
endfacet
facet normal -0.146725 0.989177 0.000000
outer loop
vertex 11.995124 7.912017 0.000000
vertex 11.997550 7.912377 0.050000
vertex 11.997550 7.912377 0.000000
endloop
endfacet
facet normal -0.146866 0.989156 0.000000
outer loop
vertex 11.995123 7.912017 0.050000
vertex 11.995124 7.912017 0.100000
vertex 11.997550 7.912377 0.100000
endloop
endfacet
facet normal -0.146584 0.989198 0.000000
outer loop
vertex 11.995123 7.912017 0.050000
vertex 11.997550 7.912377 0.100000
vertex 11.997550 7.912377 0.050000
endloop
endfacet
facet normal -0.049162 0.998791 0.000000
outer loop
vertex 11.997550 7.912377 0.050000
vertex 11.997550 7.912377 0.100000
vertex 12.000000 7.912498 0.100000
endloop
endfacet
facet normal -0.049210 0.998788 0.000000
outer loop
vertex 11.997550 7.912377 0.050000
vertex 12.000000 7.912498 0.100000
vertex 12.000000 7.912498 0.050000
endloop
endfacet
facet normal -0.049162 0.998791 0.000000
outer loop
vertex 11.997550 7.912377 0.000000
vertex 11.997550 7.912377 0.050000
vertex 12.000000 7.912498 0.050000
endloop
endfacet
facet normal -0.049210 0.998788 0.000000
outer loop
vertex 11.997550 7.912377 0.000000
vertex 12.000000 7.912498 0.050000
vertex 12.000000 7.912498 0.000000
endloop
endfacet
facet normal 0.000000 0.000000 -1.000000
outer loop
vertex 12.000000 7.912500 0.000000
vertex 12.002450 7.912377 0.000000
vertex 12.000001 7.887501 0.000000
endloop
endfacet
facet normal 0.000000 0.000000 -1.000000
outer loop
vertex 12.000000 7.912500 0.000000
vertex 12.000001 7.887501 0.000000
vertex 11.997550 7.912377 0.000000
endloop
endfacet
facet normal 0.000000 0.000000 -1.000000
outer loop
vertex 12.004878 7.912020 0.000000
vertex 12.007257 7.911421 0.000000
vertex 12.000001 7.887501 0.000000
endloop
endfacet
facet normal 0.000000 0.000000 -1.000000
outer loop
vertex 12.004878 7.912020 0.000000
vertex 12.000001 7.887501 0.000000
vertex 12.002450 7.912377 0.000000
endloop
endfacet
facet normal 0.000000 0.000000 -1.000000
outer loop
vertex 12.009567 7.910597 0.000000
vertex 12.011784 7.909546 0.000000
vertex 12.000001 7.887501 0.000000
endloop
endfacet
facet normal 0.000000 0.000000 -1.000000
outer loop
vertex 12.009567 7.910597 0.000000
vertex 12.000001 7.887501 0.000000
vertex 12.007257 7.911421 0.000000
endloop
endfacet
facet normal 0.000000 0.000000 -1.000000
outer loop
vertex 12.013889 7.908287 0.000000
vertex 12.015858 7.906823 0.000000
vertex 12.000001 7.887501 0.000000
endloop
endfacet
facet normal 0.000000 0.000000 -1.000000
outer loop
vertex 12.013889 7.908287 0.000000
vertex 12.000001 7.887501 0.000000
vertex 12.011784 7.909546 0.000000
endloop
endfacet
facet normal 0.000000 0.000000 -1.000000
outer loop
vertex 12.017678 7.905178 0.000000
vertex 12.019324 7.903358 0.000000
vertex 12.000001 7.887501 0.000000
endloop
endfacet
facet normal 0.000000 0.000000 -1.000000
outer loop
vertex 12.017678 7.905178 0.000000
vertex 12.000001 7.887501 0.000000
vertex 12.015858 7.906823 0.000000
endloop
endfacet
facet normal 0.000000 0.000000 -1.000000
outer loop
vertex 12.020787 7.901390 0.000000
vertex 12.022046 7.899284 0.000000
vertex 12.000001 7.887501 0.000000
endloop
endfacet
facet normal 0.000000 0.000000 -1.000000
outer loop
vertex 12.020787 7.901390 0.000000
vertex 12.000001 7.887501 0.000000
vertex 12.019324 7.903358 0.000000
endloop
endfacet
facet normal 0.000000 0.000000 -1.000000
outer loop
vertex 12.023097 7.897067 0.000000
vertex 12.023921 7.894757 0.000000
vertex 12.000001 7.887501 0.000000
endloop
endfacet
facet normal 0.000000 0.000000 -1.000000
outer loop
vertex 12.023097 7.897067 0.000000
vertex 12.000001 7.887501 0.000000
vertex 12.022046 7.899284 0.000000
endloop
endfacet
facet normal 0.000000 0.000000 -1.000000
outer loop
vertex 12.024520 7.892377 0.000000
vertex 12.024877 7.889950 0.000000
vertex 12.000001 7.887501 0.000000
endloop
endfacet
facet normal 0.000000 0.000000 -1.000000
outer loop
vertex 12.024520 7.892377 0.000000
vertex 12.000001 7.887501 0.000000
vertex 12.023921 7.894757 0.000000
endloop
endfacet
facet normal 0.000000 0.000000 -1.000000
outer loop
vertex 12.025000 7.887500 0.000000
vertex 12.024877 7.885050 0.000000
vertex 12.000001 7.887501 0.000000
endloop
endfacet
facet normal 0.000000 0.000000 -1.000000
outer loop
vertex 12.025000 7.887500 0.000000
vertex 12.000001 7.887501 0.000000
vertex 12.024877 7.889950 0.000000
endloop
endfacet
facet normal 0.000000 0.000000 -1.000000
outer loop
vertex 12.024520 7.882623 0.000000
vertex 12.023921 7.880244 0.000000
vertex 12.000001 7.887501 0.000000
endloop
endfacet
facet normal 0.000000 0.000000 -1.000000
outer loop
vertex 12.024520 7.882623 0.000000
vertex 12.000001 7.887501 0.000000
vertex 12.024877 7.885050 0.000000
endloop
endfacet
facet normal 0.000000 0.000000 -1.000000
outer loop
vertex 12.023097 7.877933 0.000000
vertex 12.022046 7.875716 0.000000
vertex 12.000001 7.887501 0.000000
endloop
endfacet
facet normal 0.000000 0.000000 -1.000000
outer loop
vertex 12.023097 7.877933 0.000000
vertex 12.000001 7.887501 0.000000
vertex 12.023921 7.880244 0.000000
endloop
endfacet
facet normal 0.000000 0.000000 -1.000000
outer loop
vertex 12.020787 7.873611 0.000000
vertex 12.019324 7.871642 0.000000
vertex 12.000001 7.887501 0.000000
endloop
endfacet
facet normal 0.000000 0.000000 -1.000000
outer loop
vertex 12.020787 7.873611 0.000000
vertex 12.000001 7.887501 0.000000
vertex 12.022046 7.875716 0.000000
endloop
endfacet
facet normal 0.000000 0.000000 -1.000000
outer loop
vertex 12.017678 7.869823 0.000000
vertex 12.015858 7.868177 0.000000
vertex 12.000001 7.887501 0.000000
endloop
endfacet
facet normal 0.000000 0.000000 -1.000000
outer loop
vertex 12.017678 7.869823 0.000000
vertex 12.000001 7.887501 0.000000
vertex 12.019324 7.871642 0.000000
endloop
endfacet
facet normal 0.000000 0.000000 -1.000000
outer loop
vertex 12.013889 7.866713 0.000000
vertex 12.011784 7.865454 0.000000
vertex 12.000001 7.887501 0.000000
endloop
endfacet
facet normal 0.000000 0.000000 -1.000000
outer loop
vertex 12.013889 7.866713 0.000000
vertex 12.000001 7.887501 0.000000
vertex 12.015858 7.868177 0.000000
endloop
endfacet
facet normal 0.000000 0.000000 -1.000000
outer loop
vertex 12.009567 7.864403 0.000000
vertex 12.007257 7.863579 0.000000
vertex 12.000001 7.887501 0.000000
endloop
endfacet
facet normal 0.000000 0.000000 -1.000000
outer loop
vertex 12.009567 7.864403 0.000000
vertex 12.000001 7.887501 0.000000
vertex 12.011784 7.865454 0.000000
endloop
endfacet
facet normal 0.000000 0.000000 -1.000000
outer loop
vertex 12.004878 7.862981 0.000000
vertex 12.002450 7.862623 0.000000
vertex 12.000001 7.887501 0.000000
endloop
endfacet
facet normal 0.000000 0.000000 -1.000000
outer loop
vertex 12.004878 7.862981 0.000000
vertex 12.000001 7.887501 0.000000
vertex 12.007257 7.863579 0.000000
endloop
endfacet
facet normal 0.000000 0.000000 -1.000000
outer loop
vertex 12.000000 7.862500 0.000000
vertex 11.997550 7.862623 0.000000
vertex 12.000001 7.887501 0.000000
endloop
endfacet
facet normal 0.000000 0.000000 -1.000000
outer loop
vertex 12.000000 7.862500 0.000000
vertex 12.000001 7.887501 0.000000
vertex 12.002450 7.862623 0.000000
endloop
endfacet
facet normal 0.000000 0.000000 -1.000000
outer loop
vertex 11.995123 7.862981 0.000000
vertex 11.992744 7.863579 0.000000
vertex 12.000001 7.887501 0.000000
endloop
endfacet
facet normal 0.000000 0.000000 -1.000000
outer loop
vertex 11.995123 7.862981 0.000000
vertex 12.000001 7.887501 0.000000
vertex 11.997550 7.862623 0.000000
endloop
endfacet
facet normal 0.000000 0.000000 -1.000000
outer loop
vertex 11.990433 7.864403 0.000000
vertex 11.988216 7.865454 0.000000
vertex 12.000001 7.887501 0.000000
endloop
endfacet
facet normal 0.000000 0.000000 -1.000000
outer loop
vertex 11.990433 7.864403 0.000000
vertex 12.000001 7.887501 0.000000
vertex 11.992744 7.863579 0.000000
endloop
endfacet
facet normal 0.000000 0.000000 -1.000000
outer loop
vertex 11.986111 7.866713 0.000000
vertex 11.984142 7.868177 0.000000
vertex 12.000001 7.887501 0.000000
endloop
endfacet
facet normal 0.000000 0.000000 -1.000000
outer loop
vertex 11.986111 7.866713 0.000000
vertex 12.000001 7.887501 0.000000
vertex 11.988216 7.865454 0.000000
endloop
endfacet
facet normal 0.000000 0.000000 -1.000000
outer loop
vertex 11.982323 7.869823 0.000000
vertex 11.980677 7.871642 0.000000
vertex 12.000001 7.887501 0.000000
endloop
endfacet
facet normal 0.000000 0.000000 -1.000000
outer loop
vertex 11.982323 7.869823 0.000000
vertex 12.000001 7.887501 0.000000
vertex 11.984142 7.868177 0.000000
endloop
endfacet
facet normal 0.000000 0.000000 -1.000000
outer loop
vertex 11.979213 7.873611 0.000000
vertex 11.977954 7.875716 0.000000
vertex 12.000001 7.887501 0.000000
endloop
endfacet
facet normal 0.000000 0.000000 -1.000000
outer loop
vertex 11.979213 7.873611 0.000000
vertex 12.000001 7.887501 0.000000
vertex 11.980677 7.871642 0.000000
endloop
endfacet
facet normal 0.000000 0.000000 -1.000000
outer loop
vertex 11.976903 7.877933 0.000000
vertex 11.976079 7.880244 0.000000
vertex 12.000001 7.887501 0.000000
endloop
endfacet
facet normal 0.000000 0.000000 -1.000000
outer loop
vertex 11.976903 7.877933 0.000000
vertex 12.000001 7.887501 0.000000
vertex 11.977954 7.875716 0.000000
endloop
endfacet
facet normal 0.000000 0.000000 -1.000000
outer loop
vertex 11.975481 7.882623 0.000000
vertex 11.975123 7.885050 0.000000
vertex 12.000001 7.887501 0.000000
endloop
endfacet
facet normal 0.000000 0.000000 -1.000000
outer loop
vertex 11.975481 7.882623 0.000000
vertex 12.000001 7.887501 0.000000
vertex 11.976079 7.880244 0.000000
endloop
endfacet
facet normal 0.000000 0.000000 -1.000000
outer loop
vertex 11.975000 7.887500 0.000000
vertex 11.975123 7.889950 0.000000
vertex 12.000001 7.887501 0.000000
endloop
endfacet
facet normal 0.000000 0.000000 -1.000000
outer loop
vertex 11.975000 7.887500 0.000000
vertex 12.000001 7.887501 0.000000
vertex 11.975123 7.885050 0.000000
endloop
endfacet
facet normal 0.000000 0.000000 -1.000000
outer loop
vertex 11.975481 7.892377 0.000000
vertex 11.976079 7.894757 0.000000
vertex 12.000001 7.887501 0.000000
endloop
endfacet
facet normal 0.000000 0.000000 -1.000000
outer loop
vertex 11.975481 7.892377 0.000000
vertex 12.000001 7.887501 0.000000
vertex 11.975123 7.889950 0.000000
endloop
endfacet
facet normal 0.000000 0.000000 -1.000000
outer loop
vertex 11.976903 7.897067 0.000000
vertex 11.977954 7.899284 0.000000
vertex 12.000001 7.887501 0.000000
endloop
endfacet
facet normal 0.000000 0.000000 -1.000000
outer loop
vertex 11.976903 7.897067 0.000000
vertex 12.000001 7.887501 0.000000
vertex 11.976079 7.894757 0.000000
endloop
endfacet
facet normal 0.000000 0.000000 -1.000000
outer loop
vertex 11.979213 7.901390 0.000000
vertex 11.980677 7.903358 0.000000
vertex 12.000001 7.887501 0.000000
endloop
endfacet
facet normal 0.000000 0.000000 -1.000000
outer loop
vertex 11.979213 7.901390 0.000000
vertex 12.000001 7.887501 0.000000
vertex 11.977954 7.899284 0.000000
endloop
endfacet
facet normal 0.000000 0.000000 -1.000000
outer loop
vertex 11.982323 7.905178 0.000000
vertex 11.984142 7.906824 0.000000
vertex 12.000001 7.887501 0.000000
endloop
endfacet
facet normal 0.000000 0.000000 -1.000000
outer loop
vertex 11.982323 7.905178 0.000000
vertex 12.000001 7.887501 0.000000
vertex 11.980677 7.903358 0.000000
endloop
endfacet
facet normal 0.000000 0.000000 -1.000000
outer loop
vertex 11.986111 7.908287 0.000000
vertex 11.988217 7.909546 0.000000
vertex 12.000001 7.887501 0.000000
endloop
endfacet
facet normal 0.000000 0.000000 -1.000000
outer loop
vertex 11.986111 7.908287 0.000000
vertex 12.000001 7.887501 0.000000
vertex 11.984142 7.906824 0.000000
endloop
endfacet
facet normal 0.000000 0.000000 -1.000000
outer loop
vertex 11.990433 7.910597 0.000000
vertex 11.992744 7.911421 0.000000
vertex 12.000001 7.887501 0.000000
endloop
endfacet
facet normal 0.000000 0.000000 -1.000000
outer loop
vertex 11.990433 7.910597 0.000000
vertex 12.000001 7.887501 0.000000
vertex 11.988217 7.909546 0.000000
endloop
endfacet
facet normal 0.000000 0.000000 -1.000000
outer loop
vertex 11.995123 7.912020 0.000000
vertex 11.997550 7.912377 0.000000
vertex 12.000001 7.887501 0.000000
endloop
endfacet
facet normal 0.000000 0.000000 -1.000000
outer loop
vertex 11.995123 7.912020 0.000000
vertex 12.000001 7.887501 0.000000
vertex 11.992744 7.911421 0.000000
endloop
endfacet
endsolid Exported from Blender-2.82 (sub 7)
