solid Exported from Blender-2.82 (sub 7)
facet normal 0.049404 0.998779 0.000000
outer loop
vertex 8.923880 8.407678 0.000000
vertex 8.923880 8.407678 0.050000
vertex 8.926330 8.407557 0.050000
endloop
endfacet
facet normal 0.049356 0.998781 0.000000
outer loop
vertex 8.923880 8.407678 0.000000
vertex 8.926330 8.407557 0.050000
vertex 8.926330 8.407557 0.000000
endloop
endfacet
facet normal 0.049404 0.998779 0.000000
outer loop
vertex 8.923880 8.407678 0.050000
vertex 8.923880 8.407678 0.100000
vertex 8.926330 8.407557 0.100000
endloop
endfacet
facet normal 0.049356 0.998781 0.000000
outer loop
vertex 8.923880 8.407678 0.050000
vertex 8.926330 8.407557 0.100000
vertex 8.926330 8.407557 0.050000
endloop
endfacet
facet normal 0.146464 0.989216 0.000000
outer loop
vertex 8.926330 8.407557 0.050000
vertex 8.926330 8.407557 0.100000
vertex 8.928757 8.407197 0.100000
endloop
endfacet
facet normal 0.146605 0.989195 0.000000
outer loop
vertex 8.926330 8.407557 0.050000
vertex 8.928757 8.407197 0.100000
vertex 8.928757 8.407197 0.050000
endloop
endfacet
facet normal 0.146464 0.989216 0.000000
outer loop
vertex 8.926330 8.407557 0.000000
vertex 8.926330 8.407557 0.050000
vertex 8.928757 8.407197 0.050000
endloop
endfacet
facet normal 0.146605 0.989195 0.000000
outer loop
vertex 8.926330 8.407557 0.000000
vertex 8.928757 8.407197 0.050000
vertex 8.928757 8.407197 0.000000
endloop
endfacet
facet normal 0.243474 0.969908 0.000000
outer loop
vertex 8.928757 8.407197 0.000000
vertex 8.928757 8.407197 0.050000
vertex 8.931135 8.406600 0.050000
endloop
endfacet
facet normal 0.243244 0.969965 0.000019
outer loop
vertex 8.928757 8.407197 0.000000
vertex 8.931135 8.406600 0.050000
vertex 8.931137 8.406600 0.000000
endloop
endfacet
facet normal 0.243244 0.969965 0.000000
outer loop
vertex 8.928757 8.407197 0.050000
vertex 8.928757 8.407197 0.100000
vertex 8.931137 8.406600 0.100000
endloop
endfacet
facet normal 0.243474 0.969908 -0.000019
outer loop
vertex 8.928757 8.407197 0.050000
vertex 8.931137 8.406600 0.100000
vertex 8.931135 8.406600 0.050000
endloop
endfacet
facet normal 0.336928 0.941531 0.000000
outer loop
vertex 8.931135 8.406600 0.050000
vertex 8.931137 8.406600 0.100000
vertex 8.933445 8.405774 0.100000
endloop
endfacet
facet normal 0.336620 0.941641 0.000000
outer loop
vertex 8.931135 8.406600 0.050000
vertex 8.933445 8.405774 0.100000
vertex 8.933445 8.405774 0.050000
endloop
endfacet
facet normal 0.336620 0.941641 0.000000
outer loop
vertex 8.931137 8.406600 0.000000
vertex 8.931135 8.406600 0.050000
vertex 8.933445 8.405774 0.050000
endloop
endfacet
facet normal 0.336928 0.941531 0.000000
outer loop
vertex 8.931137 8.406600 0.000000
vertex 8.933445 8.405774 0.050000
vertex 8.933445 8.405774 0.000000
endloop
endfacet
facet normal 0.427163 0.904175 0.000000
outer loop
vertex 8.933445 8.405774 0.000000
vertex 8.933445 8.405774 0.050000
vertex 8.935663 8.404726 0.050000
endloop
endfacet
facet normal 0.427351 0.904086 0.000000
outer loop
vertex 8.933445 8.405774 0.000000
vertex 8.935663 8.404726 0.050000
vertex 8.935663 8.404726 0.000000
endloop
endfacet
facet normal 0.427163 0.904175 0.000000
outer loop
vertex 8.933445 8.405774 0.050000
vertex 8.933445 8.405774 0.100000
vertex 8.935663 8.404726 0.100000
endloop
endfacet
facet normal 0.427351 0.904086 0.000000
outer loop
vertex 8.933445 8.405774 0.050000
vertex 8.935663 8.404726 0.100000
vertex 8.935663 8.404726 0.050000
endloop
endfacet
facet normal 0.514567 0.857450 0.000000
outer loop
vertex 8.935663 8.404726 0.050000
vertex 8.935663 8.404726 0.100000
vertex 8.937767 8.403463 0.100000
endloop
endfacet
facet normal 0.514567 0.857450 0.000000
outer loop
vertex 8.935663 8.404726 0.050000
vertex 8.937767 8.403463 0.100000
vertex 8.937767 8.403463 0.050000
endloop
endfacet
facet normal 0.514567 0.857450 0.000000
outer loop
vertex 8.935663 8.404726 0.000000
vertex 8.935663 8.404726 0.050000
vertex 8.937767 8.403463 0.050000
endloop
endfacet
facet normal 0.514567 0.857450 0.000000
outer loop
vertex 8.935663 8.404726 0.000000
vertex 8.937767 8.403463 0.050000
vertex 8.937767 8.403463 0.000000
endloop
endfacet
facet normal 0.595590 0.803289 0.000000
outer loop
vertex 8.937767 8.403463 0.000000
vertex 8.937767 8.403463 0.050000
vertex 8.939737 8.402002 0.050000
endloop
endfacet
facet normal 0.595590 0.803289 0.000000
outer loop
vertex 8.937767 8.403463 0.000000
vertex 8.939737 8.402002 0.050000
vertex 8.939737 8.402002 0.000000
endloop
endfacet
facet normal 0.595590 0.803289 0.000000
outer loop
vertex 8.937767 8.403463 0.050000
vertex 8.937767 8.403463 0.100000
vertex 8.939737 8.402002 0.100000
endloop
endfacet
facet normal 0.595590 0.803289 0.000000
outer loop
vertex 8.937767 8.403463 0.050000
vertex 8.939737 8.402002 0.100000
vertex 8.939737 8.402002 0.050000
endloop
endfacet
facet normal 0.671860 0.740679 0.000000
outer loop
vertex 8.939737 8.402002 0.050000
vertex 8.939737 8.402002 0.100000
vertex 8.941555 8.400354 0.100000
endloop
endfacet
facet normal 0.671618 0.740898 0.000000
outer loop
vertex 8.939737 8.402002 0.050000
vertex 8.941555 8.400354 0.100000
vertex 8.941555 8.400354 0.050000
endloop
endfacet
facet normal 0.671860 0.740679 0.000000
outer loop
vertex 8.939737 8.402002 0.000000
vertex 8.939737 8.402002 0.050000
vertex 8.941555 8.400354 0.050000
endloop
endfacet
facet normal 0.671618 0.740898 0.000000
outer loop
vertex 8.939737 8.402002 0.000000
vertex 8.941555 8.400354 0.050000
vertex 8.941555 8.400354 0.000000
endloop
endfacet
facet normal 0.740533 0.672020 0.000000
outer loop
vertex 8.941555 8.400354 0.000000
vertex 8.941555 8.400354 0.050000
vertex 8.943203 8.398538 0.050000
endloop
endfacet
facet normal 0.740775 0.671753 0.000000
outer loop
vertex 8.941555 8.400354 0.000000
vertex 8.943203 8.398538 0.050000
vertex 8.943203 8.398538 0.000000
endloop
endfacet
facet normal 0.740533 0.672020 0.000000
outer loop
vertex 8.941555 8.400354 0.050000
vertex 8.941555 8.400354 0.100000
vertex 8.943203 8.398538 0.100000
endloop
endfacet
facet normal 0.740775 0.671753 0.000000
outer loop
vertex 8.941555 8.400354 0.050000
vertex 8.943203 8.398538 0.100000
vertex 8.943203 8.398538 0.050000
endloop
endfacet
facet normal 0.803299 0.595576 0.000000
outer loop
vertex 8.943203 8.398538 0.050000
vertex 8.943203 8.398538 0.100000
vertex 8.944664 8.396566 0.100000
endloop
endfacet
facet normal 0.803531 0.595262 0.000000
outer loop
vertex 8.943203 8.398538 0.050000
vertex 8.944664 8.396566 0.100000
vertex 8.944664 8.396566 0.050000
endloop
endfacet
facet normal 0.803299 0.595576 0.000000
outer loop
vertex 8.943203 8.398538 0.000000
vertex 8.943203 8.398538 0.050000
vertex 8.944664 8.396566 0.050000
endloop
endfacet
facet normal 0.803531 0.595262 0.000000
outer loop
vertex 8.943203 8.398538 0.000000
vertex 8.944664 8.396566 0.050000
vertex 8.944664 8.396566 0.000000
endloop
endfacet
facet normal 0.857261 0.514882 0.000000
outer loop
vertex 8.944664 8.396566 0.000000
vertex 8.944664 8.396566 0.050000
vertex 8.945926 8.394464 0.050000
endloop
endfacet
facet normal 0.857476 0.514524 0.000000
outer loop
vertex 8.944664 8.396566 0.000000
vertex 8.945926 8.394464 0.050000
vertex 8.945926 8.394464 0.000000
endloop
endfacet
facet normal 0.857261 0.514882 0.000000
outer loop
vertex 8.944664 8.396566 0.050000
vertex 8.944664 8.396566 0.100000
vertex 8.945926 8.394464 0.100000
endloop
endfacet
facet normal 0.857476 0.514524 0.000000
outer loop
vertex 8.944664 8.396566 0.050000
vertex 8.945926 8.394464 0.100000
vertex 8.945926 8.394464 0.050000
endloop
endfacet
facet normal 0.904078 0.427368 0.000000
outer loop
vertex 8.945926 8.394464 0.050000
vertex 8.945926 8.394464 0.100000
vertex 8.946975 8.392245 0.100000
endloop
endfacet
facet normal 0.904078 0.427368 0.000000
outer loop
vertex 8.945926 8.394464 0.050000
vertex 8.946975 8.392245 0.100000
vertex 8.946975 8.392245 0.050000
endloop
endfacet
facet normal 0.904078 0.427368 0.000000
outer loop
vertex 8.945926 8.394464 0.000000
vertex 8.945926 8.394464 0.050000
vertex 8.946975 8.392245 0.050000
endloop
endfacet
facet normal 0.904078 0.427368 0.000000
outer loop
vertex 8.945926 8.394464 0.000000
vertex 8.946975 8.392245 0.050000
vertex 8.946975 8.392245 0.000000
endloop
endfacet
facet normal 0.941544 0.336891 0.000000
outer loop
vertex 8.946975 8.392245 0.000000
vertex 8.946975 8.392245 0.050000
vertex 8.947801 8.389936 0.050000
endloop
endfacet
facet normal 0.941544 0.336891 0.000000
outer loop
vertex 8.946975 8.392245 0.000000
vertex 8.947801 8.389936 0.050000
vertex 8.947801 8.389936 0.000000
endloop
endfacet
facet normal 0.941544 0.336891 0.000000
outer loop
vertex 8.946975 8.392245 0.050000
vertex 8.946975 8.392245 0.100000
vertex 8.947801 8.389936 0.100000
endloop
endfacet
facet normal 0.941544 0.336891 0.000000
outer loop
vertex 8.946975 8.392245 0.050000
vertex 8.947801 8.389936 0.100000
vertex 8.947801 8.389936 0.050000
endloop
endfacet
facet normal 0.970028 0.242993 0.000000
outer loop
vertex 8.947801 8.389936 0.050000
vertex 8.947801 8.389936 0.100000
vertex 8.948398 8.387557 0.100000
endloop
endfacet
facet normal 0.969913 0.243450 0.000000
outer loop
vertex 8.947801 8.389936 0.050000
vertex 8.948398 8.387557 0.100000
vertex 8.948398 8.387557 0.050000
endloop
endfacet
facet normal 0.970028 0.242993 0.000000
outer loop
vertex 8.947801 8.389936 0.000000
vertex 8.947801 8.389936 0.050000
vertex 8.948398 8.387557 0.050000
endloop
endfacet
facet normal 0.969913 0.243450 0.000000
outer loop
vertex 8.947801 8.389936 0.000000
vertex 8.948398 8.387557 0.050000
vertex 8.948398 8.387557 0.000000
endloop
endfacet
facet normal 0.989115 0.147143 0.000000
outer loop
vertex 8.948398 8.387557 0.000000
vertex 8.948398 8.387557 0.050000
vertex 8.948757 8.385129 0.050000
endloop
endfacet
facet normal 0.989326 0.145718 0.000000
outer loop
vertex 8.948398 8.387557 0.000000
vertex 8.948757 8.385129 0.050000
vertex 8.948757 8.385129 0.000000
endloop
endfacet
facet normal 0.989115 0.147144 0.000000
outer loop
vertex 8.948398 8.387557 0.050000
vertex 8.948398 8.387557 0.100000
vertex 8.948757 8.385129 0.100000
endloop
endfacet
facet normal 0.989326 0.145718 0.000000
outer loop
vertex 8.948398 8.387557 0.050000
vertex 8.948757 8.385129 0.100000
vertex 8.948757 8.385129 0.050000
endloop
endfacet
facet normal 0.998794 0.049103 0.000000
outer loop
vertex 8.948757 8.385129 0.050000
vertex 8.948757 8.385129 0.100000
vertex 8.948877 8.382680 0.100000
endloop
endfacet
facet normal 0.998794 0.049103 0.000000
outer loop
vertex 8.948757 8.385129 0.050000
vertex 8.948877 8.382680 0.100000
vertex 8.948877 8.382680 0.050000
endloop
endfacet
facet normal 0.998794 0.049103 0.000000
outer loop
vertex 8.948757 8.385129 0.000000
vertex 8.948757 8.385129 0.050000
vertex 8.948877 8.382680 0.050000
endloop
endfacet
facet normal 0.998794 0.049103 0.000000
outer loop
vertex 8.948757 8.385129 0.000000
vertex 8.948877 8.382680 0.050000
vertex 8.948877 8.382680 0.000000
endloop
endfacet
facet normal 0.998795 -0.049084 0.000000
outer loop
vertex 8.948877 8.382680 0.000000
vertex 8.948877 8.382680 0.050000
vertex 8.948757 8.380230 0.050000
endloop
endfacet
facet normal 0.998795 -0.049084 0.000000
outer loop
vertex 8.948877 8.382680 0.000000
vertex 8.948757 8.380230 0.050000
vertex 8.948757 8.380230 0.000000
endloop
endfacet
facet normal 0.998795 -0.049084 0.000000
outer loop
vertex 8.948877 8.382680 0.050000
vertex 8.948877 8.382680 0.100000
vertex 8.948757 8.380230 0.100000
endloop
endfacet
facet normal 0.998795 -0.049084 0.000000
outer loop
vertex 8.948877 8.382680 0.050000
vertex 8.948757 8.380230 0.100000
vertex 8.948757 8.380230 0.050000
endloop
endfacet
facet normal 0.989310 -0.145830 0.000000
outer loop
vertex 8.948757 8.380230 0.050000
vertex 8.948757 8.380230 0.100000
vertex 8.948398 8.377804 0.100000
endloop
endfacet
facet normal 0.989098 -0.147257 0.000000
outer loop
vertex 8.948757 8.380230 0.050000
vertex 8.948398 8.377804 0.100000
vertex 8.948398 8.377804 0.050000
endloop
endfacet
facet normal 0.989310 -0.145830 0.000000
outer loop
vertex 8.948757 8.380230 0.000000
vertex 8.948757 8.380230 0.050000
vertex 8.948398 8.377804 0.050000
endloop
endfacet
facet normal 0.989098 -0.147257 0.000000
outer loop
vertex 8.948757 8.380230 0.000000
vertex 8.948398 8.377804 0.050000
vertex 8.948398 8.377804 0.000000
endloop
endfacet
facet normal 0.969936 -0.243358 0.000000
outer loop
vertex 8.948398 8.377804 0.000000
vertex 8.948398 8.377804 0.050000
vertex 8.947801 8.375423 0.050000
endloop
endfacet
facet normal 0.970051 -0.242901 0.000000
outer loop
vertex 8.948398 8.377804 0.000000
vertex 8.947801 8.375423 0.050000
vertex 8.947801 8.375423 0.000000
endloop
endfacet
facet normal 0.969936 -0.243358 0.000000
outer loop
vertex 8.948398 8.377804 0.050000
vertex 8.948398 8.377804 0.100000
vertex 8.947801 8.375423 0.100000
endloop
endfacet
facet normal 0.970051 -0.242901 0.000000
outer loop
vertex 8.948398 8.377804 0.050000
vertex 8.947801 8.375423 0.100000
vertex 8.947801 8.375423 0.050000
endloop
endfacet
facet normal 0.941588 -0.336767 0.000000
outer loop
vertex 8.947801 8.375423 0.050000
vertex 8.947801 8.375423 0.100000
vertex 8.946975 8.373114 0.100000
endloop
endfacet
facet normal 0.941588 -0.336767 0.000000
outer loop
vertex 8.947801 8.375423 0.050000
vertex 8.946975 8.373114 0.100000
vertex 8.946975 8.373114 0.050000
endloop
endfacet
facet normal 0.941588 -0.336767 0.000000
outer loop
vertex 8.947801 8.375423 0.000000
vertex 8.947801 8.375423 0.050000
vertex 8.946975 8.373114 0.050000
endloop
endfacet
facet normal 0.941588 -0.336767 0.000000
outer loop
vertex 8.947801 8.375423 0.000000
vertex 8.946975 8.373114 0.050000
vertex 8.946975 8.373114 0.000000
endloop
endfacet
facet normal 0.903936 -0.427668 0.000000
outer loop
vertex 8.946975 8.373114 0.000000
vertex 8.946975 8.373114 0.050000
vertex 8.945926 8.370896 0.050000
endloop
endfacet
facet normal 0.903936 -0.427668 0.000000
outer loop
vertex 8.946975 8.373114 0.000000
vertex 8.945926 8.370896 0.050000
vertex 8.945926 8.370896 0.000000
endloop
endfacet
facet normal 0.903936 -0.427668 0.000000
outer loop
vertex 8.946975 8.373114 0.050000
vertex 8.946975 8.373114 0.100000
vertex 8.945926 8.370896 0.100000
endloop
endfacet
facet normal 0.903936 -0.427668 0.000000
outer loop
vertex 8.946975 8.373114 0.050000
vertex 8.945926 8.370896 0.100000
vertex 8.945926 8.370896 0.050000
endloop
endfacet
facet normal 0.857784 -0.514010 0.000000
outer loop
vertex 8.945926 8.370896 0.050000
vertex 8.945926 8.370896 0.100000
vertex 8.944664 8.368792 0.100000
endloop
endfacet
facet normal 0.857570 -0.514367 0.000000
outer loop
vertex 8.945926 8.370896 0.050000
vertex 8.944664 8.368792 0.100000
vertex 8.944664 8.368792 0.050000
endloop
endfacet
facet normal 0.857784 -0.514010 0.000000
outer loop
vertex 8.945926 8.370896 0.000000
vertex 8.945926 8.370896 0.050000
vertex 8.944664 8.368792 0.050000
endloop
endfacet
facet normal 0.857570 -0.514367 0.000000
outer loop
vertex 8.945926 8.370896 0.000000
vertex 8.944664 8.368792 0.050000
vertex 8.944664 8.368792 0.000000
endloop
endfacet
facet normal 0.803256 -0.595634 0.000000
outer loop
vertex 8.944664 8.368792 0.000000
vertex 8.944664 8.368792 0.050000
vertex 8.943203 8.366822 0.050000
endloop
endfacet
facet normal 0.803023 -0.595948 0.000000
outer loop
vertex 8.944664 8.368792 0.000000
vertex 8.943203 8.366822 0.050000
vertex 8.943203 8.366822 0.000000
endloop
endfacet
facet normal 0.803256 -0.595634 0.000000
outer loop
vertex 8.944664 8.368792 0.050000
vertex 8.944664 8.368792 0.100000
vertex 8.943203 8.366822 0.100000
endloop
endfacet
facet normal 0.803023 -0.595948 0.000000
outer loop
vertex 8.944664 8.368792 0.050000
vertex 8.943203 8.366822 0.100000
vertex 8.943203 8.366822 0.050000
endloop
endfacet
facet normal 0.741126 -0.671366 0.000000
outer loop
vertex 8.943203 8.366822 0.050000
vertex 8.943203 8.366822 0.100000
vertex 8.941555 8.365004 0.100000
endloop
endfacet
facet normal 0.740884 -0.671633 0.000000
outer loop
vertex 8.943203 8.366822 0.050000
vertex 8.941555 8.365004 0.100000
vertex 8.941555 8.365004 0.050000
endloop
endfacet
facet normal 0.741126 -0.671366 0.000000
outer loop
vertex 8.943203 8.366822 0.000000
vertex 8.943203 8.366822 0.050000
vertex 8.941555 8.365004 0.050000
endloop
endfacet
facet normal 0.740884 -0.671633 0.000000
outer loop
vertex 8.943203 8.366822 0.000000
vertex 8.941555 8.365004 0.050000
vertex 8.941555 8.365004 0.000000
endloop
endfacet
facet normal 0.671404 -0.741091 0.000000
outer loop
vertex 8.941555 8.365004 0.000000
vertex 8.941555 8.365004 0.050000
vertex 8.939737 8.363357 0.050000
endloop
endfacet
facet normal 0.671646 -0.740872 0.000000
outer loop
vertex 8.941555 8.365004 0.000000
vertex 8.939737 8.363357 0.050000
vertex 8.939737 8.363357 0.000000
endloop
endfacet
facet normal 0.671404 -0.741091 0.000000
outer loop
vertex 8.941555 8.365004 0.050000
vertex 8.941555 8.365004 0.100000
vertex 8.939737 8.363357 0.100000
endloop
endfacet
facet normal 0.671646 -0.740872 0.000000
outer loop
vertex 8.941555 8.365004 0.050000
vertex 8.939737 8.363357 0.100000
vertex 8.939737 8.363357 0.050000
endloop
endfacet
facet normal 0.595590 -0.803289 0.000000
outer loop
vertex 8.939737 8.363357 0.050000
vertex 8.939737 8.363357 0.100000
vertex 8.937767 8.361896 0.100000
endloop
endfacet
facet normal 0.595590 -0.803289 0.000000
outer loop
vertex 8.939737 8.363357 0.050000
vertex 8.937767 8.361896 0.100000
vertex 8.937767 8.361896 0.050000
endloop
endfacet
facet normal 0.595590 -0.803289 0.000000
outer loop
vertex 8.939737 8.363357 0.000000
vertex 8.939737 8.363357 0.050000
vertex 8.937767 8.361896 0.050000
endloop
endfacet
facet normal 0.595590 -0.803289 0.000000
outer loop
vertex 8.939737 8.363357 0.000000
vertex 8.937767 8.361896 0.050000
vertex 8.937767 8.361896 0.000000
endloop
endfacet
facet normal 0.514281 -0.857621 0.000000
outer loop
vertex 8.937767 8.361896 0.000000
vertex 8.937767 8.361896 0.050000
vertex 8.935663 8.360634 0.050000
endloop
endfacet
facet normal 0.513995 -0.857793 0.000000
outer loop
vertex 8.937767 8.361896 0.000000
vertex 8.935663 8.360634 0.050000
vertex 8.935663 8.360635 0.000000
endloop
endfacet
facet normal 0.513995 -0.857793 0.000000
outer loop
vertex 8.937767 8.361896 0.050000
vertex 8.937767 8.361896 0.100000
vertex 8.935663 8.360635 0.100000
endloop
endfacet
facet normal 0.514281 -0.857621 0.000000
outer loop
vertex 8.937767 8.361896 0.050000
vertex 8.935663 8.360635 0.100000
vertex 8.935663 8.360634 0.050000
endloop
endfacet
facet normal 0.427986 -0.903785 0.000000
outer loop
vertex 8.935663 8.360634 0.050000
vertex 8.935663 8.360635 0.100000
vertex 8.933445 8.359585 0.100000
endloop
endfacet
facet normal 0.427481 -0.904025 0.000000
outer loop
vertex 8.935663 8.360634 0.050000
vertex 8.933445 8.359585 0.100000
vertex 8.933445 8.359585 0.050000
endloop
endfacet
facet normal 0.427668 -0.903936 0.000000
outer loop
vertex 8.935663 8.360635 0.000000
vertex 8.935663 8.360634 0.050000
vertex 8.933445 8.359585 0.050000
endloop
endfacet
facet normal 0.427798 -0.903874 0.000000
outer loop
vertex 8.935663 8.360635 0.000000
vertex 8.933445 8.359585 0.050000
vertex 8.933445 8.359585 0.000000
endloop
endfacet
facet normal 0.336928 -0.941531 0.000000
outer loop
vertex 8.933445 8.359585 0.000000
vertex 8.933445 8.359585 0.050000
vertex 8.931137 8.358759 0.050000
endloop
endfacet
facet normal 0.336928 -0.941531 0.000000
outer loop
vertex 8.933445 8.359585 0.000000
vertex 8.931137 8.358759 0.050000
vertex 8.931137 8.358759 0.000000
endloop
endfacet
facet normal 0.336928 -0.941531 0.000000
outer loop
vertex 8.933445 8.359585 0.050000
vertex 8.933445 8.359585 0.100000
vertex 8.931137 8.358759 0.100000
endloop
endfacet
facet normal 0.336928 -0.941531 0.000000
outer loop
vertex 8.933445 8.359585 0.050000
vertex 8.931137 8.358759 0.100000
vertex 8.931137 8.358759 0.050000
endloop
endfacet
facet normal 0.242878 -0.970057 0.000000
outer loop
vertex 8.931137 8.358759 0.050000
vertex 8.931137 8.358759 0.100000
vertex 8.928757 8.358163 0.100000
endloop
endfacet
facet normal 0.242878 -0.970057 0.000000
outer loop
vertex 8.931137 8.358759 0.050000
vertex 8.928757 8.358163 0.100000
vertex 8.928757 8.358163 0.050000
endloop
endfacet
facet normal 0.242878 -0.970057 0.000000
outer loop
vertex 8.931137 8.358759 0.000000
vertex 8.931137 8.358759 0.050000
vertex 8.928757 8.358163 0.050000
endloop
endfacet
facet normal 0.242878 -0.970057 0.000000
outer loop
vertex 8.931137 8.358759 0.000000
vertex 8.928757 8.358163 0.050000
vertex 8.928757 8.358163 0.000000
endloop
endfacet
facet normal 0.146605 -0.989195 0.000000
outer loop
vertex 8.928757 8.358163 0.000000
vertex 8.928757 8.358163 0.050000
vertex 8.926330 8.357803 0.050000
endloop
endfacet
facet normal 0.146464 -0.989216 0.000000
outer loop
vertex 8.928757 8.358163 0.000000
vertex 8.926330 8.357803 0.050000
vertex 8.926330 8.357803 0.000000
endloop
endfacet
facet normal 0.146605 -0.989195 0.000000
outer loop
vertex 8.928757 8.358163 0.050000
vertex 8.928757 8.358163 0.100000
vertex 8.926330 8.357803 0.100000
endloop
endfacet
facet normal 0.146464 -0.989216 0.000000
outer loop
vertex 8.928757 8.358163 0.050000
vertex 8.926330 8.357803 0.100000
vertex 8.926330 8.357803 0.050000
endloop
endfacet
facet normal 0.048968 -0.998800 0.000000
outer loop
vertex 8.926330 8.357803 0.050000
vertex 8.926330 8.357803 0.100000
vertex 8.923880 8.357683 0.100000
endloop
endfacet
facet normal 0.049016 -0.998798 0.000000
outer loop
vertex 8.926330 8.357803 0.050000
vertex 8.923880 8.357683 0.100000
vertex 8.923880 8.357683 0.050000
endloop
endfacet
facet normal 0.048968 -0.998800 0.000000
outer loop
vertex 8.926330 8.357803 0.000000
vertex 8.926330 8.357803 0.050000
vertex 8.923880 8.357683 0.050000
endloop
endfacet
facet normal 0.049016 -0.998798 0.000000
outer loop
vertex 8.926330 8.357803 0.000000
vertex 8.923880 8.357683 0.050000
vertex 8.923880 8.357683 0.000000
endloop
endfacet
facet normal -0.048992 -0.998799 0.000000
outer loop
vertex 8.923880 8.357683 0.000000
vertex 8.923880 8.357683 0.050000
vertex 8.921430 8.357803 0.050000
endloop
endfacet
facet normal -0.048968 -0.998800 0.000000
outer loop
vertex 8.923880 8.357683 0.000000
vertex 8.921430 8.357803 0.050000
vertex 8.921430 8.357803 0.000000
endloop
endfacet
facet normal -0.048992 -0.998799 0.000000
outer loop
vertex 8.923880 8.357683 0.050000
vertex 8.923880 8.357683 0.100000
vertex 8.921430 8.357803 0.100000
endloop
endfacet
facet normal -0.048968 -0.998800 0.000000
outer loop
vertex 8.923880 8.357683 0.050000
vertex 8.921430 8.357803 0.100000
vertex 8.921430 8.357803 0.050000
endloop
endfacet
facet normal -0.146605 -0.989195 0.000000
outer loop
vertex 8.921430 8.357803 0.050000
vertex 8.921430 8.357803 0.100000
vertex 8.919003 8.358163 0.100000
endloop
endfacet
facet normal -0.146605 -0.989195 0.000000
outer loop
vertex 8.921430 8.357803 0.050000
vertex 8.919003 8.358163 0.100000
vertex 8.919003 8.358163 0.050000
endloop
endfacet
facet normal -0.146605 -0.989195 0.000000
outer loop
vertex 8.921430 8.357803 0.000000
vertex 8.921430 8.357803 0.050000
vertex 8.919003 8.358163 0.050000
endloop
endfacet
facet normal -0.146605 -0.989195 0.000000
outer loop
vertex 8.921430 8.357803 0.000000
vertex 8.919003 8.358163 0.050000
vertex 8.919003 8.358163 0.000000
endloop
endfacet
facet normal -0.243108 -0.969999 0.000000
outer loop
vertex 8.919003 8.358163 0.000000
vertex 8.919003 8.358163 0.050000
vertex 8.916624 8.358759 0.050000
endloop
endfacet
facet normal -0.242878 -0.970057 0.000000
outer loop
vertex 8.919003 8.358163 0.000000
vertex 8.916624 8.358759 0.050000
vertex 8.916624 8.358759 0.000000
endloop
endfacet
facet normal -0.243108 -0.969999 0.000000
outer loop
vertex 8.919003 8.358163 0.050000
vertex 8.919003 8.358163 0.100000
vertex 8.916624 8.358759 0.100000
endloop
endfacet
facet normal -0.242878 -0.970057 0.000000
outer loop
vertex 8.919003 8.358163 0.050000
vertex 8.916624 8.358759 0.100000
vertex 8.916624 8.358759 0.050000
endloop
endfacet
facet normal -0.336810 -0.941573 0.000000
outer loop
vertex 8.916624 8.358759 0.050000
vertex 8.916624 8.358759 0.100000
vertex 8.914313 8.359586 0.100000
endloop
endfacet
facet normal -0.336964 -0.941518 0.000000
outer loop
vertex 8.916624 8.358759 0.050000
vertex 8.914313 8.359586 0.100000
vertex 8.914313 8.359586 0.050000
endloop
endfacet
facet normal -0.336810 -0.941573 0.000000
outer loop
vertex 8.916624 8.358759 0.000000
vertex 8.916624 8.358759 0.050000
vertex 8.914313 8.359586 0.050000
endloop
endfacet
facet normal -0.336964 -0.941518 0.000000
outer loop
vertex 8.916624 8.358759 0.000000
vertex 8.914313 8.359586 0.050000
vertex 8.914313 8.359586 0.000000
endloop
endfacet
facet normal -0.427163 -0.904175 0.000000
outer loop
vertex 8.914313 8.359586 0.000000
vertex 8.914313 8.359586 0.050000
vertex 8.912096 8.360634 0.050000
endloop
endfacet
facet normal -0.427856 -0.903847 -0.000030
outer loop
vertex 8.914313 8.359586 0.000000
vertex 8.912096 8.360634 0.050000
vertex 8.912096 8.360635 0.000000
endloop
endfacet
facet normal -0.427481 -0.904025 0.000000
outer loop
vertex 8.914313 8.359586 0.050000
vertex 8.914313 8.359586 0.100000
vertex 8.912096 8.360635 0.100000
endloop
endfacet
facet normal -0.427539 -0.903997 0.000030
outer loop
vertex 8.914313 8.359586 0.050000
vertex 8.912096 8.360635 0.100000
vertex 8.912096 8.360634 0.050000
endloop
endfacet
facet normal -0.513781 -0.857921 0.000000
outer loop
vertex 8.912096 8.360634 0.050000
vertex 8.912096 8.360635 0.100000
vertex 8.909991 8.361896 0.100000
endloop
endfacet
facet normal -0.514281 -0.857621 0.000000
outer loop
vertex 8.912096 8.360634 0.050000
vertex 8.909991 8.361896 0.100000
vertex 8.909991 8.361896 0.050000
endloop
endfacet
facet normal -0.514067 -0.857750 0.000000
outer loop
vertex 8.912096 8.360635 0.000000
vertex 8.912096 8.360634 0.050000
vertex 8.909991 8.361896 0.050000
endloop
endfacet
facet normal -0.513995 -0.857793 0.000000
outer loop
vertex 8.912096 8.360635 0.000000
vertex 8.909991 8.361896 0.050000
vertex 8.909991 8.361896 0.000000
endloop
endfacet
facet normal -0.595590 -0.803289 0.000000
outer loop
vertex 8.909991 8.361896 0.000000
vertex 8.909991 8.361896 0.050000
vertex 8.908022 8.363357 0.050000
endloop
endfacet
facet normal -0.596055 -0.802943 0.000000
outer loop
vertex 8.909991 8.361896 0.000000
vertex 8.908022 8.363357 0.050000
vertex 8.908022 8.363357 0.000000
endloop
endfacet
facet normal -0.595590 -0.803289 0.000000
outer loop
vertex 8.909991 8.361896 0.050000
vertex 8.909991 8.361896 0.100000
vertex 8.908022 8.363357 0.100000
endloop
endfacet
facet normal -0.596055 -0.802943 0.000000
outer loop
vertex 8.909991 8.361896 0.050000
vertex 8.908022 8.363357 0.100000
vertex 8.908022 8.363357 0.050000
endloop
endfacet
facet normal -0.671162 -0.741310 0.000000
outer loop
vertex 8.908022 8.363357 0.050000
vertex 8.908022 8.363357 0.100000
vertex 8.906203 8.365004 0.100000
endloop
endfacet
facet normal -0.671404 -0.741091 0.000000
outer loop
vertex 8.908022 8.363357 0.050000
vertex 8.906203 8.365004 0.100000
vertex 8.906203 8.365004 0.050000
endloop
endfacet
facet normal -0.671163 -0.741310 0.000000
outer loop
vertex 8.908022 8.363357 0.000000
vertex 8.908022 8.363357 0.050000
vertex 8.906203 8.365004 0.050000
endloop
endfacet
facet normal -0.671404 -0.741091 0.000000
outer loop
vertex 8.908022 8.363357 0.000000
vertex 8.906203 8.365004 0.050000
vertex 8.906203 8.365004 0.000000
endloop
endfacet
facet normal -0.741368 -0.671099 0.000000
outer loop
vertex 8.906203 8.365004 0.000000
vertex 8.906203 8.365004 0.050000
vertex 8.904556 8.366822 0.050000
endloop
endfacet
facet normal -0.741126 -0.671366 0.000000
outer loop
vertex 8.906203 8.365004 0.000000
vertex 8.904556 8.366822 0.050000
vertex 8.904556 8.366822 0.000000
endloop
endfacet
facet normal -0.741368 -0.671099 0.000000
outer loop
vertex 8.906203 8.365004 0.050000
vertex 8.906203 8.365004 0.100000
vertex 8.904556 8.366822 0.100000
endloop
endfacet
facet normal -0.741126 -0.671366 0.000000
outer loop
vertex 8.906203 8.365004 0.050000
vertex 8.904556 8.366822 0.100000
vertex 8.904556 8.366822 0.050000
endloop
endfacet
facet normal -0.803023 -0.595948 0.000000
outer loop
vertex 8.904556 8.366822 0.050000
vertex 8.904556 8.366822 0.100000
vertex 8.903095 8.368792 0.100000
endloop
endfacet
facet normal -0.803161 -0.595762 0.000000
outer loop
vertex 8.904556 8.366822 0.050000
vertex 8.903095 8.368792 0.100000
vertex 8.903095 8.368793 0.050000
endloop
endfacet
facet normal -0.803161 -0.595762 0.000000
outer loop
vertex 8.904556 8.366822 0.000000
vertex 8.904556 8.366822 0.050000
vertex 8.903095 8.368793 0.050000
endloop
endfacet
facet normal -0.803023 -0.595948 0.000000
outer loop
vertex 8.904556 8.366822 0.000000
vertex 8.903095 8.368793 0.050000
vertex 8.903095 8.368792 0.000000
endloop
endfacet
facet normal -0.857467 -0.514539 0.000000
outer loop
vertex 8.903095 8.368792 0.000000
vertex 8.903095 8.368793 0.050000
vertex 8.901834 8.370896 0.050000
endloop
endfacet
facet normal -0.858315 -0.513123 -0.000027
outer loop
vertex 8.903095 8.368792 0.000000
vertex 8.901834 8.370896 0.050000
vertex 8.901834 8.370897 0.000000
endloop
endfacet
facet normal -0.858101 -0.513481 0.000000
outer loop
vertex 8.903095 8.368793 0.050000
vertex 8.903095 8.368792 0.100000
vertex 8.901834 8.370897 0.100000
endloop
endfacet
facet normal -0.857682 -0.514181 0.000027
outer loop
vertex 8.903095 8.368793 0.050000
vertex 8.901834 8.370897 0.100000
vertex 8.901834 8.370896 0.050000
endloop
endfacet
facet normal -0.903677 -0.428216 0.000015
outer loop
vertex 8.901834 8.370896 0.050000
vertex 8.901834 8.370897 0.100000
vertex 8.900784 8.373114 0.100000
endloop
endfacet
facet normal -0.903936 -0.427668 0.000000
outer loop
vertex 8.901834 8.370896 0.050000
vertex 8.900784 8.373114 0.100000
vertex 8.900784 8.373114 0.050000
endloop
endfacet
facet normal -0.903936 -0.427669 -0.000015
outer loop
vertex 8.901834 8.370897 0.000000
vertex 8.901834 8.370896 0.050000
vertex 8.900784 8.373114 0.050000
endloop
endfacet
facet normal -0.903677 -0.428216 0.000000
outer loop
vertex 8.901834 8.370897 0.000000
vertex 8.900784 8.373114 0.050000
vertex 8.900784 8.373114 0.000000
endloop
endfacet
facet normal -0.941588 -0.336767 0.000000
outer loop
vertex 8.900784 8.373114 0.000000
vertex 8.900784 8.373114 0.050000
vertex 8.899959 8.375423 0.050000
endloop
endfacet
facet normal -0.941588 -0.336767 0.000000
outer loop
vertex 8.900784 8.373114 0.000000
vertex 8.899959 8.375423 0.050000
vertex 8.899959 8.375423 0.000000
endloop
endfacet
facet normal -0.941588 -0.336767 0.000000
outer loop
vertex 8.900784 8.373114 0.050000
vertex 8.900784 8.373114 0.100000
vertex 8.899959 8.375423 0.100000
endloop
endfacet
facet normal -0.941588 -0.336767 0.000000
outer loop
vertex 8.900784 8.373114 0.050000
vertex 8.899959 8.375423 0.100000
vertex 8.899959 8.375423 0.050000
endloop
endfacet
facet normal -0.969936 -0.243358 0.000000
outer loop
vertex 8.899959 8.375423 0.050000
vertex 8.899959 8.375423 0.100000
vertex 8.899363 8.377804 0.100000
endloop
endfacet
facet normal -0.970142 -0.242536 0.000000
outer loop
vertex 8.899959 8.375423 0.050000
vertex 8.899363 8.377804 0.100000
vertex 8.899363 8.377803 0.050000
endloop
endfacet
facet normal -0.969913 -0.243450 0.000000
outer loop
vertex 8.899959 8.375423 0.000000
vertex 8.899959 8.375423 0.050000
vertex 8.899363 8.377803 0.050000
endloop
endfacet
facet normal -0.970165 -0.242444 0.000000
outer loop
vertex 8.899959 8.375423 0.000000
vertex 8.899363 8.377803 0.050000
vertex 8.899363 8.377804 0.000000
endloop
endfacet
facet normal -0.989248 -0.146249 0.000000
outer loop
vertex 8.899363 8.377804 0.000000
vertex 8.899363 8.377803 0.050000
vertex 8.899003 8.380230 0.050000
endloop
endfacet
facet normal -0.989169 -0.146781 0.000000
outer loop
vertex 8.899363 8.377804 0.000000
vertex 8.899003 8.380230 0.050000
vertex 8.899003 8.380230 0.000000
endloop
endfacet
facet normal -0.989239 -0.146306 0.000000
outer loop
vertex 8.899363 8.377803 0.050000
vertex 8.899363 8.377804 0.100000
vertex 8.899003 8.380230 0.100000
endloop
endfacet
facet normal -0.989177 -0.146725 0.000000
outer loop
vertex 8.899363 8.377803 0.050000
vertex 8.899003 8.380230 0.100000
vertex 8.899003 8.380230 0.050000
endloop
endfacet
facet normal -0.998795 -0.049084 0.000000
outer loop
vertex 8.899003 8.380230 0.050000
vertex 8.899003 8.380230 0.100000
vertex 8.898883 8.382680 0.100000
endloop
endfacet
facet normal -0.998795 -0.049084 0.000000
outer loop
vertex 8.899003 8.380230 0.050000
vertex 8.898883 8.382680 0.100000
vertex 8.898883 8.382680 0.050000
endloop
endfacet
facet normal -0.998795 -0.049084 0.000000
outer loop
vertex 8.899003 8.380230 0.000000
vertex 8.899003 8.380230 0.050000
vertex 8.898883 8.382680 0.050000
endloop
endfacet
facet normal -0.998795 -0.049084 0.000000
outer loop
vertex 8.899003 8.380230 0.000000
vertex 8.898883 8.382680 0.050000
vertex 8.898883 8.382680 0.000000
endloop
endfacet
facet normal -0.998794 0.049103 0.000000
outer loop
vertex 8.898883 8.382680 0.000000
vertex 8.898883 8.382680 0.050000
vertex 8.899003 8.385129 0.050000
endloop
endfacet
facet normal -0.998794 0.049103 0.000000
outer loop
vertex 8.898883 8.382680 0.000000
vertex 8.899003 8.385129 0.050000
vertex 8.899003 8.385129 0.000000
endloop
endfacet
facet normal -0.998794 0.049103 0.000000
outer loop
vertex 8.898883 8.382680 0.050000
vertex 8.898883 8.382680 0.100000
vertex 8.899003 8.385129 0.100000
endloop
endfacet
facet normal -0.998794 0.049103 0.000000
outer loop
vertex 8.898883 8.382680 0.050000
vertex 8.899003 8.385129 0.100000
vertex 8.899003 8.385129 0.050000
endloop
endfacet
facet normal -0.989186 0.146668 0.000000
outer loop
vertex 8.899003 8.385129 0.050000
vertex 8.899003 8.385129 0.100000
vertex 8.899363 8.387557 0.100000
endloop
endfacet
facet normal -0.989256 0.146193 0.000000
outer loop
vertex 8.899003 8.385129 0.050000
vertex 8.899363 8.387557 0.100000
vertex 8.899363 8.387557 0.050000
endloop
endfacet
facet normal -0.989186 0.146668 0.000000
outer loop
vertex 8.899003 8.385129 0.000000
vertex 8.899003 8.385129 0.050000
vertex 8.899363 8.387557 0.050000
endloop
endfacet
facet normal -0.989256 0.146193 0.000000
outer loop
vertex 8.899003 8.385129 0.000000
vertex 8.899363 8.387557 0.050000
vertex 8.899363 8.387557 0.000000
endloop
endfacet
facet normal -0.970142 0.242536 0.000000
outer loop
vertex 8.899363 8.387557 0.000000
vertex 8.899363 8.387557 0.050000
vertex 8.899959 8.389936 0.050000
endloop
endfacet
facet normal -0.969913 0.243450 0.000000
outer loop
vertex 8.899363 8.387557 0.000000
vertex 8.899959 8.389936 0.050000
vertex 8.899959 8.389936 0.000000
endloop
endfacet
facet normal -0.970142 0.242536 0.000000
outer loop
vertex 8.899363 8.387557 0.050000
vertex 8.899363 8.387557 0.100000
vertex 8.899959 8.389936 0.100000
endloop
endfacet
facet normal -0.969913 0.243450 0.000000
outer loop
vertex 8.899363 8.387557 0.050000
vertex 8.899959 8.389936 0.100000
vertex 8.899959 8.389936 0.050000
endloop
endfacet
facet normal -0.941544 0.336891 0.000000
outer loop
vertex 8.899959 8.389936 0.050000
vertex 8.899959 8.389936 0.100000
vertex 8.900785 8.392245 0.100000
endloop
endfacet
facet normal -0.941390 0.337321 0.000000
outer loop
vertex 8.899959 8.389936 0.050000
vertex 8.900785 8.392245 0.100000
vertex 8.900785 8.392245 0.050000
endloop
endfacet
facet normal -0.941544 0.336891 0.000000
outer loop
vertex 8.899959 8.389936 0.000000
vertex 8.899959 8.389936 0.050000
vertex 8.900785 8.392245 0.050000
endloop
endfacet
facet normal -0.941390 0.337322 0.000000
outer loop
vertex 8.899959 8.389936 0.000000
vertex 8.900785 8.392245 0.050000
vertex 8.900785 8.392245 0.000000
endloop
endfacet
facet normal -0.904078 0.427368 0.000000
outer loop
vertex 8.900785 8.392245 0.000000
vertex 8.900785 8.392245 0.050000
vertex 8.901834 8.394464 0.050000
endloop
endfacet
facet normal -0.904078 0.427368 -0.000029
outer loop
vertex 8.900785 8.392245 0.000000
vertex 8.901834 8.394464 0.050000
vertex 8.901834 8.394464 0.000000
endloop
endfacet
facet normal -0.904078 0.427368 0.000000
outer loop
vertex 8.900785 8.392245 0.050000
vertex 8.900785 8.392245 0.100000
vertex 8.901834 8.394464 0.100000
endloop
endfacet
facet normal -0.904078 0.427368 0.000029
outer loop
vertex 8.900785 8.392245 0.050000
vertex 8.901834 8.394464 0.100000
vertex 8.901834 8.394464 0.050000
endloop
endfacet
facet normal -0.857905 0.513809 0.000015
outer loop
vertex 8.901834 8.394464 0.050000
vertex 8.901834 8.394464 0.100000
vertex 8.903095 8.396566 0.100000
endloop
endfacet
facet normal -0.857261 0.514882 0.000000
outer loop
vertex 8.901834 8.394464 0.050000
vertex 8.903095 8.396566 0.100000
vertex 8.903095 8.396566 0.050000
endloop
endfacet
facet normal -0.857476 0.514524 -0.000015
outer loop
vertex 8.901834 8.394464 0.000000
vertex 8.901834 8.394464 0.050000
vertex 8.903095 8.396566 0.050000
endloop
endfacet
facet normal -0.857690 0.514167 0.000000
outer loop
vertex 8.901834 8.394464 0.000000
vertex 8.903095 8.396566 0.050000
vertex 8.903095 8.396566 0.000000
endloop
endfacet
facet normal -0.803299 0.595576 0.000000
outer loop
vertex 8.903095 8.396566 0.000000
vertex 8.903095 8.396566 0.050000
vertex 8.904556 8.398538 0.050000
endloop
endfacet
facet normal -0.803299 0.595576 0.000000
outer loop
vertex 8.903095 8.396566 0.000000
vertex 8.904556 8.398538 0.050000
vertex 8.904556 8.398538 0.000000
endloop
endfacet
facet normal -0.803299 0.595576 0.000000
outer loop
vertex 8.903095 8.396566 0.050000
vertex 8.903095 8.396566 0.100000
vertex 8.904556 8.398538 0.100000
endloop
endfacet
facet normal -0.803299 0.595576 0.000000
outer loop
vertex 8.903095 8.396566 0.050000
vertex 8.904556 8.398538 0.100000
vertex 8.904556 8.398538 0.050000
endloop
endfacet
facet normal -0.740775 0.671753 0.000000
outer loop
vertex 8.904556 8.398538 0.050000
vertex 8.904556 8.398538 0.100000
vertex 8.906203 8.400354 0.100000
endloop
endfacet
facet normal -0.741017 0.671486 0.000000
outer loop
vertex 8.904556 8.398538 0.050000
vertex 8.906203 8.400354 0.100000
vertex 8.906203 8.400354 0.050000
endloop
endfacet
facet normal -0.740775 0.671753 0.000000
outer loop
vertex 8.904556 8.398538 0.000000
vertex 8.904556 8.398538 0.050000
vertex 8.906203 8.400354 0.050000
endloop
endfacet
facet normal -0.741017 0.671486 0.000000
outer loop
vertex 8.904556 8.398538 0.000000
vertex 8.906203 8.400354 0.050000
vertex 8.906203 8.400354 0.000000
endloop
endfacet
facet normal -0.671618 0.740898 0.000000
outer loop
vertex 8.906203 8.400354 0.000000
vertex 8.906203 8.400354 0.050000
vertex 8.908022 8.402002 0.050000
endloop
endfacet
facet normal -0.671589 0.740924 0.000000
outer loop
vertex 8.906203 8.400354 0.000000
vertex 8.908022 8.402002 0.050000
vertex 8.908022 8.402003 0.000000
endloop
endfacet
facet normal -0.671831 0.740704 0.000000
outer loop
vertex 8.906203 8.400354 0.050000
vertex 8.906203 8.400354 0.100000
vertex 8.908022 8.402003 0.100000
endloop
endfacet
facet normal -0.671376 0.741117 0.000000
outer loop
vertex 8.906203 8.400354 0.050000
vertex 8.908022 8.402003 0.100000
vertex 8.908022 8.402002 0.050000
endloop
endfacet
facet normal -0.595804 0.803130 0.000000
outer loop
vertex 8.908022 8.402002 0.050000
vertex 8.908022 8.402003 0.100000
vertex 8.909991 8.403463 0.100000
endloop
endfacet
facet normal -0.595125 0.803633 0.000013
outer loop
vertex 8.908022 8.402002 0.050000
vertex 8.909991 8.403463 0.100000
vertex 8.909992 8.403463 0.050000
endloop
endfacet
facet normal -0.595590 0.803289 0.000000
outer loop
vertex 8.908022 8.402003 0.000000
vertex 8.908022 8.402002 0.050000
vertex 8.909992 8.403463 0.050000
endloop
endfacet
facet normal -0.595339 0.803475 -0.000013
outer loop
vertex 8.908022 8.402003 0.000000
vertex 8.909992 8.403463 0.050000
vertex 8.909991 8.403463 0.000000
endloop
endfacet
facet normal -0.514996 0.857192 0.000000
outer loop
vertex 8.909991 8.403463 0.000000
vertex 8.909992 8.403463 0.050000
vertex 8.912096 8.404726 0.050000
endloop
endfacet
facet normal -0.514353 0.857579 -0.000037
outer loop
vertex 8.909991 8.403463 0.000000
vertex 8.912096 8.404726 0.050000
vertex 8.912097 8.404726 0.000000
endloop
endfacet
facet normal -0.514353 0.857579 0.000030
outer loop
vertex 8.909992 8.403463 0.050000
vertex 8.909991 8.403463 0.100000
vertex 8.912097 8.404726 0.100000
endloop
endfacet
facet normal -0.514996 0.857192 0.000007
outer loop
vertex 8.909992 8.403463 0.050000
vertex 8.912097 8.404726 0.100000
vertex 8.912096 8.404726 0.050000
endloop
endfacet
facet normal -0.427539 0.903997 0.000000
outer loop
vertex 8.912096 8.404726 0.050000
vertex 8.912097 8.404726 0.100000
vertex 8.914313 8.405774 0.100000
endloop
endfacet
facet normal -0.427163 0.904175 0.000000
outer loop
vertex 8.912096 8.404726 0.050000
vertex 8.914313 8.405774 0.100000
vertex 8.914313 8.405774 0.050000
endloop
endfacet
facet normal -0.427163 0.904175 0.000000
outer loop
vertex 8.912097 8.404726 0.000000
vertex 8.912096 8.404726 0.050000
vertex 8.914313 8.405774 0.050000
endloop
endfacet
facet normal -0.427539 0.903997 0.000000
outer loop
vertex 8.912097 8.404726 0.000000
vertex 8.914313 8.405774 0.050000
vertex 8.914313 8.405774 0.000000
endloop
endfacet
facet normal 0.000008 0.000000 1.000000
outer loop
vertex 8.928758 8.407200 0.100000
vertex 8.926330 8.407557 0.100000
vertex 8.923881 8.382681 0.100000
endloop
endfacet
facet normal 0.000000 0.000000 1.000000
outer loop
vertex 8.928758 8.407200 0.100000
vertex 8.923881 8.382681 0.100000
vertex 8.931137 8.406600 0.100000
endloop
endfacet
facet normal 0.000000 0.000000 1.000000
outer loop
vertex 8.923880 8.407681 0.100000
vertex 8.921430 8.407557 0.100000
vertex 8.923881 8.382681 0.100000
endloop
endfacet
facet normal 0.000000 0.000000 1.000000
outer loop
vertex 8.923880 8.407681 0.100000
vertex 8.923881 8.382681 0.100000
vertex 8.926330 8.407557 0.100000
endloop
endfacet
facet normal 0.000000 0.000000 1.000000
outer loop
vertex 8.919003 8.407200 0.100000
vertex 8.916624 8.406600 0.100000
vertex 8.923881 8.382681 0.100000
endloop
endfacet
facet normal -0.000008 0.000000 1.000000
outer loop
vertex 8.919003 8.407200 0.100000
vertex 8.923881 8.382681 0.100000
vertex 8.921430 8.407557 0.100000
endloop
endfacet
facet normal 0.000008 0.000000 1.000000
outer loop
vertex 8.914312 8.405776 0.100000
vertex 8.912096 8.404726 0.100000
vertex 8.923881 8.382681 0.100000
endloop
endfacet
facet normal -0.000008 0.000000 1.000000
outer loop
vertex 8.914312 8.405776 0.100000
vertex 8.923881 8.382681 0.100000
vertex 8.916624 8.406600 0.100000
endloop
endfacet
facet normal 0.000000 0.000000 1.000000
outer loop
vertex 8.909990 8.403466 0.100000
vertex 8.908022 8.402003 0.100000
vertex 8.923881 8.382681 0.100000
endloop
endfacet
facet normal 0.000000 0.000000 1.000000
outer loop
vertex 8.909990 8.403466 0.100000
vertex 8.923881 8.382681 0.100000
vertex 8.912096 8.404726 0.100000
endloop
endfacet
facet normal 0.000004 0.000000 1.000000
outer loop
vertex 8.906202 8.400357 0.100000
vertex 8.904556 8.398538 0.100000
vertex 8.923881 8.382681 0.100000
endloop
endfacet
facet normal 0.000000 0.000000 1.000000
outer loop
vertex 8.906202 8.400357 0.100000
vertex 8.923881 8.382681 0.100000
vertex 8.908022 8.402003 0.100000
endloop
endfacet
facet normal -0.000004 0.000000 1.000000
outer loop
vertex 8.903092 8.396568 0.100000
vertex 8.901834 8.394464 0.100000
vertex 8.923881 8.382681 0.100000
endloop
endfacet
facet normal 0.000000 0.000000 1.000000
outer loop
vertex 8.903092 8.396568 0.100000
vertex 8.923881 8.382681 0.100000
vertex 8.904556 8.398538 0.100000
endloop
endfacet
facet normal 0.000000 0.000000 1.000000
outer loop
vertex 8.900783 8.392246 0.100000
vertex 8.899959 8.389936 0.100000
vertex 8.923881 8.382681 0.100000
endloop
endfacet
facet normal 0.000000 0.000000 1.000000
outer loop
vertex 8.900783 8.392246 0.100000
vertex 8.923881 8.382681 0.100000
vertex 8.901834 8.394464 0.100000
endloop
endfacet
facet normal 0.000000 0.000000 1.000000
outer loop
vertex 8.899361 8.387557 0.100000
vertex 8.899003 8.385129 0.100000
vertex 8.923881 8.382681 0.100000
endloop
endfacet
facet normal 0.000002 0.000000 1.000000
outer loop
vertex 8.899361 8.387557 0.100000
vertex 8.923881 8.382681 0.100000
vertex 8.899959 8.389936 0.100000
endloop
endfacet
facet normal 0.000000 0.000000 1.000000
outer loop
vertex 8.898880 8.382680 0.100000
vertex 8.899003 8.380230 0.100000
vertex 8.923881 8.382681 0.100000
endloop
endfacet
facet normal 0.000000 0.000000 1.000000
outer loop
vertex 8.898880 8.382680 0.100000
vertex 8.923881 8.382681 0.100000
vertex 8.899003 8.385129 0.100000
endloop
endfacet
facet normal 0.000000 0.000000 1.000000
outer loop
vertex 8.899361 8.377803 0.100000
vertex 8.899959 8.375423 0.100000
vertex 8.923881 8.382681 0.100000
endloop
endfacet
facet normal 0.000000 0.000000 1.000000
outer loop
vertex 8.899361 8.377803 0.100000
vertex 8.923881 8.382681 0.100000
vertex 8.899003 8.380230 0.100000
endloop
endfacet
facet normal -0.000004 0.000000 1.000000
outer loop
vertex 8.900783 8.373113 0.100000
vertex 8.901834 8.370896 0.100000
vertex 8.923881 8.382681 0.100000
endloop
endfacet
facet normal 0.000000 0.000000 1.000000
outer loop
vertex 8.900783 8.373113 0.100000
vertex 8.923881 8.382681 0.100000
vertex 8.899959 8.375423 0.100000
endloop
endfacet
facet normal 0.000000 0.000000 1.000000
outer loop
vertex 8.903092 8.368791 0.100000
vertex 8.904556 8.366822 0.100000
vertex 8.923881 8.382681 0.100000
endloop
endfacet
facet normal 0.000004 0.000000 1.000000
outer loop
vertex 8.903092 8.368791 0.100000
vertex 8.923881 8.382681 0.100000
vertex 8.901834 8.370896 0.100000
endloop
endfacet
facet normal 0.000000 0.000000 1.000000
outer loop
vertex 8.906202 8.365003 0.100000
vertex 8.908022 8.363357 0.100000
vertex 8.923881 8.382681 0.100000
endloop
endfacet
facet normal 0.000000 0.000000 1.000000
outer loop
vertex 8.906202 8.365003 0.100000
vertex 8.923881 8.382681 0.100000
vertex 8.904556 8.366822 0.100000
endloop
endfacet
facet normal 0.000000 0.000000 1.000000
outer loop
vertex 8.909990 8.361893 0.100000
vertex 8.912097 8.360635 0.100000
vertex 8.923881 8.382681 0.100000
endloop
endfacet
facet normal 0.000000 0.000000 1.000000
outer loop
vertex 8.909990 8.361893 0.100000
vertex 8.923881 8.382681 0.100000
vertex 8.908022 8.363357 0.100000
endloop
endfacet
facet normal -0.000008 0.000000 1.000000
outer loop
vertex 8.914312 8.359583 0.100000
vertex 8.916624 8.358759 0.100000
vertex 8.923881 8.382681 0.100000
endloop
endfacet
facet normal 0.000000 0.000000 1.000000
outer loop
vertex 8.914312 8.359583 0.100000
vertex 8.923881 8.382681 0.100000
vertex 8.912097 8.360635 0.100000
endloop
endfacet
facet normal 0.000000 0.000000 1.000000
outer loop
vertex 8.919003 8.358162 0.100000
vertex 8.921430 8.357803 0.100000
vertex 8.923881 8.382681 0.100000
endloop
endfacet
facet normal 0.000008 0.000000 1.000000
outer loop
vertex 8.919003 8.358162 0.100000
vertex 8.923881 8.382681 0.100000
vertex 8.916624 8.358759 0.100000
endloop
endfacet
facet normal 0.000000 0.000000 1.000000
outer loop
vertex 8.923880 8.357680 0.100000
vertex 8.926330 8.357803 0.100000
vertex 8.923881 8.382681 0.100000
endloop
endfacet
facet normal 0.000000 0.000000 1.000000
outer loop
vertex 8.923880 8.357680 0.100000
vertex 8.923881 8.382681 0.100000
vertex 8.921430 8.357803 0.100000
endloop
endfacet
facet normal -0.000008 0.000000 1.000000
outer loop
vertex 8.928758 8.358162 0.100000
vertex 8.931137 8.358759 0.100000
vertex 8.923881 8.382681 0.100000
endloop
endfacet
facet normal 0.000000 0.000000 1.000000
outer loop
vertex 8.928758 8.358162 0.100000
vertex 8.923881 8.382681 0.100000
vertex 8.926330 8.357803 0.100000
endloop
endfacet
facet normal 0.000000 0.000000 1.000000
outer loop
vertex 8.933447 8.359583 0.100000
vertex 8.935663 8.360634 0.100000
vertex 8.923881 8.382681 0.100000
endloop
endfacet
facet normal 0.000008 0.000000 1.000000
outer loop
vertex 8.933447 8.359583 0.100000
vertex 8.923881 8.382681 0.100000
vertex 8.931137 8.358759 0.100000
endloop
endfacet
facet normal 0.000000 0.000000 1.000000
outer loop
vertex 8.937769 8.361893 0.100000
vertex 8.939737 8.363357 0.100000
vertex 8.923881 8.382681 0.100000
endloop
endfacet
facet normal 0.000000 0.000000 1.000000
outer loop
vertex 8.937769 8.361893 0.100000
vertex 8.923881 8.382681 0.100000
vertex 8.935663 8.360634 0.100000
endloop
endfacet
facet normal 0.000000 0.000000 1.000000
outer loop
vertex 8.941557 8.365003 0.100000
vertex 8.943203 8.366822 0.100000
vertex 8.923881 8.382681 0.100000
endloop
endfacet
facet normal 0.000000 0.000000 1.000000
outer loop
vertex 8.941557 8.365003 0.100000
vertex 8.923881 8.382681 0.100000
vertex 8.939737 8.363357 0.100000
endloop
endfacet
facet normal 0.000000 0.000000 1.000000
outer loop
vertex 8.944666 8.368791 0.100000
vertex 8.945926 8.370897 0.100000
vertex 8.923881 8.382681 0.100000
endloop
endfacet
facet normal 0.000000 0.000000 1.000000
outer loop
vertex 8.944666 8.368791 0.100000
vertex 8.923881 8.382681 0.100000
vertex 8.943203 8.366822 0.100000
endloop
endfacet
facet normal 0.000000 0.000000 1.000000
outer loop
vertex 8.946977 8.373113 0.100000
vertex 8.947801 8.375423 0.100000
vertex 8.923881 8.382681 0.100000
endloop
endfacet
facet normal 0.000000 0.000000 1.000000
outer loop
vertex 8.946977 8.373113 0.100000
vertex 8.923881 8.382681 0.100000
vertex 8.945926 8.370897 0.100000
endloop
endfacet
facet normal 0.000000 0.000000 1.000000
outer loop
vertex 8.948400 8.377803 0.100000
vertex 8.948757 8.380230 0.100000
vertex 8.923881 8.382681 0.100000
endloop
endfacet
facet normal 0.000000 0.000000 1.000000
outer loop
vertex 8.948400 8.377803 0.100000
vertex 8.923881 8.382681 0.100000
vertex 8.947801 8.375423 0.100000
endloop
endfacet
facet normal 0.000000 0.000000 1.000000
outer loop
vertex 8.948879 8.382680 0.100000
vertex 8.948757 8.385129 0.100000
vertex 8.923881 8.382681 0.100000
endloop
endfacet
facet normal 0.000000 0.000000 1.000000
outer loop
vertex 8.948879 8.382680 0.100000
vertex 8.923881 8.382681 0.100000
vertex 8.948757 8.380230 0.100000
endloop
endfacet
facet normal -0.000002 0.000000 1.000000
outer loop
vertex 8.948400 8.387557 0.100000
vertex 8.947801 8.389936 0.100000
vertex 8.923881 8.382681 0.100000
endloop
endfacet
facet normal 0.000000 0.000000 1.000000
outer loop
vertex 8.948400 8.387557 0.100000
vertex 8.923881 8.382681 0.100000
vertex 8.948757 8.385129 0.100000
endloop
endfacet
facet normal 0.000000 0.000000 1.000000
outer loop
vertex 8.946977 8.392246 0.100000
vertex 8.945926 8.394464 0.100000
vertex 8.923881 8.382681 0.100000
endloop
endfacet
facet normal 0.000000 0.000000 1.000000
outer loop
vertex 8.946977 8.392246 0.100000
vertex 8.923881 8.382681 0.100000
vertex 8.947801 8.389936 0.100000
endloop
endfacet
facet normal 0.000000 0.000000 1.000000
outer loop
vertex 8.944666 8.396568 0.100000
vertex 8.943203 8.398538 0.100000
vertex 8.923881 8.382681 0.100000
endloop
endfacet
facet normal 0.000004 0.000000 1.000000
outer loop
vertex 8.944666 8.396568 0.100000
vertex 8.923881 8.382681 0.100000
vertex 8.945926 8.394464 0.100000
endloop
endfacet
facet normal 0.000000 0.000000 1.000000
outer loop
vertex 8.941557 8.400357 0.100000
vertex 8.939737 8.402003 0.100000
vertex 8.923881 8.382681 0.100000
endloop
endfacet
facet normal -0.000004 0.000000 1.000000
outer loop
vertex 8.941557 8.400357 0.100000
vertex 8.923881 8.382681 0.100000
vertex 8.943203 8.398538 0.100000
endloop
endfacet
facet normal 0.000000 0.000000 1.000000
outer loop
vertex 8.937769 8.403466 0.100000
vertex 8.935663 8.404726 0.100000
vertex 8.923881 8.382681 0.100000
endloop
endfacet
facet normal 0.000000 0.000000 1.000000
outer loop
vertex 8.937769 8.403466 0.100000
vertex 8.923881 8.382681 0.100000
vertex 8.939737 8.402003 0.100000
endloop
endfacet
facet normal 0.000008 0.000000 1.000000
outer loop
vertex 8.933447 8.405776 0.100000
vertex 8.931137 8.406600 0.100000
vertex 8.923881 8.382681 0.100000
endloop
endfacet
facet normal -0.000008 0.000000 1.000000
outer loop
vertex 8.933447 8.405776 0.100000
vertex 8.923881 8.382681 0.100000
vertex 8.935663 8.404726 0.100000
endloop
endfacet
facet normal -0.336620 0.941641 0.000000
outer loop
vertex 8.914313 8.405774 0.000000
vertex 8.914313 8.405774 0.050000
vertex 8.916624 8.406600 0.050000
endloop
endfacet
facet normal -0.336466 0.941696 0.000000
outer loop
vertex 8.914313 8.405774 0.000000
vertex 8.916624 8.406600 0.050000
vertex 8.916624 8.406600 0.000000
endloop
endfacet
facet normal -0.336619 0.941641 0.000000
outer loop
vertex 8.914313 8.405774 0.050000
vertex 8.914313 8.405774 0.100000
vertex 8.916624 8.406600 0.100000
endloop
endfacet
facet normal -0.336466 0.941696 0.000000
outer loop
vertex 8.914313 8.405774 0.050000
vertex 8.916624 8.406600 0.100000
vertex 8.916624 8.406600 0.050000
endloop
endfacet
facet normal -0.243244 0.969965 0.000000
outer loop
vertex 8.916624 8.406600 0.050000
vertex 8.916624 8.406600 0.100000
vertex 8.919003 8.407197 0.100000
endloop
endfacet
facet normal -0.243703 0.969850 0.000015
outer loop
vertex 8.916624 8.406600 0.050000
vertex 8.919003 8.407197 0.100000
vertex 8.919003 8.407197 0.050000
endloop
endfacet
facet normal -0.243474 0.969908 0.000000
outer loop
vertex 8.916624 8.406600 0.000000
vertex 8.916624 8.406600 0.050000
vertex 8.919003 8.407197 0.050000
endloop
endfacet
facet normal -0.243474 0.969908 -0.000015
outer loop
vertex 8.916624 8.406600 0.000000
vertex 8.919003 8.407197 0.050000
vertex 8.919003 8.407197 0.000000
endloop
endfacet
facet normal -0.146464 0.989216 -0.000030
outer loop
vertex 8.919003 8.407197 0.000000
vertex 8.919003 8.407197 0.050000
vertex 8.921430 8.407557 0.050000
endloop
endfacet
facet normal -0.146605 0.989195 0.000000
outer loop
vertex 8.919003 8.407197 0.000000
vertex 8.921430 8.407557 0.050000
vertex 8.921430 8.407557 0.000000
endloop
endfacet
facet normal -0.146535 0.989206 0.000030
outer loop
vertex 8.919003 8.407197 0.050000
vertex 8.919003 8.407197 0.100000
vertex 8.921430 8.407557 0.100000
endloop
endfacet
facet normal -0.146535 0.989206 0.000000
outer loop
vertex 8.919003 8.407197 0.050000
vertex 8.921430 8.407557 0.100000
vertex 8.921430 8.407557 0.050000
endloop
endfacet
facet normal -0.049356 0.998781 0.000000
outer loop
vertex 8.921430 8.407557 0.050000
vertex 8.921430 8.407557 0.100000
vertex 8.923880 8.407678 0.100000
endloop
endfacet
facet normal -0.049380 0.998780 0.000000
outer loop
vertex 8.921430 8.407557 0.050000
vertex 8.923880 8.407678 0.100000
vertex 8.923880 8.407678 0.050000
endloop
endfacet
facet normal -0.049356 0.998781 0.000000
outer loop
vertex 8.921430 8.407557 0.000000
vertex 8.921430 8.407557 0.050000
vertex 8.923880 8.407678 0.050000
endloop
endfacet
facet normal -0.049380 0.998780 0.000000
outer loop
vertex 8.921430 8.407557 0.000000
vertex 8.923880 8.407678 0.050000
vertex 8.923880 8.407678 0.000000
endloop
endfacet
facet normal 0.000000 0.000000 -1.000000
outer loop
vertex 8.923880 8.407681 0.000000
vertex 8.926330 8.407557 0.000000
vertex 8.923881 8.382681 0.000000
endloop
endfacet
facet normal 0.000000 0.000000 -1.000000
outer loop
vertex 8.923880 8.407681 0.000000
vertex 8.923881 8.382681 0.000000
vertex 8.921430 8.407557 0.000000
endloop
endfacet
facet normal 0.000000 0.000000 -1.000000
outer loop
vertex 8.928758 8.407200 0.000000
vertex 8.931137 8.406600 0.000000
vertex 8.923881 8.382681 0.000000
endloop
endfacet
facet normal 0.000000 0.000000 -1.000000
outer loop
vertex 8.928758 8.407200 0.000000
vertex 8.923881 8.382681 0.000000
vertex 8.926330 8.407557 0.000000
endloop
endfacet
facet normal 0.000000 0.000000 -1.000000
outer loop
vertex 8.933447 8.405776 0.000000
vertex 8.935663 8.404726 0.000000
vertex 8.923881 8.382681 0.000000
endloop
endfacet
facet normal 0.000000 0.000000 -1.000000
outer loop
vertex 8.933447 8.405776 0.000000
vertex 8.923881 8.382681 0.000000
vertex 8.931137 8.406600 0.000000
endloop
endfacet
facet normal 0.000000 0.000000 -1.000000
outer loop
vertex 8.937769 8.403466 0.000000
vertex 8.939737 8.402003 0.000000
vertex 8.923881 8.382681 0.000000
endloop
endfacet
facet normal 0.000000 0.000000 -1.000000
outer loop
vertex 8.937769 8.403466 0.000000
vertex 8.923881 8.382681 0.000000
vertex 8.935663 8.404726 0.000000
endloop
endfacet
facet normal 0.000000 0.000000 -1.000000
outer loop
vertex 8.941557 8.400357 0.000000
vertex 8.943203 8.398538 0.000000
vertex 8.923881 8.382681 0.000000
endloop
endfacet
facet normal 0.000000 0.000000 -1.000000
outer loop
vertex 8.941557 8.400357 0.000000
vertex 8.923881 8.382681 0.000000
vertex 8.939737 8.402003 0.000000
endloop
endfacet
facet normal 0.000000 0.000000 -1.000000
outer loop
vertex 8.944666 8.396568 0.000000
vertex 8.945926 8.394464 0.000000
vertex 8.923881 8.382681 0.000000
endloop
endfacet
facet normal 0.000000 0.000000 -1.000000
outer loop
vertex 8.944666 8.396568 0.000000
vertex 8.923881 8.382681 0.000000
vertex 8.943203 8.398538 0.000000
endloop
endfacet
facet normal 0.000000 0.000000 -1.000000
outer loop
vertex 8.946977 8.392246 0.000000
vertex 8.947801 8.389936 0.000000
vertex 8.923881 8.382681 0.000000
endloop
endfacet
facet normal 0.000000 0.000000 -1.000000
outer loop
vertex 8.946977 8.392246 0.000000
vertex 8.923881 8.382681 0.000000
vertex 8.945926 8.394464 0.000000
endloop
endfacet
facet normal 0.000000 0.000000 -1.000000
outer loop
vertex 8.948400 8.387557 0.000000
vertex 8.948757 8.385129 0.000000
vertex 8.923881 8.382681 0.000000
endloop
endfacet
facet normal 0.000000 0.000000 -1.000000
outer loop
vertex 8.948400 8.387557 0.000000
vertex 8.923881 8.382681 0.000000
vertex 8.947801 8.389936 0.000000
endloop
endfacet
facet normal 0.000000 0.000000 -1.000000
outer loop
vertex 8.948879 8.382680 0.000000
vertex 8.948757 8.380230 0.000000
vertex 8.923881 8.382681 0.000000
endloop
endfacet
facet normal 0.000000 0.000000 -1.000000
outer loop
vertex 8.948879 8.382680 0.000000
vertex 8.923881 8.382681 0.000000
vertex 8.948757 8.385129 0.000000
endloop
endfacet
facet normal 0.000000 0.000000 -1.000000
outer loop
vertex 8.948400 8.377803 0.000000
vertex 8.947801 8.375423 0.000000
vertex 8.923881 8.382681 0.000000
endloop
endfacet
facet normal 0.000000 0.000000 -1.000000
outer loop
vertex 8.948400 8.377803 0.000000
vertex 8.923881 8.382681 0.000000
vertex 8.948757 8.380230 0.000000
endloop
endfacet
facet normal 0.000000 0.000000 -1.000000
outer loop
vertex 8.946977 8.373113 0.000000
vertex 8.945926 8.370896 0.000000
vertex 8.923881 8.382681 0.000000
endloop
endfacet
facet normal 0.000000 0.000000 -1.000000
outer loop
vertex 8.946977 8.373113 0.000000
vertex 8.923881 8.382681 0.000000
vertex 8.947801 8.375423 0.000000
endloop
endfacet
facet normal 0.000000 0.000000 -1.000000
outer loop
vertex 8.944666 8.368791 0.000000
vertex 8.943203 8.366822 0.000000
vertex 8.923881 8.382681 0.000000
endloop
endfacet
facet normal 0.000000 0.000000 -1.000000
outer loop
vertex 8.944666 8.368791 0.000000
vertex 8.923881 8.382681 0.000000
vertex 8.945926 8.370896 0.000000
endloop
endfacet
facet normal 0.000000 0.000000 -1.000000
outer loop
vertex 8.941557 8.365003 0.000000
vertex 8.939737 8.363357 0.000000
vertex 8.923881 8.382681 0.000000
endloop
endfacet
facet normal 0.000000 0.000000 -1.000000
outer loop
vertex 8.941557 8.365003 0.000000
vertex 8.923881 8.382681 0.000000
vertex 8.943203 8.366822 0.000000
endloop
endfacet
facet normal 0.000000 0.000000 -1.000000
outer loop
vertex 8.937769 8.361893 0.000000
vertex 8.935663 8.360634 0.000000
vertex 8.923881 8.382681 0.000000
endloop
endfacet
facet normal 0.000000 0.000000 -1.000000
outer loop
vertex 8.937769 8.361893 0.000000
vertex 8.923881 8.382681 0.000000
vertex 8.939737 8.363357 0.000000
endloop
endfacet
facet normal 0.000000 0.000000 -1.000000
outer loop
vertex 8.933447 8.359583 0.000000
vertex 8.931137 8.358759 0.000000
vertex 8.923881 8.382681 0.000000
endloop
endfacet
facet normal 0.000000 0.000000 -1.000000
outer loop
vertex 8.933447 8.359583 0.000000
vertex 8.923881 8.382681 0.000000
vertex 8.935663 8.360634 0.000000
endloop
endfacet
facet normal 0.000000 0.000000 -1.000000
outer loop
vertex 8.928758 8.358162 0.000000
vertex 8.926330 8.357803 0.000000
vertex 8.923881 8.382681 0.000000
endloop
endfacet
facet normal 0.000000 0.000000 -1.000000
outer loop
vertex 8.928758 8.358162 0.000000
vertex 8.923881 8.382681 0.000000
vertex 8.931137 8.358759 0.000000
endloop
endfacet
facet normal 0.000000 0.000000 -1.000000
outer loop
vertex 8.923880 8.357680 0.000000
vertex 8.921430 8.357803 0.000000
vertex 8.923881 8.382681 0.000000
endloop
endfacet
facet normal 0.000000 0.000000 -1.000000
outer loop
vertex 8.923880 8.357680 0.000000
vertex 8.923881 8.382681 0.000000
vertex 8.926330 8.357803 0.000000
endloop
endfacet
facet normal 0.000000 0.000000 -1.000000
outer loop
vertex 8.919003 8.358162 0.000000
vertex 8.916624 8.358759 0.000000
vertex 8.923881 8.382681 0.000000
endloop
endfacet
facet normal 0.000000 0.000000 -1.000000
outer loop
vertex 8.919003 8.358162 0.000000
vertex 8.923881 8.382681 0.000000
vertex 8.921430 8.357803 0.000000
endloop
endfacet
facet normal 0.000000 0.000000 -1.000000
outer loop
vertex 8.914312 8.359583 0.000000
vertex 8.912096 8.360634 0.000000
vertex 8.923881 8.382681 0.000000
endloop
endfacet
facet normal 0.000000 0.000000 -1.000000
outer loop
vertex 8.914312 8.359583 0.000000
vertex 8.923881 8.382681 0.000000
vertex 8.916624 8.358759 0.000000
endloop
endfacet
facet normal 0.000000 0.000000 -1.000000
outer loop
vertex 8.909990 8.361893 0.000000
vertex 8.908022 8.363357 0.000000
vertex 8.923881 8.382681 0.000000
endloop
endfacet
facet normal 0.000000 0.000000 -1.000000
outer loop
vertex 8.909990 8.361893 0.000000
vertex 8.923881 8.382681 0.000000
vertex 8.912096 8.360634 0.000000
endloop
endfacet
facet normal 0.000000 0.000000 -1.000000
outer loop
vertex 8.906202 8.365003 0.000000
vertex 8.904556 8.366822 0.000000
vertex 8.923881 8.382681 0.000000
endloop
endfacet
facet normal 0.000000 0.000000 -1.000000
outer loop
vertex 8.906202 8.365003 0.000000
vertex 8.923881 8.382681 0.000000
vertex 8.908022 8.363357 0.000000
endloop
endfacet
facet normal 0.000000 0.000000 -1.000000
outer loop
vertex 8.903092 8.368791 0.000000
vertex 8.901834 8.370897 0.000000
vertex 8.923881 8.382681 0.000000
endloop
endfacet
facet normal 0.000000 0.000000 -1.000000
outer loop
vertex 8.903092 8.368791 0.000000
vertex 8.923881 8.382681 0.000000
vertex 8.904556 8.366822 0.000000
endloop
endfacet
facet normal 0.000000 0.000000 -1.000000
outer loop
vertex 8.900783 8.373113 0.000000
vertex 8.899959 8.375423 0.000000
vertex 8.923881 8.382681 0.000000
endloop
endfacet
facet normal 0.000000 0.000000 -1.000000
outer loop
vertex 8.900783 8.373113 0.000000
vertex 8.923881 8.382681 0.000000
vertex 8.901834 8.370897 0.000000
endloop
endfacet
facet normal 0.000000 0.000000 -1.000000
outer loop
vertex 8.899361 8.377803 0.000000
vertex 8.899003 8.380230 0.000000
vertex 8.923881 8.382681 0.000000
endloop
endfacet
facet normal 0.000000 0.000000 -1.000000
outer loop
vertex 8.899361 8.377803 0.000000
vertex 8.923881 8.382681 0.000000
vertex 8.899959 8.375423 0.000000
endloop
endfacet
facet normal 0.000000 0.000000 -1.000000
outer loop
vertex 8.898880 8.382680 0.000000
vertex 8.899003 8.385129 0.000000
vertex 8.923881 8.382681 0.000000
endloop
endfacet
facet normal 0.000000 0.000000 -1.000000
outer loop
vertex 8.898880 8.382680 0.000000
vertex 8.923881 8.382681 0.000000
vertex 8.899003 8.380230 0.000000
endloop
endfacet
facet normal 0.000000 0.000000 -1.000000
outer loop
vertex 8.899361 8.387557 0.000000
vertex 8.899959 8.389936 0.000000
vertex 8.923881 8.382681 0.000000
endloop
endfacet
facet normal 0.000000 0.000000 -1.000000
outer loop
vertex 8.899361 8.387557 0.000000
vertex 8.923881 8.382681 0.000000
vertex 8.899003 8.385129 0.000000
endloop
endfacet
facet normal 0.000000 0.000000 -1.000000
outer loop
vertex 8.900783 8.392246 0.000000
vertex 8.901834 8.394464 0.000000
vertex 8.923881 8.382681 0.000000
endloop
endfacet
facet normal 0.000000 0.000000 -1.000000
outer loop
vertex 8.900783 8.392246 0.000000
vertex 8.923881 8.382681 0.000000
vertex 8.899959 8.389936 0.000000
endloop
endfacet
facet normal 0.000000 0.000000 -1.000000
outer loop
vertex 8.903092 8.396568 0.000000
vertex 8.904556 8.398538 0.000000
vertex 8.923881 8.382681 0.000000
endloop
endfacet
facet normal 0.000000 0.000000 -1.000000
outer loop
vertex 8.903092 8.396568 0.000000
vertex 8.923881 8.382681 0.000000
vertex 8.901834 8.394464 0.000000
endloop
endfacet
facet normal 0.000000 0.000000 -1.000000
outer loop
vertex 8.906202 8.400357 0.000000
vertex 8.908022 8.402003 0.000000
vertex 8.923881 8.382681 0.000000
endloop
endfacet
facet normal 0.000000 0.000000 -1.000000
outer loop
vertex 8.906202 8.400357 0.000000
vertex 8.923881 8.382681 0.000000
vertex 8.904556 8.398538 0.000000
endloop
endfacet
facet normal 0.000000 0.000000 -1.000000
outer loop
vertex 8.909990 8.403466 0.000000
vertex 8.912097 8.404726 0.000000
vertex 8.923881 8.382681 0.000000
endloop
endfacet
facet normal 0.000000 0.000000 -1.000000
outer loop
vertex 8.909990 8.403466 0.000000
vertex 8.923881 8.382681 0.000000
vertex 8.908022 8.402003 0.000000
endloop
endfacet
facet normal 0.000000 0.000000 -1.000000
outer loop
vertex 8.914312 8.405776 0.000000
vertex 8.916624 8.406600 0.000000
vertex 8.923881 8.382681 0.000000
endloop
endfacet
facet normal 0.000000 0.000000 -1.000000
outer loop
vertex 8.914312 8.405776 0.000000
vertex 8.923881 8.382681 0.000000
vertex 8.912097 8.404726 0.000000
endloop
endfacet
facet normal 0.000000 0.000000 -1.000000
outer loop
vertex 8.919003 8.407200 0.000000
vertex 8.921430 8.407557 0.000000
vertex 8.923881 8.382681 0.000000
endloop
endfacet
facet normal 0.000000 0.000000 -1.000000
outer loop
vertex 8.919003 8.407200 0.000000
vertex 8.923881 8.382681 0.000000
vertex 8.916624 8.406600 0.000000
endloop
endfacet
endsolid Exported from Blender-2.82 (sub 7)
