solid Exported from Blender-2.82 (sub 7)
facet normal 0.049404 0.998779 0.000000
outer loop
vertex 12.500000 8.062498 0.000000
vertex 12.500000 8.062498 0.050000
vertex 12.502450 8.062377 0.050000
endloop
endfacet
facet normal 0.049356 0.998781 0.000000
outer loop
vertex 12.500000 8.062498 0.000000
vertex 12.502450 8.062377 0.050000
vertex 12.502450 8.062377 0.000000
endloop
endfacet
facet normal 0.049404 0.998779 0.000000
outer loop
vertex 12.500000 8.062498 0.050000
vertex 12.500000 8.062498 0.100000
vertex 12.502450 8.062377 0.100000
endloop
endfacet
facet normal 0.049356 0.998781 0.000000
outer loop
vertex 12.500000 8.062498 0.050000
vertex 12.502450 8.062377 0.100000
vertex 12.502450 8.062377 0.050000
endloop
endfacet
facet normal 0.146394 0.989226 0.000000
outer loop
vertex 12.502450 8.062377 0.050000
vertex 12.502450 8.062377 0.100000
vertex 12.504877 8.062017 0.100000
endloop
endfacet
facet normal 0.146676 0.989185 0.000000
outer loop
vertex 12.502450 8.062377 0.050000
vertex 12.504877 8.062017 0.100000
vertex 12.504877 8.062017 0.050000
endloop
endfacet
facet normal 0.146394 0.989226 0.000000
outer loop
vertex 12.502450 8.062377 0.000000
vertex 12.502450 8.062377 0.050000
vertex 12.504877 8.062017 0.050000
endloop
endfacet
facet normal 0.146676 0.989185 0.000000
outer loop
vertex 12.502450 8.062377 0.000000
vertex 12.504877 8.062017 0.050000
vertex 12.504877 8.062017 0.000000
endloop
endfacet
facet normal 0.243359 0.969936 0.000000
outer loop
vertex 12.504877 8.062017 0.000000
vertex 12.504877 8.062017 0.050000
vertex 12.507256 8.061420 0.050000
endloop
endfacet
facet normal 0.243359 0.969936 0.000003
outer loop
vertex 12.504877 8.062017 0.000000
vertex 12.507256 8.061420 0.050000
vertex 12.507257 8.061420 0.000000
endloop
endfacet
facet normal 0.243130 0.969994 0.000000
outer loop
vertex 12.504877 8.062017 0.050000
vertex 12.504877 8.062017 0.100000
vertex 12.507257 8.061420 0.100000
endloop
endfacet
facet normal 0.243588 0.969879 -0.000003
outer loop
vertex 12.504877 8.062017 0.050000
vertex 12.507257 8.061420 0.100000
vertex 12.507256 8.061420 0.050000
endloop
endfacet
facet normal 0.336619 0.941641 -0.000030
outer loop
vertex 12.507256 8.061420 0.050000
vertex 12.507257 8.061420 0.100000
vertex 12.509566 8.060595 0.100000
endloop
endfacet
facet normal 0.336620 0.941641 0.000000
outer loop
vertex 12.507256 8.061420 0.050000
vertex 12.509566 8.060595 0.100000
vertex 12.509566 8.060595 0.050000
endloop
endfacet
facet normal 0.336620 0.941641 0.000030
outer loop
vertex 12.507257 8.061420 0.000000
vertex 12.507256 8.061420 0.050000
vertex 12.509566 8.060595 0.050000
endloop
endfacet
facet normal 0.336620 0.941641 0.000000
outer loop
vertex 12.507257 8.061420 0.000000
vertex 12.509566 8.060595 0.050000
vertex 12.509566 8.060595 0.000000
endloop
endfacet
facet normal 0.427668 0.903936 0.000000
outer loop
vertex 12.509566 8.060595 0.000000
vertex 12.509566 8.060595 0.050000
vertex 12.511784 8.059546 0.050000
endloop
endfacet
facet normal 0.427668 0.903936 0.000000
outer loop
vertex 12.509566 8.060595 0.000000
vertex 12.511784 8.059546 0.050000
vertex 12.511784 8.059546 0.000000
endloop
endfacet
facet normal 0.427668 0.903936 0.000000
outer loop
vertex 12.509566 8.060595 0.050000
vertex 12.509566 8.060595 0.100000
vertex 12.511784 8.059546 0.100000
endloop
endfacet
facet normal 0.427668 0.903936 0.000000
outer loop
vertex 12.509566 8.060595 0.050000
vertex 12.511784 8.059546 0.100000
vertex 12.511784 8.059546 0.050000
endloop
endfacet
facet normal 0.514210 0.857665 0.000000
outer loop
vertex 12.511784 8.059546 0.050000
vertex 12.511784 8.059546 0.100000
vertex 12.513887 8.058285 0.100000
endloop
endfacet
facet normal 0.513781 0.857921 0.000000
outer loop
vertex 12.511784 8.059546 0.050000
vertex 12.513887 8.058285 0.100000
vertex 12.513887 8.058285 0.050000
endloop
endfacet
facet normal 0.514210 0.857665 0.000000
outer loop
vertex 12.511784 8.059546 0.000000
vertex 12.511784 8.059546 0.050000
vertex 12.513887 8.058285 0.050000
endloop
endfacet
facet normal 0.513781 0.857921 0.000000
outer loop
vertex 12.511784 8.059546 0.000000
vertex 12.513887 8.058285 0.050000
vertex 12.513887 8.058285 0.000000
endloop
endfacet
facet normal 0.596073 0.802930 0.000000
outer loop
vertex 12.513887 8.058285 0.000000
vertex 12.513887 8.058285 0.050000
vertex 12.515858 8.056823 0.050000
endloop
endfacet
facet normal 0.595608 0.803275 0.000000
outer loop
vertex 12.513887 8.058285 0.000000
vertex 12.515858 8.056823 0.050000
vertex 12.515858 8.056823 0.000000
endloop
endfacet
facet normal 0.596073 0.802930 0.000000
outer loop
vertex 12.513887 8.058285 0.050000
vertex 12.513887 8.058285 0.100000
vertex 12.515858 8.056823 0.100000
endloop
endfacet
facet normal 0.595608 0.803275 0.000000
outer loop
vertex 12.513887 8.058285 0.050000
vertex 12.515858 8.056823 0.100000
vertex 12.515858 8.056823 0.050000
endloop
endfacet
facet normal 0.671162 0.741310 0.000000
outer loop
vertex 12.515858 8.056823 0.050000
vertex 12.515858 8.056823 0.100000
vertex 12.517676 8.055176 0.100000
endloop
endfacet
facet normal 0.671646 0.740872 0.000000
outer loop
vertex 12.515858 8.056823 0.050000
vertex 12.517676 8.055176 0.100000
vertex 12.517676 8.055176 0.050000
endloop
endfacet
facet normal 0.671163 0.741310 0.000000
outer loop
vertex 12.515858 8.056823 0.000000
vertex 12.515858 8.056823 0.050000
vertex 12.517676 8.055176 0.050000
endloop
endfacet
facet normal 0.671646 0.740872 0.000000
outer loop
vertex 12.515858 8.056823 0.000000
vertex 12.517676 8.055176 0.050000
vertex 12.517676 8.055176 0.000000
endloop
endfacet
facet normal 0.740951 0.671559 0.000000
outer loop
vertex 12.517676 8.055176 0.000000
vertex 12.517676 8.055176 0.050000
vertex 12.519323 8.053358 0.050000
endloop
endfacet
facet normal 0.740951 0.671559 0.000021
outer loop
vertex 12.517676 8.055176 0.000000
vertex 12.519323 8.053358 0.050000
vertex 12.519324 8.053358 0.000000
endloop
endfacet
facet normal 0.740951 0.671559 0.000000
outer loop
vertex 12.517676 8.055176 0.050000
vertex 12.517676 8.055176 0.100000
vertex 12.519324 8.053358 0.100000
endloop
endfacet
facet normal 0.740951 0.671559 -0.000021
outer loop
vertex 12.517676 8.055176 0.050000
vertex 12.519324 8.053358 0.100000
vertex 12.519323 8.053358 0.050000
endloop
endfacet
facet normal 0.803161 0.595762 -0.000015
outer loop
vertex 12.519323 8.053358 0.050000
vertex 12.519324 8.053358 0.100000
vertex 12.520785 8.051388 0.100000
endloop
endfacet
facet normal 0.803161 0.595762 0.000000
outer loop
vertex 12.519323 8.053358 0.050000
vertex 12.520785 8.051388 0.100000
vertex 12.520785 8.051388 0.050000
endloop
endfacet
facet normal 0.803161 0.595762 0.000015
outer loop
vertex 12.519324 8.053358 0.000000
vertex 12.519323 8.053358 0.050000
vertex 12.520785 8.051388 0.050000
endloop
endfacet
facet normal 0.803161 0.595762 0.000000
outer loop
vertex 12.519324 8.053358 0.000000
vertex 12.520785 8.051388 0.050000
vertex 12.520785 8.051388 0.000000
endloop
endfacet
facet normal 0.857682 0.514181 0.000000
outer loop
vertex 12.520785 8.051388 0.000000
vertex 12.520785 8.051388 0.050000
vertex 12.522046 8.049284 0.050000
endloop
endfacet
facet normal 0.857682 0.514181 0.000000
outer loop
vertex 12.520785 8.051388 0.000000
vertex 12.522046 8.049284 0.050000
vertex 12.522046 8.049284 0.000000
endloop
endfacet
facet normal 0.857682 0.514181 0.000000
outer loop
vertex 12.520785 8.051388 0.050000
vertex 12.520785 8.051388 0.100000
vertex 12.522046 8.049284 0.100000
endloop
endfacet
facet normal 0.857682 0.514181 0.000000
outer loop
vertex 12.520785 8.051388 0.050000
vertex 12.522046 8.049284 0.100000
vertex 12.522046 8.049284 0.050000
endloop
endfacet
facet normal 0.904007 0.427518 0.000000
outer loop
vertex 12.522046 8.049284 0.050000
vertex 12.522046 8.049284 0.100000
vertex 12.523095 8.047066 0.100000
endloop
endfacet
facet normal 0.904007 0.427518 0.000000
outer loop
vertex 12.522046 8.049284 0.050000
vertex 12.523095 8.047066 0.100000
vertex 12.523095 8.047066 0.050000
endloop
endfacet
facet normal 0.904007 0.427518 0.000000
outer loop
vertex 12.522046 8.049284 0.000000
vertex 12.522046 8.049284 0.050000
vertex 12.523095 8.047066 0.050000
endloop
endfacet
facet normal 0.904007 0.427518 0.000000
outer loop
vertex 12.522046 8.049284 0.000000
vertex 12.523095 8.047066 0.050000
vertex 12.523095 8.047066 0.000000
endloop
endfacet
facet normal 0.941698 0.336460 0.000000
outer loop
vertex 12.523095 8.047066 0.000000
vertex 12.523095 8.047066 0.050000
vertex 12.523921 8.044757 0.050000
endloop
endfacet
facet normal 0.941390 0.337322 0.000000
outer loop
vertex 12.523095 8.047066 0.000000
vertex 12.523921 8.044757 0.050000
vertex 12.523921 8.044757 0.000000
endloop
endfacet
facet normal 0.941698 0.336460 0.000000
outer loop
vertex 12.523095 8.047066 0.050000
vertex 12.523095 8.047066 0.100000
vertex 12.523921 8.044757 0.100000
endloop
endfacet
facet normal 0.941390 0.337321 0.000000
outer loop
vertex 12.523095 8.047066 0.050000
vertex 12.523921 8.044757 0.100000
vertex 12.523921 8.044757 0.050000
endloop
endfacet
facet normal 0.970028 0.242993 0.000000
outer loop
vertex 12.523921 8.044757 0.050000
vertex 12.523921 8.044757 0.100000
vertex 12.524518 8.042377 0.100000
endloop
endfacet
facet normal 0.970028 0.242993 0.000000
outer loop
vertex 12.523921 8.044757 0.050000
vertex 12.524518 8.042377 0.100000
vertex 12.524518 8.042377 0.050000
endloop
endfacet
facet normal 0.970028 0.242993 0.000000
outer loop
vertex 12.523921 8.044757 0.000000
vertex 12.523921 8.044757 0.050000
vertex 12.524518 8.042377 0.050000
endloop
endfacet
facet normal 0.970028 0.242993 0.000000
outer loop
vertex 12.523921 8.044757 0.000000
vertex 12.524518 8.042377 0.050000
vertex 12.524518 8.042377 0.000000
endloop
endfacet
facet normal 0.989044 0.147619 0.000000
outer loop
vertex 12.524518 8.042377 0.000000
vertex 12.524518 8.042377 0.050000
vertex 12.524878 8.039949 0.050000
endloop
endfacet
facet normal 0.989326 0.145718 0.000000
outer loop
vertex 12.524518 8.042377 0.000000
vertex 12.524878 8.039949 0.050000
vertex 12.524878 8.039949 0.000000
endloop
endfacet
facet normal 0.989044 0.147619 0.000000
outer loop
vertex 12.524518 8.042377 0.050000
vertex 12.524518 8.042377 0.100000
vertex 12.524878 8.039949 0.100000
endloop
endfacet
facet normal 0.989326 0.145718 0.000000
outer loop
vertex 12.524518 8.042377 0.050000
vertex 12.524878 8.039949 0.100000
vertex 12.524878 8.039949 0.050000
endloop
endfacet
facet normal 0.998817 0.048618 0.000000
outer loop
vertex 12.524878 8.039949 0.050000
vertex 12.524878 8.039949 0.100000
vertex 12.524998 8.037500 0.100000
endloop
endfacet
facet normal 0.998770 0.049588 0.000000
outer loop
vertex 12.524878 8.039949 0.050000
vertex 12.524998 8.037500 0.100000
vertex 12.524998 8.037500 0.050000
endloop
endfacet
facet normal 0.998817 0.048618 0.000000
outer loop
vertex 12.524878 8.039949 0.000000
vertex 12.524878 8.039949 0.050000
vertex 12.524998 8.037500 0.050000
endloop
endfacet
facet normal 0.998770 0.049588 0.000000
outer loop
vertex 12.524878 8.039949 0.000000
vertex 12.524998 8.037500 0.050000
vertex 12.524998 8.037500 0.000000
endloop
endfacet
facet normal 0.998772 -0.049550 0.000000
outer loop
vertex 12.524998 8.037500 0.000000
vertex 12.524998 8.037500 0.050000
vertex 12.524878 8.035049 0.050000
endloop
endfacet
facet normal 0.998819 -0.048581 0.000000
outer loop
vertex 12.524998 8.037500 0.000000
vertex 12.524878 8.035049 0.050000
vertex 12.524878 8.035049 0.000000
endloop
endfacet
facet normal 0.998772 -0.049550 0.000000
outer loop
vertex 12.524998 8.037500 0.050000
vertex 12.524998 8.037500 0.100000
vertex 12.524878 8.035049 0.100000
endloop
endfacet
facet normal 0.998819 -0.048581 0.000000
outer loop
vertex 12.524998 8.037500 0.050000
vertex 12.524878 8.035049 0.100000
vertex 12.524878 8.035049 0.050000
endloop
endfacet
facet normal 0.989301 -0.145886 0.000000
outer loop
vertex 12.524878 8.035049 0.050000
vertex 12.524878 8.035049 0.100000
vertex 12.524518 8.032624 0.100000
endloop
endfacet
facet normal 0.989019 -0.147789 0.000000
outer loop
vertex 12.524878 8.035049 0.050000
vertex 12.524518 8.032624 0.100000
vertex 12.524518 8.032624 0.050000
endloop
endfacet
facet normal 0.989301 -0.145886 0.000000
outer loop
vertex 12.524878 8.035049 0.000000
vertex 12.524878 8.035049 0.050000
vertex 12.524518 8.032624 0.050000
endloop
endfacet
facet normal 0.989019 -0.147789 0.000000
outer loop
vertex 12.524878 8.035049 0.000000
vertex 12.524518 8.032624 0.050000
vertex 12.524518 8.032624 0.000000
endloop
endfacet
facet normal 0.970051 -0.242901 0.000000
outer loop
vertex 12.524518 8.032624 0.000000
vertex 12.524518 8.032624 0.050000
vertex 12.523921 8.030244 0.050000
endloop
endfacet
facet normal 0.970051 -0.242901 0.000000
outer loop
vertex 12.524518 8.032624 0.000000
vertex 12.523921 8.030244 0.050000
vertex 12.523921 8.030244 0.000000
endloop
endfacet
facet normal 0.970051 -0.242901 0.000000
outer loop
vertex 12.524518 8.032624 0.050000
vertex 12.524518 8.032624 0.100000
vertex 12.523921 8.030244 0.100000
endloop
endfacet
facet normal 0.970051 -0.242901 0.000000
outer loop
vertex 12.524518 8.032624 0.050000
vertex 12.523921 8.030244 0.100000
vertex 12.523921 8.030244 0.050000
endloop
endfacet
facet normal 0.941434 -0.337198 0.000000
outer loop
vertex 12.523921 8.030244 0.050000
vertex 12.523921 8.030244 0.100000
vertex 12.523095 8.027934 0.100000
endloop
endfacet
facet normal 0.941742 -0.336336 0.000000
outer loop
vertex 12.523921 8.030244 0.050000
vertex 12.523095 8.027934 0.100000
vertex 12.523095 8.027934 0.050000
endloop
endfacet
facet normal 0.941434 -0.337198 0.000000
outer loop
vertex 12.523921 8.030244 0.000000
vertex 12.523921 8.030244 0.050000
vertex 12.523095 8.027934 0.050000
endloop
endfacet
facet normal 0.941742 -0.336336 0.000000
outer loop
vertex 12.523921 8.030244 0.000000
vertex 12.523095 8.027934 0.050000
vertex 12.523095 8.027934 0.000000
endloop
endfacet
facet normal 0.904007 -0.427518 0.000000
outer loop
vertex 12.523095 8.027934 0.000000
vertex 12.523095 8.027934 0.050000
vertex 12.522046 8.025716 0.050000
endloop
endfacet
facet normal 0.904007 -0.427518 0.000000
outer loop
vertex 12.523095 8.027934 0.000000
vertex 12.522046 8.025716 0.050000
vertex 12.522046 8.025716 0.000000
endloop
endfacet
facet normal 0.904007 -0.427518 0.000000
outer loop
vertex 12.523095 8.027934 0.050000
vertex 12.523095 8.027934 0.100000
vertex 12.522046 8.025716 0.100000
endloop
endfacet
facet normal 0.904007 -0.427518 0.000000
outer loop
vertex 12.523095 8.027934 0.050000
vertex 12.522046 8.025716 0.100000
vertex 12.522046 8.025716 0.050000
endloop
endfacet
facet normal 0.857682 -0.514181 0.000000
outer loop
vertex 12.522046 8.025716 0.050000
vertex 12.522046 8.025716 0.100000
vertex 12.520785 8.023612 0.100000
endloop
endfacet
facet normal 0.857682 -0.514181 0.000000
outer loop
vertex 12.522046 8.025716 0.050000
vertex 12.520785 8.023612 0.100000
vertex 12.520785 8.023612 0.050000
endloop
endfacet
facet normal 0.857682 -0.514181 0.000000
outer loop
vertex 12.522046 8.025716 0.000000
vertex 12.522046 8.025716 0.050000
vertex 12.520785 8.023612 0.050000
endloop
endfacet
facet normal 0.857682 -0.514181 0.000000
outer loop
vertex 12.522046 8.025716 0.000000
vertex 12.520785 8.023612 0.050000
vertex 12.520785 8.023612 0.000000
endloop
endfacet
facet normal 0.803161 -0.595762 0.000000
outer loop
vertex 12.520785 8.023612 0.000000
vertex 12.520785 8.023612 0.050000
vertex 12.519323 8.021642 0.050000
endloop
endfacet
facet normal 0.803161 -0.595762 0.000000
outer loop
vertex 12.520785 8.023612 0.000000
vertex 12.519323 8.021642 0.050000
vertex 12.519323 8.021642 0.000000
endloop
endfacet
facet normal 0.803161 -0.595762 0.000000
outer loop
vertex 12.520785 8.023612 0.050000
vertex 12.520785 8.023612 0.100000
vertex 12.519323 8.021642 0.100000
endloop
endfacet
facet normal 0.803161 -0.595762 0.000000
outer loop
vertex 12.520785 8.023612 0.050000
vertex 12.519323 8.021642 0.100000
vertex 12.519323 8.021642 0.050000
endloop
endfacet
facet normal 0.740951 -0.671559 0.000000
outer loop
vertex 12.519323 8.021642 0.050000
vertex 12.519323 8.021642 0.100000
vertex 12.517676 8.019824 0.100000
endloop
endfacet
facet normal 0.740951 -0.671559 0.000000
outer loop
vertex 12.519323 8.021642 0.050000
vertex 12.517676 8.019824 0.100000
vertex 12.517676 8.019824 0.050000
endloop
endfacet
facet normal 0.740951 -0.671559 0.000000
outer loop
vertex 12.519323 8.021642 0.000000
vertex 12.519323 8.021642 0.050000
vertex 12.517676 8.019824 0.050000
endloop
endfacet
facet normal 0.740951 -0.671559 0.000000
outer loop
vertex 12.519323 8.021642 0.000000
vertex 12.517676 8.019824 0.050000
vertex 12.517676 8.019824 0.000000
endloop
endfacet
facet normal 0.671646 -0.740872 0.000000
outer loop
vertex 12.517676 8.019824 0.000000
vertex 12.517676 8.019824 0.050000
vertex 12.515858 8.018177 0.050000
endloop
endfacet
facet normal 0.671163 -0.741310 0.000000
outer loop
vertex 12.517676 8.019824 0.000000
vertex 12.515858 8.018177 0.050000
vertex 12.515858 8.018177 0.000000
endloop
endfacet
facet normal 0.671646 -0.740872 0.000000
outer loop
vertex 12.517676 8.019824 0.050000
vertex 12.517676 8.019824 0.100000
vertex 12.515858 8.018177 0.100000
endloop
endfacet
facet normal 0.671163 -0.741310 0.000000
outer loop
vertex 12.517676 8.019824 0.050000
vertex 12.515858 8.018177 0.100000
vertex 12.515858 8.018177 0.050000
endloop
endfacet
facet normal 0.595358 -0.803461 0.000000
outer loop
vertex 12.515858 8.018177 0.050000
vertex 12.515858 8.018177 0.100000
vertex 12.513887 8.016716 0.100000
endloop
endfacet
facet normal 0.595823 -0.803116 0.000000
outer loop
vertex 12.515858 8.018177 0.050000
vertex 12.513887 8.016716 0.100000
vertex 12.513887 8.016716 0.050000
endloop
endfacet
facet normal 0.595358 -0.803461 0.000000
outer loop
vertex 12.515858 8.018177 0.000000
vertex 12.515858 8.018177 0.050000
vertex 12.513887 8.016716 0.050000
endloop
endfacet
facet normal 0.595823 -0.803116 0.000000
outer loop
vertex 12.515858 8.018177 0.000000
vertex 12.513887 8.016716 0.050000
vertex 12.513887 8.016716 0.000000
endloop
endfacet
facet normal 0.514067 -0.857750 0.000000
outer loop
vertex 12.513887 8.016716 0.000000
vertex 12.513887 8.016716 0.050000
vertex 12.511784 8.015454 0.050000
endloop
endfacet
facet normal 0.514210 -0.857665 -0.000030
outer loop
vertex 12.513887 8.016716 0.000000
vertex 12.511784 8.015454 0.050000
vertex 12.511784 8.015455 0.000000
endloop
endfacet
facet normal 0.513781 -0.857921 0.000000
outer loop
vertex 12.513887 8.016716 0.050000
vertex 12.513887 8.016716 0.100000
vertex 12.511784 8.015455 0.100000
endloop
endfacet
facet normal 0.514496 -0.857493 0.000030
outer loop
vertex 12.513887 8.016716 0.050000
vertex 12.511784 8.015455 0.100000
vertex 12.511784 8.015454 0.050000
endloop
endfacet
facet normal 0.427986 -0.903785 0.000061
outer loop
vertex 12.511784 8.015454 0.050000
vertex 12.511784 8.015455 0.100000
vertex 12.509566 8.014405 0.100000
endloop
endfacet
facet normal 0.427668 -0.903936 0.000000
outer loop
vertex 12.511784 8.015454 0.050000
vertex 12.509566 8.014405 0.100000
vertex 12.509566 8.014405 0.050000
endloop
endfacet
facet normal 0.427668 -0.903936 -0.000061
outer loop
vertex 12.511784 8.015455 0.000000
vertex 12.511784 8.015454 0.050000
vertex 12.509566 8.014405 0.050000
endloop
endfacet
facet normal 0.427986 -0.903785 0.000000
outer loop
vertex 12.511784 8.015455 0.000000
vertex 12.509566 8.014405 0.050000
vertex 12.509566 8.014405 0.000000
endloop
endfacet
facet normal 0.336964 -0.941518 0.000000
outer loop
vertex 12.509566 8.014405 0.000000
vertex 12.509566 8.014405 0.050000
vertex 12.507257 8.013578 0.050000
endloop
endfacet
facet normal 0.337273 -0.941407 0.000000
outer loop
vertex 12.509566 8.014405 0.000000
vertex 12.507257 8.013578 0.050000
vertex 12.507257 8.013578 0.000000
endloop
endfacet
facet normal 0.336964 -0.941518 0.000000
outer loop
vertex 12.509566 8.014405 0.050000
vertex 12.509566 8.014405 0.100000
vertex 12.507257 8.013578 0.100000
endloop
endfacet
facet normal 0.337273 -0.941407 0.000000
outer loop
vertex 12.509566 8.014405 0.050000
vertex 12.507257 8.013578 0.100000
vertex 12.507257 8.013578 0.050000
endloop
endfacet
facet normal 0.242627 -0.970120 0.000000
outer loop
vertex 12.507257 8.013578 0.050000
vertex 12.507257 8.013578 0.100000
vertex 12.504877 8.012983 0.100000
endloop
endfacet
facet normal 0.242399 -0.970177 0.000000
outer loop
vertex 12.507257 8.013578 0.050000
vertex 12.504877 8.012983 0.100000
vertex 12.504877 8.012983 0.050000
endloop
endfacet
facet normal 0.242627 -0.970120 0.000000
outer loop
vertex 12.507257 8.013578 0.000000
vertex 12.507257 8.013578 0.050000
vertex 12.504877 8.012983 0.050000
endloop
endfacet
facet normal 0.242399 -0.970177 0.000000
outer loop
vertex 12.507257 8.013578 0.000000
vertex 12.504877 8.012983 0.050000
vertex 12.504877 8.012983 0.000000
endloop
endfacet
facet normal 0.147056 -0.989128 0.000000
outer loop
vertex 12.504877 8.012983 0.000000
vertex 12.504877 8.012983 0.050000
vertex 12.502450 8.012623 0.050000
endloop
endfacet
facet normal 0.146774 -0.989170 0.000000
outer loop
vertex 12.504877 8.012983 0.000000
vertex 12.502450 8.012623 0.050000
vertex 12.502450 8.012623 0.000000
endloop
endfacet
facet normal 0.147056 -0.989128 0.000000
outer loop
vertex 12.504877 8.012983 0.050000
vertex 12.504877 8.012983 0.100000
vertex 12.502450 8.012623 0.100000
endloop
endfacet
facet normal 0.146774 -0.989170 0.000000
outer loop
vertex 12.504877 8.012983 0.050000
vertex 12.502450 8.012623 0.100000
vertex 12.502450 8.012623 0.050000
endloop
endfacet
facet normal 0.048968 -0.998800 0.000000
outer loop
vertex 12.502450 8.012623 0.050000
vertex 12.502450 8.012623 0.100000
vertex 12.500000 8.012503 0.100000
endloop
endfacet
facet normal 0.049016 -0.998798 0.000000
outer loop
vertex 12.502450 8.012623 0.050000
vertex 12.500000 8.012503 0.100000
vertex 12.500000 8.012503 0.050000
endloop
endfacet
facet normal 0.048968 -0.998800 0.000000
outer loop
vertex 12.502450 8.012623 0.000000
vertex 12.502450 8.012623 0.050000
vertex 12.500000 8.012503 0.050000
endloop
endfacet
facet normal 0.049016 -0.998798 0.000000
outer loop
vertex 12.502450 8.012623 0.000000
vertex 12.500000 8.012503 0.050000
vertex 12.500000 8.012503 0.000000
endloop
endfacet
facet normal -0.049016 -0.998798 0.000000
outer loop
vertex 12.500000 8.012503 0.000000
vertex 12.500000 8.012503 0.050000
vertex 12.497550 8.012623 0.050000
endloop
endfacet
facet normal -0.048968 -0.998800 0.000000
outer loop
vertex 12.500000 8.012503 0.000000
vertex 12.497550 8.012623 0.050000
vertex 12.497550 8.012623 0.000000
endloop
endfacet
facet normal -0.049016 -0.998798 0.000000
outer loop
vertex 12.500000 8.012503 0.050000
vertex 12.500000 8.012503 0.100000
vertex 12.497550 8.012623 0.100000
endloop
endfacet
facet normal -0.048968 -0.998800 0.000000
outer loop
vertex 12.500000 8.012503 0.050000
vertex 12.497550 8.012623 0.100000
vertex 12.497550 8.012623 0.050000
endloop
endfacet
facet normal -0.146915 -0.989149 0.000000
outer loop
vertex 12.497550 8.012623 0.050000
vertex 12.497550 8.012623 0.100000
vertex 12.495124 8.012983 0.100000
endloop
endfacet
facet normal -0.147056 -0.989128 0.000000
outer loop
vertex 12.497550 8.012623 0.050000
vertex 12.495124 8.012983 0.100000
vertex 12.495124 8.012983 0.050000
endloop
endfacet
facet normal -0.146915 -0.989149 0.000000
outer loop
vertex 12.497550 8.012623 0.000000
vertex 12.497550 8.012623 0.050000
vertex 12.495124 8.012983 0.050000
endloop
endfacet
facet normal -0.147056 -0.989128 0.000000
outer loop
vertex 12.497550 8.012623 0.000000
vertex 12.495124 8.012983 0.050000
vertex 12.495124 8.012983 0.000000
endloop
endfacet
facet normal -0.242627 -0.970120 0.000000
outer loop
vertex 12.495124 8.012983 0.000000
vertex 12.495124 8.012983 0.050000
vertex 12.492744 8.013578 0.050000
endloop
endfacet
facet normal -0.242627 -0.970120 0.000000
outer loop
vertex 12.495124 8.012983 0.000000
vertex 12.492744 8.013578 0.050000
vertex 12.492744 8.013578 0.000000
endloop
endfacet
facet normal -0.242627 -0.970120 0.000000
outer loop
vertex 12.495124 8.012983 0.050000
vertex 12.495124 8.012983 0.100000
vertex 12.492744 8.013578 0.100000
endloop
endfacet
facet normal -0.242627 -0.970120 0.000000
outer loop
vertex 12.495124 8.012983 0.050000
vertex 12.492744 8.013578 0.100000
vertex 12.492744 8.013578 0.050000
endloop
endfacet
facet normal -0.337000 -0.941505 0.000000
outer loop
vertex 12.492744 8.013578 0.050000
vertex 12.492744 8.013578 0.100000
vertex 12.490434 8.014406 0.100000
endloop
endfacet
facet normal -0.337309 -0.941394 0.000000
outer loop
vertex 12.492744 8.013578 0.050000
vertex 12.490434 8.014406 0.100000
vertex 12.490434 8.014406 0.050000
endloop
endfacet
facet normal -0.337000 -0.941505 0.000000
outer loop
vertex 12.492744 8.013578 0.000000
vertex 12.492744 8.013578 0.050000
vertex 12.490434 8.014406 0.050000
endloop
endfacet
facet normal -0.337309 -0.941394 0.000000
outer loop
vertex 12.492744 8.013578 0.000000
vertex 12.490434 8.014406 0.050000
vertex 12.490434 8.014406 0.000000
endloop
endfacet
facet normal -0.427351 -0.904086 0.000000
outer loop
vertex 12.490434 8.014406 0.000000
vertex 12.490434 8.014406 0.050000
vertex 12.488216 8.015454 0.050000
endloop
endfacet
facet normal -0.427668 -0.903936 0.000000
outer loop
vertex 12.490434 8.014406 0.000000
vertex 12.488216 8.015454 0.050000
vertex 12.488216 8.015455 0.000000
endloop
endfacet
facet normal -0.427668 -0.903936 0.000000
outer loop
vertex 12.490434 8.014406 0.050000
vertex 12.490434 8.014406 0.100000
vertex 12.488216 8.015455 0.100000
endloop
endfacet
facet normal -0.427351 -0.904086 0.000000
outer loop
vertex 12.490434 8.014406 0.050000
vertex 12.488216 8.015455 0.100000
vertex 12.488216 8.015454 0.050000
endloop
endfacet
facet normal -0.514210 -0.857665 0.000030
outer loop
vertex 12.488216 8.015454 0.050000
vertex 12.488216 8.015455 0.100000
vertex 12.486113 8.016716 0.100000
endloop
endfacet
facet normal -0.514496 -0.857493 0.000000
outer loop
vertex 12.488216 8.015454 0.050000
vertex 12.486113 8.016716 0.100000
vertex 12.486113 8.016716 0.050000
endloop
endfacet
facet normal -0.514496 -0.857493 -0.000030
outer loop
vertex 12.488216 8.015455 0.000000
vertex 12.488216 8.015454 0.050000
vertex 12.486113 8.016716 0.050000
endloop
endfacet
facet normal -0.514210 -0.857665 0.000000
outer loop
vertex 12.488216 8.015455 0.000000
vertex 12.486113 8.016716 0.050000
vertex 12.486113 8.016716 0.000000
endloop
endfacet
facet normal -0.595358 -0.803461 0.000000
outer loop
vertex 12.486113 8.016716 0.000000
vertex 12.486113 8.016716 0.050000
vertex 12.484142 8.018177 0.050000
endloop
endfacet
facet normal -0.595823 -0.803116 0.000000
outer loop
vertex 12.486113 8.016716 0.000000
vertex 12.484142 8.018177 0.050000
vertex 12.484142 8.018177 0.000000
endloop
endfacet
facet normal -0.595358 -0.803461 0.000000
outer loop
vertex 12.486113 8.016716 0.050000
vertex 12.486113 8.016716 0.100000
vertex 12.484142 8.018177 0.100000
endloop
endfacet
facet normal -0.595823 -0.803116 0.000000
outer loop
vertex 12.486113 8.016716 0.050000
vertex 12.484142 8.018177 0.100000
vertex 12.484142 8.018177 0.050000
endloop
endfacet
facet normal -0.671162 -0.741310 0.000000
outer loop
vertex 12.484142 8.018177 0.050000
vertex 12.484142 8.018177 0.100000
vertex 12.482324 8.019824 0.100000
endloop
endfacet
facet normal -0.671163 -0.741310 0.000000
outer loop
vertex 12.484142 8.018177 0.050000
vertex 12.482324 8.019824 0.100000
vertex 12.482324 8.019824 0.050000
endloop
endfacet
facet normal -0.671163 -0.741310 0.000000
outer loop
vertex 12.484142 8.018177 0.000000
vertex 12.484142 8.018177 0.050000
vertex 12.482324 8.019824 0.050000
endloop
endfacet
facet normal -0.671163 -0.741310 0.000000
outer loop
vertex 12.484142 8.018177 0.000000
vertex 12.482324 8.019824 0.050000
vertex 12.482324 8.019824 0.000000
endloop
endfacet
facet normal -0.741434 -0.671025 0.000000
outer loop
vertex 12.482324 8.019824 0.000000
vertex 12.482324 8.019824 0.050000
vertex 12.480677 8.021642 0.050000
endloop
endfacet
facet normal -0.740951 -0.671559 0.000000
outer loop
vertex 12.482324 8.019824 0.000000
vertex 12.480677 8.021642 0.050000
vertex 12.480677 8.021642 0.000000
endloop
endfacet
facet normal -0.741434 -0.671025 0.000000
outer loop
vertex 12.482324 8.019824 0.050000
vertex 12.482324 8.019824 0.100000
vertex 12.480677 8.021642 0.100000
endloop
endfacet
facet normal -0.740951 -0.671559 0.000000
outer loop
vertex 12.482324 8.019824 0.050000
vertex 12.480677 8.021642 0.100000
vertex 12.480677 8.021642 0.050000
endloop
endfacet
facet normal -0.803161 -0.595762 0.000000
outer loop
vertex 12.480677 8.021642 0.050000
vertex 12.480677 8.021642 0.100000
vertex 12.479216 8.023612 0.100000
endloop
endfacet
facet normal -0.803299 -0.595576 0.000000
outer loop
vertex 12.480677 8.021642 0.050000
vertex 12.479216 8.023612 0.100000
vertex 12.479216 8.023613 0.050000
endloop
endfacet
facet normal -0.803299 -0.595576 0.000000
outer loop
vertex 12.480677 8.021642 0.000000
vertex 12.480677 8.021642 0.050000
vertex 12.479216 8.023613 0.050000
endloop
endfacet
facet normal -0.803161 -0.595762 0.000000
outer loop
vertex 12.480677 8.021642 0.000000
vertex 12.479216 8.023613 0.050000
vertex 12.479216 8.023612 0.000000
endloop
endfacet
facet normal -0.857150 -0.515067 0.000000
outer loop
vertex 12.479216 8.023612 0.000000
vertex 12.479216 8.023613 0.050000
vertex 12.477954 8.025716 0.050000
endloop
endfacet
facet normal -0.858213 -0.513294 -0.000005
outer loop
vertex 12.479216 8.023612 0.000000
vertex 12.477954 8.025716 0.050000
vertex 12.477955 8.025717 0.000000
endloop
endfacet
facet normal -0.857784 -0.514010 -0.000030
outer loop
vertex 12.479216 8.023613 0.050000
vertex 12.479216 8.023612 0.100000
vertex 12.477955 8.025717 0.100000
endloop
endfacet
facet normal -0.857579 -0.514353 0.000035
outer loop
vertex 12.479216 8.023613 0.050000
vertex 12.477955 8.025717 0.100000
vertex 12.477954 8.025716 0.050000
endloop
endfacet
facet normal -0.903936 -0.427669 0.000015
outer loop
vertex 12.477954 8.025716 0.050000
vertex 12.477955 8.025717 0.100000
vertex 12.476905 8.027934 0.100000
endloop
endfacet
facet normal -0.904007 -0.427518 0.000000
outer loop
vertex 12.477954 8.025716 0.050000
vertex 12.476905 8.027934 0.100000
vertex 12.476905 8.027934 0.050000
endloop
endfacet
facet normal -0.904007 -0.427518 -0.000015
outer loop
vertex 12.477955 8.025717 0.000000
vertex 12.477954 8.025716 0.050000
vertex 12.476905 8.027934 0.050000
endloop
endfacet
facet normal -0.903936 -0.427668 0.000000
outer loop
vertex 12.477955 8.025717 0.000000
vertex 12.476905 8.027934 0.050000
vertex 12.476905 8.027934 0.000000
endloop
endfacet
facet normal -0.941434 -0.337198 0.000000
outer loop
vertex 12.476905 8.027934 0.000000
vertex 12.476905 8.027934 0.050000
vertex 12.476079 8.030244 0.050000
endloop
endfacet
facet normal -0.941742 -0.336336 0.000000
outer loop
vertex 12.476905 8.027934 0.000000
vertex 12.476079 8.030244 0.050000
vertex 12.476079 8.030244 0.000000
endloop
endfacet
facet normal -0.941434 -0.337198 0.000000
outer loop
vertex 12.476905 8.027934 0.050000
vertex 12.476905 8.027934 0.100000
vertex 12.476079 8.030244 0.100000
endloop
endfacet
facet normal -0.941742 -0.336336 0.000000
outer loop
vertex 12.476905 8.027934 0.050000
vertex 12.476079 8.030244 0.100000
vertex 12.476079 8.030244 0.050000
endloop
endfacet
facet normal -0.969822 -0.243815 0.000000
outer loop
vertex 12.476079 8.030244 0.050000
vertex 12.476079 8.030244 0.100000
vertex 12.475483 8.032624 0.100000
endloop
endfacet
facet normal -0.970257 -0.242078 0.000015
outer loop
vertex 12.476079 8.030244 0.050000
vertex 12.475483 8.032624 0.100000
vertex 12.475483 8.032623 0.050000
endloop
endfacet
facet normal -0.969799 -0.243907 0.000000
outer loop
vertex 12.476079 8.030244 0.000000
vertex 12.476079 8.030244 0.050000
vertex 12.475483 8.032623 0.050000
endloop
endfacet
facet normal -0.970280 -0.241987 -0.000015
outer loop
vertex 12.476079 8.030244 0.000000
vertex 12.475483 8.032623 0.050000
vertex 12.475483 8.032624 0.000000
endloop
endfacet
facet normal -0.989169 -0.146781 0.000000
outer loop
vertex 12.475483 8.032624 0.000000
vertex 12.475483 8.032623 0.050000
vertex 12.475122 8.035049 0.050000
endloop
endfacet
facet normal -0.989019 -0.147789 0.000000
outer loop
vertex 12.475483 8.032624 0.000000
vertex 12.475122 8.035049 0.050000
vertex 12.475122 8.035049 0.000000
endloop
endfacet
facet normal -0.989161 -0.146838 0.000000
outer loop
vertex 12.475483 8.032623 0.050000
vertex 12.475483 8.032624 0.100000
vertex 12.475122 8.035049 0.100000
endloop
endfacet
facet normal -0.989027 -0.147732 0.000000
outer loop
vertex 12.475483 8.032623 0.050000
vertex 12.475122 8.035049 0.100000
vertex 12.475122 8.035049 0.050000
endloop
endfacet
facet normal -0.998866 -0.047611 0.000000
outer loop
vertex 12.475122 8.035049 0.050000
vertex 12.475122 8.035049 0.100000
vertex 12.475003 8.037500 0.100000
endloop
endfacet
facet normal -0.998772 -0.049550 0.000000
outer loop
vertex 12.475122 8.035049 0.050000
vertex 12.475003 8.037500 0.100000
vertex 12.475003 8.037500 0.050000
endloop
endfacet
facet normal -0.998866 -0.047611 0.000000
outer loop
vertex 12.475122 8.035049 0.000000
vertex 12.475122 8.035049 0.050000
vertex 12.475003 8.037500 0.050000
endloop
endfacet
facet normal -0.998772 -0.049550 0.000000
outer loop
vertex 12.475122 8.035049 0.000000
vertex 12.475003 8.037500 0.050000
vertex 12.475003 8.037500 0.000000
endloop
endfacet
facet normal -0.998770 0.049588 0.000000
outer loop
vertex 12.475003 8.037500 0.000000
vertex 12.475003 8.037500 0.050000
vertex 12.475122 8.039949 0.050000
endloop
endfacet
facet normal -0.998864 0.047648 0.000000
outer loop
vertex 12.475003 8.037500 0.000000
vertex 12.475122 8.039949 0.050000
vertex 12.475122 8.039949 0.000000
endloop
endfacet
facet normal -0.998770 0.049588 0.000000
outer loop
vertex 12.475003 8.037500 0.050000
vertex 12.475003 8.037500 0.100000
vertex 12.475122 8.039949 0.100000
endloop
endfacet
facet normal -0.998864 0.047648 0.000000
outer loop
vertex 12.475003 8.037500 0.050000
vertex 12.475122 8.039949 0.100000
vertex 12.475122 8.039949 0.050000
endloop
endfacet
facet normal -0.989044 0.147619 0.000000
outer loop
vertex 12.475122 8.039949 0.050000
vertex 12.475122 8.039949 0.100000
vertex 12.475483 8.042377 0.100000
endloop
endfacet
facet normal -0.989186 0.146668 0.000000
outer loop
vertex 12.475122 8.039949 0.050000
vertex 12.475483 8.042377 0.100000
vertex 12.475483 8.042377 0.050000
endloop
endfacet
facet normal -0.989044 0.147619 0.000000
outer loop
vertex 12.475122 8.039949 0.000000
vertex 12.475122 8.039949 0.050000
vertex 12.475483 8.042377 0.050000
endloop
endfacet
facet normal -0.989186 0.146668 0.000000
outer loop
vertex 12.475122 8.039949 0.000000
vertex 12.475483 8.042377 0.050000
vertex 12.475483 8.042377 0.000000
endloop
endfacet
facet normal -0.970234 0.242169 0.000000
outer loop
vertex 12.475483 8.042377 0.000000
vertex 12.475483 8.042377 0.050000
vertex 12.476079 8.044756 0.050000
endloop
endfacet
facet normal -0.969799 0.243907 0.000015
outer loop
vertex 12.475483 8.042377 0.000000
vertex 12.476079 8.044756 0.050000
vertex 12.476079 8.044757 0.000000
endloop
endfacet
facet normal -0.970257 0.242078 0.000000
outer loop
vertex 12.475483 8.042377 0.050000
vertex 12.475483 8.042377 0.100000
vertex 12.476079 8.044757 0.100000
endloop
endfacet
facet normal -0.969775 0.243999 -0.000015
outer loop
vertex 12.475483 8.042377 0.050000
vertex 12.476079 8.044757 0.100000
vertex 12.476079 8.044756 0.050000
endloop
endfacet
facet normal -0.941698 0.336460 -0.000015
outer loop
vertex 12.476079 8.044756 0.050000
vertex 12.476079 8.044757 0.100000
vertex 12.476906 8.047066 0.100000
endloop
endfacet
facet normal -0.941434 0.337198 0.000000
outer loop
vertex 12.476079 8.044756 0.050000
vertex 12.476906 8.047066 0.100000
vertex 12.476906 8.047066 0.050000
endloop
endfacet
facet normal -0.941742 0.336336 0.000015
outer loop
vertex 12.476079 8.044757 0.000000
vertex 12.476079 8.044756 0.050000
vertex 12.476906 8.047066 0.050000
endloop
endfacet
facet normal -0.941390 0.337322 0.000000
outer loop
vertex 12.476079 8.044757 0.000000
vertex 12.476906 8.047066 0.050000
vertex 12.476906 8.047066 0.000000
endloop
endfacet
facet normal -0.904007 0.427518 0.000000
outer loop
vertex 12.476906 8.047066 0.000000
vertex 12.476906 8.047066 0.050000
vertex 12.477954 8.049284 0.050000
endloop
endfacet
facet normal -0.904007 0.427518 -0.000022
outer loop
vertex 12.476906 8.047066 0.000000
vertex 12.477954 8.049284 0.050000
vertex 12.477955 8.049284 0.000000
endloop
endfacet
facet normal -0.904007 0.427518 0.000000
outer loop
vertex 12.476906 8.047066 0.050000
vertex 12.476906 8.047066 0.100000
vertex 12.477955 8.049284 0.100000
endloop
endfacet
facet normal -0.904007 0.427518 0.000022
outer loop
vertex 12.476906 8.047066 0.050000
vertex 12.477955 8.049284 0.100000
vertex 12.477954 8.049284 0.050000
endloop
endfacet
facet normal -0.858110 0.513466 0.000030
outer loop
vertex 12.477954 8.049284 0.050000
vertex 12.477955 8.049284 0.100000
vertex 12.479216 8.051388 0.100000
endloop
endfacet
facet normal -0.857253 0.514896 0.000000
outer loop
vertex 12.477954 8.049284 0.050000
vertex 12.479216 8.051388 0.100000
vertex 12.479216 8.051388 0.050000
endloop
endfacet
facet normal -0.857682 0.514181 -0.000030
outer loop
vertex 12.477955 8.049284 0.000000
vertex 12.477954 8.049284 0.050000
vertex 12.479216 8.051388 0.050000
endloop
endfacet
facet normal -0.857682 0.514181 0.000000
outer loop
vertex 12.477955 8.049284 0.000000
vertex 12.479216 8.051388 0.050000
vertex 12.479216 8.051388 0.000000
endloop
endfacet
facet normal -0.803161 0.595762 0.000000
outer loop
vertex 12.479216 8.051388 0.000000
vertex 12.479216 8.051388 0.050000
vertex 12.480677 8.053358 0.050000
endloop
endfacet
facet normal -0.803161 0.595762 0.000000
outer loop
vertex 12.479216 8.051388 0.000000
vertex 12.480677 8.053358 0.050000
vertex 12.480677 8.053358 0.000000
endloop
endfacet
facet normal -0.803161 0.595762 0.000000
outer loop
vertex 12.479216 8.051388 0.050000
vertex 12.479216 8.051388 0.100000
vertex 12.480677 8.053358 0.100000
endloop
endfacet
facet normal -0.803161 0.595762 0.000000
outer loop
vertex 12.479216 8.051388 0.050000
vertex 12.480677 8.053358 0.100000
vertex 12.480677 8.053358 0.050000
endloop
endfacet
facet normal -0.740951 0.671559 0.000000
outer loop
vertex 12.480677 8.053358 0.050000
vertex 12.480677 8.053358 0.100000
vertex 12.482324 8.055176 0.100000
endloop
endfacet
facet normal -0.741434 0.671025 0.000000
outer loop
vertex 12.480677 8.053358 0.050000
vertex 12.482324 8.055176 0.100000
vertex 12.482324 8.055176 0.050000
endloop
endfacet
facet normal -0.740951 0.671559 0.000000
outer loop
vertex 12.480677 8.053358 0.000000
vertex 12.480677 8.053358 0.050000
vertex 12.482324 8.055176 0.050000
endloop
endfacet
facet normal -0.741434 0.671025 0.000000
outer loop
vertex 12.480677 8.053358 0.000000
vertex 12.482324 8.055176 0.050000
vertex 12.482324 8.055176 0.000000
endloop
endfacet
facet normal -0.671163 0.741310 0.000000
outer loop
vertex 12.482324 8.055176 0.000000
vertex 12.482324 8.055176 0.050000
vertex 12.484142 8.056823 0.050000
endloop
endfacet
facet normal -0.671376 0.741117 0.000000
outer loop
vertex 12.482324 8.055176 0.000000
vertex 12.484142 8.056823 0.050000
vertex 12.484142 8.056824 0.000000
endloop
endfacet
facet normal -0.671376 0.741117 0.000000
outer loop
vertex 12.482324 8.055176 0.050000
vertex 12.482324 8.055176 0.100000
vertex 12.484142 8.056824 0.100000
endloop
endfacet
facet normal -0.671163 0.741310 0.000000
outer loop
vertex 12.482324 8.055176 0.050000
vertex 12.484142 8.056824 0.100000
vertex 12.484142 8.056823 0.050000
endloop
endfacet
facet normal -0.595823 0.803116 0.000000
outer loop
vertex 12.484142 8.056823 0.050000
vertex 12.484142 8.056824 0.100000
vertex 12.486113 8.058285 0.100000
endloop
endfacet
facet normal -0.595608 0.803275 0.000000
outer loop
vertex 12.484142 8.056823 0.050000
vertex 12.486113 8.058285 0.100000
vertex 12.486113 8.058285 0.050000
endloop
endfacet
facet normal -0.596073 0.802930 0.000000
outer loop
vertex 12.484142 8.056824 0.000000
vertex 12.484142 8.056823 0.050000
vertex 12.486113 8.058285 0.050000
endloop
endfacet
facet normal -0.595358 0.803461 0.000000
outer loop
vertex 12.484142 8.056824 0.000000
vertex 12.486113 8.058285 0.050000
vertex 12.486113 8.058285 0.000000
endloop
endfacet
facet normal -0.514210 0.857665 0.000000
outer loop
vertex 12.486113 8.058285 0.000000
vertex 12.486113 8.058285 0.050000
vertex 12.488216 8.059546 0.050000
endloop
endfacet
facet normal -0.514210 0.857665 -0.000015
outer loop
vertex 12.486113 8.058285 0.000000
vertex 12.488216 8.059546 0.050000
vertex 12.488217 8.059546 0.000000
endloop
endfacet
facet normal -0.513781 0.857921 0.000000
outer loop
vertex 12.486113 8.058285 0.050000
vertex 12.486113 8.058285 0.100000
vertex 12.488217 8.059546 0.100000
endloop
endfacet
facet normal -0.514639 0.857407 0.000015
outer loop
vertex 12.486113 8.058285 0.050000
vertex 12.488217 8.059546 0.100000
vertex 12.488216 8.059546 0.050000
endloop
endfacet
facet normal -0.427668 0.903936 0.000000
outer loop
vertex 12.488216 8.059546 0.050000
vertex 12.488217 8.059546 0.100000
vertex 12.490434 8.060595 0.100000
endloop
endfacet
facet normal -0.427668 0.903936 0.000000
outer loop
vertex 12.488216 8.059546 0.050000
vertex 12.490434 8.060595 0.100000
vertex 12.490434 8.060595 0.050000
endloop
endfacet
facet normal -0.427293 0.904113 0.000000
outer loop
vertex 12.488217 8.059546 0.000000
vertex 12.488216 8.059546 0.050000
vertex 12.490434 8.060595 0.050000
endloop
endfacet
facet normal -0.428045 0.903758 0.000000
outer loop
vertex 12.488217 8.059546 0.000000
vertex 12.490434 8.060595 0.050000
vertex 12.490434 8.060595 0.000000
endloop
endfacet
facet normal 0.000008 0.000000 1.000000
outer loop
vertex 12.504878 8.062020 0.100000
vertex 12.502450 8.062377 0.100000
vertex 12.500001 8.037501 0.100000
endloop
endfacet
facet normal 0.000000 0.000000 1.000000
outer loop
vertex 12.504878 8.062020 0.100000
vertex 12.500001 8.037501 0.100000
vertex 12.507257 8.061420 0.100000
endloop
endfacet
facet normal 0.000000 0.000000 1.000000
outer loop
vertex 12.500000 8.062500 0.100000
vertex 12.497550 8.062377 0.100000
vertex 12.500001 8.037501 0.100000
endloop
endfacet
facet normal 0.000000 0.000000 1.000000
outer loop
vertex 12.500000 8.062500 0.100000
vertex 12.500001 8.037501 0.100000
vertex 12.502450 8.062377 0.100000
endloop
endfacet
facet normal 0.000000 0.000000 1.000000
outer loop
vertex 12.495123 8.062020 0.100000
vertex 12.492744 8.061420 0.100000
vertex 12.500001 8.037501 0.100000
endloop
endfacet
facet normal -0.000008 0.000000 1.000000
outer loop
vertex 12.495123 8.062020 0.100000
vertex 12.500001 8.037501 0.100000
vertex 12.497550 8.062377 0.100000
endloop
endfacet
facet normal 0.000000 0.000000 1.000000
outer loop
vertex 12.490433 8.060596 0.100000
vertex 12.488216 8.059546 0.100000
vertex 12.500001 8.037501 0.100000
endloop
endfacet
facet normal -0.000008 0.000000 1.000000
outer loop
vertex 12.490433 8.060596 0.100000
vertex 12.500001 8.037501 0.100000
vertex 12.492744 8.061420 0.100000
endloop
endfacet
facet normal 0.000000 0.000000 1.000000
outer loop
vertex 12.486111 8.058287 0.100000
vertex 12.484142 8.056824 0.100000
vertex 12.500001 8.037501 0.100000
endloop
endfacet
facet normal 0.000000 0.000000 1.000000
outer loop
vertex 12.486111 8.058287 0.100000
vertex 12.500001 8.037501 0.100000
vertex 12.488216 8.059546 0.100000
endloop
endfacet
facet normal 0.000004 0.000000 1.000000
outer loop
vertex 12.482323 8.055178 0.100000
vertex 12.480677 8.053358 0.100000
vertex 12.500001 8.037501 0.100000
endloop
endfacet
facet normal 0.000000 0.000000 1.000000
outer loop
vertex 12.482323 8.055178 0.100000
vertex 12.500001 8.037501 0.100000
vertex 12.484142 8.056824 0.100000
endloop
endfacet
facet normal -0.000004 0.000000 1.000000
outer loop
vertex 12.479213 8.051389 0.100000
vertex 12.477955 8.049284 0.100000
vertex 12.500001 8.037501 0.100000
endloop
endfacet
facet normal 0.000000 0.000000 1.000000
outer loop
vertex 12.479213 8.051389 0.100000
vertex 12.500001 8.037501 0.100000
vertex 12.480677 8.053358 0.100000
endloop
endfacet
facet normal 0.000000 0.000000 1.000000
outer loop
vertex 12.476903 8.047067 0.100000
vertex 12.476079 8.044757 0.100000
vertex 12.500001 8.037501 0.100000
endloop
endfacet
facet normal 0.000000 0.000000 1.000000
outer loop
vertex 12.476903 8.047067 0.100000
vertex 12.500001 8.037501 0.100000
vertex 12.477955 8.049284 0.100000
endloop
endfacet
facet normal 0.000000 0.000000 1.000000
outer loop
vertex 12.475481 8.042377 0.100000
vertex 12.475122 8.039949 0.100000
vertex 12.500001 8.037501 0.100000
endloop
endfacet
facet normal 0.000002 0.000000 1.000000
outer loop
vertex 12.475481 8.042377 0.100000
vertex 12.500001 8.037501 0.100000
vertex 12.476079 8.044757 0.100000
endloop
endfacet
facet normal 0.000000 0.000000 1.000000
outer loop
vertex 12.475000 8.037500 0.100000
vertex 12.475122 8.035049 0.100000
vertex 12.500001 8.037501 0.100000
endloop
endfacet
facet normal 0.000000 0.000000 1.000000
outer loop
vertex 12.475000 8.037500 0.100000
vertex 12.500001 8.037501 0.100000
vertex 12.475122 8.039949 0.100000
endloop
endfacet
facet normal 0.000000 0.000000 1.000000
outer loop
vertex 12.475481 8.032623 0.100000
vertex 12.476079 8.030244 0.100000
vertex 12.500001 8.037501 0.100000
endloop
endfacet
facet normal 0.000001 0.000000 1.000000
outer loop
vertex 12.475481 8.032623 0.100000
vertex 12.500001 8.037501 0.100000
vertex 12.475122 8.035049 0.100000
endloop
endfacet
facet normal 0.000000 0.000000 1.000000
outer loop
vertex 12.476903 8.027933 0.100000
vertex 12.477954 8.025716 0.100000
vertex 12.500001 8.037501 0.100000
endloop
endfacet
facet normal 0.000000 0.000000 1.000000
outer loop
vertex 12.476903 8.027933 0.100000
vertex 12.500001 8.037501 0.100000
vertex 12.476079 8.030244 0.100000
endloop
endfacet
facet normal 0.000000 0.000000 1.000000
outer loop
vertex 12.479213 8.023611 0.100000
vertex 12.480677 8.021642 0.100000
vertex 12.500001 8.037501 0.100000
endloop
endfacet
facet normal 0.000000 0.000000 1.000000
outer loop
vertex 12.479213 8.023611 0.100000
vertex 12.500001 8.037501 0.100000
vertex 12.477954 8.025716 0.100000
endloop
endfacet
facet normal 0.000000 0.000000 1.000000
outer loop
vertex 12.482323 8.019823 0.100000
vertex 12.484142 8.018177 0.100000
vertex 12.500001 8.037501 0.100000
endloop
endfacet
facet normal -0.000004 0.000000 1.000000
outer loop
vertex 12.482323 8.019823 0.100000
vertex 12.500001 8.037501 0.100000
vertex 12.480677 8.021642 0.100000
endloop
endfacet
facet normal 0.000000 0.000000 1.000000
outer loop
vertex 12.486111 8.016713 0.100000
vertex 12.488217 8.015455 0.100000
vertex 12.500001 8.037501 0.100000
endloop
endfacet
facet normal 0.000000 0.000000 1.000000
outer loop
vertex 12.486111 8.016713 0.100000
vertex 12.500001 8.037501 0.100000
vertex 12.484142 8.018177 0.100000
endloop
endfacet
facet normal 0.000000 0.000000 1.000000
outer loop
vertex 12.490433 8.014403 0.100000
vertex 12.492744 8.013578 0.100000
vertex 12.500001 8.037501 0.100000
endloop
endfacet
facet normal 0.000000 0.000000 1.000000
outer loop
vertex 12.490433 8.014403 0.100000
vertex 12.500001 8.037501 0.100000
vertex 12.488217 8.015455 0.100000
endloop
endfacet
facet normal 0.000008 0.000000 1.000000
outer loop
vertex 12.495123 8.012981 0.100000
vertex 12.497550 8.012623 0.100000
vertex 12.500001 8.037501 0.100000
endloop
endfacet
facet normal 0.000000 0.000000 1.000000
outer loop
vertex 12.495123 8.012981 0.100000
vertex 12.500001 8.037501 0.100000
vertex 12.492744 8.013578 0.100000
endloop
endfacet
facet normal 0.000008 0.000000 1.000000
outer loop
vertex 12.500000 8.012500 0.100000
vertex 12.502450 8.012623 0.100000
vertex 12.500001 8.037501 0.100000
endloop
endfacet
facet normal -0.000008 0.000000 1.000000
outer loop
vertex 12.500000 8.012500 0.100000
vertex 12.500001 8.037501 0.100000
vertex 12.497550 8.012623 0.100000
endloop
endfacet
facet normal 0.000000 0.000000 1.000000
outer loop
vertex 12.504878 8.012981 0.100000
vertex 12.507257 8.013578 0.100000
vertex 12.500001 8.037501 0.100000
endloop
endfacet
facet normal -0.000008 0.000000 1.000000
outer loop
vertex 12.504878 8.012981 0.100000
vertex 12.500001 8.037501 0.100000
vertex 12.502450 8.012623 0.100000
endloop
endfacet
facet normal 0.000000 0.000000 1.000000
outer loop
vertex 12.509567 8.014403 0.100000
vertex 12.511784 8.015454 0.100000
vertex 12.500001 8.037501 0.100000
endloop
endfacet
facet normal 0.000000 0.000000 1.000000
outer loop
vertex 12.509567 8.014403 0.100000
vertex 12.500001 8.037501 0.100000
vertex 12.507257 8.013578 0.100000
endloop
endfacet
facet normal 0.000000 0.000000 1.000000
outer loop
vertex 12.513889 8.016713 0.100000
vertex 12.515858 8.018177 0.100000
vertex 12.500001 8.037501 0.100000
endloop
endfacet
facet normal 0.000000 0.000000 1.000000
outer loop
vertex 12.513889 8.016713 0.100000
vertex 12.500001 8.037501 0.100000
vertex 12.511784 8.015454 0.100000
endloop
endfacet
facet normal 0.000004 0.000000 1.000000
outer loop
vertex 12.517678 8.019823 0.100000
vertex 12.519324 8.021642 0.100000
vertex 12.500001 8.037501 0.100000
endloop
endfacet
facet normal 0.000000 0.000000 1.000000
outer loop
vertex 12.517678 8.019823 0.100000
vertex 12.500001 8.037501 0.100000
vertex 12.515858 8.018177 0.100000
endloop
endfacet
facet normal -0.000004 0.000000 1.000000
outer loop
vertex 12.520787 8.023611 0.100000
vertex 12.522046 8.025717 0.100000
vertex 12.500001 8.037501 0.100000
endloop
endfacet
facet normal 0.000000 0.000000 1.000000
outer loop
vertex 12.520787 8.023611 0.100000
vertex 12.500001 8.037501 0.100000
vertex 12.519324 8.021642 0.100000
endloop
endfacet
facet normal 0.000000 0.000000 1.000000
outer loop
vertex 12.523097 8.027933 0.100000
vertex 12.523921 8.030244 0.100000
vertex 12.500001 8.037501 0.100000
endloop
endfacet
facet normal 0.000004 0.000000 1.000000
outer loop
vertex 12.523097 8.027933 0.100000
vertex 12.500001 8.037501 0.100000
vertex 12.522046 8.025717 0.100000
endloop
endfacet
facet normal -0.000001 0.000000 1.000000
outer loop
vertex 12.524520 8.032623 0.100000
vertex 12.524878 8.035049 0.100000
vertex 12.500001 8.037501 0.100000
endloop
endfacet
facet normal 0.000000 0.000000 1.000000
outer loop
vertex 12.524520 8.032623 0.100000
vertex 12.500001 8.037501 0.100000
vertex 12.523921 8.030244 0.100000
endloop
endfacet
facet normal 0.000000 0.000000 1.000000
outer loop
vertex 12.525000 8.037500 0.100000
vertex 12.524878 8.039949 0.100000
vertex 12.500001 8.037501 0.100000
endloop
endfacet
facet normal 0.000000 0.000000 1.000000
outer loop
vertex 12.525000 8.037500 0.100000
vertex 12.500001 8.037501 0.100000
vertex 12.524878 8.035049 0.100000
endloop
endfacet
facet normal -0.000002 0.000000 1.000000
outer loop
vertex 12.524520 8.042377 0.100000
vertex 12.523921 8.044757 0.100000
vertex 12.500001 8.037501 0.100000
endloop
endfacet
facet normal 0.000000 0.000000 1.000000
outer loop
vertex 12.524520 8.042377 0.100000
vertex 12.500001 8.037501 0.100000
vertex 12.524878 8.039949 0.100000
endloop
endfacet
facet normal 0.000000 0.000000 1.000000
outer loop
vertex 12.523097 8.047067 0.100000
vertex 12.522046 8.049284 0.100000
vertex 12.500001 8.037501 0.100000
endloop
endfacet
facet normal 0.000000 0.000000 1.000000
outer loop
vertex 12.523097 8.047067 0.100000
vertex 12.500001 8.037501 0.100000
vertex 12.523921 8.044757 0.100000
endloop
endfacet
facet normal 0.000000 0.000000 1.000000
outer loop
vertex 12.520787 8.051389 0.100000
vertex 12.519324 8.053358 0.100000
vertex 12.500001 8.037501 0.100000
endloop
endfacet
facet normal 0.000004 0.000000 1.000000
outer loop
vertex 12.520787 8.051389 0.100000
vertex 12.500001 8.037501 0.100000
vertex 12.522046 8.049284 0.100000
endloop
endfacet
facet normal 0.000000 0.000000 1.000000
outer loop
vertex 12.517678 8.055178 0.100000
vertex 12.515858 8.056824 0.100000
vertex 12.500001 8.037501 0.100000
endloop
endfacet
facet normal -0.000004 0.000000 1.000000
outer loop
vertex 12.517678 8.055178 0.100000
vertex 12.500001 8.037501 0.100000
vertex 12.519324 8.053358 0.100000
endloop
endfacet
facet normal 0.000000 0.000000 1.000000
outer loop
vertex 12.513889 8.058287 0.100000
vertex 12.511784 8.059546 0.100000
vertex 12.500001 8.037501 0.100000
endloop
endfacet
facet normal 0.000000 0.000000 1.000000
outer loop
vertex 12.513889 8.058287 0.100000
vertex 12.500001 8.037501 0.100000
vertex 12.515858 8.056824 0.100000
endloop
endfacet
facet normal 0.000008 0.000000 1.000000
outer loop
vertex 12.509567 8.060596 0.100000
vertex 12.507257 8.061420 0.100000
vertex 12.500001 8.037501 0.100000
endloop
endfacet
facet normal 0.000000 0.000000 1.000000
outer loop
vertex 12.509567 8.060596 0.100000
vertex 12.500001 8.037501 0.100000
vertex 12.511784 8.059546 0.100000
endloop
endfacet
facet normal -0.336620 0.941641 0.000000
outer loop
vertex 12.490434 8.060595 0.000000
vertex 12.490434 8.060595 0.050000
vertex 12.492744 8.061420 0.050000
endloop
endfacet
facet normal -0.336312 0.941751 0.000000
outer loop
vertex 12.490434 8.060595 0.000000
vertex 12.492744 8.061420 0.050000
vertex 12.492744 8.061420 0.000000
endloop
endfacet
facet normal -0.336619 0.941641 0.000000
outer loop
vertex 12.490434 8.060595 0.050000
vertex 12.490434 8.060595 0.100000
vertex 12.492744 8.061420 0.100000
endloop
endfacet
facet normal -0.336312 0.941751 0.000000
outer loop
vertex 12.490434 8.060595 0.050000
vertex 12.492744 8.061420 0.100000
vertex 12.492744 8.061420 0.050000
endloop
endfacet
facet normal -0.243359 0.969936 0.000000
outer loop
vertex 12.492744 8.061420 0.050000
vertex 12.492744 8.061420 0.100000
vertex 12.495124 8.062017 0.100000
endloop
endfacet
facet normal -0.243588 0.969879 0.000023
outer loop
vertex 12.492744 8.061420 0.050000
vertex 12.495124 8.062017 0.100000
vertex 12.495123 8.062017 0.050000
endloop
endfacet
facet normal -0.243588 0.969879 0.000000
outer loop
vertex 12.492744 8.061420 0.000000
vertex 12.492744 8.061420 0.050000
vertex 12.495123 8.062017 0.050000
endloop
endfacet
facet normal -0.243359 0.969936 -0.000023
outer loop
vertex 12.492744 8.061420 0.000000
vertex 12.495123 8.062017 0.050000
vertex 12.495124 8.062017 0.000000
endloop
endfacet
facet normal -0.146535 0.989206 0.000000
outer loop
vertex 12.495124 8.062017 0.000000
vertex 12.495123 8.062017 0.050000
vertex 12.497550 8.062377 0.050000
endloop
endfacet
facet normal -0.146535 0.989206 0.000000
outer loop
vertex 12.495124 8.062017 0.000000
vertex 12.497550 8.062377 0.050000
vertex 12.497550 8.062377 0.000000
endloop
endfacet
facet normal -0.146535 0.989206 0.000000
outer loop
vertex 12.495123 8.062017 0.050000
vertex 12.495124 8.062017 0.100000
vertex 12.497550 8.062377 0.100000
endloop
endfacet
facet normal -0.146535 0.989206 0.000000
outer loop
vertex 12.495123 8.062017 0.050000
vertex 12.497550 8.062377 0.100000
vertex 12.497550 8.062377 0.050000
endloop
endfacet
facet normal -0.049356 0.998781 0.000000
outer loop
vertex 12.497550 8.062377 0.050000
vertex 12.497550 8.062377 0.100000
vertex 12.500000 8.062498 0.100000
endloop
endfacet
facet normal -0.049404 0.998779 0.000000
outer loop
vertex 12.497550 8.062377 0.050000
vertex 12.500000 8.062498 0.100000
vertex 12.500000 8.062498 0.050000
endloop
endfacet
facet normal -0.049356 0.998781 0.000000
outer loop
vertex 12.497550 8.062377 0.000000
vertex 12.497550 8.062377 0.050000
vertex 12.500000 8.062498 0.050000
endloop
endfacet
facet normal -0.049404 0.998779 0.000000
outer loop
vertex 12.497550 8.062377 0.000000
vertex 12.500000 8.062498 0.050000
vertex 12.500000 8.062498 0.000000
endloop
endfacet
facet normal 0.000000 0.000000 -1.000000
outer loop
vertex 12.500000 8.062500 0.000000
vertex 12.502450 8.062377 0.000000
vertex 12.500001 8.037501 0.000000
endloop
endfacet
facet normal 0.000000 0.000000 -1.000000
outer loop
vertex 12.500000 8.062500 0.000000
vertex 12.500001 8.037501 0.000000
vertex 12.497550 8.062377 0.000000
endloop
endfacet
facet normal 0.000000 0.000000 -1.000000
outer loop
vertex 12.504878 8.062020 0.000000
vertex 12.507257 8.061420 0.000000
vertex 12.500001 8.037501 0.000000
endloop
endfacet
facet normal 0.000000 0.000000 -1.000000
outer loop
vertex 12.504878 8.062020 0.000000
vertex 12.500001 8.037501 0.000000
vertex 12.502450 8.062377 0.000000
endloop
endfacet
facet normal 0.000000 0.000000 -1.000000
outer loop
vertex 12.509567 8.060596 0.000000
vertex 12.511784 8.059546 0.000000
vertex 12.500001 8.037501 0.000000
endloop
endfacet
facet normal 0.000000 0.000000 -1.000000
outer loop
vertex 12.509567 8.060596 0.000000
vertex 12.500001 8.037501 0.000000
vertex 12.507257 8.061420 0.000000
endloop
endfacet
facet normal 0.000000 0.000000 -1.000000
outer loop
vertex 12.513889 8.058287 0.000000
vertex 12.515858 8.056824 0.000000
vertex 12.500001 8.037501 0.000000
endloop
endfacet
facet normal 0.000000 0.000000 -1.000000
outer loop
vertex 12.513889 8.058287 0.000000
vertex 12.500001 8.037501 0.000000
vertex 12.511784 8.059546 0.000000
endloop
endfacet
facet normal 0.000000 0.000000 -1.000000
outer loop
vertex 12.517678 8.055178 0.000000
vertex 12.519324 8.053358 0.000000
vertex 12.500001 8.037501 0.000000
endloop
endfacet
facet normal 0.000000 0.000000 -1.000000
outer loop
vertex 12.517678 8.055178 0.000000
vertex 12.500001 8.037501 0.000000
vertex 12.515858 8.056824 0.000000
endloop
endfacet
facet normal 0.000000 0.000000 -1.000000
outer loop
vertex 12.520787 8.051389 0.000000
vertex 12.522046 8.049284 0.000000
vertex 12.500001 8.037501 0.000000
endloop
endfacet
facet normal 0.000000 0.000000 -1.000000
outer loop
vertex 12.520787 8.051389 0.000000
vertex 12.500001 8.037501 0.000000
vertex 12.519324 8.053358 0.000000
endloop
endfacet
facet normal 0.000000 0.000000 -1.000000
outer loop
vertex 12.523097 8.047067 0.000000
vertex 12.523921 8.044757 0.000000
vertex 12.500001 8.037501 0.000000
endloop
endfacet
facet normal 0.000000 0.000000 -1.000000
outer loop
vertex 12.523097 8.047067 0.000000
vertex 12.500001 8.037501 0.000000
vertex 12.522046 8.049284 0.000000
endloop
endfacet
facet normal 0.000000 0.000000 -1.000000
outer loop
vertex 12.524520 8.042377 0.000000
vertex 12.524878 8.039949 0.000000
vertex 12.500001 8.037501 0.000000
endloop
endfacet
facet normal 0.000000 0.000000 -1.000000
outer loop
vertex 12.524520 8.042377 0.000000
vertex 12.500001 8.037501 0.000000
vertex 12.523921 8.044757 0.000000
endloop
endfacet
facet normal 0.000000 0.000000 -1.000000
outer loop
vertex 12.525000 8.037500 0.000000
vertex 12.524878 8.035049 0.000000
vertex 12.500001 8.037501 0.000000
endloop
endfacet
facet normal 0.000000 0.000000 -1.000000
outer loop
vertex 12.525000 8.037500 0.000000
vertex 12.500001 8.037501 0.000000
vertex 12.524878 8.039949 0.000000
endloop
endfacet
facet normal 0.000000 0.000000 -1.000000
outer loop
vertex 12.524520 8.032623 0.000000
vertex 12.523921 8.030244 0.000000
vertex 12.500001 8.037501 0.000000
endloop
endfacet
facet normal 0.000000 0.000000 -1.000000
outer loop
vertex 12.524520 8.032623 0.000000
vertex 12.500001 8.037501 0.000000
vertex 12.524878 8.035049 0.000000
endloop
endfacet
facet normal 0.000000 0.000000 -1.000000
outer loop
vertex 12.523097 8.027933 0.000000
vertex 12.522046 8.025716 0.000000
vertex 12.500001 8.037501 0.000000
endloop
endfacet
facet normal 0.000000 0.000000 -1.000000
outer loop
vertex 12.523097 8.027933 0.000000
vertex 12.500001 8.037501 0.000000
vertex 12.523921 8.030244 0.000000
endloop
endfacet
facet normal 0.000000 0.000000 -1.000000
outer loop
vertex 12.520787 8.023611 0.000000
vertex 12.519324 8.021642 0.000000
vertex 12.500001 8.037501 0.000000
endloop
endfacet
facet normal 0.000000 0.000000 -1.000000
outer loop
vertex 12.520787 8.023611 0.000000
vertex 12.500001 8.037501 0.000000
vertex 12.522046 8.025716 0.000000
endloop
endfacet
facet normal 0.000000 0.000000 -1.000000
outer loop
vertex 12.517678 8.019823 0.000000
vertex 12.515858 8.018177 0.000000
vertex 12.500001 8.037501 0.000000
endloop
endfacet
facet normal 0.000000 0.000000 -1.000000
outer loop
vertex 12.517678 8.019823 0.000000
vertex 12.500001 8.037501 0.000000
vertex 12.519324 8.021642 0.000000
endloop
endfacet
facet normal 0.000000 0.000000 -1.000000
outer loop
vertex 12.513889 8.016713 0.000000
vertex 12.511784 8.015454 0.000000
vertex 12.500001 8.037501 0.000000
endloop
endfacet
facet normal 0.000000 0.000000 -1.000000
outer loop
vertex 12.513889 8.016713 0.000000
vertex 12.500001 8.037501 0.000000
vertex 12.515858 8.018177 0.000000
endloop
endfacet
facet normal 0.000000 0.000000 -1.000000
outer loop
vertex 12.509567 8.014403 0.000000
vertex 12.507257 8.013578 0.000000
vertex 12.500001 8.037501 0.000000
endloop
endfacet
facet normal 0.000000 0.000000 -1.000000
outer loop
vertex 12.509567 8.014403 0.000000
vertex 12.500001 8.037501 0.000000
vertex 12.511784 8.015454 0.000000
endloop
endfacet
facet normal 0.000000 0.000000 -1.000000
outer loop
vertex 12.504878 8.012981 0.000000
vertex 12.502450 8.012623 0.000000
vertex 12.500001 8.037501 0.000000
endloop
endfacet
facet normal 0.000000 0.000000 -1.000000
outer loop
vertex 12.504878 8.012981 0.000000
vertex 12.500001 8.037501 0.000000
vertex 12.507257 8.013578 0.000000
endloop
endfacet
facet normal 0.000000 0.000000 -1.000000
outer loop
vertex 12.500000 8.012500 0.000000
vertex 12.497550 8.012623 0.000000
vertex 12.500001 8.037501 0.000000
endloop
endfacet
facet normal 0.000000 0.000000 -1.000000
outer loop
vertex 12.500000 8.012500 0.000000
vertex 12.500001 8.037501 0.000000
vertex 12.502450 8.012623 0.000000
endloop
endfacet
facet normal 0.000000 0.000000 -1.000000
outer loop
vertex 12.495123 8.012981 0.000000
vertex 12.492744 8.013578 0.000000
vertex 12.500001 8.037501 0.000000
endloop
endfacet
facet normal 0.000000 0.000000 -1.000000
outer loop
vertex 12.495123 8.012981 0.000000
vertex 12.500001 8.037501 0.000000
vertex 12.497550 8.012623 0.000000
endloop
endfacet
facet normal 0.000000 0.000000 -1.000000
outer loop
vertex 12.490433 8.014403 0.000000
vertex 12.488216 8.015454 0.000000
vertex 12.500001 8.037501 0.000000
endloop
endfacet
facet normal 0.000000 0.000000 -1.000000
outer loop
vertex 12.490433 8.014403 0.000000
vertex 12.500001 8.037501 0.000000
vertex 12.492744 8.013578 0.000000
endloop
endfacet
facet normal 0.000000 0.000000 -1.000000
outer loop
vertex 12.486111 8.016713 0.000000
vertex 12.484142 8.018177 0.000000
vertex 12.500001 8.037501 0.000000
endloop
endfacet
facet normal 0.000000 0.000000 -1.000000
outer loop
vertex 12.486111 8.016713 0.000000
vertex 12.500001 8.037501 0.000000
vertex 12.488216 8.015454 0.000000
endloop
endfacet
facet normal 0.000000 0.000000 -1.000000
outer loop
vertex 12.482323 8.019823 0.000000
vertex 12.480677 8.021642 0.000000
vertex 12.500001 8.037501 0.000000
endloop
endfacet
facet normal 0.000000 0.000000 -1.000000
outer loop
vertex 12.482323 8.019823 0.000000
vertex 12.500001 8.037501 0.000000
vertex 12.484142 8.018177 0.000000
endloop
endfacet
facet normal 0.000000 0.000000 -1.000000
outer loop
vertex 12.479213 8.023611 0.000000
vertex 12.477954 8.025717 0.000000
vertex 12.500001 8.037501 0.000000
endloop
endfacet
facet normal 0.000000 0.000000 -1.000000
outer loop
vertex 12.479213 8.023611 0.000000
vertex 12.500001 8.037501 0.000000
vertex 12.480677 8.021642 0.000000
endloop
endfacet
facet normal 0.000000 0.000000 -1.000000
outer loop
vertex 12.476903 8.027933 0.000000
vertex 12.476079 8.030244 0.000000
vertex 12.500001 8.037501 0.000000
endloop
endfacet
facet normal 0.000000 0.000000 -1.000000
outer loop
vertex 12.476903 8.027933 0.000000
vertex 12.500001 8.037501 0.000000
vertex 12.477954 8.025717 0.000000
endloop
endfacet
facet normal 0.000000 0.000000 -1.000000
outer loop
vertex 12.475481 8.032623 0.000000
vertex 12.475122 8.035049 0.000000
vertex 12.500001 8.037501 0.000000
endloop
endfacet
facet normal 0.000000 0.000000 -1.000000
outer loop
vertex 12.475481 8.032623 0.000000
vertex 12.500001 8.037501 0.000000
vertex 12.476079 8.030244 0.000000
endloop
endfacet
facet normal 0.000000 0.000000 -1.000000
outer loop
vertex 12.475000 8.037500 0.000000
vertex 12.475122 8.039949 0.000000
vertex 12.500001 8.037501 0.000000
endloop
endfacet
facet normal 0.000000 0.000000 -1.000000
outer loop
vertex 12.475000 8.037500 0.000000
vertex 12.500001 8.037501 0.000000
vertex 12.475122 8.035049 0.000000
endloop
endfacet
facet normal 0.000000 0.000000 -1.000000
outer loop
vertex 12.475481 8.042377 0.000000
vertex 12.476079 8.044757 0.000000
vertex 12.500001 8.037501 0.000000
endloop
endfacet
facet normal 0.000000 0.000000 -1.000000
outer loop
vertex 12.475481 8.042377 0.000000
vertex 12.500001 8.037501 0.000000
vertex 12.475122 8.039949 0.000000
endloop
endfacet
facet normal 0.000000 0.000000 -1.000000
outer loop
vertex 12.476903 8.047067 0.000000
vertex 12.477954 8.049284 0.000000
vertex 12.500001 8.037501 0.000000
endloop
endfacet
facet normal 0.000000 0.000000 -1.000000
outer loop
vertex 12.476903 8.047067 0.000000
vertex 12.500001 8.037501 0.000000
vertex 12.476079 8.044757 0.000000
endloop
endfacet
facet normal 0.000000 0.000000 -1.000000
outer loop
vertex 12.479213 8.051389 0.000000
vertex 12.480677 8.053358 0.000000
vertex 12.500001 8.037501 0.000000
endloop
endfacet
facet normal 0.000000 0.000000 -1.000000
outer loop
vertex 12.479213 8.051389 0.000000
vertex 12.500001 8.037501 0.000000
vertex 12.477954 8.049284 0.000000
endloop
endfacet
facet normal 0.000000 0.000000 -1.000000
outer loop
vertex 12.482323 8.055178 0.000000
vertex 12.484142 8.056824 0.000000
vertex 12.500001 8.037501 0.000000
endloop
endfacet
facet normal 0.000000 0.000000 -1.000000
outer loop
vertex 12.482323 8.055178 0.000000
vertex 12.500001 8.037501 0.000000
vertex 12.480677 8.053358 0.000000
endloop
endfacet
facet normal 0.000000 0.000000 -1.000000
outer loop
vertex 12.486111 8.058287 0.000000
vertex 12.488217 8.059546 0.000000
vertex 12.500001 8.037501 0.000000
endloop
endfacet
facet normal 0.000000 0.000000 -1.000000
outer loop
vertex 12.486111 8.058287 0.000000
vertex 12.500001 8.037501 0.000000
vertex 12.484142 8.056824 0.000000
endloop
endfacet
facet normal 0.000000 0.000000 -1.000000
outer loop
vertex 12.490433 8.060596 0.000000
vertex 12.492744 8.061420 0.000000
vertex 12.500001 8.037501 0.000000
endloop
endfacet
facet normal 0.000000 0.000000 -1.000000
outer loop
vertex 12.490433 8.060596 0.000000
vertex 12.500001 8.037501 0.000000
vertex 12.488217 8.059546 0.000000
endloop
endfacet
facet normal 0.000000 0.000000 -1.000000
outer loop
vertex 12.495123 8.062020 0.000000
vertex 12.497550 8.062377 0.000000
vertex 12.500001 8.037501 0.000000
endloop
endfacet
facet normal 0.000000 0.000000 -1.000000
outer loop
vertex 12.495123 8.062020 0.000000
vertex 12.500001 8.037501 0.000000
vertex 12.492744 8.061420 0.000000
endloop
endfacet
endsolid Exported from Blender-2.82 (sub 7)
