solid Exported from Blender-2.82 (sub 7)
facet normal 0.049356 0.998781 0.000000
outer loop
vertex 8.461940 7.833658 0.000000
vertex 8.461940 7.833658 0.050000
vertex 8.464390 7.833537 0.050000
endloop
endfacet
facet normal 0.049380 0.998780 0.000000
outer loop
vertex 8.461940 7.833658 0.000000
vertex 8.464390 7.833537 0.050000
vertex 8.464390 7.833537 0.000000
endloop
endfacet
facet normal 0.049356 0.998781 0.000000
outer loop
vertex 8.461940 7.833658 0.050000
vertex 8.461940 7.833658 0.100000
vertex 8.464390 7.833537 0.100000
endloop
endfacet
facet normal 0.049380 0.998780 0.000000
outer loop
vertex 8.461940 7.833658 0.050000
vertex 8.464390 7.833537 0.100000
vertex 8.464390 7.833537 0.050000
endloop
endfacet
facet normal 0.146795 0.989167 0.000000
outer loop
vertex 8.464390 7.833537 0.050000
vertex 8.464390 7.833537 0.100000
vertex 8.466817 7.833177 0.100000
endloop
endfacet
facet normal 0.146654 0.989188 0.000000
outer loop
vertex 8.464390 7.833537 0.050000
vertex 8.466817 7.833177 0.100000
vertex 8.466817 7.833177 0.050000
endloop
endfacet
facet normal 0.146795 0.989167 0.000000
outer loop
vertex 8.464390 7.833537 0.000000
vertex 8.464390 7.833537 0.050000
vertex 8.466817 7.833177 0.050000
endloop
endfacet
facet normal 0.146654 0.989188 0.000000
outer loop
vertex 8.464390 7.833537 0.000000
vertex 8.466817 7.833177 0.050000
vertex 8.466817 7.833177 0.000000
endloop
endfacet
facet normal 0.243474 0.969908 0.000000
outer loop
vertex 8.466817 7.833177 0.000000
vertex 8.466817 7.833177 0.050000
vertex 8.469196 7.832580 0.050000
endloop
endfacet
facet normal 0.243244 0.969965 0.000000
outer loop
vertex 8.466817 7.833177 0.000000
vertex 8.469196 7.832580 0.050000
vertex 8.469196 7.832580 0.000000
endloop
endfacet
facet normal 0.243474 0.969908 0.000000
outer loop
vertex 8.466817 7.833177 0.050000
vertex 8.466817 7.833177 0.100000
vertex 8.469196 7.832580 0.100000
endloop
endfacet
facet normal 0.243244 0.969965 0.000000
outer loop
vertex 8.466817 7.833177 0.050000
vertex 8.469196 7.832580 0.100000
vertex 8.469196 7.832580 0.050000
endloop
endfacet
facet normal 0.337100 0.941469 0.000000
outer loop
vertex 8.469196 7.832580 0.050000
vertex 8.469196 7.832580 0.100000
vertex 8.471505 7.831754 0.100000
endloop
endfacet
facet normal 0.336946 0.941524 0.000000
outer loop
vertex 8.469196 7.832580 0.050000
vertex 8.471505 7.831754 0.100000
vertex 8.471505 7.831754 0.050000
endloop
endfacet
facet normal 0.337100 0.941469 0.000000
outer loop
vertex 8.469196 7.832580 0.000000
vertex 8.469196 7.832580 0.050000
vertex 8.471505 7.831754 0.050000
endloop
endfacet
facet normal 0.336946 0.941524 0.000000
outer loop
vertex 8.469196 7.832580 0.000000
vertex 8.471505 7.831754 0.050000
vertex 8.471505 7.831754 0.000000
endloop
endfacet
facet normal 0.427004 0.904250 0.000000
outer loop
vertex 8.471505 7.831754 0.000000
vertex 8.471505 7.831754 0.050000
vertex 8.473724 7.830706 0.050000
endloop
endfacet
facet normal 0.426629 0.904427 0.000000
outer loop
vertex 8.471505 7.831754 0.000000
vertex 8.473724 7.830706 0.050000
vertex 8.473724 7.830706 0.000000
endloop
endfacet
facet normal 0.427004 0.904250 0.000000
outer loop
vertex 8.471505 7.831754 0.050000
vertex 8.471505 7.831754 0.100000
vertex 8.473724 7.830706 0.100000
endloop
endfacet
facet normal 0.426629 0.904427 0.000000
outer loop
vertex 8.471505 7.831754 0.050000
vertex 8.473724 7.830706 0.100000
vertex 8.473724 7.830706 0.050000
endloop
endfacet
facet normal 0.514853 0.857278 0.000000
outer loop
vertex 8.473724 7.830706 0.050000
vertex 8.473724 7.830706 0.100000
vertex 8.475826 7.829444 0.100000
endloop
endfacet
facet normal 0.514853 0.857278 0.000000
outer loop
vertex 8.473724 7.830706 0.050000
vertex 8.475826 7.829444 0.100000
vertex 8.475826 7.829444 0.050000
endloop
endfacet
facet normal 0.514853 0.857278 0.000000
outer loop
vertex 8.473724 7.830706 0.000000
vertex 8.473724 7.830706 0.050000
vertex 8.475826 7.829444 0.050000
endloop
endfacet
facet normal 0.514853 0.857278 0.000000
outer loop
vertex 8.473724 7.830706 0.000000
vertex 8.475826 7.829444 0.050000
vertex 8.475826 7.829444 0.000000
endloop
endfacet
facet normal 0.595608 0.803275 0.000000
outer loop
vertex 8.475826 7.829444 0.000000
vertex 8.475826 7.829444 0.050000
vertex 8.477798 7.827982 0.050000
endloop
endfacet
facet normal 0.595841 0.803102 0.000000
outer loop
vertex 8.475826 7.829444 0.000000
vertex 8.477798 7.827982 0.050000
vertex 8.477798 7.827982 0.000000
endloop
endfacet
facet normal 0.595608 0.803275 0.000000
outer loop
vertex 8.475826 7.829444 0.050000
vertex 8.475826 7.829444 0.100000
vertex 8.477798 7.827982 0.100000
endloop
endfacet
facet normal 0.595841 0.803102 0.000000
outer loop
vertex 8.475826 7.829444 0.050000
vertex 8.477798 7.827982 0.100000
vertex 8.477798 7.827982 0.050000
endloop
endfacet
facet normal 0.671404 0.741091 0.000000
outer loop
vertex 8.477798 7.827982 0.050000
vertex 8.477798 7.827982 0.100000
vertex 8.479614 7.826335 0.100000
endloop
endfacet
facet normal 0.671888 0.740653 0.000000
outer loop
vertex 8.477798 7.827982 0.050000
vertex 8.479614 7.826335 0.100000
vertex 8.479614 7.826335 0.050000
endloop
endfacet
facet normal 0.671404 0.741091 0.000000
outer loop
vertex 8.477798 7.827982 0.000000
vertex 8.477798 7.827982 0.050000
vertex 8.479614 7.826335 0.050000
endloop
endfacet
facet normal 0.671888 0.740653 0.000000
outer loop
vertex 8.477798 7.827982 0.000000
vertex 8.479614 7.826335 0.050000
vertex 8.479614 7.826335 0.000000
endloop
endfacet
facet normal 0.740533 0.672020 0.000000
outer loop
vertex 8.479614 7.826335 0.000000
vertex 8.479614 7.826335 0.050000
vertex 8.481263 7.824518 0.050000
endloop
endfacet
facet normal 0.740292 0.672286 0.000000
outer loop
vertex 8.479614 7.826335 0.000000
vertex 8.481263 7.824518 0.050000
vertex 8.481263 7.824518 0.000000
endloop
endfacet
facet normal 0.740533 0.672020 0.000000
outer loop
vertex 8.479614 7.826335 0.050000
vertex 8.479614 7.826335 0.100000
vertex 8.481263 7.824518 0.100000
endloop
endfacet
facet normal 0.740292 0.672286 0.000000
outer loop
vertex 8.479614 7.826335 0.050000
vertex 8.481263 7.824518 0.100000
vertex 8.481263 7.824518 0.050000
endloop
endfacet
facet normal 0.803764 0.594949 0.000000
outer loop
vertex 8.481263 7.824518 0.050000
vertex 8.481263 7.824518 0.100000
vertex 8.482723 7.822547 0.100000
endloop
endfacet
facet normal 0.803531 0.595262 0.000000
outer loop
vertex 8.481263 7.824518 0.050000
vertex 8.482723 7.822547 0.100000
vertex 8.482723 7.822547 0.050000
endloop
endfacet
facet normal 0.803764 0.594949 0.000000
outer loop
vertex 8.481263 7.824518 0.000000
vertex 8.481263 7.824518 0.050000
vertex 8.482723 7.822547 0.050000
endloop
endfacet
facet normal 0.803531 0.595262 0.000000
outer loop
vertex 8.481263 7.824518 0.000000
vertex 8.482723 7.822547 0.050000
vertex 8.482723 7.822547 0.000000
endloop
endfacet
facet normal 0.857364 0.514710 0.000000
outer loop
vertex 8.482723 7.822547 0.000000
vertex 8.482723 7.822547 0.050000
vertex 8.483986 7.820444 0.050000
endloop
endfacet
facet normal 0.857150 0.515067 0.000000
outer loop
vertex 8.482723 7.822547 0.000000
vertex 8.483986 7.820444 0.050000
vertex 8.483986 7.820444 0.000000
endloop
endfacet
facet normal 0.857364 0.514710 0.000000
outer loop
vertex 8.482723 7.822547 0.050000
vertex 8.482723 7.822547 0.100000
vertex 8.483986 7.820444 0.100000
endloop
endfacet
facet normal 0.857150 0.515067 0.000000
outer loop
vertex 8.482723 7.822547 0.050000
vertex 8.483986 7.820444 0.100000
vertex 8.483986 7.820444 0.050000
endloop
endfacet
facet normal 0.904078 0.427368 0.000000
outer loop
vertex 8.483986 7.820444 0.050000
vertex 8.483986 7.820444 0.100000
vertex 8.485035 7.818225 0.100000
endloop
endfacet
facet normal 0.904078 0.427368 0.000000
outer loop
vertex 8.483986 7.820444 0.050000
vertex 8.485035 7.818225 0.100000
vertex 8.485035 7.818225 0.050000
endloop
endfacet
facet normal 0.904078 0.427368 0.000000
outer loop
vertex 8.483986 7.820444 0.000000
vertex 8.483986 7.820444 0.050000
vertex 8.485035 7.818225 0.050000
endloop
endfacet
facet normal 0.904078 0.427368 0.000000
outer loop
vertex 8.483986 7.820444 0.000000
vertex 8.485035 7.818225 0.050000
vertex 8.485035 7.818225 0.000000
endloop
endfacet
facet normal 0.941654 0.336583 0.000000
outer loop
vertex 8.485035 7.818225 0.000000
vertex 8.485035 7.818225 0.050000
vertex 8.485861 7.815917 0.050000
endloop
endfacet
facet normal 0.941500 0.337014 0.000000
outer loop
vertex 8.485035 7.818225 0.000000
vertex 8.485861 7.815917 0.050000
vertex 8.485861 7.815917 0.000000
endloop
endfacet
facet normal 0.941654 0.336583 0.000000
outer loop
vertex 8.485035 7.818225 0.050000
vertex 8.485035 7.818225 0.100000
vertex 8.485861 7.815917 0.100000
endloop
endfacet
facet normal 0.941500 0.337014 0.000000
outer loop
vertex 8.485035 7.818225 0.050000
vertex 8.485861 7.815917 0.100000
vertex 8.485861 7.815917 0.050000
endloop
endfacet
facet normal 0.969925 0.243404 0.000000
outer loop
vertex 8.485861 7.815917 0.050000
vertex 8.485861 7.815917 0.100000
vertex 8.486458 7.813537 0.100000
endloop
endfacet
facet normal 0.969925 0.243404 0.000000
outer loop
vertex 8.485861 7.815917 0.050000
vertex 8.486458 7.813537 0.100000
vertex 8.486458 7.813537 0.050000
endloop
endfacet
facet normal 0.969925 0.243404 0.000000
outer loop
vertex 8.485861 7.815917 0.000000
vertex 8.485861 7.815917 0.050000
vertex 8.486458 7.813537 0.050000
endloop
endfacet
facet normal 0.969925 0.243404 0.000000
outer loop
vertex 8.485861 7.815917 0.000000
vertex 8.486458 7.813537 0.050000
vertex 8.486458 7.813537 0.000000
endloop
endfacet
facet normal 0.989186 0.146668 0.000000
outer loop
vertex 8.486458 7.813537 0.000000
vertex 8.486458 7.813537 0.050000
vertex 8.486818 7.811109 0.050000
endloop
endfacet
facet normal 0.989115 0.147143 0.000000
outer loop
vertex 8.486458 7.813537 0.000000
vertex 8.486818 7.811109 0.050000
vertex 8.486818 7.811109 0.000000
endloop
endfacet
facet normal 0.989186 0.146668 0.000000
outer loop
vertex 8.486458 7.813537 0.050000
vertex 8.486458 7.813537 0.100000
vertex 8.486818 7.811109 0.100000
endloop
endfacet
facet normal 0.989115 0.147143 0.000000
outer loop
vertex 8.486458 7.813537 0.050000
vertex 8.486818 7.811109 0.100000
vertex 8.486818 7.811109 0.050000
endloop
endfacet
facet normal 0.998841 0.048133 0.000000
outer loop
vertex 8.486818 7.811109 0.050000
vertex 8.486818 7.811109 0.100000
vertex 8.486938 7.808660 0.100000
endloop
endfacet
facet normal 0.998794 0.049103 0.000000
outer loop
vertex 8.486818 7.811109 0.050000
vertex 8.486938 7.808660 0.100000
vertex 8.486938 7.808660 0.050000
endloop
endfacet
facet normal 0.998841 0.048133 0.000000
outer loop
vertex 8.486818 7.811109 0.000000
vertex 8.486818 7.811109 0.050000
vertex 8.486938 7.808660 0.050000
endloop
endfacet
facet normal 0.998794 0.049103 0.000000
outer loop
vertex 8.486818 7.811109 0.000000
vertex 8.486938 7.808660 0.050000
vertex 8.486938 7.808660 0.000000
endloop
endfacet
facet normal 0.998795 -0.049084 0.000000
outer loop
vertex 8.486938 7.808660 0.000000
vertex 8.486938 7.808660 0.050000
vertex 8.486818 7.806210 0.050000
endloop
endfacet
facet normal 0.998842 -0.048115 0.000000
outer loop
vertex 8.486938 7.808660 0.000000
vertex 8.486818 7.806210 0.050000
vertex 8.486818 7.806210 0.000000
endloop
endfacet
facet normal 0.998795 -0.049084 0.000000
outer loop
vertex 8.486938 7.808660 0.050000
vertex 8.486938 7.808660 0.100000
vertex 8.486818 7.806210 0.100000
endloop
endfacet
facet normal 0.998842 -0.048115 0.000000
outer loop
vertex 8.486938 7.808660 0.050000
vertex 8.486818 7.806210 0.100000
vertex 8.486818 7.806210 0.050000
endloop
endfacet
facet normal 0.989098 -0.147257 0.000000
outer loop
vertex 8.486818 7.806210 0.050000
vertex 8.486818 7.806210 0.100000
vertex 8.486458 7.803784 0.100000
endloop
endfacet
facet normal 0.989169 -0.146781 0.000000
outer loop
vertex 8.486818 7.806210 0.050000
vertex 8.486458 7.803784 0.100000
vertex 8.486458 7.803784 0.050000
endloop
endfacet
facet normal 0.989098 -0.147257 0.000000
outer loop
vertex 8.486818 7.806210 0.000000
vertex 8.486818 7.806210 0.050000
vertex 8.486458 7.803784 0.050000
endloop
endfacet
facet normal 0.989169 -0.146781 0.000000
outer loop
vertex 8.486818 7.806210 0.000000
vertex 8.486458 7.803784 0.050000
vertex 8.486458 7.803784 0.000000
endloop
endfacet
facet normal 0.969925 -0.243404 0.000000
outer loop
vertex 8.486458 7.803784 0.000000
vertex 8.486458 7.803784 0.050000
vertex 8.485861 7.801404 0.050000
endloop
endfacet
facet normal 0.969925 -0.243404 0.000000
outer loop
vertex 8.486458 7.803784 0.000000
vertex 8.485861 7.801404 0.050000
vertex 8.485861 7.801404 0.000000
endloop
endfacet
facet normal 0.969925 -0.243404 0.000000
outer loop
vertex 8.486458 7.803784 0.050000
vertex 8.486458 7.803784 0.100000
vertex 8.485861 7.801404 0.100000
endloop
endfacet
facet normal 0.969925 -0.243404 0.000000
outer loop
vertex 8.486458 7.803784 0.050000
vertex 8.485861 7.801404 0.100000
vertex 8.485861 7.801404 0.050000
endloop
endfacet
facet normal 0.941588 -0.336767 0.000000
outer loop
vertex 8.485861 7.801404 0.050000
vertex 8.485861 7.801404 0.100000
vertex 8.485035 7.799094 0.100000
endloop
endfacet
facet normal 0.941742 -0.336336 0.000000
outer loop
vertex 8.485861 7.801404 0.050000
vertex 8.485035 7.799094 0.100000
vertex 8.485035 7.799094 0.050000
endloop
endfacet
facet normal 0.941588 -0.336767 0.000000
outer loop
vertex 8.485861 7.801404 0.000000
vertex 8.485861 7.801404 0.050000
vertex 8.485035 7.799094 0.050000
endloop
endfacet
facet normal 0.941742 -0.336336 0.000000
outer loop
vertex 8.485861 7.801404 0.000000
vertex 8.485035 7.799094 0.050000
vertex 8.485035 7.799094 0.000000
endloop
endfacet
facet normal 0.904007 -0.427518 0.000000
outer loop
vertex 8.485035 7.799094 0.000000
vertex 8.485035 7.799094 0.050000
vertex 8.483986 7.796876 0.050000
endloop
endfacet
facet normal 0.904007 -0.427518 0.000000
outer loop
vertex 8.485035 7.799094 0.000000
vertex 8.483986 7.796876 0.050000
vertex 8.483986 7.796876 0.000000
endloop
endfacet
facet normal 0.904007 -0.427518 0.000000
outer loop
vertex 8.485035 7.799094 0.050000
vertex 8.485035 7.799094 0.100000
vertex 8.483986 7.796876 0.100000
endloop
endfacet
facet normal 0.904007 -0.427518 0.000000
outer loop
vertex 8.485035 7.799094 0.050000
vertex 8.483986 7.796876 0.100000
vertex 8.483986 7.796876 0.050000
endloop
endfacet
facet normal 0.857253 -0.514896 0.000000
outer loop
vertex 8.483986 7.796876 0.050000
vertex 8.483986 7.796876 0.100000
vertex 8.482723 7.794772 0.100000
endloop
endfacet
facet normal 0.857467 -0.514539 0.000000
outer loop
vertex 8.483986 7.796876 0.050000
vertex 8.482723 7.794772 0.100000
vertex 8.482723 7.794772 0.050000
endloop
endfacet
facet normal 0.857253 -0.514896 0.000000
outer loop
vertex 8.483986 7.796876 0.000000
vertex 8.483986 7.796876 0.050000
vertex 8.482723 7.794772 0.050000
endloop
endfacet
facet normal 0.857467 -0.514539 0.000000
outer loop
vertex 8.483986 7.796876 0.000000
vertex 8.482723 7.794772 0.050000
vertex 8.482723 7.794772 0.000000
endloop
endfacet
facet normal 0.803394 -0.595448 0.000000
outer loop
vertex 8.482723 7.794772 0.000000
vertex 8.482723 7.794772 0.050000
vertex 8.481263 7.792802 0.050000
endloop
endfacet
facet normal 0.803626 -0.595134 0.000000
outer loop
vertex 8.482723 7.794772 0.000000
vertex 8.481263 7.792802 0.050000
vertex 8.481263 7.792802 0.000000
endloop
endfacet
facet normal 0.803394 -0.595448 0.000000
outer loop
vertex 8.482723 7.794772 0.050000
vertex 8.482723 7.794772 0.100000
vertex 8.481263 7.792802 0.100000
endloop
endfacet
facet normal 0.803626 -0.595134 0.000000
outer loop
vertex 8.482723 7.794772 0.050000
vertex 8.481263 7.792802 0.100000
vertex 8.481263 7.792802 0.050000
endloop
endfacet
facet normal 0.740467 -0.672093 0.000000
outer loop
vertex 8.481263 7.792802 0.050000
vertex 8.481263 7.792802 0.100000
vertex 8.479614 7.790984 0.100000
endloop
endfacet
facet normal 0.740709 -0.671826 0.000000
outer loop
vertex 8.481263 7.792802 0.050000
vertex 8.479614 7.790984 0.100000
vertex 8.479614 7.790984 0.050000
endloop
endfacet
facet normal 0.740467 -0.672092 0.000000
outer loop
vertex 8.481263 7.792802 0.000000
vertex 8.481263 7.792802 0.050000
vertex 8.479614 7.790984 0.050000
endloop
endfacet
facet normal 0.740709 -0.671826 0.000000
outer loop
vertex 8.481263 7.792802 0.000000
vertex 8.479614 7.790984 0.050000
vertex 8.479614 7.790984 0.000000
endloop
endfacet
facet normal 0.671888 -0.740653 0.000000
outer loop
vertex 8.479614 7.790984 0.000000
vertex 8.479614 7.790984 0.050000
vertex 8.477798 7.789337 0.050000
endloop
endfacet
facet normal 0.671404 -0.741091 0.000000
outer loop
vertex 8.479614 7.790984 0.000000
vertex 8.477798 7.789337 0.050000
vertex 8.477798 7.789337 0.000000
endloop
endfacet
facet normal 0.671888 -0.740653 0.000000
outer loop
vertex 8.479614 7.790984 0.050000
vertex 8.479614 7.790984 0.100000
vertex 8.477798 7.789337 0.100000
endloop
endfacet
facet normal 0.671404 -0.741091 0.000000
outer loop
vertex 8.479614 7.790984 0.050000
vertex 8.477798 7.789337 0.100000
vertex 8.477798 7.789337 0.050000
endloop
endfacet
facet normal 0.595590 -0.803289 0.000000
outer loop
vertex 8.477798 7.789337 0.050000
vertex 8.477798 7.789337 0.100000
vertex 8.475826 7.787876 0.100000
endloop
endfacet
facet normal 0.595358 -0.803461 0.000000
outer loop
vertex 8.477798 7.789337 0.050000
vertex 8.475826 7.787876 0.100000
vertex 8.475826 7.787876 0.050000
endloop
endfacet
facet normal 0.595590 -0.803289 0.000000
outer loop
vertex 8.477798 7.789337 0.000000
vertex 8.477798 7.789337 0.050000
vertex 8.475826 7.787876 0.050000
endloop
endfacet
facet normal 0.595358 -0.803461 0.000000
outer loop
vertex 8.477798 7.789337 0.000000
vertex 8.475826 7.787876 0.050000
vertex 8.475826 7.787876 0.000000
endloop
endfacet
facet normal 0.514853 -0.857278 0.000000
outer loop
vertex 8.475826 7.787876 0.000000
vertex 8.475826 7.787876 0.050000
vertex 8.473724 7.786614 0.050000
endloop
endfacet
facet normal 0.514567 -0.857450 -0.000030
outer loop
vertex 8.475826 7.787876 0.000000
vertex 8.473724 7.786614 0.050000
vertex 8.473724 7.786615 0.000000
endloop
endfacet
facet normal 0.514567 -0.857450 0.000000
outer loop
vertex 8.475826 7.787876 0.050000
vertex 8.475826 7.787876 0.100000
vertex 8.473724 7.786615 0.100000
endloop
endfacet
facet normal 0.514853 -0.857278 0.000030
outer loop
vertex 8.475826 7.787876 0.050000
vertex 8.473724 7.786615 0.100000
vertex 8.473724 7.786614 0.050000
endloop
endfacet
facet normal 0.427423 -0.904052 0.000000
outer loop
vertex 8.473724 7.786614 0.050000
vertex 8.473724 7.786615 0.100000
vertex 8.471505 7.785565 0.100000
endloop
endfacet
facet normal 0.427481 -0.904025 0.000000
outer loop
vertex 8.473724 7.786614 0.050000
vertex 8.471505 7.785565 0.100000
vertex 8.471505 7.785565 0.050000
endloop
endfacet
facet normal 0.427105 -0.904202 0.000000
outer loop
vertex 8.473724 7.786615 0.000000
vertex 8.473724 7.786614 0.050000
vertex 8.471505 7.785565 0.050000
endloop
endfacet
facet normal 0.427798 -0.903874 0.000000
outer loop
vertex 8.473724 7.786615 0.000000
vertex 8.471505 7.785565 0.050000
vertex 8.471505 7.785565 0.000000
endloop
endfacet
facet normal 0.336774 -0.941586 0.000000
outer loop
vertex 8.471505 7.785565 0.000000
vertex 8.471505 7.785565 0.050000
vertex 8.469196 7.784739 0.050000
endloop
endfacet
facet normal 0.336928 -0.941531 0.000000
outer loop
vertex 8.471505 7.785565 0.000000
vertex 8.469196 7.784739 0.050000
vertex 8.469196 7.784739 0.000000
endloop
endfacet
facet normal 0.336774 -0.941586 0.000000
outer loop
vertex 8.471505 7.785565 0.050000
vertex 8.471505 7.785565 0.100000
vertex 8.469196 7.784739 0.100000
endloop
endfacet
facet normal 0.336928 -0.941531 0.000000
outer loop
vertex 8.471505 7.785565 0.050000
vertex 8.469196 7.784739 0.100000
vertex 8.469196 7.784739 0.050000
endloop
endfacet
facet normal 0.242878 -0.970057 0.000000
outer loop
vertex 8.469196 7.784739 0.050000
vertex 8.469196 7.784739 0.100000
vertex 8.466817 7.784143 0.100000
endloop
endfacet
facet normal 0.243108 -0.969999 0.000000
outer loop
vertex 8.469196 7.784739 0.050000
vertex 8.466817 7.784143 0.100000
vertex 8.466817 7.784143 0.050000
endloop
endfacet
facet normal 0.242878 -0.970057 0.000000
outer loop
vertex 8.469196 7.784739 0.000000
vertex 8.469196 7.784739 0.050000
vertex 8.466817 7.784143 0.050000
endloop
endfacet
facet normal 0.243108 -0.969999 0.000000
outer loop
vertex 8.469196 7.784739 0.000000
vertex 8.466817 7.784143 0.050000
vertex 8.466817 7.784143 0.000000
endloop
endfacet
facet normal 0.146654 -0.989188 0.000000
outer loop
vertex 8.466817 7.784143 0.000000
vertex 8.466817 7.784143 0.050000
vertex 8.464390 7.783783 0.050000
endloop
endfacet
facet normal 0.146795 -0.989167 0.000000
outer loop
vertex 8.466817 7.784143 0.000000
vertex 8.464390 7.783783 0.050000
vertex 8.464390 7.783783 0.000000
endloop
endfacet
facet normal 0.146654 -0.989188 0.000000
outer loop
vertex 8.466817 7.784143 0.050000
vertex 8.466817 7.784143 0.100000
vertex 8.464390 7.783783 0.100000
endloop
endfacet
facet normal 0.146795 -0.989167 0.000000
outer loop
vertex 8.466817 7.784143 0.050000
vertex 8.464390 7.783783 0.100000
vertex 8.464390 7.783783 0.050000
endloop
endfacet
facet normal 0.048992 -0.998799 0.000000
outer loop
vertex 8.464390 7.783783 0.050000
vertex 8.464390 7.783783 0.100000
vertex 8.461940 7.783663 0.100000
endloop
endfacet
facet normal 0.048968 -0.998800 0.000000
outer loop
vertex 8.464390 7.783783 0.050000
vertex 8.461940 7.783663 0.100000
vertex 8.461940 7.783663 0.050000
endloop
endfacet
facet normal 0.048992 -0.998799 0.000000
outer loop
vertex 8.464390 7.783783 0.000000
vertex 8.464390 7.783783 0.050000
vertex 8.461940 7.783663 0.050000
endloop
endfacet
facet normal 0.048968 -0.998800 0.000000
outer loop
vertex 8.464390 7.783783 0.000000
vertex 8.461940 7.783663 0.050000
vertex 8.461940 7.783663 0.000000
endloop
endfacet
facet normal -0.048968 -0.998800 0.000000
outer loop
vertex 8.461940 7.783663 0.000000
vertex 8.461940 7.783663 0.050000
vertex 8.459490 7.783783 0.050000
endloop
endfacet
facet normal -0.049016 -0.998798 0.000000
outer loop
vertex 8.461940 7.783663 0.000000
vertex 8.459490 7.783783 0.050000
vertex 8.459490 7.783783 0.000000
endloop
endfacet
facet normal -0.048968 -0.998800 0.000000
outer loop
vertex 8.461940 7.783663 0.050000
vertex 8.461940 7.783663 0.100000
vertex 8.459490 7.783783 0.100000
endloop
endfacet
facet normal -0.049016 -0.998798 0.000000
outer loop
vertex 8.461940 7.783663 0.050000
vertex 8.459490 7.783783 0.100000
vertex 8.459490 7.783783 0.050000
endloop
endfacet
facet normal -0.146795 -0.989167 0.000000
outer loop
vertex 8.459490 7.783783 0.050000
vertex 8.459490 7.783783 0.100000
vertex 8.457064 7.784143 0.100000
endloop
endfacet
facet normal -0.146795 -0.989167 0.000000
outer loop
vertex 8.459490 7.783783 0.050000
vertex 8.457064 7.784143 0.100000
vertex 8.457064 7.784143 0.050000
endloop
endfacet
facet normal -0.146795 -0.989167 0.000000
outer loop
vertex 8.459490 7.783783 0.000000
vertex 8.459490 7.783783 0.050000
vertex 8.457064 7.784143 0.050000
endloop
endfacet
facet normal -0.146795 -0.989167 0.000000
outer loop
vertex 8.459490 7.783783 0.000000
vertex 8.457064 7.784143 0.050000
vertex 8.457064 7.784143 0.000000
endloop
endfacet
facet normal -0.242878 -0.970057 0.000000
outer loop
vertex 8.457064 7.784143 0.000000
vertex 8.457064 7.784143 0.050000
vertex 8.454683 7.784739 0.050000
endloop
endfacet
facet normal -0.242878 -0.970057 0.000000
outer loop
vertex 8.457064 7.784143 0.000000
vertex 8.454683 7.784739 0.050000
vertex 8.454683 7.784739 0.000000
endloop
endfacet
facet normal -0.242878 -0.970057 0.000000
outer loop
vertex 8.457064 7.784143 0.050000
vertex 8.457064 7.784143 0.100000
vertex 8.454683 7.784739 0.100000
endloop
endfacet
facet normal -0.242878 -0.970057 0.000000
outer loop
vertex 8.457064 7.784143 0.050000
vertex 8.454683 7.784739 0.100000
vertex 8.454683 7.784739 0.050000
endloop
endfacet
facet normal -0.336964 -0.941518 0.000000
outer loop
vertex 8.454683 7.784739 0.050000
vertex 8.454683 7.784739 0.100000
vertex 8.452374 7.785566 0.100000
endloop
endfacet
facet normal -0.337118 -0.941462 0.000000
outer loop
vertex 8.454683 7.784739 0.050000
vertex 8.452374 7.785566 0.100000
vertex 8.452374 7.785566 0.050000
endloop
endfacet
facet normal -0.336964 -0.941518 0.000000
outer loop
vertex 8.454683 7.784739 0.000000
vertex 8.454683 7.784739 0.050000
vertex 8.452374 7.785566 0.050000
endloop
endfacet
facet normal -0.337118 -0.941462 0.000000
outer loop
vertex 8.454683 7.784739 0.000000
vertex 8.452374 7.785566 0.050000
vertex 8.452374 7.785566 0.000000
endloop
endfacet
facet normal -0.427539 -0.903997 0.000000
outer loop
vertex 8.452374 7.785566 0.000000
vertex 8.452374 7.785566 0.050000
vertex 8.450156 7.786614 0.050000
endloop
endfacet
facet normal -0.427481 -0.904025 -0.000030
outer loop
vertex 8.452374 7.785566 0.000000
vertex 8.450156 7.786614 0.050000
vertex 8.450156 7.786615 0.000000
endloop
endfacet
facet normal -0.427856 -0.903847 0.000000
outer loop
vertex 8.452374 7.785566 0.050000
vertex 8.452374 7.785566 0.100000
vertex 8.450156 7.786615 0.100000
endloop
endfacet
facet normal -0.427163 -0.904175 0.000030
outer loop
vertex 8.452374 7.785566 0.050000
vertex 8.450156 7.786615 0.100000
vertex 8.450156 7.786614 0.050000
endloop
endfacet
facet normal -0.514138 -0.857707 0.000030
outer loop
vertex 8.450156 7.786614 0.050000
vertex 8.450156 7.786615 0.100000
vertex 8.448051 7.787876 0.100000
endloop
endfacet
facet normal -0.514210 -0.857664 0.000000
outer loop
vertex 8.450156 7.786614 0.050000
vertex 8.448051 7.787876 0.100000
vertex 8.448051 7.787876 0.050000
endloop
endfacet
facet normal -0.514424 -0.857536 -0.000030
outer loop
vertex 8.450156 7.786615 0.000000
vertex 8.450156 7.786614 0.050000
vertex 8.448051 7.787876 0.050000
endloop
endfacet
facet normal -0.513924 -0.857836 0.000000
outer loop
vertex 8.450156 7.786615 0.000000
vertex 8.448051 7.787876 0.050000
vertex 8.448051 7.787876 0.000000
endloop
endfacet
facet normal -0.595823 -0.803116 0.000000
outer loop
vertex 8.448051 7.787876 0.000000
vertex 8.448051 7.787876 0.050000
vertex 8.446082 7.789337 0.050000
endloop
endfacet
facet normal -0.595823 -0.803116 0.000000
outer loop
vertex 8.448051 7.787876 0.000000
vertex 8.446082 7.789337 0.050000
vertex 8.446082 7.789337 0.000000
endloop
endfacet
facet normal -0.595823 -0.803116 0.000000
outer loop
vertex 8.448051 7.787876 0.050000
vertex 8.448051 7.787876 0.100000
vertex 8.446082 7.789337 0.100000
endloop
endfacet
facet normal -0.595823 -0.803116 0.000000
outer loop
vertex 8.448051 7.787876 0.050000
vertex 8.446082 7.789337 0.100000
vertex 8.446082 7.789337 0.050000
endloop
endfacet
facet normal -0.671404 -0.741091 0.000000
outer loop
vertex 8.446082 7.789337 0.050000
vertex 8.446082 7.789337 0.100000
vertex 8.444263 7.790984 0.100000
endloop
endfacet
facet normal -0.670921 -0.741529 0.000000
outer loop
vertex 8.446082 7.789337 0.050000
vertex 8.444263 7.790984 0.100000
vertex 8.444263 7.790984 0.050000
endloop
endfacet
facet normal -0.671404 -0.741091 0.000000
outer loop
vertex 8.446082 7.789337 0.000000
vertex 8.446082 7.789337 0.050000
vertex 8.444263 7.790984 0.050000
endloop
endfacet
facet normal -0.670921 -0.741529 0.000000
outer loop
vertex 8.446082 7.789337 0.000000
vertex 8.444263 7.790984 0.050000
vertex 8.444263 7.790984 0.000000
endloop
endfacet
facet normal -0.740951 -0.671559 0.000000
outer loop
vertex 8.444263 7.790984 0.000000
vertex 8.444263 7.790984 0.050000
vertex 8.442616 7.792802 0.050000
endloop
endfacet
facet normal -0.741193 -0.671293 0.000000
outer loop
vertex 8.444263 7.790984 0.000000
vertex 8.442616 7.792802 0.050000
vertex 8.442616 7.792802 0.000000
endloop
endfacet
facet normal -0.740951 -0.671559 0.000000
outer loop
vertex 8.444263 7.790984 0.050000
vertex 8.444263 7.790984 0.100000
vertex 8.442616 7.792802 0.100000
endloop
endfacet
facet normal -0.741193 -0.671292 0.000000
outer loop
vertex 8.444263 7.790984 0.050000
vertex 8.442616 7.792802 0.100000
vertex 8.442616 7.792802 0.050000
endloop
endfacet
facet normal -0.803394 -0.595448 0.000000
outer loop
vertex 8.442616 7.792802 0.050000
vertex 8.442616 7.792802 0.100000
vertex 8.441155 7.794772 0.100000
endloop
endfacet
facet normal -0.803299 -0.595576 0.000000
outer loop
vertex 8.442616 7.792802 0.050000
vertex 8.441155 7.794772 0.100000
vertex 8.441155 7.794773 0.050000
endloop
endfacet
facet normal -0.803531 -0.595262 0.000000
outer loop
vertex 8.442616 7.792802 0.000000
vertex 8.442616 7.792802 0.050000
vertex 8.441155 7.794773 0.050000
endloop
endfacet
facet normal -0.803161 -0.595762 0.000000
outer loop
vertex 8.442616 7.792802 0.000000
vertex 8.441155 7.794773 0.050000
vertex 8.441155 7.794772 0.000000
endloop
endfacet
facet normal -0.857579 -0.514353 0.000015
outer loop
vertex 8.441155 7.794772 0.000000
vertex 8.441155 7.794773 0.050000
vertex 8.439894 7.796876 0.050000
endloop
endfacet
facet normal -0.857570 -0.514367 -0.000030
outer loop
vertex 8.441155 7.794772 0.000000
vertex 8.439894 7.796876 0.050000
vertex 8.439895 7.796877 0.000000
endloop
endfacet
facet normal -0.857784 -0.514010 -0.000015
outer loop
vertex 8.441155 7.794773 0.050000
vertex 8.441155 7.794772 0.100000
vertex 8.439895 7.796877 0.100000
endloop
endfacet
facet normal -0.857364 -0.514710 0.000030
outer loop
vertex 8.441155 7.794773 0.050000
vertex 8.439895 7.796877 0.100000
vertex 8.439894 7.796876 0.050000
endloop
endfacet
facet normal -0.903936 -0.427669 0.000030
outer loop
vertex 8.439894 7.796876 0.050000
vertex 8.439895 7.796877 0.100000
vertex 8.438845 7.799094 0.100000
endloop
endfacet
facet normal -0.904007 -0.427518 0.000000
outer loop
vertex 8.439894 7.796876 0.050000
vertex 8.438845 7.799094 0.100000
vertex 8.438845 7.799094 0.050000
endloop
endfacet
facet normal -0.904007 -0.427518 -0.000030
outer loop
vertex 8.439895 7.796877 0.000000
vertex 8.439894 7.796876 0.050000
vertex 8.438845 7.799094 0.050000
endloop
endfacet
facet normal -0.903936 -0.427668 0.000000
outer loop
vertex 8.439895 7.796877 0.000000
vertex 8.438845 7.799094 0.050000
vertex 8.438845 7.799094 0.000000
endloop
endfacet
facet normal -0.941588 -0.336767 0.000000
outer loop
vertex 8.438845 7.799094 0.000000
vertex 8.438845 7.799094 0.050000
vertex 8.438019 7.801404 0.050000
endloop
endfacet
facet normal -0.941742 -0.336336 0.000000
outer loop
vertex 8.438845 7.799094 0.000000
vertex 8.438019 7.801404 0.050000
vertex 8.438019 7.801404 0.000000
endloop
endfacet
facet normal -0.941588 -0.336767 0.000000
outer loop
vertex 8.438845 7.799094 0.050000
vertex 8.438845 7.799094 0.100000
vertex 8.438019 7.801404 0.100000
endloop
endfacet
facet normal -0.941742 -0.336336 0.000000
outer loop
vertex 8.438845 7.799094 0.050000
vertex 8.438019 7.801404 0.100000
vertex 8.438019 7.801404 0.050000
endloop
endfacet
facet normal -0.970040 -0.242947 0.000000
outer loop
vertex 8.438019 7.801404 0.050000
vertex 8.438019 7.801404 0.100000
vertex 8.437423 7.803784 0.100000
endloop
endfacet
facet normal -0.970017 -0.243039 0.000015
outer loop
vertex 8.438019 7.801404 0.050000
vertex 8.437423 7.803784 0.100000
vertex 8.437423 7.803783 0.050000
endloop
endfacet
facet normal -0.970017 -0.243039 0.000000
outer loop
vertex 8.438019 7.801404 0.000000
vertex 8.438019 7.801404 0.050000
vertex 8.437423 7.803783 0.050000
endloop
endfacet
facet normal -0.970039 -0.242947 -0.000015
outer loop
vertex 8.438019 7.801404 0.000000
vertex 8.437423 7.803783 0.050000
vertex 8.437423 7.803784 0.000000
endloop
endfacet
facet normal -0.989107 -0.147200 -0.000004
outer loop
vertex 8.437423 7.803784 0.000000
vertex 8.437423 7.803783 0.050000
vertex 8.437063 7.806210 0.050000
endloop
endfacet
facet normal -0.989239 -0.146306 0.000000
outer loop
vertex 8.437423 7.803784 0.000000
vertex 8.437063 7.806210 0.050000
vertex 8.437063 7.806210 0.000000
endloop
endfacet
facet normal -0.989098 -0.147257 0.000004
outer loop
vertex 8.437423 7.803783 0.050000
vertex 8.437423 7.803784 0.100000
vertex 8.437063 7.806210 0.100000
endloop
endfacet
facet normal -0.989248 -0.146249 0.000000
outer loop
vertex 8.437423 7.803783 0.050000
vertex 8.437063 7.806210 0.100000
vertex 8.437063 7.806210 0.050000
endloop
endfacet
facet normal -0.998818 -0.048600 0.000000
outer loop
vertex 8.437063 7.806210 0.050000
vertex 8.437063 7.806210 0.100000
vertex 8.436943 7.808660 0.100000
endloop
endfacet
facet normal -0.998795 -0.049084 0.000000
outer loop
vertex 8.437063 7.806210 0.050000
vertex 8.436943 7.808660 0.100000
vertex 8.436943 7.808660 0.050000
endloop
endfacet
facet normal -0.998818 -0.048600 0.000000
outer loop
vertex 8.437063 7.806210 0.000000
vertex 8.437063 7.806210 0.050000
vertex 8.436943 7.808660 0.050000
endloop
endfacet
facet normal -0.998795 -0.049084 0.000000
outer loop
vertex 8.437063 7.806210 0.000000
vertex 8.436943 7.808660 0.050000
vertex 8.436943 7.808660 0.000000
endloop
endfacet
facet normal -0.998794 0.049103 0.000000
outer loop
vertex 8.436943 7.808660 0.000000
vertex 8.436943 7.808660 0.050000
vertex 8.437063 7.811109 0.050000
endloop
endfacet
facet normal -0.998817 0.048618 0.000000
outer loop
vertex 8.436943 7.808660 0.000000
vertex 8.437063 7.811109 0.050000
vertex 8.437063 7.811109 0.000000
endloop
endfacet
facet normal -0.998794 0.049103 0.000000
outer loop
vertex 8.436943 7.808660 0.050000
vertex 8.436943 7.808660 0.100000
vertex 8.437063 7.811109 0.100000
endloop
endfacet
facet normal -0.998817 0.048618 0.000000
outer loop
vertex 8.436943 7.808660 0.050000
vertex 8.437063 7.811109 0.100000
vertex 8.437063 7.811109 0.050000
endloop
endfacet
facet normal -0.989256 0.146193 0.000000
outer loop
vertex 8.437063 7.811109 0.050000
vertex 8.437063 7.811109 0.100000
vertex 8.437423 7.813537 0.100000
endloop
endfacet
facet normal -0.989115 0.147143 0.000000
outer loop
vertex 8.437063 7.811109 0.050000
vertex 8.437423 7.813537 0.100000
vertex 8.437423 7.813537 0.050000
endloop
endfacet
facet normal -0.989256 0.146193 0.000000
outer loop
vertex 8.437063 7.811109 0.000000
vertex 8.437063 7.811109 0.050000
vertex 8.437423 7.813537 0.050000
endloop
endfacet
facet normal -0.989115 0.147143 0.000000
outer loop
vertex 8.437063 7.811109 0.000000
vertex 8.437423 7.813537 0.050000
vertex 8.437423 7.813537 0.000000
endloop
endfacet
facet normal -0.970017 0.243039 0.000000
outer loop
vertex 8.437423 7.813537 0.000000
vertex 8.437423 7.813537 0.050000
vertex 8.438019 7.815916 0.050000
endloop
endfacet
facet normal -0.970039 0.242947 0.000000
outer loop
vertex 8.437423 7.813537 0.000000
vertex 8.438019 7.815916 0.050000
vertex 8.438019 7.815917 0.000000
endloop
endfacet
facet normal -0.970040 0.242947 0.000000
outer loop
vertex 8.437423 7.813537 0.050000
vertex 8.437423 7.813537 0.100000
vertex 8.438019 7.815917 0.100000
endloop
endfacet
facet normal -0.970017 0.243039 0.000000
outer loop
vertex 8.437423 7.813537 0.050000
vertex 8.438019 7.815917 0.100000
vertex 8.438019 7.815916 0.050000
endloop
endfacet
facet normal -0.941345 0.337445 -0.000008
outer loop
vertex 8.438019 7.815916 0.050000
vertex 8.438019 7.815917 0.100000
vertex 8.438846 7.818225 0.100000
endloop
endfacet
facet normal -0.941544 0.336891 0.000000
outer loop
vertex 8.438019 7.815916 0.050000
vertex 8.438846 7.818225 0.100000
vertex 8.438846 7.818225 0.050000
endloop
endfacet
facet normal -0.941390 0.337322 0.000008
outer loop
vertex 8.438019 7.815917 0.000000
vertex 8.438019 7.815916 0.050000
vertex 8.438846 7.818225 0.050000
endloop
endfacet
facet normal -0.941500 0.337014 0.000000
outer loop
vertex 8.438019 7.815917 0.000000
vertex 8.438846 7.818225 0.050000
vertex 8.438846 7.818225 0.000000
endloop
endfacet
facet normal -0.904453 0.426574 0.000000
outer loop
vertex 8.438846 7.818225 0.000000
vertex 8.438846 7.818225 0.050000
vertex 8.439894 7.820444 0.050000
endloop
endfacet
facet normal -0.904078 0.427368 -0.000017
outer loop
vertex 8.438846 7.818225 0.000000
vertex 8.439894 7.820444 0.050000
vertex 8.439895 7.820444 0.000000
endloop
endfacet
facet normal -0.904078 0.427368 0.000000
outer loop
vertex 8.438846 7.818225 0.050000
vertex 8.438846 7.818225 0.100000
vertex 8.439895 7.820444 0.100000
endloop
endfacet
facet normal -0.904453 0.426574 0.000017
outer loop
vertex 8.438846 7.818225 0.050000
vertex 8.439895 7.820444 0.100000
vertex 8.439894 7.820444 0.050000
endloop
endfacet
facet normal -0.857364 0.514710 0.000015
outer loop
vertex 8.439894 7.820444 0.050000
vertex 8.439895 7.820444 0.100000
vertex 8.441155 7.822547 0.100000
endloop
endfacet
facet normal -0.857579 0.514353 0.000000
outer loop
vertex 8.439894 7.820444 0.050000
vertex 8.441155 7.822547 0.100000
vertex 8.441155 7.822547 0.050000
endloop
endfacet
facet normal -0.857364 0.514710 -0.000015
outer loop
vertex 8.439895 7.820444 0.000000
vertex 8.439894 7.820444 0.050000
vertex 8.441155 7.822547 0.050000
endloop
endfacet
facet normal -0.857579 0.514353 0.000000
outer loop
vertex 8.439895 7.820444 0.000000
vertex 8.441155 7.822547 0.050000
vertex 8.441155 7.822547 0.000000
endloop
endfacet
facet normal -0.803299 0.595576 0.000000
outer loop
vertex 8.441155 7.822547 0.000000
vertex 8.441155 7.822547 0.050000
vertex 8.442616 7.824518 0.050000
endloop
endfacet
facet normal -0.803531 0.595262 0.000000
outer loop
vertex 8.441155 7.822547 0.000000
vertex 8.442616 7.824518 0.050000
vertex 8.442616 7.824518 0.000000
endloop
endfacet
facet normal -0.803299 0.595576 0.000000
outer loop
vertex 8.441155 7.822547 0.050000
vertex 8.441155 7.822547 0.100000
vertex 8.442616 7.824518 0.100000
endloop
endfacet
facet normal -0.803531 0.595262 0.000000
outer loop
vertex 8.441155 7.822547 0.050000
vertex 8.442616 7.824518 0.100000
vertex 8.442616 7.824518 0.050000
endloop
endfacet
facet normal -0.741017 0.671486 0.000000
outer loop
vertex 8.442616 7.824518 0.050000
vertex 8.442616 7.824518 0.100000
vertex 8.444263 7.826335 0.100000
endloop
endfacet
facet normal -0.740775 0.671753 0.000000
outer loop
vertex 8.442616 7.824518 0.050000
vertex 8.444263 7.826335 0.100000
vertex 8.444263 7.826335 0.050000
endloop
endfacet
facet normal -0.741017 0.671486 0.000000
outer loop
vertex 8.442616 7.824518 0.000000
vertex 8.442616 7.824518 0.050000
vertex 8.444263 7.826335 0.050000
endloop
endfacet
facet normal -0.740775 0.671753 0.000000
outer loop
vertex 8.442616 7.824518 0.000000
vertex 8.444263 7.826335 0.050000
vertex 8.444263 7.826335 0.000000
endloop
endfacet
facet normal -0.670921 0.741529 0.000000
outer loop
vertex 8.444263 7.826335 0.000000
vertex 8.444263 7.826335 0.050000
vertex 8.446082 7.827982 0.050000
endloop
endfacet
facet normal -0.671618 0.740898 0.000000
outer loop
vertex 8.444263 7.826335 0.000000
vertex 8.446082 7.827982 0.050000
vertex 8.446082 7.827983 0.000000
endloop
endfacet
facet normal -0.671134 0.741336 0.000000
outer loop
vertex 8.444263 7.826335 0.050000
vertex 8.444263 7.826335 0.100000
vertex 8.446082 7.827983 0.100000
endloop
endfacet
facet normal -0.671404 0.741091 0.000000
outer loop
vertex 8.444263 7.826335 0.050000
vertex 8.446082 7.827983 0.100000
vertex 8.446082 7.827982 0.050000
endloop
endfacet
facet normal -0.595823 0.803116 -0.000015
outer loop
vertex 8.446082 7.827982 0.050000
vertex 8.446082 7.827983 0.100000
vertex 8.448051 7.829444 0.100000
endloop
endfacet
facet normal -0.596073 0.802930 -0.000005
outer loop
vertex 8.446082 7.827982 0.050000
vertex 8.448051 7.829444 0.100000
vertex 8.448052 7.829444 0.050000
endloop
endfacet
facet normal -0.596073 0.802930 0.000015
outer loop
vertex 8.446082 7.827983 0.000000
vertex 8.446082 7.827982 0.050000
vertex 8.448052 7.829444 0.050000
endloop
endfacet
facet normal -0.595823 0.803116 0.000005
outer loop
vertex 8.446082 7.827983 0.000000
vertex 8.448052 7.829444 0.050000
vertex 8.448051 7.829444 0.000000
endloop
endfacet
facet normal -0.514210 0.857664 0.000000
outer loop
vertex 8.448051 7.829444 0.000000
vertex 8.448052 7.829444 0.050000
vertex 8.450156 7.830706 0.050000
endloop
endfacet
facet normal -0.514210 0.857664 -0.000010
outer loop
vertex 8.448051 7.829444 0.000000
vertex 8.450156 7.830706 0.050000
vertex 8.450157 7.830706 0.000000
endloop
endfacet
facet normal -0.514210 0.857664 0.000000
outer loop
vertex 8.448052 7.829444 0.050000
vertex 8.448051 7.829444 0.100000
vertex 8.450157 7.830706 0.100000
endloop
endfacet
facet normal -0.514210 0.857664 0.000010
outer loop
vertex 8.448052 7.829444 0.050000
vertex 8.450157 7.830706 0.100000
vertex 8.450156 7.830706 0.050000
endloop
endfacet
facet normal -0.427192 0.904161 0.000000
outer loop
vertex 8.450156 7.830706 0.050000
vertex 8.450157 7.830706 0.100000
vertex 8.452374 7.831754 0.100000
endloop
endfacet
facet normal -0.427380 0.904072 0.000000
outer loop
vertex 8.450156 7.830706 0.050000
vertex 8.452374 7.831754 0.100000
vertex 8.452374 7.831754 0.050000
endloop
endfacet
facet normal -0.427192 0.904161 0.000000
outer loop
vertex 8.450157 7.830706 0.000000
vertex 8.450156 7.830706 0.050000
vertex 8.452374 7.831754 0.050000
endloop
endfacet
facet normal -0.427380 0.904072 0.000000
outer loop
vertex 8.450157 7.830706 0.000000
vertex 8.452374 7.831754 0.050000
vertex 8.452374 7.831754 0.000000
endloop
endfacet
facet normal 0.000000 0.000000 1.000000
outer loop
vertex 8.466818 7.833180 0.100000
vertex 8.464390 7.833537 0.100000
vertex 8.461941 7.808661 0.100000
endloop
endfacet
facet normal 0.000000 0.000000 1.000000
outer loop
vertex 8.466818 7.833180 0.100000
vertex 8.461941 7.808661 0.100000
vertex 8.469196 7.832580 0.100000
endloop
endfacet
facet normal -0.000008 0.000000 1.000000
outer loop
vertex 8.461940 7.833660 0.100000
vertex 8.459490 7.833537 0.100000
vertex 8.461941 7.808661 0.100000
endloop
endfacet
facet normal 0.000008 0.000000 1.000000
outer loop
vertex 8.461940 7.833660 0.100000
vertex 8.461941 7.808661 0.100000
vertex 8.464390 7.833537 0.100000
endloop
endfacet
facet normal 0.000000 0.000000 1.000000
outer loop
vertex 8.457063 7.833180 0.100000
vertex 8.454683 7.832580 0.100000
vertex 8.461941 7.808661 0.100000
endloop
endfacet
facet normal 0.000000 0.000000 1.000000
outer loop
vertex 8.457063 7.833180 0.100000
vertex 8.461941 7.808661 0.100000
vertex 8.459490 7.833537 0.100000
endloop
endfacet
facet normal 0.000008 0.000000 1.000000
outer loop
vertex 8.452373 7.831756 0.100000
vertex 8.450156 7.830706 0.100000
vertex 8.461941 7.808661 0.100000
endloop
endfacet
facet normal -0.000008 0.000000 1.000000
outer loop
vertex 8.452373 7.831756 0.100000
vertex 8.461941 7.808661 0.100000
vertex 8.454683 7.832580 0.100000
endloop
endfacet
facet normal 0.000004 0.000000 1.000000
outer loop
vertex 8.448050 7.829446 0.100000
vertex 8.446082 7.827983 0.100000
vertex 8.461941 7.808661 0.100000
endloop
endfacet
facet normal -0.000008 0.000000 1.000000
outer loop
vertex 8.448050 7.829446 0.100000
vertex 8.461941 7.808661 0.100000
vertex 8.450156 7.830706 0.100000
endloop
endfacet
facet normal -0.000004 0.000000 1.000000
outer loop
vertex 8.444263 7.826337 0.100000
vertex 8.442616 7.824518 0.100000
vertex 8.461941 7.808661 0.100000
endloop
endfacet
facet normal 0.000000 0.000000 1.000000
outer loop
vertex 8.444263 7.826337 0.100000
vertex 8.461941 7.808661 0.100000
vertex 8.446082 7.827983 0.100000
endloop
endfacet
facet normal 0.000000 0.000000 1.000000
outer loop
vertex 8.441153 7.822548 0.100000
vertex 8.439895 7.820444 0.100000
vertex 8.461941 7.808661 0.100000
endloop
endfacet
facet normal 0.000000 0.000000 1.000000
outer loop
vertex 8.441153 7.822548 0.100000
vertex 8.461941 7.808661 0.100000
vertex 8.442616 7.824518 0.100000
endloop
endfacet
facet normal 0.000002 0.000000 1.000000
outer loop
vertex 8.438843 7.818226 0.100000
vertex 8.438019 7.815917 0.100000
vertex 8.461941 7.808661 0.100000
endloop
endfacet
facet normal 0.000000 0.000000 1.000000
outer loop
vertex 8.438843 7.818226 0.100000
vertex 8.461941 7.808661 0.100000
vertex 8.439895 7.820444 0.100000
endloop
endfacet
facet normal 0.000000 0.000000 1.000000
outer loop
vertex 8.437421 7.813537 0.100000
vertex 8.437063 7.811109 0.100000
vertex 8.461941 7.808661 0.100000
endloop
endfacet
facet normal 0.000000 0.000000 1.000000
outer loop
vertex 8.437421 7.813537 0.100000
vertex 8.461941 7.808661 0.100000
vertex 8.438019 7.815917 0.100000
endloop
endfacet
facet normal 0.000000 0.000000 1.000000
outer loop
vertex 8.436940 7.808660 0.100000
vertex 8.437063 7.806210 0.100000
vertex 8.461941 7.808661 0.100000
endloop
endfacet
facet normal 0.000000 0.000000 1.000000
outer loop
vertex 8.436940 7.808660 0.100000
vertex 8.461941 7.808661 0.100000
vertex 8.437063 7.811109 0.100000
endloop
endfacet
facet normal 0.000000 0.000000 1.000000
outer loop
vertex 8.437421 7.803783 0.100000
vertex 8.438019 7.801404 0.100000
vertex 8.461941 7.808661 0.100000
endloop
endfacet
facet normal 0.000000 0.000000 1.000000
outer loop
vertex 8.437421 7.803783 0.100000
vertex 8.461941 7.808661 0.100000
vertex 8.437063 7.806210 0.100000
endloop
endfacet
facet normal 0.000000 0.000000 1.000000
outer loop
vertex 8.438843 7.799093 0.100000
vertex 8.439894 7.796876 0.100000
vertex 8.461941 7.808661 0.100000
endloop
endfacet
facet normal 0.000000 0.000000 1.000000
outer loop
vertex 8.438843 7.799093 0.100000
vertex 8.461941 7.808661 0.100000
vertex 8.438019 7.801404 0.100000
endloop
endfacet
facet normal 0.000000 0.000000 1.000000
outer loop
vertex 8.441153 7.794771 0.100000
vertex 8.442616 7.792802 0.100000
vertex 8.461941 7.808661 0.100000
endloop
endfacet
facet normal -0.000004 0.000000 1.000000
outer loop
vertex 8.441153 7.794771 0.100000
vertex 8.461941 7.808661 0.100000
vertex 8.439894 7.796876 0.100000
endloop
endfacet
facet normal 0.000000 0.000000 1.000000
outer loop
vertex 8.444263 7.790983 0.100000
vertex 8.446082 7.789337 0.100000
vertex 8.461941 7.808661 0.100000
endloop
endfacet
facet normal 0.000000 0.000000 1.000000
outer loop
vertex 8.444263 7.790983 0.100000
vertex 8.461941 7.808661 0.100000
vertex 8.442616 7.792802 0.100000
endloop
endfacet
facet normal 0.000000 0.000000 1.000000
outer loop
vertex 8.448050 7.787873 0.100000
vertex 8.450157 7.786615 0.100000
vertex 8.461941 7.808661 0.100000
endloop
endfacet
facet normal 0.000000 0.000000 1.000000
outer loop
vertex 8.448050 7.787873 0.100000
vertex 8.461941 7.808661 0.100000
vertex 8.446082 7.789337 0.100000
endloop
endfacet
facet normal -0.000008 0.000000 1.000000
outer loop
vertex 8.452373 7.785563 0.100000
vertex 8.454683 7.784739 0.100000
vertex 8.461941 7.808661 0.100000
endloop
endfacet
facet normal 0.000000 0.000000 1.000000
outer loop
vertex 8.452373 7.785563 0.100000
vertex 8.461941 7.808661 0.100000
vertex 8.450157 7.786615 0.100000
endloop
endfacet
facet normal -0.000008 0.000000 1.000000
outer loop
vertex 8.457063 7.784142 0.100000
vertex 8.459490 7.783783 0.100000
vertex 8.461941 7.808661 0.100000
endloop
endfacet
facet normal 0.000008 0.000000 1.000000
outer loop
vertex 8.457063 7.784142 0.100000
vertex 8.461941 7.808661 0.100000
vertex 8.454683 7.784739 0.100000
endloop
endfacet
facet normal 0.000000 0.000000 1.000000
outer loop
vertex 8.461940 7.783660 0.100000
vertex 8.464390 7.783783 0.100000
vertex 8.461941 7.808661 0.100000
endloop
endfacet
facet normal 0.000000 0.000000 1.000000
outer loop
vertex 8.461940 7.783660 0.100000
vertex 8.461941 7.808661 0.100000
vertex 8.459490 7.783783 0.100000
endloop
endfacet
facet normal -0.000008 0.000000 1.000000
outer loop
vertex 8.466818 7.784142 0.100000
vertex 8.469196 7.784739 0.100000
vertex 8.461941 7.808661 0.100000
endloop
endfacet
facet normal 0.000008 0.000000 1.000000
outer loop
vertex 8.466818 7.784142 0.100000
vertex 8.461941 7.808661 0.100000
vertex 8.464390 7.783783 0.100000
endloop
endfacet
facet normal 0.000000 0.000000 1.000000
outer loop
vertex 8.471507 7.785563 0.100000
vertex 8.473724 7.786614 0.100000
vertex 8.461941 7.808661 0.100000
endloop
endfacet
facet normal 0.000008 0.000000 1.000000
outer loop
vertex 8.471507 7.785563 0.100000
vertex 8.461941 7.808661 0.100000
vertex 8.469196 7.784739 0.100000
endloop
endfacet
facet normal 0.000000 0.000000 1.000000
outer loop
vertex 8.475829 7.787873 0.100000
vertex 8.477798 7.789337 0.100000
vertex 8.461941 7.808661 0.100000
endloop
endfacet
facet normal 0.000000 0.000000 1.000000
outer loop
vertex 8.475829 7.787873 0.100000
vertex 8.461941 7.808661 0.100000
vertex 8.473724 7.786614 0.100000
endloop
endfacet
facet normal 0.000000 0.000000 1.000000
outer loop
vertex 8.479617 7.790983 0.100000
vertex 8.481263 7.792802 0.100000
vertex 8.461941 7.808661 0.100000
endloop
endfacet
facet normal 0.000000 0.000000 1.000000
outer loop
vertex 8.479617 7.790983 0.100000
vertex 8.461941 7.808661 0.100000
vertex 8.477798 7.789337 0.100000
endloop
endfacet
facet normal 0.000000 0.000000 1.000000
outer loop
vertex 8.482726 7.794771 0.100000
vertex 8.483986 7.796877 0.100000
vertex 8.461941 7.808661 0.100000
endloop
endfacet
facet normal 0.000000 0.000000 1.000000
outer loop
vertex 8.482726 7.794771 0.100000
vertex 8.461941 7.808661 0.100000
vertex 8.481263 7.792802 0.100000
endloop
endfacet
facet normal 0.000000 0.000000 1.000000
outer loop
vertex 8.485037 7.799093 0.100000
vertex 8.485861 7.801404 0.100000
vertex 8.461941 7.808661 0.100000
endloop
endfacet
facet normal 0.000000 0.000000 1.000000
outer loop
vertex 8.485037 7.799093 0.100000
vertex 8.461941 7.808661 0.100000
vertex 8.483986 7.796877 0.100000
endloop
endfacet
facet normal 0.000000 0.000000 1.000000
outer loop
vertex 8.486460 7.803783 0.100000
vertex 8.486818 7.806210 0.100000
vertex 8.461941 7.808661 0.100000
endloop
endfacet
facet normal 0.000000 0.000000 1.000000
outer loop
vertex 8.486460 7.803783 0.100000
vertex 8.461941 7.808661 0.100000
vertex 8.485861 7.801404 0.100000
endloop
endfacet
facet normal 0.000000 0.000000 1.000000
outer loop
vertex 8.486940 7.808660 0.100000
vertex 8.486818 7.811109 0.100000
vertex 8.461941 7.808661 0.100000
endloop
endfacet
facet normal 0.000000 0.000000 1.000000
outer loop
vertex 8.486940 7.808660 0.100000
vertex 8.461941 7.808661 0.100000
vertex 8.486818 7.806210 0.100000
endloop
endfacet
facet normal 0.000000 0.000000 1.000000
outer loop
vertex 8.486460 7.813537 0.100000
vertex 8.485861 7.815917 0.100000
vertex 8.461941 7.808661 0.100000
endloop
endfacet
facet normal 0.000000 0.000000 1.000000
outer loop
vertex 8.486460 7.813537 0.100000
vertex 8.461941 7.808661 0.100000
vertex 8.486818 7.811109 0.100000
endloop
endfacet
facet normal 0.000000 0.000000 1.000000
outer loop
vertex 8.485037 7.818226 0.100000
vertex 8.483986 7.820444 0.100000
vertex 8.461941 7.808661 0.100000
endloop
endfacet
facet normal -0.000002 0.000000 1.000000
outer loop
vertex 8.485037 7.818226 0.100000
vertex 8.461941 7.808661 0.100000
vertex 8.485861 7.815917 0.100000
endloop
endfacet
facet normal 0.000000 0.000000 1.000000
outer loop
vertex 8.482726 7.822548 0.100000
vertex 8.481263 7.824518 0.100000
vertex 8.461941 7.808661 0.100000
endloop
endfacet
facet normal 0.000000 0.000000 1.000000
outer loop
vertex 8.482726 7.822548 0.100000
vertex 8.461941 7.808661 0.100000
vertex 8.483986 7.820444 0.100000
endloop
endfacet
facet normal 0.000000 0.000000 1.000000
outer loop
vertex 8.479617 7.826337 0.100000
vertex 8.477798 7.827983 0.100000
vertex 8.461941 7.808661 0.100000
endloop
endfacet
facet normal 0.000004 0.000000 1.000000
outer loop
vertex 8.479617 7.826337 0.100000
vertex 8.461941 7.808661 0.100000
vertex 8.481263 7.824518 0.100000
endloop
endfacet
facet normal 0.000008 0.000000 1.000000
outer loop
vertex 8.475829 7.829446 0.100000
vertex 8.473724 7.830706 0.100000
vertex 8.461941 7.808661 0.100000
endloop
endfacet
facet normal -0.000004 0.000000 1.000000
outer loop
vertex 8.475829 7.829446 0.100000
vertex 8.461941 7.808661 0.100000
vertex 8.477798 7.827983 0.100000
endloop
endfacet
facet normal 0.000008 0.000000 1.000000
outer loop
vertex 8.471507 7.831756 0.100000
vertex 8.469196 7.832580 0.100000
vertex 8.461941 7.808661 0.100000
endloop
endfacet
facet normal -0.000008 0.000000 1.000000
outer loop
vertex 8.471507 7.831756 0.100000
vertex 8.461941 7.808661 0.100000
vertex 8.473724 7.830706 0.100000
endloop
endfacet
facet normal -0.336946 0.941524 0.000000
outer loop
vertex 8.452374 7.831754 0.000000
vertex 8.452374 7.831754 0.050000
vertex 8.454683 7.832580 0.050000
endloop
endfacet
facet normal -0.336792 0.941579 0.000000
outer loop
vertex 8.452374 7.831754 0.000000
vertex 8.454683 7.832580 0.050000
vertex 8.454683 7.832580 0.000000
endloop
endfacet
facet normal -0.336946 0.941524 0.000000
outer loop
vertex 8.452374 7.831754 0.050000
vertex 8.452374 7.831754 0.100000
vertex 8.454683 7.832580 0.100000
endloop
endfacet
facet normal -0.336792 0.941579 0.000000
outer loop
vertex 8.452374 7.831754 0.050000
vertex 8.454683 7.832580 0.100000
vertex 8.454683 7.832580 0.050000
endloop
endfacet
facet normal -0.243244 0.969965 0.000000
outer loop
vertex 8.454683 7.832580 0.050000
vertex 8.454683 7.832580 0.100000
vertex 8.457064 7.833177 0.100000
endloop
endfacet
facet normal -0.243244 0.969965 -0.000013
outer loop
vertex 8.454683 7.832580 0.050000
vertex 8.457064 7.833177 0.100000
vertex 8.457063 7.833177 0.050000
endloop
endfacet
facet normal -0.243244 0.969965 0.000000
outer loop
vertex 8.454683 7.832580 0.000000
vertex 8.454683 7.832580 0.050000
vertex 8.457063 7.833177 0.050000
endloop
endfacet
facet normal -0.243244 0.969965 0.000013
outer loop
vertex 8.454683 7.832580 0.000000
vertex 8.457063 7.833177 0.050000
vertex 8.457064 7.833177 0.000000
endloop
endfacet
facet normal -0.146795 0.989167 0.000030
outer loop
vertex 8.457064 7.833177 0.000000
vertex 8.457063 7.833177 0.050000
vertex 8.459490 7.833537 0.050000
endloop
endfacet
facet normal -0.146795 0.989167 0.000000
outer loop
vertex 8.457064 7.833177 0.000000
vertex 8.459490 7.833537 0.050000
vertex 8.459490 7.833537 0.000000
endloop
endfacet
facet normal -0.146795 0.989167 -0.000030
outer loop
vertex 8.457063 7.833177 0.050000
vertex 8.457064 7.833177 0.100000
vertex 8.459490 7.833537 0.100000
endloop
endfacet
facet normal -0.146795 0.989167 0.000000
outer loop
vertex 8.457063 7.833177 0.050000
vertex 8.459490 7.833537 0.100000
vertex 8.459490 7.833537 0.050000
endloop
endfacet
facet normal -0.049404 0.998779 0.000000
outer loop
vertex 8.459490 7.833537 0.050000
vertex 8.459490 7.833537 0.100000
vertex 8.461940 7.833658 0.100000
endloop
endfacet
facet normal -0.049356 0.998781 0.000000
outer loop
vertex 8.459490 7.833537 0.050000
vertex 8.461940 7.833658 0.100000
vertex 8.461940 7.833658 0.050000
endloop
endfacet
facet normal -0.049404 0.998779 0.000000
outer loop
vertex 8.459490 7.833537 0.000000
vertex 8.459490 7.833537 0.050000
vertex 8.461940 7.833658 0.050000
endloop
endfacet
facet normal -0.049356 0.998781 0.000000
outer loop
vertex 8.459490 7.833537 0.000000
vertex 8.461940 7.833658 0.050000
vertex 8.461940 7.833658 0.000000
endloop
endfacet
facet normal 0.000000 0.000000 -1.000000
outer loop
vertex 8.461940 7.833660 0.000000
vertex 8.464390 7.833537 0.000000
vertex 8.461941 7.808661 0.000000
endloop
endfacet
facet normal 0.000000 0.000000 -1.000000
outer loop
vertex 8.461940 7.833660 0.000000
vertex 8.461941 7.808661 0.000000
vertex 8.459490 7.833537 0.000000
endloop
endfacet
facet normal 0.000000 0.000000 -1.000000
outer loop
vertex 8.466818 7.833180 0.000000
vertex 8.469196 7.832580 0.000000
vertex 8.461941 7.808661 0.000000
endloop
endfacet
facet normal 0.000000 0.000000 -1.000000
outer loop
vertex 8.466818 7.833180 0.000000
vertex 8.461941 7.808661 0.000000
vertex 8.464390 7.833537 0.000000
endloop
endfacet
facet normal 0.000000 0.000000 -1.000000
outer loop
vertex 8.471507 7.831756 0.000000
vertex 8.473724 7.830706 0.000000
vertex 8.461941 7.808661 0.000000
endloop
endfacet
facet normal 0.000000 0.000000 -1.000000
outer loop
vertex 8.471507 7.831756 0.000000
vertex 8.461941 7.808661 0.000000
vertex 8.469196 7.832580 0.000000
endloop
endfacet
facet normal 0.000000 0.000000 -1.000000
outer loop
vertex 8.475829 7.829446 0.000000
vertex 8.477798 7.827983 0.000000
vertex 8.461941 7.808661 0.000000
endloop
endfacet
facet normal 0.000000 0.000000 -1.000000
outer loop
vertex 8.475829 7.829446 0.000000
vertex 8.461941 7.808661 0.000000
vertex 8.473724 7.830706 0.000000
endloop
endfacet
facet normal 0.000000 0.000000 -1.000000
outer loop
vertex 8.479617 7.826337 0.000000
vertex 8.481263 7.824518 0.000000
vertex 8.461941 7.808661 0.000000
endloop
endfacet
facet normal 0.000000 0.000000 -1.000000
outer loop
vertex 8.479617 7.826337 0.000000
vertex 8.461941 7.808661 0.000000
vertex 8.477798 7.827983 0.000000
endloop
endfacet
facet normal 0.000000 0.000000 -1.000000
outer loop
vertex 8.482726 7.822548 0.000000
vertex 8.483986 7.820444 0.000000
vertex 8.461941 7.808661 0.000000
endloop
endfacet
facet normal 0.000000 0.000000 -1.000000
outer loop
vertex 8.482726 7.822548 0.000000
vertex 8.461941 7.808661 0.000000
vertex 8.481263 7.824518 0.000000
endloop
endfacet
facet normal 0.000000 0.000000 -1.000000
outer loop
vertex 8.485037 7.818226 0.000000
vertex 8.485861 7.815917 0.000000
vertex 8.461941 7.808661 0.000000
endloop
endfacet
facet normal 0.000000 0.000000 -1.000000
outer loop
vertex 8.485037 7.818226 0.000000
vertex 8.461941 7.808661 0.000000
vertex 8.483986 7.820444 0.000000
endloop
endfacet
facet normal 0.000000 0.000000 -1.000000
outer loop
vertex 8.486460 7.813537 0.000000
vertex 8.486818 7.811109 0.000000
vertex 8.461941 7.808661 0.000000
endloop
endfacet
facet normal 0.000000 0.000000 -1.000000
outer loop
vertex 8.486460 7.813537 0.000000
vertex 8.461941 7.808661 0.000000
vertex 8.485861 7.815917 0.000000
endloop
endfacet
facet normal 0.000000 0.000000 -1.000000
outer loop
vertex 8.486940 7.808660 0.000000
vertex 8.486818 7.806210 0.000000
vertex 8.461941 7.808661 0.000000
endloop
endfacet
facet normal 0.000000 0.000000 -1.000000
outer loop
vertex 8.486940 7.808660 0.000000
vertex 8.461941 7.808661 0.000000
vertex 8.486818 7.811109 0.000000
endloop
endfacet
facet normal 0.000000 0.000000 -1.000000
outer loop
vertex 8.486460 7.803783 0.000000
vertex 8.485861 7.801404 0.000000
vertex 8.461941 7.808661 0.000000
endloop
endfacet
facet normal 0.000000 0.000000 -1.000000
outer loop
vertex 8.486460 7.803783 0.000000
vertex 8.461941 7.808661 0.000000
vertex 8.486818 7.806210 0.000000
endloop
endfacet
facet normal 0.000000 0.000000 -1.000000
outer loop
vertex 8.485037 7.799093 0.000000
vertex 8.483986 7.796876 0.000000
vertex 8.461941 7.808661 0.000000
endloop
endfacet
facet normal 0.000000 0.000000 -1.000000
outer loop
vertex 8.485037 7.799093 0.000000
vertex 8.461941 7.808661 0.000000
vertex 8.485861 7.801404 0.000000
endloop
endfacet
facet normal 0.000000 0.000000 -1.000000
outer loop
vertex 8.482726 7.794771 0.000000
vertex 8.481263 7.792802 0.000000
vertex 8.461941 7.808661 0.000000
endloop
endfacet
facet normal 0.000000 0.000000 -1.000000
outer loop
vertex 8.482726 7.794771 0.000000
vertex 8.461941 7.808661 0.000000
vertex 8.483986 7.796876 0.000000
endloop
endfacet
facet normal 0.000000 0.000000 -1.000000
outer loop
vertex 8.479617 7.790983 0.000000
vertex 8.477798 7.789337 0.000000
vertex 8.461941 7.808661 0.000000
endloop
endfacet
facet normal 0.000000 0.000000 -1.000000
outer loop
vertex 8.479617 7.790983 0.000000
vertex 8.461941 7.808661 0.000000
vertex 8.481263 7.792802 0.000000
endloop
endfacet
facet normal 0.000000 0.000000 -1.000000
outer loop
vertex 8.475829 7.787873 0.000000
vertex 8.473724 7.786614 0.000000
vertex 8.461941 7.808661 0.000000
endloop
endfacet
facet normal 0.000000 0.000000 -1.000000
outer loop
vertex 8.475829 7.787873 0.000000
vertex 8.461941 7.808661 0.000000
vertex 8.477798 7.789337 0.000000
endloop
endfacet
facet normal 0.000000 0.000000 -1.000000
outer loop
vertex 8.471507 7.785563 0.000000
vertex 8.469196 7.784739 0.000000
vertex 8.461941 7.808661 0.000000
endloop
endfacet
facet normal 0.000000 0.000000 -1.000000
outer loop
vertex 8.471507 7.785563 0.000000
vertex 8.461941 7.808661 0.000000
vertex 8.473724 7.786614 0.000000
endloop
endfacet
facet normal 0.000000 0.000000 -1.000000
outer loop
vertex 8.466818 7.784142 0.000000
vertex 8.464390 7.783783 0.000000
vertex 8.461941 7.808661 0.000000
endloop
endfacet
facet normal 0.000000 0.000000 -1.000000
outer loop
vertex 8.466818 7.784142 0.000000
vertex 8.461941 7.808661 0.000000
vertex 8.469196 7.784739 0.000000
endloop
endfacet
facet normal 0.000000 0.000000 -1.000000
outer loop
vertex 8.461940 7.783660 0.000000
vertex 8.459490 7.783783 0.000000
vertex 8.461941 7.808661 0.000000
endloop
endfacet
facet normal 0.000000 0.000000 -1.000000
outer loop
vertex 8.461940 7.783660 0.000000
vertex 8.461941 7.808661 0.000000
vertex 8.464390 7.783783 0.000000
endloop
endfacet
facet normal 0.000000 0.000000 -1.000000
outer loop
vertex 8.457063 7.784142 0.000000
vertex 8.454683 7.784739 0.000000
vertex 8.461941 7.808661 0.000000
endloop
endfacet
facet normal 0.000000 0.000000 -1.000000
outer loop
vertex 8.457063 7.784142 0.000000
vertex 8.461941 7.808661 0.000000
vertex 8.459490 7.783783 0.000000
endloop
endfacet
facet normal 0.000000 0.000000 -1.000000
outer loop
vertex 8.452373 7.785563 0.000000
vertex 8.450156 7.786614 0.000000
vertex 8.461941 7.808661 0.000000
endloop
endfacet
facet normal 0.000000 0.000000 -1.000000
outer loop
vertex 8.452373 7.785563 0.000000
vertex 8.461941 7.808661 0.000000
vertex 8.454683 7.784739 0.000000
endloop
endfacet
facet normal 0.000000 0.000000 -1.000000
outer loop
vertex 8.448050 7.787873 0.000000
vertex 8.446082 7.789337 0.000000
vertex 8.461941 7.808661 0.000000
endloop
endfacet
facet normal 0.000000 0.000000 -1.000000
outer loop
vertex 8.448050 7.787873 0.000000
vertex 8.461941 7.808661 0.000000
vertex 8.450156 7.786614 0.000000
endloop
endfacet
facet normal 0.000000 0.000000 -1.000000
outer loop
vertex 8.444263 7.790983 0.000000
vertex 8.442616 7.792802 0.000000
vertex 8.461941 7.808661 0.000000
endloop
endfacet
facet normal 0.000000 0.000000 -1.000000
outer loop
vertex 8.444263 7.790983 0.000000
vertex 8.461941 7.808661 0.000000
vertex 8.446082 7.789337 0.000000
endloop
endfacet
facet normal 0.000000 0.000000 -1.000000
outer loop
vertex 8.441153 7.794771 0.000000
vertex 8.439894 7.796877 0.000000
vertex 8.461941 7.808661 0.000000
endloop
endfacet
facet normal 0.000000 0.000000 -1.000000
outer loop
vertex 8.441153 7.794771 0.000000
vertex 8.461941 7.808661 0.000000
vertex 8.442616 7.792802 0.000000
endloop
endfacet
facet normal 0.000000 0.000000 -1.000000
outer loop
vertex 8.438843 7.799093 0.000000
vertex 8.438019 7.801404 0.000000
vertex 8.461941 7.808661 0.000000
endloop
endfacet
facet normal 0.000000 0.000000 -1.000000
outer loop
vertex 8.438843 7.799093 0.000000
vertex 8.461941 7.808661 0.000000
vertex 8.439894 7.796877 0.000000
endloop
endfacet
facet normal 0.000000 0.000000 -1.000000
outer loop
vertex 8.437421 7.803783 0.000000
vertex 8.437063 7.806210 0.000000
vertex 8.461941 7.808661 0.000000
endloop
endfacet
facet normal 0.000000 0.000000 -1.000000
outer loop
vertex 8.437421 7.803783 0.000000
vertex 8.461941 7.808661 0.000000
vertex 8.438019 7.801404 0.000000
endloop
endfacet
facet normal 0.000000 0.000000 -1.000000
outer loop
vertex 8.436940 7.808660 0.000000
vertex 8.437063 7.811109 0.000000
vertex 8.461941 7.808661 0.000000
endloop
endfacet
facet normal 0.000000 0.000000 -1.000000
outer loop
vertex 8.436940 7.808660 0.000000
vertex 8.461941 7.808661 0.000000
vertex 8.437063 7.806210 0.000000
endloop
endfacet
facet normal 0.000000 0.000000 -1.000000
outer loop
vertex 8.437421 7.813537 0.000000
vertex 8.438019 7.815917 0.000000
vertex 8.461941 7.808661 0.000000
endloop
endfacet
facet normal 0.000000 0.000000 -1.000000
outer loop
vertex 8.437421 7.813537 0.000000
vertex 8.461941 7.808661 0.000000
vertex 8.437063 7.811109 0.000000
endloop
endfacet
facet normal 0.000000 0.000000 -1.000000
outer loop
vertex 8.438843 7.818226 0.000000
vertex 8.439894 7.820444 0.000000
vertex 8.461941 7.808661 0.000000
endloop
endfacet
facet normal 0.000000 0.000000 -1.000000
outer loop
vertex 8.438843 7.818226 0.000000
vertex 8.461941 7.808661 0.000000
vertex 8.438019 7.815917 0.000000
endloop
endfacet
facet normal 0.000000 0.000000 -1.000000
outer loop
vertex 8.441153 7.822548 0.000000
vertex 8.442616 7.824518 0.000000
vertex 8.461941 7.808661 0.000000
endloop
endfacet
facet normal 0.000000 0.000000 -1.000000
outer loop
vertex 8.441153 7.822548 0.000000
vertex 8.461941 7.808661 0.000000
vertex 8.439894 7.820444 0.000000
endloop
endfacet
facet normal 0.000000 0.000000 -1.000000
outer loop
vertex 8.444263 7.826337 0.000000
vertex 8.446082 7.827983 0.000000
vertex 8.461941 7.808661 0.000000
endloop
endfacet
facet normal 0.000000 0.000000 -1.000000
outer loop
vertex 8.444263 7.826337 0.000000
vertex 8.461941 7.808661 0.000000
vertex 8.442616 7.824518 0.000000
endloop
endfacet
facet normal 0.000000 0.000000 -1.000000
outer loop
vertex 8.448050 7.829446 0.000000
vertex 8.450157 7.830706 0.000000
vertex 8.461941 7.808661 0.000000
endloop
endfacet
facet normal 0.000000 0.000000 -1.000000
outer loop
vertex 8.448050 7.829446 0.000000
vertex 8.461941 7.808661 0.000000
vertex 8.446082 7.827983 0.000000
endloop
endfacet
facet normal 0.000000 0.000000 -1.000000
outer loop
vertex 8.452373 7.831756 0.000000
vertex 8.454683 7.832580 0.000000
vertex 8.461941 7.808661 0.000000
endloop
endfacet
facet normal 0.000000 0.000000 -1.000000
outer loop
vertex 8.452373 7.831756 0.000000
vertex 8.461941 7.808661 0.000000
vertex 8.450157 7.830706 0.000000
endloop
endfacet
facet normal 0.000000 0.000000 -1.000000
outer loop
vertex 8.457063 7.833180 0.000000
vertex 8.459490 7.833537 0.000000
vertex 8.461941 7.808661 0.000000
endloop
endfacet
facet normal 0.000000 0.000000 -1.000000
outer loop
vertex 8.457063 7.833180 0.000000
vertex 8.461941 7.808661 0.000000
vertex 8.454683 7.832580 0.000000
endloop
endfacet
endsolid Exported from Blender-2.82 (sub 7)
