solid Exported from Blender-2.82 (sub 7)
facet normal 0.049356 0.998781 0.000000
outer loop
vertex 7.076120 8.407678 0.000000
vertex 7.076120 8.407678 0.050000
vertex 7.078570 8.407557 0.050000
endloop
endfacet
facet normal 0.049380 0.998780 0.000000
outer loop
vertex 7.076120 8.407678 0.000000
vertex 7.078570 8.407557 0.050000
vertex 7.078570 8.407557 0.000000
endloop
endfacet
facet normal 0.049356 0.998781 0.000000
outer loop
vertex 7.076120 8.407678 0.050000
vertex 7.076120 8.407678 0.100000
vertex 7.078570 8.407557 0.100000
endloop
endfacet
facet normal 0.049380 0.998780 0.000000
outer loop
vertex 7.076120 8.407678 0.050000
vertex 7.078570 8.407557 0.100000
vertex 7.078570 8.407557 0.050000
endloop
endfacet
facet normal 0.146535 0.989206 0.000000
outer loop
vertex 7.078570 8.407557 0.050000
vertex 7.078570 8.407557 0.100000
vertex 7.080997 8.407197 0.100000
endloop
endfacet
facet normal 0.146535 0.989206 0.000000
outer loop
vertex 7.078570 8.407557 0.050000
vertex 7.080997 8.407197 0.100000
vertex 7.080997 8.407197 0.050000
endloop
endfacet
facet normal 0.146535 0.989206 0.000000
outer loop
vertex 7.078570 8.407557 0.000000
vertex 7.078570 8.407557 0.050000
vertex 7.080997 8.407197 0.050000
endloop
endfacet
facet normal 0.146535 0.989206 0.000000
outer loop
vertex 7.078570 8.407557 0.000000
vertex 7.080997 8.407197 0.050000
vertex 7.080997 8.407197 0.000000
endloop
endfacet
facet normal 0.243359 0.969936 0.000000
outer loop
vertex 7.080997 8.407197 0.000000
vertex 7.080997 8.407197 0.050000
vertex 7.083376 8.406600 0.050000
endloop
endfacet
facet normal 0.243359 0.969936 0.000025
outer loop
vertex 7.080997 8.407197 0.000000
vertex 7.083376 8.406600 0.050000
vertex 7.083377 8.406600 0.000000
endloop
endfacet
facet normal 0.243359 0.969936 0.000000
outer loop
vertex 7.080997 8.407197 0.050000
vertex 7.080997 8.407197 0.100000
vertex 7.083377 8.406600 0.100000
endloop
endfacet
facet normal 0.243359 0.969936 -0.000025
outer loop
vertex 7.080997 8.407197 0.050000
vertex 7.083377 8.406600 0.100000
vertex 7.083376 8.406600 0.050000
endloop
endfacet
facet normal 0.336928 0.941531 0.000000
outer loop
vertex 7.083376 8.406600 0.050000
vertex 7.083377 8.406600 0.100000
vertex 7.085685 8.405774 0.100000
endloop
endfacet
facet normal 0.336774 0.941586 0.000000
outer loop
vertex 7.083376 8.406600 0.050000
vertex 7.085685 8.405774 0.100000
vertex 7.085685 8.405774 0.050000
endloop
endfacet
facet normal 0.336774 0.941586 0.000000
outer loop
vertex 7.083377 8.406600 0.000000
vertex 7.083376 8.406600 0.050000
vertex 7.085685 8.405774 0.050000
endloop
endfacet
facet normal 0.336928 0.941531 0.000000
outer loop
vertex 7.083377 8.406600 0.000000
vertex 7.085685 8.405774 0.050000
vertex 7.085685 8.405774 0.000000
endloop
endfacet
facet normal 0.427163 0.904175 0.000000
outer loop
vertex 7.085685 8.405774 0.000000
vertex 7.085685 8.405774 0.050000
vertex 7.087904 8.404726 0.050000
endloop
endfacet
facet normal 0.426975 0.904263 0.000000
outer loop
vertex 7.085685 8.405774 0.000000
vertex 7.087904 8.404726 0.050000
vertex 7.087904 8.404726 0.000000
endloop
endfacet
facet normal 0.427163 0.904175 0.000000
outer loop
vertex 7.085685 8.405774 0.050000
vertex 7.085685 8.405774 0.100000
vertex 7.087904 8.404726 0.100000
endloop
endfacet
facet normal 0.426975 0.904263 0.000000
outer loop
vertex 7.085685 8.405774 0.050000
vertex 7.087904 8.404726 0.100000
vertex 7.087904 8.404726 0.050000
endloop
endfacet
facet normal 0.514782 0.857321 0.000000
outer loop
vertex 7.087904 8.404726 0.050000
vertex 7.087904 8.404726 0.100000
vertex 7.090007 8.403463 0.100000
endloop
endfacet
facet normal 0.514782 0.857321 0.000000
outer loop
vertex 7.087904 8.404726 0.050000
vertex 7.090007 8.403463 0.100000
vertex 7.090007 8.403463 0.050000
endloop
endfacet
facet normal 0.514782 0.857321 0.000000
outer loop
vertex 7.087904 8.404726 0.000000
vertex 7.087904 8.404726 0.050000
vertex 7.090007 8.403463 0.050000
endloop
endfacet
facet normal 0.514782 0.857321 0.000000
outer loop
vertex 7.087904 8.404726 0.000000
vertex 7.090007 8.403463 0.050000
vertex 7.090007 8.403463 0.000000
endloop
endfacet
facet normal 0.595590 0.803289 0.000000
outer loop
vertex 7.090007 8.403463 0.000000
vertex 7.090007 8.403463 0.050000
vertex 7.091978 8.402002 0.050000
endloop
endfacet
facet normal 0.595358 0.803461 0.000000
outer loop
vertex 7.090007 8.403463 0.000000
vertex 7.091978 8.402002 0.050000
vertex 7.091978 8.402002 0.000000
endloop
endfacet
facet normal 0.595590 0.803289 0.000000
outer loop
vertex 7.090007 8.403463 0.050000
vertex 7.090007 8.403463 0.100000
vertex 7.091978 8.402002 0.100000
endloop
endfacet
facet normal 0.595358 0.803461 0.000000
outer loop
vertex 7.090007 8.403463 0.050000
vertex 7.091978 8.402002 0.100000
vertex 7.091978 8.402002 0.050000
endloop
endfacet
facet normal 0.671860 0.740679 0.000000
outer loop
vertex 7.091978 8.402002 0.050000
vertex 7.091978 8.402002 0.100000
vertex 7.093795 8.400354 0.100000
endloop
endfacet
facet normal 0.671860 0.740679 0.000000
outer loop
vertex 7.091978 8.402002 0.050000
vertex 7.093795 8.400354 0.100000
vertex 7.093795 8.400354 0.050000
endloop
endfacet
facet normal 0.671860 0.740679 0.000000
outer loop
vertex 7.091978 8.402002 0.000000
vertex 7.091978 8.402002 0.050000
vertex 7.093795 8.400354 0.050000
endloop
endfacet
facet normal 0.671860 0.740679 0.000000
outer loop
vertex 7.091978 8.402002 0.000000
vertex 7.093795 8.400354 0.050000
vertex 7.093795 8.400354 0.000000
endloop
endfacet
facet normal 0.740775 0.671753 0.000000
outer loop
vertex 7.093795 8.400354 0.000000
vertex 7.093795 8.400354 0.050000
vertex 7.095443 8.398538 0.050000
endloop
endfacet
facet normal 0.740533 0.672020 0.000000
outer loop
vertex 7.093795 8.400354 0.000000
vertex 7.095443 8.398538 0.050000
vertex 7.095443 8.398538 0.000000
endloop
endfacet
facet normal 0.740775 0.671753 0.000000
outer loop
vertex 7.093795 8.400354 0.050000
vertex 7.093795 8.400354 0.100000
vertex 7.095443 8.398538 0.100000
endloop
endfacet
facet normal 0.740533 0.672020 0.000000
outer loop
vertex 7.093795 8.400354 0.050000
vertex 7.095443 8.398538 0.100000
vertex 7.095443 8.398538 0.050000
endloop
endfacet
facet normal 0.803531 0.595262 0.000000
outer loop
vertex 7.095443 8.398538 0.050000
vertex 7.095443 8.398538 0.100000
vertex 7.096904 8.396566 0.100000
endloop
endfacet
facet normal 0.803299 0.595576 0.000000
outer loop
vertex 7.095443 8.398538 0.050000
vertex 7.096904 8.396566 0.100000
vertex 7.096904 8.396566 0.050000
endloop
endfacet
facet normal 0.803531 0.595262 0.000000
outer loop
vertex 7.095443 8.398538 0.000000
vertex 7.095443 8.398538 0.050000
vertex 7.096904 8.396566 0.050000
endloop
endfacet
facet normal 0.803299 0.595576 0.000000
outer loop
vertex 7.095443 8.398538 0.000000
vertex 7.096904 8.396566 0.050000
vertex 7.096904 8.396566 0.000000
endloop
endfacet
facet normal 0.857261 0.514882 0.000000
outer loop
vertex 7.096904 8.396566 0.000000
vertex 7.096904 8.396566 0.050000
vertex 7.098166 8.394464 0.050000
endloop
endfacet
facet normal 0.857261 0.514882 0.000000
outer loop
vertex 7.096904 8.396566 0.000000
vertex 7.098166 8.394464 0.050000
vertex 7.098166 8.394464 0.000000
endloop
endfacet
facet normal 0.857261 0.514882 0.000000
outer loop
vertex 7.096904 8.396566 0.050000
vertex 7.096904 8.396566 0.100000
vertex 7.098166 8.394464 0.100000
endloop
endfacet
facet normal 0.857261 0.514882 0.000000
outer loop
vertex 7.096904 8.396566 0.050000
vertex 7.098166 8.394464 0.100000
vertex 7.098166 8.394464 0.050000
endloop
endfacet
facet normal 0.904265 0.426971 0.000000
outer loop
vertex 7.098166 8.394464 0.050000
vertex 7.098166 8.394464 0.100000
vertex 7.099215 8.392245 0.100000
endloop
endfacet
facet normal 0.904078 0.427368 0.000000
outer loop
vertex 7.098166 8.394464 0.050000
vertex 7.099215 8.392245 0.100000
vertex 7.099215 8.392245 0.050000
endloop
endfacet
facet normal 0.904265 0.426971 0.000000
outer loop
vertex 7.098166 8.394464 0.000000
vertex 7.098166 8.394464 0.050000
vertex 7.099215 8.392245 0.050000
endloop
endfacet
facet normal 0.904078 0.427368 0.000000
outer loop
vertex 7.098166 8.394464 0.000000
vertex 7.099215 8.392245 0.050000
vertex 7.099215 8.392245 0.000000
endloop
endfacet
facet normal 0.941544 0.336891 0.000000
outer loop
vertex 7.099215 8.392245 0.000000
vertex 7.099215 8.392245 0.050000
vertex 7.100041 8.389936 0.050000
endloop
endfacet
facet normal 0.941544 0.336891 0.000000
outer loop
vertex 7.099215 8.392245 0.000000
vertex 7.100041 8.389936 0.050000
vertex 7.100041 8.389936 0.000000
endloop
endfacet
facet normal 0.941544 0.336891 0.000000
outer loop
vertex 7.099215 8.392245 0.050000
vertex 7.099215 8.392245 0.100000
vertex 7.100041 8.389936 0.100000
endloop
endfacet
facet normal 0.941544 0.336891 0.000000
outer loop
vertex 7.099215 8.392245 0.050000
vertex 7.100041 8.389936 0.100000
vertex 7.100041 8.389936 0.050000
endloop
endfacet
facet normal 0.969913 0.243450 0.000000
outer loop
vertex 7.100041 8.389936 0.050000
vertex 7.100041 8.389936 0.100000
vertex 7.100638 8.387557 0.100000
endloop
endfacet
facet normal 0.969913 0.243450 0.000000
outer loop
vertex 7.100041 8.389936 0.050000
vertex 7.100638 8.387557 0.100000
vertex 7.100638 8.387557 0.050000
endloop
endfacet
facet normal 0.969913 0.243450 0.000000
outer loop
vertex 7.100041 8.389936 0.000000
vertex 7.100041 8.389936 0.050000
vertex 7.100638 8.387557 0.050000
endloop
endfacet
facet normal 0.969913 0.243450 0.000000
outer loop
vertex 7.100041 8.389936 0.000000
vertex 7.100638 8.387557 0.050000
vertex 7.100638 8.387557 0.000000
endloop
endfacet
facet normal 0.989256 0.146193 0.000000
outer loop
vertex 7.100638 8.387557 0.000000
vertex 7.100638 8.387557 0.050000
vertex 7.100998 8.385129 0.050000
endloop
endfacet
facet normal 0.989115 0.147143 0.000000
outer loop
vertex 7.100638 8.387557 0.000000
vertex 7.100998 8.385129 0.050000
vertex 7.100998 8.385129 0.000000
endloop
endfacet
facet normal 0.989256 0.146193 0.000000
outer loop
vertex 7.100638 8.387557 0.050000
vertex 7.100638 8.387557 0.100000
vertex 7.100998 8.385129 0.100000
endloop
endfacet
facet normal 0.989115 0.147143 0.000000
outer loop
vertex 7.100638 8.387557 0.050000
vertex 7.100998 8.385129 0.100000
vertex 7.100998 8.385129 0.050000
endloop
endfacet
facet normal 0.998794 0.049103 0.000000
outer loop
vertex 7.100998 8.385129 0.050000
vertex 7.100998 8.385129 0.100000
vertex 7.101118 8.382680 0.100000
endloop
endfacet
facet normal 0.998817 0.048618 0.000000
outer loop
vertex 7.100998 8.385129 0.050000
vertex 7.101118 8.382680 0.100000
vertex 7.101118 8.382680 0.050000
endloop
endfacet
facet normal 0.998794 0.049103 0.000000
outer loop
vertex 7.100998 8.385129 0.000000
vertex 7.100998 8.385129 0.050000
vertex 7.101118 8.382680 0.050000
endloop
endfacet
facet normal 0.998817 0.048618 0.000000
outer loop
vertex 7.100998 8.385129 0.000000
vertex 7.101118 8.382680 0.050000
vertex 7.101118 8.382680 0.000000
endloop
endfacet
facet normal 0.998818 -0.048600 0.000000
outer loop
vertex 7.101118 8.382680 0.000000
vertex 7.101118 8.382680 0.050000
vertex 7.100998 8.380230 0.050000
endloop
endfacet
facet normal 0.998795 -0.049084 0.000000
outer loop
vertex 7.101118 8.382680 0.000000
vertex 7.100998 8.380230 0.050000
vertex 7.100998 8.380230 0.000000
endloop
endfacet
facet normal 0.998818 -0.048600 0.000000
outer loop
vertex 7.101118 8.382680 0.050000
vertex 7.101118 8.382680 0.100000
vertex 7.100998 8.380230 0.100000
endloop
endfacet
facet normal 0.998795 -0.049084 0.000000
outer loop
vertex 7.101118 8.382680 0.050000
vertex 7.100998 8.380230 0.100000
vertex 7.100998 8.380230 0.050000
endloop
endfacet
facet normal 0.989098 -0.147257 0.000000
outer loop
vertex 7.100998 8.380230 0.050000
vertex 7.100998 8.380230 0.100000
vertex 7.100638 8.377804 0.100000
endloop
endfacet
facet normal 0.989239 -0.146306 0.000000
outer loop
vertex 7.100998 8.380230 0.050000
vertex 7.100638 8.377804 0.100000
vertex 7.100638 8.377804 0.050000
endloop
endfacet
facet normal 0.989098 -0.147257 0.000000
outer loop
vertex 7.100998 8.380230 0.000000
vertex 7.100998 8.380230 0.050000
vertex 7.100638 8.377804 0.050000
endloop
endfacet
facet normal 0.989239 -0.146306 0.000000
outer loop
vertex 7.100998 8.380230 0.000000
vertex 7.100638 8.377804 0.050000
vertex 7.100638 8.377804 0.000000
endloop
endfacet
facet normal 0.969936 -0.243358 0.000000
outer loop
vertex 7.100638 8.377804 0.000000
vertex 7.100638 8.377804 0.050000
vertex 7.100041 8.375423 0.050000
endloop
endfacet
facet normal 0.969936 -0.243358 0.000000
outer loop
vertex 7.100638 8.377804 0.000000
vertex 7.100041 8.375423 0.050000
vertex 7.100041 8.375423 0.000000
endloop
endfacet
facet normal 0.969936 -0.243358 0.000000
outer loop
vertex 7.100638 8.377804 0.050000
vertex 7.100638 8.377804 0.100000
vertex 7.100041 8.375423 0.100000
endloop
endfacet
facet normal 0.969936 -0.243358 0.000000
outer loop
vertex 7.100638 8.377804 0.050000
vertex 7.100041 8.375423 0.100000
vertex 7.100041 8.375423 0.050000
endloop
endfacet
facet normal 0.941588 -0.336767 0.000000
outer loop
vertex 7.100041 8.375423 0.050000
vertex 7.100041 8.375423 0.100000
vertex 7.099215 8.373114 0.100000
endloop
endfacet
facet normal 0.941588 -0.336767 0.000000
outer loop
vertex 7.100041 8.375423 0.050000
vertex 7.099215 8.373114 0.100000
vertex 7.099215 8.373114 0.050000
endloop
endfacet
facet normal 0.941588 -0.336767 0.000000
outer loop
vertex 7.100041 8.375423 0.000000
vertex 7.100041 8.375423 0.050000
vertex 7.099215 8.373114 0.050000
endloop
endfacet
facet normal 0.941588 -0.336767 0.000000
outer loop
vertex 7.100041 8.375423 0.000000
vertex 7.099215 8.373114 0.050000
vertex 7.099215 8.373114 0.000000
endloop
endfacet
facet normal 0.903936 -0.427668 0.000000
outer loop
vertex 7.099215 8.373114 0.000000
vertex 7.099215 8.373114 0.050000
vertex 7.098166 8.370896 0.050000
endloop
endfacet
facet normal 0.904123 -0.427271 0.000000
outer loop
vertex 7.099215 8.373114 0.000000
vertex 7.098166 8.370896 0.050000
vertex 7.098166 8.370896 0.000000
endloop
endfacet
facet normal 0.903936 -0.427668 0.000000
outer loop
vertex 7.099215 8.373114 0.050000
vertex 7.099215 8.373114 0.100000
vertex 7.098166 8.370896 0.100000
endloop
endfacet
facet normal 0.904123 -0.427271 0.000000
outer loop
vertex 7.099215 8.373114 0.050000
vertex 7.098166 8.370896 0.100000
vertex 7.098166 8.370896 0.050000
endloop
endfacet
facet normal 0.857570 -0.514367 0.000000
outer loop
vertex 7.098166 8.370896 0.050000
vertex 7.098166 8.370896 0.100000
vertex 7.096904 8.368792 0.100000
endloop
endfacet
facet normal 0.857570 -0.514367 0.000000
outer loop
vertex 7.098166 8.370896 0.050000
vertex 7.096904 8.368792 0.100000
vertex 7.096904 8.368792 0.050000
endloop
endfacet
facet normal 0.857570 -0.514367 0.000000
outer loop
vertex 7.098166 8.370896 0.000000
vertex 7.098166 8.370896 0.050000
vertex 7.096904 8.368792 0.050000
endloop
endfacet
facet normal 0.857570 -0.514367 0.000000
outer loop
vertex 7.098166 8.370896 0.000000
vertex 7.096904 8.368792 0.050000
vertex 7.096904 8.368792 0.000000
endloop
endfacet
facet normal 0.803023 -0.595948 0.000000
outer loop
vertex 7.096904 8.368792 0.000000
vertex 7.096904 8.368792 0.050000
vertex 7.095443 8.366822 0.050000
endloop
endfacet
facet normal 0.803256 -0.595634 0.000000
outer loop
vertex 7.096904 8.368792 0.000000
vertex 7.095443 8.366822 0.050000
vertex 7.095443 8.366822 0.000000
endloop
endfacet
facet normal 0.803023 -0.595948 0.000000
outer loop
vertex 7.096904 8.368792 0.050000
vertex 7.096904 8.368792 0.100000
vertex 7.095443 8.366822 0.100000
endloop
endfacet
facet normal 0.803256 -0.595634 0.000000
outer loop
vertex 7.096904 8.368792 0.050000
vertex 7.095443 8.366822 0.100000
vertex 7.095443 8.366822 0.050000
endloop
endfacet
facet normal 0.740884 -0.671633 0.000000
outer loop
vertex 7.095443 8.366822 0.050000
vertex 7.095443 8.366822 0.100000
vertex 7.093795 8.365004 0.100000
endloop
endfacet
facet normal 0.741126 -0.671366 0.000000
outer loop
vertex 7.095443 8.366822 0.050000
vertex 7.093795 8.365004 0.100000
vertex 7.093795 8.365004 0.050000
endloop
endfacet
facet normal 0.740884 -0.671633 0.000000
outer loop
vertex 7.095443 8.366822 0.000000
vertex 7.095443 8.366822 0.050000
vertex 7.093795 8.365004 0.050000
endloop
endfacet
facet normal 0.741126 -0.671366 0.000000
outer loop
vertex 7.095443 8.366822 0.000000
vertex 7.093795 8.365004 0.050000
vertex 7.093795 8.365004 0.000000
endloop
endfacet
facet normal 0.671646 -0.740872 0.000000
outer loop
vertex 7.093795 8.365004 0.000000
vertex 7.093795 8.365004 0.050000
vertex 7.091978 8.363357 0.050000
endloop
endfacet
facet normal 0.671646 -0.740872 0.000000
outer loop
vertex 7.093795 8.365004 0.000000
vertex 7.091978 8.363357 0.050000
vertex 7.091978 8.363357 0.000000
endloop
endfacet
facet normal 0.671646 -0.740872 0.000000
outer loop
vertex 7.093795 8.365004 0.050000
vertex 7.093795 8.365004 0.100000
vertex 7.091978 8.363357 0.100000
endloop
endfacet
facet normal 0.671646 -0.740872 0.000000
outer loop
vertex 7.093795 8.365004 0.050000
vertex 7.091978 8.363357 0.100000
vertex 7.091978 8.363357 0.050000
endloop
endfacet
facet normal 0.595358 -0.803461 0.000000
outer loop
vertex 7.091978 8.363357 0.050000
vertex 7.091978 8.363357 0.100000
vertex 7.090007 8.361896 0.100000
endloop
endfacet
facet normal 0.595590 -0.803289 0.000000
outer loop
vertex 7.091978 8.363357 0.050000
vertex 7.090007 8.361896 0.100000
vertex 7.090007 8.361896 0.050000
endloop
endfacet
facet normal 0.595358 -0.803461 0.000000
outer loop
vertex 7.091978 8.363357 0.000000
vertex 7.091978 8.363357 0.050000
vertex 7.090007 8.361896 0.050000
endloop
endfacet
facet normal 0.595590 -0.803289 0.000000
outer loop
vertex 7.091978 8.363357 0.000000
vertex 7.090007 8.361896 0.050000
vertex 7.090007 8.361896 0.000000
endloop
endfacet
facet normal 0.514496 -0.857493 0.000000
outer loop
vertex 7.090007 8.361896 0.000000
vertex 7.090007 8.361896 0.050000
vertex 7.087904 8.360634 0.050000
endloop
endfacet
facet normal 0.514210 -0.857665 0.000000
outer loop
vertex 7.090007 8.361896 0.000000
vertex 7.087904 8.360634 0.050000
vertex 7.087904 8.360635 0.000000
endloop
endfacet
facet normal 0.514210 -0.857665 0.000000
outer loop
vertex 7.090007 8.361896 0.050000
vertex 7.090007 8.361896 0.100000
vertex 7.087904 8.360635 0.100000
endloop
endfacet
facet normal 0.514496 -0.857493 0.000000
outer loop
vertex 7.090007 8.361896 0.050000
vertex 7.087904 8.360635 0.100000
vertex 7.087904 8.360634 0.050000
endloop
endfacet
facet normal 0.427611 -0.903963 0.000000
outer loop
vertex 7.087904 8.360634 0.050000
vertex 7.087904 8.360635 0.100000
vertex 7.085685 8.359585 0.100000
endloop
endfacet
facet normal 0.427481 -0.904025 0.000000
outer loop
vertex 7.087904 8.360634 0.050000
vertex 7.085685 8.359585 0.100000
vertex 7.085685 8.359585 0.050000
endloop
endfacet
facet normal 0.427293 -0.904113 0.000000
outer loop
vertex 7.087904 8.360635 0.000000
vertex 7.087904 8.360634 0.050000
vertex 7.085685 8.359585 0.050000
endloop
endfacet
facet normal 0.427798 -0.903874 0.000000
outer loop
vertex 7.087904 8.360635 0.000000
vertex 7.085685 8.359585 0.050000
vertex 7.085685 8.359585 0.000000
endloop
endfacet
facet normal 0.336928 -0.941531 0.000000
outer loop
vertex 7.085685 8.359585 0.000000
vertex 7.085685 8.359585 0.050000
vertex 7.083377 8.358759 0.050000
endloop
endfacet
facet normal 0.336928 -0.941531 0.000000
outer loop
vertex 7.085685 8.359585 0.000000
vertex 7.083377 8.358759 0.050000
vertex 7.083377 8.358759 0.000000
endloop
endfacet
facet normal 0.336928 -0.941531 0.000000
outer loop
vertex 7.085685 8.359585 0.050000
vertex 7.085685 8.359585 0.100000
vertex 7.083377 8.358759 0.100000
endloop
endfacet
facet normal 0.336928 -0.941531 0.000000
outer loop
vertex 7.085685 8.359585 0.050000
vertex 7.083377 8.358759 0.100000
vertex 7.083377 8.358759 0.050000
endloop
endfacet
facet normal 0.242878 -0.970057 0.000000
outer loop
vertex 7.083377 8.358759 0.050000
vertex 7.083377 8.358759 0.100000
vertex 7.080997 8.358163 0.100000
endloop
endfacet
facet normal 0.242993 -0.970028 0.000000
outer loop
vertex 7.083377 8.358759 0.050000
vertex 7.080997 8.358163 0.100000
vertex 7.080997 8.358163 0.050000
endloop
endfacet
facet normal 0.242878 -0.970057 0.000000
outer loop
vertex 7.083377 8.358759 0.000000
vertex 7.083377 8.358759 0.050000
vertex 7.080997 8.358163 0.050000
endloop
endfacet
facet normal 0.242993 -0.970028 0.000000
outer loop
vertex 7.083377 8.358759 0.000000
vertex 7.080997 8.358163 0.050000
vertex 7.080997 8.358163 0.000000
endloop
endfacet
facet normal 0.146535 -0.989206 0.000000
outer loop
vertex 7.080997 8.358163 0.000000
vertex 7.080997 8.358163 0.050000
vertex 7.078570 8.357803 0.050000
endloop
endfacet
facet normal 0.146535 -0.989206 0.000000
outer loop
vertex 7.080997 8.358163 0.000000
vertex 7.078570 8.357803 0.050000
vertex 7.078570 8.357803 0.000000
endloop
endfacet
facet normal 0.146535 -0.989206 0.000000
outer loop
vertex 7.080997 8.358163 0.050000
vertex 7.080997 8.358163 0.100000
vertex 7.078570 8.357803 0.100000
endloop
endfacet
facet normal 0.146535 -0.989206 0.000000
outer loop
vertex 7.080997 8.358163 0.050000
vertex 7.078570 8.357803 0.100000
vertex 7.078570 8.357803 0.050000
endloop
endfacet
facet normal 0.048992 -0.998799 0.000000
outer loop
vertex 7.078570 8.357803 0.050000
vertex 7.078570 8.357803 0.100000
vertex 7.076120 8.357683 0.100000
endloop
endfacet
facet normal 0.048968 -0.998800 0.000000
outer loop
vertex 7.078570 8.357803 0.050000
vertex 7.076120 8.357683 0.100000
vertex 7.076120 8.357683 0.050000
endloop
endfacet
facet normal 0.048992 -0.998799 0.000000
outer loop
vertex 7.078570 8.357803 0.000000
vertex 7.078570 8.357803 0.050000
vertex 7.076120 8.357683 0.050000
endloop
endfacet
facet normal 0.048968 -0.998800 0.000000
outer loop
vertex 7.078570 8.357803 0.000000
vertex 7.076120 8.357683 0.050000
vertex 7.076120 8.357683 0.000000
endloop
endfacet
facet normal -0.048992 -0.998799 0.000000
outer loop
vertex 7.076120 8.357683 0.000000
vertex 7.076120 8.357683 0.050000
vertex 7.073670 8.357803 0.050000
endloop
endfacet
facet normal -0.048992 -0.998799 0.000000
outer loop
vertex 7.076120 8.357683 0.000000
vertex 7.073670 8.357803 0.050000
vertex 7.073670 8.357803 0.000000
endloop
endfacet
facet normal -0.048992 -0.998799 0.000000
outer loop
vertex 7.076120 8.357683 0.050000
vertex 7.076120 8.357683 0.100000
vertex 7.073670 8.357803 0.100000
endloop
endfacet
facet normal -0.048992 -0.998799 0.000000
outer loop
vertex 7.076120 8.357683 0.050000
vertex 7.073670 8.357803 0.100000
vertex 7.073670 8.357803 0.050000
endloop
endfacet
facet normal -0.146605 -0.989195 0.000000
outer loop
vertex 7.073670 8.357803 0.050000
vertex 7.073670 8.357803 0.100000
vertex 7.071244 8.358163 0.100000
endloop
endfacet
facet normal -0.146605 -0.989195 0.000000
outer loop
vertex 7.073670 8.357803 0.050000
vertex 7.071244 8.358163 0.100000
vertex 7.071244 8.358163 0.050000
endloop
endfacet
facet normal -0.146605 -0.989195 0.000000
outer loop
vertex 7.073670 8.357803 0.000000
vertex 7.073670 8.357803 0.050000
vertex 7.071244 8.358163 0.050000
endloop
endfacet
facet normal -0.146605 -0.989195 0.000000
outer loop
vertex 7.073670 8.357803 0.000000
vertex 7.071244 8.358163 0.050000
vertex 7.071244 8.358163 0.000000
endloop
endfacet
facet normal -0.242993 -0.970028 0.000000
outer loop
vertex 7.071244 8.358163 0.000000
vertex 7.071244 8.358163 0.050000
vertex 7.068864 8.358759 0.050000
endloop
endfacet
facet normal -0.242878 -0.970057 0.000000
outer loop
vertex 7.071244 8.358163 0.000000
vertex 7.068864 8.358759 0.050000
vertex 7.068864 8.358759 0.000000
endloop
endfacet
facet normal -0.242993 -0.970028 0.000000
outer loop
vertex 7.071244 8.358163 0.050000
vertex 7.071244 8.358163 0.100000
vertex 7.068864 8.358759 0.100000
endloop
endfacet
facet normal -0.242878 -0.970057 0.000000
outer loop
vertex 7.071244 8.358163 0.050000
vertex 7.068864 8.358759 0.100000
vertex 7.068864 8.358759 0.050000
endloop
endfacet
facet normal -0.336964 -0.941518 0.000000
outer loop
vertex 7.068864 8.358759 0.050000
vertex 7.068864 8.358759 0.100000
vertex 7.066554 8.359586 0.100000
endloop
endfacet
facet normal -0.337118 -0.941462 0.000000
outer loop
vertex 7.068864 8.358759 0.050000
vertex 7.066554 8.359586 0.100000
vertex 7.066554 8.359586 0.050000
endloop
endfacet
facet normal -0.336964 -0.941518 0.000000
outer loop
vertex 7.068864 8.358759 0.000000
vertex 7.068864 8.358759 0.050000
vertex 7.066554 8.359586 0.050000
endloop
endfacet
facet normal -0.337118 -0.941462 0.000000
outer loop
vertex 7.068864 8.358759 0.000000
vertex 7.066554 8.359586 0.050000
vertex 7.066554 8.359586 0.000000
endloop
endfacet
facet normal -0.427163 -0.904175 0.000000
outer loop
vertex 7.066554 8.359586 0.000000
vertex 7.066554 8.359586 0.050000
vertex 7.064336 8.360634 0.050000
endloop
endfacet
facet normal -0.427481 -0.904025 -0.000030
outer loop
vertex 7.066554 8.359586 0.000000
vertex 7.064336 8.360634 0.050000
vertex 7.064336 8.360635 0.000000
endloop
endfacet
facet normal -0.427481 -0.904025 0.000000
outer loop
vertex 7.066554 8.359586 0.050000
vertex 7.066554 8.359586 0.100000
vertex 7.064336 8.360635 0.100000
endloop
endfacet
facet normal -0.427163 -0.904175 0.000030
outer loop
vertex 7.066554 8.359586 0.050000
vertex 7.064336 8.360635 0.100000
vertex 7.064336 8.360634 0.050000
endloop
endfacet
facet normal -0.513995 -0.857793 0.000000
outer loop
vertex 7.064336 8.360634 0.050000
vertex 7.064336 8.360635 0.100000
vertex 7.062232 8.361896 0.100000
endloop
endfacet
facet normal -0.514281 -0.857621 0.000000
outer loop
vertex 7.064336 8.360634 0.050000
vertex 7.062232 8.361896 0.100000
vertex 7.062232 8.361896 0.050000
endloop
endfacet
facet normal -0.514281 -0.857621 0.000000
outer loop
vertex 7.064336 8.360635 0.000000
vertex 7.064336 8.360634 0.050000
vertex 7.062232 8.361896 0.050000
endloop
endfacet
facet normal -0.513995 -0.857793 0.000000
outer loop
vertex 7.064336 8.360635 0.000000
vertex 7.062232 8.361896 0.050000
vertex 7.062232 8.361896 0.000000
endloop
endfacet
facet normal -0.595823 -0.803116 0.000000
outer loop
vertex 7.062232 8.361896 0.000000
vertex 7.062232 8.361896 0.050000
vertex 7.060262 8.363357 0.050000
endloop
endfacet
facet normal -0.595590 -0.803289 0.000000
outer loop
vertex 7.062232 8.361896 0.000000
vertex 7.060262 8.363357 0.050000
vertex 7.060262 8.363357 0.000000
endloop
endfacet
facet normal -0.595823 -0.803116 0.000000
outer loop
vertex 7.062232 8.361896 0.050000
vertex 7.062232 8.361896 0.100000
vertex 7.060262 8.363357 0.100000
endloop
endfacet
facet normal -0.595590 -0.803289 0.000000
outer loop
vertex 7.062232 8.361896 0.050000
vertex 7.060262 8.363357 0.100000
vertex 7.060262 8.363357 0.050000
endloop
endfacet
facet normal -0.671404 -0.741091 0.000000
outer loop
vertex 7.060262 8.363357 0.050000
vertex 7.060262 8.363357 0.100000
vertex 7.058444 8.365004 0.100000
endloop
endfacet
facet normal -0.671404 -0.741091 0.000000
outer loop
vertex 7.060262 8.363357 0.050000
vertex 7.058444 8.365004 0.100000
vertex 7.058444 8.365004 0.050000
endloop
endfacet
facet normal -0.671404 -0.741091 0.000000
outer loop
vertex 7.060262 8.363357 0.000000
vertex 7.060262 8.363357 0.050000
vertex 7.058444 8.365004 0.050000
endloop
endfacet
facet normal -0.671404 -0.741091 0.000000
outer loop
vertex 7.060262 8.363357 0.000000
vertex 7.058444 8.365004 0.050000
vertex 7.058444 8.365004 0.000000
endloop
endfacet
facet normal -0.741368 -0.671099 0.000000
outer loop
vertex 7.058444 8.365004 0.000000
vertex 7.058444 8.365004 0.050000
vertex 7.056797 8.366822 0.050000
endloop
endfacet
facet normal -0.741126 -0.671366 0.000000
outer loop
vertex 7.058444 8.365004 0.000000
vertex 7.056797 8.366822 0.050000
vertex 7.056797 8.366822 0.000000
endloop
endfacet
facet normal -0.741368 -0.671099 0.000000
outer loop
vertex 7.058444 8.365004 0.050000
vertex 7.058444 8.365004 0.100000
vertex 7.056797 8.366822 0.100000
endloop
endfacet
facet normal -0.741126 -0.671366 0.000000
outer loop
vertex 7.058444 8.365004 0.050000
vertex 7.056797 8.366822 0.100000
vertex 7.056797 8.366822 0.050000
endloop
endfacet
facet normal -0.803023 -0.595948 0.000000
outer loop
vertex 7.056797 8.366822 0.050000
vertex 7.056797 8.366822 0.100000
vertex 7.055336 8.368792 0.100000
endloop
endfacet
facet normal -0.803393 -0.595448 0.000000
outer loop
vertex 7.056797 8.366822 0.050000
vertex 7.055336 8.368792 0.100000
vertex 7.055336 8.368793 0.050000
endloop
endfacet
facet normal -0.803161 -0.595762 0.000000
outer loop
vertex 7.056797 8.366822 0.000000
vertex 7.056797 8.366822 0.050000
vertex 7.055336 8.368793 0.050000
endloop
endfacet
facet normal -0.803256 -0.595634 0.000000
outer loop
vertex 7.056797 8.366822 0.000000
vertex 7.055336 8.368793 0.050000
vertex 7.055336 8.368792 0.000000
endloop
endfacet
facet normal -0.857467 -0.514539 0.000000
outer loop
vertex 7.055336 8.368792 0.000000
vertex 7.055336 8.368793 0.050000
vertex 7.054074 8.370896 0.050000
endloop
endfacet
facet normal -0.857887 -0.513839 -0.000012
outer loop
vertex 7.055336 8.368792 0.000000
vertex 7.054074 8.370896 0.050000
vertex 7.054075 8.370897 0.000000
endloop
endfacet
facet normal -0.857887 -0.513839 0.000000
outer loop
vertex 7.055336 8.368793 0.050000
vertex 7.055336 8.368792 0.100000
vertex 7.054075 8.370897 0.100000
endloop
endfacet
facet normal -0.857467 -0.514539 0.000012
outer loop
vertex 7.055336 8.368793 0.050000
vertex 7.054075 8.370897 0.100000
vertex 7.054074 8.370896 0.050000
endloop
endfacet
facet normal -0.903677 -0.428216 0.000015
outer loop
vertex 7.054074 8.370896 0.050000
vertex 7.054075 8.370897 0.100000
vertex 7.053025 8.373114 0.100000
endloop
endfacet
facet normal -0.903936 -0.427668 0.000000
outer loop
vertex 7.054074 8.370896 0.050000
vertex 7.053025 8.373114 0.100000
vertex 7.053025 8.373114 0.050000
endloop
endfacet
facet normal -0.903936 -0.427669 -0.000015
outer loop
vertex 7.054075 8.370897 0.000000
vertex 7.054074 8.370896 0.050000
vertex 7.053025 8.373114 0.050000
endloop
endfacet
facet normal -0.903677 -0.428216 0.000000
outer loop
vertex 7.054075 8.370897 0.000000
vertex 7.053025 8.373114 0.050000
vertex 7.053025 8.373114 0.000000
endloop
endfacet
facet normal -0.941588 -0.336767 0.000000
outer loop
vertex 7.053025 8.373114 0.000000
vertex 7.053025 8.373114 0.050000
vertex 7.052199 8.375423 0.050000
endloop
endfacet
facet normal -0.941742 -0.336336 0.000000
outer loop
vertex 7.053025 8.373114 0.000000
vertex 7.052199 8.375423 0.050000
vertex 7.052199 8.375423 0.000000
endloop
endfacet
facet normal -0.941588 -0.336767 0.000000
outer loop
vertex 7.053025 8.373114 0.050000
vertex 7.053025 8.373114 0.100000
vertex 7.052199 8.375423 0.100000
endloop
endfacet
facet normal -0.941742 -0.336336 0.000000
outer loop
vertex 7.053025 8.373114 0.050000
vertex 7.052199 8.375423 0.100000
vertex 7.052199 8.375423 0.050000
endloop
endfacet
facet normal -0.970051 -0.242901 0.000000
outer loop
vertex 7.052199 8.375423 0.050000
vertex 7.052199 8.375423 0.100000
vertex 7.051603 8.377804 0.100000
endloop
endfacet
facet normal -0.970028 -0.242993 0.000000
outer loop
vertex 7.052199 8.375423 0.050000
vertex 7.051603 8.377804 0.100000
vertex 7.051603 8.377803 0.050000
endloop
endfacet
facet normal -0.970028 -0.242993 0.000000
outer loop
vertex 7.052199 8.375423 0.000000
vertex 7.052199 8.375423 0.050000
vertex 7.051603 8.377803 0.050000
endloop
endfacet
facet normal -0.970051 -0.242901 0.000000
outer loop
vertex 7.052199 8.375423 0.000000
vertex 7.051603 8.377803 0.050000
vertex 7.051603 8.377804 0.000000
endloop
endfacet
facet normal -0.989177 -0.146725 0.000000
outer loop
vertex 7.051603 8.377804 0.000000
vertex 7.051603 8.377803 0.050000
vertex 7.051243 8.380230 0.050000
endloop
endfacet
facet normal -0.989169 -0.146781 0.000000
outer loop
vertex 7.051603 8.377804 0.000000
vertex 7.051243 8.380230 0.050000
vertex 7.051243 8.380230 0.000000
endloop
endfacet
facet normal -0.989169 -0.146781 0.000000
outer loop
vertex 7.051603 8.377803 0.050000
vertex 7.051603 8.377804 0.100000
vertex 7.051243 8.380230 0.100000
endloop
endfacet
facet normal -0.989177 -0.146725 0.000000
outer loop
vertex 7.051603 8.377803 0.050000
vertex 7.051243 8.380230 0.100000
vertex 7.051243 8.380230 0.050000
endloop
endfacet
facet normal -0.998795 -0.049084 0.000000
outer loop
vertex 7.051243 8.380230 0.050000
vertex 7.051243 8.380230 0.100000
vertex 7.051123 8.382680 0.100000
endloop
endfacet
facet normal -0.998795 -0.049084 0.000000
outer loop
vertex 7.051243 8.380230 0.050000
vertex 7.051123 8.382680 0.100000
vertex 7.051123 8.382680 0.050000
endloop
endfacet
facet normal -0.998795 -0.049084 0.000000
outer loop
vertex 7.051243 8.380230 0.000000
vertex 7.051243 8.380230 0.050000
vertex 7.051123 8.382680 0.050000
endloop
endfacet
facet normal -0.998795 -0.049084 0.000000
outer loop
vertex 7.051243 8.380230 0.000000
vertex 7.051123 8.382680 0.050000
vertex 7.051123 8.382680 0.000000
endloop
endfacet
facet normal -0.998794 0.049103 0.000000
outer loop
vertex 7.051123 8.382680 0.000000
vertex 7.051123 8.382680 0.050000
vertex 7.051243 8.385129 0.050000
endloop
endfacet
facet normal -0.998794 0.049103 0.000000
outer loop
vertex 7.051123 8.382680 0.000000
vertex 7.051243 8.385129 0.050000
vertex 7.051243 8.385129 0.000000
endloop
endfacet
facet normal -0.998794 0.049103 0.000000
outer loop
vertex 7.051123 8.382680 0.050000
vertex 7.051123 8.382680 0.100000
vertex 7.051243 8.385129 0.100000
endloop
endfacet
facet normal -0.998794 0.049103 0.000000
outer loop
vertex 7.051123 8.382680 0.050000
vertex 7.051243 8.385129 0.100000
vertex 7.051243 8.385129 0.050000
endloop
endfacet
facet normal -0.989186 0.146668 0.000000
outer loop
vertex 7.051243 8.385129 0.050000
vertex 7.051243 8.385129 0.100000
vertex 7.051603 8.387557 0.100000
endloop
endfacet
facet normal -0.989186 0.146668 0.000000
outer loop
vertex 7.051243 8.385129 0.050000
vertex 7.051603 8.387557 0.100000
vertex 7.051603 8.387557 0.050000
endloop
endfacet
facet normal -0.989186 0.146668 0.000000
outer loop
vertex 7.051243 8.385129 0.000000
vertex 7.051243 8.385129 0.050000
vertex 7.051603 8.387557 0.050000
endloop
endfacet
facet normal -0.989186 0.146668 0.000000
outer loop
vertex 7.051243 8.385129 0.000000
vertex 7.051603 8.387557 0.050000
vertex 7.051603 8.387557 0.000000
endloop
endfacet
facet normal -0.970028 0.242993 0.000000
outer loop
vertex 7.051603 8.387557 0.000000
vertex 7.051603 8.387557 0.050000
vertex 7.052199 8.389936 0.050000
endloop
endfacet
facet normal -0.970028 0.242993 0.000000
outer loop
vertex 7.051603 8.387557 0.000000
vertex 7.052199 8.389936 0.050000
vertex 7.052199 8.389936 0.000000
endloop
endfacet
facet normal -0.970028 0.242993 0.000000
outer loop
vertex 7.051603 8.387557 0.050000
vertex 7.051603 8.387557 0.100000
vertex 7.052199 8.389936 0.100000
endloop
endfacet
facet normal -0.970028 0.242993 0.000000
outer loop
vertex 7.051603 8.387557 0.050000
vertex 7.052199 8.389936 0.100000
vertex 7.052199 8.389936 0.050000
endloop
endfacet
facet normal -0.941544 0.336891 0.000000
outer loop
vertex 7.052199 8.389936 0.050000
vertex 7.052199 8.389936 0.100000
vertex 7.053026 8.392245 0.100000
endloop
endfacet
facet normal -0.941390 0.337321 0.000000
outer loop
vertex 7.052199 8.389936 0.050000
vertex 7.053026 8.392245 0.100000
vertex 7.053026 8.392245 0.050000
endloop
endfacet
facet normal -0.941544 0.336891 0.000000
outer loop
vertex 7.052199 8.389936 0.000000
vertex 7.052199 8.389936 0.050000
vertex 7.053026 8.392245 0.050000
endloop
endfacet
facet normal -0.941390 0.337322 0.000000
outer loop
vertex 7.052199 8.389936 0.000000
vertex 7.053026 8.392245 0.050000
vertex 7.053026 8.392245 0.000000
endloop
endfacet
facet normal -0.904265 0.426971 0.000000
outer loop
vertex 7.053026 8.392245 0.000000
vertex 7.053026 8.392245 0.050000
vertex 7.054074 8.394464 0.050000
endloop
endfacet
facet normal -0.904078 0.427368 -0.000029
outer loop
vertex 7.053026 8.392245 0.000000
vertex 7.054074 8.394464 0.050000
vertex 7.054075 8.394464 0.000000
endloop
endfacet
facet normal -0.904078 0.427368 0.000000
outer loop
vertex 7.053026 8.392245 0.050000
vertex 7.053026 8.392245 0.100000
vertex 7.054075 8.394464 0.100000
endloop
endfacet
facet normal -0.904265 0.426971 0.000029
outer loop
vertex 7.053026 8.392245 0.050000
vertex 7.054075 8.394464 0.100000
vertex 7.054074 8.394464 0.050000
endloop
endfacet
facet normal -0.857476 0.514524 0.000015
outer loop
vertex 7.054074 8.394464 0.050000
vertex 7.054075 8.394464 0.100000
vertex 7.055336 8.396566 0.100000
endloop
endfacet
facet normal -0.857261 0.514882 0.000000
outer loop
vertex 7.054074 8.394464 0.050000
vertex 7.055336 8.396566 0.100000
vertex 7.055336 8.396566 0.050000
endloop
endfacet
facet normal -0.857261 0.514882 -0.000015
outer loop
vertex 7.054075 8.394464 0.000000
vertex 7.054074 8.394464 0.050000
vertex 7.055336 8.396566 0.050000
endloop
endfacet
facet normal -0.857476 0.514524 0.000000
outer loop
vertex 7.054075 8.394464 0.000000
vertex 7.055336 8.396566 0.050000
vertex 7.055336 8.396566 0.000000
endloop
endfacet
facet normal -0.803531 0.595262 0.000000
outer loop
vertex 7.055336 8.396566 0.000000
vertex 7.055336 8.396566 0.050000
vertex 7.056797 8.398538 0.050000
endloop
endfacet
facet normal -0.803299 0.595576 0.000000
outer loop
vertex 7.055336 8.396566 0.000000
vertex 7.056797 8.398538 0.050000
vertex 7.056797 8.398538 0.000000
endloop
endfacet
facet normal -0.803531 0.595262 0.000000
outer loop
vertex 7.055336 8.396566 0.050000
vertex 7.055336 8.396566 0.100000
vertex 7.056797 8.398538 0.100000
endloop
endfacet
facet normal -0.803299 0.595576 0.000000
outer loop
vertex 7.055336 8.396566 0.050000
vertex 7.056797 8.398538 0.100000
vertex 7.056797 8.398538 0.050000
endloop
endfacet
facet normal -0.740775 0.671753 0.000000
outer loop
vertex 7.056797 8.398538 0.050000
vertex 7.056797 8.398538 0.100000
vertex 7.058444 8.400354 0.100000
endloop
endfacet
facet normal -0.741017 0.671486 0.000000
outer loop
vertex 7.056797 8.398538 0.050000
vertex 7.058444 8.400354 0.100000
vertex 7.058444 8.400354 0.050000
endloop
endfacet
facet normal -0.740775 0.671753 0.000000
outer loop
vertex 7.056797 8.398538 0.000000
vertex 7.056797 8.398538 0.050000
vertex 7.058444 8.400354 0.050000
endloop
endfacet
facet normal -0.741017 0.671486 0.000000
outer loop
vertex 7.056797 8.398538 0.000000
vertex 7.058444 8.400354 0.050000
vertex 7.058444 8.400354 0.000000
endloop
endfacet
facet normal -0.671618 0.740898 0.000000
outer loop
vertex 7.058444 8.400354 0.000000
vertex 7.058444 8.400354 0.050000
vertex 7.060262 8.402002 0.050000
endloop
endfacet
facet normal -0.671831 0.740704 0.000000
outer loop
vertex 7.058444 8.400354 0.000000
vertex 7.060262 8.402002 0.050000
vertex 7.060262 8.402003 0.000000
endloop
endfacet
facet normal -0.671831 0.740704 0.000000
outer loop
vertex 7.058444 8.400354 0.050000
vertex 7.058444 8.400354 0.100000
vertex 7.060262 8.402003 0.100000
endloop
endfacet
facet normal -0.671618 0.740898 0.000000
outer loop
vertex 7.058444 8.400354 0.050000
vertex 7.060262 8.402003 0.100000
vertex 7.060262 8.402002 0.050000
endloop
endfacet
facet normal -0.595339 0.803475 0.000000
outer loop
vertex 7.060262 8.402002 0.050000
vertex 7.060262 8.402003 0.100000
vertex 7.062232 8.403463 0.100000
endloop
endfacet
facet normal -0.595590 0.803289 -0.000017
outer loop
vertex 7.060262 8.402002 0.050000
vertex 7.062232 8.403463 0.100000
vertex 7.062233 8.403463 0.050000
endloop
endfacet
facet normal -0.595590 0.803289 0.000000
outer loop
vertex 7.060262 8.402003 0.000000
vertex 7.060262 8.402002 0.050000
vertex 7.062233 8.403463 0.050000
endloop
endfacet
facet normal -0.595339 0.803475 0.000017
outer loop
vertex 7.060262 8.402003 0.000000
vertex 7.062233 8.403463 0.050000
vertex 7.062232 8.403463 0.000000
endloop
endfacet
facet normal -0.514782 0.857321 0.000000
outer loop
vertex 7.062232 8.403463 0.000000
vertex 7.062233 8.403463 0.050000
vertex 7.064336 8.404726 0.050000
endloop
endfacet
facet normal -0.514353 0.857579 -0.000007
outer loop
vertex 7.062232 8.403463 0.000000
vertex 7.064336 8.404726 0.050000
vertex 7.064337 8.404726 0.000000
endloop
endfacet
facet normal -0.514353 0.857579 0.000000
outer loop
vertex 7.062233 8.403463 0.050000
vertex 7.062232 8.403463 0.100000
vertex 7.064337 8.404726 0.100000
endloop
endfacet
facet normal -0.514782 0.857321 0.000007
outer loop
vertex 7.062233 8.403463 0.050000
vertex 7.064337 8.404726 0.100000
vertex 7.064336 8.404726 0.050000
endloop
endfacet
facet normal -0.427351 0.904086 0.000030
outer loop
vertex 7.064336 8.404726 0.050000
vertex 7.064337 8.404726 0.100000
vertex 7.066554 8.405774 0.100000
endloop
endfacet
facet normal -0.427163 0.904175 0.000000
outer loop
vertex 7.064336 8.404726 0.050000
vertex 7.066554 8.405774 0.100000
vertex 7.066554 8.405774 0.050000
endloop
endfacet
facet normal -0.427163 0.904175 -0.000030
outer loop
vertex 7.064337 8.404726 0.000000
vertex 7.064336 8.404726 0.050000
vertex 7.066554 8.405774 0.050000
endloop
endfacet
facet normal -0.427351 0.904086 0.000000
outer loop
vertex 7.064337 8.404726 0.000000
vertex 7.066554 8.405774 0.050000
vertex 7.066554 8.405774 0.000000
endloop
endfacet
facet normal 0.000008 0.000000 1.000000
outer loop
vertex 7.080998 8.407200 0.100000
vertex 7.078570 8.407557 0.100000
vertex 7.076121 8.382681 0.100000
endloop
endfacet
facet normal 0.000000 0.000000 1.000000
outer loop
vertex 7.080998 8.407200 0.100000
vertex 7.076121 8.382681 0.100000
vertex 7.083377 8.406600 0.100000
endloop
endfacet
facet normal 0.000000 0.000000 1.000000
outer loop
vertex 7.076120 8.407681 0.100000
vertex 7.073670 8.407557 0.100000
vertex 7.076121 8.382681 0.100000
endloop
endfacet
facet normal 0.000000 0.000000 1.000000
outer loop
vertex 7.076120 8.407681 0.100000
vertex 7.076121 8.382681 0.100000
vertex 7.078570 8.407557 0.100000
endloop
endfacet
facet normal 0.000000 0.000000 1.000000
outer loop
vertex 7.071243 8.407200 0.100000
vertex 7.068864 8.406600 0.100000
vertex 7.076121 8.382681 0.100000
endloop
endfacet
facet normal -0.000008 0.000000 1.000000
outer loop
vertex 7.071243 8.407200 0.100000
vertex 7.076121 8.382681 0.100000
vertex 7.073670 8.407557 0.100000
endloop
endfacet
facet normal 0.000008 0.000000 1.000000
outer loop
vertex 7.066553 8.405776 0.100000
vertex 7.064336 8.404726 0.100000
vertex 7.076121 8.382681 0.100000
endloop
endfacet
facet normal -0.000008 0.000000 1.000000
outer loop
vertex 7.066553 8.405776 0.100000
vertex 7.076121 8.382681 0.100000
vertex 7.068864 8.406600 0.100000
endloop
endfacet
facet normal 0.000000 0.000000 1.000000
outer loop
vertex 7.062231 8.403466 0.100000
vertex 7.060262 8.402003 0.100000
vertex 7.076121 8.382681 0.100000
endloop
endfacet
facet normal 0.000000 0.000000 1.000000
outer loop
vertex 7.062231 8.403466 0.100000
vertex 7.076121 8.382681 0.100000
vertex 7.064336 8.404726 0.100000
endloop
endfacet
facet normal 0.000004 0.000000 1.000000
outer loop
vertex 7.058443 8.400357 0.100000
vertex 7.056797 8.398538 0.100000
vertex 7.076121 8.382681 0.100000
endloop
endfacet
facet normal 0.000000 0.000000 1.000000
outer loop
vertex 7.058443 8.400357 0.100000
vertex 7.076121 8.382681 0.100000
vertex 7.060262 8.402003 0.100000
endloop
endfacet
facet normal -0.000004 0.000000 1.000000
outer loop
vertex 7.055333 8.396568 0.100000
vertex 7.054075 8.394464 0.100000
vertex 7.076121 8.382681 0.100000
endloop
endfacet
facet normal 0.000000 0.000000 1.000000
outer loop
vertex 7.055333 8.396568 0.100000
vertex 7.076121 8.382681 0.100000
vertex 7.056797 8.398538 0.100000
endloop
endfacet
facet normal 0.000000 0.000000 1.000000
outer loop
vertex 7.053023 8.392246 0.100000
vertex 7.052199 8.389936 0.100000
vertex 7.076121 8.382681 0.100000
endloop
endfacet
facet normal 0.000000 0.000000 1.000000
outer loop
vertex 7.053023 8.392246 0.100000
vertex 7.076121 8.382681 0.100000
vertex 7.054075 8.394464 0.100000
endloop
endfacet
facet normal 0.000000 0.000000 1.000000
outer loop
vertex 7.051601 8.387557 0.100000
vertex 7.051243 8.385129 0.100000
vertex 7.076121 8.382681 0.100000
endloop
endfacet
facet normal 0.000002 0.000000 1.000000
outer loop
vertex 7.051601 8.387557 0.100000
vertex 7.076121 8.382681 0.100000
vertex 7.052199 8.389936 0.100000
endloop
endfacet
facet normal 0.000000 0.000000 1.000000
outer loop
vertex 7.051120 8.382680 0.100000
vertex 7.051243 8.380230 0.100000
vertex 7.076121 8.382681 0.100000
endloop
endfacet
facet normal 0.000000 0.000000 1.000000
outer loop
vertex 7.051120 8.382680 0.100000
vertex 7.076121 8.382681 0.100000
vertex 7.051243 8.385129 0.100000
endloop
endfacet
facet normal 0.000000 0.000000 1.000000
outer loop
vertex 7.051601 8.377803 0.100000
vertex 7.052199 8.375423 0.100000
vertex 7.076121 8.382681 0.100000
endloop
endfacet
facet normal 0.000000 0.000000 1.000000
outer loop
vertex 7.051601 8.377803 0.100000
vertex 7.076121 8.382681 0.100000
vertex 7.051243 8.380230 0.100000
endloop
endfacet
facet normal -0.000004 0.000000 1.000000
outer loop
vertex 7.053023 8.373113 0.100000
vertex 7.054074 8.370896 0.100000
vertex 7.076121 8.382681 0.100000
endloop
endfacet
facet normal 0.000000 0.000000 1.000000
outer loop
vertex 7.053023 8.373113 0.100000
vertex 7.076121 8.382681 0.100000
vertex 7.052199 8.375423 0.100000
endloop
endfacet
facet normal 0.000000 0.000000 1.000000
outer loop
vertex 7.055333 8.368791 0.100000
vertex 7.056797 8.366822 0.100000
vertex 7.076121 8.382681 0.100000
endloop
endfacet
facet normal 0.000004 0.000000 1.000000
outer loop
vertex 7.055333 8.368791 0.100000
vertex 7.076121 8.382681 0.100000
vertex 7.054074 8.370896 0.100000
endloop
endfacet
facet normal 0.000000 0.000000 1.000000
outer loop
vertex 7.058443 8.365003 0.100000
vertex 7.060262 8.363357 0.100000
vertex 7.076121 8.382681 0.100000
endloop
endfacet
facet normal 0.000000 0.000000 1.000000
outer loop
vertex 7.058443 8.365003 0.100000
vertex 7.076121 8.382681 0.100000
vertex 7.056797 8.366822 0.100000
endloop
endfacet
facet normal 0.000000 0.000000 1.000000
outer loop
vertex 7.062231 8.361893 0.100000
vertex 7.064337 8.360635 0.100000
vertex 7.076121 8.382681 0.100000
endloop
endfacet
facet normal 0.000000 0.000000 1.000000
outer loop
vertex 7.062231 8.361893 0.100000
vertex 7.076121 8.382681 0.100000
vertex 7.060262 8.363357 0.100000
endloop
endfacet
facet normal -0.000008 0.000000 1.000000
outer loop
vertex 7.066553 8.359583 0.100000
vertex 7.068864 8.358759 0.100000
vertex 7.076121 8.382681 0.100000
endloop
endfacet
facet normal 0.000000 0.000000 1.000000
outer loop
vertex 7.066553 8.359583 0.100000
vertex 7.076121 8.382681 0.100000
vertex 7.064337 8.360635 0.100000
endloop
endfacet
facet normal 0.000000 0.000000 1.000000
outer loop
vertex 7.071243 8.358162 0.100000
vertex 7.073670 8.357803 0.100000
vertex 7.076121 8.382681 0.100000
endloop
endfacet
facet normal 0.000008 0.000000 1.000000
outer loop
vertex 7.071243 8.358162 0.100000
vertex 7.076121 8.382681 0.100000
vertex 7.068864 8.358759 0.100000
endloop
endfacet
facet normal 0.000000 0.000000 1.000000
outer loop
vertex 7.076120 8.357680 0.100000
vertex 7.078570 8.357803 0.100000
vertex 7.076121 8.382681 0.100000
endloop
endfacet
facet normal 0.000000 0.000000 1.000000
outer loop
vertex 7.076120 8.357680 0.100000
vertex 7.076121 8.382681 0.100000
vertex 7.073670 8.357803 0.100000
endloop
endfacet
facet normal -0.000008 0.000000 1.000000
outer loop
vertex 7.080998 8.358162 0.100000
vertex 7.083377 8.358759 0.100000
vertex 7.076121 8.382681 0.100000
endloop
endfacet
facet normal 0.000000 0.000000 1.000000
outer loop
vertex 7.080998 8.358162 0.100000
vertex 7.076121 8.382681 0.100000
vertex 7.078570 8.357803 0.100000
endloop
endfacet
facet normal 0.000000 0.000000 1.000000
outer loop
vertex 7.085687 8.359583 0.100000
vertex 7.087904 8.360634 0.100000
vertex 7.076121 8.382681 0.100000
endloop
endfacet
facet normal 0.000008 0.000000 1.000000
outer loop
vertex 7.085687 8.359583 0.100000
vertex 7.076121 8.382681 0.100000
vertex 7.083377 8.358759 0.100000
endloop
endfacet
facet normal 0.000000 0.000000 1.000000
outer loop
vertex 7.090009 8.361893 0.100000
vertex 7.091978 8.363357 0.100000
vertex 7.076121 8.382681 0.100000
endloop
endfacet
facet normal 0.000000 0.000000 1.000000
outer loop
vertex 7.090009 8.361893 0.100000
vertex 7.076121 8.382681 0.100000
vertex 7.087904 8.360634 0.100000
endloop
endfacet
facet normal 0.000000 0.000000 1.000000
outer loop
vertex 7.093797 8.365003 0.100000
vertex 7.095443 8.366822 0.100000
vertex 7.076121 8.382681 0.100000
endloop
endfacet
facet normal 0.000000 0.000000 1.000000
outer loop
vertex 7.093797 8.365003 0.100000
vertex 7.076121 8.382681 0.100000
vertex 7.091978 8.363357 0.100000
endloop
endfacet
facet normal 0.000000 0.000000 1.000000
outer loop
vertex 7.096906 8.368791 0.100000
vertex 7.098166 8.370897 0.100000
vertex 7.076121 8.382681 0.100000
endloop
endfacet
facet normal 0.000000 0.000000 1.000000
outer loop
vertex 7.096906 8.368791 0.100000
vertex 7.076121 8.382681 0.100000
vertex 7.095443 8.366822 0.100000
endloop
endfacet
facet normal 0.000000 0.000000 1.000000
outer loop
vertex 7.099217 8.373113 0.100000
vertex 7.100041 8.375423 0.100000
vertex 7.076121 8.382681 0.100000
endloop
endfacet
facet normal 0.000000 0.000000 1.000000
outer loop
vertex 7.099217 8.373113 0.100000
vertex 7.076121 8.382681 0.100000
vertex 7.098166 8.370897 0.100000
endloop
endfacet
facet normal 0.000000 0.000000 1.000000
outer loop
vertex 7.100640 8.377803 0.100000
vertex 7.100998 8.380230 0.100000
vertex 7.076121 8.382681 0.100000
endloop
endfacet
facet normal 0.000000 0.000000 1.000000
outer loop
vertex 7.100640 8.377803 0.100000
vertex 7.076121 8.382681 0.100000
vertex 7.100041 8.375423 0.100000
endloop
endfacet
facet normal 0.000000 0.000000 1.000000
outer loop
vertex 7.101120 8.382680 0.100000
vertex 7.100998 8.385129 0.100000
vertex 7.076121 8.382681 0.100000
endloop
endfacet
facet normal 0.000000 0.000000 1.000000
outer loop
vertex 7.101120 8.382680 0.100000
vertex 7.076121 8.382681 0.100000
vertex 7.100998 8.380230 0.100000
endloop
endfacet
facet normal -0.000002 0.000000 1.000000
outer loop
vertex 7.100640 8.387557 0.100000
vertex 7.100041 8.389936 0.100000
vertex 7.076121 8.382681 0.100000
endloop
endfacet
facet normal 0.000000 0.000000 1.000000
outer loop
vertex 7.100640 8.387557 0.100000
vertex 7.076121 8.382681 0.100000
vertex 7.100998 8.385129 0.100000
endloop
endfacet
facet normal 0.000000 0.000000 1.000000
outer loop
vertex 7.099217 8.392246 0.100000
vertex 7.098166 8.394464 0.100000
vertex 7.076121 8.382681 0.100000
endloop
endfacet
facet normal 0.000000 0.000000 1.000000
outer loop
vertex 7.099217 8.392246 0.100000
vertex 7.076121 8.382681 0.100000
vertex 7.100041 8.389936 0.100000
endloop
endfacet
facet normal 0.000000 0.000000 1.000000
outer loop
vertex 7.096906 8.396568 0.100000
vertex 7.095443 8.398538 0.100000
vertex 7.076121 8.382681 0.100000
endloop
endfacet
facet normal 0.000004 0.000000 1.000000
outer loop
vertex 7.096906 8.396568 0.100000
vertex 7.076121 8.382681 0.100000
vertex 7.098166 8.394464 0.100000
endloop
endfacet
facet normal 0.000000 0.000000 1.000000
outer loop
vertex 7.093797 8.400357 0.100000
vertex 7.091978 8.402003 0.100000
vertex 7.076121 8.382681 0.100000
endloop
endfacet
facet normal -0.000004 0.000000 1.000000
outer loop
vertex 7.093797 8.400357 0.100000
vertex 7.076121 8.382681 0.100000
vertex 7.095443 8.398538 0.100000
endloop
endfacet
facet normal 0.000000 0.000000 1.000000
outer loop
vertex 7.090009 8.403466 0.100000
vertex 7.087904 8.404726 0.100000
vertex 7.076121 8.382681 0.100000
endloop
endfacet
facet normal 0.000000 0.000000 1.000000
outer loop
vertex 7.090009 8.403466 0.100000
vertex 7.076121 8.382681 0.100000
vertex 7.091978 8.402003 0.100000
endloop
endfacet
facet normal 0.000008 0.000000 1.000000
outer loop
vertex 7.085687 8.405776 0.100000
vertex 7.083377 8.406600 0.100000
vertex 7.076121 8.382681 0.100000
endloop
endfacet
facet normal -0.000008 0.000000 1.000000
outer loop
vertex 7.085687 8.405776 0.100000
vertex 7.076121 8.382681 0.100000
vertex 7.087904 8.404726 0.100000
endloop
endfacet
facet normal -0.336774 0.941586 0.000000
outer loop
vertex 7.066554 8.405774 0.000000
vertex 7.066554 8.405774 0.050000
vertex 7.068864 8.406600 0.050000
endloop
endfacet
facet normal -0.336620 0.941641 0.000000
outer loop
vertex 7.066554 8.405774 0.000000
vertex 7.068864 8.406600 0.050000
vertex 7.068864 8.406600 0.000000
endloop
endfacet
facet normal -0.336774 0.941586 0.000000
outer loop
vertex 7.066554 8.405774 0.050000
vertex 7.066554 8.405774 0.100000
vertex 7.068864 8.406600 0.100000
endloop
endfacet
facet normal -0.336620 0.941641 0.000000
outer loop
vertex 7.066554 8.405774 0.050000
vertex 7.068864 8.406600 0.100000
vertex 7.068864 8.406600 0.050000
endloop
endfacet
facet normal -0.243244 0.969965 0.000000
outer loop
vertex 7.068864 8.406600 0.050000
vertex 7.068864 8.406600 0.100000
vertex 7.071244 8.407197 0.100000
endloop
endfacet
facet normal -0.243474 0.969908 -0.000016
outer loop
vertex 7.068864 8.406600 0.050000
vertex 7.071244 8.407197 0.100000
vertex 7.071243 8.407197 0.050000
endloop
endfacet
facet normal -0.243474 0.969908 0.000000
outer loop
vertex 7.068864 8.406600 0.000000
vertex 7.068864 8.406600 0.050000
vertex 7.071243 8.407197 0.050000
endloop
endfacet
facet normal -0.243244 0.969965 0.000016
outer loop
vertex 7.068864 8.406600 0.000000
vertex 7.071243 8.407197 0.050000
vertex 7.071244 8.407197 0.000000
endloop
endfacet
facet normal -0.146535 0.989206 -0.000030
outer loop
vertex 7.071244 8.407197 0.000000
vertex 7.071243 8.407197 0.050000
vertex 7.073670 8.407557 0.050000
endloop
endfacet
facet normal -0.146605 0.989195 0.000000
outer loop
vertex 7.071244 8.407197 0.000000
vertex 7.073670 8.407557 0.050000
vertex 7.073670 8.407557 0.000000
endloop
endfacet
facet normal -0.146605 0.989195 0.000030
outer loop
vertex 7.071243 8.407197 0.050000
vertex 7.071244 8.407197 0.100000
vertex 7.073670 8.407557 0.100000
endloop
endfacet
facet normal -0.146535 0.989206 0.000000
outer loop
vertex 7.071243 8.407197 0.050000
vertex 7.073670 8.407557 0.100000
vertex 7.073670 8.407557 0.050000
endloop
endfacet
facet normal -0.049380 0.998780 0.000000
outer loop
vertex 7.073670 8.407557 0.050000
vertex 7.073670 8.407557 0.100000
vertex 7.076120 8.407678 0.100000
endloop
endfacet
facet normal -0.049380 0.998780 0.000000
outer loop
vertex 7.073670 8.407557 0.050000
vertex 7.076120 8.407678 0.100000
vertex 7.076120 8.407678 0.050000
endloop
endfacet
facet normal -0.049380 0.998780 0.000000
outer loop
vertex 7.073670 8.407557 0.000000
vertex 7.073670 8.407557 0.050000
vertex 7.076120 8.407678 0.050000
endloop
endfacet
facet normal -0.049380 0.998780 0.000000
outer loop
vertex 7.073670 8.407557 0.000000
vertex 7.076120 8.407678 0.050000
vertex 7.076120 8.407678 0.000000
endloop
endfacet
facet normal 0.000000 0.000000 -1.000000
outer loop
vertex 7.076120 8.407681 0.000000
vertex 7.078570 8.407557 0.000000
vertex 7.076121 8.382681 0.000000
endloop
endfacet
facet normal 0.000000 0.000000 -1.000000
outer loop
vertex 7.076120 8.407681 0.000000
vertex 7.076121 8.382681 0.000000
vertex 7.073670 8.407557 0.000000
endloop
endfacet
facet normal 0.000000 0.000000 -1.000000
outer loop
vertex 7.080998 8.407200 0.000000
vertex 7.083377 8.406600 0.000000
vertex 7.076121 8.382681 0.000000
endloop
endfacet
facet normal 0.000000 0.000000 -1.000000
outer loop
vertex 7.080998 8.407200 0.000000
vertex 7.076121 8.382681 0.000000
vertex 7.078570 8.407557 0.000000
endloop
endfacet
facet normal 0.000000 0.000000 -1.000000
outer loop
vertex 7.085687 8.405776 0.000000
vertex 7.087904 8.404726 0.000000
vertex 7.076121 8.382681 0.000000
endloop
endfacet
facet normal 0.000000 0.000000 -1.000000
outer loop
vertex 7.085687 8.405776 0.000000
vertex 7.076121 8.382681 0.000000
vertex 7.083377 8.406600 0.000000
endloop
endfacet
facet normal 0.000000 0.000000 -1.000000
outer loop
vertex 7.090009 8.403466 0.000000
vertex 7.091978 8.402003 0.000000
vertex 7.076121 8.382681 0.000000
endloop
endfacet
facet normal 0.000000 0.000000 -1.000000
outer loop
vertex 7.090009 8.403466 0.000000
vertex 7.076121 8.382681 0.000000
vertex 7.087904 8.404726 0.000000
endloop
endfacet
facet normal 0.000000 0.000000 -1.000000
outer loop
vertex 7.093797 8.400357 0.000000
vertex 7.095443 8.398538 0.000000
vertex 7.076121 8.382681 0.000000
endloop
endfacet
facet normal 0.000000 0.000000 -1.000000
outer loop
vertex 7.093797 8.400357 0.000000
vertex 7.076121 8.382681 0.000000
vertex 7.091978 8.402003 0.000000
endloop
endfacet
facet normal 0.000000 0.000000 -1.000000
outer loop
vertex 7.096906 8.396568 0.000000
vertex 7.098166 8.394464 0.000000
vertex 7.076121 8.382681 0.000000
endloop
endfacet
facet normal 0.000000 0.000000 -1.000000
outer loop
vertex 7.096906 8.396568 0.000000
vertex 7.076121 8.382681 0.000000
vertex 7.095443 8.398538 0.000000
endloop
endfacet
facet normal 0.000000 0.000000 -1.000000
outer loop
vertex 7.099217 8.392246 0.000000
vertex 7.100041 8.389936 0.000000
vertex 7.076121 8.382681 0.000000
endloop
endfacet
facet normal 0.000000 0.000000 -1.000000
outer loop
vertex 7.099217 8.392246 0.000000
vertex 7.076121 8.382681 0.000000
vertex 7.098166 8.394464 0.000000
endloop
endfacet
facet normal 0.000000 0.000000 -1.000000
outer loop
vertex 7.100640 8.387557 0.000000
vertex 7.100998 8.385129 0.000000
vertex 7.076121 8.382681 0.000000
endloop
endfacet
facet normal 0.000000 0.000000 -1.000000
outer loop
vertex 7.100640 8.387557 0.000000
vertex 7.076121 8.382681 0.000000
vertex 7.100041 8.389936 0.000000
endloop
endfacet
facet normal 0.000000 0.000000 -1.000000
outer loop
vertex 7.101120 8.382680 0.000000
vertex 7.100998 8.380230 0.000000
vertex 7.076121 8.382681 0.000000
endloop
endfacet
facet normal 0.000000 0.000000 -1.000000
outer loop
vertex 7.101120 8.382680 0.000000
vertex 7.076121 8.382681 0.000000
vertex 7.100998 8.385129 0.000000
endloop
endfacet
facet normal 0.000000 0.000000 -1.000000
outer loop
vertex 7.100640 8.377803 0.000000
vertex 7.100041 8.375423 0.000000
vertex 7.076121 8.382681 0.000000
endloop
endfacet
facet normal 0.000000 0.000000 -1.000000
outer loop
vertex 7.100640 8.377803 0.000000
vertex 7.076121 8.382681 0.000000
vertex 7.100998 8.380230 0.000000
endloop
endfacet
facet normal 0.000000 0.000000 -1.000000
outer loop
vertex 7.099217 8.373113 0.000000
vertex 7.098166 8.370896 0.000000
vertex 7.076121 8.382681 0.000000
endloop
endfacet
facet normal 0.000000 0.000000 -1.000000
outer loop
vertex 7.099217 8.373113 0.000000
vertex 7.076121 8.382681 0.000000
vertex 7.100041 8.375423 0.000000
endloop
endfacet
facet normal 0.000000 0.000000 -1.000000
outer loop
vertex 7.096906 8.368791 0.000000
vertex 7.095443 8.366822 0.000000
vertex 7.076121 8.382681 0.000000
endloop
endfacet
facet normal 0.000000 0.000000 -1.000000
outer loop
vertex 7.096906 8.368791 0.000000
vertex 7.076121 8.382681 0.000000
vertex 7.098166 8.370896 0.000000
endloop
endfacet
facet normal 0.000000 0.000000 -1.000000
outer loop
vertex 7.093797 8.365003 0.000000
vertex 7.091978 8.363357 0.000000
vertex 7.076121 8.382681 0.000000
endloop
endfacet
facet normal 0.000000 0.000000 -1.000000
outer loop
vertex 7.093797 8.365003 0.000000
vertex 7.076121 8.382681 0.000000
vertex 7.095443 8.366822 0.000000
endloop
endfacet
facet normal 0.000000 0.000000 -1.000000
outer loop
vertex 7.090009 8.361893 0.000000
vertex 7.087904 8.360634 0.000000
vertex 7.076121 8.382681 0.000000
endloop
endfacet
facet normal 0.000000 0.000000 -1.000000
outer loop
vertex 7.090009 8.361893 0.000000
vertex 7.076121 8.382681 0.000000
vertex 7.091978 8.363357 0.000000
endloop
endfacet
facet normal 0.000000 0.000000 -1.000000
outer loop
vertex 7.085687 8.359583 0.000000
vertex 7.083377 8.358759 0.000000
vertex 7.076121 8.382681 0.000000
endloop
endfacet
facet normal 0.000000 0.000000 -1.000000
outer loop
vertex 7.085687 8.359583 0.000000
vertex 7.076121 8.382681 0.000000
vertex 7.087904 8.360634 0.000000
endloop
endfacet
facet normal 0.000000 0.000000 -1.000000
outer loop
vertex 7.080998 8.358162 0.000000
vertex 7.078570 8.357803 0.000000
vertex 7.076121 8.382681 0.000000
endloop
endfacet
facet normal 0.000000 0.000000 -1.000000
outer loop
vertex 7.080998 8.358162 0.000000
vertex 7.076121 8.382681 0.000000
vertex 7.083377 8.358759 0.000000
endloop
endfacet
facet normal 0.000000 0.000000 -1.000000
outer loop
vertex 7.076120 8.357680 0.000000
vertex 7.073670 8.357803 0.000000
vertex 7.076121 8.382681 0.000000
endloop
endfacet
facet normal 0.000000 0.000000 -1.000000
outer loop
vertex 7.076120 8.357680 0.000000
vertex 7.076121 8.382681 0.000000
vertex 7.078570 8.357803 0.000000
endloop
endfacet
facet normal 0.000000 0.000000 -1.000000
outer loop
vertex 7.071243 8.358162 0.000000
vertex 7.068864 8.358759 0.000000
vertex 7.076121 8.382681 0.000000
endloop
endfacet
facet normal 0.000000 0.000000 -1.000000
outer loop
vertex 7.071243 8.358162 0.000000
vertex 7.076121 8.382681 0.000000
vertex 7.073670 8.357803 0.000000
endloop
endfacet
facet normal 0.000000 0.000000 -1.000000
outer loop
vertex 7.066553 8.359583 0.000000
vertex 7.064336 8.360634 0.000000
vertex 7.076121 8.382681 0.000000
endloop
endfacet
facet normal 0.000000 0.000000 -1.000000
outer loop
vertex 7.066553 8.359583 0.000000
vertex 7.076121 8.382681 0.000000
vertex 7.068864 8.358759 0.000000
endloop
endfacet
facet normal 0.000000 0.000000 -1.000000
outer loop
vertex 7.062231 8.361893 0.000000
vertex 7.060262 8.363357 0.000000
vertex 7.076121 8.382681 0.000000
endloop
endfacet
facet normal 0.000000 0.000000 -1.000000
outer loop
vertex 7.062231 8.361893 0.000000
vertex 7.076121 8.382681 0.000000
vertex 7.064336 8.360634 0.000000
endloop
endfacet
facet normal 0.000000 0.000000 -1.000000
outer loop
vertex 7.058443 8.365003 0.000000
vertex 7.056797 8.366822 0.000000
vertex 7.076121 8.382681 0.000000
endloop
endfacet
facet normal 0.000000 0.000000 -1.000000
outer loop
vertex 7.058443 8.365003 0.000000
vertex 7.076121 8.382681 0.000000
vertex 7.060262 8.363357 0.000000
endloop
endfacet
facet normal 0.000000 0.000000 -1.000000
outer loop
vertex 7.055333 8.368791 0.000000
vertex 7.054074 8.370897 0.000000
vertex 7.076121 8.382681 0.000000
endloop
endfacet
facet normal 0.000000 0.000000 -1.000000
outer loop
vertex 7.055333 8.368791 0.000000
vertex 7.076121 8.382681 0.000000
vertex 7.056797 8.366822 0.000000
endloop
endfacet
facet normal 0.000000 0.000000 -1.000000
outer loop
vertex 7.053023 8.373113 0.000000
vertex 7.052199 8.375423 0.000000
vertex 7.076121 8.382681 0.000000
endloop
endfacet
facet normal 0.000000 0.000000 -1.000000
outer loop
vertex 7.053023 8.373113 0.000000
vertex 7.076121 8.382681 0.000000
vertex 7.054074 8.370897 0.000000
endloop
endfacet
facet normal 0.000000 0.000000 -1.000000
outer loop
vertex 7.051601 8.377803 0.000000
vertex 7.051243 8.380230 0.000000
vertex 7.076121 8.382681 0.000000
endloop
endfacet
facet normal 0.000000 0.000000 -1.000000
outer loop
vertex 7.051601 8.377803 0.000000
vertex 7.076121 8.382681 0.000000
vertex 7.052199 8.375423 0.000000
endloop
endfacet
facet normal 0.000000 0.000000 -1.000000
outer loop
vertex 7.051120 8.382680 0.000000
vertex 7.051243 8.385129 0.000000
vertex 7.076121 8.382681 0.000000
endloop
endfacet
facet normal 0.000000 0.000000 -1.000000
outer loop
vertex 7.051120 8.382680 0.000000
vertex 7.076121 8.382681 0.000000
vertex 7.051243 8.380230 0.000000
endloop
endfacet
facet normal 0.000000 0.000000 -1.000000
outer loop
vertex 7.051601 8.387557 0.000000
vertex 7.052199 8.389936 0.000000
vertex 7.076121 8.382681 0.000000
endloop
endfacet
facet normal 0.000000 0.000000 -1.000000
outer loop
vertex 7.051601 8.387557 0.000000
vertex 7.076121 8.382681 0.000000
vertex 7.051243 8.385129 0.000000
endloop
endfacet
facet normal 0.000000 0.000000 -1.000000
outer loop
vertex 7.053023 8.392246 0.000000
vertex 7.054074 8.394464 0.000000
vertex 7.076121 8.382681 0.000000
endloop
endfacet
facet normal 0.000000 0.000000 -1.000000
outer loop
vertex 7.053023 8.392246 0.000000
vertex 7.076121 8.382681 0.000000
vertex 7.052199 8.389936 0.000000
endloop
endfacet
facet normal 0.000000 0.000000 -1.000000
outer loop
vertex 7.055333 8.396568 0.000000
vertex 7.056797 8.398538 0.000000
vertex 7.076121 8.382681 0.000000
endloop
endfacet
facet normal 0.000000 0.000000 -1.000000
outer loop
vertex 7.055333 8.396568 0.000000
vertex 7.076121 8.382681 0.000000
vertex 7.054074 8.394464 0.000000
endloop
endfacet
facet normal 0.000000 0.000000 -1.000000
outer loop
vertex 7.058443 8.400357 0.000000
vertex 7.060262 8.402003 0.000000
vertex 7.076121 8.382681 0.000000
endloop
endfacet
facet normal 0.000000 0.000000 -1.000000
outer loop
vertex 7.058443 8.400357 0.000000
vertex 7.076121 8.382681 0.000000
vertex 7.056797 8.398538 0.000000
endloop
endfacet
facet normal 0.000000 0.000000 -1.000000
outer loop
vertex 7.062231 8.403466 0.000000
vertex 7.064337 8.404726 0.000000
vertex 7.076121 8.382681 0.000000
endloop
endfacet
facet normal 0.000000 0.000000 -1.000000
outer loop
vertex 7.062231 8.403466 0.000000
vertex 7.076121 8.382681 0.000000
vertex 7.060262 8.402003 0.000000
endloop
endfacet
facet normal 0.000000 0.000000 -1.000000
outer loop
vertex 7.066553 8.405776 0.000000
vertex 7.068864 8.406600 0.000000
vertex 7.076121 8.382681 0.000000
endloop
endfacet
facet normal 0.000000 0.000000 -1.000000
outer loop
vertex 7.066553 8.405776 0.000000
vertex 7.076121 8.382681 0.000000
vertex 7.064337 8.404726 0.000000
endloop
endfacet
facet normal 0.000000 0.000000 -1.000000
outer loop
vertex 7.071243 8.407200 0.000000
vertex 7.073670 8.407557 0.000000
vertex 7.076121 8.382681 0.000000
endloop
endfacet
facet normal 0.000000 0.000000 -1.000000
outer loop
vertex 7.071243 8.407200 0.000000
vertex 7.076121 8.382681 0.000000
vertex 7.068864 8.406600 0.000000
endloop
endfacet
endsolid Exported from Blender-2.82 (sub 7)
