solid Exported from Blender-2.82 (sub 7)
facet normal 0.049186 0.998790 0.000000
outer loop
vertex 7.808660 7.563058 0.000000
vertex 7.808660 7.563058 0.050000
vertex 7.811110 7.562937 0.050000
endloop
endfacet
facet normal 0.049186 0.998790 0.000000
outer loop
vertex 7.808660 7.563058 0.000000
vertex 7.811110 7.562937 0.050000
vertex 7.811110 7.562937 0.000000
endloop
endfacet
facet normal 0.049186 0.998790 0.000000
outer loop
vertex 7.808660 7.563058 0.050000
vertex 7.808660 7.563058 0.100000
vertex 7.811110 7.562937 0.100000
endloop
endfacet
facet normal 0.049186 0.998790 0.000000
outer loop
vertex 7.808660 7.563058 0.050000
vertex 7.811110 7.562937 0.100000
vertex 7.811110 7.562937 0.050000
endloop
endfacet
facet normal 0.146725 0.989177 0.000000
outer loop
vertex 7.811110 7.562937 0.050000
vertex 7.811110 7.562937 0.100000
vertex 7.813537 7.562577 0.100000
endloop
endfacet
facet normal 0.146725 0.989177 0.000000
outer loop
vertex 7.811110 7.562937 0.050000
vertex 7.813537 7.562577 0.100000
vertex 7.813537 7.562577 0.050000
endloop
endfacet
facet normal 0.146725 0.989177 0.000000
outer loop
vertex 7.811110 7.562937 0.000000
vertex 7.811110 7.562937 0.050000
vertex 7.813537 7.562577 0.050000
endloop
endfacet
facet normal 0.146725 0.989177 0.000000
outer loop
vertex 7.811110 7.562937 0.000000
vertex 7.813537 7.562577 0.050000
vertex 7.813537 7.562577 0.000000
endloop
endfacet
facet normal 0.243359 0.969936 0.000000
outer loop
vertex 7.813537 7.562577 0.000000
vertex 7.813537 7.562577 0.050000
vertex 7.815916 7.561980 0.050000
endloop
endfacet
facet normal 0.243359 0.969936 0.000008
outer loop
vertex 7.813537 7.562577 0.000000
vertex 7.815916 7.561980 0.050000
vertex 7.815917 7.561980 0.000000
endloop
endfacet
facet normal 0.243359 0.969936 0.000000
outer loop
vertex 7.813537 7.562577 0.050000
vertex 7.813537 7.562577 0.100000
vertex 7.815917 7.561980 0.100000
endloop
endfacet
facet normal 0.243359 0.969936 -0.000008
outer loop
vertex 7.813537 7.562577 0.050000
vertex 7.815917 7.561980 0.100000
vertex 7.815916 7.561980 0.050000
endloop
endfacet
facet normal 0.336928 0.941531 0.000000
outer loop
vertex 7.815916 7.561980 0.050000
vertex 7.815917 7.561980 0.100000
vertex 7.818225 7.561154 0.100000
endloop
endfacet
facet normal 0.336774 0.941586 0.000000
outer loop
vertex 7.815916 7.561980 0.050000
vertex 7.818225 7.561154 0.100000
vertex 7.818225 7.561154 0.050000
endloop
endfacet
facet normal 0.336774 0.941586 0.000000
outer loop
vertex 7.815917 7.561980 0.000000
vertex 7.815916 7.561980 0.050000
vertex 7.818225 7.561154 0.050000
endloop
endfacet
facet normal 0.336928 0.941531 0.000000
outer loop
vertex 7.815917 7.561980 0.000000
vertex 7.818225 7.561154 0.050000
vertex 7.818225 7.561154 0.000000
endloop
endfacet
facet normal 0.426975 0.904263 0.000000
outer loop
vertex 7.818225 7.561154 0.000000
vertex 7.818225 7.561154 0.050000
vertex 7.820444 7.560106 0.050000
endloop
endfacet
facet normal 0.427163 0.904175 0.000000
outer loop
vertex 7.818225 7.561154 0.000000
vertex 7.820444 7.560106 0.050000
vertex 7.820444 7.560106 0.000000
endloop
endfacet
facet normal 0.426975 0.904263 0.000000
outer loop
vertex 7.818225 7.561154 0.050000
vertex 7.818225 7.561154 0.100000
vertex 7.820444 7.560106 0.100000
endloop
endfacet
facet normal 0.427163 0.904175 0.000000
outer loop
vertex 7.818225 7.561154 0.050000
vertex 7.820444 7.560106 0.100000
vertex 7.820444 7.560106 0.050000
endloop
endfacet
facet normal 0.514639 0.857407 0.000000
outer loop
vertex 7.820444 7.560106 0.050000
vertex 7.820444 7.560106 0.100000
vertex 7.822547 7.558844 0.100000
endloop
endfacet
facet normal 0.514639 0.857407 0.000000
outer loop
vertex 7.820444 7.560106 0.050000
vertex 7.822547 7.558844 0.100000
vertex 7.822547 7.558844 0.050000
endloop
endfacet
facet normal 0.514639 0.857407 0.000000
outer loop
vertex 7.820444 7.560106 0.000000
vertex 7.820444 7.560106 0.050000
vertex 7.822547 7.558844 0.050000
endloop
endfacet
facet normal 0.514639 0.857407 0.000000
outer loop
vertex 7.820444 7.560106 0.000000
vertex 7.822547 7.558844 0.050000
vertex 7.822547 7.558844 0.000000
endloop
endfacet
facet normal 0.595608 0.803275 0.000000
outer loop
vertex 7.822547 7.558844 0.000000
vertex 7.822547 7.558844 0.050000
vertex 7.824518 7.557382 0.050000
endloop
endfacet
facet normal 0.595841 0.803102 0.000000
outer loop
vertex 7.822547 7.558844 0.000000
vertex 7.824518 7.557382 0.050000
vertex 7.824518 7.557382 0.000000
endloop
endfacet
facet normal 0.595608 0.803275 0.000000
outer loop
vertex 7.822547 7.558844 0.050000
vertex 7.822547 7.558844 0.100000
vertex 7.824518 7.557382 0.100000
endloop
endfacet
facet normal 0.595841 0.803102 0.000000
outer loop
vertex 7.822547 7.558844 0.050000
vertex 7.824518 7.557382 0.100000
vertex 7.824518 7.557382 0.050000
endloop
endfacet
facet normal 0.671646 0.740872 0.000000
outer loop
vertex 7.824518 7.557382 0.050000
vertex 7.824518 7.557382 0.100000
vertex 7.826335 7.555735 0.100000
endloop
endfacet
facet normal 0.671646 0.740872 0.000000
outer loop
vertex 7.824518 7.557382 0.050000
vertex 7.826335 7.555735 0.100000
vertex 7.826335 7.555735 0.050000
endloop
endfacet
facet normal 0.671646 0.740872 0.000000
outer loop
vertex 7.824518 7.557382 0.000000
vertex 7.824518 7.557382 0.050000
vertex 7.826335 7.555735 0.050000
endloop
endfacet
facet normal 0.671646 0.740872 0.000000
outer loop
vertex 7.824518 7.557382 0.000000
vertex 7.826335 7.555735 0.050000
vertex 7.826335 7.555735 0.000000
endloop
endfacet
facet normal 0.740621 0.671923 0.000000
outer loop
vertex 7.826335 7.555735 0.000000
vertex 7.826335 7.555735 0.050000
vertex 7.827983 7.553918 0.050000
endloop
endfacet
facet normal 0.740863 0.671656 0.000000
outer loop
vertex 7.826335 7.555735 0.000000
vertex 7.827983 7.553918 0.050000
vertex 7.827983 7.553918 0.000000
endloop
endfacet
facet normal 0.740621 0.671923 0.000000
outer loop
vertex 7.826335 7.555735 0.050000
vertex 7.826335 7.555735 0.100000
vertex 7.827983 7.553918 0.100000
endloop
endfacet
facet normal 0.740863 0.671656 0.000000
outer loop
vertex 7.826335 7.555735 0.050000
vertex 7.827983 7.553918 0.100000
vertex 7.827983 7.553918 0.050000
endloop
endfacet
facet normal 0.803230 0.595669 0.000000
outer loop
vertex 7.827983 7.553918 0.050000
vertex 7.827983 7.553918 0.100000
vertex 7.829444 7.551947 0.100000
endloop
endfacet
facet normal 0.803462 0.595355 0.000000
outer loop
vertex 7.827983 7.553918 0.050000
vertex 7.829444 7.551947 0.100000
vertex 7.829444 7.551947 0.050000
endloop
endfacet
facet normal 0.803230 0.595669 0.000000
outer loop
vertex 7.827983 7.553918 0.000000
vertex 7.827983 7.553918 0.050000
vertex 7.829444 7.551947 0.050000
endloop
endfacet
facet normal 0.803463 0.595355 0.000000
outer loop
vertex 7.827983 7.553918 0.000000
vertex 7.829444 7.551947 0.050000
vertex 7.829444 7.551947 0.000000
endloop
endfacet
facet normal 0.857150 0.515067 0.000000
outer loop
vertex 7.829444 7.551947 0.000000
vertex 7.829444 7.551947 0.050000
vertex 7.830706 7.549844 0.050000
endloop
endfacet
facet normal 0.857579 0.514353 0.000000
outer loop
vertex 7.829444 7.551947 0.000000
vertex 7.830706 7.549844 0.050000
vertex 7.830706 7.549844 0.000000
endloop
endfacet
facet normal 0.857150 0.515067 0.000000
outer loop
vertex 7.829444 7.551947 0.050000
vertex 7.829444 7.551947 0.100000
vertex 7.830706 7.549844 0.100000
endloop
endfacet
facet normal 0.857579 0.514353 0.000000
outer loop
vertex 7.829444 7.551947 0.050000
vertex 7.830706 7.549844 0.100000
vertex 7.830706 7.549844 0.050000
endloop
endfacet
facet normal 0.904230 0.427046 0.000000
outer loop
vertex 7.830706 7.549844 0.050000
vertex 7.830706 7.549844 0.100000
vertex 7.831755 7.547626 0.100000
endloop
endfacet
facet normal 0.904042 0.427443 0.000000
outer loop
vertex 7.830706 7.549844 0.050000
vertex 7.831755 7.547626 0.100000
vertex 7.831755 7.547626 0.050000
endloop
endfacet
facet normal 0.904230 0.427046 0.000000
outer loop
vertex 7.830706 7.549844 0.000000
vertex 7.830706 7.549844 0.050000
vertex 7.831755 7.547626 0.050000
endloop
endfacet
facet normal 0.904042 0.427443 0.000000
outer loop
vertex 7.830706 7.549844 0.000000
vertex 7.831755 7.547626 0.050000
vertex 7.831755 7.547626 0.000000
endloop
endfacet
facet normal 0.941522 0.336952 0.000000
outer loop
vertex 7.831755 7.547626 0.000000
vertex 7.831755 7.547626 0.050000
vertex 7.832581 7.545317 0.050000
endloop
endfacet
facet normal 0.941367 0.337383 0.000000
outer loop
vertex 7.831755 7.547626 0.000000
vertex 7.832581 7.545317 0.050000
vertex 7.832581 7.545317 0.000000
endloop
endfacet
facet normal 0.941522 0.336952 0.000000
outer loop
vertex 7.831755 7.547626 0.050000
vertex 7.831755 7.547626 0.100000
vertex 7.832581 7.545317 0.100000
endloop
endfacet
facet normal 0.941367 0.337383 0.000000
outer loop
vertex 7.831755 7.547626 0.050000
vertex 7.832581 7.545317 0.100000
vertex 7.832581 7.545317 0.050000
endloop
endfacet
facet normal 0.970040 0.242947 0.000000
outer loop
vertex 7.832581 7.545317 0.050000
vertex 7.832581 7.545317 0.100000
vertex 7.833178 7.542937 0.100000
endloop
endfacet
facet normal 0.969925 0.243404 0.000000
outer loop
vertex 7.832581 7.545317 0.050000
vertex 7.833178 7.542937 0.100000
vertex 7.833178 7.542937 0.050000
endloop
endfacet
facet normal 0.970039 0.242947 0.000000
outer loop
vertex 7.832581 7.545317 0.000000
vertex 7.832581 7.545317 0.050000
vertex 7.833178 7.542937 0.050000
endloop
endfacet
facet normal 0.969925 0.243404 0.000000
outer loop
vertex 7.832581 7.545317 0.000000
vertex 7.833178 7.542937 0.050000
vertex 7.833178 7.542937 0.000000
endloop
endfacet
facet normal 0.989186 0.146668 0.000000
outer loop
vertex 7.833178 7.542937 0.000000
vertex 7.833178 7.542937 0.050000
vertex 7.833538 7.540509 0.050000
endloop
endfacet
facet normal 0.989186 0.146668 0.000000
outer loop
vertex 7.833178 7.542937 0.000000
vertex 7.833538 7.540509 0.050000
vertex 7.833538 7.540509 0.000000
endloop
endfacet
facet normal 0.989186 0.146668 0.000000
outer loop
vertex 7.833178 7.542937 0.050000
vertex 7.833178 7.542937 0.100000
vertex 7.833538 7.540509 0.100000
endloop
endfacet
facet normal 0.989186 0.146668 0.000000
outer loop
vertex 7.833178 7.542937 0.050000
vertex 7.833538 7.540509 0.100000
vertex 7.833538 7.540509 0.050000
endloop
endfacet
facet normal 0.998794 0.049103 0.000000
outer loop
vertex 7.833538 7.540509 0.050000
vertex 7.833538 7.540509 0.100000
vertex 7.833658 7.538060 0.100000
endloop
endfacet
facet normal 0.998794 0.049103 0.000000
outer loop
vertex 7.833538 7.540509 0.050000
vertex 7.833658 7.538060 0.100000
vertex 7.833658 7.538060 0.050000
endloop
endfacet
facet normal 0.998794 0.049103 0.000000
outer loop
vertex 7.833538 7.540509 0.000000
vertex 7.833538 7.540509 0.050000
vertex 7.833658 7.538060 0.050000
endloop
endfacet
facet normal 0.998794 0.049103 0.000000
outer loop
vertex 7.833538 7.540509 0.000000
vertex 7.833658 7.538060 0.050000
vertex 7.833658 7.538060 0.000000
endloop
endfacet
facet normal 0.998795 -0.049084 0.000000
outer loop
vertex 7.833658 7.538060 0.000000
vertex 7.833658 7.538060 0.050000
vertex 7.833538 7.535610 0.050000
endloop
endfacet
facet normal 0.998795 -0.049084 0.000000
outer loop
vertex 7.833658 7.538060 0.000000
vertex 7.833538 7.535610 0.050000
vertex 7.833538 7.535610 0.000000
endloop
endfacet
facet normal 0.998795 -0.049084 0.000000
outer loop
vertex 7.833658 7.538060 0.050000
vertex 7.833658 7.538060 0.100000
vertex 7.833538 7.535610 0.100000
endloop
endfacet
facet normal 0.998795 -0.049084 0.000000
outer loop
vertex 7.833658 7.538060 0.050000
vertex 7.833538 7.535610 0.100000
vertex 7.833538 7.535610 0.050000
endloop
endfacet
facet normal 0.989169 -0.146781 0.000000
outer loop
vertex 7.833538 7.535610 0.050000
vertex 7.833538 7.535610 0.100000
vertex 7.833178 7.533184 0.100000
endloop
endfacet
facet normal 0.989169 -0.146781 0.000000
outer loop
vertex 7.833538 7.535610 0.050000
vertex 7.833178 7.533184 0.100000
vertex 7.833178 7.533184 0.050000
endloop
endfacet
facet normal 0.989169 -0.146781 0.000000
outer loop
vertex 7.833538 7.535610 0.000000
vertex 7.833538 7.535610 0.050000
vertex 7.833178 7.533184 0.050000
endloop
endfacet
facet normal 0.989169 -0.146781 0.000000
outer loop
vertex 7.833538 7.535610 0.000000
vertex 7.833178 7.533184 0.050000
vertex 7.833178 7.533184 0.000000
endloop
endfacet
facet normal 0.969925 -0.243404 0.000000
outer loop
vertex 7.833178 7.533184 0.000000
vertex 7.833178 7.533184 0.050000
vertex 7.832581 7.530804 0.050000
endloop
endfacet
facet normal 0.970039 -0.242947 0.000000
outer loop
vertex 7.833178 7.533184 0.000000
vertex 7.832581 7.530804 0.050000
vertex 7.832581 7.530804 0.000000
endloop
endfacet
facet normal 0.969925 -0.243404 0.000000
outer loop
vertex 7.833178 7.533184 0.050000
vertex 7.833178 7.533184 0.100000
vertex 7.832581 7.530804 0.100000
endloop
endfacet
facet normal 0.970040 -0.242947 0.000000
outer loop
vertex 7.833178 7.533184 0.050000
vertex 7.832581 7.530804 0.100000
vertex 7.832581 7.530804 0.050000
endloop
endfacet
facet normal 0.941434 -0.337198 0.000000
outer loop
vertex 7.832581 7.530804 0.050000
vertex 7.832581 7.530804 0.100000
vertex 7.831755 7.528494 0.100000
endloop
endfacet
facet normal 0.941588 -0.336767 0.000000
outer loop
vertex 7.832581 7.530804 0.050000
vertex 7.831755 7.528494 0.100000
vertex 7.831755 7.528494 0.050000
endloop
endfacet
facet normal 0.941434 -0.337198 0.000000
outer loop
vertex 7.832581 7.530804 0.000000
vertex 7.832581 7.530804 0.050000
vertex 7.831755 7.528494 0.050000
endloop
endfacet
facet normal 0.941588 -0.336767 0.000000
outer loop
vertex 7.832581 7.530804 0.000000
vertex 7.831755 7.528494 0.050000
vertex 7.831755 7.528494 0.000000
endloop
endfacet
facet normal 0.904007 -0.427518 0.000000
outer loop
vertex 7.831755 7.528494 0.000000
vertex 7.831755 7.528494 0.050000
vertex 7.830706 7.526276 0.050000
endloop
endfacet
facet normal 0.904194 -0.427121 0.000000
outer loop
vertex 7.831755 7.528494 0.000000
vertex 7.830706 7.526276 0.050000
vertex 7.830706 7.526276 0.000000
endloop
endfacet
facet normal 0.904007 -0.427518 0.000000
outer loop
vertex 7.831755 7.528494 0.050000
vertex 7.831755 7.528494 0.100000
vertex 7.830706 7.526276 0.100000
endloop
endfacet
facet normal 0.904194 -0.427121 0.000000
outer loop
vertex 7.831755 7.528494 0.050000
vertex 7.830706 7.526276 0.100000
vertex 7.830706 7.526276 0.050000
endloop
endfacet
facet normal 0.857682 -0.514181 0.000000
outer loop
vertex 7.830706 7.526276 0.050000
vertex 7.830706 7.526276 0.100000
vertex 7.829444 7.524172 0.100000
endloop
endfacet
facet normal 0.857253 -0.514896 0.000000
outer loop
vertex 7.830706 7.526276 0.050000
vertex 7.829444 7.524172 0.100000
vertex 7.829444 7.524172 0.050000
endloop
endfacet
facet normal 0.857682 -0.514181 0.000000
outer loop
vertex 7.830706 7.526276 0.000000
vertex 7.830706 7.526276 0.050000
vertex 7.829444 7.524172 0.050000
endloop
endfacet
facet normal 0.857253 -0.514896 0.000000
outer loop
vertex 7.830706 7.526276 0.000000
vertex 7.829444 7.524172 0.050000
vertex 7.829444 7.524172 0.000000
endloop
endfacet
facet normal 0.803394 -0.595448 0.000000
outer loop
vertex 7.829444 7.524172 0.000000
vertex 7.829444 7.524172 0.050000
vertex 7.827983 7.522202 0.050000
endloop
endfacet
facet normal 0.803161 -0.595762 0.000000
outer loop
vertex 7.829444 7.524172 0.000000
vertex 7.827983 7.522202 0.050000
vertex 7.827983 7.522202 0.000000
endloop
endfacet
facet normal 0.803394 -0.595448 0.000000
outer loop
vertex 7.829444 7.524172 0.050000
vertex 7.829444 7.524172 0.100000
vertex 7.827983 7.522202 0.100000
endloop
endfacet
facet normal 0.803161 -0.595762 0.000000
outer loop
vertex 7.829444 7.524172 0.050000
vertex 7.827983 7.522202 0.100000
vertex 7.827983 7.522202 0.050000
endloop
endfacet
facet normal 0.740951 -0.671559 0.000000
outer loop
vertex 7.827983 7.522202 0.050000
vertex 7.827983 7.522202 0.100000
vertex 7.826335 7.520384 0.100000
endloop
endfacet
facet normal 0.740709 -0.671826 0.000000
outer loop
vertex 7.827983 7.522202 0.050000
vertex 7.826335 7.520384 0.100000
vertex 7.826335 7.520384 0.050000
endloop
endfacet
facet normal 0.740951 -0.671559 0.000000
outer loop
vertex 7.827983 7.522202 0.000000
vertex 7.827983 7.522202 0.050000
vertex 7.826335 7.520384 0.050000
endloop
endfacet
facet normal 0.740709 -0.671826 0.000000
outer loop
vertex 7.827983 7.522202 0.000000
vertex 7.826335 7.520384 0.050000
vertex 7.826335 7.520384 0.000000
endloop
endfacet
facet normal 0.671646 -0.740872 0.000000
outer loop
vertex 7.826335 7.520384 0.000000
vertex 7.826335 7.520384 0.050000
vertex 7.824518 7.518737 0.050000
endloop
endfacet
facet normal 0.671646 -0.740872 0.000000
outer loop
vertex 7.826335 7.520384 0.000000
vertex 7.824518 7.518737 0.050000
vertex 7.824518 7.518737 0.000000
endloop
endfacet
facet normal 0.671646 -0.740872 0.000000
outer loop
vertex 7.826335 7.520384 0.050000
vertex 7.826335 7.520384 0.100000
vertex 7.824518 7.518737 0.100000
endloop
endfacet
facet normal 0.671646 -0.740872 0.000000
outer loop
vertex 7.826335 7.520384 0.050000
vertex 7.824518 7.518737 0.100000
vertex 7.824518 7.518737 0.050000
endloop
endfacet
facet normal 0.595590 -0.803289 0.000000
outer loop
vertex 7.824518 7.518737 0.050000
vertex 7.824518 7.518737 0.100000
vertex 7.822547 7.517276 0.100000
endloop
endfacet
facet normal 0.595358 -0.803461 0.000000
outer loop
vertex 7.824518 7.518737 0.050000
vertex 7.822547 7.517276 0.100000
vertex 7.822547 7.517276 0.050000
endloop
endfacet
facet normal 0.595590 -0.803289 0.000000
outer loop
vertex 7.824518 7.518737 0.000000
vertex 7.824518 7.518737 0.050000
vertex 7.822547 7.517276 0.050000
endloop
endfacet
facet normal 0.595358 -0.803461 0.000000
outer loop
vertex 7.824518 7.518737 0.000000
vertex 7.822547 7.517276 0.050000
vertex 7.822547 7.517276 0.000000
endloop
endfacet
facet normal 0.514639 -0.857407 0.000000
outer loop
vertex 7.822547 7.517276 0.000000
vertex 7.822547 7.517276 0.050000
vertex 7.820444 7.516014 0.050000
endloop
endfacet
facet normal 0.514353 -0.857579 0.000000
outer loop
vertex 7.822547 7.517276 0.000000
vertex 7.820444 7.516014 0.050000
vertex 7.820444 7.516015 0.000000
endloop
endfacet
facet normal 0.514353 -0.857579 0.000000
outer loop
vertex 7.822547 7.517276 0.050000
vertex 7.822547 7.517276 0.100000
vertex 7.820444 7.516015 0.100000
endloop
endfacet
facet normal 0.514639 -0.857407 0.000000
outer loop
vertex 7.822547 7.517276 0.050000
vertex 7.820444 7.516015 0.100000
vertex 7.820444 7.516014 0.050000
endloop
endfacet
facet normal 0.427798 -0.903874 0.000000
outer loop
vertex 7.820444 7.516014 0.050000
vertex 7.820444 7.516015 0.100000
vertex 7.818225 7.514965 0.100000
endloop
endfacet
facet normal 0.427293 -0.904113 0.000000
outer loop
vertex 7.820444 7.516014 0.050000
vertex 7.818225 7.514965 0.100000
vertex 7.818225 7.514965 0.050000
endloop
endfacet
facet normal 0.427481 -0.904025 0.000000
outer loop
vertex 7.820444 7.516015 0.000000
vertex 7.820444 7.516014 0.050000
vertex 7.818225 7.514965 0.050000
endloop
endfacet
facet normal 0.427610 -0.903963 0.000000
outer loop
vertex 7.820444 7.516015 0.000000
vertex 7.818225 7.514965 0.050000
vertex 7.818225 7.514965 0.000000
endloop
endfacet
facet normal 0.336928 -0.941531 0.000000
outer loop
vertex 7.818225 7.514965 0.000000
vertex 7.818225 7.514965 0.050000
vertex 7.815917 7.514139 0.050000
endloop
endfacet
facet normal 0.336928 -0.941531 0.000000
outer loop
vertex 7.818225 7.514965 0.000000
vertex 7.815917 7.514139 0.050000
vertex 7.815917 7.514139 0.000000
endloop
endfacet
facet normal 0.336928 -0.941531 0.000000
outer loop
vertex 7.818225 7.514965 0.050000
vertex 7.818225 7.514965 0.100000
vertex 7.815917 7.514139 0.100000
endloop
endfacet
facet normal 0.336928 -0.941531 0.000000
outer loop
vertex 7.818225 7.514965 0.050000
vertex 7.815917 7.514139 0.100000
vertex 7.815917 7.514139 0.050000
endloop
endfacet
facet normal 0.242878 -0.970057 0.000000
outer loop
vertex 7.815917 7.514139 0.050000
vertex 7.815917 7.514139 0.100000
vertex 7.813537 7.513543 0.100000
endloop
endfacet
facet normal 0.242993 -0.970028 0.000000
outer loop
vertex 7.815917 7.514139 0.050000
vertex 7.813537 7.513543 0.100000
vertex 7.813537 7.513543 0.050000
endloop
endfacet
facet normal 0.242878 -0.970057 0.000000
outer loop
vertex 7.815917 7.514139 0.000000
vertex 7.815917 7.514139 0.050000
vertex 7.813537 7.513543 0.050000
endloop
endfacet
facet normal 0.242993 -0.970028 0.000000
outer loop
vertex 7.815917 7.514139 0.000000
vertex 7.813537 7.513543 0.050000
vertex 7.813537 7.513543 0.000000
endloop
endfacet
facet normal 0.146725 -0.989177 0.000000
outer loop
vertex 7.813537 7.513543 0.000000
vertex 7.813537 7.513543 0.050000
vertex 7.811110 7.513183 0.050000
endloop
endfacet
facet normal 0.146725 -0.989177 0.000000
outer loop
vertex 7.813537 7.513543 0.000000
vertex 7.811110 7.513183 0.050000
vertex 7.811110 7.513183 0.000000
endloop
endfacet
facet normal 0.146725 -0.989177 0.000000
outer loop
vertex 7.813537 7.513543 0.050000
vertex 7.813537 7.513543 0.100000
vertex 7.811110 7.513183 0.100000
endloop
endfacet
facet normal 0.146725 -0.989177 0.000000
outer loop
vertex 7.813537 7.513543 0.050000
vertex 7.811110 7.513183 0.100000
vertex 7.811110 7.513183 0.050000
endloop
endfacet
facet normal 0.048798 -0.998809 0.000000
outer loop
vertex 7.811110 7.513183 0.050000
vertex 7.811110 7.513183 0.100000
vertex 7.808660 7.513063 0.100000
endloop
endfacet
facet normal 0.048798 -0.998809 0.000000
outer loop
vertex 7.811110 7.513183 0.050000
vertex 7.808660 7.513063 0.100000
vertex 7.808660 7.513063 0.050000
endloop
endfacet
facet normal 0.048798 -0.998809 0.000000
outer loop
vertex 7.811110 7.513183 0.000000
vertex 7.811110 7.513183 0.050000
vertex 7.808660 7.513063 0.050000
endloop
endfacet
facet normal 0.048798 -0.998809 0.000000
outer loop
vertex 7.811110 7.513183 0.000000
vertex 7.808660 7.513063 0.050000
vertex 7.808660 7.513063 0.000000
endloop
endfacet
facet normal -0.048798 -0.998809 0.000000
outer loop
vertex 7.808660 7.513063 0.000000
vertex 7.808660 7.513063 0.050000
vertex 7.806210 7.513183 0.050000
endloop
endfacet
facet normal -0.048775 -0.998810 0.000000
outer loop
vertex 7.808660 7.513063 0.000000
vertex 7.806210 7.513183 0.050000
vertex 7.806210 7.513183 0.000000
endloop
endfacet
facet normal -0.048798 -0.998809 0.000000
outer loop
vertex 7.808660 7.513063 0.050000
vertex 7.808660 7.513063 0.100000
vertex 7.806210 7.513183 0.100000
endloop
endfacet
facet normal -0.048775 -0.998810 0.000000
outer loop
vertex 7.808660 7.513063 0.050000
vertex 7.806210 7.513183 0.100000
vertex 7.806210 7.513183 0.050000
endloop
endfacet
facet normal -0.146795 -0.989167 0.000000
outer loop
vertex 7.806210 7.513183 0.050000
vertex 7.806210 7.513183 0.100000
vertex 7.803784 7.513543 0.100000
endloop
endfacet
facet normal -0.146795 -0.989167 0.000000
outer loop
vertex 7.806210 7.513183 0.050000
vertex 7.803784 7.513543 0.100000
vertex 7.803784 7.513543 0.050000
endloop
endfacet
facet normal -0.146795 -0.989167 0.000000
outer loop
vertex 7.806210 7.513183 0.000000
vertex 7.806210 7.513183 0.050000
vertex 7.803784 7.513543 0.050000
endloop
endfacet
facet normal -0.146795 -0.989167 0.000000
outer loop
vertex 7.806210 7.513183 0.000000
vertex 7.803784 7.513543 0.050000
vertex 7.803784 7.513543 0.000000
endloop
endfacet
facet normal -0.242993 -0.970028 0.000000
outer loop
vertex 7.803784 7.513543 0.000000
vertex 7.803784 7.513543 0.050000
vertex 7.801404 7.514139 0.050000
endloop
endfacet
facet normal -0.242878 -0.970057 0.000000
outer loop
vertex 7.803784 7.513543 0.000000
vertex 7.801404 7.514139 0.050000
vertex 7.801404 7.514139 0.000000
endloop
endfacet
facet normal -0.242993 -0.970028 0.000000
outer loop
vertex 7.803784 7.513543 0.050000
vertex 7.803784 7.513543 0.100000
vertex 7.801404 7.514139 0.100000
endloop
endfacet
facet normal -0.242878 -0.970057 0.000000
outer loop
vertex 7.803784 7.513543 0.050000
vertex 7.801404 7.514139 0.100000
vertex 7.801404 7.514139 0.050000
endloop
endfacet
facet normal -0.337118 -0.941462 0.000000
outer loop
vertex 7.801404 7.514139 0.050000
vertex 7.801404 7.514139 0.100000
vertex 7.799094 7.514966 0.100000
endloop
endfacet
facet normal -0.336964 -0.941518 0.000000
outer loop
vertex 7.801404 7.514139 0.050000
vertex 7.799094 7.514966 0.100000
vertex 7.799094 7.514966 0.050000
endloop
endfacet
facet normal -0.337118 -0.941462 0.000000
outer loop
vertex 7.801404 7.514139 0.000000
vertex 7.801404 7.514139 0.050000
vertex 7.799094 7.514966 0.050000
endloop
endfacet
facet normal -0.336964 -0.941518 0.000000
outer loop
vertex 7.801404 7.514139 0.000000
vertex 7.799094 7.514966 0.050000
vertex 7.799094 7.514966 0.000000
endloop
endfacet
facet normal -0.427163 -0.904175 0.000000
outer loop
vertex 7.799094 7.514966 0.000000
vertex 7.799094 7.514966 0.050000
vertex 7.796876 7.516014 0.050000
endloop
endfacet
facet normal -0.427481 -0.904025 -0.000030
outer loop
vertex 7.799094 7.514966 0.000000
vertex 7.796876 7.516014 0.050000
vertex 7.796876 7.516015 0.000000
endloop
endfacet
facet normal -0.427481 -0.904025 0.000000
outer loop
vertex 7.799094 7.514966 0.050000
vertex 7.799094 7.514966 0.100000
vertex 7.796876 7.516015 0.100000
endloop
endfacet
facet normal -0.427163 -0.904175 0.000030
outer loop
vertex 7.799094 7.514966 0.050000
vertex 7.796876 7.516015 0.100000
vertex 7.796876 7.516014 0.050000
endloop
endfacet
facet normal -0.514353 -0.857579 0.000000
outer loop
vertex 7.796876 7.516014 0.050000
vertex 7.796876 7.516015 0.100000
vertex 7.794772 7.517276 0.100000
endloop
endfacet
facet normal -0.514424 -0.857536 0.000000
outer loop
vertex 7.796876 7.516014 0.050000
vertex 7.794772 7.517276 0.100000
vertex 7.794772 7.517276 0.050000
endloop
endfacet
facet normal -0.514639 -0.857407 0.000000
outer loop
vertex 7.796876 7.516015 0.000000
vertex 7.796876 7.516014 0.050000
vertex 7.794772 7.517276 0.050000
endloop
endfacet
facet normal -0.514138 -0.857707 0.000000
outer loop
vertex 7.796876 7.516015 0.000000
vertex 7.794772 7.517276 0.050000
vertex 7.794772 7.517276 0.000000
endloop
endfacet
facet normal -0.595590 -0.803289 0.000000
outer loop
vertex 7.794772 7.517276 0.000000
vertex 7.794772 7.517276 0.050000
vertex 7.792802 7.518737 0.050000
endloop
endfacet
facet normal -0.595590 -0.803289 0.000000
outer loop
vertex 7.794772 7.517276 0.000000
vertex 7.792802 7.518737 0.050000
vertex 7.792802 7.518737 0.000000
endloop
endfacet
facet normal -0.595590 -0.803289 0.000000
outer loop
vertex 7.794772 7.517276 0.050000
vertex 7.794772 7.517276 0.100000
vertex 7.792802 7.518737 0.100000
endloop
endfacet
facet normal -0.595590 -0.803289 0.000000
outer loop
vertex 7.794772 7.517276 0.050000
vertex 7.792802 7.518737 0.100000
vertex 7.792802 7.518737 0.050000
endloop
endfacet
facet normal -0.671404 -0.741091 0.000000
outer loop
vertex 7.792802 7.518737 0.050000
vertex 7.792802 7.518737 0.100000
vertex 7.790984 7.520384 0.100000
endloop
endfacet
facet normal -0.671646 -0.740872 0.000000
outer loop
vertex 7.792802 7.518737 0.050000
vertex 7.790984 7.520384 0.100000
vertex 7.790984 7.520384 0.050000
endloop
endfacet
facet normal -0.671404 -0.741091 0.000000
outer loop
vertex 7.792802 7.518737 0.000000
vertex 7.792802 7.518737 0.050000
vertex 7.790984 7.520384 0.050000
endloop
endfacet
facet normal -0.671646 -0.740872 0.000000
outer loop
vertex 7.792802 7.518737 0.000000
vertex 7.790984 7.520384 0.050000
vertex 7.790984 7.520384 0.000000
endloop
endfacet
facet normal -0.740951 -0.671559 0.000000
outer loop
vertex 7.790984 7.520384 0.000000
vertex 7.790984 7.520384 0.050000
vertex 7.789337 7.522202 0.050000
endloop
endfacet
facet normal -0.740951 -0.671559 0.000000
outer loop
vertex 7.790984 7.520384 0.000000
vertex 7.789337 7.522202 0.050000
vertex 7.789337 7.522202 0.000000
endloop
endfacet
facet normal -0.740951 -0.671559 0.000000
outer loop
vertex 7.790984 7.520384 0.050000
vertex 7.790984 7.520384 0.100000
vertex 7.789337 7.522202 0.100000
endloop
endfacet
facet normal -0.740951 -0.671559 0.000000
outer loop
vertex 7.790984 7.520384 0.050000
vertex 7.789337 7.522202 0.100000
vertex 7.789337 7.522202 0.050000
endloop
endfacet
facet normal -0.803394 -0.595448 0.000000
outer loop
vertex 7.789337 7.522202 0.050000
vertex 7.789337 7.522202 0.100000
vertex 7.787876 7.524172 0.100000
endloop
endfacet
facet normal -0.803299 -0.595576 -0.000015
outer loop
vertex 7.789337 7.522202 0.050000
vertex 7.787876 7.524172 0.100000
vertex 7.787876 7.524173 0.050000
endloop
endfacet
facet normal -0.803531 -0.595262 0.000000
outer loop
vertex 7.789337 7.522202 0.000000
vertex 7.789337 7.522202 0.050000
vertex 7.787876 7.524173 0.050000
endloop
endfacet
facet normal -0.803161 -0.595762 0.000015
outer loop
vertex 7.789337 7.522202 0.000000
vertex 7.787876 7.524173 0.050000
vertex 7.787876 7.524172 0.000000
endloop
endfacet
facet normal -0.857364 -0.514710 0.000015
outer loop
vertex 7.787876 7.524172 0.000000
vertex 7.787876 7.524173 0.050000
vertex 7.786614 7.526276 0.050000
endloop
endfacet
facet normal -0.857784 -0.514010 -0.000029
outer loop
vertex 7.787876 7.524172 0.000000
vertex 7.786614 7.526276 0.050000
vertex 7.786615 7.526277 0.000000
endloop
endfacet
facet normal -0.857998 -0.513652 -0.000015
outer loop
vertex 7.787876 7.524173 0.050000
vertex 7.787876 7.524172 0.100000
vertex 7.786615 7.526277 0.100000
endloop
endfacet
facet normal -0.857150 -0.515067 0.000029
outer loop
vertex 7.787876 7.524173 0.050000
vertex 7.786615 7.526277 0.100000
vertex 7.786614 7.526276 0.050000
endloop
endfacet
facet normal -0.903936 -0.427669 0.000015
outer loop
vertex 7.786614 7.526276 0.050000
vertex 7.786615 7.526277 0.100000
vertex 7.785565 7.528494 0.100000
endloop
endfacet
facet normal -0.904007 -0.427518 0.000000
outer loop
vertex 7.786614 7.526276 0.050000
vertex 7.785565 7.528494 0.100000
vertex 7.785565 7.528494 0.050000
endloop
endfacet
facet normal -0.904007 -0.427518 -0.000015
outer loop
vertex 7.786615 7.526277 0.000000
vertex 7.786614 7.526276 0.050000
vertex 7.785565 7.528494 0.050000
endloop
endfacet
facet normal -0.903936 -0.427668 0.000000
outer loop
vertex 7.786615 7.526277 0.000000
vertex 7.785565 7.528494 0.050000
vertex 7.785565 7.528494 0.000000
endloop
endfacet
facet normal -0.941588 -0.336767 0.000000
outer loop
vertex 7.785565 7.528494 0.000000
vertex 7.785565 7.528494 0.050000
vertex 7.784739 7.530804 0.050000
endloop
endfacet
facet normal -0.941588 -0.336767 0.000000
outer loop
vertex 7.785565 7.528494 0.000000
vertex 7.784739 7.530804 0.050000
vertex 7.784739 7.530804 0.000000
endloop
endfacet
facet normal -0.941588 -0.336767 0.000000
outer loop
vertex 7.785565 7.528494 0.050000
vertex 7.785565 7.528494 0.100000
vertex 7.784739 7.530804 0.100000
endloop
endfacet
facet normal -0.941588 -0.336767 0.000000
outer loop
vertex 7.785565 7.528494 0.050000
vertex 7.784739 7.530804 0.100000
vertex 7.784739 7.530804 0.050000
endloop
endfacet
facet normal -0.970040 -0.242947 0.000000
outer loop
vertex 7.784739 7.530804 0.050000
vertex 7.784739 7.530804 0.100000
vertex 7.784143 7.533184 0.100000
endloop
endfacet
facet normal -0.970017 -0.243039 0.000000
outer loop
vertex 7.784739 7.530804 0.050000
vertex 7.784143 7.533184 0.100000
vertex 7.784143 7.533183 0.050000
endloop
endfacet
facet normal -0.970017 -0.243039 0.000000
outer loop
vertex 7.784739 7.530804 0.000000
vertex 7.784739 7.530804 0.050000
vertex 7.784143 7.533183 0.050000
endloop
endfacet
facet normal -0.970039 -0.242947 0.000000
outer loop
vertex 7.784739 7.530804 0.000000
vertex 7.784143 7.533183 0.050000
vertex 7.784143 7.533184 0.000000
endloop
endfacet
facet normal -0.989177 -0.146725 -0.000004
outer loop
vertex 7.784143 7.533184 0.000000
vertex 7.784143 7.533183 0.050000
vertex 7.783783 7.535610 0.050000
endloop
endfacet
facet normal -0.989169 -0.146781 0.000000
outer loop
vertex 7.784143 7.533184 0.000000
vertex 7.783783 7.535610 0.050000
vertex 7.783783 7.535610 0.000000
endloop
endfacet
facet normal -0.989169 -0.146781 0.000004
outer loop
vertex 7.784143 7.533183 0.050000
vertex 7.784143 7.533184 0.100000
vertex 7.783783 7.535610 0.100000
endloop
endfacet
facet normal -0.989177 -0.146725 0.000000
outer loop
vertex 7.784143 7.533183 0.050000
vertex 7.783783 7.535610 0.100000
vertex 7.783783 7.535610 0.050000
endloop
endfacet
facet normal -0.998795 -0.049084 0.000000
outer loop
vertex 7.783783 7.535610 0.050000
vertex 7.783783 7.535610 0.100000
vertex 7.783663 7.538060 0.100000
endloop
endfacet
facet normal -0.998795 -0.049084 0.000000
outer loop
vertex 7.783783 7.535610 0.050000
vertex 7.783663 7.538060 0.100000
vertex 7.783663 7.538060 0.050000
endloop
endfacet
facet normal -0.998795 -0.049084 0.000000
outer loop
vertex 7.783783 7.535610 0.000000
vertex 7.783783 7.535610 0.050000
vertex 7.783663 7.538060 0.050000
endloop
endfacet
facet normal -0.998795 -0.049084 0.000000
outer loop
vertex 7.783783 7.535610 0.000000
vertex 7.783663 7.538060 0.050000
vertex 7.783663 7.538060 0.000000
endloop
endfacet
facet normal -0.998794 0.049103 0.000000
outer loop
vertex 7.783663 7.538060 0.000000
vertex 7.783663 7.538060 0.050000
vertex 7.783783 7.540509 0.050000
endloop
endfacet
facet normal -0.998794 0.049103 0.000000
outer loop
vertex 7.783663 7.538060 0.000000
vertex 7.783783 7.540509 0.050000
vertex 7.783783 7.540509 0.000000
endloop
endfacet
facet normal -0.998794 0.049103 0.000000
outer loop
vertex 7.783663 7.538060 0.050000
vertex 7.783663 7.538060 0.100000
vertex 7.783783 7.540509 0.100000
endloop
endfacet
facet normal -0.998794 0.049103 0.000000
outer loop
vertex 7.783663 7.538060 0.050000
vertex 7.783783 7.540509 0.100000
vertex 7.783783 7.540509 0.050000
endloop
endfacet
facet normal -0.989186 0.146668 0.000000
outer loop
vertex 7.783783 7.540509 0.050000
vertex 7.783783 7.540509 0.100000
vertex 7.784143 7.542937 0.100000
endloop
endfacet
facet normal -0.989186 0.146668 0.000000
outer loop
vertex 7.783783 7.540509 0.050000
vertex 7.784143 7.542937 0.100000
vertex 7.784143 7.542937 0.050000
endloop
endfacet
facet normal -0.989186 0.146668 0.000000
outer loop
vertex 7.783783 7.540509 0.000000
vertex 7.783783 7.540509 0.050000
vertex 7.784143 7.542937 0.050000
endloop
endfacet
facet normal -0.989186 0.146668 0.000000
outer loop
vertex 7.783783 7.540509 0.000000
vertex 7.784143 7.542937 0.050000
vertex 7.784143 7.542937 0.000000
endloop
endfacet
facet normal -0.970017 0.243039 0.000000
outer loop
vertex 7.784143 7.542937 0.000000
vertex 7.784143 7.542937 0.050000
vertex 7.784739 7.545316 0.050000
endloop
endfacet
facet normal -0.970039 0.242947 0.000008
outer loop
vertex 7.784143 7.542937 0.000000
vertex 7.784739 7.545316 0.050000
vertex 7.784739 7.545317 0.000000
endloop
endfacet
facet normal -0.970040 0.242947 0.000000
outer loop
vertex 7.784143 7.542937 0.050000
vertex 7.784143 7.542937 0.100000
vertex 7.784739 7.545317 0.100000
endloop
endfacet
facet normal -0.970017 0.243039 -0.000008
outer loop
vertex 7.784143 7.542937 0.050000
vertex 7.784739 7.545317 0.100000
vertex 7.784739 7.545316 0.050000
endloop
endfacet
facet normal -0.941367 0.337383 -0.000015
outer loop
vertex 7.784739 7.545316 0.050000
vertex 7.784739 7.545317 0.100000
vertex 7.785566 7.547626 0.100000
endloop
endfacet
facet normal -0.941566 0.336829 0.000000
outer loop
vertex 7.784739 7.545316 0.050000
vertex 7.785566 7.547626 0.100000
vertex 7.785566 7.547626 0.050000
endloop
endfacet
facet normal -0.941412 0.337260 0.000015
outer loop
vertex 7.784739 7.545317 0.000000
vertex 7.784739 7.545316 0.050000
vertex 7.785566 7.547626 0.050000
endloop
endfacet
facet normal -0.941522 0.336952 0.000000
outer loop
vertex 7.784739 7.545317 0.000000
vertex 7.785566 7.547626 0.050000
vertex 7.785566 7.547626 0.000000
endloop
endfacet
facet normal -0.904230 0.427046 0.000000
outer loop
vertex 7.785566 7.547626 0.000000
vertex 7.785566 7.547626 0.050000
vertex 7.786614 7.549844 0.050000
endloop
endfacet
facet normal -0.904042 0.427443 -0.000016
outer loop
vertex 7.785566 7.547626 0.000000
vertex 7.786614 7.549844 0.050000
vertex 7.786615 7.549844 0.000000
endloop
endfacet
facet normal -0.904042 0.427443 0.000000
outer loop
vertex 7.785566 7.547626 0.050000
vertex 7.785566 7.547626 0.100000
vertex 7.786615 7.549844 0.100000
endloop
endfacet
facet normal -0.904230 0.427046 0.000016
outer loop
vertex 7.785566 7.547626 0.050000
vertex 7.786615 7.549844 0.100000
vertex 7.786614 7.549844 0.050000
endloop
endfacet
facet normal -0.857579 0.514353 0.000015
outer loop
vertex 7.786614 7.549844 0.050000
vertex 7.786615 7.549844 0.100000
vertex 7.787876 7.551947 0.100000
endloop
endfacet
facet normal -0.857364 0.514710 0.000000
outer loop
vertex 7.786614 7.549844 0.050000
vertex 7.787876 7.551947 0.100000
vertex 7.787876 7.551947 0.050000
endloop
endfacet
facet normal -0.857150 0.515067 -0.000015
outer loop
vertex 7.786615 7.549844 0.000000
vertex 7.786614 7.549844 0.050000
vertex 7.787876 7.551947 0.050000
endloop
endfacet
facet normal -0.857793 0.513995 0.000000
outer loop
vertex 7.786615 7.549844 0.000000
vertex 7.787876 7.551947 0.050000
vertex 7.787876 7.551947 0.000000
endloop
endfacet
facet normal -0.803230 0.595669 0.000000
outer loop
vertex 7.787876 7.551947 0.000000
vertex 7.787876 7.551947 0.050000
vertex 7.789337 7.553918 0.050000
endloop
endfacet
facet normal -0.803463 0.595355 0.000000
outer loop
vertex 7.787876 7.551947 0.000000
vertex 7.789337 7.553918 0.050000
vertex 7.789337 7.553918 0.000000
endloop
endfacet
facet normal -0.803230 0.595669 0.000000
outer loop
vertex 7.787876 7.551947 0.050000
vertex 7.787876 7.551947 0.100000
vertex 7.789337 7.553918 0.100000
endloop
endfacet
facet normal -0.803462 0.595355 0.000000
outer loop
vertex 7.787876 7.551947 0.050000
vertex 7.789337 7.553918 0.100000
vertex 7.789337 7.553918 0.050000
endloop
endfacet
facet normal -0.740863 0.671656 0.000000
outer loop
vertex 7.789337 7.553918 0.050000
vertex 7.789337 7.553918 0.100000
vertex 7.790984 7.555735 0.100000
endloop
endfacet
facet normal -0.740863 0.671656 0.000000
outer loop
vertex 7.789337 7.553918 0.050000
vertex 7.790984 7.555735 0.100000
vertex 7.790984 7.555735 0.050000
endloop
endfacet
facet normal -0.740863 0.671656 0.000000
outer loop
vertex 7.789337 7.553918 0.000000
vertex 7.789337 7.553918 0.050000
vertex 7.790984 7.555735 0.050000
endloop
endfacet
facet normal -0.740863 0.671656 0.000000
outer loop
vertex 7.789337 7.553918 0.000000
vertex 7.790984 7.555735 0.050000
vertex 7.790984 7.555735 0.000000
endloop
endfacet
facet normal -0.671646 0.740872 0.000000
outer loop
vertex 7.790984 7.555735 0.000000
vertex 7.790984 7.555735 0.050000
vertex 7.792802 7.557382 0.050000
endloop
endfacet
facet normal -0.671724 0.740801 0.000030
outer loop
vertex 7.790984 7.555735 0.000000
vertex 7.792802 7.557382 0.050000
vertex 7.792802 7.557384 0.000000
endloop
endfacet
facet normal -0.671966 0.740582 0.000000
outer loop
vertex 7.790984 7.555735 0.050000
vertex 7.790984 7.555735 0.100000
vertex 7.792802 7.557384 0.100000
endloop
endfacet
facet normal -0.671405 0.741091 -0.000030
outer loop
vertex 7.790984 7.555735 0.050000
vertex 7.792802 7.557384 0.100000
vertex 7.792802 7.557382 0.050000
endloop
endfacet
facet normal -0.595465 0.803382 -0.000030
outer loop
vertex 7.792802 7.557382 0.050000
vertex 7.792802 7.557384 0.100000
vertex 7.794772 7.558844 0.100000
endloop
endfacet
facet normal -0.595608 0.803275 -0.000004
outer loop
vertex 7.792802 7.557382 0.050000
vertex 7.794772 7.558844 0.100000
vertex 7.794773 7.558844 0.050000
endloop
endfacet
facet normal -0.595608 0.803275 0.000030
outer loop
vertex 7.792802 7.557384 0.000000
vertex 7.792802 7.557382 0.050000
vertex 7.794773 7.558844 0.050000
endloop
endfacet
facet normal -0.595465 0.803382 0.000004
outer loop
vertex 7.792802 7.557384 0.000000
vertex 7.794773 7.558844 0.050000
vertex 7.794772 7.558844 0.000000
endloop
endfacet
facet normal -0.514639 0.857407 0.000000
outer loop
vertex 7.794772 7.558844 0.000000
vertex 7.794773 7.558844 0.050000
vertex 7.796876 7.560106 0.050000
endloop
endfacet
facet normal -0.514424 0.857536 0.000007
outer loop
vertex 7.794772 7.558844 0.000000
vertex 7.796876 7.560106 0.050000
vertex 7.796877 7.560106 0.000000
endloop
endfacet
facet normal -0.514424 0.857536 -0.000030
outer loop
vertex 7.794773 7.558844 0.050000
vertex 7.794772 7.558844 0.100000
vertex 7.796877 7.560106 0.100000
endloop
endfacet
facet normal -0.514639 0.857407 0.000024
outer loop
vertex 7.794773 7.558844 0.050000
vertex 7.796877 7.560106 0.100000
vertex 7.796876 7.560106 0.050000
endloop
endfacet
facet normal -0.427351 0.904086 0.000000
outer loop
vertex 7.796876 7.560106 0.050000
vertex 7.796877 7.560106 0.100000
vertex 7.799094 7.561154 0.100000
endloop
endfacet
facet normal -0.427163 0.904175 0.000000
outer loop
vertex 7.796876 7.560106 0.050000
vertex 7.799094 7.561154 0.100000
vertex 7.799094 7.561154 0.050000
endloop
endfacet
facet normal -0.427163 0.904175 0.000000
outer loop
vertex 7.796877 7.560106 0.000000
vertex 7.796876 7.560106 0.050000
vertex 7.799094 7.561154 0.050000
endloop
endfacet
facet normal -0.427351 0.904086 0.000000
outer loop
vertex 7.796877 7.560106 0.000000
vertex 7.799094 7.561154 0.050000
vertex 7.799094 7.561154 0.000000
endloop
endfacet
facet normal 0.000000 0.000000 1.000000
outer loop
vertex 7.813538 7.562580 0.100000
vertex 7.811110 7.562937 0.100000
vertex 7.808661 7.538061 0.100000
endloop
endfacet
facet normal 0.000000 0.000000 1.000000
outer loop
vertex 7.813538 7.562580 0.100000
vertex 7.808661 7.538061 0.100000
vertex 7.815917 7.561980 0.100000
endloop
endfacet
facet normal -0.000008 0.000000 1.000000
outer loop
vertex 7.808660 7.563060 0.100000
vertex 7.806210 7.562937 0.100000
vertex 7.808661 7.538061 0.100000
endloop
endfacet
facet normal 0.000008 0.000000 1.000000
outer loop
vertex 7.808660 7.563060 0.100000
vertex 7.808661 7.538061 0.100000
vertex 7.811110 7.562937 0.100000
endloop
endfacet
facet normal 0.000000 0.000000 1.000000
outer loop
vertex 7.803783 7.562580 0.100000
vertex 7.801404 7.561980 0.100000
vertex 7.808661 7.538061 0.100000
endloop
endfacet
facet normal 0.000000 0.000000 1.000000
outer loop
vertex 7.803783 7.562580 0.100000
vertex 7.808661 7.538061 0.100000
vertex 7.806210 7.562937 0.100000
endloop
endfacet
facet normal 0.000008 0.000000 1.000000
outer loop
vertex 7.799093 7.561156 0.100000
vertex 7.796876 7.560106 0.100000
vertex 7.808661 7.538061 0.100000
endloop
endfacet
facet normal -0.000008 0.000000 1.000000
outer loop
vertex 7.799093 7.561156 0.100000
vertex 7.808661 7.538061 0.100000
vertex 7.801404 7.561980 0.100000
endloop
endfacet
facet normal 0.000000 0.000000 1.000000
outer loop
vertex 7.794771 7.558846 0.100000
vertex 7.792802 7.557384 0.100000
vertex 7.808661 7.538061 0.100000
endloop
endfacet
facet normal 0.000000 0.000000 1.000000
outer loop
vertex 7.794771 7.558846 0.100000
vertex 7.808661 7.538061 0.100000
vertex 7.796876 7.560106 0.100000
endloop
endfacet
facet normal 0.000004 0.000000 1.000000
outer loop
vertex 7.790983 7.555737 0.100000
vertex 7.789337 7.553918 0.100000
vertex 7.808661 7.538061 0.100000
endloop
endfacet
facet normal 0.000000 0.000000 1.000000
outer loop
vertex 7.790983 7.555737 0.100000
vertex 7.808661 7.538061 0.100000
vertex 7.792802 7.557384 0.100000
endloop
endfacet
facet normal 0.000000 0.000000 1.000000
outer loop
vertex 7.787873 7.551948 0.100000
vertex 7.786615 7.549844 0.100000
vertex 7.808661 7.538061 0.100000
endloop
endfacet
facet normal 0.000000 0.000000 1.000000
outer loop
vertex 7.787873 7.551948 0.100000
vertex 7.808661 7.538061 0.100000
vertex 7.789337 7.553918 0.100000
endloop
endfacet
facet normal 0.000002 0.000000 1.000000
outer loop
vertex 7.785563 7.547626 0.100000
vertex 7.784739 7.545317 0.100000
vertex 7.808661 7.538061 0.100000
endloop
endfacet
facet normal 0.000000 0.000000 1.000000
outer loop
vertex 7.785563 7.547626 0.100000
vertex 7.808661 7.538061 0.100000
vertex 7.786615 7.549844 0.100000
endloop
endfacet
facet normal 0.000000 0.000000 1.000000
outer loop
vertex 7.784141 7.542937 0.100000
vertex 7.783783 7.540509 0.100000
vertex 7.808661 7.538061 0.100000
endloop
endfacet
facet normal 0.000000 0.000000 1.000000
outer loop
vertex 7.784141 7.542937 0.100000
vertex 7.808661 7.538061 0.100000
vertex 7.784739 7.545317 0.100000
endloop
endfacet
facet normal 0.000000 0.000000 1.000000
outer loop
vertex 7.783660 7.538060 0.100000
vertex 7.783783 7.535610 0.100000
vertex 7.808661 7.538061 0.100000
endloop
endfacet
facet normal 0.000000 0.000000 1.000000
outer loop
vertex 7.783660 7.538060 0.100000
vertex 7.808661 7.538061 0.100000
vertex 7.783783 7.540509 0.100000
endloop
endfacet
facet normal 0.000000 0.000000 1.000000
outer loop
vertex 7.784141 7.533183 0.100000
vertex 7.784739 7.530804 0.100000
vertex 7.808661 7.538061 0.100000
endloop
endfacet
facet normal 0.000000 0.000000 1.000000
outer loop
vertex 7.784141 7.533183 0.100000
vertex 7.808661 7.538061 0.100000
vertex 7.783783 7.535610 0.100000
endloop
endfacet
facet normal 0.000000 0.000000 1.000000
outer loop
vertex 7.785563 7.528493 0.100000
vertex 7.786614 7.526276 0.100000
vertex 7.808661 7.538061 0.100000
endloop
endfacet
facet normal 0.000002 0.000000 1.000000
outer loop
vertex 7.785563 7.528493 0.100000
vertex 7.808661 7.538061 0.100000
vertex 7.784739 7.530804 0.100000
endloop
endfacet
facet normal 0.000000 0.000000 1.000000
outer loop
vertex 7.787873 7.524171 0.100000
vertex 7.789337 7.522202 0.100000
vertex 7.808661 7.538061 0.100000
endloop
endfacet
facet normal -0.000004 0.000000 1.000000
outer loop
vertex 7.787873 7.524171 0.100000
vertex 7.808661 7.538061 0.100000
vertex 7.786614 7.526276 0.100000
endloop
endfacet
facet normal 0.000000 0.000000 1.000000
outer loop
vertex 7.790983 7.520383 0.100000
vertex 7.792802 7.518737 0.100000
vertex 7.808661 7.538061 0.100000
endloop
endfacet
facet normal 0.000000 0.000000 1.000000
outer loop
vertex 7.790983 7.520383 0.100000
vertex 7.808661 7.538061 0.100000
vertex 7.789337 7.522202 0.100000
endloop
endfacet
facet normal 0.000000 0.000000 1.000000
outer loop
vertex 7.794771 7.517273 0.100000
vertex 7.796877 7.516015 0.100000
vertex 7.808661 7.538061 0.100000
endloop
endfacet
facet normal 0.000000 0.000000 1.000000
outer loop
vertex 7.794771 7.517273 0.100000
vertex 7.808661 7.538061 0.100000
vertex 7.792802 7.518737 0.100000
endloop
endfacet
facet normal -0.000008 0.000000 1.000000
outer loop
vertex 7.799093 7.514963 0.100000
vertex 7.801404 7.514139 0.100000
vertex 7.808661 7.538061 0.100000
endloop
endfacet
facet normal 0.000000 0.000000 1.000000
outer loop
vertex 7.799093 7.514963 0.100000
vertex 7.808661 7.538061 0.100000
vertex 7.796877 7.516015 0.100000
endloop
endfacet
facet normal -0.000008 0.000000 1.000000
outer loop
vertex 7.803783 7.513542 0.100000
vertex 7.806210 7.513183 0.100000
vertex 7.808661 7.538061 0.100000
endloop
endfacet
facet normal 0.000008 0.000000 1.000000
outer loop
vertex 7.803783 7.513542 0.100000
vertex 7.808661 7.538061 0.100000
vertex 7.801404 7.514139 0.100000
endloop
endfacet
facet normal 0.000000 0.000000 1.000000
outer loop
vertex 7.808660 7.513060 0.100000
vertex 7.811110 7.513183 0.100000
vertex 7.808661 7.538061 0.100000
endloop
endfacet
facet normal 0.000000 0.000000 1.000000
outer loop
vertex 7.808660 7.513060 0.100000
vertex 7.808661 7.538061 0.100000
vertex 7.806210 7.513183 0.100000
endloop
endfacet
facet normal -0.000008 0.000000 1.000000
outer loop
vertex 7.813538 7.513542 0.100000
vertex 7.815917 7.514139 0.100000
vertex 7.808661 7.538061 0.100000
endloop
endfacet
facet normal 0.000008 0.000000 1.000000
outer loop
vertex 7.813538 7.513542 0.100000
vertex 7.808661 7.538061 0.100000
vertex 7.811110 7.513183 0.100000
endloop
endfacet
facet normal 0.000000 0.000000 1.000000
outer loop
vertex 7.818227 7.514963 0.100000
vertex 7.820444 7.516014 0.100000
vertex 7.808661 7.538061 0.100000
endloop
endfacet
facet normal 0.000008 0.000000 1.000000
outer loop
vertex 7.818227 7.514963 0.100000
vertex 7.808661 7.538061 0.100000
vertex 7.815917 7.514139 0.100000
endloop
endfacet
facet normal 0.000000 0.000000 1.000000
outer loop
vertex 7.822549 7.517273 0.100000
vertex 7.824518 7.518737 0.100000
vertex 7.808661 7.538061 0.100000
endloop
endfacet
facet normal 0.000000 0.000000 1.000000
outer loop
vertex 7.822549 7.517273 0.100000
vertex 7.808661 7.538061 0.100000
vertex 7.820444 7.516014 0.100000
endloop
endfacet
facet normal 0.000000 0.000000 1.000000
outer loop
vertex 7.826337 7.520383 0.100000
vertex 7.827983 7.522202 0.100000
vertex 7.808661 7.538061 0.100000
endloop
endfacet
facet normal 0.000000 0.000000 1.000000
outer loop
vertex 7.826337 7.520383 0.100000
vertex 7.808661 7.538061 0.100000
vertex 7.824518 7.518737 0.100000
endloop
endfacet
facet normal 0.000000 0.000000 1.000000
outer loop
vertex 7.829446 7.524171 0.100000
vertex 7.830706 7.526277 0.100000
vertex 7.808661 7.538061 0.100000
endloop
endfacet
facet normal 0.000000 0.000000 1.000000
outer loop
vertex 7.829446 7.524171 0.100000
vertex 7.808661 7.538061 0.100000
vertex 7.827983 7.522202 0.100000
endloop
endfacet
facet normal -0.000002 0.000000 1.000000
outer loop
vertex 7.831757 7.528493 0.100000
vertex 7.832581 7.530804 0.100000
vertex 7.808661 7.538061 0.100000
endloop
endfacet
facet normal 0.000000 0.000000 1.000000
outer loop
vertex 7.831757 7.528493 0.100000
vertex 7.808661 7.538061 0.100000
vertex 7.830706 7.526277 0.100000
endloop
endfacet
facet normal 0.000000 0.000000 1.000000
outer loop
vertex 7.833180 7.533183 0.100000
vertex 7.833538 7.535610 0.100000
vertex 7.808661 7.538061 0.100000
endloop
endfacet
facet normal 0.000000 0.000000 1.000000
outer loop
vertex 7.833180 7.533183 0.100000
vertex 7.808661 7.538061 0.100000
vertex 7.832581 7.530804 0.100000
endloop
endfacet
facet normal 0.000000 0.000000 1.000000
outer loop
vertex 7.833660 7.538060 0.100000
vertex 7.833538 7.540509 0.100000
vertex 7.808661 7.538061 0.100000
endloop
endfacet
facet normal 0.000000 0.000000 1.000000
outer loop
vertex 7.833660 7.538060 0.100000
vertex 7.808661 7.538061 0.100000
vertex 7.833538 7.535610 0.100000
endloop
endfacet
facet normal 0.000000 0.000000 1.000000
outer loop
vertex 7.833180 7.542937 0.100000
vertex 7.832581 7.545317 0.100000
vertex 7.808661 7.538061 0.100000
endloop
endfacet
facet normal 0.000000 0.000000 1.000000
outer loop
vertex 7.833180 7.542937 0.100000
vertex 7.808661 7.538061 0.100000
vertex 7.833538 7.540509 0.100000
endloop
endfacet
facet normal 0.000000 0.000000 1.000000
outer loop
vertex 7.831757 7.547626 0.100000
vertex 7.830706 7.549844 0.100000
vertex 7.808661 7.538061 0.100000
endloop
endfacet
facet normal -0.000002 0.000000 1.000000
outer loop
vertex 7.831757 7.547626 0.100000
vertex 7.808661 7.538061 0.100000
vertex 7.832581 7.545317 0.100000
endloop
endfacet
facet normal 0.000000 0.000000 1.000000
outer loop
vertex 7.829446 7.551948 0.100000
vertex 7.827983 7.553918 0.100000
vertex 7.808661 7.538061 0.100000
endloop
endfacet
facet normal 0.000000 0.000000 1.000000
outer loop
vertex 7.829446 7.551948 0.100000
vertex 7.808661 7.538061 0.100000
vertex 7.830706 7.549844 0.100000
endloop
endfacet
facet normal 0.000000 0.000000 1.000000
outer loop
vertex 7.826337 7.555737 0.100000
vertex 7.824518 7.557384 0.100000
vertex 7.808661 7.538061 0.100000
endloop
endfacet
facet normal -0.000004 0.000000 1.000000
outer loop
vertex 7.826337 7.555737 0.100000
vertex 7.808661 7.538061 0.100000
vertex 7.827983 7.553918 0.100000
endloop
endfacet
facet normal 0.000000 0.000000 1.000000
outer loop
vertex 7.822549 7.558846 0.100000
vertex 7.820444 7.560106 0.100000
vertex 7.808661 7.538061 0.100000
endloop
endfacet
facet normal 0.000000 0.000000 1.000000
outer loop
vertex 7.822549 7.558846 0.100000
vertex 7.808661 7.538061 0.100000
vertex 7.824518 7.557384 0.100000
endloop
endfacet
facet normal 0.000008 0.000000 1.000000
outer loop
vertex 7.818227 7.561156 0.100000
vertex 7.815917 7.561980 0.100000
vertex 7.808661 7.538061 0.100000
endloop
endfacet
facet normal -0.000008 0.000000 1.000000
outer loop
vertex 7.818227 7.561156 0.100000
vertex 7.808661 7.538061 0.100000
vertex 7.820444 7.560106 0.100000
endloop
endfacet
facet normal -0.336620 0.941641 0.000000
outer loop
vertex 7.799094 7.561154 0.000000
vertex 7.799094 7.561154 0.050000
vertex 7.801404 7.561980 0.050000
endloop
endfacet
facet normal -0.336774 0.941586 0.000000
outer loop
vertex 7.799094 7.561154 0.000000
vertex 7.801404 7.561980 0.050000
vertex 7.801404 7.561980 0.000000
endloop
endfacet
facet normal -0.336619 0.941641 0.000000
outer loop
vertex 7.799094 7.561154 0.050000
vertex 7.799094 7.561154 0.100000
vertex 7.801404 7.561980 0.100000
endloop
endfacet
facet normal -0.336774 0.941586 0.000000
outer loop
vertex 7.799094 7.561154 0.050000
vertex 7.801404 7.561980 0.100000
vertex 7.801404 7.561980 0.050000
endloop
endfacet
facet normal -0.243244 0.969965 0.000000
outer loop
vertex 7.801404 7.561980 0.050000
vertex 7.801404 7.561980 0.100000
vertex 7.803784 7.562577 0.100000
endloop
endfacet
facet normal -0.243474 0.969908 0.000001
outer loop
vertex 7.801404 7.561980 0.050000
vertex 7.803784 7.562577 0.100000
vertex 7.803783 7.562577 0.050000
endloop
endfacet
facet normal -0.243474 0.969908 0.000000
outer loop
vertex 7.801404 7.561980 0.000000
vertex 7.801404 7.561980 0.050000
vertex 7.803783 7.562577 0.050000
endloop
endfacet
facet normal -0.243244 0.969965 -0.000001
outer loop
vertex 7.801404 7.561980 0.000000
vertex 7.803783 7.562577 0.050000
vertex 7.803784 7.562577 0.000000
endloop
endfacet
facet normal -0.146725 0.989177 -0.000030
outer loop
vertex 7.803784 7.562577 0.000000
vertex 7.803783 7.562577 0.050000
vertex 7.806210 7.562937 0.050000
endloop
endfacet
facet normal -0.146795 0.989167 0.000000
outer loop
vertex 7.803784 7.562577 0.000000
vertex 7.806210 7.562937 0.050000
vertex 7.806210 7.562937 0.000000
endloop
endfacet
facet normal -0.146795 0.989167 0.000030
outer loop
vertex 7.803783 7.562577 0.050000
vertex 7.803784 7.562577 0.100000
vertex 7.806210 7.562937 0.100000
endloop
endfacet
facet normal -0.146725 0.989177 0.000000
outer loop
vertex 7.803783 7.562577 0.050000
vertex 7.806210 7.562937 0.100000
vertex 7.806210 7.562937 0.050000
endloop
endfacet
facet normal -0.049162 0.998791 0.000000
outer loop
vertex 7.806210 7.562937 0.050000
vertex 7.806210 7.562937 0.100000
vertex 7.808660 7.563058 0.100000
endloop
endfacet
facet normal -0.049186 0.998790 0.000000
outer loop
vertex 7.806210 7.562937 0.050000
vertex 7.808660 7.563058 0.100000
vertex 7.808660 7.563058 0.050000
endloop
endfacet
facet normal -0.049162 0.998791 0.000000
outer loop
vertex 7.806210 7.562937 0.000000
vertex 7.806210 7.562937 0.050000
vertex 7.808660 7.563058 0.050000
endloop
endfacet
facet normal -0.049186 0.998790 0.000000
outer loop
vertex 7.806210 7.562937 0.000000
vertex 7.808660 7.563058 0.050000
vertex 7.808660 7.563058 0.000000
endloop
endfacet
facet normal 0.000000 0.000000 -1.000000
outer loop
vertex 7.808660 7.563060 0.000000
vertex 7.811110 7.562937 0.000000
vertex 7.808661 7.538061 0.000000
endloop
endfacet
facet normal 0.000000 0.000000 -1.000000
outer loop
vertex 7.808660 7.563060 0.000000
vertex 7.808661 7.538061 0.000000
vertex 7.806210 7.562937 0.000000
endloop
endfacet
facet normal 0.000000 0.000000 -1.000000
outer loop
vertex 7.813538 7.562580 0.000000
vertex 7.815917 7.561980 0.000000
vertex 7.808661 7.538061 0.000000
endloop
endfacet
facet normal 0.000000 0.000000 -1.000000
outer loop
vertex 7.813538 7.562580 0.000000
vertex 7.808661 7.538061 0.000000
vertex 7.811110 7.562937 0.000000
endloop
endfacet
facet normal 0.000000 0.000000 -1.000000
outer loop
vertex 7.818227 7.561156 0.000000
vertex 7.820444 7.560106 0.000000
vertex 7.808661 7.538061 0.000000
endloop
endfacet
facet normal 0.000000 0.000000 -1.000000
outer loop
vertex 7.818227 7.561156 0.000000
vertex 7.808661 7.538061 0.000000
vertex 7.815917 7.561980 0.000000
endloop
endfacet
facet normal 0.000000 0.000000 -1.000000
outer loop
vertex 7.822549 7.558846 0.000000
vertex 7.824518 7.557384 0.000000
vertex 7.808661 7.538061 0.000000
endloop
endfacet
facet normal 0.000000 0.000000 -1.000000
outer loop
vertex 7.822549 7.558846 0.000000
vertex 7.808661 7.538061 0.000000
vertex 7.820444 7.560106 0.000000
endloop
endfacet
facet normal 0.000000 0.000000 -1.000000
outer loop
vertex 7.826337 7.555737 0.000000
vertex 7.827983 7.553918 0.000000
vertex 7.808661 7.538061 0.000000
endloop
endfacet
facet normal 0.000000 0.000000 -1.000000
outer loop
vertex 7.826337 7.555737 0.000000
vertex 7.808661 7.538061 0.000000
vertex 7.824518 7.557384 0.000000
endloop
endfacet
facet normal 0.000000 0.000000 -1.000000
outer loop
vertex 7.829446 7.551948 0.000000
vertex 7.830706 7.549844 0.000000
vertex 7.808661 7.538061 0.000000
endloop
endfacet
facet normal 0.000000 0.000000 -1.000000
outer loop
vertex 7.829446 7.551948 0.000000
vertex 7.808661 7.538061 0.000000
vertex 7.827983 7.553918 0.000000
endloop
endfacet
facet normal 0.000000 0.000000 -1.000000
outer loop
vertex 7.831757 7.547626 0.000000
vertex 7.832581 7.545317 0.000000
vertex 7.808661 7.538061 0.000000
endloop
endfacet
facet normal 0.000000 0.000000 -1.000000
outer loop
vertex 7.831757 7.547626 0.000000
vertex 7.808661 7.538061 0.000000
vertex 7.830706 7.549844 0.000000
endloop
endfacet
facet normal 0.000000 0.000000 -1.000000
outer loop
vertex 7.833180 7.542937 0.000000
vertex 7.833538 7.540509 0.000000
vertex 7.808661 7.538061 0.000000
endloop
endfacet
facet normal 0.000000 0.000000 -1.000000
outer loop
vertex 7.833180 7.542937 0.000000
vertex 7.808661 7.538061 0.000000
vertex 7.832581 7.545317 0.000000
endloop
endfacet
facet normal 0.000000 0.000000 -1.000000
outer loop
vertex 7.833660 7.538060 0.000000
vertex 7.833538 7.535610 0.000000
vertex 7.808661 7.538061 0.000000
endloop
endfacet
facet normal 0.000000 0.000000 -1.000000
outer loop
vertex 7.833660 7.538060 0.000000
vertex 7.808661 7.538061 0.000000
vertex 7.833538 7.540509 0.000000
endloop
endfacet
facet normal 0.000000 0.000000 -1.000000
outer loop
vertex 7.833180 7.533183 0.000000
vertex 7.832581 7.530804 0.000000
vertex 7.808661 7.538061 0.000000
endloop
endfacet
facet normal 0.000000 0.000000 -1.000000
outer loop
vertex 7.833180 7.533183 0.000000
vertex 7.808661 7.538061 0.000000
vertex 7.833538 7.535610 0.000000
endloop
endfacet
facet normal 0.000000 0.000000 -1.000000
outer loop
vertex 7.831757 7.528493 0.000000
vertex 7.830706 7.526276 0.000000
vertex 7.808661 7.538061 0.000000
endloop
endfacet
facet normal 0.000000 0.000000 -1.000000
outer loop
vertex 7.831757 7.528493 0.000000
vertex 7.808661 7.538061 0.000000
vertex 7.832581 7.530804 0.000000
endloop
endfacet
facet normal 0.000000 0.000000 -1.000000
outer loop
vertex 7.829446 7.524171 0.000000
vertex 7.827983 7.522202 0.000000
vertex 7.808661 7.538061 0.000000
endloop
endfacet
facet normal 0.000000 0.000000 -1.000000
outer loop
vertex 7.829446 7.524171 0.000000
vertex 7.808661 7.538061 0.000000
vertex 7.830706 7.526276 0.000000
endloop
endfacet
facet normal 0.000000 0.000000 -1.000000
outer loop
vertex 7.826337 7.520383 0.000000
vertex 7.824518 7.518737 0.000000
vertex 7.808661 7.538061 0.000000
endloop
endfacet
facet normal 0.000000 0.000000 -1.000000
outer loop
vertex 7.826337 7.520383 0.000000
vertex 7.808661 7.538061 0.000000
vertex 7.827983 7.522202 0.000000
endloop
endfacet
facet normal 0.000000 0.000000 -1.000000
outer loop
vertex 7.822549 7.517273 0.000000
vertex 7.820444 7.516014 0.000000
vertex 7.808661 7.538061 0.000000
endloop
endfacet
facet normal 0.000000 0.000000 -1.000000
outer loop
vertex 7.822549 7.517273 0.000000
vertex 7.808661 7.538061 0.000000
vertex 7.824518 7.518737 0.000000
endloop
endfacet
facet normal 0.000000 0.000000 -1.000000
outer loop
vertex 7.818227 7.514963 0.000000
vertex 7.815917 7.514139 0.000000
vertex 7.808661 7.538061 0.000000
endloop
endfacet
facet normal 0.000000 0.000000 -1.000000
outer loop
vertex 7.818227 7.514963 0.000000
vertex 7.808661 7.538061 0.000000
vertex 7.820444 7.516014 0.000000
endloop
endfacet
facet normal 0.000000 0.000000 -1.000000
outer loop
vertex 7.813538 7.513542 0.000000
vertex 7.811110 7.513183 0.000000
vertex 7.808661 7.538061 0.000000
endloop
endfacet
facet normal 0.000000 0.000000 -1.000000
outer loop
vertex 7.813538 7.513542 0.000000
vertex 7.808661 7.538061 0.000000
vertex 7.815917 7.514139 0.000000
endloop
endfacet
facet normal 0.000000 0.000000 -1.000000
outer loop
vertex 7.808660 7.513060 0.000000
vertex 7.806210 7.513183 0.000000
vertex 7.808661 7.538061 0.000000
endloop
endfacet
facet normal 0.000000 0.000000 -1.000000
outer loop
vertex 7.808660 7.513060 0.000000
vertex 7.808661 7.538061 0.000000
vertex 7.811110 7.513183 0.000000
endloop
endfacet
facet normal 0.000000 0.000000 -1.000000
outer loop
vertex 7.803783 7.513542 0.000000
vertex 7.801404 7.514139 0.000000
vertex 7.808661 7.538061 0.000000
endloop
endfacet
facet normal 0.000000 0.000000 -1.000000
outer loop
vertex 7.803783 7.513542 0.000000
vertex 7.808661 7.538061 0.000000
vertex 7.806210 7.513183 0.000000
endloop
endfacet
facet normal 0.000000 0.000000 -1.000000
outer loop
vertex 7.799093 7.514963 0.000000
vertex 7.796876 7.516014 0.000000
vertex 7.808661 7.538061 0.000000
endloop
endfacet
facet normal 0.000000 0.000000 -1.000000
outer loop
vertex 7.799093 7.514963 0.000000
vertex 7.808661 7.538061 0.000000
vertex 7.801404 7.514139 0.000000
endloop
endfacet
facet normal 0.000000 0.000000 -1.000000
outer loop
vertex 7.794771 7.517273 0.000000
vertex 7.792802 7.518737 0.000000
vertex 7.808661 7.538061 0.000000
endloop
endfacet
facet normal 0.000000 0.000000 -1.000000
outer loop
vertex 7.794771 7.517273 0.000000
vertex 7.808661 7.538061 0.000000
vertex 7.796876 7.516014 0.000000
endloop
endfacet
facet normal 0.000000 0.000000 -1.000000
outer loop
vertex 7.790983 7.520383 0.000000
vertex 7.789337 7.522202 0.000000
vertex 7.808661 7.538061 0.000000
endloop
endfacet
facet normal 0.000000 0.000000 -1.000000
outer loop
vertex 7.790983 7.520383 0.000000
vertex 7.808661 7.538061 0.000000
vertex 7.792802 7.518737 0.000000
endloop
endfacet
facet normal 0.000000 0.000000 -1.000000
outer loop
vertex 7.787873 7.524171 0.000000
vertex 7.786614 7.526277 0.000000
vertex 7.808661 7.538061 0.000000
endloop
endfacet
facet normal 0.000000 0.000000 -1.000000
outer loop
vertex 7.787873 7.524171 0.000000
vertex 7.808661 7.538061 0.000000
vertex 7.789337 7.522202 0.000000
endloop
endfacet
facet normal 0.000000 0.000000 -1.000000
outer loop
vertex 7.785563 7.528493 0.000000
vertex 7.784739 7.530804 0.000000
vertex 7.808661 7.538061 0.000000
endloop
endfacet
facet normal 0.000000 0.000000 -1.000000
outer loop
vertex 7.785563 7.528493 0.000000
vertex 7.808661 7.538061 0.000000
vertex 7.786614 7.526277 0.000000
endloop
endfacet
facet normal 0.000000 0.000000 -1.000000
outer loop
vertex 7.784141 7.533183 0.000000
vertex 7.783783 7.535610 0.000000
vertex 7.808661 7.538061 0.000000
endloop
endfacet
facet normal 0.000000 0.000000 -1.000000
outer loop
vertex 7.784141 7.533183 0.000000
vertex 7.808661 7.538061 0.000000
vertex 7.784739 7.530804 0.000000
endloop
endfacet
facet normal 0.000000 0.000000 -1.000000
outer loop
vertex 7.783660 7.538060 0.000000
vertex 7.783783 7.540509 0.000000
vertex 7.808661 7.538061 0.000000
endloop
endfacet
facet normal 0.000000 0.000000 -1.000000
outer loop
vertex 7.783660 7.538060 0.000000
vertex 7.808661 7.538061 0.000000
vertex 7.783783 7.535610 0.000000
endloop
endfacet
facet normal 0.000000 0.000000 -1.000000
outer loop
vertex 7.784141 7.542937 0.000000
vertex 7.784739 7.545317 0.000000
vertex 7.808661 7.538061 0.000000
endloop
endfacet
facet normal 0.000000 0.000000 -1.000000
outer loop
vertex 7.784141 7.542937 0.000000
vertex 7.808661 7.538061 0.000000
vertex 7.783783 7.540509 0.000000
endloop
endfacet
facet normal 0.000000 0.000000 -1.000000
outer loop
vertex 7.785563 7.547626 0.000000
vertex 7.786614 7.549844 0.000000
vertex 7.808661 7.538061 0.000000
endloop
endfacet
facet normal 0.000000 0.000000 -1.000000
outer loop
vertex 7.785563 7.547626 0.000000
vertex 7.808661 7.538061 0.000000
vertex 7.784739 7.545317 0.000000
endloop
endfacet
facet normal 0.000000 0.000000 -1.000000
outer loop
vertex 7.787873 7.551948 0.000000
vertex 7.789337 7.553918 0.000000
vertex 7.808661 7.538061 0.000000
endloop
endfacet
facet normal 0.000000 0.000000 -1.000000
outer loop
vertex 7.787873 7.551948 0.000000
vertex 7.808661 7.538061 0.000000
vertex 7.786614 7.549844 0.000000
endloop
endfacet
facet normal 0.000000 0.000000 -1.000000
outer loop
vertex 7.790983 7.555737 0.000000
vertex 7.792802 7.557384 0.000000
vertex 7.808661 7.538061 0.000000
endloop
endfacet
facet normal 0.000000 0.000000 -1.000000
outer loop
vertex 7.790983 7.555737 0.000000
vertex 7.808661 7.538061 0.000000
vertex 7.789337 7.553918 0.000000
endloop
endfacet
facet normal 0.000000 0.000000 -1.000000
outer loop
vertex 7.794771 7.558846 0.000000
vertex 7.796877 7.560106 0.000000
vertex 7.808661 7.538061 0.000000
endloop
endfacet
facet normal 0.000000 0.000000 -1.000000
outer loop
vertex 7.794771 7.558846 0.000000
vertex 7.808661 7.538061 0.000000
vertex 7.792802 7.557384 0.000000
endloop
endfacet
facet normal 0.000000 0.000000 -1.000000
outer loop
vertex 7.799093 7.561156 0.000000
vertex 7.801404 7.561980 0.000000
vertex 7.808661 7.538061 0.000000
endloop
endfacet
facet normal 0.000000 0.000000 -1.000000
outer loop
vertex 7.799093 7.561156 0.000000
vertex 7.808661 7.538061 0.000000
vertex 7.796877 7.560106 0.000000
endloop
endfacet
facet normal 0.000000 0.000000 -1.000000
outer loop
vertex 7.803783 7.562580 0.000000
vertex 7.806210 7.562937 0.000000
vertex 7.808661 7.538061 0.000000
endloop
endfacet
facet normal 0.000000 0.000000 -1.000000
outer loop
vertex 7.803783 7.562580 0.000000
vertex 7.808661 7.538061 0.000000
vertex 7.801404 7.561980 0.000000
endloop
endfacet
endsolid Exported from Blender-2.82 (sub 7)
