solid Exported from Blender-2.82 (sub 7)
facet normal 0.049356 0.998781 0.000000
outer loop
vertex 8.707110 7.317888 0.000000
vertex 8.707110 7.317888 0.050000
vertex 8.709560 7.317767 0.050000
endloop
endfacet
facet normal 0.049380 0.998780 0.000000
outer loop
vertex 8.707110 7.317888 0.000000
vertex 8.709560 7.317767 0.050000
vertex 8.709560 7.317767 0.000000
endloop
endfacet
facet normal 0.049356 0.998781 0.000000
outer loop
vertex 8.707110 7.317888 0.050000
vertex 8.707110 7.317888 0.100000
vertex 8.709560 7.317767 0.100000
endloop
endfacet
facet normal 0.049380 0.998780 0.000000
outer loop
vertex 8.707110 7.317888 0.050000
vertex 8.709560 7.317767 0.100000
vertex 8.709560 7.317767 0.050000
endloop
endfacet
facet normal 0.146795 0.989167 0.000000
outer loop
vertex 8.709560 7.317767 0.050000
vertex 8.709560 7.317767 0.100000
vertex 8.711987 7.317407 0.100000
endloop
endfacet
facet normal 0.146654 0.989188 0.000000
outer loop
vertex 8.709560 7.317767 0.050000
vertex 8.711987 7.317407 0.100000
vertex 8.711987 7.317407 0.050000
endloop
endfacet
facet normal 0.146795 0.989167 0.000000
outer loop
vertex 8.709560 7.317767 0.000000
vertex 8.709560 7.317767 0.050000
vertex 8.711987 7.317407 0.050000
endloop
endfacet
facet normal 0.146654 0.989188 0.000000
outer loop
vertex 8.709560 7.317767 0.000000
vertex 8.711987 7.317407 0.050000
vertex 8.711987 7.317407 0.000000
endloop
endfacet
facet normal 0.243474 0.969908 0.000000
outer loop
vertex 8.711987 7.317407 0.000000
vertex 8.711987 7.317407 0.050000
vertex 8.714367 7.316810 0.050000
endloop
endfacet
facet normal 0.243244 0.969965 0.000000
outer loop
vertex 8.711987 7.317407 0.000000
vertex 8.714367 7.316810 0.050000
vertex 8.714367 7.316810 0.000000
endloop
endfacet
facet normal 0.243474 0.969908 0.000000
outer loop
vertex 8.711987 7.317407 0.050000
vertex 8.711987 7.317407 0.100000
vertex 8.714367 7.316810 0.100000
endloop
endfacet
facet normal 0.243244 0.969965 0.000000
outer loop
vertex 8.711987 7.317407 0.050000
vertex 8.714367 7.316810 0.100000
vertex 8.714367 7.316810 0.050000
endloop
endfacet
facet normal 0.337100 0.941469 0.000000
outer loop
vertex 8.714367 7.316810 0.050000
vertex 8.714367 7.316810 0.100000
vertex 8.716676 7.315984 0.100000
endloop
endfacet
facet normal 0.336946 0.941524 0.000000
outer loop
vertex 8.714367 7.316810 0.050000
vertex 8.716676 7.315984 0.100000
vertex 8.716676 7.315984 0.050000
endloop
endfacet
facet normal 0.337100 0.941469 0.000000
outer loop
vertex 8.714367 7.316810 0.000000
vertex 8.714367 7.316810 0.050000
vertex 8.716676 7.315984 0.050000
endloop
endfacet
facet normal 0.336946 0.941524 0.000000
outer loop
vertex 8.714367 7.316810 0.000000
vertex 8.716676 7.315984 0.050000
vertex 8.716676 7.315984 0.000000
endloop
endfacet
facet normal 0.427004 0.904250 0.000000
outer loop
vertex 8.716676 7.315984 0.000000
vertex 8.716676 7.315984 0.050000
vertex 8.718895 7.314936 0.050000
endloop
endfacet
facet normal 0.426629 0.904427 0.000000
outer loop
vertex 8.716676 7.315984 0.000000
vertex 8.718895 7.314936 0.050000
vertex 8.718895 7.314936 0.000000
endloop
endfacet
facet normal 0.427004 0.904250 0.000000
outer loop
vertex 8.716676 7.315984 0.050000
vertex 8.716676 7.315984 0.100000
vertex 8.718895 7.314936 0.100000
endloop
endfacet
facet normal 0.426629 0.904427 0.000000
outer loop
vertex 8.716676 7.315984 0.050000
vertex 8.718895 7.314936 0.100000
vertex 8.718895 7.314936 0.050000
endloop
endfacet
facet normal 0.514853 0.857278 0.000000
outer loop
vertex 8.718895 7.314936 0.050000
vertex 8.718895 7.314936 0.100000
vertex 8.720997 7.313674 0.100000
endloop
endfacet
facet normal 0.514853 0.857278 0.000000
outer loop
vertex 8.718895 7.314936 0.050000
vertex 8.720997 7.313674 0.100000
vertex 8.720997 7.313674 0.050000
endloop
endfacet
facet normal 0.514853 0.857278 0.000000
outer loop
vertex 8.718895 7.314936 0.000000
vertex 8.718895 7.314936 0.050000
vertex 8.720997 7.313674 0.050000
endloop
endfacet
facet normal 0.514853 0.857278 0.000000
outer loop
vertex 8.718895 7.314936 0.000000
vertex 8.720997 7.313674 0.050000
vertex 8.720997 7.313674 0.000000
endloop
endfacet
facet normal 0.595608 0.803275 0.000000
outer loop
vertex 8.720997 7.313674 0.000000
vertex 8.720997 7.313674 0.050000
vertex 8.722968 7.312212 0.050000
endloop
endfacet
facet normal 0.595841 0.803102 0.000000
outer loop
vertex 8.720997 7.313674 0.000000
vertex 8.722968 7.312212 0.050000
vertex 8.722968 7.312212 0.000000
endloop
endfacet
facet normal 0.595608 0.803275 0.000000
outer loop
vertex 8.720997 7.313674 0.050000
vertex 8.720997 7.313674 0.100000
vertex 8.722968 7.312212 0.100000
endloop
endfacet
facet normal 0.595841 0.803102 0.000000
outer loop
vertex 8.720997 7.313674 0.050000
vertex 8.722968 7.312212 0.100000
vertex 8.722968 7.312212 0.050000
endloop
endfacet
facet normal 0.671404 0.741091 0.000000
outer loop
vertex 8.722968 7.312212 0.050000
vertex 8.722968 7.312212 0.100000
vertex 8.724785 7.310565 0.100000
endloop
endfacet
facet normal 0.671888 0.740653 0.000000
outer loop
vertex 8.722968 7.312212 0.050000
vertex 8.724785 7.310565 0.100000
vertex 8.724785 7.310565 0.050000
endloop
endfacet
facet normal 0.671404 0.741091 0.000000
outer loop
vertex 8.722968 7.312212 0.000000
vertex 8.722968 7.312212 0.050000
vertex 8.724785 7.310565 0.050000
endloop
endfacet
facet normal 0.671888 0.740653 0.000000
outer loop
vertex 8.722968 7.312212 0.000000
vertex 8.724785 7.310565 0.050000
vertex 8.724785 7.310565 0.000000
endloop
endfacet
facet normal 0.740533 0.672020 0.000000
outer loop
vertex 8.724785 7.310565 0.000000
vertex 8.724785 7.310565 0.050000
vertex 8.726434 7.308748 0.050000
endloop
endfacet
facet normal 0.740292 0.672286 0.000000
outer loop
vertex 8.724785 7.310565 0.000000
vertex 8.726434 7.308748 0.050000
vertex 8.726434 7.308748 0.000000
endloop
endfacet
facet normal 0.740533 0.672020 0.000000
outer loop
vertex 8.724785 7.310565 0.050000
vertex 8.724785 7.310565 0.100000
vertex 8.726434 7.308748 0.100000
endloop
endfacet
facet normal 0.740292 0.672286 0.000000
outer loop
vertex 8.724785 7.310565 0.050000
vertex 8.726434 7.308748 0.100000
vertex 8.726434 7.308748 0.050000
endloop
endfacet
facet normal 0.803764 0.594949 0.000000
outer loop
vertex 8.726434 7.308748 0.050000
vertex 8.726434 7.308748 0.100000
vertex 8.727894 7.306777 0.100000
endloop
endfacet
facet normal 0.803531 0.595262 0.000000
outer loop
vertex 8.726434 7.308748 0.050000
vertex 8.727894 7.306777 0.100000
vertex 8.727894 7.306777 0.050000
endloop
endfacet
facet normal 0.803764 0.594949 0.000000
outer loop
vertex 8.726434 7.308748 0.000000
vertex 8.726434 7.308748 0.050000
vertex 8.727894 7.306777 0.050000
endloop
endfacet
facet normal 0.803531 0.595262 0.000000
outer loop
vertex 8.726434 7.308748 0.000000
vertex 8.727894 7.306777 0.050000
vertex 8.727894 7.306777 0.000000
endloop
endfacet
facet normal 0.857364 0.514710 0.000000
outer loop
vertex 8.727894 7.306777 0.000000
vertex 8.727894 7.306777 0.050000
vertex 8.729156 7.304674 0.050000
endloop
endfacet
facet normal 0.857150 0.515067 0.000000
outer loop
vertex 8.727894 7.306777 0.000000
vertex 8.729156 7.304674 0.050000
vertex 8.729156 7.304674 0.000000
endloop
endfacet
facet normal 0.857364 0.514710 0.000000
outer loop
vertex 8.727894 7.306777 0.050000
vertex 8.727894 7.306777 0.100000
vertex 8.729156 7.304674 0.100000
endloop
endfacet
facet normal 0.857150 0.515067 0.000000
outer loop
vertex 8.727894 7.306777 0.050000
vertex 8.729156 7.304674 0.100000
vertex 8.729156 7.304674 0.050000
endloop
endfacet
facet normal 0.904078 0.427368 0.000000
outer loop
vertex 8.729156 7.304674 0.050000
vertex 8.729156 7.304674 0.100000
vertex 8.730206 7.302455 0.100000
endloop
endfacet
facet normal 0.904078 0.427368 0.000000
outer loop
vertex 8.729156 7.304674 0.050000
vertex 8.730206 7.302455 0.100000
vertex 8.730206 7.302455 0.050000
endloop
endfacet
facet normal 0.904078 0.427368 0.000000
outer loop
vertex 8.729156 7.304674 0.000000
vertex 8.729156 7.304674 0.050000
vertex 8.730206 7.302455 0.050000
endloop
endfacet
facet normal 0.904078 0.427368 0.000000
outer loop
vertex 8.729156 7.304674 0.000000
vertex 8.730206 7.302455 0.050000
vertex 8.730206 7.302455 0.000000
endloop
endfacet
facet normal 0.941654 0.336583 0.000000
outer loop
vertex 8.730206 7.302455 0.000000
vertex 8.730206 7.302455 0.050000
vertex 8.731031 7.300147 0.050000
endloop
endfacet
facet normal 0.941500 0.337014 0.000000
outer loop
vertex 8.730206 7.302455 0.000000
vertex 8.731031 7.300147 0.050000
vertex 8.731031 7.300147 0.000000
endloop
endfacet
facet normal 0.941654 0.336583 0.000000
outer loop
vertex 8.730206 7.302455 0.050000
vertex 8.730206 7.302455 0.100000
vertex 8.731031 7.300147 0.100000
endloop
endfacet
facet normal 0.941500 0.337014 0.000000
outer loop
vertex 8.730206 7.302455 0.050000
vertex 8.731031 7.300147 0.100000
vertex 8.731031 7.300147 0.050000
endloop
endfacet
facet normal 0.969925 0.243404 0.000000
outer loop
vertex 8.731031 7.300147 0.050000
vertex 8.731031 7.300147 0.100000
vertex 8.731628 7.297767 0.100000
endloop
endfacet
facet normal 0.969925 0.243404 0.000000
outer loop
vertex 8.731031 7.300147 0.050000
vertex 8.731628 7.297767 0.100000
vertex 8.731628 7.297767 0.050000
endloop
endfacet
facet normal 0.969925 0.243404 0.000000
outer loop
vertex 8.731031 7.300147 0.000000
vertex 8.731031 7.300147 0.050000
vertex 8.731628 7.297767 0.050000
endloop
endfacet
facet normal 0.969925 0.243404 0.000000
outer loop
vertex 8.731031 7.300147 0.000000
vertex 8.731628 7.297767 0.050000
vertex 8.731628 7.297767 0.000000
endloop
endfacet
facet normal 0.989186 0.146668 0.000000
outer loop
vertex 8.731628 7.297767 0.000000
vertex 8.731628 7.297767 0.050000
vertex 8.731989 7.295339 0.050000
endloop
endfacet
facet normal 0.989115 0.147143 0.000000
outer loop
vertex 8.731628 7.297767 0.000000
vertex 8.731989 7.295339 0.050000
vertex 8.731989 7.295339 0.000000
endloop
endfacet
facet normal 0.989186 0.146668 0.000000
outer loop
vertex 8.731628 7.297767 0.050000
vertex 8.731628 7.297767 0.100000
vertex 8.731989 7.295339 0.100000
endloop
endfacet
facet normal 0.989115 0.147143 0.000000
outer loop
vertex 8.731628 7.297767 0.050000
vertex 8.731989 7.295339 0.100000
vertex 8.731989 7.295339 0.050000
endloop
endfacet
facet normal 0.998841 0.048133 0.000000
outer loop
vertex 8.731989 7.295339 0.050000
vertex 8.731989 7.295339 0.100000
vertex 8.732108 7.292890 0.100000
endloop
endfacet
facet normal 0.998794 0.049103 0.000000
outer loop
vertex 8.731989 7.295339 0.050000
vertex 8.732108 7.292890 0.100000
vertex 8.732108 7.292890 0.050000
endloop
endfacet
facet normal 0.998841 0.048133 0.000000
outer loop
vertex 8.731989 7.295339 0.000000
vertex 8.731989 7.295339 0.050000
vertex 8.732108 7.292890 0.050000
endloop
endfacet
facet normal 0.998794 0.049103 0.000000
outer loop
vertex 8.731989 7.295339 0.000000
vertex 8.732108 7.292890 0.050000
vertex 8.732108 7.292890 0.000000
endloop
endfacet
facet normal 0.998795 -0.049084 0.000000
outer loop
vertex 8.732108 7.292890 0.000000
vertex 8.732108 7.292890 0.050000
vertex 8.731989 7.290440 0.050000
endloop
endfacet
facet normal 0.998842 -0.048115 0.000000
outer loop
vertex 8.732108 7.292890 0.000000
vertex 8.731989 7.290440 0.050000
vertex 8.731989 7.290440 0.000000
endloop
endfacet
facet normal 0.998795 -0.049084 0.000000
outer loop
vertex 8.732108 7.292890 0.050000
vertex 8.732108 7.292890 0.100000
vertex 8.731989 7.290440 0.100000
endloop
endfacet
facet normal 0.998842 -0.048115 0.000000
outer loop
vertex 8.732108 7.292890 0.050000
vertex 8.731989 7.290440 0.100000
vertex 8.731989 7.290440 0.050000
endloop
endfacet
facet normal 0.989098 -0.147257 0.000000
outer loop
vertex 8.731989 7.290440 0.050000
vertex 8.731989 7.290440 0.100000
vertex 8.731628 7.288014 0.100000
endloop
endfacet
facet normal 0.989169 -0.146781 0.000000
outer loop
vertex 8.731989 7.290440 0.050000
vertex 8.731628 7.288014 0.100000
vertex 8.731628 7.288014 0.050000
endloop
endfacet
facet normal 0.989098 -0.147257 0.000000
outer loop
vertex 8.731989 7.290440 0.000000
vertex 8.731989 7.290440 0.050000
vertex 8.731628 7.288014 0.050000
endloop
endfacet
facet normal 0.989169 -0.146781 0.000000
outer loop
vertex 8.731989 7.290440 0.000000
vertex 8.731628 7.288014 0.050000
vertex 8.731628 7.288014 0.000000
endloop
endfacet
facet normal 0.969925 -0.243404 0.000000
outer loop
vertex 8.731628 7.288014 0.000000
vertex 8.731628 7.288014 0.050000
vertex 8.731031 7.285634 0.050000
endloop
endfacet
facet normal 0.969925 -0.243404 0.000000
outer loop
vertex 8.731628 7.288014 0.000000
vertex 8.731031 7.285634 0.050000
vertex 8.731031 7.285634 0.000000
endloop
endfacet
facet normal 0.969925 -0.243404 0.000000
outer loop
vertex 8.731628 7.288014 0.050000
vertex 8.731628 7.288014 0.100000
vertex 8.731031 7.285634 0.100000
endloop
endfacet
facet normal 0.969925 -0.243404 0.000000
outer loop
vertex 8.731628 7.288014 0.050000
vertex 8.731031 7.285634 0.100000
vertex 8.731031 7.285634 0.050000
endloop
endfacet
facet normal 0.941588 -0.336767 0.000000
outer loop
vertex 8.731031 7.285634 0.050000
vertex 8.731031 7.285634 0.100000
vertex 8.730206 7.283324 0.100000
endloop
endfacet
facet normal 0.941742 -0.336336 0.000000
outer loop
vertex 8.731031 7.285634 0.050000
vertex 8.730206 7.283324 0.100000
vertex 8.730206 7.283324 0.050000
endloop
endfacet
facet normal 0.941588 -0.336767 0.000000
outer loop
vertex 8.731031 7.285634 0.000000
vertex 8.731031 7.285634 0.050000
vertex 8.730206 7.283324 0.050000
endloop
endfacet
facet normal 0.941742 -0.336336 0.000000
outer loop
vertex 8.731031 7.285634 0.000000
vertex 8.730206 7.283324 0.050000
vertex 8.730206 7.283324 0.000000
endloop
endfacet
facet normal 0.904007 -0.427518 0.000000
outer loop
vertex 8.730206 7.283324 0.000000
vertex 8.730206 7.283324 0.050000
vertex 8.729156 7.281106 0.050000
endloop
endfacet
facet normal 0.904007 -0.427518 0.000000
outer loop
vertex 8.730206 7.283324 0.000000
vertex 8.729156 7.281106 0.050000
vertex 8.729156 7.281106 0.000000
endloop
endfacet
facet normal 0.904007 -0.427518 0.000000
outer loop
vertex 8.730206 7.283324 0.050000
vertex 8.730206 7.283324 0.100000
vertex 8.729156 7.281106 0.100000
endloop
endfacet
facet normal 0.904007 -0.427518 0.000000
outer loop
vertex 8.730206 7.283324 0.050000
vertex 8.729156 7.281106 0.100000
vertex 8.729156 7.281106 0.050000
endloop
endfacet
facet normal 0.857253 -0.514896 0.000000
outer loop
vertex 8.729156 7.281106 0.050000
vertex 8.729156 7.281106 0.100000
vertex 8.727894 7.279002 0.100000
endloop
endfacet
facet normal 0.857467 -0.514539 0.000000
outer loop
vertex 8.729156 7.281106 0.050000
vertex 8.727894 7.279002 0.100000
vertex 8.727894 7.279002 0.050000
endloop
endfacet
facet normal 0.857253 -0.514896 0.000000
outer loop
vertex 8.729156 7.281106 0.000000
vertex 8.729156 7.281106 0.050000
vertex 8.727894 7.279002 0.050000
endloop
endfacet
facet normal 0.857467 -0.514539 0.000000
outer loop
vertex 8.729156 7.281106 0.000000
vertex 8.727894 7.279002 0.050000
vertex 8.727894 7.279002 0.000000
endloop
endfacet
facet normal 0.803394 -0.595448 0.000000
outer loop
vertex 8.727894 7.279002 0.000000
vertex 8.727894 7.279002 0.050000
vertex 8.726434 7.277032 0.050000
endloop
endfacet
facet normal 0.803626 -0.595134 0.000000
outer loop
vertex 8.727894 7.279002 0.000000
vertex 8.726434 7.277032 0.050000
vertex 8.726434 7.277032 0.000000
endloop
endfacet
facet normal 0.803394 -0.595448 0.000000
outer loop
vertex 8.727894 7.279002 0.050000
vertex 8.727894 7.279002 0.100000
vertex 8.726434 7.277032 0.100000
endloop
endfacet
facet normal 0.803626 -0.595134 0.000000
outer loop
vertex 8.727894 7.279002 0.050000
vertex 8.726434 7.277032 0.100000
vertex 8.726434 7.277032 0.050000
endloop
endfacet
facet normal 0.740467 -0.672093 0.000000
outer loop
vertex 8.726434 7.277032 0.050000
vertex 8.726434 7.277032 0.100000
vertex 8.724785 7.275214 0.100000
endloop
endfacet
facet normal 0.740709 -0.671826 0.000000
outer loop
vertex 8.726434 7.277032 0.050000
vertex 8.724785 7.275214 0.100000
vertex 8.724785 7.275214 0.050000
endloop
endfacet
facet normal 0.740467 -0.672092 0.000000
outer loop
vertex 8.726434 7.277032 0.000000
vertex 8.726434 7.277032 0.050000
vertex 8.724785 7.275214 0.050000
endloop
endfacet
facet normal 0.740709 -0.671826 0.000000
outer loop
vertex 8.726434 7.277032 0.000000
vertex 8.724785 7.275214 0.050000
vertex 8.724785 7.275214 0.000000
endloop
endfacet
facet normal 0.671888 -0.740653 0.000000
outer loop
vertex 8.724785 7.275214 0.000000
vertex 8.724785 7.275214 0.050000
vertex 8.722968 7.273567 0.050000
endloop
endfacet
facet normal 0.671404 -0.741091 0.000000
outer loop
vertex 8.724785 7.275214 0.000000
vertex 8.722968 7.273567 0.050000
vertex 8.722968 7.273567 0.000000
endloop
endfacet
facet normal 0.671888 -0.740653 0.000000
outer loop
vertex 8.724785 7.275214 0.050000
vertex 8.724785 7.275214 0.100000
vertex 8.722968 7.273567 0.100000
endloop
endfacet
facet normal 0.671404 -0.741091 0.000000
outer loop
vertex 8.724785 7.275214 0.050000
vertex 8.722968 7.273567 0.100000
vertex 8.722968 7.273567 0.050000
endloop
endfacet
facet normal 0.595590 -0.803289 0.000000
outer loop
vertex 8.722968 7.273567 0.050000
vertex 8.722968 7.273567 0.100000
vertex 8.720997 7.272106 0.100000
endloop
endfacet
facet normal 0.595358 -0.803461 0.000000
outer loop
vertex 8.722968 7.273567 0.050000
vertex 8.720997 7.272106 0.100000
vertex 8.720997 7.272106 0.050000
endloop
endfacet
facet normal 0.595590 -0.803289 0.000000
outer loop
vertex 8.722968 7.273567 0.000000
vertex 8.722968 7.273567 0.050000
vertex 8.720997 7.272106 0.050000
endloop
endfacet
facet normal 0.595358 -0.803461 0.000000
outer loop
vertex 8.722968 7.273567 0.000000
vertex 8.720997 7.272106 0.050000
vertex 8.720997 7.272106 0.000000
endloop
endfacet
facet normal 0.514853 -0.857278 0.000000
outer loop
vertex 8.720997 7.272106 0.000000
vertex 8.720997 7.272106 0.050000
vertex 8.718895 7.270844 0.050000
endloop
endfacet
facet normal 0.514567 -0.857450 -0.000046
outer loop
vertex 8.720997 7.272106 0.000000
vertex 8.718895 7.270844 0.050000
vertex 8.718895 7.270845 0.000000
endloop
endfacet
facet normal 0.514567 -0.857450 0.000000
outer loop
vertex 8.720997 7.272106 0.050000
vertex 8.720997 7.272106 0.100000
vertex 8.718895 7.270845 0.100000
endloop
endfacet
facet normal 0.514853 -0.857278 0.000046
outer loop
vertex 8.720997 7.272106 0.050000
vertex 8.718895 7.270845 0.100000
vertex 8.718895 7.270844 0.050000
endloop
endfacet
facet normal 0.427423 -0.904052 0.000030
outer loop
vertex 8.718895 7.270844 0.050000
vertex 8.718895 7.270845 0.100000
vertex 8.716676 7.269795 0.100000
endloop
endfacet
facet normal 0.427481 -0.904025 0.000000
outer loop
vertex 8.718895 7.270844 0.050000
vertex 8.716676 7.269795 0.100000
vertex 8.716676 7.269795 0.050000
endloop
endfacet
facet normal 0.427105 -0.904202 -0.000030
outer loop
vertex 8.718895 7.270845 0.000000
vertex 8.718895 7.270844 0.050000
vertex 8.716676 7.269795 0.050000
endloop
endfacet
facet normal 0.427798 -0.903874 0.000000
outer loop
vertex 8.718895 7.270845 0.000000
vertex 8.716676 7.269795 0.050000
vertex 8.716676 7.269795 0.000000
endloop
endfacet
facet normal 0.336774 -0.941586 0.000000
outer loop
vertex 8.716676 7.269795 0.000000
vertex 8.716676 7.269795 0.050000
vertex 8.714367 7.268969 0.050000
endloop
endfacet
facet normal 0.336928 -0.941531 0.000000
outer loop
vertex 8.716676 7.269795 0.000000
vertex 8.714367 7.268969 0.050000
vertex 8.714367 7.268969 0.000000
endloop
endfacet
facet normal 0.336774 -0.941586 0.000000
outer loop
vertex 8.716676 7.269795 0.050000
vertex 8.716676 7.269795 0.100000
vertex 8.714367 7.268969 0.100000
endloop
endfacet
facet normal 0.336928 -0.941531 0.000000
outer loop
vertex 8.716676 7.269795 0.050000
vertex 8.714367 7.268969 0.100000
vertex 8.714367 7.268969 0.050000
endloop
endfacet
facet normal 0.242878 -0.970057 0.000000
outer loop
vertex 8.714367 7.268969 0.050000
vertex 8.714367 7.268969 0.100000
vertex 8.711987 7.268373 0.100000
endloop
endfacet
facet normal 0.243108 -0.969999 0.000000
outer loop
vertex 8.714367 7.268969 0.050000
vertex 8.711987 7.268373 0.100000
vertex 8.711987 7.268373 0.050000
endloop
endfacet
facet normal 0.242878 -0.970057 0.000000
outer loop
vertex 8.714367 7.268969 0.000000
vertex 8.714367 7.268969 0.050000
vertex 8.711987 7.268373 0.050000
endloop
endfacet
facet normal 0.243108 -0.969999 0.000000
outer loop
vertex 8.714367 7.268969 0.000000
vertex 8.711987 7.268373 0.050000
vertex 8.711987 7.268373 0.000000
endloop
endfacet
facet normal 0.146654 -0.989188 0.000000
outer loop
vertex 8.711987 7.268373 0.000000
vertex 8.711987 7.268373 0.050000
vertex 8.709560 7.268013 0.050000
endloop
endfacet
facet normal 0.146795 -0.989167 0.000000
outer loop
vertex 8.711987 7.268373 0.000000
vertex 8.709560 7.268013 0.050000
vertex 8.709560 7.268013 0.000000
endloop
endfacet
facet normal 0.146654 -0.989188 0.000000
outer loop
vertex 8.711987 7.268373 0.050000
vertex 8.711987 7.268373 0.100000
vertex 8.709560 7.268013 0.100000
endloop
endfacet
facet normal 0.146795 -0.989167 0.000000
outer loop
vertex 8.711987 7.268373 0.050000
vertex 8.709560 7.268013 0.100000
vertex 8.709560 7.268013 0.050000
endloop
endfacet
facet normal 0.048992 -0.998799 0.000000
outer loop
vertex 8.709560 7.268013 0.050000
vertex 8.709560 7.268013 0.100000
vertex 8.707110 7.267893 0.100000
endloop
endfacet
facet normal 0.048968 -0.998800 0.000000
outer loop
vertex 8.709560 7.268013 0.050000
vertex 8.707110 7.267893 0.100000
vertex 8.707110 7.267893 0.050000
endloop
endfacet
facet normal 0.048992 -0.998799 0.000000
outer loop
vertex 8.709560 7.268013 0.000000
vertex 8.709560 7.268013 0.050000
vertex 8.707110 7.267893 0.050000
endloop
endfacet
facet normal 0.048968 -0.998800 0.000000
outer loop
vertex 8.709560 7.268013 0.000000
vertex 8.707110 7.267893 0.050000
vertex 8.707110 7.267893 0.000000
endloop
endfacet
facet normal -0.048968 -0.998800 0.000000
outer loop
vertex 8.707110 7.267893 0.000000
vertex 8.707110 7.267893 0.050000
vertex 8.704660 7.268013 0.050000
endloop
endfacet
facet normal -0.049016 -0.998798 0.000000
outer loop
vertex 8.707110 7.267893 0.000000
vertex 8.704660 7.268013 0.050000
vertex 8.704660 7.268013 0.000000
endloop
endfacet
facet normal -0.048968 -0.998800 0.000000
outer loop
vertex 8.707110 7.267893 0.050000
vertex 8.707110 7.267893 0.100000
vertex 8.704660 7.268013 0.100000
endloop
endfacet
facet normal -0.049016 -0.998798 0.000000
outer loop
vertex 8.707110 7.267893 0.050000
vertex 8.704660 7.268013 0.100000
vertex 8.704660 7.268013 0.050000
endloop
endfacet
facet normal -0.146795 -0.989167 0.000000
outer loop
vertex 8.704660 7.268013 0.050000
vertex 8.704660 7.268013 0.100000
vertex 8.702234 7.268373 0.100000
endloop
endfacet
facet normal -0.146795 -0.989167 0.000000
outer loop
vertex 8.704660 7.268013 0.050000
vertex 8.702234 7.268373 0.100000
vertex 8.702234 7.268373 0.050000
endloop
endfacet
facet normal -0.146795 -0.989167 0.000000
outer loop
vertex 8.704660 7.268013 0.000000
vertex 8.704660 7.268013 0.050000
vertex 8.702234 7.268373 0.050000
endloop
endfacet
facet normal -0.146795 -0.989167 0.000000
outer loop
vertex 8.704660 7.268013 0.000000
vertex 8.702234 7.268373 0.050000
vertex 8.702234 7.268373 0.000000
endloop
endfacet
facet normal -0.242878 -0.970057 0.000000
outer loop
vertex 8.702234 7.268373 0.000000
vertex 8.702234 7.268373 0.050000
vertex 8.699854 7.268969 0.050000
endloop
endfacet
facet normal -0.242878 -0.970057 0.000000
outer loop
vertex 8.702234 7.268373 0.000000
vertex 8.699854 7.268969 0.050000
vertex 8.699854 7.268969 0.000000
endloop
endfacet
facet normal -0.242878 -0.970057 0.000000
outer loop
vertex 8.702234 7.268373 0.050000
vertex 8.702234 7.268373 0.100000
vertex 8.699854 7.268969 0.100000
endloop
endfacet
facet normal -0.242878 -0.970057 0.000000
outer loop
vertex 8.702234 7.268373 0.050000
vertex 8.699854 7.268969 0.100000
vertex 8.699854 7.268969 0.050000
endloop
endfacet
facet normal -0.336964 -0.941518 0.000000
outer loop
vertex 8.699854 7.268969 0.050000
vertex 8.699854 7.268969 0.100000
vertex 8.697544 7.269796 0.100000
endloop
endfacet
facet normal -0.337118 -0.941462 0.000000
outer loop
vertex 8.699854 7.268969 0.050000
vertex 8.697544 7.269796 0.100000
vertex 8.697544 7.269796 0.050000
endloop
endfacet
facet normal -0.336964 -0.941518 0.000000
outer loop
vertex 8.699854 7.268969 0.000000
vertex 8.699854 7.268969 0.050000
vertex 8.697544 7.269796 0.050000
endloop
endfacet
facet normal -0.337118 -0.941462 0.000000
outer loop
vertex 8.699854 7.268969 0.000000
vertex 8.697544 7.269796 0.050000
vertex 8.697544 7.269796 0.000000
endloop
endfacet
facet normal -0.427539 -0.903997 0.000000
outer loop
vertex 8.697544 7.269796 0.000000
vertex 8.697544 7.269796 0.050000
vertex 8.695327 7.270844 0.050000
endloop
endfacet
facet normal -0.427481 -0.904025 0.000000
outer loop
vertex 8.697544 7.269796 0.000000
vertex 8.695327 7.270844 0.050000
vertex 8.695327 7.270845 0.000000
endloop
endfacet
facet normal -0.427856 -0.903847 0.000000
outer loop
vertex 8.697544 7.269796 0.050000
vertex 8.697544 7.269796 0.100000
vertex 8.695327 7.270845 0.100000
endloop
endfacet
facet normal -0.427163 -0.904175 0.000000
outer loop
vertex 8.697544 7.269796 0.050000
vertex 8.695327 7.270845 0.100000
vertex 8.695327 7.270844 0.050000
endloop
endfacet
facet normal -0.514138 -0.857707 0.000046
outer loop
vertex 8.695327 7.270844 0.050000
vertex 8.695327 7.270845 0.100000
vertex 8.693222 7.272106 0.100000
endloop
endfacet
facet normal -0.514210 -0.857664 0.000000
outer loop
vertex 8.695327 7.270844 0.050000
vertex 8.693222 7.272106 0.100000
vertex 8.693222 7.272106 0.050000
endloop
endfacet
facet normal -0.514424 -0.857536 -0.000046
outer loop
vertex 8.695327 7.270845 0.000000
vertex 8.695327 7.270844 0.050000
vertex 8.693222 7.272106 0.050000
endloop
endfacet
facet normal -0.513924 -0.857836 0.000000
outer loop
vertex 8.695327 7.270845 0.000000
vertex 8.693222 7.272106 0.050000
vertex 8.693222 7.272106 0.000000
endloop
endfacet
facet normal -0.595823 -0.803116 0.000000
outer loop
vertex 8.693222 7.272106 0.000000
vertex 8.693222 7.272106 0.050000
vertex 8.691253 7.273567 0.050000
endloop
endfacet
facet normal -0.595823 -0.803116 0.000000
outer loop
vertex 8.693222 7.272106 0.000000
vertex 8.691253 7.273567 0.050000
vertex 8.691253 7.273567 0.000000
endloop
endfacet
facet normal -0.595823 -0.803116 0.000000
outer loop
vertex 8.693222 7.272106 0.050000
vertex 8.693222 7.272106 0.100000
vertex 8.691253 7.273567 0.100000
endloop
endfacet
facet normal -0.595823 -0.803116 0.000000
outer loop
vertex 8.693222 7.272106 0.050000
vertex 8.691253 7.273567 0.100000
vertex 8.691253 7.273567 0.050000
endloop
endfacet
facet normal -0.671404 -0.741091 0.000000
outer loop
vertex 8.691253 7.273567 0.050000
vertex 8.691253 7.273567 0.100000
vertex 8.689434 7.275214 0.100000
endloop
endfacet
facet normal -0.670921 -0.741529 0.000000
outer loop
vertex 8.691253 7.273567 0.050000
vertex 8.689434 7.275214 0.100000
vertex 8.689434 7.275214 0.050000
endloop
endfacet
facet normal -0.671404 -0.741091 0.000000
outer loop
vertex 8.691253 7.273567 0.000000
vertex 8.691253 7.273567 0.050000
vertex 8.689434 7.275214 0.050000
endloop
endfacet
facet normal -0.670921 -0.741529 0.000000
outer loop
vertex 8.691253 7.273567 0.000000
vertex 8.689434 7.275214 0.050000
vertex 8.689434 7.275214 0.000000
endloop
endfacet
facet normal -0.740951 -0.671559 0.000000
outer loop
vertex 8.689434 7.275214 0.000000
vertex 8.689434 7.275214 0.050000
vertex 8.687787 7.277032 0.050000
endloop
endfacet
facet normal -0.741193 -0.671293 0.000000
outer loop
vertex 8.689434 7.275214 0.000000
vertex 8.687787 7.277032 0.050000
vertex 8.687787 7.277032 0.000000
endloop
endfacet
facet normal -0.740951 -0.671559 0.000000
outer loop
vertex 8.689434 7.275214 0.050000
vertex 8.689434 7.275214 0.100000
vertex 8.687787 7.277032 0.100000
endloop
endfacet
facet normal -0.741193 -0.671292 0.000000
outer loop
vertex 8.689434 7.275214 0.050000
vertex 8.687787 7.277032 0.100000
vertex 8.687787 7.277032 0.050000
endloop
endfacet
facet normal -0.803394 -0.595448 0.000000
outer loop
vertex 8.687787 7.277032 0.050000
vertex 8.687787 7.277032 0.100000
vertex 8.686326 7.279002 0.100000
endloop
endfacet
facet normal -0.803299 -0.595576 -0.000015
outer loop
vertex 8.687787 7.277032 0.050000
vertex 8.686326 7.279002 0.100000
vertex 8.686326 7.279003 0.050000
endloop
endfacet
facet normal -0.803531 -0.595262 0.000000
outer loop
vertex 8.687787 7.277032 0.000000
vertex 8.687787 7.277032 0.050000
vertex 8.686326 7.279003 0.050000
endloop
endfacet
facet normal -0.803161 -0.595762 0.000015
outer loop
vertex 8.687787 7.277032 0.000000
vertex 8.686326 7.279003 0.050000
vertex 8.686326 7.279002 0.000000
endloop
endfacet
facet normal -0.857579 -0.514353 0.000000
outer loop
vertex 8.686326 7.279002 0.000000
vertex 8.686326 7.279003 0.050000
vertex 8.685064 7.281106 0.050000
endloop
endfacet
facet normal -0.857570 -0.514367 -0.000028
outer loop
vertex 8.686326 7.279002 0.000000
vertex 8.685064 7.281106 0.050000
vertex 8.685065 7.281107 0.000000
endloop
endfacet
facet normal -0.857784 -0.514010 0.000000
outer loop
vertex 8.686326 7.279003 0.050000
vertex 8.686326 7.279002 0.100000
vertex 8.685065 7.281107 0.100000
endloop
endfacet
facet normal -0.857364 -0.514710 0.000028
outer loop
vertex 8.686326 7.279003 0.050000
vertex 8.685065 7.281107 0.100000
vertex 8.685064 7.281106 0.050000
endloop
endfacet
facet normal -0.903936 -0.427669 0.000023
outer loop
vertex 8.685064 7.281106 0.050000
vertex 8.685065 7.281107 0.100000
vertex 8.684015 7.283324 0.100000
endloop
endfacet
facet normal -0.904007 -0.427518 0.000000
outer loop
vertex 8.685064 7.281106 0.050000
vertex 8.684015 7.283324 0.100000
vertex 8.684015 7.283324 0.050000
endloop
endfacet
facet normal -0.904007 -0.427518 -0.000023
outer loop
vertex 8.685065 7.281107 0.000000
vertex 8.685064 7.281106 0.050000
vertex 8.684015 7.283324 0.050000
endloop
endfacet
facet normal -0.903936 -0.427668 0.000000
outer loop
vertex 8.685065 7.281107 0.000000
vertex 8.684015 7.283324 0.050000
vertex 8.684015 7.283324 0.000000
endloop
endfacet
facet normal -0.941588 -0.336767 0.000000
outer loop
vertex 8.684015 7.283324 0.000000
vertex 8.684015 7.283324 0.050000
vertex 8.683189 7.285634 0.050000
endloop
endfacet
facet normal -0.941742 -0.336336 0.000000
outer loop
vertex 8.684015 7.283324 0.000000
vertex 8.683189 7.285634 0.050000
vertex 8.683189 7.285634 0.000000
endloop
endfacet
facet normal -0.941588 -0.336767 0.000000
outer loop
vertex 8.684015 7.283324 0.050000
vertex 8.684015 7.283324 0.100000
vertex 8.683189 7.285634 0.100000
endloop
endfacet
facet normal -0.941742 -0.336336 0.000000
outer loop
vertex 8.684015 7.283324 0.050000
vertex 8.683189 7.285634 0.100000
vertex 8.683189 7.285634 0.050000
endloop
endfacet
facet normal -0.970040 -0.242947 0.000000
outer loop
vertex 8.683189 7.285634 0.050000
vertex 8.683189 7.285634 0.100000
vertex 8.682593 7.288014 0.100000
endloop
endfacet
facet normal -0.970017 -0.243039 0.000008
outer loop
vertex 8.683189 7.285634 0.050000
vertex 8.682593 7.288014 0.100000
vertex 8.682593 7.288013 0.050000
endloop
endfacet
facet normal -0.970017 -0.243039 0.000000
outer loop
vertex 8.683189 7.285634 0.000000
vertex 8.683189 7.285634 0.050000
vertex 8.682593 7.288013 0.050000
endloop
endfacet
facet normal -0.970039 -0.242947 -0.000008
outer loop
vertex 8.683189 7.285634 0.000000
vertex 8.682593 7.288013 0.050000
vertex 8.682593 7.288014 0.000000
endloop
endfacet
facet normal -0.989107 -0.147200 -0.000004
outer loop
vertex 8.682593 7.288014 0.000000
vertex 8.682593 7.288013 0.050000
vertex 8.682234 7.290440 0.050000
endloop
endfacet
facet normal -0.989239 -0.146306 0.000000
outer loop
vertex 8.682593 7.288014 0.000000
vertex 8.682234 7.290440 0.050000
vertex 8.682234 7.290440 0.000000
endloop
endfacet
facet normal -0.989098 -0.147257 0.000004
outer loop
vertex 8.682593 7.288013 0.050000
vertex 8.682593 7.288014 0.100000
vertex 8.682234 7.290440 0.100000
endloop
endfacet
facet normal -0.989248 -0.146249 0.000000
outer loop
vertex 8.682593 7.288013 0.050000
vertex 8.682234 7.290440 0.100000
vertex 8.682234 7.290440 0.050000
endloop
endfacet
facet normal -0.998818 -0.048600 0.000000
outer loop
vertex 8.682234 7.290440 0.050000
vertex 8.682234 7.290440 0.100000
vertex 8.682114 7.292890 0.100000
endloop
endfacet
facet normal -0.998795 -0.049084 0.000000
outer loop
vertex 8.682234 7.290440 0.050000
vertex 8.682114 7.292890 0.100000
vertex 8.682114 7.292890 0.050000
endloop
endfacet
facet normal -0.998818 -0.048600 0.000000
outer loop
vertex 8.682234 7.290440 0.000000
vertex 8.682234 7.290440 0.050000
vertex 8.682114 7.292890 0.050000
endloop
endfacet
facet normal -0.998795 -0.049084 0.000000
outer loop
vertex 8.682234 7.290440 0.000000
vertex 8.682114 7.292890 0.050000
vertex 8.682114 7.292890 0.000000
endloop
endfacet
facet normal -0.998794 0.049103 0.000000
outer loop
vertex 8.682114 7.292890 0.000000
vertex 8.682114 7.292890 0.050000
vertex 8.682234 7.295339 0.050000
endloop
endfacet
facet normal -0.998817 0.048618 0.000000
outer loop
vertex 8.682114 7.292890 0.000000
vertex 8.682234 7.295339 0.050000
vertex 8.682234 7.295339 0.000000
endloop
endfacet
facet normal -0.998794 0.049103 0.000000
outer loop
vertex 8.682114 7.292890 0.050000
vertex 8.682114 7.292890 0.100000
vertex 8.682234 7.295339 0.100000
endloop
endfacet
facet normal -0.998817 0.048618 0.000000
outer loop
vertex 8.682114 7.292890 0.050000
vertex 8.682234 7.295339 0.100000
vertex 8.682234 7.295339 0.050000
endloop
endfacet
facet normal -0.989256 0.146193 0.000000
outer loop
vertex 8.682234 7.295339 0.050000
vertex 8.682234 7.295339 0.100000
vertex 8.682593 7.297767 0.100000
endloop
endfacet
facet normal -0.989115 0.147143 0.000000
outer loop
vertex 8.682234 7.295339 0.050000
vertex 8.682593 7.297767 0.100000
vertex 8.682593 7.297767 0.050000
endloop
endfacet
facet normal -0.989256 0.146193 0.000000
outer loop
vertex 8.682234 7.295339 0.000000
vertex 8.682234 7.295339 0.050000
vertex 8.682593 7.297767 0.050000
endloop
endfacet
facet normal -0.989115 0.147143 0.000000
outer loop
vertex 8.682234 7.295339 0.000000
vertex 8.682593 7.297767 0.050000
vertex 8.682593 7.297767 0.000000
endloop
endfacet
facet normal -0.970017 0.243039 0.000000
outer loop
vertex 8.682593 7.297767 0.000000
vertex 8.682593 7.297767 0.050000
vertex 8.683189 7.300146 0.050000
endloop
endfacet
facet normal -0.970039 0.242947 0.000000
outer loop
vertex 8.682593 7.297767 0.000000
vertex 8.683189 7.300146 0.050000
vertex 8.683189 7.300147 0.000000
endloop
endfacet
facet normal -0.970040 0.242947 0.000000
outer loop
vertex 8.682593 7.297767 0.050000
vertex 8.682593 7.297767 0.100000
vertex 8.683189 7.300147 0.100000
endloop
endfacet
facet normal -0.970017 0.243039 0.000000
outer loop
vertex 8.682593 7.297767 0.050000
vertex 8.683189 7.300147 0.100000
vertex 8.683189 7.300146 0.050000
endloop
endfacet
facet normal -0.941345 0.337445 -0.000008
outer loop
vertex 8.683189 7.300146 0.050000
vertex 8.683189 7.300147 0.100000
vertex 8.684016 7.302455 0.100000
endloop
endfacet
facet normal -0.941544 0.336891 0.000000
outer loop
vertex 8.683189 7.300146 0.050000
vertex 8.684016 7.302455 0.100000
vertex 8.684016 7.302455 0.050000
endloop
endfacet
facet normal -0.941390 0.337322 0.000008
outer loop
vertex 8.683189 7.300147 0.000000
vertex 8.683189 7.300146 0.050000
vertex 8.684016 7.302455 0.050000
endloop
endfacet
facet normal -0.941500 0.337014 0.000000
outer loop
vertex 8.683189 7.300147 0.000000
vertex 8.684016 7.302455 0.050000
vertex 8.684016 7.302455 0.000000
endloop
endfacet
facet normal -0.904453 0.426574 0.000000
outer loop
vertex 8.684016 7.302455 0.000000
vertex 8.684016 7.302455 0.050000
vertex 8.685064 7.304674 0.050000
endloop
endfacet
facet normal -0.904078 0.427368 -0.000023
outer loop
vertex 8.684016 7.302455 0.000000
vertex 8.685064 7.304674 0.050000
vertex 8.685065 7.304674 0.000000
endloop
endfacet
facet normal -0.904078 0.427368 0.000000
outer loop
vertex 8.684016 7.302455 0.050000
vertex 8.684016 7.302455 0.100000
vertex 8.685065 7.304674 0.100000
endloop
endfacet
facet normal -0.904453 0.426574 0.000023
outer loop
vertex 8.684016 7.302455 0.050000
vertex 8.685065 7.304674 0.100000
vertex 8.685064 7.304674 0.050000
endloop
endfacet
facet normal -0.857364 0.514710 0.000015
outer loop
vertex 8.685064 7.304674 0.050000
vertex 8.685065 7.304674 0.100000
vertex 8.686326 7.306777 0.100000
endloop
endfacet
facet normal -0.857579 0.514353 0.000000
outer loop
vertex 8.685064 7.304674 0.050000
vertex 8.686326 7.306777 0.100000
vertex 8.686326 7.306777 0.050000
endloop
endfacet
facet normal -0.857364 0.514710 -0.000015
outer loop
vertex 8.685065 7.304674 0.000000
vertex 8.685064 7.304674 0.050000
vertex 8.686326 7.306777 0.050000
endloop
endfacet
facet normal -0.857579 0.514353 0.000000
outer loop
vertex 8.685065 7.304674 0.000000
vertex 8.686326 7.306777 0.050000
vertex 8.686326 7.306777 0.000000
endloop
endfacet
facet normal -0.803299 0.595576 0.000000
outer loop
vertex 8.686326 7.306777 0.000000
vertex 8.686326 7.306777 0.050000
vertex 8.687787 7.308748 0.050000
endloop
endfacet
facet normal -0.803531 0.595262 0.000000
outer loop
vertex 8.686326 7.306777 0.000000
vertex 8.687787 7.308748 0.050000
vertex 8.687787 7.308748 0.000000
endloop
endfacet
facet normal -0.803299 0.595576 0.000000
outer loop
vertex 8.686326 7.306777 0.050000
vertex 8.686326 7.306777 0.100000
vertex 8.687787 7.308748 0.100000
endloop
endfacet
facet normal -0.803531 0.595262 0.000000
outer loop
vertex 8.686326 7.306777 0.050000
vertex 8.687787 7.308748 0.100000
vertex 8.687787 7.308748 0.050000
endloop
endfacet
facet normal -0.741017 0.671486 0.000000
outer loop
vertex 8.687787 7.308748 0.050000
vertex 8.687787 7.308748 0.100000
vertex 8.689434 7.310565 0.100000
endloop
endfacet
facet normal -0.740775 0.671753 0.000000
outer loop
vertex 8.687787 7.308748 0.050000
vertex 8.689434 7.310565 0.100000
vertex 8.689434 7.310565 0.050000
endloop
endfacet
facet normal -0.741017 0.671486 0.000000
outer loop
vertex 8.687787 7.308748 0.000000
vertex 8.687787 7.308748 0.050000
vertex 8.689434 7.310565 0.050000
endloop
endfacet
facet normal -0.740775 0.671753 0.000000
outer loop
vertex 8.687787 7.308748 0.000000
vertex 8.689434 7.310565 0.050000
vertex 8.689434 7.310565 0.000000
endloop
endfacet
facet normal -0.670921 0.741529 0.000000
outer loop
vertex 8.689434 7.310565 0.000000
vertex 8.689434 7.310565 0.050000
vertex 8.691253 7.312212 0.050000
endloop
endfacet
facet normal -0.671618 0.740898 0.000015
outer loop
vertex 8.689434 7.310565 0.000000
vertex 8.691253 7.312212 0.050000
vertex 8.691253 7.312213 0.000000
endloop
endfacet
facet normal -0.671134 0.741336 0.000000
outer loop
vertex 8.689434 7.310565 0.050000
vertex 8.689434 7.310565 0.100000
vertex 8.691253 7.312213 0.100000
endloop
endfacet
facet normal -0.671404 0.741091 -0.000015
outer loop
vertex 8.689434 7.310565 0.050000
vertex 8.691253 7.312213 0.100000
vertex 8.691253 7.312212 0.050000
endloop
endfacet
facet normal -0.595823 0.803116 -0.000015
outer loop
vertex 8.691253 7.312212 0.050000
vertex 8.691253 7.312213 0.100000
vertex 8.693222 7.313674 0.100000
endloop
endfacet
facet normal -0.596073 0.802930 -0.000018
outer loop
vertex 8.691253 7.312212 0.050000
vertex 8.693222 7.313674 0.100000
vertex 8.693223 7.313674 0.050000
endloop
endfacet
facet normal -0.596073 0.802930 0.000015
outer loop
vertex 8.691253 7.312213 0.000000
vertex 8.691253 7.312212 0.050000
vertex 8.693223 7.313674 0.050000
endloop
endfacet
facet normal -0.595823 0.803116 0.000018
outer loop
vertex 8.691253 7.312213 0.000000
vertex 8.693223 7.313674 0.050000
vertex 8.693222 7.313674 0.000000
endloop
endfacet
facet normal -0.514210 0.857664 0.000015
outer loop
vertex 8.693222 7.313674 0.000000
vertex 8.693223 7.313674 0.050000
vertex 8.695327 7.314936 0.050000
endloop
endfacet
facet normal -0.514210 0.857664 -0.000008
outer loop
vertex 8.693222 7.313674 0.000000
vertex 8.695327 7.314936 0.050000
vertex 8.695328 7.314936 0.000000
endloop
endfacet
facet normal -0.514210 0.857664 -0.000015
outer loop
vertex 8.693223 7.313674 0.050000
vertex 8.693222 7.313674 0.100000
vertex 8.695328 7.314936 0.100000
endloop
endfacet
facet normal -0.514210 0.857664 0.000008
outer loop
vertex 8.693223 7.313674 0.050000
vertex 8.695328 7.314936 0.100000
vertex 8.695327 7.314936 0.050000
endloop
endfacet
facet normal -0.427192 0.904161 0.000030
outer loop
vertex 8.695327 7.314936 0.050000
vertex 8.695328 7.314936 0.100000
vertex 8.697544 7.315984 0.100000
endloop
endfacet
facet normal -0.427380 0.904072 0.000000
outer loop
vertex 8.695327 7.314936 0.050000
vertex 8.697544 7.315984 0.100000
vertex 8.697544 7.315984 0.050000
endloop
endfacet
facet normal -0.427192 0.904161 -0.000030
outer loop
vertex 8.695328 7.314936 0.000000
vertex 8.695327 7.314936 0.050000
vertex 8.697544 7.315984 0.050000
endloop
endfacet
facet normal -0.427380 0.904072 0.000000
outer loop
vertex 8.695328 7.314936 0.000000
vertex 8.697544 7.315984 0.050000
vertex 8.697544 7.315984 0.000000
endloop
endfacet
facet normal 0.000000 0.000000 1.000000
outer loop
vertex 8.711988 7.317410 0.100000
vertex 8.709560 7.317767 0.100000
vertex 8.707111 7.292891 0.100000
endloop
endfacet
facet normal 0.000000 0.000000 1.000000
outer loop
vertex 8.711988 7.317410 0.100000
vertex 8.707111 7.292891 0.100000
vertex 8.714367 7.316810 0.100000
endloop
endfacet
facet normal -0.000008 0.000000 1.000000
outer loop
vertex 8.707110 7.317890 0.100000
vertex 8.704660 7.317767 0.100000
vertex 8.707111 7.292891 0.100000
endloop
endfacet
facet normal 0.000008 0.000000 1.000000
outer loop
vertex 8.707110 7.317890 0.100000
vertex 8.707111 7.292891 0.100000
vertex 8.709560 7.317767 0.100000
endloop
endfacet
facet normal 0.000000 0.000000 1.000000
outer loop
vertex 8.702233 7.317410 0.100000
vertex 8.699854 7.316810 0.100000
vertex 8.707111 7.292891 0.100000
endloop
endfacet
facet normal 0.000000 0.000000 1.000000
outer loop
vertex 8.702233 7.317410 0.100000
vertex 8.707111 7.292891 0.100000
vertex 8.704660 7.317767 0.100000
endloop
endfacet
facet normal 0.000008 0.000000 1.000000
outer loop
vertex 8.697543 7.315986 0.100000
vertex 8.695327 7.314936 0.100000
vertex 8.707111 7.292891 0.100000
endloop
endfacet
facet normal -0.000008 0.000000 1.000000
outer loop
vertex 8.697543 7.315986 0.100000
vertex 8.707111 7.292891 0.100000
vertex 8.699854 7.316810 0.100000
endloop
endfacet
facet normal 0.000004 0.000000 1.000000
outer loop
vertex 8.693221 7.313676 0.100000
vertex 8.691253 7.312213 0.100000
vertex 8.707111 7.292891 0.100000
endloop
endfacet
facet normal -0.000008 0.000000 1.000000
outer loop
vertex 8.693221 7.313676 0.100000
vertex 8.707111 7.292891 0.100000
vertex 8.695327 7.314936 0.100000
endloop
endfacet
facet normal -0.000004 0.000000 1.000000
outer loop
vertex 8.689433 7.310567 0.100000
vertex 8.687787 7.308748 0.100000
vertex 8.707111 7.292891 0.100000
endloop
endfacet
facet normal 0.000000 0.000000 1.000000
outer loop
vertex 8.689433 7.310567 0.100000
vertex 8.707111 7.292891 0.100000
vertex 8.691253 7.312213 0.100000
endloop
endfacet
facet normal 0.000000 0.000000 1.000000
outer loop
vertex 8.686323 7.306778 0.100000
vertex 8.685065 7.304674 0.100000
vertex 8.707111 7.292891 0.100000
endloop
endfacet
facet normal 0.000000 0.000000 1.000000
outer loop
vertex 8.686323 7.306778 0.100000
vertex 8.707111 7.292891 0.100000
vertex 8.687787 7.308748 0.100000
endloop
endfacet
facet normal 0.000002 0.000000 1.000000
outer loop
vertex 8.684013 7.302456 0.100000
vertex 8.683189 7.300147 0.100000
vertex 8.707111 7.292891 0.100000
endloop
endfacet
facet normal 0.000000 0.000000 1.000000
outer loop
vertex 8.684013 7.302456 0.100000
vertex 8.707111 7.292891 0.100000
vertex 8.685065 7.304674 0.100000
endloop
endfacet
facet normal 0.000000 0.000000 1.000000
outer loop
vertex 8.682591 7.297767 0.100000
vertex 8.682234 7.295339 0.100000
vertex 8.707111 7.292891 0.100000
endloop
endfacet
facet normal 0.000000 0.000000 1.000000
outer loop
vertex 8.682591 7.297767 0.100000
vertex 8.707111 7.292891 0.100000
vertex 8.683189 7.300147 0.100000
endloop
endfacet
facet normal 0.000000 0.000000 1.000000
outer loop
vertex 8.682111 7.292890 0.100000
vertex 8.682234 7.290440 0.100000
vertex 8.707111 7.292891 0.100000
endloop
endfacet
facet normal 0.000000 0.000000 1.000000
outer loop
vertex 8.682111 7.292890 0.100000
vertex 8.707111 7.292891 0.100000
vertex 8.682234 7.295339 0.100000
endloop
endfacet
facet normal 0.000000 0.000000 1.000000
outer loop
vertex 8.682591 7.288013 0.100000
vertex 8.683189 7.285634 0.100000
vertex 8.707111 7.292891 0.100000
endloop
endfacet
facet normal 0.000000 0.000000 1.000000
outer loop
vertex 8.682591 7.288013 0.100000
vertex 8.707111 7.292891 0.100000
vertex 8.682234 7.290440 0.100000
endloop
endfacet
facet normal 0.000000 0.000000 1.000000
outer loop
vertex 8.684013 7.283323 0.100000
vertex 8.685064 7.281106 0.100000
vertex 8.707111 7.292891 0.100000
endloop
endfacet
facet normal 0.000000 0.000000 1.000000
outer loop
vertex 8.684013 7.283323 0.100000
vertex 8.707111 7.292891 0.100000
vertex 8.683189 7.285634 0.100000
endloop
endfacet
facet normal 0.000000 0.000000 1.000000
outer loop
vertex 8.686323 7.279001 0.100000
vertex 8.687787 7.277032 0.100000
vertex 8.707111 7.292891 0.100000
endloop
endfacet
facet normal -0.000004 0.000000 1.000000
outer loop
vertex 8.686323 7.279001 0.100000
vertex 8.707111 7.292891 0.100000
vertex 8.685064 7.281106 0.100000
endloop
endfacet
facet normal 0.000000 0.000000 1.000000
outer loop
vertex 8.689433 7.275213 0.100000
vertex 8.691253 7.273567 0.100000
vertex 8.707111 7.292891 0.100000
endloop
endfacet
facet normal 0.000000 0.000000 1.000000
outer loop
vertex 8.689433 7.275213 0.100000
vertex 8.707111 7.292891 0.100000
vertex 8.687787 7.277032 0.100000
endloop
endfacet
facet normal 0.000000 0.000000 1.000000
outer loop
vertex 8.693221 7.272103 0.100000
vertex 8.695328 7.270845 0.100000
vertex 8.707111 7.292891 0.100000
endloop
endfacet
facet normal 0.000000 0.000000 1.000000
outer loop
vertex 8.693221 7.272103 0.100000
vertex 8.707111 7.292891 0.100000
vertex 8.691253 7.273567 0.100000
endloop
endfacet
facet normal -0.000008 0.000000 1.000000
outer loop
vertex 8.697543 7.269793 0.100000
vertex 8.699854 7.268969 0.100000
vertex 8.707111 7.292891 0.100000
endloop
endfacet
facet normal 0.000000 0.000000 1.000000
outer loop
vertex 8.697543 7.269793 0.100000
vertex 8.707111 7.292891 0.100000
vertex 8.695328 7.270845 0.100000
endloop
endfacet
facet normal -0.000008 0.000000 1.000000
outer loop
vertex 8.702233 7.268372 0.100000
vertex 8.704660 7.268013 0.100000
vertex 8.707111 7.292891 0.100000
endloop
endfacet
facet normal 0.000008 0.000000 1.000000
outer loop
vertex 8.702233 7.268372 0.100000
vertex 8.707111 7.292891 0.100000
vertex 8.699854 7.268969 0.100000
endloop
endfacet
facet normal 0.000000 0.000000 1.000000
outer loop
vertex 8.707110 7.267890 0.100000
vertex 8.709560 7.268013 0.100000
vertex 8.707111 7.292891 0.100000
endloop
endfacet
facet normal 0.000000 0.000000 1.000000
outer loop
vertex 8.707110 7.267890 0.100000
vertex 8.707111 7.292891 0.100000
vertex 8.704660 7.268013 0.100000
endloop
endfacet
facet normal -0.000008 0.000000 1.000000
outer loop
vertex 8.711988 7.268372 0.100000
vertex 8.714367 7.268969 0.100000
vertex 8.707111 7.292891 0.100000
endloop
endfacet
facet normal 0.000008 0.000000 1.000000
outer loop
vertex 8.711988 7.268372 0.100000
vertex 8.707111 7.292891 0.100000
vertex 8.709560 7.268013 0.100000
endloop
endfacet
facet normal 0.000000 0.000000 1.000000
outer loop
vertex 8.716678 7.269793 0.100000
vertex 8.718895 7.270844 0.100000
vertex 8.707111 7.292891 0.100000
endloop
endfacet
facet normal 0.000008 0.000000 1.000000
outer loop
vertex 8.716678 7.269793 0.100000
vertex 8.707111 7.292891 0.100000
vertex 8.714367 7.268969 0.100000
endloop
endfacet
facet normal 0.000000 0.000000 1.000000
outer loop
vertex 8.721000 7.272103 0.100000
vertex 8.722968 7.273567 0.100000
vertex 8.707111 7.292891 0.100000
endloop
endfacet
facet normal 0.000000 0.000000 1.000000
outer loop
vertex 8.721000 7.272103 0.100000
vertex 8.707111 7.292891 0.100000
vertex 8.718895 7.270844 0.100000
endloop
endfacet
facet normal 0.000000 0.000000 1.000000
outer loop
vertex 8.724788 7.275213 0.100000
vertex 8.726434 7.277032 0.100000
vertex 8.707111 7.292891 0.100000
endloop
endfacet
facet normal 0.000000 0.000000 1.000000
outer loop
vertex 8.724788 7.275213 0.100000
vertex 8.707111 7.292891 0.100000
vertex 8.722968 7.273567 0.100000
endloop
endfacet
facet normal 0.000000 0.000000 1.000000
outer loop
vertex 8.727897 7.279001 0.100000
vertex 8.729156 7.281107 0.100000
vertex 8.707111 7.292891 0.100000
endloop
endfacet
facet normal 0.000000 0.000000 1.000000
outer loop
vertex 8.727897 7.279001 0.100000
vertex 8.707111 7.292891 0.100000
vertex 8.726434 7.277032 0.100000
endloop
endfacet
facet normal 0.000000 0.000000 1.000000
outer loop
vertex 8.730207 7.283323 0.100000
vertex 8.731031 7.285634 0.100000
vertex 8.707111 7.292891 0.100000
endloop
endfacet
facet normal 0.000000 0.000000 1.000000
outer loop
vertex 8.730207 7.283323 0.100000
vertex 8.707111 7.292891 0.100000
vertex 8.729156 7.281107 0.100000
endloop
endfacet
facet normal 0.000000 0.000000 1.000000
outer loop
vertex 8.731630 7.288013 0.100000
vertex 8.731989 7.290440 0.100000
vertex 8.707111 7.292891 0.100000
endloop
endfacet
facet normal 0.000000 0.000000 1.000000
outer loop
vertex 8.731630 7.288013 0.100000
vertex 8.707111 7.292891 0.100000
vertex 8.731031 7.285634 0.100000
endloop
endfacet
facet normal 0.000000 0.000000 1.000000
outer loop
vertex 8.732111 7.292890 0.100000
vertex 8.731989 7.295339 0.100000
vertex 8.707111 7.292891 0.100000
endloop
endfacet
facet normal 0.000000 0.000000 1.000000
outer loop
vertex 8.732111 7.292890 0.100000
vertex 8.707111 7.292891 0.100000
vertex 8.731989 7.290440 0.100000
endloop
endfacet
facet normal 0.000000 0.000000 1.000000
outer loop
vertex 8.731630 7.297767 0.100000
vertex 8.731031 7.300147 0.100000
vertex 8.707111 7.292891 0.100000
endloop
endfacet
facet normal 0.000000 0.000000 1.000000
outer loop
vertex 8.731630 7.297767 0.100000
vertex 8.707111 7.292891 0.100000
vertex 8.731989 7.295339 0.100000
endloop
endfacet
facet normal 0.000000 0.000000 1.000000
outer loop
vertex 8.730207 7.302456 0.100000
vertex 8.729156 7.304674 0.100000
vertex 8.707111 7.292891 0.100000
endloop
endfacet
facet normal -0.000002 0.000000 1.000000
outer loop
vertex 8.730207 7.302456 0.100000
vertex 8.707111 7.292891 0.100000
vertex 8.731031 7.300147 0.100000
endloop
endfacet
facet normal 0.000000 0.000000 1.000000
outer loop
vertex 8.727897 7.306778 0.100000
vertex 8.726434 7.308748 0.100000
vertex 8.707111 7.292891 0.100000
endloop
endfacet
facet normal 0.000000 0.000000 1.000000
outer loop
vertex 8.727897 7.306778 0.100000
vertex 8.707111 7.292891 0.100000
vertex 8.729156 7.304674 0.100000
endloop
endfacet
facet normal 0.000000 0.000000 1.000000
outer loop
vertex 8.724788 7.310567 0.100000
vertex 8.722968 7.312213 0.100000
vertex 8.707111 7.292891 0.100000
endloop
endfacet
facet normal 0.000004 0.000000 1.000000
outer loop
vertex 8.724788 7.310567 0.100000
vertex 8.707111 7.292891 0.100000
vertex 8.726434 7.308748 0.100000
endloop
endfacet
facet normal 0.000008 0.000000 1.000000
outer loop
vertex 8.721000 7.313676 0.100000
vertex 8.718895 7.314936 0.100000
vertex 8.707111 7.292891 0.100000
endloop
endfacet
facet normal -0.000004 0.000000 1.000000
outer loop
vertex 8.721000 7.313676 0.100000
vertex 8.707111 7.292891 0.100000
vertex 8.722968 7.312213 0.100000
endloop
endfacet
facet normal 0.000008 0.000000 1.000000
outer loop
vertex 8.716678 7.315986 0.100000
vertex 8.714367 7.316810 0.100000
vertex 8.707111 7.292891 0.100000
endloop
endfacet
facet normal -0.000008 0.000000 1.000000
outer loop
vertex 8.716678 7.315986 0.100000
vertex 8.707111 7.292891 0.100000
vertex 8.718895 7.314936 0.100000
endloop
endfacet
facet normal -0.336946 0.941524 0.000000
outer loop
vertex 8.697544 7.315984 0.000000
vertex 8.697544 7.315984 0.050000
vertex 8.699854 7.316810 0.050000
endloop
endfacet
facet normal -0.336792 0.941579 0.000000
outer loop
vertex 8.697544 7.315984 0.000000
vertex 8.699854 7.316810 0.050000
vertex 8.699854 7.316810 0.000000
endloop
endfacet
facet normal -0.336946 0.941524 0.000000
outer loop
vertex 8.697544 7.315984 0.050000
vertex 8.697544 7.315984 0.100000
vertex 8.699854 7.316810 0.100000
endloop
endfacet
facet normal -0.336792 0.941579 0.000000
outer loop
vertex 8.697544 7.315984 0.050000
vertex 8.699854 7.316810 0.100000
vertex 8.699854 7.316810 0.050000
endloop
endfacet
facet normal -0.243244 0.969965 0.000000
outer loop
vertex 8.699854 7.316810 0.050000
vertex 8.699854 7.316810 0.100000
vertex 8.702234 7.317407 0.100000
endloop
endfacet
facet normal -0.243244 0.969965 -0.000015
outer loop
vertex 8.699854 7.316810 0.050000
vertex 8.702234 7.317407 0.100000
vertex 8.702233 7.317407 0.050000
endloop
endfacet
facet normal -0.243244 0.969965 0.000000
outer loop
vertex 8.699854 7.316810 0.000000
vertex 8.699854 7.316810 0.050000
vertex 8.702233 7.317407 0.050000
endloop
endfacet
facet normal -0.243244 0.969965 0.000015
outer loop
vertex 8.699854 7.316810 0.000000
vertex 8.702233 7.317407 0.050000
vertex 8.702234 7.317407 0.000000
endloop
endfacet
facet normal -0.146795 0.989167 0.000030
outer loop
vertex 8.702234 7.317407 0.000000
vertex 8.702233 7.317407 0.050000
vertex 8.704660 7.317767 0.050000
endloop
endfacet
facet normal -0.146795 0.989167 0.000000
outer loop
vertex 8.702234 7.317407 0.000000
vertex 8.704660 7.317767 0.050000
vertex 8.704660 7.317767 0.000000
endloop
endfacet
facet normal -0.146795 0.989167 -0.000030
outer loop
vertex 8.702233 7.317407 0.050000
vertex 8.702234 7.317407 0.100000
vertex 8.704660 7.317767 0.100000
endloop
endfacet
facet normal -0.146795 0.989167 0.000000
outer loop
vertex 8.702233 7.317407 0.050000
vertex 8.704660 7.317767 0.100000
vertex 8.704660 7.317767 0.050000
endloop
endfacet
facet normal -0.049404 0.998779 0.000000
outer loop
vertex 8.704660 7.317767 0.050000
vertex 8.704660 7.317767 0.100000
vertex 8.707110 7.317888 0.100000
endloop
endfacet
facet normal -0.049356 0.998781 0.000000
outer loop
vertex 8.704660 7.317767 0.050000
vertex 8.707110 7.317888 0.100000
vertex 8.707110 7.317888 0.050000
endloop
endfacet
facet normal -0.049404 0.998779 0.000000
outer loop
vertex 8.704660 7.317767 0.000000
vertex 8.704660 7.317767 0.050000
vertex 8.707110 7.317888 0.050000
endloop
endfacet
facet normal -0.049356 0.998781 0.000000
outer loop
vertex 8.704660 7.317767 0.000000
vertex 8.707110 7.317888 0.050000
vertex 8.707110 7.317888 0.000000
endloop
endfacet
facet normal 0.000000 0.000000 -1.000000
outer loop
vertex 8.707110 7.317890 0.000000
vertex 8.709560 7.317767 0.000000
vertex 8.707111 7.292891 0.000000
endloop
endfacet
facet normal 0.000000 0.000000 -1.000000
outer loop
vertex 8.707110 7.317890 0.000000
vertex 8.707111 7.292891 0.000000
vertex 8.704660 7.317767 0.000000
endloop
endfacet
facet normal 0.000000 0.000000 -1.000000
outer loop
vertex 8.711988 7.317410 0.000000
vertex 8.714367 7.316810 0.000000
vertex 8.707111 7.292891 0.000000
endloop
endfacet
facet normal 0.000000 0.000000 -1.000000
outer loop
vertex 8.711988 7.317410 0.000000
vertex 8.707111 7.292891 0.000000
vertex 8.709560 7.317767 0.000000
endloop
endfacet
facet normal 0.000000 0.000000 -1.000000
outer loop
vertex 8.716678 7.315986 0.000000
vertex 8.718895 7.314936 0.000000
vertex 8.707111 7.292891 0.000000
endloop
endfacet
facet normal 0.000000 0.000000 -1.000000
outer loop
vertex 8.716678 7.315986 0.000000
vertex 8.707111 7.292891 0.000000
vertex 8.714367 7.316810 0.000000
endloop
endfacet
facet normal 0.000000 0.000000 -1.000000
outer loop
vertex 8.721000 7.313676 0.000000
vertex 8.722968 7.312213 0.000000
vertex 8.707111 7.292891 0.000000
endloop
endfacet
facet normal 0.000000 0.000000 -1.000000
outer loop
vertex 8.721000 7.313676 0.000000
vertex 8.707111 7.292891 0.000000
vertex 8.718895 7.314936 0.000000
endloop
endfacet
facet normal 0.000000 0.000000 -1.000000
outer loop
vertex 8.724788 7.310567 0.000000
vertex 8.726434 7.308748 0.000000
vertex 8.707111 7.292891 0.000000
endloop
endfacet
facet normal 0.000000 0.000000 -1.000000
outer loop
vertex 8.724788 7.310567 0.000000
vertex 8.707111 7.292891 0.000000
vertex 8.722968 7.312213 0.000000
endloop
endfacet
facet normal 0.000000 0.000000 -1.000000
outer loop
vertex 8.727897 7.306778 0.000000
vertex 8.729156 7.304674 0.000000
vertex 8.707111 7.292891 0.000000
endloop
endfacet
facet normal 0.000000 0.000000 -1.000000
outer loop
vertex 8.727897 7.306778 0.000000
vertex 8.707111 7.292891 0.000000
vertex 8.726434 7.308748 0.000000
endloop
endfacet
facet normal 0.000000 0.000000 -1.000000
outer loop
vertex 8.730207 7.302456 0.000000
vertex 8.731031 7.300147 0.000000
vertex 8.707111 7.292891 0.000000
endloop
endfacet
facet normal 0.000000 0.000000 -1.000000
outer loop
vertex 8.730207 7.302456 0.000000
vertex 8.707111 7.292891 0.000000
vertex 8.729156 7.304674 0.000000
endloop
endfacet
facet normal 0.000000 0.000000 -1.000000
outer loop
vertex 8.731630 7.297767 0.000000
vertex 8.731989 7.295339 0.000000
vertex 8.707111 7.292891 0.000000
endloop
endfacet
facet normal 0.000000 0.000000 -1.000000
outer loop
vertex 8.731630 7.297767 0.000000
vertex 8.707111 7.292891 0.000000
vertex 8.731031 7.300147 0.000000
endloop
endfacet
facet normal 0.000000 0.000000 -1.000000
outer loop
vertex 8.732111 7.292890 0.000000
vertex 8.731989 7.290440 0.000000
vertex 8.707111 7.292891 0.000000
endloop
endfacet
facet normal 0.000000 0.000000 -1.000000
outer loop
vertex 8.732111 7.292890 0.000000
vertex 8.707111 7.292891 0.000000
vertex 8.731989 7.295339 0.000000
endloop
endfacet
facet normal 0.000000 0.000000 -1.000000
outer loop
vertex 8.731630 7.288013 0.000000
vertex 8.731031 7.285634 0.000000
vertex 8.707111 7.292891 0.000000
endloop
endfacet
facet normal 0.000000 0.000000 -1.000000
outer loop
vertex 8.731630 7.288013 0.000000
vertex 8.707111 7.292891 0.000000
vertex 8.731989 7.290440 0.000000
endloop
endfacet
facet normal 0.000000 0.000000 -1.000000
outer loop
vertex 8.730207 7.283323 0.000000
vertex 8.729156 7.281106 0.000000
vertex 8.707111 7.292891 0.000000
endloop
endfacet
facet normal 0.000000 0.000000 -1.000000
outer loop
vertex 8.730207 7.283323 0.000000
vertex 8.707111 7.292891 0.000000
vertex 8.731031 7.285634 0.000000
endloop
endfacet
facet normal 0.000000 0.000000 -1.000000
outer loop
vertex 8.727897 7.279001 0.000000
vertex 8.726434 7.277032 0.000000
vertex 8.707111 7.292891 0.000000
endloop
endfacet
facet normal 0.000000 0.000000 -1.000000
outer loop
vertex 8.727897 7.279001 0.000000
vertex 8.707111 7.292891 0.000000
vertex 8.729156 7.281106 0.000000
endloop
endfacet
facet normal 0.000000 0.000000 -1.000000
outer loop
vertex 8.724788 7.275213 0.000000
vertex 8.722968 7.273567 0.000000
vertex 8.707111 7.292891 0.000000
endloop
endfacet
facet normal 0.000000 0.000000 -1.000000
outer loop
vertex 8.724788 7.275213 0.000000
vertex 8.707111 7.292891 0.000000
vertex 8.726434 7.277032 0.000000
endloop
endfacet
facet normal 0.000000 0.000000 -1.000000
outer loop
vertex 8.721000 7.272103 0.000000
vertex 8.718895 7.270844 0.000000
vertex 8.707111 7.292891 0.000000
endloop
endfacet
facet normal 0.000000 0.000000 -1.000000
outer loop
vertex 8.721000 7.272103 0.000000
vertex 8.707111 7.292891 0.000000
vertex 8.722968 7.273567 0.000000
endloop
endfacet
facet normal 0.000000 0.000000 -1.000000
outer loop
vertex 8.716678 7.269793 0.000000
vertex 8.714367 7.268969 0.000000
vertex 8.707111 7.292891 0.000000
endloop
endfacet
facet normal 0.000000 0.000000 -1.000000
outer loop
vertex 8.716678 7.269793 0.000000
vertex 8.707111 7.292891 0.000000
vertex 8.718895 7.270844 0.000000
endloop
endfacet
facet normal 0.000000 0.000000 -1.000000
outer loop
vertex 8.711988 7.268372 0.000000
vertex 8.709560 7.268013 0.000000
vertex 8.707111 7.292891 0.000000
endloop
endfacet
facet normal 0.000000 0.000000 -1.000000
outer loop
vertex 8.711988 7.268372 0.000000
vertex 8.707111 7.292891 0.000000
vertex 8.714367 7.268969 0.000000
endloop
endfacet
facet normal 0.000000 0.000000 -1.000000
outer loop
vertex 8.707110 7.267890 0.000000
vertex 8.704660 7.268013 0.000000
vertex 8.707111 7.292891 0.000000
endloop
endfacet
facet normal 0.000000 0.000000 -1.000000
outer loop
vertex 8.707110 7.267890 0.000000
vertex 8.707111 7.292891 0.000000
vertex 8.709560 7.268013 0.000000
endloop
endfacet
facet normal 0.000000 0.000000 -1.000000
outer loop
vertex 8.702233 7.268372 0.000000
vertex 8.699854 7.268969 0.000000
vertex 8.707111 7.292891 0.000000
endloop
endfacet
facet normal 0.000000 0.000000 -1.000000
outer loop
vertex 8.702233 7.268372 0.000000
vertex 8.707111 7.292891 0.000000
vertex 8.704660 7.268013 0.000000
endloop
endfacet
facet normal 0.000000 0.000000 -1.000000
outer loop
vertex 8.697543 7.269793 0.000000
vertex 8.695327 7.270844 0.000000
vertex 8.707111 7.292891 0.000000
endloop
endfacet
facet normal 0.000000 0.000000 -1.000000
outer loop
vertex 8.697543 7.269793 0.000000
vertex 8.707111 7.292891 0.000000
vertex 8.699854 7.268969 0.000000
endloop
endfacet
facet normal 0.000000 0.000000 -1.000000
outer loop
vertex 8.693221 7.272103 0.000000
vertex 8.691253 7.273567 0.000000
vertex 8.707111 7.292891 0.000000
endloop
endfacet
facet normal 0.000000 0.000000 -1.000000
outer loop
vertex 8.693221 7.272103 0.000000
vertex 8.707111 7.292891 0.000000
vertex 8.695327 7.270844 0.000000
endloop
endfacet
facet normal 0.000000 0.000000 -1.000000
outer loop
vertex 8.689433 7.275213 0.000000
vertex 8.687787 7.277032 0.000000
vertex 8.707111 7.292891 0.000000
endloop
endfacet
facet normal 0.000000 0.000000 -1.000000
outer loop
vertex 8.689433 7.275213 0.000000
vertex 8.707111 7.292891 0.000000
vertex 8.691253 7.273567 0.000000
endloop
endfacet
facet normal 0.000000 0.000000 -1.000000
outer loop
vertex 8.686323 7.279001 0.000000
vertex 8.685064 7.281107 0.000000
vertex 8.707111 7.292891 0.000000
endloop
endfacet
facet normal 0.000000 0.000000 -1.000000
outer loop
vertex 8.686323 7.279001 0.000000
vertex 8.707111 7.292891 0.000000
vertex 8.687787 7.277032 0.000000
endloop
endfacet
facet normal 0.000000 0.000000 -1.000000
outer loop
vertex 8.684013 7.283323 0.000000
vertex 8.683189 7.285634 0.000000
vertex 8.707111 7.292891 0.000000
endloop
endfacet
facet normal 0.000000 0.000000 -1.000000
outer loop
vertex 8.684013 7.283323 0.000000
vertex 8.707111 7.292891 0.000000
vertex 8.685064 7.281107 0.000000
endloop
endfacet
facet normal 0.000000 0.000000 -1.000000
outer loop
vertex 8.682591 7.288013 0.000000
vertex 8.682234 7.290440 0.000000
vertex 8.707111 7.292891 0.000000
endloop
endfacet
facet normal 0.000000 0.000000 -1.000000
outer loop
vertex 8.682591 7.288013 0.000000
vertex 8.707111 7.292891 0.000000
vertex 8.683189 7.285634 0.000000
endloop
endfacet
facet normal 0.000000 0.000000 -1.000000
outer loop
vertex 8.682111 7.292890 0.000000
vertex 8.682234 7.295339 0.000000
vertex 8.707111 7.292891 0.000000
endloop
endfacet
facet normal 0.000000 0.000000 -1.000000
outer loop
vertex 8.682111 7.292890 0.000000
vertex 8.707111 7.292891 0.000000
vertex 8.682234 7.290440 0.000000
endloop
endfacet
facet normal 0.000000 0.000000 -1.000000
outer loop
vertex 8.682591 7.297767 0.000000
vertex 8.683189 7.300147 0.000000
vertex 8.707111 7.292891 0.000000
endloop
endfacet
facet normal 0.000000 0.000000 -1.000000
outer loop
vertex 8.682591 7.297767 0.000000
vertex 8.707111 7.292891 0.000000
vertex 8.682234 7.295339 0.000000
endloop
endfacet
facet normal 0.000000 0.000000 -1.000000
outer loop
vertex 8.684013 7.302456 0.000000
vertex 8.685064 7.304674 0.000000
vertex 8.707111 7.292891 0.000000
endloop
endfacet
facet normal 0.000000 0.000000 -1.000000
outer loop
vertex 8.684013 7.302456 0.000000
vertex 8.707111 7.292891 0.000000
vertex 8.683189 7.300147 0.000000
endloop
endfacet
facet normal 0.000000 0.000000 -1.000000
outer loop
vertex 8.686323 7.306778 0.000000
vertex 8.687787 7.308748 0.000000
vertex 8.707111 7.292891 0.000000
endloop
endfacet
facet normal 0.000000 0.000000 -1.000000
outer loop
vertex 8.686323 7.306778 0.000000
vertex 8.707111 7.292891 0.000000
vertex 8.685064 7.304674 0.000000
endloop
endfacet
facet normal 0.000000 0.000000 -1.000000
outer loop
vertex 8.689433 7.310567 0.000000
vertex 8.691253 7.312213 0.000000
vertex 8.707111 7.292891 0.000000
endloop
endfacet
facet normal 0.000000 0.000000 -1.000000
outer loop
vertex 8.689433 7.310567 0.000000
vertex 8.707111 7.292891 0.000000
vertex 8.687787 7.308748 0.000000
endloop
endfacet
facet normal 0.000000 0.000000 -1.000000
outer loop
vertex 8.693221 7.313676 0.000000
vertex 8.695328 7.314936 0.000000
vertex 8.707111 7.292891 0.000000
endloop
endfacet
facet normal 0.000000 0.000000 -1.000000
outer loop
vertex 8.693221 7.313676 0.000000
vertex 8.707111 7.292891 0.000000
vertex 8.691253 7.312213 0.000000
endloop
endfacet
facet normal 0.000000 0.000000 -1.000000
outer loop
vertex 8.697543 7.315986 0.000000
vertex 8.699854 7.316810 0.000000
vertex 8.707111 7.292891 0.000000
endloop
endfacet
facet normal 0.000000 0.000000 -1.000000
outer loop
vertex 8.697543 7.315986 0.000000
vertex 8.707111 7.292891 0.000000
vertex 8.695328 7.314936 0.000000
endloop
endfacet
facet normal 0.000000 0.000000 -1.000000
outer loop
vertex 8.702233 7.317410 0.000000
vertex 8.704660 7.317767 0.000000
vertex 8.707111 7.292891 0.000000
endloop
endfacet
facet normal 0.000000 0.000000 -1.000000
outer loop
vertex 8.702233 7.317410 0.000000
vertex 8.707111 7.292891 0.000000
vertex 8.699854 7.316810 0.000000
endloop
endfacet
endsolid Exported from Blender-2.82 (sub 7)
