solid Exported from Blender-2.82 (sub 7)
facet normal 0.049356 0.998781 0.000000
outer loop
vertex 8.707110 8.732108 0.000000
vertex 8.707110 8.732108 0.050000
vertex 8.709560 8.731987 0.050000
endloop
endfacet
facet normal 0.049380 0.998780 0.000000
outer loop
vertex 8.707110 8.732108 0.000000
vertex 8.709560 8.731987 0.050000
vertex 8.709560 8.731987 0.000000
endloop
endfacet
facet normal 0.049356 0.998781 0.000000
outer loop
vertex 8.707110 8.732108 0.050000
vertex 8.707110 8.732108 0.100000
vertex 8.709560 8.731987 0.100000
endloop
endfacet
facet normal 0.049380 0.998780 0.000000
outer loop
vertex 8.707110 8.732108 0.050000
vertex 8.709560 8.731987 0.100000
vertex 8.709560 8.731987 0.050000
endloop
endfacet
facet normal 0.146605 0.989195 0.000000
outer loop
vertex 8.709560 8.731987 0.050000
vertex 8.709560 8.731987 0.100000
vertex 8.711987 8.731627 0.100000
endloop
endfacet
facet normal 0.146464 0.989216 0.000000
outer loop
vertex 8.709560 8.731987 0.050000
vertex 8.711987 8.731627 0.100000
vertex 8.711987 8.731627 0.050000
endloop
endfacet
facet normal 0.146605 0.989195 0.000000
outer loop
vertex 8.709560 8.731987 0.000000
vertex 8.709560 8.731987 0.050000
vertex 8.711987 8.731627 0.050000
endloop
endfacet
facet normal 0.146464 0.989216 0.000000
outer loop
vertex 8.709560 8.731987 0.000000
vertex 8.711987 8.731627 0.050000
vertex 8.711987 8.731627 0.000000
endloop
endfacet
facet normal 0.243474 0.969908 0.000000
outer loop
vertex 8.711987 8.731627 0.000000
vertex 8.711987 8.731627 0.050000
vertex 8.714367 8.731030 0.050000
endloop
endfacet
facet normal 0.243244 0.969965 0.000000
outer loop
vertex 8.711987 8.731627 0.000000
vertex 8.714367 8.731030 0.050000
vertex 8.714367 8.731030 0.000000
endloop
endfacet
facet normal 0.243474 0.969908 0.000000
outer loop
vertex 8.711987 8.731627 0.050000
vertex 8.711987 8.731627 0.100000
vertex 8.714367 8.731030 0.100000
endloop
endfacet
facet normal 0.243244 0.969965 0.000000
outer loop
vertex 8.711987 8.731627 0.050000
vertex 8.714367 8.731030 0.100000
vertex 8.714367 8.731030 0.050000
endloop
endfacet
facet normal 0.336928 0.941531 0.000000
outer loop
vertex 8.714367 8.731030 0.050000
vertex 8.714367 8.731030 0.100000
vertex 8.716676 8.730205 0.100000
endloop
endfacet
facet normal 0.336774 0.941586 0.000000
outer loop
vertex 8.714367 8.731030 0.050000
vertex 8.716676 8.730205 0.100000
vertex 8.716676 8.730205 0.050000
endloop
endfacet
facet normal 0.336928 0.941531 0.000000
outer loop
vertex 8.714367 8.731030 0.000000
vertex 8.714367 8.731030 0.050000
vertex 8.716676 8.730205 0.050000
endloop
endfacet
facet normal 0.336774 0.941586 0.000000
outer loop
vertex 8.714367 8.731030 0.000000
vertex 8.716676 8.730205 0.050000
vertex 8.716676 8.730205 0.000000
endloop
endfacet
facet normal 0.427163 0.904175 0.000000
outer loop
vertex 8.716676 8.730205 0.000000
vertex 8.716676 8.730205 0.050000
vertex 8.718895 8.729156 0.050000
endloop
endfacet
facet normal 0.426788 0.904352 0.000000
outer loop
vertex 8.716676 8.730205 0.000000
vertex 8.718895 8.729156 0.050000
vertex 8.718895 8.729156 0.000000
endloop
endfacet
facet normal 0.427163 0.904175 0.000000
outer loop
vertex 8.716676 8.730205 0.050000
vertex 8.716676 8.730205 0.100000
vertex 8.718895 8.729156 0.100000
endloop
endfacet
facet normal 0.426788 0.904352 0.000000
outer loop
vertex 8.716676 8.730205 0.050000
vertex 8.718895 8.729156 0.100000
vertex 8.718895 8.729156 0.050000
endloop
endfacet
facet normal 0.514996 0.857192 0.000000
outer loop
vertex 8.718895 8.729156 0.050000
vertex 8.718895 8.729156 0.100000
vertex 8.720997 8.727894 0.100000
endloop
endfacet
facet normal 0.514996 0.857192 0.000000
outer loop
vertex 8.718895 8.729156 0.050000
vertex 8.720997 8.727894 0.100000
vertex 8.720997 8.727894 0.050000
endloop
endfacet
facet normal 0.514996 0.857192 0.000000
outer loop
vertex 8.718895 8.729156 0.000000
vertex 8.718895 8.729156 0.050000
vertex 8.720997 8.727894 0.050000
endloop
endfacet
facet normal 0.514996 0.857192 0.000000
outer loop
vertex 8.718895 8.729156 0.000000
vertex 8.720997 8.727894 0.050000
vertex 8.720997 8.727894 0.000000
endloop
endfacet
facet normal 0.595358 0.803461 0.000000
outer loop
vertex 8.720997 8.727894 0.000000
vertex 8.720997 8.727894 0.050000
vertex 8.722968 8.726433 0.050000
endloop
endfacet
facet normal 0.595590 0.803289 0.000000
outer loop
vertex 8.720997 8.727894 0.000000
vertex 8.722968 8.726433 0.050000
vertex 8.722968 8.726433 0.000000
endloop
endfacet
facet normal 0.595358 0.803461 0.000000
outer loop
vertex 8.720997 8.727894 0.050000
vertex 8.720997 8.727894 0.100000
vertex 8.722968 8.726433 0.100000
endloop
endfacet
facet normal 0.595590 0.803289 0.000000
outer loop
vertex 8.720997 8.727894 0.050000
vertex 8.722968 8.726433 0.100000
vertex 8.722968 8.726433 0.050000
endloop
endfacet
facet normal 0.671618 0.740898 0.000000
outer loop
vertex 8.722968 8.726433 0.050000
vertex 8.722968 8.726433 0.100000
vertex 8.724785 8.724785 0.100000
endloop
endfacet
facet normal 0.672102 0.740459 0.000000
outer loop
vertex 8.722968 8.726433 0.050000
vertex 8.724785 8.724785 0.100000
vertex 8.724785 8.724785 0.050000
endloop
endfacet
facet normal 0.671618 0.740898 0.000000
outer loop
vertex 8.722968 8.726433 0.000000
vertex 8.722968 8.726433 0.050000
vertex 8.724785 8.724785 0.050000
endloop
endfacet
facet normal 0.672101 0.740459 0.000000
outer loop
vertex 8.722968 8.726433 0.000000
vertex 8.724785 8.724785 0.050000
vertex 8.724785 8.724785 0.000000
endloop
endfacet
facet normal 0.740533 0.672020 0.000000
outer loop
vertex 8.724785 8.724785 0.000000
vertex 8.724785 8.724785 0.050000
vertex 8.726434 8.722968 0.050000
endloop
endfacet
facet normal 0.740292 0.672286 0.000000
outer loop
vertex 8.724785 8.724785 0.000000
vertex 8.726434 8.722968 0.050000
vertex 8.726434 8.722968 0.000000
endloop
endfacet
facet normal 0.740533 0.672020 0.000000
outer loop
vertex 8.724785 8.724785 0.050000
vertex 8.724785 8.724785 0.100000
vertex 8.726434 8.722968 0.100000
endloop
endfacet
facet normal 0.740292 0.672286 0.000000
outer loop
vertex 8.724785 8.724785 0.050000
vertex 8.726434 8.722968 0.100000
vertex 8.726434 8.722968 0.050000
endloop
endfacet
facet normal 0.803764 0.594949 0.000000
outer loop
vertex 8.726434 8.722968 0.050000
vertex 8.726434 8.722968 0.100000
vertex 8.727894 8.720997 0.100000
endloop
endfacet
facet normal 0.803531 0.595262 0.000000
outer loop
vertex 8.726434 8.722968 0.050000
vertex 8.727894 8.720997 0.100000
vertex 8.727894 8.720997 0.050000
endloop
endfacet
facet normal 0.803764 0.594949 0.000000
outer loop
vertex 8.726434 8.722968 0.000000
vertex 8.726434 8.722968 0.050000
vertex 8.727894 8.720997 0.050000
endloop
endfacet
facet normal 0.803531 0.595262 0.000000
outer loop
vertex 8.726434 8.722968 0.000000
vertex 8.727894 8.720997 0.050000
vertex 8.727894 8.720997 0.000000
endloop
endfacet
facet normal 0.857261 0.514882 0.000000
outer loop
vertex 8.727894 8.720997 0.000000
vertex 8.727894 8.720997 0.050000
vertex 8.729156 8.718895 0.050000
endloop
endfacet
facet normal 0.857047 0.515239 0.000000
outer loop
vertex 8.727894 8.720997 0.000000
vertex 8.729156 8.718895 0.050000
vertex 8.729156 8.718895 0.000000
endloop
endfacet
facet normal 0.857261 0.514882 0.000000
outer loop
vertex 8.727894 8.720997 0.050000
vertex 8.727894 8.720997 0.100000
vertex 8.729156 8.718895 0.100000
endloop
endfacet
facet normal 0.857046 0.515239 0.000000
outer loop
vertex 8.727894 8.720997 0.050000
vertex 8.729156 8.718895 0.100000
vertex 8.729156 8.718895 0.050000
endloop
endfacet
facet normal 0.904078 0.427368 0.000000
outer loop
vertex 8.729156 8.718895 0.050000
vertex 8.729156 8.718895 0.100000
vertex 8.730206 8.716676 0.100000
endloop
endfacet
facet normal 0.904078 0.427368 0.000000
outer loop
vertex 8.729156 8.718895 0.050000
vertex 8.730206 8.716676 0.100000
vertex 8.730206 8.716676 0.050000
endloop
endfacet
facet normal 0.904078 0.427368 0.000000
outer loop
vertex 8.729156 8.718895 0.000000
vertex 8.729156 8.718895 0.050000
vertex 8.730206 8.716676 0.050000
endloop
endfacet
facet normal 0.904078 0.427368 0.000000
outer loop
vertex 8.729156 8.718895 0.000000
vertex 8.730206 8.716676 0.050000
vertex 8.730206 8.716676 0.000000
endloop
endfacet
facet normal 0.941698 0.336460 0.000000
outer loop
vertex 8.730206 8.716676 0.000000
vertex 8.730206 8.716676 0.050000
vertex 8.731031 8.714367 0.050000
endloop
endfacet
facet normal 0.941544 0.336891 0.000000
outer loop
vertex 8.730206 8.716676 0.000000
vertex 8.731031 8.714367 0.050000
vertex 8.731031 8.714367 0.000000
endloop
endfacet
facet normal 0.941698 0.336460 0.000000
outer loop
vertex 8.730206 8.716676 0.050000
vertex 8.730206 8.716676 0.100000
vertex 8.731031 8.714367 0.100000
endloop
endfacet
facet normal 0.941544 0.336891 0.000000
outer loop
vertex 8.730206 8.716676 0.050000
vertex 8.731031 8.714367 0.100000
vertex 8.731031 8.714367 0.050000
endloop
endfacet
facet normal 0.969913 0.243450 0.000000
outer loop
vertex 8.731031 8.714367 0.050000
vertex 8.731031 8.714367 0.100000
vertex 8.731628 8.711987 0.100000
endloop
endfacet
facet normal 0.969913 0.243450 0.000000
outer loop
vertex 8.731031 8.714367 0.050000
vertex 8.731628 8.711987 0.100000
vertex 8.731628 8.711987 0.050000
endloop
endfacet
facet normal 0.969913 0.243450 0.000000
outer loop
vertex 8.731031 8.714367 0.000000
vertex 8.731031 8.714367 0.050000
vertex 8.731628 8.711987 0.050000
endloop
endfacet
facet normal 0.969913 0.243450 0.000000
outer loop
vertex 8.731031 8.714367 0.000000
vertex 8.731628 8.711987 0.050000
vertex 8.731628 8.711987 0.000000
endloop
endfacet
facet normal 0.989186 0.146668 0.000000
outer loop
vertex 8.731628 8.711987 0.000000
vertex 8.731628 8.711987 0.050000
vertex 8.731989 8.709559 0.050000
endloop
endfacet
facet normal 0.989115 0.147143 0.000000
outer loop
vertex 8.731628 8.711987 0.000000
vertex 8.731989 8.709559 0.050000
vertex 8.731989 8.709559 0.000000
endloop
endfacet
facet normal 0.989186 0.146668 0.000000
outer loop
vertex 8.731628 8.711987 0.050000
vertex 8.731628 8.711987 0.100000
vertex 8.731989 8.709559 0.100000
endloop
endfacet
facet normal 0.989115 0.147143 0.000000
outer loop
vertex 8.731628 8.711987 0.050000
vertex 8.731989 8.709559 0.100000
vertex 8.731989 8.709559 0.050000
endloop
endfacet
facet normal 0.998841 0.048133 0.000000
outer loop
vertex 8.731989 8.709559 0.050000
vertex 8.731989 8.709559 0.100000
vertex 8.732108 8.707110 0.100000
endloop
endfacet
facet normal 0.998794 0.049103 0.000000
outer loop
vertex 8.731989 8.709559 0.050000
vertex 8.732108 8.707110 0.100000
vertex 8.732108 8.707110 0.050000
endloop
endfacet
facet normal 0.998841 0.048133 0.000000
outer loop
vertex 8.731989 8.709559 0.000000
vertex 8.731989 8.709559 0.050000
vertex 8.732108 8.707110 0.050000
endloop
endfacet
facet normal 0.998794 0.049103 0.000000
outer loop
vertex 8.731989 8.709559 0.000000
vertex 8.732108 8.707110 0.050000
vertex 8.732108 8.707110 0.000000
endloop
endfacet
facet normal 0.998795 -0.049084 0.000000
outer loop
vertex 8.732108 8.707110 0.000000
vertex 8.732108 8.707110 0.050000
vertex 8.731989 8.704660 0.050000
endloop
endfacet
facet normal 0.998842 -0.048115 0.000000
outer loop
vertex 8.732108 8.707110 0.000000
vertex 8.731989 8.704660 0.050000
vertex 8.731989 8.704660 0.000000
endloop
endfacet
facet normal 0.998795 -0.049084 0.000000
outer loop
vertex 8.732108 8.707110 0.050000
vertex 8.732108 8.707110 0.100000
vertex 8.731989 8.704660 0.100000
endloop
endfacet
facet normal 0.998842 -0.048115 0.000000
outer loop
vertex 8.732108 8.707110 0.050000
vertex 8.731989 8.704660 0.100000
vertex 8.731989 8.704660 0.050000
endloop
endfacet
facet normal 0.989098 -0.147257 0.000000
outer loop
vertex 8.731989 8.704660 0.050000
vertex 8.731989 8.704660 0.100000
vertex 8.731628 8.702234 0.100000
endloop
endfacet
facet normal 0.989169 -0.146781 0.000000
outer loop
vertex 8.731989 8.704660 0.050000
vertex 8.731628 8.702234 0.100000
vertex 8.731628 8.702234 0.050000
endloop
endfacet
facet normal 0.989098 -0.147257 0.000000
outer loop
vertex 8.731989 8.704660 0.000000
vertex 8.731989 8.704660 0.050000
vertex 8.731628 8.702234 0.050000
endloop
endfacet
facet normal 0.989169 -0.146781 0.000000
outer loop
vertex 8.731989 8.704660 0.000000
vertex 8.731628 8.702234 0.050000
vertex 8.731628 8.702234 0.000000
endloop
endfacet
facet normal 0.969936 -0.243358 0.000000
outer loop
vertex 8.731628 8.702234 0.000000
vertex 8.731628 8.702234 0.050000
vertex 8.731031 8.699854 0.050000
endloop
endfacet
facet normal 0.969936 -0.243358 0.000000
outer loop
vertex 8.731628 8.702234 0.000000
vertex 8.731031 8.699854 0.050000
vertex 8.731031 8.699854 0.000000
endloop
endfacet
facet normal 0.969936 -0.243358 0.000000
outer loop
vertex 8.731628 8.702234 0.050000
vertex 8.731628 8.702234 0.100000
vertex 8.731031 8.699854 0.100000
endloop
endfacet
facet normal 0.969936 -0.243358 0.000000
outer loop
vertex 8.731628 8.702234 0.050000
vertex 8.731031 8.699854 0.100000
vertex 8.731031 8.699854 0.050000
endloop
endfacet
facet normal 0.941588 -0.336767 0.000000
outer loop
vertex 8.731031 8.699854 0.050000
vertex 8.731031 8.699854 0.100000
vertex 8.730206 8.697544 0.100000
endloop
endfacet
facet normal 0.941742 -0.336336 0.000000
outer loop
vertex 8.731031 8.699854 0.050000
vertex 8.730206 8.697544 0.100000
vertex 8.730206 8.697544 0.050000
endloop
endfacet
facet normal 0.941588 -0.336767 0.000000
outer loop
vertex 8.731031 8.699854 0.000000
vertex 8.731031 8.699854 0.050000
vertex 8.730206 8.697544 0.050000
endloop
endfacet
facet normal 0.941742 -0.336336 0.000000
outer loop
vertex 8.731031 8.699854 0.000000
vertex 8.730206 8.697544 0.050000
vertex 8.730206 8.697544 0.000000
endloop
endfacet
facet normal 0.903936 -0.427668 0.000000
outer loop
vertex 8.730206 8.697544 0.000000
vertex 8.730206 8.697544 0.050000
vertex 8.729156 8.695327 0.050000
endloop
endfacet
facet normal 0.903936 -0.427668 0.000000
outer loop
vertex 8.730206 8.697544 0.000000
vertex 8.729156 8.695327 0.050000
vertex 8.729156 8.695327 0.000000
endloop
endfacet
facet normal 0.903936 -0.427668 0.000000
outer loop
vertex 8.730206 8.697544 0.050000
vertex 8.730206 8.697544 0.100000
vertex 8.729156 8.695327 0.100000
endloop
endfacet
facet normal 0.903936 -0.427668 0.000000
outer loop
vertex 8.730206 8.697544 0.050000
vertex 8.729156 8.695327 0.100000
vertex 8.729156 8.695327 0.050000
endloop
endfacet
facet normal 0.857356 -0.514724 0.000000
outer loop
vertex 8.729156 8.695327 0.050000
vertex 8.729156 8.695327 0.100000
vertex 8.727894 8.693222 0.100000
endloop
endfacet
facet normal 0.857570 -0.514367 0.000000
outer loop
vertex 8.729156 8.695327 0.050000
vertex 8.727894 8.693222 0.100000
vertex 8.727894 8.693222 0.050000
endloop
endfacet
facet normal 0.857356 -0.514724 0.000000
outer loop
vertex 8.729156 8.695327 0.000000
vertex 8.729156 8.695327 0.050000
vertex 8.727894 8.693222 0.050000
endloop
endfacet
facet normal 0.857570 -0.514367 0.000000
outer loop
vertex 8.729156 8.695327 0.000000
vertex 8.727894 8.693222 0.050000
vertex 8.727894 8.693222 0.000000
endloop
endfacet
facet normal 0.803256 -0.595634 0.000000
outer loop
vertex 8.727894 8.693222 0.000000
vertex 8.727894 8.693222 0.050000
vertex 8.726434 8.691253 0.050000
endloop
endfacet
facet normal 0.803488 -0.595321 0.000000
outer loop
vertex 8.727894 8.693222 0.000000
vertex 8.726434 8.691253 0.050000
vertex 8.726434 8.691253 0.000000
endloop
endfacet
facet normal 0.803256 -0.595634 0.000000
outer loop
vertex 8.727894 8.693222 0.050000
vertex 8.727894 8.693222 0.100000
vertex 8.726434 8.691253 0.100000
endloop
endfacet
facet normal 0.803488 -0.595321 0.000000
outer loop
vertex 8.727894 8.693222 0.050000
vertex 8.726434 8.691253 0.100000
vertex 8.726434 8.691253 0.050000
endloop
endfacet
facet normal 0.740643 -0.671899 0.000000
outer loop
vertex 8.726434 8.691253 0.050000
vertex 8.726434 8.691253 0.100000
vertex 8.724785 8.689434 0.100000
endloop
endfacet
facet normal 0.740884 -0.671633 0.000000
outer loop
vertex 8.726434 8.691253 0.050000
vertex 8.724785 8.689434 0.100000
vertex 8.724785 8.689434 0.050000
endloop
endfacet
facet normal 0.740643 -0.671899 0.000000
outer loop
vertex 8.726434 8.691253 0.000000
vertex 8.726434 8.691253 0.050000
vertex 8.724785 8.689434 0.050000
endloop
endfacet
facet normal 0.740884 -0.671633 0.000000
outer loop
vertex 8.726434 8.691253 0.000000
vertex 8.724785 8.689434 0.050000
vertex 8.724785 8.689434 0.000000
endloop
endfacet
facet normal 0.671888 -0.740653 0.000000
outer loop
vertex 8.724785 8.689434 0.000000
vertex 8.724785 8.689434 0.050000
vertex 8.722968 8.687787 0.050000
endloop
endfacet
facet normal 0.671404 -0.741091 0.000000
outer loop
vertex 8.724785 8.689434 0.000000
vertex 8.722968 8.687787 0.050000
vertex 8.722968 8.687787 0.000000
endloop
endfacet
facet normal 0.671888 -0.740653 0.000000
outer loop
vertex 8.724785 8.689434 0.050000
vertex 8.724785 8.689434 0.100000
vertex 8.722968 8.687787 0.100000
endloop
endfacet
facet normal 0.671404 -0.741091 0.000000
outer loop
vertex 8.724785 8.689434 0.050000
vertex 8.722968 8.687787 0.100000
vertex 8.722968 8.687787 0.050000
endloop
endfacet
facet normal 0.595590 -0.803289 0.000000
outer loop
vertex 8.722968 8.687787 0.050000
vertex 8.722968 8.687787 0.100000
vertex 8.720997 8.686326 0.100000
endloop
endfacet
facet normal 0.595358 -0.803461 0.000000
outer loop
vertex 8.722968 8.687787 0.050000
vertex 8.720997 8.686326 0.100000
vertex 8.720997 8.686326 0.050000
endloop
endfacet
facet normal 0.595590 -0.803289 0.000000
outer loop
vertex 8.722968 8.687787 0.000000
vertex 8.722968 8.687787 0.050000
vertex 8.720997 8.686326 0.050000
endloop
endfacet
facet normal 0.595358 -0.803461 0.000000
outer loop
vertex 8.722968 8.687787 0.000000
vertex 8.720997 8.686326 0.050000
vertex 8.720997 8.686326 0.000000
endloop
endfacet
facet normal 0.514710 -0.857364 0.000000
outer loop
vertex 8.720997 8.686326 0.000000
vertex 8.720997 8.686326 0.050000
vertex 8.718895 8.685064 0.050000
endloop
endfacet
facet normal 0.514424 -0.857536 0.000000
outer loop
vertex 8.720997 8.686326 0.000000
vertex 8.718895 8.685064 0.050000
vertex 8.718895 8.685065 0.000000
endloop
endfacet
facet normal 0.514424 -0.857536 0.000000
outer loop
vertex 8.720997 8.686326 0.050000
vertex 8.720997 8.686326 0.100000
vertex 8.718895 8.685065 0.100000
endloop
endfacet
facet normal 0.514710 -0.857364 0.000000
outer loop
vertex 8.720997 8.686326 0.050000
vertex 8.718895 8.685065 0.100000
vertex 8.718895 8.685064 0.050000
endloop
endfacet
facet normal 0.427423 -0.904052 0.000000
outer loop
vertex 8.718895 8.685064 0.050000
vertex 8.718895 8.685065 0.100000
vertex 8.716676 8.684015 0.100000
endloop
endfacet
facet normal 0.427481 -0.904025 0.000000
outer loop
vertex 8.718895 8.685064 0.050000
vertex 8.716676 8.684015 0.100000
vertex 8.716676 8.684015 0.050000
endloop
endfacet
facet normal 0.427105 -0.904202 0.000000
outer loop
vertex 8.718895 8.685065 0.000000
vertex 8.718895 8.685064 0.050000
vertex 8.716676 8.684015 0.050000
endloop
endfacet
facet normal 0.427798 -0.903874 0.000000
outer loop
vertex 8.718895 8.685065 0.000000
vertex 8.716676 8.684015 0.050000
vertex 8.716676 8.684015 0.000000
endloop
endfacet
facet normal 0.336774 -0.941586 0.000000
outer loop
vertex 8.716676 8.684015 0.000000
vertex 8.716676 8.684015 0.050000
vertex 8.714367 8.683189 0.050000
endloop
endfacet
facet normal 0.336928 -0.941531 0.000000
outer loop
vertex 8.716676 8.684015 0.000000
vertex 8.714367 8.683189 0.050000
vertex 8.714367 8.683189 0.000000
endloop
endfacet
facet normal 0.336774 -0.941586 0.000000
outer loop
vertex 8.716676 8.684015 0.050000
vertex 8.716676 8.684015 0.100000
vertex 8.714367 8.683189 0.100000
endloop
endfacet
facet normal 0.336928 -0.941531 0.000000
outer loop
vertex 8.716676 8.684015 0.050000
vertex 8.714367 8.683189 0.100000
vertex 8.714367 8.683189 0.050000
endloop
endfacet
facet normal 0.242878 -0.970057 0.000000
outer loop
vertex 8.714367 8.683189 0.050000
vertex 8.714367 8.683189 0.100000
vertex 8.711987 8.682593 0.100000
endloop
endfacet
facet normal 0.243108 -0.969999 0.000000
outer loop
vertex 8.714367 8.683189 0.050000
vertex 8.711987 8.682593 0.100000
vertex 8.711987 8.682593 0.050000
endloop
endfacet
facet normal 0.242878 -0.970057 0.000000
outer loop
vertex 8.714367 8.683189 0.000000
vertex 8.714367 8.683189 0.050000
vertex 8.711987 8.682593 0.050000
endloop
endfacet
facet normal 0.243108 -0.969999 0.000000
outer loop
vertex 8.714367 8.683189 0.000000
vertex 8.711987 8.682593 0.050000
vertex 8.711987 8.682593 0.000000
endloop
endfacet
facet normal 0.146464 -0.989216 0.000000
outer loop
vertex 8.711987 8.682593 0.000000
vertex 8.711987 8.682593 0.050000
vertex 8.709560 8.682234 0.050000
endloop
endfacet
facet normal 0.146605 -0.989195 0.000000
outer loop
vertex 8.711987 8.682593 0.000000
vertex 8.709560 8.682234 0.050000
vertex 8.709560 8.682234 0.000000
endloop
endfacet
facet normal 0.146464 -0.989216 0.000000
outer loop
vertex 8.711987 8.682593 0.050000
vertex 8.711987 8.682593 0.100000
vertex 8.709560 8.682234 0.100000
endloop
endfacet
facet normal 0.146605 -0.989195 0.000000
outer loop
vertex 8.711987 8.682593 0.050000
vertex 8.709560 8.682234 0.100000
vertex 8.709560 8.682234 0.050000
endloop
endfacet
facet normal 0.048992 -0.998799 0.000000
outer loop
vertex 8.709560 8.682234 0.050000
vertex 8.709560 8.682234 0.100000
vertex 8.707110 8.682114 0.100000
endloop
endfacet
facet normal 0.048968 -0.998800 0.000000
outer loop
vertex 8.709560 8.682234 0.050000
vertex 8.707110 8.682114 0.100000
vertex 8.707110 8.682114 0.050000
endloop
endfacet
facet normal 0.048992 -0.998799 0.000000
outer loop
vertex 8.709560 8.682234 0.000000
vertex 8.709560 8.682234 0.050000
vertex 8.707110 8.682114 0.050000
endloop
endfacet
facet normal 0.048968 -0.998800 0.000000
outer loop
vertex 8.709560 8.682234 0.000000
vertex 8.707110 8.682114 0.050000
vertex 8.707110 8.682114 0.000000
endloop
endfacet
facet normal -0.048968 -0.998800 0.000000
outer loop
vertex 8.707110 8.682114 0.000000
vertex 8.707110 8.682114 0.050000
vertex 8.704660 8.682234 0.050000
endloop
endfacet
facet normal -0.049016 -0.998798 0.000000
outer loop
vertex 8.707110 8.682114 0.000000
vertex 8.704660 8.682234 0.050000
vertex 8.704660 8.682234 0.000000
endloop
endfacet
facet normal -0.048968 -0.998800 0.000000
outer loop
vertex 8.707110 8.682114 0.050000
vertex 8.707110 8.682114 0.100000
vertex 8.704660 8.682234 0.100000
endloop
endfacet
facet normal -0.049016 -0.998798 0.000000
outer loop
vertex 8.707110 8.682114 0.050000
vertex 8.704660 8.682234 0.100000
vertex 8.704660 8.682234 0.050000
endloop
endfacet
facet normal -0.146605 -0.989195 0.000000
outer loop
vertex 8.704660 8.682234 0.050000
vertex 8.704660 8.682234 0.100000
vertex 8.702234 8.682593 0.100000
endloop
endfacet
facet normal -0.146605 -0.989195 0.000000
outer loop
vertex 8.704660 8.682234 0.050000
vertex 8.702234 8.682593 0.100000
vertex 8.702234 8.682593 0.050000
endloop
endfacet
facet normal -0.146605 -0.989195 0.000000
outer loop
vertex 8.704660 8.682234 0.000000
vertex 8.704660 8.682234 0.050000
vertex 8.702234 8.682593 0.050000
endloop
endfacet
facet normal -0.146605 -0.989195 0.000000
outer loop
vertex 8.704660 8.682234 0.000000
vertex 8.702234 8.682593 0.050000
vertex 8.702234 8.682593 0.000000
endloop
endfacet
facet normal -0.242878 -0.970057 0.000000
outer loop
vertex 8.702234 8.682593 0.000000
vertex 8.702234 8.682593 0.050000
vertex 8.699854 8.683189 0.050000
endloop
endfacet
facet normal -0.242878 -0.970057 0.000000
outer loop
vertex 8.702234 8.682593 0.000000
vertex 8.699854 8.683189 0.050000
vertex 8.699854 8.683189 0.000000
endloop
endfacet
facet normal -0.242878 -0.970057 0.000000
outer loop
vertex 8.702234 8.682593 0.050000
vertex 8.702234 8.682593 0.100000
vertex 8.699854 8.683189 0.100000
endloop
endfacet
facet normal -0.242878 -0.970057 0.000000
outer loop
vertex 8.702234 8.682593 0.050000
vertex 8.699854 8.683189 0.100000
vertex 8.699854 8.683189 0.050000
endloop
endfacet
facet normal -0.336964 -0.941518 0.000000
outer loop
vertex 8.699854 8.683189 0.050000
vertex 8.699854 8.683189 0.100000
vertex 8.697544 8.684016 0.100000
endloop
endfacet
facet normal -0.337118 -0.941462 0.000000
outer loop
vertex 8.699854 8.683189 0.050000
vertex 8.697544 8.684016 0.100000
vertex 8.697544 8.684016 0.050000
endloop
endfacet
facet normal -0.336964 -0.941518 0.000000
outer loop
vertex 8.699854 8.683189 0.000000
vertex 8.699854 8.683189 0.050000
vertex 8.697544 8.684016 0.050000
endloop
endfacet
facet normal -0.337118 -0.941462 0.000000
outer loop
vertex 8.699854 8.683189 0.000000
vertex 8.697544 8.684016 0.050000
vertex 8.697544 8.684016 0.000000
endloop
endfacet
facet normal -0.427539 -0.903997 0.000000
outer loop
vertex 8.697544 8.684016 0.000000
vertex 8.697544 8.684016 0.050000
vertex 8.695327 8.685064 0.050000
endloop
endfacet
facet normal -0.427481 -0.904025 -0.000030
outer loop
vertex 8.697544 8.684016 0.000000
vertex 8.695327 8.685064 0.050000
vertex 8.695327 8.685065 0.000000
endloop
endfacet
facet normal -0.427856 -0.903847 0.000000
outer loop
vertex 8.697544 8.684016 0.050000
vertex 8.697544 8.684016 0.100000
vertex 8.695327 8.685065 0.100000
endloop
endfacet
facet normal -0.427163 -0.904175 0.000030
outer loop
vertex 8.697544 8.684016 0.050000
vertex 8.695327 8.685065 0.100000
vertex 8.695327 8.685064 0.050000
endloop
endfacet
facet normal -0.513995 -0.857793 0.000000
outer loop
vertex 8.695327 8.685064 0.050000
vertex 8.695327 8.685065 0.100000
vertex 8.693222 8.686326 0.100000
endloop
endfacet
facet normal -0.514067 -0.857750 0.000000
outer loop
vertex 8.695327 8.685064 0.050000
vertex 8.693222 8.686326 0.100000
vertex 8.693222 8.686326 0.050000
endloop
endfacet
facet normal -0.514281 -0.857621 0.000000
outer loop
vertex 8.695327 8.685065 0.000000
vertex 8.695327 8.685064 0.050000
vertex 8.693222 8.686326 0.050000
endloop
endfacet
facet normal -0.513781 -0.857921 0.000000
outer loop
vertex 8.695327 8.685065 0.000000
vertex 8.693222 8.686326 0.050000
vertex 8.693222 8.686326 0.000000
endloop
endfacet
facet normal -0.595823 -0.803116 0.000000
outer loop
vertex 8.693222 8.686326 0.000000
vertex 8.693222 8.686326 0.050000
vertex 8.691253 8.687787 0.050000
endloop
endfacet
facet normal -0.595823 -0.803116 0.000000
outer loop
vertex 8.693222 8.686326 0.000000
vertex 8.691253 8.687787 0.050000
vertex 8.691253 8.687787 0.000000
endloop
endfacet
facet normal -0.595823 -0.803116 0.000000
outer loop
vertex 8.693222 8.686326 0.050000
vertex 8.693222 8.686326 0.100000
vertex 8.691253 8.687787 0.100000
endloop
endfacet
facet normal -0.595823 -0.803116 0.000000
outer loop
vertex 8.693222 8.686326 0.050000
vertex 8.691253 8.687787 0.100000
vertex 8.691253 8.687787 0.050000
endloop
endfacet
facet normal -0.671404 -0.741091 0.000000
outer loop
vertex 8.691253 8.687787 0.050000
vertex 8.691253 8.687787 0.100000
vertex 8.689434 8.689434 0.100000
endloop
endfacet
facet normal -0.670921 -0.741529 0.000000
outer loop
vertex 8.691253 8.687787 0.050000
vertex 8.689434 8.689434 0.100000
vertex 8.689434 8.689434 0.050000
endloop
endfacet
facet normal -0.671404 -0.741091 0.000000
outer loop
vertex 8.691253 8.687787 0.000000
vertex 8.691253 8.687787 0.050000
vertex 8.689434 8.689434 0.050000
endloop
endfacet
facet normal -0.670921 -0.741529 0.000000
outer loop
vertex 8.691253 8.687787 0.000000
vertex 8.689434 8.689434 0.050000
vertex 8.689434 8.689434 0.000000
endloop
endfacet
facet normal -0.741126 -0.671366 0.000000
outer loop
vertex 8.689434 8.689434 0.000000
vertex 8.689434 8.689434 0.050000
vertex 8.687787 8.691253 0.050000
endloop
endfacet
facet normal -0.741368 -0.671099 0.000000
outer loop
vertex 8.689434 8.689434 0.000000
vertex 8.687787 8.691253 0.050000
vertex 8.687787 8.691253 0.000000
endloop
endfacet
facet normal -0.741126 -0.671366 0.000000
outer loop
vertex 8.689434 8.689434 0.050000
vertex 8.689434 8.689434 0.100000
vertex 8.687787 8.691253 0.100000
endloop
endfacet
facet normal -0.741368 -0.671099 0.000000
outer loop
vertex 8.689434 8.689434 0.050000
vertex 8.687787 8.691253 0.100000
vertex 8.687787 8.691253 0.050000
endloop
endfacet
facet normal -0.803256 -0.595634 0.000000
outer loop
vertex 8.687787 8.691253 0.050000
vertex 8.687787 8.691253 0.100000
vertex 8.686326 8.693222 0.100000
endloop
endfacet
facet normal -0.803161 -0.595762 0.000000
outer loop
vertex 8.687787 8.691253 0.050000
vertex 8.686326 8.693222 0.100000
vertex 8.686326 8.693223 0.050000
endloop
endfacet
facet normal -0.803394 -0.595448 0.000000
outer loop
vertex 8.687787 8.691253 0.000000
vertex 8.687787 8.691253 0.050000
vertex 8.686326 8.693223 0.050000
endloop
endfacet
facet normal -0.803023 -0.595948 0.000000
outer loop
vertex 8.687787 8.691253 0.000000
vertex 8.686326 8.693223 0.050000
vertex 8.686326 8.693222 0.000000
endloop
endfacet
facet normal -0.857682 -0.514181 0.000000
outer loop
vertex 8.686326 8.693222 0.000000
vertex 8.686326 8.693223 0.050000
vertex 8.685064 8.695327 0.050000
endloop
endfacet
facet normal -0.857673 -0.514196 -0.000015
outer loop
vertex 8.686326 8.693222 0.000000
vertex 8.685064 8.695327 0.050000
vertex 8.685065 8.695328 0.000000
endloop
endfacet
facet normal -0.857887 -0.513839 0.000000
outer loop
vertex 8.686326 8.693223 0.050000
vertex 8.686326 8.693222 0.100000
vertex 8.685065 8.695328 0.100000
endloop
endfacet
facet normal -0.857467 -0.514539 0.000015
outer loop
vertex 8.686326 8.693223 0.050000
vertex 8.685065 8.695328 0.100000
vertex 8.685064 8.695327 0.050000
endloop
endfacet
facet normal -0.903865 -0.427819 0.000030
outer loop
vertex 8.685064 8.695327 0.050000
vertex 8.685065 8.695328 0.100000
vertex 8.684015 8.697544 0.100000
endloop
endfacet
facet normal -0.903936 -0.427668 0.000000
outer loop
vertex 8.685064 8.695327 0.050000
vertex 8.684015 8.697544 0.100000
vertex 8.684015 8.697544 0.050000
endloop
endfacet
facet normal -0.903936 -0.427669 -0.000030
outer loop
vertex 8.685065 8.695328 0.000000
vertex 8.685064 8.695327 0.050000
vertex 8.684015 8.697544 0.050000
endloop
endfacet
facet normal -0.903865 -0.427819 0.000000
outer loop
vertex 8.685065 8.695328 0.000000
vertex 8.684015 8.697544 0.050000
vertex 8.684015 8.697544 0.000000
endloop
endfacet
facet normal -0.941588 -0.336767 0.000000
outer loop
vertex 8.684015 8.697544 0.000000
vertex 8.684015 8.697544 0.050000
vertex 8.683189 8.699854 0.050000
endloop
endfacet
facet normal -0.941742 -0.336336 0.000000
outer loop
vertex 8.684015 8.697544 0.000000
vertex 8.683189 8.699854 0.050000
vertex 8.683189 8.699854 0.000000
endloop
endfacet
facet normal -0.941588 -0.336767 0.000000
outer loop
vertex 8.684015 8.697544 0.050000
vertex 8.684015 8.697544 0.100000
vertex 8.683189 8.699854 0.100000
endloop
endfacet
facet normal -0.941742 -0.336336 0.000000
outer loop
vertex 8.684015 8.697544 0.050000
vertex 8.683189 8.699854 0.100000
vertex 8.683189 8.699854 0.050000
endloop
endfacet
facet normal -0.970051 -0.242901 0.000000
outer loop
vertex 8.683189 8.699854 0.050000
vertex 8.683189 8.699854 0.100000
vertex 8.682593 8.702234 0.100000
endloop
endfacet
facet normal -0.970028 -0.242993 0.000000
outer loop
vertex 8.683189 8.699854 0.050000
vertex 8.682593 8.702234 0.100000
vertex 8.682593 8.702233 0.050000
endloop
endfacet
facet normal -0.970028 -0.242993 0.000000
outer loop
vertex 8.683189 8.699854 0.000000
vertex 8.683189 8.699854 0.050000
vertex 8.682593 8.702233 0.050000
endloop
endfacet
facet normal -0.970051 -0.242901 0.000000
outer loop
vertex 8.683189 8.699854 0.000000
vertex 8.682593 8.702233 0.050000
vertex 8.682593 8.702234 0.000000
endloop
endfacet
facet normal -0.989107 -0.147200 0.000000
outer loop
vertex 8.682593 8.702234 0.000000
vertex 8.682593 8.702233 0.050000
vertex 8.682234 8.704660 0.050000
endloop
endfacet
facet normal -0.989239 -0.146306 0.000000
outer loop
vertex 8.682593 8.702234 0.000000
vertex 8.682234 8.704660 0.050000
vertex 8.682234 8.704660 0.000000
endloop
endfacet
facet normal -0.989098 -0.147257 0.000000
outer loop
vertex 8.682593 8.702233 0.050000
vertex 8.682593 8.702234 0.100000
vertex 8.682234 8.704660 0.100000
endloop
endfacet
facet normal -0.989248 -0.146249 0.000000
outer loop
vertex 8.682593 8.702233 0.050000
vertex 8.682234 8.704660 0.100000
vertex 8.682234 8.704660 0.050000
endloop
endfacet
facet normal -0.998818 -0.048600 0.000000
outer loop
vertex 8.682234 8.704660 0.050000
vertex 8.682234 8.704660 0.100000
vertex 8.682114 8.707110 0.100000
endloop
endfacet
facet normal -0.998795 -0.049084 0.000000
outer loop
vertex 8.682234 8.704660 0.050000
vertex 8.682114 8.707110 0.100000
vertex 8.682114 8.707110 0.050000
endloop
endfacet
facet normal -0.998818 -0.048600 0.000000
outer loop
vertex 8.682234 8.704660 0.000000
vertex 8.682234 8.704660 0.050000
vertex 8.682114 8.707110 0.050000
endloop
endfacet
facet normal -0.998795 -0.049084 0.000000
outer loop
vertex 8.682234 8.704660 0.000000
vertex 8.682114 8.707110 0.050000
vertex 8.682114 8.707110 0.000000
endloop
endfacet
facet normal -0.998794 0.049103 0.000000
outer loop
vertex 8.682114 8.707110 0.000000
vertex 8.682114 8.707110 0.050000
vertex 8.682234 8.709559 0.050000
endloop
endfacet
facet normal -0.998817 0.048618 0.000000
outer loop
vertex 8.682114 8.707110 0.000000
vertex 8.682234 8.709559 0.050000
vertex 8.682234 8.709559 0.000000
endloop
endfacet
facet normal -0.998794 0.049103 0.000000
outer loop
vertex 8.682114 8.707110 0.050000
vertex 8.682114 8.707110 0.100000
vertex 8.682234 8.709559 0.100000
endloop
endfacet
facet normal -0.998817 0.048618 0.000000
outer loop
vertex 8.682114 8.707110 0.050000
vertex 8.682234 8.709559 0.100000
vertex 8.682234 8.709559 0.050000
endloop
endfacet
facet normal -0.989256 0.146193 0.000000
outer loop
vertex 8.682234 8.709559 0.050000
vertex 8.682234 8.709559 0.100000
vertex 8.682593 8.711987 0.100000
endloop
endfacet
facet normal -0.989115 0.147143 0.000000
outer loop
vertex 8.682234 8.709559 0.050000
vertex 8.682593 8.711987 0.100000
vertex 8.682593 8.711987 0.050000
endloop
endfacet
facet normal -0.989256 0.146193 0.000000
outer loop
vertex 8.682234 8.709559 0.000000
vertex 8.682234 8.709559 0.050000
vertex 8.682593 8.711987 0.050000
endloop
endfacet
facet normal -0.989115 0.147143 0.000000
outer loop
vertex 8.682234 8.709559 0.000000
vertex 8.682593 8.711987 0.050000
vertex 8.682593 8.711987 0.000000
endloop
endfacet
facet normal -0.970028 0.242993 0.000000
outer loop
vertex 8.682593 8.711987 0.000000
vertex 8.682593 8.711987 0.050000
vertex 8.683189 8.714367 0.050000
endloop
endfacet
facet normal -0.970028 0.242993 0.000000
outer loop
vertex 8.682593 8.711987 0.000000
vertex 8.683189 8.714367 0.050000
vertex 8.683189 8.714367 0.000000
endloop
endfacet
facet normal -0.970028 0.242993 0.000000
outer loop
vertex 8.682593 8.711987 0.050000
vertex 8.682593 8.711987 0.100000
vertex 8.683189 8.714367 0.100000
endloop
endfacet
facet normal -0.970028 0.242993 0.000000
outer loop
vertex 8.682593 8.711987 0.050000
vertex 8.683189 8.714367 0.100000
vertex 8.683189 8.714367 0.050000
endloop
endfacet
facet normal -0.941390 0.337322 0.000000
outer loop
vertex 8.683189 8.714367 0.050000
vertex 8.683189 8.714367 0.100000
vertex 8.684016 8.716676 0.100000
endloop
endfacet
facet normal -0.941544 0.336891 0.000000
outer loop
vertex 8.683189 8.714367 0.050000
vertex 8.684016 8.716676 0.100000
vertex 8.684016 8.716676 0.050000
endloop
endfacet
facet normal -0.941390 0.337322 0.000000
outer loop
vertex 8.683189 8.714367 0.000000
vertex 8.683189 8.714367 0.050000
vertex 8.684016 8.716676 0.050000
endloop
endfacet
facet normal -0.941544 0.336891 0.000000
outer loop
vertex 8.683189 8.714367 0.000000
vertex 8.684016 8.716676 0.050000
vertex 8.684016 8.716676 0.000000
endloop
endfacet
facet normal -0.904453 0.426574 0.000000
outer loop
vertex 8.684016 8.716676 0.000000
vertex 8.684016 8.716676 0.050000
vertex 8.685064 8.718895 0.050000
endloop
endfacet
facet normal -0.904078 0.427368 -0.000017
outer loop
vertex 8.684016 8.716676 0.000000
vertex 8.685064 8.718895 0.050000
vertex 8.685065 8.718895 0.000000
endloop
endfacet
facet normal -0.904078 0.427368 0.000000
outer loop
vertex 8.684016 8.716676 0.050000
vertex 8.684016 8.716676 0.100000
vertex 8.685065 8.718895 0.100000
endloop
endfacet
facet normal -0.904453 0.426574 0.000017
outer loop
vertex 8.684016 8.716676 0.050000
vertex 8.685065 8.718895 0.100000
vertex 8.685064 8.718895 0.050000
endloop
endfacet
facet normal -0.857261 0.514882 0.000015
outer loop
vertex 8.685064 8.718895 0.050000
vertex 8.685065 8.718895 0.100000
vertex 8.686326 8.720997 0.100000
endloop
endfacet
facet normal -0.857476 0.514524 0.000000
outer loop
vertex 8.685064 8.718895 0.050000
vertex 8.686326 8.720997 0.100000
vertex 8.686326 8.720997 0.050000
endloop
endfacet
facet normal -0.857261 0.514882 -0.000015
outer loop
vertex 8.685065 8.718895 0.000000
vertex 8.685064 8.718895 0.050000
vertex 8.686326 8.720997 0.050000
endloop
endfacet
facet normal -0.857476 0.514524 0.000000
outer loop
vertex 8.685065 8.718895 0.000000
vertex 8.686326 8.720997 0.050000
vertex 8.686326 8.720997 0.000000
endloop
endfacet
facet normal -0.803299 0.595576 0.000000
outer loop
vertex 8.686326 8.720997 0.000000
vertex 8.686326 8.720997 0.050000
vertex 8.687787 8.722968 0.050000
endloop
endfacet
facet normal -0.803531 0.595262 0.000000
outer loop
vertex 8.686326 8.720997 0.000000
vertex 8.687787 8.722968 0.050000
vertex 8.687787 8.722968 0.000000
endloop
endfacet
facet normal -0.803299 0.595576 0.000000
outer loop
vertex 8.686326 8.720997 0.050000
vertex 8.686326 8.720997 0.100000
vertex 8.687787 8.722968 0.100000
endloop
endfacet
facet normal -0.803531 0.595262 0.000000
outer loop
vertex 8.686326 8.720997 0.050000
vertex 8.687787 8.722968 0.100000
vertex 8.687787 8.722968 0.050000
endloop
endfacet
facet normal -0.741017 0.671486 0.000000
outer loop
vertex 8.687787 8.722968 0.050000
vertex 8.687787 8.722968 0.100000
vertex 8.689434 8.724785 0.100000
endloop
endfacet
facet normal -0.740775 0.671753 0.000000
outer loop
vertex 8.687787 8.722968 0.050000
vertex 8.689434 8.724785 0.100000
vertex 8.689434 8.724785 0.050000
endloop
endfacet
facet normal -0.741017 0.671486 0.000000
outer loop
vertex 8.687787 8.722968 0.000000
vertex 8.687787 8.722968 0.050000
vertex 8.689434 8.724785 0.050000
endloop
endfacet
facet normal -0.740775 0.671753 0.000000
outer loop
vertex 8.687787 8.722968 0.000000
vertex 8.689434 8.724785 0.050000
vertex 8.689434 8.724785 0.000000
endloop
endfacet
facet normal -0.671134 0.741336 0.000000
outer loop
vertex 8.689434 8.724785 0.000000
vertex 8.689434 8.724785 0.050000
vertex 8.691253 8.726433 0.050000
endloop
endfacet
facet normal -0.671831 0.740704 0.000000
outer loop
vertex 8.689434 8.724785 0.000000
vertex 8.691253 8.726433 0.050000
vertex 8.691253 8.726434 0.000000
endloop
endfacet
facet normal -0.671348 0.741142 0.000000
outer loop
vertex 8.689434 8.724785 0.050000
vertex 8.689434 8.724785 0.100000
vertex 8.691253 8.726434 0.100000
endloop
endfacet
facet normal -0.671618 0.740898 0.000000
outer loop
vertex 8.689434 8.724785 0.050000
vertex 8.691253 8.726434 0.100000
vertex 8.691253 8.726433 0.050000
endloop
endfacet
facet normal -0.595572 0.803302 0.000000
outer loop
vertex 8.691253 8.726433 0.050000
vertex 8.691253 8.726434 0.100000
vertex 8.693222 8.727894 0.100000
endloop
endfacet
facet normal -0.595823 0.803116 0.000010
outer loop
vertex 8.691253 8.726433 0.050000
vertex 8.693222 8.727894 0.100000
vertex 8.693223 8.727894 0.050000
endloop
endfacet
facet normal -0.595823 0.803116 0.000000
outer loop
vertex 8.691253 8.726434 0.000000
vertex 8.691253 8.726433 0.050000
vertex 8.693223 8.727894 0.050000
endloop
endfacet
facet normal -0.595572 0.803302 -0.000010
outer loop
vertex 8.691253 8.726434 0.000000
vertex 8.693223 8.727894 0.050000
vertex 8.693222 8.727894 0.000000
endloop
endfacet
facet normal -0.514353 0.857579 0.000000
outer loop
vertex 8.693222 8.727894 0.000000
vertex 8.693223 8.727894 0.050000
vertex 8.695327 8.729156 0.050000
endloop
endfacet
facet normal -0.514353 0.857579 -0.000010
outer loop
vertex 8.693222 8.727894 0.000000
vertex 8.695327 8.729156 0.050000
vertex 8.695328 8.729156 0.000000
endloop
endfacet
facet normal -0.514353 0.857579 0.000000
outer loop
vertex 8.693223 8.727894 0.050000
vertex 8.693222 8.727894 0.100000
vertex 8.695328 8.729156 0.100000
endloop
endfacet
facet normal -0.514353 0.857579 0.000010
outer loop
vertex 8.693223 8.727894 0.050000
vertex 8.695328 8.729156 0.100000
vertex 8.695327 8.729156 0.050000
endloop
endfacet
facet normal -0.427351 0.904086 0.000000
outer loop
vertex 8.695327 8.729156 0.050000
vertex 8.695328 8.729156 0.100000
vertex 8.697544 8.730205 0.100000
endloop
endfacet
facet normal -0.427539 0.903997 0.000000
outer loop
vertex 8.695327 8.729156 0.050000
vertex 8.697544 8.730205 0.100000
vertex 8.697544 8.730205 0.050000
endloop
endfacet
facet normal -0.427351 0.904086 0.000000
outer loop
vertex 8.695328 8.729156 0.000000
vertex 8.695327 8.729156 0.050000
vertex 8.697544 8.730205 0.050000
endloop
endfacet
facet normal -0.427539 0.903997 0.000000
outer loop
vertex 8.695328 8.729156 0.000000
vertex 8.697544 8.730205 0.050000
vertex 8.697544 8.730205 0.000000
endloop
endfacet
facet normal 0.000008 0.000000 1.000000
outer loop
vertex 8.711988 8.731630 0.100000
vertex 8.709560 8.731987 0.100000
vertex 8.707111 8.707111 0.100000
endloop
endfacet
facet normal 0.000000 0.000000 1.000000
outer loop
vertex 8.711988 8.731630 0.100000
vertex 8.707111 8.707111 0.100000
vertex 8.714367 8.731030 0.100000
endloop
endfacet
facet normal 0.000000 0.000000 1.000000
outer loop
vertex 8.707110 8.732111 0.100000
vertex 8.704660 8.731987 0.100000
vertex 8.707111 8.707111 0.100000
endloop
endfacet
facet normal 0.000000 0.000000 1.000000
outer loop
vertex 8.707110 8.732111 0.100000
vertex 8.707111 8.707111 0.100000
vertex 8.709560 8.731987 0.100000
endloop
endfacet
facet normal 0.000000 0.000000 1.000000
outer loop
vertex 8.702233 8.731630 0.100000
vertex 8.699854 8.731030 0.100000
vertex 8.707111 8.707111 0.100000
endloop
endfacet
facet normal -0.000008 0.000000 1.000000
outer loop
vertex 8.702233 8.731630 0.100000
vertex 8.707111 8.707111 0.100000
vertex 8.704660 8.731987 0.100000
endloop
endfacet
facet normal 0.000008 0.000000 1.000000
outer loop
vertex 8.697543 8.730206 0.100000
vertex 8.695327 8.729156 0.100000
vertex 8.707111 8.707111 0.100000
endloop
endfacet
facet normal -0.000008 0.000000 1.000000
outer loop
vertex 8.697543 8.730206 0.100000
vertex 8.707111 8.707111 0.100000
vertex 8.699854 8.731030 0.100000
endloop
endfacet
facet normal 0.000000 0.000000 1.000000
outer loop
vertex 8.693221 8.727897 0.100000
vertex 8.691253 8.726434 0.100000
vertex 8.707111 8.707111 0.100000
endloop
endfacet
facet normal 0.000000 0.000000 1.000000
outer loop
vertex 8.693221 8.727897 0.100000
vertex 8.707111 8.707111 0.100000
vertex 8.695327 8.729156 0.100000
endloop
endfacet
facet normal 0.000004 0.000000 1.000000
outer loop
vertex 8.689433 8.724788 0.100000
vertex 8.687787 8.722968 0.100000
vertex 8.707111 8.707111 0.100000
endloop
endfacet
facet normal 0.000000 0.000000 1.000000
outer loop
vertex 8.689433 8.724788 0.100000
vertex 8.707111 8.707111 0.100000
vertex 8.691253 8.726434 0.100000
endloop
endfacet
facet normal -0.000004 0.000000 1.000000
outer loop
vertex 8.686323 8.720999 0.100000
vertex 8.685065 8.718895 0.100000
vertex 8.707111 8.707111 0.100000
endloop
endfacet
facet normal 0.000000 0.000000 1.000000
outer loop
vertex 8.686323 8.720999 0.100000
vertex 8.707111 8.707111 0.100000
vertex 8.687787 8.722968 0.100000
endloop
endfacet
facet normal 0.000000 0.000000 1.000000
outer loop
vertex 8.684013 8.716677 0.100000
vertex 8.683189 8.714367 0.100000
vertex 8.707111 8.707111 0.100000
endloop
endfacet
facet normal 0.000000 0.000000 1.000000
outer loop
vertex 8.684013 8.716677 0.100000
vertex 8.707111 8.707111 0.100000
vertex 8.685065 8.718895 0.100000
endloop
endfacet
facet normal 0.000000 0.000000 1.000000
outer loop
vertex 8.682591 8.711987 0.100000
vertex 8.682234 8.709559 0.100000
vertex 8.707111 8.707111 0.100000
endloop
endfacet
facet normal 0.000002 0.000000 1.000000
outer loop
vertex 8.682591 8.711987 0.100000
vertex 8.707111 8.707111 0.100000
vertex 8.683189 8.714367 0.100000
endloop
endfacet
facet normal 0.000000 0.000000 1.000000
outer loop
vertex 8.682111 8.707110 0.100000
vertex 8.682234 8.704660 0.100000
vertex 8.707111 8.707111 0.100000
endloop
endfacet
facet normal 0.000000 0.000000 1.000000
outer loop
vertex 8.682111 8.707110 0.100000
vertex 8.707111 8.707111 0.100000
vertex 8.682234 8.709559 0.100000
endloop
endfacet
facet normal 0.000000 0.000000 1.000000
outer loop
vertex 8.682591 8.702233 0.100000
vertex 8.683189 8.699854 0.100000
vertex 8.707111 8.707111 0.100000
endloop
endfacet
facet normal 0.000000 0.000000 1.000000
outer loop
vertex 8.682591 8.702233 0.100000
vertex 8.707111 8.707111 0.100000
vertex 8.682234 8.704660 0.100000
endloop
endfacet
facet normal -0.000004 0.000000 1.000000
outer loop
vertex 8.684013 8.697543 0.100000
vertex 8.685064 8.695327 0.100000
vertex 8.707111 8.707111 0.100000
endloop
endfacet
facet normal 0.000000 0.000000 1.000000
outer loop
vertex 8.684013 8.697543 0.100000
vertex 8.707111 8.707111 0.100000
vertex 8.683189 8.699854 0.100000
endloop
endfacet
facet normal 0.000000 0.000000 1.000000
outer loop
vertex 8.686323 8.693221 0.100000
vertex 8.687787 8.691253 0.100000
vertex 8.707111 8.707111 0.100000
endloop
endfacet
facet normal 0.000004 0.000000 1.000000
outer loop
vertex 8.686323 8.693221 0.100000
vertex 8.707111 8.707111 0.100000
vertex 8.685064 8.695327 0.100000
endloop
endfacet
facet normal 0.000000 0.000000 1.000000
outer loop
vertex 8.689433 8.689433 0.100000
vertex 8.691253 8.687787 0.100000
vertex 8.707111 8.707111 0.100000
endloop
endfacet
facet normal 0.000000 0.000000 1.000000
outer loop
vertex 8.689433 8.689433 0.100000
vertex 8.707111 8.707111 0.100000
vertex 8.687787 8.691253 0.100000
endloop
endfacet
facet normal 0.000000 0.000000 1.000000
outer loop
vertex 8.693221 8.686323 0.100000
vertex 8.695328 8.685065 0.100000
vertex 8.707111 8.707111 0.100000
endloop
endfacet
facet normal 0.000000 0.000000 1.000000
outer loop
vertex 8.693221 8.686323 0.100000
vertex 8.707111 8.707111 0.100000
vertex 8.691253 8.687787 0.100000
endloop
endfacet
facet normal -0.000008 0.000000 1.000000
outer loop
vertex 8.697543 8.684013 0.100000
vertex 8.699854 8.683189 0.100000
vertex 8.707111 8.707111 0.100000
endloop
endfacet
facet normal 0.000000 0.000000 1.000000
outer loop
vertex 8.697543 8.684013 0.100000
vertex 8.707111 8.707111 0.100000
vertex 8.695328 8.685065 0.100000
endloop
endfacet
facet normal 0.000000 0.000000 1.000000
outer loop
vertex 8.702233 8.682592 0.100000
vertex 8.704660 8.682234 0.100000
vertex 8.707111 8.707111 0.100000
endloop
endfacet
facet normal 0.000008 0.000000 1.000000
outer loop
vertex 8.702233 8.682592 0.100000
vertex 8.707111 8.707111 0.100000
vertex 8.699854 8.683189 0.100000
endloop
endfacet
facet normal 0.000000 0.000000 1.000000
outer loop
vertex 8.707110 8.682111 0.100000
vertex 8.709560 8.682234 0.100000
vertex 8.707111 8.707111 0.100000
endloop
endfacet
facet normal 0.000000 0.000000 1.000000
outer loop
vertex 8.707110 8.682111 0.100000
vertex 8.707111 8.707111 0.100000
vertex 8.704660 8.682234 0.100000
endloop
endfacet
facet normal -0.000008 0.000000 1.000000
outer loop
vertex 8.711988 8.682592 0.100000
vertex 8.714367 8.683189 0.100000
vertex 8.707111 8.707111 0.100000
endloop
endfacet
facet normal 0.000000 0.000000 1.000000
outer loop
vertex 8.711988 8.682592 0.100000
vertex 8.707111 8.707111 0.100000
vertex 8.709560 8.682234 0.100000
endloop
endfacet
facet normal 0.000000 0.000000 1.000000
outer loop
vertex 8.716678 8.684013 0.100000
vertex 8.718895 8.685064 0.100000
vertex 8.707111 8.707111 0.100000
endloop
endfacet
facet normal 0.000008 0.000000 1.000000
outer loop
vertex 8.716678 8.684013 0.100000
vertex 8.707111 8.707111 0.100000
vertex 8.714367 8.683189 0.100000
endloop
endfacet
facet normal 0.000000 0.000000 1.000000
outer loop
vertex 8.721000 8.686323 0.100000
vertex 8.722968 8.687787 0.100000
vertex 8.707111 8.707111 0.100000
endloop
endfacet
facet normal 0.000000 0.000000 1.000000
outer loop
vertex 8.721000 8.686323 0.100000
vertex 8.707111 8.707111 0.100000
vertex 8.718895 8.685064 0.100000
endloop
endfacet
facet normal 0.000000 0.000000 1.000000
outer loop
vertex 8.724788 8.689433 0.100000
vertex 8.726434 8.691253 0.100000
vertex 8.707111 8.707111 0.100000
endloop
endfacet
facet normal 0.000000 0.000000 1.000000
outer loop
vertex 8.724788 8.689433 0.100000
vertex 8.707111 8.707111 0.100000
vertex 8.722968 8.687787 0.100000
endloop
endfacet
facet normal 0.000000 0.000000 1.000000
outer loop
vertex 8.727897 8.693221 0.100000
vertex 8.729156 8.695328 0.100000
vertex 8.707111 8.707111 0.100000
endloop
endfacet
facet normal 0.000000 0.000000 1.000000
outer loop
vertex 8.727897 8.693221 0.100000
vertex 8.707111 8.707111 0.100000
vertex 8.726434 8.691253 0.100000
endloop
endfacet
facet normal 0.000000 0.000000 1.000000
outer loop
vertex 8.730207 8.697543 0.100000
vertex 8.731031 8.699854 0.100000
vertex 8.707111 8.707111 0.100000
endloop
endfacet
facet normal 0.000000 0.000000 1.000000
outer loop
vertex 8.730207 8.697543 0.100000
vertex 8.707111 8.707111 0.100000
vertex 8.729156 8.695328 0.100000
endloop
endfacet
facet normal 0.000000 0.000000 1.000000
outer loop
vertex 8.731630 8.702233 0.100000
vertex 8.731989 8.704660 0.100000
vertex 8.707111 8.707111 0.100000
endloop
endfacet
facet normal 0.000000 0.000000 1.000000
outer loop
vertex 8.731630 8.702233 0.100000
vertex 8.707111 8.707111 0.100000
vertex 8.731031 8.699854 0.100000
endloop
endfacet
facet normal 0.000000 0.000000 1.000000
outer loop
vertex 8.732111 8.707110 0.100000
vertex 8.731989 8.709559 0.100000
vertex 8.707111 8.707111 0.100000
endloop
endfacet
facet normal 0.000000 0.000000 1.000000
outer loop
vertex 8.732111 8.707110 0.100000
vertex 8.707111 8.707111 0.100000
vertex 8.731989 8.704660 0.100000
endloop
endfacet
facet normal -0.000002 0.000000 1.000000
outer loop
vertex 8.731630 8.711987 0.100000
vertex 8.731031 8.714367 0.100000
vertex 8.707111 8.707111 0.100000
endloop
endfacet
facet normal 0.000000 0.000000 1.000000
outer loop
vertex 8.731630 8.711987 0.100000
vertex 8.707111 8.707111 0.100000
vertex 8.731989 8.709559 0.100000
endloop
endfacet
facet normal 0.000000 0.000000 1.000000
outer loop
vertex 8.730207 8.716677 0.100000
vertex 8.729156 8.718895 0.100000
vertex 8.707111 8.707111 0.100000
endloop
endfacet
facet normal 0.000000 0.000000 1.000000
outer loop
vertex 8.730207 8.716677 0.100000
vertex 8.707111 8.707111 0.100000
vertex 8.731031 8.714367 0.100000
endloop
endfacet
facet normal 0.000000 0.000000 1.000000
outer loop
vertex 8.727897 8.720999 0.100000
vertex 8.726434 8.722968 0.100000
vertex 8.707111 8.707111 0.100000
endloop
endfacet
facet normal 0.000004 0.000000 1.000000
outer loop
vertex 8.727897 8.720999 0.100000
vertex 8.707111 8.707111 0.100000
vertex 8.729156 8.718895 0.100000
endloop
endfacet
facet normal 0.000000 0.000000 1.000000
outer loop
vertex 8.724788 8.724788 0.100000
vertex 8.722968 8.726434 0.100000
vertex 8.707111 8.707111 0.100000
endloop
endfacet
facet normal -0.000004 0.000000 1.000000
outer loop
vertex 8.724788 8.724788 0.100000
vertex 8.707111 8.707111 0.100000
vertex 8.726434 8.722968 0.100000
endloop
endfacet
facet normal 0.000000 0.000000 1.000000
outer loop
vertex 8.721000 8.727897 0.100000
vertex 8.718895 8.729156 0.100000
vertex 8.707111 8.707111 0.100000
endloop
endfacet
facet normal 0.000000 0.000000 1.000000
outer loop
vertex 8.721000 8.727897 0.100000
vertex 8.707111 8.707111 0.100000
vertex 8.722968 8.726434 0.100000
endloop
endfacet
facet normal 0.000008 0.000000 1.000000
outer loop
vertex 8.716678 8.730206 0.100000
vertex 8.714367 8.731030 0.100000
vertex 8.707111 8.707111 0.100000
endloop
endfacet
facet normal -0.000008 0.000000 1.000000
outer loop
vertex 8.716678 8.730206 0.100000
vertex 8.707111 8.707111 0.100000
vertex 8.718895 8.729156 0.100000
endloop
endfacet
facet normal -0.336774 0.941586 0.000000
outer loop
vertex 8.697544 8.730205 0.000000
vertex 8.697544 8.730205 0.050000
vertex 8.699854 8.731030 0.050000
endloop
endfacet
facet normal -0.336620 0.941641 0.000000
outer loop
vertex 8.697544 8.730205 0.000000
vertex 8.699854 8.731030 0.050000
vertex 8.699854 8.731030 0.000000
endloop
endfacet
facet normal -0.336774 0.941586 0.000000
outer loop
vertex 8.697544 8.730205 0.050000
vertex 8.697544 8.730205 0.100000
vertex 8.699854 8.731030 0.100000
endloop
endfacet
facet normal -0.336620 0.941641 0.000000
outer loop
vertex 8.697544 8.730205 0.050000
vertex 8.699854 8.731030 0.100000
vertex 8.699854 8.731030 0.050000
endloop
endfacet
facet normal -0.243244 0.969965 0.000000
outer loop
vertex 8.699854 8.731030 0.050000
vertex 8.699854 8.731030 0.100000
vertex 8.702234 8.731627 0.100000
endloop
endfacet
facet normal -0.243244 0.969965 0.000018
outer loop
vertex 8.699854 8.731030 0.050000
vertex 8.702234 8.731627 0.100000
vertex 8.702233 8.731627 0.050000
endloop
endfacet
facet normal -0.243244 0.969965 0.000000
outer loop
vertex 8.699854 8.731030 0.000000
vertex 8.699854 8.731030 0.050000
vertex 8.702233 8.731627 0.050000
endloop
endfacet
facet normal -0.243244 0.969965 -0.000018
outer loop
vertex 8.699854 8.731030 0.000000
vertex 8.702233 8.731627 0.050000
vertex 8.702234 8.731627 0.000000
endloop
endfacet
facet normal -0.146605 0.989195 0.000000
outer loop
vertex 8.702234 8.731627 0.000000
vertex 8.702233 8.731627 0.050000
vertex 8.704660 8.731987 0.050000
endloop
endfacet
facet normal -0.146605 0.989195 0.000000
outer loop
vertex 8.702234 8.731627 0.000000
vertex 8.704660 8.731987 0.050000
vertex 8.704660 8.731987 0.000000
endloop
endfacet
facet normal -0.146605 0.989195 0.000000
outer loop
vertex 8.702233 8.731627 0.050000
vertex 8.702234 8.731627 0.100000
vertex 8.704660 8.731987 0.100000
endloop
endfacet
facet normal -0.146605 0.989195 0.000000
outer loop
vertex 8.702233 8.731627 0.050000
vertex 8.704660 8.731987 0.100000
vertex 8.704660 8.731987 0.050000
endloop
endfacet
facet normal -0.049404 0.998779 0.000000
outer loop
vertex 8.704660 8.731987 0.050000
vertex 8.704660 8.731987 0.100000
vertex 8.707110 8.732108 0.100000
endloop
endfacet
facet normal -0.049356 0.998781 0.000000
outer loop
vertex 8.704660 8.731987 0.050000
vertex 8.707110 8.732108 0.100000
vertex 8.707110 8.732108 0.050000
endloop
endfacet
facet normal -0.049404 0.998779 0.000000
outer loop
vertex 8.704660 8.731987 0.000000
vertex 8.704660 8.731987 0.050000
vertex 8.707110 8.732108 0.050000
endloop
endfacet
facet normal -0.049356 0.998781 0.000000
outer loop
vertex 8.704660 8.731987 0.000000
vertex 8.707110 8.732108 0.050000
vertex 8.707110 8.732108 0.000000
endloop
endfacet
facet normal 0.000000 0.000000 -1.000000
outer loop
vertex 8.707110 8.732111 0.000000
vertex 8.709560 8.731987 0.000000
vertex 8.707111 8.707111 0.000000
endloop
endfacet
facet normal 0.000000 0.000000 -1.000000
outer loop
vertex 8.707110 8.732111 0.000000
vertex 8.707111 8.707111 0.000000
vertex 8.704660 8.731987 0.000000
endloop
endfacet
facet normal 0.000000 0.000000 -1.000000
outer loop
vertex 8.711988 8.731630 0.000000
vertex 8.714367 8.731030 0.000000
vertex 8.707111 8.707111 0.000000
endloop
endfacet
facet normal 0.000000 0.000000 -1.000000
outer loop
vertex 8.711988 8.731630 0.000000
vertex 8.707111 8.707111 0.000000
vertex 8.709560 8.731987 0.000000
endloop
endfacet
facet normal 0.000000 0.000000 -1.000000
outer loop
vertex 8.716678 8.730206 0.000000
vertex 8.718895 8.729156 0.000000
vertex 8.707111 8.707111 0.000000
endloop
endfacet
facet normal 0.000000 0.000000 -1.000000
outer loop
vertex 8.716678 8.730206 0.000000
vertex 8.707111 8.707111 0.000000
vertex 8.714367 8.731030 0.000000
endloop
endfacet
facet normal 0.000000 0.000000 -1.000000
outer loop
vertex 8.721000 8.727897 0.000000
vertex 8.722968 8.726434 0.000000
vertex 8.707111 8.707111 0.000000
endloop
endfacet
facet normal 0.000000 0.000000 -1.000000
outer loop
vertex 8.721000 8.727897 0.000000
vertex 8.707111 8.707111 0.000000
vertex 8.718895 8.729156 0.000000
endloop
endfacet
facet normal 0.000000 0.000000 -1.000000
outer loop
vertex 8.724788 8.724788 0.000000
vertex 8.726434 8.722968 0.000000
vertex 8.707111 8.707111 0.000000
endloop
endfacet
facet normal 0.000000 0.000000 -1.000000
outer loop
vertex 8.724788 8.724788 0.000000
vertex 8.707111 8.707111 0.000000
vertex 8.722968 8.726434 0.000000
endloop
endfacet
facet normal 0.000000 0.000000 -1.000000
outer loop
vertex 8.727897 8.720999 0.000000
vertex 8.729156 8.718895 0.000000
vertex 8.707111 8.707111 0.000000
endloop
endfacet
facet normal 0.000000 0.000000 -1.000000
outer loop
vertex 8.727897 8.720999 0.000000
vertex 8.707111 8.707111 0.000000
vertex 8.726434 8.722968 0.000000
endloop
endfacet
facet normal 0.000000 0.000000 -1.000000
outer loop
vertex 8.730207 8.716677 0.000000
vertex 8.731031 8.714367 0.000000
vertex 8.707111 8.707111 0.000000
endloop
endfacet
facet normal 0.000000 0.000000 -1.000000
outer loop
vertex 8.730207 8.716677 0.000000
vertex 8.707111 8.707111 0.000000
vertex 8.729156 8.718895 0.000000
endloop
endfacet
facet normal 0.000000 0.000000 -1.000000
outer loop
vertex 8.731630 8.711987 0.000000
vertex 8.731989 8.709559 0.000000
vertex 8.707111 8.707111 0.000000
endloop
endfacet
facet normal 0.000000 0.000000 -1.000000
outer loop
vertex 8.731630 8.711987 0.000000
vertex 8.707111 8.707111 0.000000
vertex 8.731031 8.714367 0.000000
endloop
endfacet
facet normal 0.000000 0.000000 -1.000000
outer loop
vertex 8.732111 8.707110 0.000000
vertex 8.731989 8.704660 0.000000
vertex 8.707111 8.707111 0.000000
endloop
endfacet
facet normal 0.000000 0.000000 -1.000000
outer loop
vertex 8.732111 8.707110 0.000000
vertex 8.707111 8.707111 0.000000
vertex 8.731989 8.709559 0.000000
endloop
endfacet
facet normal 0.000000 0.000000 -1.000000
outer loop
vertex 8.731630 8.702233 0.000000
vertex 8.731031 8.699854 0.000000
vertex 8.707111 8.707111 0.000000
endloop
endfacet
facet normal 0.000000 0.000000 -1.000000
outer loop
vertex 8.731630 8.702233 0.000000
vertex 8.707111 8.707111 0.000000
vertex 8.731989 8.704660 0.000000
endloop
endfacet
facet normal 0.000000 0.000000 -1.000000
outer loop
vertex 8.730207 8.697543 0.000000
vertex 8.729156 8.695327 0.000000
vertex 8.707111 8.707111 0.000000
endloop
endfacet
facet normal 0.000000 0.000000 -1.000000
outer loop
vertex 8.730207 8.697543 0.000000
vertex 8.707111 8.707111 0.000000
vertex 8.731031 8.699854 0.000000
endloop
endfacet
facet normal 0.000000 0.000000 -1.000000
outer loop
vertex 8.727897 8.693221 0.000000
vertex 8.726434 8.691253 0.000000
vertex 8.707111 8.707111 0.000000
endloop
endfacet
facet normal 0.000000 0.000000 -1.000000
outer loop
vertex 8.727897 8.693221 0.000000
vertex 8.707111 8.707111 0.000000
vertex 8.729156 8.695327 0.000000
endloop
endfacet
facet normal 0.000000 0.000000 -1.000000
outer loop
vertex 8.724788 8.689433 0.000000
vertex 8.722968 8.687787 0.000000
vertex 8.707111 8.707111 0.000000
endloop
endfacet
facet normal 0.000000 0.000000 -1.000000
outer loop
vertex 8.724788 8.689433 0.000000
vertex 8.707111 8.707111 0.000000
vertex 8.726434 8.691253 0.000000
endloop
endfacet
facet normal 0.000000 0.000000 -1.000000
outer loop
vertex 8.721000 8.686323 0.000000
vertex 8.718895 8.685064 0.000000
vertex 8.707111 8.707111 0.000000
endloop
endfacet
facet normal 0.000000 0.000000 -1.000000
outer loop
vertex 8.721000 8.686323 0.000000
vertex 8.707111 8.707111 0.000000
vertex 8.722968 8.687787 0.000000
endloop
endfacet
facet normal 0.000000 0.000000 -1.000000
outer loop
vertex 8.716678 8.684013 0.000000
vertex 8.714367 8.683189 0.000000
vertex 8.707111 8.707111 0.000000
endloop
endfacet
facet normal 0.000000 0.000000 -1.000000
outer loop
vertex 8.716678 8.684013 0.000000
vertex 8.707111 8.707111 0.000000
vertex 8.718895 8.685064 0.000000
endloop
endfacet
facet normal 0.000000 0.000000 -1.000000
outer loop
vertex 8.711988 8.682592 0.000000
vertex 8.709560 8.682234 0.000000
vertex 8.707111 8.707111 0.000000
endloop
endfacet
facet normal 0.000000 0.000000 -1.000000
outer loop
vertex 8.711988 8.682592 0.000000
vertex 8.707111 8.707111 0.000000
vertex 8.714367 8.683189 0.000000
endloop
endfacet
facet normal 0.000000 0.000000 -1.000000
outer loop
vertex 8.707110 8.682111 0.000000
vertex 8.704660 8.682234 0.000000
vertex 8.707111 8.707111 0.000000
endloop
endfacet
facet normal 0.000000 0.000000 -1.000000
outer loop
vertex 8.707110 8.682111 0.000000
vertex 8.707111 8.707111 0.000000
vertex 8.709560 8.682234 0.000000
endloop
endfacet
facet normal 0.000000 0.000000 -1.000000
outer loop
vertex 8.702233 8.682592 0.000000
vertex 8.699854 8.683189 0.000000
vertex 8.707111 8.707111 0.000000
endloop
endfacet
facet normal 0.000000 0.000000 -1.000000
outer loop
vertex 8.702233 8.682592 0.000000
vertex 8.707111 8.707111 0.000000
vertex 8.704660 8.682234 0.000000
endloop
endfacet
facet normal 0.000000 0.000000 -1.000000
outer loop
vertex 8.697543 8.684013 0.000000
vertex 8.695327 8.685064 0.000000
vertex 8.707111 8.707111 0.000000
endloop
endfacet
facet normal 0.000000 0.000000 -1.000000
outer loop
vertex 8.697543 8.684013 0.000000
vertex 8.707111 8.707111 0.000000
vertex 8.699854 8.683189 0.000000
endloop
endfacet
facet normal 0.000000 0.000000 -1.000000
outer loop
vertex 8.693221 8.686323 0.000000
vertex 8.691253 8.687787 0.000000
vertex 8.707111 8.707111 0.000000
endloop
endfacet
facet normal 0.000000 0.000000 -1.000000
outer loop
vertex 8.693221 8.686323 0.000000
vertex 8.707111 8.707111 0.000000
vertex 8.695327 8.685064 0.000000
endloop
endfacet
facet normal 0.000000 0.000000 -1.000000
outer loop
vertex 8.689433 8.689433 0.000000
vertex 8.687787 8.691253 0.000000
vertex 8.707111 8.707111 0.000000
endloop
endfacet
facet normal 0.000000 0.000000 -1.000000
outer loop
vertex 8.689433 8.689433 0.000000
vertex 8.707111 8.707111 0.000000
vertex 8.691253 8.687787 0.000000
endloop
endfacet
facet normal 0.000000 0.000000 -1.000000
outer loop
vertex 8.686323 8.693221 0.000000
vertex 8.685064 8.695328 0.000000
vertex 8.707111 8.707111 0.000000
endloop
endfacet
facet normal 0.000000 0.000000 -1.000000
outer loop
vertex 8.686323 8.693221 0.000000
vertex 8.707111 8.707111 0.000000
vertex 8.687787 8.691253 0.000000
endloop
endfacet
facet normal 0.000000 0.000000 -1.000000
outer loop
vertex 8.684013 8.697543 0.000000
vertex 8.683189 8.699854 0.000000
vertex 8.707111 8.707111 0.000000
endloop
endfacet
facet normal 0.000000 0.000000 -1.000000
outer loop
vertex 8.684013 8.697543 0.000000
vertex 8.707111 8.707111 0.000000
vertex 8.685064 8.695328 0.000000
endloop
endfacet
facet normal 0.000000 0.000000 -1.000000
outer loop
vertex 8.682591 8.702233 0.000000
vertex 8.682234 8.704660 0.000000
vertex 8.707111 8.707111 0.000000
endloop
endfacet
facet normal 0.000000 0.000000 -1.000000
outer loop
vertex 8.682591 8.702233 0.000000
vertex 8.707111 8.707111 0.000000
vertex 8.683189 8.699854 0.000000
endloop
endfacet
facet normal 0.000000 0.000000 -1.000000
outer loop
vertex 8.682111 8.707110 0.000000
vertex 8.682234 8.709559 0.000000
vertex 8.707111 8.707111 0.000000
endloop
endfacet
facet normal 0.000000 0.000000 -1.000000
outer loop
vertex 8.682111 8.707110 0.000000
vertex 8.707111 8.707111 0.000000
vertex 8.682234 8.704660 0.000000
endloop
endfacet
facet normal 0.000000 0.000000 -1.000000
outer loop
vertex 8.682591 8.711987 0.000000
vertex 8.683189 8.714367 0.000000
vertex 8.707111 8.707111 0.000000
endloop
endfacet
facet normal 0.000000 0.000000 -1.000000
outer loop
vertex 8.682591 8.711987 0.000000
vertex 8.707111 8.707111 0.000000
vertex 8.682234 8.709559 0.000000
endloop
endfacet
facet normal 0.000000 0.000000 -1.000000
outer loop
vertex 8.684013 8.716677 0.000000
vertex 8.685064 8.718895 0.000000
vertex 8.707111 8.707111 0.000000
endloop
endfacet
facet normal 0.000000 0.000000 -1.000000
outer loop
vertex 8.684013 8.716677 0.000000
vertex 8.707111 8.707111 0.000000
vertex 8.683189 8.714367 0.000000
endloop
endfacet
facet normal 0.000000 0.000000 -1.000000
outer loop
vertex 8.686323 8.720999 0.000000
vertex 8.687787 8.722968 0.000000
vertex 8.707111 8.707111 0.000000
endloop
endfacet
facet normal 0.000000 0.000000 -1.000000
outer loop
vertex 8.686323 8.720999 0.000000
vertex 8.707111 8.707111 0.000000
vertex 8.685064 8.718895 0.000000
endloop
endfacet
facet normal 0.000000 0.000000 -1.000000
outer loop
vertex 8.689433 8.724788 0.000000
vertex 8.691253 8.726434 0.000000
vertex 8.707111 8.707111 0.000000
endloop
endfacet
facet normal 0.000000 0.000000 -1.000000
outer loop
vertex 8.689433 8.724788 0.000000
vertex 8.707111 8.707111 0.000000
vertex 8.687787 8.722968 0.000000
endloop
endfacet
facet normal 0.000000 0.000000 -1.000000
outer loop
vertex 8.693221 8.727897 0.000000
vertex 8.695328 8.729156 0.000000
vertex 8.707111 8.707111 0.000000
endloop
endfacet
facet normal 0.000000 0.000000 -1.000000
outer loop
vertex 8.693221 8.727897 0.000000
vertex 8.707111 8.707111 0.000000
vertex 8.691253 8.726434 0.000000
endloop
endfacet
facet normal 0.000000 0.000000 -1.000000
outer loop
vertex 8.697543 8.730206 0.000000
vertex 8.699854 8.731030 0.000000
vertex 8.707111 8.707111 0.000000
endloop
endfacet
facet normal 0.000000 0.000000 -1.000000
outer loop
vertex 8.697543 8.730206 0.000000
vertex 8.707111 8.707111 0.000000
vertex 8.695328 8.729156 0.000000
endloop
endfacet
facet normal 0.000000 0.000000 -1.000000
outer loop
vertex 8.702233 8.731630 0.000000
vertex 8.704660 8.731987 0.000000
vertex 8.707111 8.707111 0.000000
endloop
endfacet
facet normal 0.000000 0.000000 -1.000000
outer loop
vertex 8.702233 8.731630 0.000000
vertex 8.707111 8.707111 0.000000
vertex 8.699854 8.731030 0.000000
endloop
endfacet
endsolid Exported from Blender-2.82 (sub 7)
