solid Exported from Blender-2.82 (sub 7)
facet normal 0.049162 0.998791 0.000000
outer loop
vertex 7.076120 7.642318 0.000000
vertex 7.076120 7.642318 0.050000
vertex 7.078570 7.642197 0.050000
endloop
endfacet
facet normal 0.049186 0.998790 0.000000
outer loop
vertex 7.076120 7.642318 0.000000
vertex 7.078570 7.642197 0.050000
vertex 7.078570 7.642197 0.000000
endloop
endfacet
facet normal 0.049162 0.998791 0.000000
outer loop
vertex 7.076120 7.642318 0.050000
vertex 7.076120 7.642318 0.100000
vertex 7.078570 7.642197 0.100000
endloop
endfacet
facet normal 0.049186 0.998790 0.000000
outer loop
vertex 7.076120 7.642318 0.050000
vertex 7.078570 7.642197 0.100000
vertex 7.078570 7.642197 0.050000
endloop
endfacet
facet normal 0.146725 0.989177 0.000000
outer loop
vertex 7.078570 7.642197 0.050000
vertex 7.078570 7.642197 0.100000
vertex 7.080997 7.641837 0.100000
endloop
endfacet
facet normal 0.146725 0.989177 0.000000
outer loop
vertex 7.078570 7.642197 0.050000
vertex 7.080997 7.641837 0.100000
vertex 7.080997 7.641837 0.050000
endloop
endfacet
facet normal 0.146725 0.989177 0.000000
outer loop
vertex 7.078570 7.642197 0.000000
vertex 7.078570 7.642197 0.050000
vertex 7.080997 7.641837 0.050000
endloop
endfacet
facet normal 0.146725 0.989177 0.000000
outer loop
vertex 7.078570 7.642197 0.000000
vertex 7.080997 7.641837 0.050000
vertex 7.080997 7.641837 0.000000
endloop
endfacet
facet normal 0.243359 0.969936 0.000000
outer loop
vertex 7.080997 7.641837 0.000000
vertex 7.080997 7.641837 0.050000
vertex 7.083376 7.641240 0.050000
endloop
endfacet
facet normal 0.243359 0.969936 -0.000010
outer loop
vertex 7.080997 7.641837 0.000000
vertex 7.083376 7.641240 0.050000
vertex 7.083377 7.641240 0.000000
endloop
endfacet
facet normal 0.243359 0.969936 0.000000
outer loop
vertex 7.080997 7.641837 0.050000
vertex 7.080997 7.641837 0.100000
vertex 7.083377 7.641240 0.100000
endloop
endfacet
facet normal 0.243359 0.969936 0.000010
outer loop
vertex 7.080997 7.641837 0.050000
vertex 7.083377 7.641240 0.100000
vertex 7.083376 7.641240 0.050000
endloop
endfacet
facet normal 0.336928 0.941531 0.000000
outer loop
vertex 7.083376 7.641240 0.050000
vertex 7.083377 7.641240 0.100000
vertex 7.085685 7.640414 0.100000
endloop
endfacet
facet normal 0.336774 0.941586 0.000000
outer loop
vertex 7.083376 7.641240 0.050000
vertex 7.085685 7.640414 0.100000
vertex 7.085685 7.640414 0.050000
endloop
endfacet
facet normal 0.336774 0.941586 0.000000
outer loop
vertex 7.083377 7.641240 0.000000
vertex 7.083376 7.641240 0.050000
vertex 7.085685 7.640414 0.050000
endloop
endfacet
facet normal 0.336928 0.941531 0.000000
outer loop
vertex 7.083377 7.641240 0.000000
vertex 7.085685 7.640414 0.050000
vertex 7.085685 7.640414 0.000000
endloop
endfacet
facet normal 0.427163 0.904175 0.000000
outer loop
vertex 7.085685 7.640414 0.000000
vertex 7.085685 7.640414 0.050000
vertex 7.087904 7.639366 0.050000
endloop
endfacet
facet normal 0.426975 0.904263 0.000000
outer loop
vertex 7.085685 7.640414 0.000000
vertex 7.087904 7.639366 0.050000
vertex 7.087904 7.639366 0.000000
endloop
endfacet
facet normal 0.427163 0.904175 0.000000
outer loop
vertex 7.085685 7.640414 0.050000
vertex 7.085685 7.640414 0.100000
vertex 7.087904 7.639366 0.100000
endloop
endfacet
facet normal 0.426975 0.904263 0.000000
outer loop
vertex 7.085685 7.640414 0.050000
vertex 7.087904 7.639366 0.100000
vertex 7.087904 7.639366 0.050000
endloop
endfacet
facet normal 0.514639 0.857407 0.000000
outer loop
vertex 7.087904 7.639366 0.050000
vertex 7.087904 7.639366 0.100000
vertex 7.090007 7.638104 0.100000
endloop
endfacet
facet normal 0.514639 0.857407 0.000000
outer loop
vertex 7.087904 7.639366 0.050000
vertex 7.090007 7.638104 0.100000
vertex 7.090007 7.638104 0.050000
endloop
endfacet
facet normal 0.514639 0.857407 0.000000
outer loop
vertex 7.087904 7.639366 0.000000
vertex 7.087904 7.639366 0.050000
vertex 7.090007 7.638104 0.050000
endloop
endfacet
facet normal 0.514639 0.857407 0.000000
outer loop
vertex 7.087904 7.639366 0.000000
vertex 7.090007 7.638104 0.050000
vertex 7.090007 7.638104 0.000000
endloop
endfacet
facet normal 0.595841 0.803102 0.000000
outer loop
vertex 7.090007 7.638104 0.000000
vertex 7.090007 7.638104 0.050000
vertex 7.091978 7.636642 0.050000
endloop
endfacet
facet normal 0.595608 0.803275 0.000000
outer loop
vertex 7.090007 7.638104 0.000000
vertex 7.091978 7.636642 0.050000
vertex 7.091978 7.636642 0.000000
endloop
endfacet
facet normal 0.595841 0.803102 0.000000
outer loop
vertex 7.090007 7.638104 0.050000
vertex 7.090007 7.638104 0.100000
vertex 7.091978 7.636642 0.100000
endloop
endfacet
facet normal 0.595608 0.803275 0.000000
outer loop
vertex 7.090007 7.638104 0.050000
vertex 7.091978 7.636642 0.100000
vertex 7.091978 7.636642 0.050000
endloop
endfacet
facet normal 0.671646 0.740872 0.000000
outer loop
vertex 7.091978 7.636642 0.050000
vertex 7.091978 7.636642 0.100000
vertex 7.093795 7.634995 0.100000
endloop
endfacet
facet normal 0.671646 0.740872 0.000000
outer loop
vertex 7.091978 7.636642 0.050000
vertex 7.093795 7.634995 0.100000
vertex 7.093795 7.634995 0.050000
endloop
endfacet
facet normal 0.671646 0.740872 0.000000
outer loop
vertex 7.091978 7.636642 0.000000
vertex 7.091978 7.636642 0.050000
vertex 7.093795 7.634995 0.050000
endloop
endfacet
facet normal 0.671646 0.740872 0.000000
outer loop
vertex 7.091978 7.636642 0.000000
vertex 7.093795 7.634995 0.050000
vertex 7.093795 7.634995 0.000000
endloop
endfacet
facet normal 0.740863 0.671656 0.000000
outer loop
vertex 7.093795 7.634995 0.000000
vertex 7.093795 7.634995 0.050000
vertex 7.095443 7.633178 0.050000
endloop
endfacet
facet normal 0.740621 0.671923 0.000000
outer loop
vertex 7.093795 7.634995 0.000000
vertex 7.095443 7.633178 0.050000
vertex 7.095443 7.633178 0.000000
endloop
endfacet
facet normal 0.740863 0.671656 0.000000
outer loop
vertex 7.093795 7.634995 0.050000
vertex 7.093795 7.634995 0.100000
vertex 7.095443 7.633178 0.100000
endloop
endfacet
facet normal 0.740621 0.671923 0.000000
outer loop
vertex 7.093795 7.634995 0.050000
vertex 7.095443 7.633178 0.100000
vertex 7.095443 7.633178 0.050000
endloop
endfacet
facet normal 0.803463 0.595355 0.000000
outer loop
vertex 7.095443 7.633178 0.050000
vertex 7.095443 7.633178 0.100000
vertex 7.096904 7.631207 0.100000
endloop
endfacet
facet normal 0.803230 0.595669 0.000000
outer loop
vertex 7.095443 7.633178 0.050000
vertex 7.096904 7.631207 0.100000
vertex 7.096904 7.631207 0.050000
endloop
endfacet
facet normal 0.803463 0.595355 0.000000
outer loop
vertex 7.095443 7.633178 0.000000
vertex 7.095443 7.633178 0.050000
vertex 7.096904 7.631207 0.050000
endloop
endfacet
facet normal 0.803230 0.595669 0.000000
outer loop
vertex 7.095443 7.633178 0.000000
vertex 7.096904 7.631207 0.050000
vertex 7.096904 7.631207 0.000000
endloop
endfacet
facet normal 0.857364 0.514710 0.000000
outer loop
vertex 7.096904 7.631207 0.000000
vertex 7.096904 7.631207 0.050000
vertex 7.098166 7.629104 0.050000
endloop
endfacet
facet normal 0.857364 0.514710 0.000000
outer loop
vertex 7.096904 7.631207 0.000000
vertex 7.098166 7.629104 0.050000
vertex 7.098166 7.629104 0.000000
endloop
endfacet
facet normal 0.857364 0.514710 0.000000
outer loop
vertex 7.096904 7.631207 0.050000
vertex 7.096904 7.631207 0.100000
vertex 7.098166 7.629104 0.100000
endloop
endfacet
facet normal 0.857364 0.514710 0.000000
outer loop
vertex 7.096904 7.631207 0.050000
vertex 7.098166 7.629104 0.100000
vertex 7.098166 7.629104 0.050000
endloop
endfacet
facet normal 0.904230 0.427046 0.000000
outer loop
vertex 7.098166 7.629104 0.050000
vertex 7.098166 7.629104 0.100000
vertex 7.099215 7.626885 0.100000
endloop
endfacet
facet normal 0.904042 0.427443 0.000000
outer loop
vertex 7.098166 7.629104 0.050000
vertex 7.099215 7.626885 0.100000
vertex 7.099215 7.626885 0.050000
endloop
endfacet
facet normal 0.904230 0.427046 0.000000
outer loop
vertex 7.098166 7.629104 0.000000
vertex 7.098166 7.629104 0.050000
vertex 7.099215 7.626885 0.050000
endloop
endfacet
facet normal 0.904042 0.427443 0.000000
outer loop
vertex 7.098166 7.629104 0.000000
vertex 7.099215 7.626885 0.050000
vertex 7.099215 7.626885 0.000000
endloop
endfacet
facet normal 0.941522 0.336952 0.000000
outer loop
vertex 7.099215 7.626885 0.000000
vertex 7.099215 7.626885 0.050000
vertex 7.100041 7.624577 0.050000
endloop
endfacet
facet normal 0.941522 0.336952 0.000000
outer loop
vertex 7.099215 7.626885 0.000000
vertex 7.100041 7.624577 0.050000
vertex 7.100041 7.624577 0.000000
endloop
endfacet
facet normal 0.941522 0.336952 0.000000
outer loop
vertex 7.099215 7.626885 0.050000
vertex 7.099215 7.626885 0.100000
vertex 7.100041 7.624577 0.100000
endloop
endfacet
facet normal 0.941522 0.336952 0.000000
outer loop
vertex 7.099215 7.626885 0.050000
vertex 7.100041 7.624577 0.100000
vertex 7.100041 7.624577 0.050000
endloop
endfacet
facet normal 0.969925 0.243404 0.000000
outer loop
vertex 7.100041 7.624577 0.050000
vertex 7.100041 7.624577 0.100000
vertex 7.100638 7.622197 0.100000
endloop
endfacet
facet normal 0.969925 0.243404 0.000000
outer loop
vertex 7.100041 7.624577 0.050000
vertex 7.100638 7.622197 0.100000
vertex 7.100638 7.622197 0.050000
endloop
endfacet
facet normal 0.969925 0.243404 0.000000
outer loop
vertex 7.100041 7.624577 0.000000
vertex 7.100041 7.624577 0.050000
vertex 7.100638 7.622197 0.050000
endloop
endfacet
facet normal 0.969925 0.243404 0.000000
outer loop
vertex 7.100041 7.624577 0.000000
vertex 7.100638 7.622197 0.050000
vertex 7.100638 7.622197 0.000000
endloop
endfacet
facet normal 0.989256 0.146193 0.000000
outer loop
vertex 7.100638 7.622197 0.000000
vertex 7.100638 7.622197 0.050000
vertex 7.100998 7.619769 0.050000
endloop
endfacet
facet normal 0.989115 0.147143 0.000000
outer loop
vertex 7.100638 7.622197 0.000000
vertex 7.100998 7.619769 0.050000
vertex 7.100998 7.619769 0.000000
endloop
endfacet
facet normal 0.989256 0.146193 0.000000
outer loop
vertex 7.100638 7.622197 0.050000
vertex 7.100638 7.622197 0.100000
vertex 7.100998 7.619769 0.100000
endloop
endfacet
facet normal 0.989115 0.147143 0.000000
outer loop
vertex 7.100638 7.622197 0.050000
vertex 7.100998 7.619769 0.100000
vertex 7.100998 7.619769 0.050000
endloop
endfacet
facet normal 0.998794 0.049103 0.000000
outer loop
vertex 7.100998 7.619769 0.050000
vertex 7.100998 7.619769 0.100000
vertex 7.101118 7.617320 0.100000
endloop
endfacet
facet normal 0.998817 0.048618 0.000000
outer loop
vertex 7.100998 7.619769 0.050000
vertex 7.101118 7.617320 0.100000
vertex 7.101118 7.617320 0.050000
endloop
endfacet
facet normal 0.998794 0.049103 0.000000
outer loop
vertex 7.100998 7.619769 0.000000
vertex 7.100998 7.619769 0.050000
vertex 7.101118 7.617320 0.050000
endloop
endfacet
facet normal 0.998817 0.048618 0.000000
outer loop
vertex 7.100998 7.619769 0.000000
vertex 7.101118 7.617320 0.050000
vertex 7.101118 7.617320 0.000000
endloop
endfacet
facet normal 0.998818 -0.048600 0.000000
outer loop
vertex 7.101118 7.617320 0.000000
vertex 7.101118 7.617320 0.050000
vertex 7.100998 7.614870 0.050000
endloop
endfacet
facet normal 0.998795 -0.049084 0.000000
outer loop
vertex 7.101118 7.617320 0.000000
vertex 7.100998 7.614870 0.050000
vertex 7.100998 7.614870 0.000000
endloop
endfacet
facet normal 0.998818 -0.048600 0.000000
outer loop
vertex 7.101118 7.617320 0.050000
vertex 7.101118 7.617320 0.100000
vertex 7.100998 7.614870 0.100000
endloop
endfacet
facet normal 0.998795 -0.049084 0.000000
outer loop
vertex 7.101118 7.617320 0.050000
vertex 7.100998 7.614870 0.100000
vertex 7.100998 7.614870 0.050000
endloop
endfacet
facet normal 0.989098 -0.147257 0.000000
outer loop
vertex 7.100998 7.614870 0.050000
vertex 7.100998 7.614870 0.100000
vertex 7.100638 7.612444 0.100000
endloop
endfacet
facet normal 0.989239 -0.146306 0.000000
outer loop
vertex 7.100998 7.614870 0.050000
vertex 7.100638 7.612444 0.100000
vertex 7.100638 7.612444 0.050000
endloop
endfacet
facet normal 0.989098 -0.147257 0.000000
outer loop
vertex 7.100998 7.614870 0.000000
vertex 7.100998 7.614870 0.050000
vertex 7.100638 7.612444 0.050000
endloop
endfacet
facet normal 0.989239 -0.146306 0.000000
outer loop
vertex 7.100998 7.614870 0.000000
vertex 7.100638 7.612444 0.050000
vertex 7.100638 7.612444 0.000000
endloop
endfacet
facet normal 0.969925 -0.243404 0.000000
outer loop
vertex 7.100638 7.612444 0.000000
vertex 7.100638 7.612444 0.050000
vertex 7.100041 7.610064 0.050000
endloop
endfacet
facet normal 0.969925 -0.243404 0.000000
outer loop
vertex 7.100638 7.612444 0.000000
vertex 7.100041 7.610064 0.050000
vertex 7.100041 7.610064 0.000000
endloop
endfacet
facet normal 0.969925 -0.243404 0.000000
outer loop
vertex 7.100638 7.612444 0.050000
vertex 7.100638 7.612444 0.100000
vertex 7.100041 7.610064 0.100000
endloop
endfacet
facet normal 0.969925 -0.243404 0.000000
outer loop
vertex 7.100638 7.612444 0.050000
vertex 7.100041 7.610064 0.100000
vertex 7.100041 7.610064 0.050000
endloop
endfacet
facet normal 0.941588 -0.336767 0.000000
outer loop
vertex 7.100041 7.610064 0.050000
vertex 7.100041 7.610064 0.100000
vertex 7.099215 7.607754 0.100000
endloop
endfacet
facet normal 0.941588 -0.336767 0.000000
outer loop
vertex 7.100041 7.610064 0.050000
vertex 7.099215 7.607754 0.100000
vertex 7.099215 7.607754 0.050000
endloop
endfacet
facet normal 0.941588 -0.336767 0.000000
outer loop
vertex 7.100041 7.610064 0.000000
vertex 7.100041 7.610064 0.050000
vertex 7.099215 7.607754 0.050000
endloop
endfacet
facet normal 0.941588 -0.336767 0.000000
outer loop
vertex 7.100041 7.610064 0.000000
vertex 7.099215 7.607754 0.050000
vertex 7.099215 7.607754 0.000000
endloop
endfacet
facet normal 0.904007 -0.427518 0.000000
outer loop
vertex 7.099215 7.607754 0.000000
vertex 7.099215 7.607754 0.050000
vertex 7.098166 7.605536 0.050000
endloop
endfacet
facet normal 0.904194 -0.427121 0.000000
outer loop
vertex 7.099215 7.607754 0.000000
vertex 7.098166 7.605536 0.050000
vertex 7.098166 7.605536 0.000000
endloop
endfacet
facet normal 0.904007 -0.427518 0.000000
outer loop
vertex 7.099215 7.607754 0.050000
vertex 7.099215 7.607754 0.100000
vertex 7.098166 7.605536 0.100000
endloop
endfacet
facet normal 0.904194 -0.427121 0.000000
outer loop
vertex 7.099215 7.607754 0.050000
vertex 7.098166 7.605536 0.100000
vertex 7.098166 7.605536 0.050000
endloop
endfacet
facet normal 0.857467 -0.514539 0.000000
outer loop
vertex 7.098166 7.605536 0.050000
vertex 7.098166 7.605536 0.100000
vertex 7.096904 7.603432 0.100000
endloop
endfacet
facet normal 0.857467 -0.514539 0.000000
outer loop
vertex 7.098166 7.605536 0.050000
vertex 7.096904 7.603432 0.100000
vertex 7.096904 7.603432 0.050000
endloop
endfacet
facet normal 0.857467 -0.514539 0.000000
outer loop
vertex 7.098166 7.605536 0.000000
vertex 7.098166 7.605536 0.050000
vertex 7.096904 7.603432 0.050000
endloop
endfacet
facet normal 0.857467 -0.514539 0.000000
outer loop
vertex 7.098166 7.605536 0.000000
vertex 7.096904 7.603432 0.050000
vertex 7.096904 7.603432 0.000000
endloop
endfacet
facet normal 0.803161 -0.595762 0.000000
outer loop
vertex 7.096904 7.603432 0.000000
vertex 7.096904 7.603432 0.050000
vertex 7.095443 7.601462 0.050000
endloop
endfacet
facet normal 0.803394 -0.595448 0.000000
outer loop
vertex 7.096904 7.603432 0.000000
vertex 7.095443 7.601462 0.050000
vertex 7.095443 7.601462 0.000000
endloop
endfacet
facet normal 0.803161 -0.595762 0.000000
outer loop
vertex 7.096904 7.603432 0.050000
vertex 7.096904 7.603432 0.100000
vertex 7.095443 7.601462 0.100000
endloop
endfacet
facet normal 0.803394 -0.595448 0.000000
outer loop
vertex 7.096904 7.603432 0.050000
vertex 7.095443 7.601462 0.100000
vertex 7.095443 7.601462 0.050000
endloop
endfacet
facet normal 0.740709 -0.671826 0.000000
outer loop
vertex 7.095443 7.601462 0.050000
vertex 7.095443 7.601462 0.100000
vertex 7.093795 7.599644 0.100000
endloop
endfacet
facet normal 0.740951 -0.671559 0.000000
outer loop
vertex 7.095443 7.601462 0.050000
vertex 7.093795 7.599644 0.100000
vertex 7.093795 7.599644 0.050000
endloop
endfacet
facet normal 0.740709 -0.671826 0.000000
outer loop
vertex 7.095443 7.601462 0.000000
vertex 7.095443 7.601462 0.050000
vertex 7.093795 7.599644 0.050000
endloop
endfacet
facet normal 0.740951 -0.671559 0.000000
outer loop
vertex 7.095443 7.601462 0.000000
vertex 7.093795 7.599644 0.050000
vertex 7.093795 7.599644 0.000000
endloop
endfacet
facet normal 0.671646 -0.740872 0.000000
outer loop
vertex 7.093795 7.599644 0.000000
vertex 7.093795 7.599644 0.050000
vertex 7.091978 7.597997 0.050000
endloop
endfacet
facet normal 0.671646 -0.740872 0.000000
outer loop
vertex 7.093795 7.599644 0.000000
vertex 7.091978 7.597997 0.050000
vertex 7.091978 7.597997 0.000000
endloop
endfacet
facet normal 0.671646 -0.740872 0.000000
outer loop
vertex 7.093795 7.599644 0.050000
vertex 7.093795 7.599644 0.100000
vertex 7.091978 7.597997 0.100000
endloop
endfacet
facet normal 0.671646 -0.740872 0.000000
outer loop
vertex 7.093795 7.599644 0.050000
vertex 7.091978 7.597997 0.100000
vertex 7.091978 7.597997 0.050000
endloop
endfacet
facet normal 0.595358 -0.803461 0.000000
outer loop
vertex 7.091978 7.597997 0.050000
vertex 7.091978 7.597997 0.100000
vertex 7.090007 7.596536 0.100000
endloop
endfacet
facet normal 0.595590 -0.803289 0.000000
outer loop
vertex 7.091978 7.597997 0.050000
vertex 7.090007 7.596536 0.100000
vertex 7.090007 7.596536 0.050000
endloop
endfacet
facet normal 0.595358 -0.803461 0.000000
outer loop
vertex 7.091978 7.597997 0.000000
vertex 7.091978 7.597997 0.050000
vertex 7.090007 7.596536 0.050000
endloop
endfacet
facet normal 0.595590 -0.803289 0.000000
outer loop
vertex 7.091978 7.597997 0.000000
vertex 7.090007 7.596536 0.050000
vertex 7.090007 7.596536 0.000000
endloop
endfacet
facet normal 0.514639 -0.857407 0.000000
outer loop
vertex 7.090007 7.596536 0.000000
vertex 7.090007 7.596536 0.050000
vertex 7.087904 7.595274 0.050000
endloop
endfacet
facet normal 0.514353 -0.857579 0.000000
outer loop
vertex 7.090007 7.596536 0.000000
vertex 7.087904 7.595274 0.050000
vertex 7.087904 7.595275 0.000000
endloop
endfacet
facet normal 0.514353 -0.857579 0.000000
outer loop
vertex 7.090007 7.596536 0.050000
vertex 7.090007 7.596536 0.100000
vertex 7.087904 7.595275 0.100000
endloop
endfacet
facet normal 0.514639 -0.857407 0.000000
outer loop
vertex 7.090007 7.596536 0.050000
vertex 7.087904 7.595275 0.100000
vertex 7.087904 7.595274 0.050000
endloop
endfacet
facet normal 0.427611 -0.903963 0.000000
outer loop
vertex 7.087904 7.595274 0.050000
vertex 7.087904 7.595275 0.100000
vertex 7.085685 7.594225 0.100000
endloop
endfacet
facet normal 0.427481 -0.904025 0.000000
outer loop
vertex 7.087904 7.595274 0.050000
vertex 7.085685 7.594225 0.100000
vertex 7.085685 7.594225 0.050000
endloop
endfacet
facet normal 0.427293 -0.904113 0.000000
outer loop
vertex 7.087904 7.595275 0.000000
vertex 7.087904 7.595274 0.050000
vertex 7.085685 7.594225 0.050000
endloop
endfacet
facet normal 0.427798 -0.903874 0.000000
outer loop
vertex 7.087904 7.595275 0.000000
vertex 7.085685 7.594225 0.050000
vertex 7.085685 7.594225 0.000000
endloop
endfacet
facet normal 0.336928 -0.941531 0.000000
outer loop
vertex 7.085685 7.594225 0.000000
vertex 7.085685 7.594225 0.050000
vertex 7.083377 7.593399 0.050000
endloop
endfacet
facet normal 0.336928 -0.941531 0.000000
outer loop
vertex 7.085685 7.594225 0.000000
vertex 7.083377 7.593399 0.050000
vertex 7.083377 7.593399 0.000000
endloop
endfacet
facet normal 0.336928 -0.941531 0.000000
outer loop
vertex 7.085685 7.594225 0.050000
vertex 7.085685 7.594225 0.100000
vertex 7.083377 7.593399 0.100000
endloop
endfacet
facet normal 0.336928 -0.941531 0.000000
outer loop
vertex 7.085685 7.594225 0.050000
vertex 7.083377 7.593399 0.100000
vertex 7.083377 7.593399 0.050000
endloop
endfacet
facet normal 0.242878 -0.970057 0.000000
outer loop
vertex 7.083377 7.593399 0.050000
vertex 7.083377 7.593399 0.100000
vertex 7.080997 7.592803 0.100000
endloop
endfacet
facet normal 0.242993 -0.970028 0.000000
outer loop
vertex 7.083377 7.593399 0.050000
vertex 7.080997 7.592803 0.100000
vertex 7.080997 7.592803 0.050000
endloop
endfacet
facet normal 0.242878 -0.970057 0.000000
outer loop
vertex 7.083377 7.593399 0.000000
vertex 7.083377 7.593399 0.050000
vertex 7.080997 7.592803 0.050000
endloop
endfacet
facet normal 0.242993 -0.970028 0.000000
outer loop
vertex 7.083377 7.593399 0.000000
vertex 7.080997 7.592803 0.050000
vertex 7.080997 7.592803 0.000000
endloop
endfacet
facet normal 0.146725 -0.989177 0.000000
outer loop
vertex 7.080997 7.592803 0.000000
vertex 7.080997 7.592803 0.050000
vertex 7.078570 7.592443 0.050000
endloop
endfacet
facet normal 0.146725 -0.989177 0.000000
outer loop
vertex 7.080997 7.592803 0.000000
vertex 7.078570 7.592443 0.050000
vertex 7.078570 7.592443 0.000000
endloop
endfacet
facet normal 0.146725 -0.989177 0.000000
outer loop
vertex 7.080997 7.592803 0.050000
vertex 7.080997 7.592803 0.100000
vertex 7.078570 7.592443 0.100000
endloop
endfacet
facet normal 0.146725 -0.989177 0.000000
outer loop
vertex 7.080997 7.592803 0.050000
vertex 7.078570 7.592443 0.100000
vertex 7.078570 7.592443 0.050000
endloop
endfacet
facet normal 0.048798 -0.998809 0.000000
outer loop
vertex 7.078570 7.592443 0.050000
vertex 7.078570 7.592443 0.100000
vertex 7.076120 7.592323 0.100000
endloop
endfacet
facet normal 0.048775 -0.998810 0.000000
outer loop
vertex 7.078570 7.592443 0.050000
vertex 7.076120 7.592323 0.100000
vertex 7.076120 7.592323 0.050000
endloop
endfacet
facet normal 0.048798 -0.998809 0.000000
outer loop
vertex 7.078570 7.592443 0.000000
vertex 7.078570 7.592443 0.050000
vertex 7.076120 7.592323 0.050000
endloop
endfacet
facet normal 0.048775 -0.998810 0.000000
outer loop
vertex 7.078570 7.592443 0.000000
vertex 7.076120 7.592323 0.050000
vertex 7.076120 7.592323 0.000000
endloop
endfacet
facet normal -0.048798 -0.998809 0.000000
outer loop
vertex 7.076120 7.592323 0.000000
vertex 7.076120 7.592323 0.050000
vertex 7.073670 7.592443 0.050000
endloop
endfacet
facet normal -0.048798 -0.998809 0.000000
outer loop
vertex 7.076120 7.592323 0.000000
vertex 7.073670 7.592443 0.050000
vertex 7.073670 7.592443 0.000000
endloop
endfacet
facet normal -0.048798 -0.998809 0.000000
outer loop
vertex 7.076120 7.592323 0.050000
vertex 7.076120 7.592323 0.100000
vertex 7.073670 7.592443 0.100000
endloop
endfacet
facet normal -0.048798 -0.998809 0.000000
outer loop
vertex 7.076120 7.592323 0.050000
vertex 7.073670 7.592443 0.100000
vertex 7.073670 7.592443 0.050000
endloop
endfacet
facet normal -0.146795 -0.989167 0.000000
outer loop
vertex 7.073670 7.592443 0.050000
vertex 7.073670 7.592443 0.100000
vertex 7.071244 7.592803 0.100000
endloop
endfacet
facet normal -0.146795 -0.989167 0.000000
outer loop
vertex 7.073670 7.592443 0.050000
vertex 7.071244 7.592803 0.100000
vertex 7.071244 7.592803 0.050000
endloop
endfacet
facet normal -0.146795 -0.989167 0.000000
outer loop
vertex 7.073670 7.592443 0.000000
vertex 7.073670 7.592443 0.050000
vertex 7.071244 7.592803 0.050000
endloop
endfacet
facet normal -0.146795 -0.989167 0.000000
outer loop
vertex 7.073670 7.592443 0.000000
vertex 7.071244 7.592803 0.050000
vertex 7.071244 7.592803 0.000000
endloop
endfacet
facet normal -0.242993 -0.970028 0.000000
outer loop
vertex 7.071244 7.592803 0.000000
vertex 7.071244 7.592803 0.050000
vertex 7.068864 7.593399 0.050000
endloop
endfacet
facet normal -0.242878 -0.970057 0.000000
outer loop
vertex 7.071244 7.592803 0.000000
vertex 7.068864 7.593399 0.050000
vertex 7.068864 7.593399 0.000000
endloop
endfacet
facet normal -0.242993 -0.970028 0.000000
outer loop
vertex 7.071244 7.592803 0.050000
vertex 7.071244 7.592803 0.100000
vertex 7.068864 7.593399 0.100000
endloop
endfacet
facet normal -0.242878 -0.970057 0.000000
outer loop
vertex 7.071244 7.592803 0.050000
vertex 7.068864 7.593399 0.100000
vertex 7.068864 7.593399 0.050000
endloop
endfacet
facet normal -0.336964 -0.941518 0.000000
outer loop
vertex 7.068864 7.593399 0.050000
vertex 7.068864 7.593399 0.100000
vertex 7.066554 7.594226 0.100000
endloop
endfacet
facet normal -0.337118 -0.941462 0.000000
outer loop
vertex 7.068864 7.593399 0.050000
vertex 7.066554 7.594226 0.100000
vertex 7.066554 7.594226 0.050000
endloop
endfacet
facet normal -0.336964 -0.941518 0.000000
outer loop
vertex 7.068864 7.593399 0.000000
vertex 7.068864 7.593399 0.050000
vertex 7.066554 7.594226 0.050000
endloop
endfacet
facet normal -0.337118 -0.941462 0.000000
outer loop
vertex 7.068864 7.593399 0.000000
vertex 7.066554 7.594226 0.050000
vertex 7.066554 7.594226 0.000000
endloop
endfacet
facet normal -0.427163 -0.904175 0.000000
outer loop
vertex 7.066554 7.594226 0.000000
vertex 7.066554 7.594226 0.050000
vertex 7.064336 7.595274 0.050000
endloop
endfacet
facet normal -0.427481 -0.904025 0.000000
outer loop
vertex 7.066554 7.594226 0.000000
vertex 7.064336 7.595274 0.050000
vertex 7.064336 7.595275 0.000000
endloop
endfacet
facet normal -0.427481 -0.904025 0.000000
outer loop
vertex 7.066554 7.594226 0.050000
vertex 7.066554 7.594226 0.100000
vertex 7.064336 7.595275 0.100000
endloop
endfacet
facet normal -0.427163 -0.904175 0.000000
outer loop
vertex 7.066554 7.594226 0.050000
vertex 7.064336 7.595275 0.100000
vertex 7.064336 7.595274 0.050000
endloop
endfacet
facet normal -0.514138 -0.857707 0.000000
outer loop
vertex 7.064336 7.595274 0.050000
vertex 7.064336 7.595275 0.100000
vertex 7.062232 7.596536 0.100000
endloop
endfacet
facet normal -0.514424 -0.857536 0.000000
outer loop
vertex 7.064336 7.595274 0.050000
vertex 7.062232 7.596536 0.100000
vertex 7.062232 7.596536 0.050000
endloop
endfacet
facet normal -0.514424 -0.857536 0.000000
outer loop
vertex 7.064336 7.595275 0.000000
vertex 7.064336 7.595274 0.050000
vertex 7.062232 7.596536 0.050000
endloop
endfacet
facet normal -0.514138 -0.857707 0.000000
outer loop
vertex 7.064336 7.595275 0.000000
vertex 7.062232 7.596536 0.050000
vertex 7.062232 7.596536 0.000000
endloop
endfacet
facet normal -0.595823 -0.803116 0.000000
outer loop
vertex 7.062232 7.596536 0.000000
vertex 7.062232 7.596536 0.050000
vertex 7.060262 7.597997 0.050000
endloop
endfacet
facet normal -0.595590 -0.803289 0.000000
outer loop
vertex 7.062232 7.596536 0.000000
vertex 7.060262 7.597997 0.050000
vertex 7.060262 7.597997 0.000000
endloop
endfacet
facet normal -0.595823 -0.803116 0.000000
outer loop
vertex 7.062232 7.596536 0.050000
vertex 7.062232 7.596536 0.100000
vertex 7.060262 7.597997 0.100000
endloop
endfacet
facet normal -0.595590 -0.803289 0.000000
outer loop
vertex 7.062232 7.596536 0.050000
vertex 7.060262 7.597997 0.100000
vertex 7.060262 7.597997 0.050000
endloop
endfacet
facet normal -0.671404 -0.741091 0.000000
outer loop
vertex 7.060262 7.597997 0.050000
vertex 7.060262 7.597997 0.100000
vertex 7.058444 7.599644 0.100000
endloop
endfacet
facet normal -0.671404 -0.741091 0.000000
outer loop
vertex 7.060262 7.597997 0.050000
vertex 7.058444 7.599644 0.100000
vertex 7.058444 7.599644 0.050000
endloop
endfacet
facet normal -0.671404 -0.741091 0.000000
outer loop
vertex 7.060262 7.597997 0.000000
vertex 7.060262 7.597997 0.050000
vertex 7.058444 7.599644 0.050000
endloop
endfacet
facet normal -0.671404 -0.741091 0.000000
outer loop
vertex 7.060262 7.597997 0.000000
vertex 7.058444 7.599644 0.050000
vertex 7.058444 7.599644 0.000000
endloop
endfacet
facet normal -0.741193 -0.671293 0.000000
outer loop
vertex 7.058444 7.599644 0.000000
vertex 7.058444 7.599644 0.050000
vertex 7.056797 7.601462 0.050000
endloop
endfacet
facet normal -0.740951 -0.671559 0.000000
outer loop
vertex 7.058444 7.599644 0.000000
vertex 7.056797 7.601462 0.050000
vertex 7.056797 7.601462 0.000000
endloop
endfacet
facet normal -0.741193 -0.671293 0.000000
outer loop
vertex 7.058444 7.599644 0.050000
vertex 7.058444 7.599644 0.100000
vertex 7.056797 7.601462 0.100000
endloop
endfacet
facet normal -0.740951 -0.671559 0.000000
outer loop
vertex 7.058444 7.599644 0.050000
vertex 7.056797 7.601462 0.100000
vertex 7.056797 7.601462 0.050000
endloop
endfacet
facet normal -0.803161 -0.595762 0.000000
outer loop
vertex 7.056797 7.601462 0.050000
vertex 7.056797 7.601462 0.100000
vertex 7.055336 7.603432 0.100000
endloop
endfacet
facet normal -0.803531 -0.595262 0.000000
outer loop
vertex 7.056797 7.601462 0.050000
vertex 7.055336 7.603432 0.100000
vertex 7.055336 7.603433 0.050000
endloop
endfacet
facet normal -0.803299 -0.595576 0.000000
outer loop
vertex 7.056797 7.601462 0.000000
vertex 7.056797 7.601462 0.050000
vertex 7.055336 7.603433 0.050000
endloop
endfacet
facet normal -0.803393 -0.595448 0.000000
outer loop
vertex 7.056797 7.601462 0.000000
vertex 7.055336 7.603433 0.050000
vertex 7.055336 7.603432 0.000000
endloop
endfacet
facet normal -0.857364 -0.514710 0.000000
outer loop
vertex 7.055336 7.603432 0.000000
vertex 7.055336 7.603433 0.050000
vertex 7.054074 7.605536 0.050000
endloop
endfacet
facet normal -0.857784 -0.514010 -0.000016
outer loop
vertex 7.055336 7.603432 0.000000
vertex 7.054074 7.605536 0.050000
vertex 7.054075 7.605537 0.000000
endloop
endfacet
facet normal -0.857784 -0.514010 -0.000015
outer loop
vertex 7.055336 7.603433 0.050000
vertex 7.055336 7.603432 0.100000
vertex 7.054075 7.605537 0.100000
endloop
endfacet
facet normal -0.857364 -0.514710 0.000031
outer loop
vertex 7.055336 7.603433 0.050000
vertex 7.054075 7.605537 0.100000
vertex 7.054074 7.605536 0.050000
endloop
endfacet
facet normal -0.903748 -0.428066 0.000030
outer loop
vertex 7.054074 7.605536 0.050000
vertex 7.054075 7.605537 0.100000
vertex 7.053025 7.607754 0.100000
endloop
endfacet
facet normal -0.904007 -0.427518 0.000000
outer loop
vertex 7.054074 7.605536 0.050000
vertex 7.053025 7.607754 0.100000
vertex 7.053025 7.607754 0.050000
endloop
endfacet
facet normal -0.904007 -0.427518 -0.000030
outer loop
vertex 7.054075 7.605537 0.000000
vertex 7.054074 7.605536 0.050000
vertex 7.053025 7.607754 0.050000
endloop
endfacet
facet normal -0.903748 -0.428065 0.000000
outer loop
vertex 7.054075 7.605537 0.000000
vertex 7.053025 7.607754 0.050000
vertex 7.053025 7.607754 0.000000
endloop
endfacet
facet normal -0.941588 -0.336767 0.000000
outer loop
vertex 7.053025 7.607754 0.000000
vertex 7.053025 7.607754 0.050000
vertex 7.052199 7.610064 0.050000
endloop
endfacet
facet normal -0.941742 -0.336336 0.000000
outer loop
vertex 7.053025 7.607754 0.000000
vertex 7.052199 7.610064 0.050000
vertex 7.052199 7.610064 0.000000
endloop
endfacet
facet normal -0.941588 -0.336767 0.000000
outer loop
vertex 7.053025 7.607754 0.050000
vertex 7.053025 7.607754 0.100000
vertex 7.052199 7.610064 0.100000
endloop
endfacet
facet normal -0.941742 -0.336336 0.000000
outer loop
vertex 7.053025 7.607754 0.050000
vertex 7.052199 7.610064 0.100000
vertex 7.052199 7.610064 0.050000
endloop
endfacet
facet normal -0.970040 -0.242947 0.000000
outer loop
vertex 7.052199 7.610064 0.050000
vertex 7.052199 7.610064 0.100000
vertex 7.051603 7.612444 0.100000
endloop
endfacet
facet normal -0.970017 -0.243039 0.000000
outer loop
vertex 7.052199 7.610064 0.050000
vertex 7.051603 7.612444 0.100000
vertex 7.051603 7.612443 0.050000
endloop
endfacet
facet normal -0.970017 -0.243039 0.000000
outer loop
vertex 7.052199 7.610064 0.000000
vertex 7.052199 7.610064 0.050000
vertex 7.051603 7.612443 0.050000
endloop
endfacet
facet normal -0.970039 -0.242947 0.000000
outer loop
vertex 7.052199 7.610064 0.000000
vertex 7.051603 7.612443 0.050000
vertex 7.051603 7.612444 0.000000
endloop
endfacet
facet normal -0.989177 -0.146725 -0.000004
outer loop
vertex 7.051603 7.612444 0.000000
vertex 7.051603 7.612443 0.050000
vertex 7.051243 7.614870 0.050000
endloop
endfacet
facet normal -0.989169 -0.146781 0.000000
outer loop
vertex 7.051603 7.612444 0.000000
vertex 7.051243 7.614870 0.050000
vertex 7.051243 7.614870 0.000000
endloop
endfacet
facet normal -0.989169 -0.146781 0.000004
outer loop
vertex 7.051603 7.612443 0.050000
vertex 7.051603 7.612444 0.100000
vertex 7.051243 7.614870 0.100000
endloop
endfacet
facet normal -0.989177 -0.146725 0.000000
outer loop
vertex 7.051603 7.612443 0.050000
vertex 7.051243 7.614870 0.100000
vertex 7.051243 7.614870 0.050000
endloop
endfacet
facet normal -0.998795 -0.049084 0.000000
outer loop
vertex 7.051243 7.614870 0.050000
vertex 7.051243 7.614870 0.100000
vertex 7.051123 7.617320 0.100000
endloop
endfacet
facet normal -0.998795 -0.049084 0.000000
outer loop
vertex 7.051243 7.614870 0.050000
vertex 7.051123 7.617320 0.100000
vertex 7.051123 7.617320 0.050000
endloop
endfacet
facet normal -0.998795 -0.049084 0.000000
outer loop
vertex 7.051243 7.614870 0.000000
vertex 7.051243 7.614870 0.050000
vertex 7.051123 7.617320 0.050000
endloop
endfacet
facet normal -0.998795 -0.049084 0.000000
outer loop
vertex 7.051243 7.614870 0.000000
vertex 7.051123 7.617320 0.050000
vertex 7.051123 7.617320 0.000000
endloop
endfacet
facet normal -0.998794 0.049103 0.000000
outer loop
vertex 7.051123 7.617320 0.000000
vertex 7.051123 7.617320 0.050000
vertex 7.051243 7.619769 0.050000
endloop
endfacet
facet normal -0.998794 0.049103 0.000000
outer loop
vertex 7.051123 7.617320 0.000000
vertex 7.051243 7.619769 0.050000
vertex 7.051243 7.619769 0.000000
endloop
endfacet
facet normal -0.998794 0.049103 0.000000
outer loop
vertex 7.051123 7.617320 0.050000
vertex 7.051123 7.617320 0.100000
vertex 7.051243 7.619769 0.100000
endloop
endfacet
facet normal -0.998794 0.049103 0.000000
outer loop
vertex 7.051123 7.617320 0.050000
vertex 7.051243 7.619769 0.100000
vertex 7.051243 7.619769 0.050000
endloop
endfacet
facet normal -0.989186 0.146668 0.000000
outer loop
vertex 7.051243 7.619769 0.050000
vertex 7.051243 7.619769 0.100000
vertex 7.051603 7.622197 0.100000
endloop
endfacet
facet normal -0.989186 0.146668 0.000000
outer loop
vertex 7.051243 7.619769 0.050000
vertex 7.051603 7.622197 0.100000
vertex 7.051603 7.622197 0.050000
endloop
endfacet
facet normal -0.989186 0.146668 0.000000
outer loop
vertex 7.051243 7.619769 0.000000
vertex 7.051243 7.619769 0.050000
vertex 7.051603 7.622197 0.050000
endloop
endfacet
facet normal -0.989186 0.146668 0.000000
outer loop
vertex 7.051243 7.619769 0.000000
vertex 7.051603 7.622197 0.050000
vertex 7.051603 7.622197 0.000000
endloop
endfacet
facet normal -0.970017 0.243039 0.000000
outer loop
vertex 7.051603 7.622197 0.000000
vertex 7.051603 7.622197 0.050000
vertex 7.052199 7.624576 0.050000
endloop
endfacet
facet normal -0.970039 0.242947 0.000008
outer loop
vertex 7.051603 7.622197 0.000000
vertex 7.052199 7.624576 0.050000
vertex 7.052199 7.624577 0.000000
endloop
endfacet
facet normal -0.970040 0.242947 0.000000
outer loop
vertex 7.051603 7.622197 0.050000
vertex 7.051603 7.622197 0.100000
vertex 7.052199 7.624577 0.100000
endloop
endfacet
facet normal -0.970017 0.243039 -0.000008
outer loop
vertex 7.051603 7.622197 0.050000
vertex 7.052199 7.624577 0.100000
vertex 7.052199 7.624576 0.050000
endloop
endfacet
facet normal -0.941522 0.336952 -0.000015
outer loop
vertex 7.052199 7.624576 0.050000
vertex 7.052199 7.624577 0.100000
vertex 7.053026 7.626885 0.100000
endloop
endfacet
facet normal -0.941412 0.337260 0.000000
outer loop
vertex 7.052199 7.624576 0.050000
vertex 7.053026 7.626885 0.100000
vertex 7.053026 7.626885 0.050000
endloop
endfacet
facet normal -0.941566 0.336829 0.000015
outer loop
vertex 7.052199 7.624577 0.000000
vertex 7.052199 7.624576 0.050000
vertex 7.053026 7.626885 0.050000
endloop
endfacet
facet normal -0.941367 0.337383 0.000000
outer loop
vertex 7.052199 7.624577 0.000000
vertex 7.053026 7.626885 0.050000
vertex 7.053026 7.626885 0.000000
endloop
endfacet
facet normal -0.904230 0.427046 0.000000
outer loop
vertex 7.053026 7.626885 0.000000
vertex 7.053026 7.626885 0.050000
vertex 7.054074 7.629104 0.050000
endloop
endfacet
facet normal -0.904042 0.427443 -0.000018
outer loop
vertex 7.053026 7.626885 0.000000
vertex 7.054074 7.629104 0.050000
vertex 7.054075 7.629104 0.000000
endloop
endfacet
facet normal -0.904042 0.427443 0.000000
outer loop
vertex 7.053026 7.626885 0.050000
vertex 7.053026 7.626885 0.100000
vertex 7.054075 7.629104 0.100000
endloop
endfacet
facet normal -0.904230 0.427046 0.000018
outer loop
vertex 7.053026 7.626885 0.050000
vertex 7.054075 7.629104 0.100000
vertex 7.054074 7.629104 0.050000
endloop
endfacet
facet normal -0.857579 0.514353 0.000015
outer loop
vertex 7.054074 7.629104 0.050000
vertex 7.054075 7.629104 0.100000
vertex 7.055336 7.631207 0.100000
endloop
endfacet
facet normal -0.857364 0.514710 0.000000
outer loop
vertex 7.054074 7.629104 0.050000
vertex 7.055336 7.631207 0.100000
vertex 7.055336 7.631207 0.050000
endloop
endfacet
facet normal -0.857364 0.514710 -0.000015
outer loop
vertex 7.054075 7.629104 0.000000
vertex 7.054074 7.629104 0.050000
vertex 7.055336 7.631207 0.050000
endloop
endfacet
facet normal -0.857579 0.514353 0.000000
outer loop
vertex 7.054075 7.629104 0.000000
vertex 7.055336 7.631207 0.050000
vertex 7.055336 7.631207 0.000000
endloop
endfacet
facet normal -0.803463 0.595355 0.000000
outer loop
vertex 7.055336 7.631207 0.000000
vertex 7.055336 7.631207 0.050000
vertex 7.056797 7.633178 0.050000
endloop
endfacet
facet normal -0.803230 0.595669 0.000000
outer loop
vertex 7.055336 7.631207 0.000000
vertex 7.056797 7.633178 0.050000
vertex 7.056797 7.633178 0.000000
endloop
endfacet
facet normal -0.803463 0.595355 0.000000
outer loop
vertex 7.055336 7.631207 0.050000
vertex 7.055336 7.631207 0.100000
vertex 7.056797 7.633178 0.100000
endloop
endfacet
facet normal -0.803230 0.595669 0.000000
outer loop
vertex 7.055336 7.631207 0.050000
vertex 7.056797 7.633178 0.100000
vertex 7.056797 7.633178 0.050000
endloop
endfacet
facet normal -0.740863 0.671656 0.000000
outer loop
vertex 7.056797 7.633178 0.050000
vertex 7.056797 7.633178 0.100000
vertex 7.058444 7.634995 0.100000
endloop
endfacet
facet normal -0.741105 0.671389 0.000000
outer loop
vertex 7.056797 7.633178 0.050000
vertex 7.058444 7.634995 0.100000
vertex 7.058444 7.634995 0.050000
endloop
endfacet
facet normal -0.740863 0.671656 0.000000
outer loop
vertex 7.056797 7.633178 0.000000
vertex 7.056797 7.633178 0.050000
vertex 7.058444 7.634995 0.050000
endloop
endfacet
facet normal -0.741105 0.671389 0.000000
outer loop
vertex 7.056797 7.633178 0.000000
vertex 7.058444 7.634995 0.050000
vertex 7.058444 7.634995 0.000000
endloop
endfacet
facet normal -0.671404 0.741091 0.000000
outer loop
vertex 7.058444 7.634995 0.000000
vertex 7.058444 7.634995 0.050000
vertex 7.060262 7.636642 0.050000
endloop
endfacet
facet normal -0.671724 0.740801 0.000030
outer loop
vertex 7.058444 7.634995 0.000000
vertex 7.060262 7.636642 0.050000
vertex 7.060262 7.636643 0.000000
endloop
endfacet
facet normal -0.671724 0.740801 0.000000
outer loop
vertex 7.058444 7.634995 0.050000
vertex 7.058444 7.634995 0.100000
vertex 7.060262 7.636643 0.100000
endloop
endfacet
facet normal -0.671405 0.741091 -0.000030
outer loop
vertex 7.058444 7.634995 0.050000
vertex 7.060262 7.636643 0.100000
vertex 7.060262 7.636642 0.050000
endloop
endfacet
facet normal -0.595465 0.803382 -0.000030
outer loop
vertex 7.060262 7.636642 0.050000
vertex 7.060262 7.636643 0.100000
vertex 7.062232 7.638104 0.100000
endloop
endfacet
facet normal -0.595841 0.803102 -0.000006
outer loop
vertex 7.060262 7.636642 0.050000
vertex 7.062232 7.638104 0.100000
vertex 7.062233 7.638104 0.050000
endloop
endfacet
facet normal -0.595841 0.803102 0.000030
outer loop
vertex 7.060262 7.636643 0.000000
vertex 7.060262 7.636642 0.050000
vertex 7.062233 7.638104 0.050000
endloop
endfacet
facet normal -0.595465 0.803382 0.000006
outer loop
vertex 7.060262 7.636643 0.000000
vertex 7.062233 7.638104 0.050000
vertex 7.062232 7.638104 0.000000
endloop
endfacet
facet normal -0.514639 0.857407 0.000000
outer loop
vertex 7.062232 7.638104 0.000000
vertex 7.062233 7.638104 0.050000
vertex 7.064336 7.639366 0.050000
endloop
endfacet
facet normal -0.514210 0.857664 -0.000011
outer loop
vertex 7.062232 7.638104 0.000000
vertex 7.064336 7.639366 0.050000
vertex 7.064337 7.639366 0.000000
endloop
endfacet
facet normal -0.514210 0.857664 0.000000
outer loop
vertex 7.062233 7.638104 0.050000
vertex 7.062232 7.638104 0.100000
vertex 7.064337 7.639366 0.100000
endloop
endfacet
facet normal -0.514639 0.857407 0.000011
outer loop
vertex 7.062233 7.638104 0.050000
vertex 7.064337 7.639366 0.100000
vertex 7.064336 7.639366 0.050000
endloop
endfacet
facet normal -0.427351 0.904086 0.000030
outer loop
vertex 7.064336 7.639366 0.050000
vertex 7.064337 7.639366 0.100000
vertex 7.066554 7.640414 0.100000
endloop
endfacet
facet normal -0.427163 0.904175 0.000000
outer loop
vertex 7.064336 7.639366 0.050000
vertex 7.066554 7.640414 0.100000
vertex 7.066554 7.640414 0.050000
endloop
endfacet
facet normal -0.427163 0.904175 -0.000030
outer loop
vertex 7.064337 7.639366 0.000000
vertex 7.064336 7.639366 0.050000
vertex 7.066554 7.640414 0.050000
endloop
endfacet
facet normal -0.427351 0.904086 0.000000
outer loop
vertex 7.064337 7.639366 0.000000
vertex 7.066554 7.640414 0.050000
vertex 7.066554 7.640414 0.000000
endloop
endfacet
facet normal 0.000000 0.000000 1.000000
outer loop
vertex 7.080998 7.641840 0.100000
vertex 7.078570 7.642197 0.100000
vertex 7.076121 7.617321 0.100000
endloop
endfacet
facet normal 0.000000 0.000000 1.000000
outer loop
vertex 7.080998 7.641840 0.100000
vertex 7.076121 7.617321 0.100000
vertex 7.083377 7.641240 0.100000
endloop
endfacet
facet normal -0.000008 0.000000 1.000000
outer loop
vertex 7.076120 7.642320 0.100000
vertex 7.073670 7.642197 0.100000
vertex 7.076121 7.617321 0.100000
endloop
endfacet
facet normal 0.000008 0.000000 1.000000
outer loop
vertex 7.076120 7.642320 0.100000
vertex 7.076121 7.617321 0.100000
vertex 7.078570 7.642197 0.100000
endloop
endfacet
facet normal 0.000000 0.000000 1.000000
outer loop
vertex 7.071243 7.641840 0.100000
vertex 7.068864 7.641240 0.100000
vertex 7.076121 7.617321 0.100000
endloop
endfacet
facet normal 0.000000 0.000000 1.000000
outer loop
vertex 7.071243 7.641840 0.100000
vertex 7.076121 7.617321 0.100000
vertex 7.073670 7.642197 0.100000
endloop
endfacet
facet normal 0.000008 0.000000 1.000000
outer loop
vertex 7.066553 7.640416 0.100000
vertex 7.064336 7.639366 0.100000
vertex 7.076121 7.617321 0.100000
endloop
endfacet
facet normal -0.000008 0.000000 1.000000
outer loop
vertex 7.066553 7.640416 0.100000
vertex 7.076121 7.617321 0.100000
vertex 7.068864 7.641240 0.100000
endloop
endfacet
facet normal 0.000000 0.000000 1.000000
outer loop
vertex 7.062231 7.638106 0.100000
vertex 7.060262 7.636643 0.100000
vertex 7.076121 7.617321 0.100000
endloop
endfacet
facet normal 0.000000 0.000000 1.000000
outer loop
vertex 7.062231 7.638106 0.100000
vertex 7.076121 7.617321 0.100000
vertex 7.064336 7.639366 0.100000
endloop
endfacet
facet normal 0.000004 0.000000 1.000000
outer loop
vertex 7.058443 7.634997 0.100000
vertex 7.056797 7.633178 0.100000
vertex 7.076121 7.617321 0.100000
endloop
endfacet
facet normal 0.000000 0.000000 1.000000
outer loop
vertex 7.058443 7.634997 0.100000
vertex 7.076121 7.617321 0.100000
vertex 7.060262 7.636643 0.100000
endloop
endfacet
facet normal 0.000000 0.000000 1.000000
outer loop
vertex 7.055333 7.631208 0.100000
vertex 7.054075 7.629104 0.100000
vertex 7.076121 7.617321 0.100000
endloop
endfacet
facet normal 0.000000 0.000000 1.000000
outer loop
vertex 7.055333 7.631208 0.100000
vertex 7.076121 7.617321 0.100000
vertex 7.056797 7.633178 0.100000
endloop
endfacet
facet normal 0.000002 0.000000 1.000000
outer loop
vertex 7.053023 7.626886 0.100000
vertex 7.052199 7.624577 0.100000
vertex 7.076121 7.617321 0.100000
endloop
endfacet
facet normal 0.000000 0.000000 1.000000
outer loop
vertex 7.053023 7.626886 0.100000
vertex 7.076121 7.617321 0.100000
vertex 7.054075 7.629104 0.100000
endloop
endfacet
facet normal 0.000000 0.000000 1.000000
outer loop
vertex 7.051601 7.622197 0.100000
vertex 7.051243 7.619769 0.100000
vertex 7.076121 7.617321 0.100000
endloop
endfacet
facet normal 0.000000 0.000000 1.000000
outer loop
vertex 7.051601 7.622197 0.100000
vertex 7.076121 7.617321 0.100000
vertex 7.052199 7.624577 0.100000
endloop
endfacet
facet normal 0.000000 0.000000 1.000000
outer loop
vertex 7.051120 7.617320 0.100000
vertex 7.051243 7.614870 0.100000
vertex 7.076121 7.617321 0.100000
endloop
endfacet
facet normal 0.000000 0.000000 1.000000
outer loop
vertex 7.051120 7.617320 0.100000
vertex 7.076121 7.617321 0.100000
vertex 7.051243 7.619769 0.100000
endloop
endfacet
facet normal 0.000000 0.000000 1.000000
outer loop
vertex 7.051601 7.612443 0.100000
vertex 7.052199 7.610064 0.100000
vertex 7.076121 7.617321 0.100000
endloop
endfacet
facet normal 0.000000 0.000000 1.000000
outer loop
vertex 7.051601 7.612443 0.100000
vertex 7.076121 7.617321 0.100000
vertex 7.051243 7.614870 0.100000
endloop
endfacet
facet normal 0.000000 0.000000 1.000000
outer loop
vertex 7.053023 7.607753 0.100000
vertex 7.054074 7.605536 0.100000
vertex 7.076121 7.617321 0.100000
endloop
endfacet
facet normal 0.000002 0.000000 1.000000
outer loop
vertex 7.053023 7.607753 0.100000
vertex 7.076121 7.617321 0.100000
vertex 7.052199 7.610064 0.100000
endloop
endfacet
facet normal 0.000000 0.000000 1.000000
outer loop
vertex 7.055333 7.603431 0.100000
vertex 7.056797 7.601462 0.100000
vertex 7.076121 7.617321 0.100000
endloop
endfacet
facet normal -0.000004 0.000000 1.000000
outer loop
vertex 7.055333 7.603431 0.100000
vertex 7.076121 7.617321 0.100000
vertex 7.054074 7.605536 0.100000
endloop
endfacet
facet normal 0.000000 0.000000 1.000000
outer loop
vertex 7.058443 7.599643 0.100000
vertex 7.060262 7.597997 0.100000
vertex 7.076121 7.617321 0.100000
endloop
endfacet
facet normal 0.000000 0.000000 1.000000
outer loop
vertex 7.058443 7.599643 0.100000
vertex 7.076121 7.617321 0.100000
vertex 7.056797 7.601462 0.100000
endloop
endfacet
facet normal 0.000000 0.000000 1.000000
outer loop
vertex 7.062231 7.596533 0.100000
vertex 7.064337 7.595275 0.100000
vertex 7.076121 7.617321 0.100000
endloop
endfacet
facet normal 0.000000 0.000000 1.000000
outer loop
vertex 7.062231 7.596533 0.100000
vertex 7.076121 7.617321 0.100000
vertex 7.060262 7.597997 0.100000
endloop
endfacet
facet normal -0.000008 0.000000 1.000000
outer loop
vertex 7.066553 7.594223 0.100000
vertex 7.068864 7.593399 0.100000
vertex 7.076121 7.617321 0.100000
endloop
endfacet
facet normal 0.000000 0.000000 1.000000
outer loop
vertex 7.066553 7.594223 0.100000
vertex 7.076121 7.617321 0.100000
vertex 7.064337 7.595275 0.100000
endloop
endfacet
facet normal -0.000008 0.000000 1.000000
outer loop
vertex 7.071243 7.592802 0.100000
vertex 7.073670 7.592443 0.100000
vertex 7.076121 7.617321 0.100000
endloop
endfacet
facet normal 0.000008 0.000000 1.000000
outer loop
vertex 7.071243 7.592802 0.100000
vertex 7.076121 7.617321 0.100000
vertex 7.068864 7.593399 0.100000
endloop
endfacet
facet normal 0.000000 0.000000 1.000000
outer loop
vertex 7.076120 7.592320 0.100000
vertex 7.078570 7.592443 0.100000
vertex 7.076121 7.617321 0.100000
endloop
endfacet
facet normal 0.000000 0.000000 1.000000
outer loop
vertex 7.076120 7.592320 0.100000
vertex 7.076121 7.617321 0.100000
vertex 7.073670 7.592443 0.100000
endloop
endfacet
facet normal -0.000008 0.000000 1.000000
outer loop
vertex 7.080998 7.592802 0.100000
vertex 7.083377 7.593399 0.100000
vertex 7.076121 7.617321 0.100000
endloop
endfacet
facet normal 0.000008 0.000000 1.000000
outer loop
vertex 7.080998 7.592802 0.100000
vertex 7.076121 7.617321 0.100000
vertex 7.078570 7.592443 0.100000
endloop
endfacet
facet normal 0.000000 0.000000 1.000000
outer loop
vertex 7.085687 7.594223 0.100000
vertex 7.087904 7.595274 0.100000
vertex 7.076121 7.617321 0.100000
endloop
endfacet
facet normal 0.000008 0.000000 1.000000
outer loop
vertex 7.085687 7.594223 0.100000
vertex 7.076121 7.617321 0.100000
vertex 7.083377 7.593399 0.100000
endloop
endfacet
facet normal 0.000000 0.000000 1.000000
outer loop
vertex 7.090009 7.596533 0.100000
vertex 7.091978 7.597997 0.100000
vertex 7.076121 7.617321 0.100000
endloop
endfacet
facet normal 0.000000 0.000000 1.000000
outer loop
vertex 7.090009 7.596533 0.100000
vertex 7.076121 7.617321 0.100000
vertex 7.087904 7.595274 0.100000
endloop
endfacet
facet normal 0.000000 0.000000 1.000000
outer loop
vertex 7.093797 7.599643 0.100000
vertex 7.095443 7.601462 0.100000
vertex 7.076121 7.617321 0.100000
endloop
endfacet
facet normal 0.000000 0.000000 1.000000
outer loop
vertex 7.093797 7.599643 0.100000
vertex 7.076121 7.617321 0.100000
vertex 7.091978 7.597997 0.100000
endloop
endfacet
facet normal 0.000000 0.000000 1.000000
outer loop
vertex 7.096906 7.603431 0.100000
vertex 7.098166 7.605537 0.100000
vertex 7.076121 7.617321 0.100000
endloop
endfacet
facet normal 0.000000 0.000000 1.000000
outer loop
vertex 7.096906 7.603431 0.100000
vertex 7.076121 7.617321 0.100000
vertex 7.095443 7.601462 0.100000
endloop
endfacet
facet normal -0.000002 0.000000 1.000000
outer loop
vertex 7.099217 7.607753 0.100000
vertex 7.100041 7.610064 0.100000
vertex 7.076121 7.617321 0.100000
endloop
endfacet
facet normal 0.000000 0.000000 1.000000
outer loop
vertex 7.099217 7.607753 0.100000
vertex 7.076121 7.617321 0.100000
vertex 7.098166 7.605537 0.100000
endloop
endfacet
facet normal 0.000000 0.000000 1.000000
outer loop
vertex 7.100640 7.612443 0.100000
vertex 7.100998 7.614870 0.100000
vertex 7.076121 7.617321 0.100000
endloop
endfacet
facet normal 0.000000 0.000000 1.000000
outer loop
vertex 7.100640 7.612443 0.100000
vertex 7.076121 7.617321 0.100000
vertex 7.100041 7.610064 0.100000
endloop
endfacet
facet normal 0.000000 0.000000 1.000000
outer loop
vertex 7.101120 7.617320 0.100000
vertex 7.100998 7.619769 0.100000
vertex 7.076121 7.617321 0.100000
endloop
endfacet
facet normal 0.000000 0.000000 1.000000
outer loop
vertex 7.101120 7.617320 0.100000
vertex 7.076121 7.617321 0.100000
vertex 7.100998 7.614870 0.100000
endloop
endfacet
facet normal 0.000000 0.000000 1.000000
outer loop
vertex 7.100640 7.622197 0.100000
vertex 7.100041 7.624577 0.100000
vertex 7.076121 7.617321 0.100000
endloop
endfacet
facet normal 0.000000 0.000000 1.000000
outer loop
vertex 7.100640 7.622197 0.100000
vertex 7.076121 7.617321 0.100000
vertex 7.100998 7.619769 0.100000
endloop
endfacet
facet normal 0.000000 0.000000 1.000000
outer loop
vertex 7.099217 7.626886 0.100000
vertex 7.098166 7.629104 0.100000
vertex 7.076121 7.617321 0.100000
endloop
endfacet
facet normal -0.000002 0.000000 1.000000
outer loop
vertex 7.099217 7.626886 0.100000
vertex 7.076121 7.617321 0.100000
vertex 7.100041 7.624577 0.100000
endloop
endfacet
facet normal 0.000000 0.000000 1.000000
outer loop
vertex 7.096906 7.631208 0.100000
vertex 7.095443 7.633178 0.100000
vertex 7.076121 7.617321 0.100000
endloop
endfacet
facet normal 0.000000 0.000000 1.000000
outer loop
vertex 7.096906 7.631208 0.100000
vertex 7.076121 7.617321 0.100000
vertex 7.098166 7.629104 0.100000
endloop
endfacet
facet normal 0.000000 0.000000 1.000000
outer loop
vertex 7.093797 7.634997 0.100000
vertex 7.091978 7.636643 0.100000
vertex 7.076121 7.617321 0.100000
endloop
endfacet
facet normal -0.000004 0.000000 1.000000
outer loop
vertex 7.093797 7.634997 0.100000
vertex 7.076121 7.617321 0.100000
vertex 7.095443 7.633178 0.100000
endloop
endfacet
facet normal 0.000000 0.000000 1.000000
outer loop
vertex 7.090009 7.638106 0.100000
vertex 7.087904 7.639366 0.100000
vertex 7.076121 7.617321 0.100000
endloop
endfacet
facet normal 0.000000 0.000000 1.000000
outer loop
vertex 7.090009 7.638106 0.100000
vertex 7.076121 7.617321 0.100000
vertex 7.091978 7.636643 0.100000
endloop
endfacet
facet normal 0.000008 0.000000 1.000000
outer loop
vertex 7.085687 7.640416 0.100000
vertex 7.083377 7.641240 0.100000
vertex 7.076121 7.617321 0.100000
endloop
endfacet
facet normal -0.000008 0.000000 1.000000
outer loop
vertex 7.085687 7.640416 0.100000
vertex 7.076121 7.617321 0.100000
vertex 7.087904 7.639366 0.100000
endloop
endfacet
facet normal -0.336774 0.941586 0.000000
outer loop
vertex 7.066554 7.640414 0.000000
vertex 7.066554 7.640414 0.050000
vertex 7.068864 7.641240 0.050000
endloop
endfacet
facet normal -0.336620 0.941641 0.000000
outer loop
vertex 7.066554 7.640414 0.000000
vertex 7.068864 7.641240 0.050000
vertex 7.068864 7.641240 0.000000
endloop
endfacet
facet normal -0.336774 0.941586 0.000000
outer loop
vertex 7.066554 7.640414 0.050000
vertex 7.066554 7.640414 0.100000
vertex 7.068864 7.641240 0.100000
endloop
endfacet
facet normal -0.336620 0.941641 0.000000
outer loop
vertex 7.066554 7.640414 0.050000
vertex 7.068864 7.641240 0.100000
vertex 7.068864 7.641240 0.050000
endloop
endfacet
facet normal -0.243244 0.969965 0.000000
outer loop
vertex 7.068864 7.641240 0.050000
vertex 7.068864 7.641240 0.100000
vertex 7.071244 7.641837 0.100000
endloop
endfacet
facet normal -0.243474 0.969908 0.000019
outer loop
vertex 7.068864 7.641240 0.050000
vertex 7.071244 7.641837 0.100000
vertex 7.071243 7.641837 0.050000
endloop
endfacet
facet normal -0.243474 0.969908 0.000000
outer loop
vertex 7.068864 7.641240 0.000000
vertex 7.068864 7.641240 0.050000
vertex 7.071243 7.641837 0.050000
endloop
endfacet
facet normal -0.243244 0.969965 -0.000019
outer loop
vertex 7.068864 7.641240 0.000000
vertex 7.071243 7.641837 0.050000
vertex 7.071244 7.641837 0.000000
endloop
endfacet
facet normal -0.146725 0.989177 0.000030
outer loop
vertex 7.071244 7.641837 0.000000
vertex 7.071243 7.641837 0.050000
vertex 7.073670 7.642197 0.050000
endloop
endfacet
facet normal -0.146795 0.989167 0.000000
outer loop
vertex 7.071244 7.641837 0.000000
vertex 7.073670 7.642197 0.050000
vertex 7.073670 7.642197 0.000000
endloop
endfacet
facet normal -0.146795 0.989167 -0.000030
outer loop
vertex 7.071243 7.641837 0.050000
vertex 7.071244 7.641837 0.100000
vertex 7.073670 7.642197 0.100000
endloop
endfacet
facet normal -0.146725 0.989177 0.000000
outer loop
vertex 7.071243 7.641837 0.050000
vertex 7.073670 7.642197 0.100000
vertex 7.073670 7.642197 0.050000
endloop
endfacet
facet normal -0.049186 0.998790 0.000000
outer loop
vertex 7.073670 7.642197 0.050000
vertex 7.073670 7.642197 0.100000
vertex 7.076120 7.642318 0.100000
endloop
endfacet
facet normal -0.049186 0.998790 0.000000
outer loop
vertex 7.073670 7.642197 0.050000
vertex 7.076120 7.642318 0.100000
vertex 7.076120 7.642318 0.050000
endloop
endfacet
facet normal -0.049186 0.998790 0.000000
outer loop
vertex 7.073670 7.642197 0.000000
vertex 7.073670 7.642197 0.050000
vertex 7.076120 7.642318 0.050000
endloop
endfacet
facet normal -0.049186 0.998790 0.000000
outer loop
vertex 7.073670 7.642197 0.000000
vertex 7.076120 7.642318 0.050000
vertex 7.076120 7.642318 0.000000
endloop
endfacet
facet normal 0.000000 0.000000 -1.000000
outer loop
vertex 7.076120 7.642320 0.000000
vertex 7.078570 7.642197 0.000000
vertex 7.076121 7.617321 0.000000
endloop
endfacet
facet normal 0.000000 0.000000 -1.000000
outer loop
vertex 7.076120 7.642320 0.000000
vertex 7.076121 7.617321 0.000000
vertex 7.073670 7.642197 0.000000
endloop
endfacet
facet normal 0.000000 0.000000 -1.000000
outer loop
vertex 7.080998 7.641840 0.000000
vertex 7.083377 7.641240 0.000000
vertex 7.076121 7.617321 0.000000
endloop
endfacet
facet normal 0.000000 0.000000 -1.000000
outer loop
vertex 7.080998 7.641840 0.000000
vertex 7.076121 7.617321 0.000000
vertex 7.078570 7.642197 0.000000
endloop
endfacet
facet normal 0.000000 0.000000 -1.000000
outer loop
vertex 7.085687 7.640416 0.000000
vertex 7.087904 7.639366 0.000000
vertex 7.076121 7.617321 0.000000
endloop
endfacet
facet normal 0.000000 0.000000 -1.000000
outer loop
vertex 7.085687 7.640416 0.000000
vertex 7.076121 7.617321 0.000000
vertex 7.083377 7.641240 0.000000
endloop
endfacet
facet normal 0.000000 0.000000 -1.000000
outer loop
vertex 7.090009 7.638106 0.000000
vertex 7.091978 7.636643 0.000000
vertex 7.076121 7.617321 0.000000
endloop
endfacet
facet normal 0.000000 0.000000 -1.000000
outer loop
vertex 7.090009 7.638106 0.000000
vertex 7.076121 7.617321 0.000000
vertex 7.087904 7.639366 0.000000
endloop
endfacet
facet normal 0.000000 0.000000 -1.000000
outer loop
vertex 7.093797 7.634997 0.000000
vertex 7.095443 7.633178 0.000000
vertex 7.076121 7.617321 0.000000
endloop
endfacet
facet normal 0.000000 0.000000 -1.000000
outer loop
vertex 7.093797 7.634997 0.000000
vertex 7.076121 7.617321 0.000000
vertex 7.091978 7.636643 0.000000
endloop
endfacet
facet normal 0.000000 0.000000 -1.000000
outer loop
vertex 7.096906 7.631208 0.000000
vertex 7.098166 7.629104 0.000000
vertex 7.076121 7.617321 0.000000
endloop
endfacet
facet normal 0.000000 0.000000 -1.000000
outer loop
vertex 7.096906 7.631208 0.000000
vertex 7.076121 7.617321 0.000000
vertex 7.095443 7.633178 0.000000
endloop
endfacet
facet normal 0.000000 0.000000 -1.000000
outer loop
vertex 7.099217 7.626886 0.000000
vertex 7.100041 7.624577 0.000000
vertex 7.076121 7.617321 0.000000
endloop
endfacet
facet normal 0.000000 0.000000 -1.000000
outer loop
vertex 7.099217 7.626886 0.000000
vertex 7.076121 7.617321 0.000000
vertex 7.098166 7.629104 0.000000
endloop
endfacet
facet normal 0.000000 0.000000 -1.000000
outer loop
vertex 7.100640 7.622197 0.000000
vertex 7.100998 7.619769 0.000000
vertex 7.076121 7.617321 0.000000
endloop
endfacet
facet normal 0.000000 0.000000 -1.000000
outer loop
vertex 7.100640 7.622197 0.000000
vertex 7.076121 7.617321 0.000000
vertex 7.100041 7.624577 0.000000
endloop
endfacet
facet normal 0.000000 0.000000 -1.000000
outer loop
vertex 7.101120 7.617320 0.000000
vertex 7.100998 7.614870 0.000000
vertex 7.076121 7.617321 0.000000
endloop
endfacet
facet normal 0.000000 0.000000 -1.000000
outer loop
vertex 7.101120 7.617320 0.000000
vertex 7.076121 7.617321 0.000000
vertex 7.100998 7.619769 0.000000
endloop
endfacet
facet normal 0.000000 0.000000 -1.000000
outer loop
vertex 7.100640 7.612443 0.000000
vertex 7.100041 7.610064 0.000000
vertex 7.076121 7.617321 0.000000
endloop
endfacet
facet normal 0.000000 0.000000 -1.000000
outer loop
vertex 7.100640 7.612443 0.000000
vertex 7.076121 7.617321 0.000000
vertex 7.100998 7.614870 0.000000
endloop
endfacet
facet normal 0.000000 0.000000 -1.000000
outer loop
vertex 7.099217 7.607753 0.000000
vertex 7.098166 7.605536 0.000000
vertex 7.076121 7.617321 0.000000
endloop
endfacet
facet normal 0.000000 0.000000 -1.000000
outer loop
vertex 7.099217 7.607753 0.000000
vertex 7.076121 7.617321 0.000000
vertex 7.100041 7.610064 0.000000
endloop
endfacet
facet normal 0.000000 0.000000 -1.000000
outer loop
vertex 7.096906 7.603431 0.000000
vertex 7.095443 7.601462 0.000000
vertex 7.076121 7.617321 0.000000
endloop
endfacet
facet normal 0.000000 0.000000 -1.000000
outer loop
vertex 7.096906 7.603431 0.000000
vertex 7.076121 7.617321 0.000000
vertex 7.098166 7.605536 0.000000
endloop
endfacet
facet normal 0.000000 0.000000 -1.000000
outer loop
vertex 7.093797 7.599643 0.000000
vertex 7.091978 7.597997 0.000000
vertex 7.076121 7.617321 0.000000
endloop
endfacet
facet normal 0.000000 0.000000 -1.000000
outer loop
vertex 7.093797 7.599643 0.000000
vertex 7.076121 7.617321 0.000000
vertex 7.095443 7.601462 0.000000
endloop
endfacet
facet normal 0.000000 0.000000 -1.000000
outer loop
vertex 7.090009 7.596533 0.000000
vertex 7.087904 7.595274 0.000000
vertex 7.076121 7.617321 0.000000
endloop
endfacet
facet normal 0.000000 0.000000 -1.000000
outer loop
vertex 7.090009 7.596533 0.000000
vertex 7.076121 7.617321 0.000000
vertex 7.091978 7.597997 0.000000
endloop
endfacet
facet normal 0.000000 0.000000 -1.000000
outer loop
vertex 7.085687 7.594223 0.000000
vertex 7.083377 7.593399 0.000000
vertex 7.076121 7.617321 0.000000
endloop
endfacet
facet normal 0.000000 0.000000 -1.000000
outer loop
vertex 7.085687 7.594223 0.000000
vertex 7.076121 7.617321 0.000000
vertex 7.087904 7.595274 0.000000
endloop
endfacet
facet normal 0.000000 0.000000 -1.000000
outer loop
vertex 7.080998 7.592802 0.000000
vertex 7.078570 7.592443 0.000000
vertex 7.076121 7.617321 0.000000
endloop
endfacet
facet normal 0.000000 0.000000 -1.000000
outer loop
vertex 7.080998 7.592802 0.000000
vertex 7.076121 7.617321 0.000000
vertex 7.083377 7.593399 0.000000
endloop
endfacet
facet normal 0.000000 0.000000 -1.000000
outer loop
vertex 7.076120 7.592320 0.000000
vertex 7.073670 7.592443 0.000000
vertex 7.076121 7.617321 0.000000
endloop
endfacet
facet normal 0.000000 0.000000 -1.000000
outer loop
vertex 7.076120 7.592320 0.000000
vertex 7.076121 7.617321 0.000000
vertex 7.078570 7.592443 0.000000
endloop
endfacet
facet normal 0.000000 0.000000 -1.000000
outer loop
vertex 7.071243 7.592802 0.000000
vertex 7.068864 7.593399 0.000000
vertex 7.076121 7.617321 0.000000
endloop
endfacet
facet normal 0.000000 0.000000 -1.000000
outer loop
vertex 7.071243 7.592802 0.000000
vertex 7.076121 7.617321 0.000000
vertex 7.073670 7.592443 0.000000
endloop
endfacet
facet normal 0.000000 0.000000 -1.000000
outer loop
vertex 7.066553 7.594223 0.000000
vertex 7.064336 7.595274 0.000000
vertex 7.076121 7.617321 0.000000
endloop
endfacet
facet normal 0.000000 0.000000 -1.000000
outer loop
vertex 7.066553 7.594223 0.000000
vertex 7.076121 7.617321 0.000000
vertex 7.068864 7.593399 0.000000
endloop
endfacet
facet normal 0.000000 0.000000 -1.000000
outer loop
vertex 7.062231 7.596533 0.000000
vertex 7.060262 7.597997 0.000000
vertex 7.076121 7.617321 0.000000
endloop
endfacet
facet normal 0.000000 0.000000 -1.000000
outer loop
vertex 7.062231 7.596533 0.000000
vertex 7.076121 7.617321 0.000000
vertex 7.064336 7.595274 0.000000
endloop
endfacet
facet normal 0.000000 0.000000 -1.000000
outer loop
vertex 7.058443 7.599643 0.000000
vertex 7.056797 7.601462 0.000000
vertex 7.076121 7.617321 0.000000
endloop
endfacet
facet normal 0.000000 0.000000 -1.000000
outer loop
vertex 7.058443 7.599643 0.000000
vertex 7.076121 7.617321 0.000000
vertex 7.060262 7.597997 0.000000
endloop
endfacet
facet normal 0.000000 0.000000 -1.000000
outer loop
vertex 7.055333 7.603431 0.000000
vertex 7.054074 7.605537 0.000000
vertex 7.076121 7.617321 0.000000
endloop
endfacet
facet normal 0.000000 0.000000 -1.000000
outer loop
vertex 7.055333 7.603431 0.000000
vertex 7.076121 7.617321 0.000000
vertex 7.056797 7.601462 0.000000
endloop
endfacet
facet normal 0.000000 0.000000 -1.000000
outer loop
vertex 7.053023 7.607753 0.000000
vertex 7.052199 7.610064 0.000000
vertex 7.076121 7.617321 0.000000
endloop
endfacet
facet normal 0.000000 0.000000 -1.000000
outer loop
vertex 7.053023 7.607753 0.000000
vertex 7.076121 7.617321 0.000000
vertex 7.054074 7.605537 0.000000
endloop
endfacet
facet normal 0.000000 0.000000 -1.000000
outer loop
vertex 7.051601 7.612443 0.000000
vertex 7.051243 7.614870 0.000000
vertex 7.076121 7.617321 0.000000
endloop
endfacet
facet normal 0.000000 0.000000 -1.000000
outer loop
vertex 7.051601 7.612443 0.000000
vertex 7.076121 7.617321 0.000000
vertex 7.052199 7.610064 0.000000
endloop
endfacet
facet normal 0.000000 0.000000 -1.000000
outer loop
vertex 7.051120 7.617320 0.000000
vertex 7.051243 7.619769 0.000000
vertex 7.076121 7.617321 0.000000
endloop
endfacet
facet normal 0.000000 0.000000 -1.000000
outer loop
vertex 7.051120 7.617320 0.000000
vertex 7.076121 7.617321 0.000000
vertex 7.051243 7.614870 0.000000
endloop
endfacet
facet normal 0.000000 0.000000 -1.000000
outer loop
vertex 7.051601 7.622197 0.000000
vertex 7.052199 7.624577 0.000000
vertex 7.076121 7.617321 0.000000
endloop
endfacet
facet normal 0.000000 0.000000 -1.000000
outer loop
vertex 7.051601 7.622197 0.000000
vertex 7.076121 7.617321 0.000000
vertex 7.051243 7.619769 0.000000
endloop
endfacet
facet normal 0.000000 0.000000 -1.000000
outer loop
vertex 7.053023 7.626886 0.000000
vertex 7.054074 7.629104 0.000000
vertex 7.076121 7.617321 0.000000
endloop
endfacet
facet normal 0.000000 0.000000 -1.000000
outer loop
vertex 7.053023 7.626886 0.000000
vertex 7.076121 7.617321 0.000000
vertex 7.052199 7.624577 0.000000
endloop
endfacet
facet normal 0.000000 0.000000 -1.000000
outer loop
vertex 7.055333 7.631208 0.000000
vertex 7.056797 7.633178 0.000000
vertex 7.076121 7.617321 0.000000
endloop
endfacet
facet normal 0.000000 0.000000 -1.000000
outer loop
vertex 7.055333 7.631208 0.000000
vertex 7.076121 7.617321 0.000000
vertex 7.054074 7.629104 0.000000
endloop
endfacet
facet normal 0.000000 0.000000 -1.000000
outer loop
vertex 7.058443 7.634997 0.000000
vertex 7.060262 7.636643 0.000000
vertex 7.076121 7.617321 0.000000
endloop
endfacet
facet normal 0.000000 0.000000 -1.000000
outer loop
vertex 7.058443 7.634997 0.000000
vertex 7.076121 7.617321 0.000000
vertex 7.056797 7.633178 0.000000
endloop
endfacet
facet normal 0.000000 0.000000 -1.000000
outer loop
vertex 7.062231 7.638106 0.000000
vertex 7.064337 7.639366 0.000000
vertex 7.076121 7.617321 0.000000
endloop
endfacet
facet normal 0.000000 0.000000 -1.000000
outer loop
vertex 7.062231 7.638106 0.000000
vertex 7.076121 7.617321 0.000000
vertex 7.060262 7.636643 0.000000
endloop
endfacet
facet normal 0.000000 0.000000 -1.000000
outer loop
vertex 7.066553 7.640416 0.000000
vertex 7.068864 7.641240 0.000000
vertex 7.076121 7.617321 0.000000
endloop
endfacet
facet normal 0.000000 0.000000 -1.000000
outer loop
vertex 7.066553 7.640416 0.000000
vertex 7.076121 7.617321 0.000000
vertex 7.064337 7.639366 0.000000
endloop
endfacet
facet normal 0.000000 0.000000 -1.000000
outer loop
vertex 7.071243 7.641840 0.000000
vertex 7.073670 7.642197 0.000000
vertex 7.076121 7.617321 0.000000
endloop
endfacet
facet normal 0.000000 0.000000 -1.000000
outer loop
vertex 7.071243 7.641840 0.000000
vertex 7.076121 7.617321 0.000000
vertex 7.068864 7.641240 0.000000
endloop
endfacet
endsolid Exported from Blender-2.82 (sub 7)
